%TF.GenerationSoftware,KiCad,Pcbnew,7.0.10*%
%TF.CreationDate,2025-12-17T19:57:45-05:00*%
%TF.ProjectId,MiniBot,4d696e69-426f-4742-9e6b-696361645f70,rev?*%
%TF.SameCoordinates,Original*%
%TF.FileFunction,Copper,L4,Bot*%
%TF.FilePolarity,Positive*%
%FSLAX46Y46*%
G04 Gerber Fmt 4.6, Leading zero omitted, Abs format (unit mm)*
G04 Created by KiCad (PCBNEW 7.0.10) date 2025-12-17 19:57:45*
%MOMM*%
%LPD*%
G01*
G04 APERTURE LIST*
G04 Aperture macros list*
%AMRoundRect*
0 Rectangle with rounded corners*
0 $1 Rounding radius*
0 $2 $3 $4 $5 $6 $7 $8 $9 X,Y pos of 4 corners*
0 Add a 4 corners polygon primitive as box body*
4,1,4,$2,$3,$4,$5,$6,$7,$8,$9,$2,$3,0*
0 Add four circle primitives for the rounded corners*
1,1,$1+$1,$2,$3*
1,1,$1+$1,$4,$5*
1,1,$1+$1,$6,$7*
1,1,$1+$1,$8,$9*
0 Add four rect primitives between the rounded corners*
20,1,$1+$1,$2,$3,$4,$5,0*
20,1,$1+$1,$4,$5,$6,$7,0*
20,1,$1+$1,$6,$7,$8,$9,0*
20,1,$1+$1,$8,$9,$2,$3,0*%
%AMFreePoly0*
4,1,19,0.550000,-0.750000,0.000000,-0.750000,0.000000,-0.744911,-0.071157,-0.744911,-0.207708,-0.704816,-0.327430,-0.627875,-0.420627,-0.520320,-0.479746,-0.390866,-0.500000,-0.250000,-0.500000,0.250000,-0.479746,0.390866,-0.420627,0.520320,-0.327430,0.627875,-0.207708,0.704816,-0.071157,0.744911,0.000000,0.744911,0.000000,0.750000,0.550000,0.750000,0.550000,-0.750000,0.550000,-0.750000,
$1*%
%AMFreePoly1*
4,1,19,0.000000,0.744911,0.071157,0.744911,0.207708,0.704816,0.327430,0.627875,0.420627,0.520320,0.479746,0.390866,0.500000,0.250000,0.500000,-0.250000,0.479746,-0.390866,0.420627,-0.520320,0.327430,-0.627875,0.207708,-0.704816,0.071157,-0.744911,0.000000,-0.744911,0.000000,-0.750000,-0.550000,-0.750000,-0.550000,0.750000,0.000000,0.750000,0.000000,0.744911,0.000000,0.744911,
$1*%
G04 Aperture macros list end*
%TA.AperFunction,SMDPad,CuDef*%
%ADD10R,0.400000X0.800000*%
%TD*%
%TA.AperFunction,SMDPad,CuDef*%
%ADD11R,0.800000X0.400000*%
%TD*%
%TA.AperFunction,SMDPad,CuDef*%
%ADD12R,1.450000X1.450000*%
%TD*%
%TA.AperFunction,SMDPad,CuDef*%
%ADD13R,0.700000X0.700000*%
%TD*%
%TA.AperFunction,SMDPad,CuDef*%
%ADD14R,1.150000X0.580000*%
%TD*%
%TA.AperFunction,SMDPad,CuDef*%
%ADD15R,1.150000X0.280000*%
%TD*%
%TA.AperFunction,SMDPad,CuDef*%
%ADD16R,1.500000X1.500000*%
%TD*%
%TA.AperFunction,SMDPad,CuDef*%
%ADD17C,0.226000*%
%TD*%
%TA.AperFunction,ComponentPad*%
%ADD18RoundRect,0.250000X-0.350000X-0.625000X0.350000X-0.625000X0.350000X0.625000X-0.350000X0.625000X0*%
%TD*%
%TA.AperFunction,ComponentPad*%
%ADD19O,1.200000X1.750000*%
%TD*%
%TA.AperFunction,SMDPad,CuDef*%
%ADD20RoundRect,0.135000X-0.185000X0.135000X-0.185000X-0.135000X0.185000X-0.135000X0.185000X0.135000X0*%
%TD*%
%TA.AperFunction,SMDPad,CuDef*%
%ADD21RoundRect,0.135000X0.135000X0.185000X-0.135000X0.185000X-0.135000X-0.185000X0.135000X-0.185000X0*%
%TD*%
%TA.AperFunction,SMDPad,CuDef*%
%ADD22RoundRect,0.140000X-0.140000X-0.170000X0.140000X-0.170000X0.140000X0.170000X-0.140000X0.170000X0*%
%TD*%
%TA.AperFunction,SMDPad,CuDef*%
%ADD23RoundRect,0.140000X0.170000X-0.140000X0.170000X0.140000X-0.170000X0.140000X-0.170000X-0.140000X0*%
%TD*%
%TA.AperFunction,SMDPad,CuDef*%
%ADD24FreePoly0,180.000000*%
%TD*%
%TA.AperFunction,SMDPad,CuDef*%
%ADD25R,1.000000X1.500000*%
%TD*%
%TA.AperFunction,SMDPad,CuDef*%
%ADD26FreePoly1,180.000000*%
%TD*%
%TA.AperFunction,SMDPad,CuDef*%
%ADD27C,1.000000*%
%TD*%
%TA.AperFunction,SMDPad,CuDef*%
%ADD28RoundRect,0.135000X-0.135000X-0.185000X0.135000X-0.185000X0.135000X0.185000X-0.135000X0.185000X0*%
%TD*%
%TA.AperFunction,SMDPad,CuDef*%
%ADD29RoundRect,0.140000X-0.170000X0.140000X-0.170000X-0.140000X0.170000X-0.140000X0.170000X0.140000X0*%
%TD*%
%TA.AperFunction,SMDPad,CuDef*%
%ADD30RoundRect,0.135000X0.185000X-0.135000X0.185000X0.135000X-0.185000X0.135000X-0.185000X-0.135000X0*%
%TD*%
%TA.AperFunction,SMDPad,CuDef*%
%ADD31FreePoly0,270.000000*%
%TD*%
%TA.AperFunction,SMDPad,CuDef*%
%ADD32R,1.500000X1.000000*%
%TD*%
%TA.AperFunction,SMDPad,CuDef*%
%ADD33FreePoly1,270.000000*%
%TD*%
%TA.AperFunction,ViaPad*%
%ADD34C,0.500000*%
%TD*%
%TA.AperFunction,ViaPad*%
%ADD35C,0.800000*%
%TD*%
%TA.AperFunction,Conductor*%
%ADD36C,0.250000*%
%TD*%
%TA.AperFunction,Conductor*%
%ADD37C,0.500000*%
%TD*%
%TA.AperFunction,Conductor*%
%ADD38C,0.400000*%
%TD*%
%TA.AperFunction,Conductor*%
%ADD39C,0.200000*%
%TD*%
G04 APERTURE END LIST*
%TA.AperFunction,EtchedComponent*%
%TO.C,JP1*%
G36*
X122390000Y-111450000D02*
G01*
X121890000Y-111450000D01*
X121890000Y-110850000D01*
X122390000Y-110850000D01*
X122390000Y-111450000D01*
G37*
%TD.AperFunction*%
%TA.AperFunction,EtchedComponent*%
%TO.C,JP2*%
G36*
X116560000Y-108980000D02*
G01*
X115960000Y-108980000D01*
X115960000Y-108480000D01*
X116560000Y-108480000D01*
X116560000Y-108980000D01*
G37*
%TD.AperFunction*%
%TD*%
D10*
%TO.P,U1,1,GND_1*%
%TO.N,GND*%
X116350000Y-93650000D03*
%TO.P,U1,2,GND_2*%
X117150000Y-93650000D03*
%TO.P,U1,3,3V3*%
%TO.N,+3V3*%
X117950000Y-93650000D03*
%TO.P,U1,4,NC_1*%
%TO.N,unconnected-(U1-NC_1-Pad4)*%
X118750000Y-93650000D03*
%TO.P,U1,5,IO2*%
%TO.N,/GPIO2*%
X119550000Y-93650000D03*
%TO.P,U1,6,IO3*%
%TO.N,/M_RST*%
X120350000Y-93650000D03*
%TO.P,U1,7,NC_2*%
%TO.N,unconnected-(U1-NC_2-Pad7)*%
X121150000Y-93650000D03*
%TO.P,U1,8,EN*%
%TO.N,/RST*%
X121950000Y-93650000D03*
%TO.P,U1,9,NC_3*%
%TO.N,unconnected-(U1-NC_3-Pad9)*%
X122750000Y-93650000D03*
%TO.P,U1,10,NC_4*%
%TO.N,unconnected-(U1-NC_4-Pad10)*%
X123550000Y-93650000D03*
%TO.P,U1,11,GND_3*%
%TO.N,GND*%
X124350000Y-93650000D03*
D11*
%TO.P,U1,12,IO0*%
%TO.N,/GPIO0*%
X125250000Y-94750000D03*
%TO.P,U1,13,IO1*%
%TO.N,/VSENSE*%
X125250000Y-95550000D03*
%TO.P,U1,14,GND_4*%
%TO.N,GND*%
X125250000Y-96350000D03*
%TO.P,U1,15,NC_5*%
%TO.N,unconnected-(U1-NC_5-Pad15)*%
X125250000Y-97150000D03*
%TO.P,U1,16,IO10*%
%TO.N,/M0_STEP*%
X125250000Y-97950000D03*
%TO.P,U1,17,NC_6*%
%TO.N,unconnected-(U1-NC_6-Pad17)*%
X125250000Y-98750000D03*
%TO.P,U1,18,IO4*%
%TO.N,/M0_DIR*%
X125250000Y-99550000D03*
%TO.P,U1,19,IO5*%
%TO.N,/M1_DIR*%
X125250000Y-100350000D03*
%TO.P,U1,20,IO6*%
%TO.N,/M1_STEP*%
X125250000Y-101150000D03*
%TO.P,U1,21,IO7*%
%TO.N,/M_EN*%
X125250000Y-101950000D03*
%TO.P,U1,22,IO8*%
%TO.N,/GPIO8*%
X125250000Y-102750000D03*
%TO.P,U1,23,IO9*%
%TO.N,/GPIO9*%
X125250000Y-103550000D03*
%TO.P,U1,24,NC_7*%
%TO.N,unconnected-(U1-NC_7-Pad24)*%
X125250000Y-104350000D03*
D10*
%TO.P,U1,25,NC_8*%
%TO.N,unconnected-(U1-NC_8-Pad25)*%
X124350000Y-105450000D03*
%TO.P,U1,26,IO18*%
%TO.N,/USB-*%
X123550000Y-105450000D03*
%TO.P,U1,27,IO19*%
%TO.N,/USB+*%
X122750000Y-105450000D03*
%TO.P,U1,28,NC_9*%
%TO.N,unconnected-(U1-NC_9-Pad28)*%
X121950000Y-105450000D03*
%TO.P,U1,29,NC_10*%
%TO.N,unconnected-(U1-NC_10-Pad29)*%
X121150000Y-105450000D03*
%TO.P,U1,30,RXD0*%
%TO.N,/SDA*%
X120350000Y-105450000D03*
%TO.P,U1,31,TXD0*%
%TO.N,/SCL*%
X119550000Y-105450000D03*
%TO.P,U1,32,NC_11*%
%TO.N,unconnected-(U1-NC_11-Pad32)*%
X118750000Y-105450000D03*
%TO.P,U1,33,NC_12*%
%TO.N,unconnected-(U1-NC_12-Pad33)*%
X117950000Y-105450000D03*
%TO.P,U1,34,NC_13*%
%TO.N,unconnected-(U1-NC_13-Pad34)*%
X117150000Y-105450000D03*
%TO.P,U1,35,NC_14*%
%TO.N,unconnected-(U1-NC_14-Pad35)*%
X116350000Y-105450000D03*
D11*
%TO.P,U1,36,GND_5*%
%TO.N,GND*%
X115450000Y-104350000D03*
%TO.P,U1,37,GND_6*%
X115450000Y-103550000D03*
%TO.P,U1,38,GND_7*%
X115450000Y-102750000D03*
%TO.P,U1,39,GND_8*%
X115450000Y-101950000D03*
%TO.P,U1,40,GND_9*%
X115450000Y-101150000D03*
%TO.P,U1,41,GND_10*%
X115450000Y-100350000D03*
%TO.P,U1,42,GND_11*%
X115450000Y-99550000D03*
%TO.P,U1,43,GND_12*%
X115450000Y-98750000D03*
%TO.P,U1,44,GND_13*%
X115450000Y-97950000D03*
%TO.P,U1,45,GND_14*%
X115450000Y-97150000D03*
%TO.P,U1,46,GND_15*%
X115450000Y-96350000D03*
%TO.P,U1,47,GND_16*%
X115450000Y-95550000D03*
%TO.P,U1,48,GND_17*%
X115450000Y-94750000D03*
D12*
%TO.P,U1,49,GND_18*%
X120350000Y-99550000D03*
D13*
%TO.P,U1,50,GND_19*%
X115450000Y-105450000D03*
%TO.P,U1,51,GND_20*%
X125250000Y-105450000D03*
%TO.P,U1,52,GND_21*%
X125250000Y-93650000D03*
%TO.P,U1,53,GND_22*%
X115450000Y-93650000D03*
D12*
%TO.P,U1,54,GND_23*%
X120350000Y-97575000D03*
%TO.P,U1,55,GND_24*%
X122325000Y-97575000D03*
%TO.P,U1,56,GND_25*%
X122325000Y-99550000D03*
%TO.P,U1,57,GND_26*%
X122325000Y-101525000D03*
%TO.P,U1,58,GND_27*%
X120350000Y-101525000D03*
%TO.P,U1,59,GND_28*%
X118375000Y-101525000D03*
%TO.P,U1,60,GND_29*%
X118375000Y-99550000D03*
%TO.P,U1,61,GND_30*%
X118375000Y-97575000D03*
%TD*%
D14*
%TO.P,J3,A1,GND_1*%
%TO.N,GND*%
X128525000Y-95650000D03*
%TO.P,J3,A4,VBUS_1*%
%TO.N,+5V*%
X128525000Y-96450000D03*
D15*
%TO.P,J3,A5,CC1*%
%TO.N,/CC1*%
X128525000Y-97600000D03*
%TO.P,J3,A6,DP1*%
%TO.N,/USB+*%
X128525000Y-98600000D03*
%TO.P,J3,A7,DN1*%
%TO.N,/USB-*%
X128525000Y-99100000D03*
%TO.P,J3,A8,SBU1*%
%TO.N,unconnected-(J3-SBU1-PadA8)*%
X128525000Y-100100000D03*
D14*
%TO.P,J3,A9,VBUS_2*%
%TO.N,+5V*%
X128525000Y-101250000D03*
%TO.P,J3,A12,GND_2*%
%TO.N,GND*%
X128525000Y-102050000D03*
D15*
%TO.P,J3,B5,CC2*%
%TO.N,/CC2*%
X128525000Y-100600000D03*
%TO.P,J3,B6,DP2*%
%TO.N,/USB+*%
X128525000Y-99600000D03*
%TO.P,J3,B7,DN2*%
%TO.N,/USB-*%
X128525000Y-98100000D03*
%TO.P,J3,B8,SBU2*%
%TO.N,unconnected-(J3-SBU2-PadB8)*%
X128525000Y-97100000D03*
D16*
%TO.P,J3,MP1,MP1*%
%TO.N,unconnected-(J3-PadMP1)*%
X129100000Y-93730000D03*
%TO.P,J3,MP2,MP2*%
%TO.N,unconnected-(J3-PadMP2)*%
X129100000Y-103970000D03*
%TO.P,J3,MP3,MP3*%
%TO.N,unconnected-(J3-PadMP3)*%
X133030000Y-93730000D03*
%TO.P,J3,MP4,MP4*%
%TO.N,unconnected-(J3-PadMP4)*%
X133030000Y-103970000D03*
%TD*%
D17*
%TO.P,IC1,A1,VSA*%
%TO.N,GND*%
X128540000Y-107120000D03*
%TO.P,IC1,A2,SCL*%
%TO.N,/SCL*%
X128940000Y-107120000D03*
%TO.P,IC1,B1,VDD*%
%TO.N,+3V3*%
X128540000Y-106720000D03*
%TO.P,IC1,B2,SDA*%
%TO.N,/SDA*%
X128940000Y-106720000D03*
%TD*%
D18*
%TO.P,J2,1,Pin_1*%
%TO.N,GND*%
X116550000Y-88450000D03*
D19*
%TO.P,J2,2,Pin_2*%
%TO.N,+BATT*%
X118550000Y-88450000D03*
%TD*%
D20*
%TO.P,R10,1*%
%TO.N,VDC*%
X123780000Y-90470000D03*
%TO.P,R10,2*%
%TO.N,/VSENSE*%
X123780000Y-91490000D03*
%TD*%
D21*
%TO.P,R9,1*%
%TO.N,+3V3*%
X131130000Y-106200000D03*
%TO.P,R9,2*%
%TO.N,/GPIO9*%
X130110000Y-106200000D03*
%TD*%
D22*
%TO.P,C5,1*%
%TO.N,/GPIO9*%
X130140000Y-107130000D03*
%TO.P,C5,2*%
%TO.N,GND*%
X131100000Y-107130000D03*
%TD*%
D23*
%TO.P,C6,1*%
%TO.N,/VSENSE*%
X124740000Y-91490000D03*
%TO.P,C6,2*%
%TO.N,GND*%
X124740000Y-90530000D03*
%TD*%
%TO.P,C3,1*%
%TO.N,/RST*%
X119610000Y-91400000D03*
%TO.P,C3,2*%
%TO.N,GND*%
X119610000Y-90440000D03*
%TD*%
D24*
%TO.P,JP1,1,A*%
%TO.N,GND*%
X122790000Y-111150000D03*
D25*
%TO.P,JP1,2,C*%
%TO.N,/MODE2*%
X121490000Y-111150000D03*
D26*
%TO.P,JP1,3,B*%
%TO.N,+3V3*%
X120190000Y-111150000D03*
%TD*%
D27*
%TO.P,J4,1,Pin_1*%
%TO.N,/GPIO0*%
X127540000Y-89810000D03*
%TD*%
D28*
%TO.P,R1,1*%
%TO.N,+3V3*%
X118450000Y-108650000D03*
%TO.P,R1,2*%
%TO.N,/SCL*%
X119470000Y-108650000D03*
%TD*%
D21*
%TO.P,R13,1*%
%TO.N,Net-(D2-K)*%
X125220000Y-87470000D03*
%TO.P,R13,2*%
%TO.N,Net-(U3-STAT)*%
X124200000Y-87470000D03*
%TD*%
D29*
%TO.P,C1,1*%
%TO.N,GND*%
X116370000Y-90500000D03*
%TO.P,C1,2*%
%TO.N,+3V3*%
X116370000Y-91460000D03*
%TD*%
D20*
%TO.P,R3,1*%
%TO.N,+3V3*%
X118660000Y-90430000D03*
%TO.P,R3,2*%
%TO.N,/RST*%
X118660000Y-91450000D03*
%TD*%
D21*
%TO.P,R2,1*%
%TO.N,+3V3*%
X121350000Y-107680000D03*
%TO.P,R2,2*%
%TO.N,/SDA*%
X120330000Y-107680000D03*
%TD*%
%TO.P,R5,1*%
%TO.N,+3V3*%
X127680000Y-91420000D03*
%TO.P,R5,2*%
%TO.N,/GPIO8*%
X126660000Y-91420000D03*
%TD*%
D23*
%TO.P,C10,1*%
%TO.N,+BATT*%
X120540000Y-91400000D03*
%TO.P,C10,2*%
%TO.N,GND*%
X120540000Y-90440000D03*
%TD*%
D30*
%TO.P,R11,1*%
%TO.N,/VSENSE*%
X125690000Y-91520000D03*
%TO.P,R11,2*%
%TO.N,GND*%
X125690000Y-90500000D03*
%TD*%
D22*
%TO.P,C8,1*%
%TO.N,VDC*%
X123800000Y-89590000D03*
%TO.P,C8,2*%
%TO.N,GND*%
X124760000Y-89590000D03*
%TD*%
D31*
%TO.P,JP2,1,A*%
%TO.N,+3V3*%
X116260000Y-108080000D03*
D32*
%TO.P,JP2,2,C*%
%TO.N,/MODE1*%
X116260000Y-109380000D03*
D33*
%TO.P,JP2,3,B*%
%TO.N,GND*%
X116260000Y-110680000D03*
%TD*%
D20*
%TO.P,R6,1*%
%TO.N,+3V3*%
X117720000Y-90440000D03*
%TO.P,R6,2*%
%TO.N,/GPIO2*%
X117720000Y-91460000D03*
%TD*%
D23*
%TO.P,C2,1*%
%TO.N,+3V3*%
X115420000Y-91460000D03*
%TO.P,C2,2*%
%TO.N,GND*%
X115420000Y-90500000D03*
%TD*%
D34*
%TO.N,GND*%
X114890000Y-110030000D03*
X125680000Y-89770000D03*
X120060000Y-89820000D03*
X117565000Y-106250002D03*
X129390000Y-95020000D03*
X125250000Y-105450000D03*
X121835000Y-106603058D03*
X117833448Y-98336552D03*
X120700000Y-86040000D03*
X118860000Y-100660000D03*
X125050000Y-110960000D03*
X115440000Y-106780000D03*
X131880000Y-91770000D03*
X115340000Y-89690000D03*
X124320000Y-94440000D03*
X115450000Y-92750000D03*
X131840000Y-107320000D03*
X118890000Y-107770000D03*
X123680000Y-107710000D03*
X129500000Y-102630000D03*
X127860000Y-107470000D03*
X126580000Y-99260000D03*
X122325000Y-97685000D03*
X124449998Y-95630000D03*
X126050002Y-98140000D03*
D35*
%TO.N,VDC*%
X122783712Y-107791684D03*
D34*
X122730000Y-91230000D03*
D35*
X117090000Y-106910000D03*
D34*
X122490000Y-94905000D03*
D35*
X131090000Y-99310000D03*
D34*
%TO.N,+3V3*%
X119030000Y-86030000D03*
X134150000Y-99200000D03*
X129480000Y-108230000D03*
X118470000Y-109480000D03*
X121888137Y-107880840D03*
D35*
X117620000Y-89699960D03*
D34*
X117360000Y-108530000D03*
X119337758Y-96528328D03*
X120900000Y-96370000D03*
X130950000Y-105030000D03*
X129950000Y-91730000D03*
X128000000Y-106760000D03*
X120230000Y-92550000D03*
%TO.N,/CC1*%
X126558984Y-96970000D03*
%TO.N,/CC2*%
X129500002Y-100067215D03*
D35*
%TO.N,+5V*%
X122660000Y-88650000D03*
X127550000Y-92410000D03*
D34*
%TO.N,/RST*%
X124440000Y-92560000D03*
%TO.N,/GPIO9*%
X128100000Y-105260000D03*
X126140000Y-105130000D03*
%TO.N,Net-(D2-K)*%
X124870000Y-86240000D03*
%TO.N,/M1_B1*%
X121800000Y-109800000D03*
X124710000Y-109800000D03*
%TO.N,/M0_B1*%
X119155000Y-106900000D03*
X119607872Y-112126303D03*
%TO.N,/M0_B2*%
X123995000Y-109270000D03*
X119300000Y-109420000D03*
%TO.N,Net-(U3-STAT)*%
X124179764Y-86309027D03*
%TO.N,/VREF*%
X119920000Y-102650000D03*
X126125230Y-102053750D03*
%TO.N,/M_EN*%
X126045000Y-100803750D03*
X117249998Y-98030000D03*
%TO.N,/M_RST*%
X117670000Y-96449998D03*
X117561257Y-94402672D03*
X123750000Y-99090000D03*
%TO.N,/M0_STEP*%
X116247804Y-94991874D03*
%TO.N,/M0_DIR*%
X116300000Y-95730000D03*
%TO.N,/M1_STEP*%
X120670000Y-103820000D03*
%TO.N,/M1_DIR*%
X120215000Y-103295000D03*
%TO.N,/GPIO0*%
X127540000Y-89810000D03*
X125915000Y-94270000D03*
%TO.N,/MODE1*%
X117360000Y-109670000D03*
X123530000Y-98320000D03*
%TO.N,/MODE2*%
X120966120Y-109835882D03*
X123449709Y-99887484D03*
X116465812Y-96879885D03*
%TD*%
D36*
%TO.N,Net-(D2-K)*%
X125220000Y-86590000D02*
X124870000Y-86240000D01*
X125220000Y-87470000D02*
X125220000Y-86590000D01*
%TO.N,Net-(U3-STAT)*%
X124200000Y-87470000D02*
X124200000Y-86329263D01*
X124200000Y-86329263D02*
X124179764Y-86309027D01*
%TO.N,/M0_B1*%
X118140000Y-106900000D02*
X119155000Y-106900000D01*
X117890000Y-107150000D02*
X118140000Y-106900000D01*
X117890000Y-110408431D02*
X117890000Y-107150000D01*
X119607872Y-112126303D02*
X117890000Y-110408431D01*
%TO.N,VDC*%
X123800000Y-90450000D02*
X123780000Y-90470000D01*
X123800000Y-89590000D02*
X123800000Y-90450000D01*
%TO.N,GND*%
X125500000Y-89590000D02*
X125680000Y-89770000D01*
X124760000Y-89590000D02*
X125500000Y-89590000D01*
X122790000Y-111150000D02*
X124860000Y-111150000D01*
%TO.N,+3V3*%
X120190000Y-111150000D02*
X119470000Y-110430000D01*
X116910000Y-108080000D02*
X117360000Y-108530000D01*
X116260000Y-108080000D02*
X116910000Y-108080000D01*
%TO.N,GND*%
X114890000Y-110030000D02*
X115540000Y-110680000D01*
X115540000Y-110680000D02*
X116260000Y-110680000D01*
X125050000Y-96350000D02*
X124449998Y-95749998D01*
X118375000Y-97575000D02*
X120350000Y-97575000D01*
D37*
X115450000Y-97950000D02*
X115450000Y-98750000D01*
X115450000Y-94750000D02*
X115450000Y-95550000D01*
X115450000Y-100350000D02*
X115450000Y-101150000D01*
X115450000Y-99550000D02*
X115450000Y-100350000D01*
D36*
X115420000Y-89770000D02*
X115340000Y-89690000D01*
D37*
X115450000Y-96350000D02*
X115450000Y-97150000D01*
D36*
X118375000Y-99550000D02*
X118375000Y-97575000D01*
X115420000Y-90500000D02*
X115420000Y-89770000D01*
X125690000Y-90500000D02*
X125690000Y-89780000D01*
X119610000Y-90270000D02*
X120060000Y-89820000D01*
X124350000Y-93650000D02*
X124350000Y-94410000D01*
D37*
X115440000Y-106780000D02*
X115440000Y-105460000D01*
X115450000Y-93650000D02*
X115450000Y-94750000D01*
D36*
X120350000Y-99550000D02*
X120350000Y-101525000D01*
X124770000Y-90500000D02*
X124740000Y-90530000D01*
X124449998Y-95749998D02*
X124449998Y-95630000D01*
X118375000Y-101525000D02*
X118375000Y-99550000D01*
X124860000Y-111150000D02*
X125050000Y-110960000D01*
D37*
X115450000Y-98750000D02*
X115450000Y-99550000D01*
D36*
X122325000Y-101525000D02*
X120350000Y-101525000D01*
X120540000Y-90440000D02*
X119610000Y-90440000D01*
D38*
X117150000Y-93650000D02*
X116350000Y-93650000D01*
D37*
X115450000Y-101150000D02*
X115450000Y-101950000D01*
X116350000Y-93650000D02*
X115450000Y-93650000D01*
X115450000Y-97150000D02*
X115450000Y-97950000D01*
D36*
X122325000Y-99550000D02*
X120350000Y-99550000D01*
X122325000Y-99550000D02*
X122325000Y-97685000D01*
D37*
X115450000Y-101950000D02*
X115450000Y-102750000D01*
X115440000Y-105460000D02*
X115450000Y-105450000D01*
X115450000Y-104350000D02*
X115450000Y-105450000D01*
D36*
X125690000Y-89780000D02*
X125680000Y-89770000D01*
X120350000Y-99550000D02*
X120350000Y-97575000D01*
X128525000Y-95650000D02*
X128760000Y-95650000D01*
X128760000Y-95650000D02*
X129390000Y-95020000D01*
X128525000Y-102050000D02*
X128920000Y-102050000D01*
X120350000Y-97575000D02*
X122325000Y-97575000D01*
D37*
X115450000Y-102750000D02*
X115450000Y-103550000D01*
D36*
X120350000Y-101525000D02*
X118375000Y-101525000D01*
X115420000Y-90500000D02*
X116370000Y-90500000D01*
D37*
X115450000Y-93650000D02*
X115450000Y-92750000D01*
D36*
X131100000Y-107130000D02*
X131650000Y-107130000D01*
X125250000Y-93650000D02*
X124350000Y-93650000D01*
X131650000Y-107130000D02*
X131840000Y-107320000D01*
X128190000Y-107470000D02*
X127860000Y-107470000D01*
X124350000Y-94410000D02*
X124320000Y-94440000D01*
D37*
X115450000Y-103550000D02*
X115450000Y-104350000D01*
D36*
X122325000Y-101525000D02*
X122325000Y-99550000D01*
X128540000Y-107120000D02*
X128190000Y-107470000D01*
X125250000Y-96350000D02*
X125050000Y-96350000D01*
X128920000Y-102050000D02*
X129500000Y-102630000D01*
X119610000Y-90440000D02*
X119610000Y-90270000D01*
X118375000Y-99550000D02*
X120350000Y-99550000D01*
D37*
X115450000Y-95550000D02*
X115450000Y-96350000D01*
D36*
X125690000Y-90500000D02*
X124770000Y-90500000D01*
%TO.N,VDC*%
X122730000Y-90560000D02*
X122840000Y-90450000D01*
X122730000Y-91230000D02*
X122730000Y-90560000D01*
X122840000Y-90450000D02*
X123760000Y-90450000D01*
X123760000Y-90450000D02*
X123780000Y-90470000D01*
D39*
%TO.N,/USB+*%
X122925000Y-106158202D02*
X122925000Y-105825000D01*
X129350000Y-99550000D02*
X129350000Y-98650000D01*
X128525000Y-99600000D02*
X129300000Y-99600000D01*
X129300000Y-98600000D02*
X128525000Y-98600000D01*
X129350000Y-98650000D02*
X129300000Y-98600000D01*
X127800000Y-99600000D02*
X127545000Y-99855000D01*
X122750000Y-105650000D02*
X122750000Y-105450000D01*
X128525000Y-99600000D02*
X127800000Y-99600000D01*
X127545000Y-99855000D02*
X127545000Y-105293200D01*
X127545000Y-105293200D02*
X125923200Y-106915000D01*
X125923200Y-106915000D02*
X123681798Y-106915000D01*
X129300000Y-99600000D02*
X129350000Y-99550000D01*
X123681798Y-106915000D02*
X122925000Y-106158202D01*
X122925000Y-105825000D02*
X122750000Y-105650000D01*
%TO.N,/USB-*%
X127750000Y-98100000D02*
X128525000Y-98100000D01*
X127700000Y-99050000D02*
X127700000Y-98150000D01*
X123868198Y-106465000D02*
X123375000Y-105971802D01*
X127095000Y-105106800D02*
X125736800Y-106465000D01*
X127750000Y-99100000D02*
X127700000Y-99050000D01*
X125736800Y-106465000D02*
X123868198Y-106465000D01*
X123550000Y-105650000D02*
X123550000Y-105450000D01*
X123375000Y-105971802D02*
X123375000Y-105825000D01*
X127700000Y-98150000D02*
X127750000Y-98100000D01*
X127095000Y-99655000D02*
X127095000Y-105106800D01*
X128525000Y-99100000D02*
X127750000Y-99100000D01*
X127700000Y-99050000D02*
X127095000Y-99655000D01*
X123375000Y-105825000D02*
X123550000Y-105650000D01*
D36*
%TO.N,+3V3*%
X131130000Y-106200000D02*
X131130000Y-105210000D01*
X121350000Y-107680000D02*
X121687297Y-107680000D01*
X120741672Y-96528328D02*
X120900000Y-96370000D01*
D37*
X117730000Y-90440000D02*
X118650000Y-90440000D01*
X117600000Y-90440000D02*
X117720000Y-90440000D01*
D36*
X128040000Y-106720000D02*
X128000000Y-106760000D01*
X118470000Y-110160000D02*
X118740000Y-110430000D01*
X118450000Y-108650000D02*
X118450000Y-109460000D01*
X118470000Y-109480000D02*
X118470000Y-110160000D01*
X121687297Y-107680000D02*
X121888137Y-107880840D01*
X118740000Y-110430000D02*
X119470000Y-110430000D01*
X118650000Y-90440000D02*
X118660000Y-90430000D01*
D37*
X117620000Y-90340000D02*
X117720000Y-90440000D01*
X116370000Y-91460000D02*
X116580000Y-91460000D01*
D36*
X119337758Y-96528328D02*
X120741672Y-96528328D01*
D38*
X117950000Y-93650000D02*
X117950000Y-92900000D01*
D37*
X117620000Y-89699960D02*
X117620000Y-90340000D01*
D36*
X131130000Y-105210000D02*
X130950000Y-105030000D01*
D38*
X116510000Y-91460000D02*
X116370000Y-91460000D01*
D37*
X115420000Y-91460000D02*
X116370000Y-91460000D01*
D38*
X117950000Y-92900000D02*
X116510000Y-91460000D01*
D36*
X128540000Y-106720000D02*
X128040000Y-106720000D01*
D37*
X116580000Y-91460000D02*
X117600000Y-90440000D01*
D36*
X118450000Y-109460000D02*
X118470000Y-109480000D01*
%TO.N,/CC1*%
X127188984Y-97600000D02*
X128525000Y-97600000D01*
X126558984Y-96970000D02*
X127188984Y-97600000D01*
%TO.N,/CC2*%
X129500002Y-100067215D02*
X129500002Y-100284312D01*
X129184314Y-100600000D02*
X128525000Y-100600000D01*
X129500002Y-100284312D02*
X129184314Y-100600000D01*
%TO.N,+5V*%
X128525000Y-101250000D02*
X129100000Y-101250000D01*
X129450000Y-96660000D02*
X128735000Y-96660000D01*
X129440000Y-100910000D02*
X129780000Y-100910000D01*
D37*
X128525000Y-96450000D02*
X127550000Y-96450000D01*
X127549986Y-96449986D02*
X127549986Y-92410014D01*
D36*
X129100000Y-101250000D02*
X129440000Y-100910000D01*
D37*
X127550000Y-96450000D02*
X127549986Y-96449986D01*
D36*
X129780000Y-100910000D02*
X130170000Y-100520000D01*
D37*
X127549986Y-92410014D02*
X127550000Y-92410000D01*
D36*
X128735000Y-96660000D02*
X128525000Y-96450000D01*
X130170000Y-97380000D02*
X129450000Y-96660000D01*
D37*
X130170000Y-100520000D02*
X130170000Y-97380000D01*
D36*
%TO.N,/VSENSE*%
X125660000Y-91490000D02*
X125690000Y-91520000D01*
X126460000Y-92290000D02*
X125690000Y-91520000D01*
X125250000Y-95550000D02*
X125850000Y-95550000D01*
X123780000Y-91490000D02*
X124740000Y-91490000D01*
X125850000Y-95550000D02*
X126460000Y-94940000D01*
X124740000Y-91490000D02*
X125660000Y-91490000D01*
X126460000Y-94940000D02*
X126460000Y-92290000D01*
%TO.N,/RST*%
X121950000Y-93000000D02*
X120935000Y-91985000D01*
X120935000Y-91985000D02*
X119630000Y-91985000D01*
X119610000Y-91400000D02*
X119610000Y-91965000D01*
X122390000Y-92560000D02*
X121950000Y-93000000D01*
X119610000Y-91965000D02*
X119630000Y-91985000D01*
X121950000Y-93650000D02*
X121950000Y-93000000D01*
X119630000Y-91985000D02*
X119195000Y-91985000D01*
X124440000Y-92560000D02*
X122390000Y-92560000D01*
X119195000Y-91985000D02*
X118660000Y-91450000D01*
%TO.N,/GPIO9*%
X128100000Y-105260000D02*
X129170000Y-105260000D01*
X129170000Y-105260000D02*
X130110000Y-106200000D01*
X125250000Y-103550000D02*
X125450000Y-103550000D01*
X130110000Y-106200000D02*
X130110000Y-107100000D01*
X125450000Y-103550000D02*
X126140000Y-104240000D01*
X130110000Y-107100000D02*
X130140000Y-107130000D01*
X126140000Y-104240000D02*
X126140000Y-105130000D01*
%TO.N,/GPIO8*%
X126575002Y-97755002D02*
X126575002Y-98391114D01*
X126660000Y-91420000D02*
X126660000Y-91740000D01*
X126050000Y-99670000D02*
X126670000Y-100290000D01*
X126033984Y-96236016D02*
X126033984Y-97213984D01*
X126033984Y-97213984D02*
X126575002Y-97755002D01*
X126171443Y-102750000D02*
X125250000Y-102750000D01*
X126575002Y-98391114D02*
X126050000Y-98916116D01*
X126860000Y-91940000D02*
X126860000Y-95410000D01*
X126050000Y-98916116D02*
X126050000Y-99670000D01*
X126660000Y-91740000D02*
X126860000Y-91940000D01*
X126670000Y-102251443D02*
X126171443Y-102750000D01*
X126860000Y-95410000D02*
X126033984Y-96236016D01*
X126670000Y-100290000D02*
X126670000Y-102251443D01*
%TO.N,/GPIO2*%
X117720000Y-91460000D02*
X118670000Y-92410000D01*
X119550000Y-92790000D02*
X119550000Y-93650000D01*
X119170000Y-92410000D02*
X119550000Y-92790000D01*
X118670000Y-92410000D02*
X119170000Y-92410000D01*
%TO.N,+BATT*%
X121125000Y-90815000D02*
X121125000Y-89605000D01*
X121125000Y-89605000D02*
X119970000Y-88450000D01*
X120540000Y-91400000D02*
X121125000Y-90815000D01*
X119970000Y-88450000D02*
X118550000Y-88450000D01*
%TO.N,/M1_B1*%
X121800000Y-109800000D02*
X124710000Y-109800000D01*
%TO.N,/M0_B2*%
X123995000Y-109270000D02*
X119450000Y-109270000D01*
X119450000Y-109270000D02*
X119300000Y-109420000D01*
%TO.N,/SDA*%
X120330000Y-107999999D02*
X120800001Y-108470000D01*
X120800001Y-108470000D02*
X123345430Y-108470000D01*
X123345430Y-108470000D02*
X123570431Y-108245000D01*
X120350000Y-107660000D02*
X120330000Y-107680000D01*
X127670000Y-106160000D02*
X128580000Y-106160000D01*
X120350000Y-105650000D02*
X120350000Y-107660000D01*
X125585000Y-108245000D02*
X127670000Y-106160000D01*
X120330000Y-107680000D02*
X120330000Y-107999999D01*
X123570431Y-108245000D02*
X125585000Y-108245000D01*
X128940000Y-106520000D02*
X128940000Y-106720000D01*
X128580000Y-106160000D02*
X128940000Y-106520000D01*
%TO.N,/SCL*%
X119470000Y-108650000D02*
X119780000Y-108340000D01*
X123736116Y-108645000D02*
X123511116Y-108870000D01*
X128940000Y-107285686D02*
X127580686Y-108645000D01*
X119690000Y-108870000D02*
X119470000Y-108650000D01*
X128940000Y-107120000D02*
X128940000Y-107285686D01*
X123511116Y-108870000D02*
X119690000Y-108870000D01*
X127580686Y-108645000D02*
X123736116Y-108645000D01*
X119780000Y-105880000D02*
X119550000Y-105650000D01*
X119780000Y-108340000D02*
X119780000Y-105880000D01*
%TO.N,/M_EN*%
X125250000Y-101950000D02*
X125050000Y-101950000D01*
X125050000Y-101950000D02*
X122640000Y-104360000D01*
X125250000Y-101950000D02*
X125450000Y-101950000D01*
X126045000Y-101355000D02*
X126045000Y-100803750D01*
X117249998Y-102409998D02*
X117249998Y-98030000D01*
X122640000Y-104360000D02*
X119200000Y-104360000D01*
X119200000Y-104360000D02*
X117249998Y-102409998D01*
X125450000Y-101950000D02*
X126045000Y-101355000D01*
%TO.N,/M_RST*%
X117561257Y-94402672D02*
X119797328Y-94402672D01*
X124100000Y-98740000D02*
X123750000Y-99090000D01*
X119797328Y-94402672D02*
X120350000Y-93850000D01*
X123700000Y-96950000D02*
X123700000Y-97740000D01*
X117670000Y-96449998D02*
X117670000Y-95850000D01*
X121770000Y-96230000D02*
X122980000Y-96230000D01*
X124100000Y-98140000D02*
X124100000Y-98740000D01*
X117710000Y-95810000D02*
X121350000Y-95810000D01*
X122980000Y-96230000D02*
X123700000Y-96950000D01*
X123700000Y-97740000D02*
X124100000Y-98140000D01*
X120350000Y-93850000D02*
X120350000Y-93650000D01*
X117670000Y-95850000D02*
X117710000Y-95810000D01*
X121350000Y-95810000D02*
X121770000Y-96230000D01*
%TO.N,/M0_STEP*%
X124500000Y-96564314D02*
X123365686Y-95430000D01*
X125050000Y-97950000D02*
X124500000Y-97400000D01*
X123365686Y-95430000D02*
X122170000Y-95430000D01*
X124500000Y-97400000D02*
X124500000Y-96564314D01*
X121736959Y-94996959D02*
X117221874Y-94996959D01*
X125250000Y-97950000D02*
X125050000Y-97950000D01*
X116247804Y-94991874D02*
X117221874Y-94991874D01*
X122170000Y-95430000D02*
X121736959Y-94996959D01*
%TO.N,/M0_DIR*%
X124100000Y-96784314D02*
X124100000Y-97574314D01*
X121570000Y-95400000D02*
X122000000Y-95830000D01*
X116300000Y-95730000D02*
X116630000Y-95400000D01*
X116630000Y-95400000D02*
X121570000Y-95400000D01*
X125050000Y-99550000D02*
X125250000Y-99550000D01*
X124500000Y-99000000D02*
X125050000Y-99550000D01*
X124500000Y-97974314D02*
X124500000Y-99000000D01*
X123145686Y-95830000D02*
X124100000Y-96784314D01*
X122000000Y-95830000D02*
X123145686Y-95830000D01*
X124100000Y-97574314D02*
X124500000Y-97974314D01*
%TO.N,/M1_STEP*%
X124420000Y-101780000D02*
X124420000Y-101964314D01*
X124420000Y-101964314D02*
X122564314Y-103820000D01*
X125050000Y-101150000D02*
X124420000Y-101780000D01*
X125250000Y-101150000D02*
X125050000Y-101150000D01*
X122564314Y-103820000D02*
X120670000Y-103820000D01*
%TO.N,/M1_DIR*%
X125050000Y-100350000D02*
X124020000Y-101380000D01*
X124020000Y-101380000D02*
X124020000Y-101798628D01*
X120320000Y-103190000D02*
X120215000Y-103295000D01*
X125250000Y-100350000D02*
X125050000Y-100350000D01*
X124020000Y-101798628D02*
X122628628Y-103190000D01*
X122628628Y-103190000D02*
X120320000Y-103190000D01*
%TO.N,/GPIO0*%
X125435000Y-94750000D02*
X125915000Y-94270000D01*
X125250000Y-94750000D02*
X125435000Y-94750000D01*
%TO.N,/MODE1*%
X117070000Y-109380000D02*
X117360000Y-109670000D01*
X116260000Y-109380000D02*
X117070000Y-109380000D01*
%TO.N,/MODE2*%
X121490000Y-111150000D02*
X121490000Y-110359762D01*
X121490000Y-110359762D02*
X120966120Y-109835882D01*
%TD*%
%TA.AperFunction,Conductor*%
%TO.N,+3V3*%
G36*
X121532590Y-84937768D02*
G01*
X121887996Y-84947796D01*
X121890440Y-84947891D01*
X122265436Y-84966499D01*
X122269399Y-84966761D01*
X122623711Y-84996002D01*
X122625770Y-84996191D01*
X122999316Y-85033995D01*
X123003637Y-85034510D01*
X123355978Y-85082896D01*
X123357440Y-85083108D01*
X123728663Y-85140027D01*
X123733313Y-85140832D01*
X124082433Y-85208194D01*
X124083724Y-85208452D01*
X124451482Y-85284313D01*
X124456345Y-85285421D01*
X124801443Y-85371606D01*
X124802141Y-85371784D01*
X125165690Y-85466439D01*
X125170824Y-85467897D01*
X125510499Y-85572550D01*
X125511341Y-85572813D01*
X125741088Y-85645392D01*
X125869296Y-85685895D01*
X125874775Y-85687768D01*
X126208319Y-85810656D01*
X126560481Y-85942115D01*
X126566161Y-85944399D01*
X126787848Y-86039996D01*
X126892157Y-86084977D01*
X127102746Y-86176143D01*
X127156447Y-86220841D01*
X127177458Y-86287476D01*
X127160841Y-86351986D01*
X126346595Y-87760810D01*
X126346046Y-87761441D01*
X126334467Y-87781712D01*
X126334413Y-87782120D01*
X126334414Y-87782123D01*
X126334487Y-87782218D01*
X126334564Y-87782318D01*
X126334666Y-87782450D01*
X126355803Y-87794646D01*
X126355968Y-87794703D01*
X127041483Y-88190485D01*
X128444707Y-89000636D01*
X128492923Y-89051203D01*
X128506033Y-89095115D01*
X128515274Y-89183407D01*
X128515276Y-89183424D01*
X128580815Y-89469129D01*
X128583339Y-89480131D01*
X128656649Y-89682797D01*
X128686889Y-89766396D01*
X128824397Y-90037988D01*
X128993816Y-90290873D01*
X128993828Y-90290890D01*
X129054639Y-90361373D01*
X129192684Y-90521375D01*
X129418030Y-90726041D01*
X129618225Y-90867682D01*
X129666533Y-90901861D01*
X129666543Y-90901867D01*
X129934529Y-91046244D01*
X129934531Y-91046245D01*
X130218064Y-91157055D01*
X130512933Y-91232654D01*
X130512937Y-91232654D01*
X130512942Y-91232656D01*
X130814813Y-91271933D01*
X130967016Y-91273119D01*
X131119212Y-91274305D01*
X131119212Y-91274304D01*
X131119219Y-91274305D01*
X131421665Y-91239737D01*
X131569322Y-91204323D01*
X131639102Y-91207829D01*
X131695911Y-91248505D01*
X131721710Y-91313437D01*
X131708308Y-91382010D01*
X131659961Y-91432451D01*
X131654540Y-91435386D01*
X131641658Y-91441949D01*
X131641652Y-91441954D01*
X131551954Y-91531652D01*
X131551951Y-91531657D01*
X131551950Y-91531658D01*
X131538505Y-91558045D01*
X131494352Y-91644698D01*
X131494352Y-91644699D01*
X131474508Y-91769996D01*
X131474508Y-91770003D01*
X131494352Y-91895300D01*
X131494352Y-91895301D01*
X131507192Y-91920500D01*
X131551950Y-92008342D01*
X131551952Y-92008344D01*
X131551954Y-92008347D01*
X131641652Y-92098045D01*
X131641654Y-92098046D01*
X131641658Y-92098050D01*
X131754696Y-92155646D01*
X131754697Y-92155646D01*
X131754699Y-92155647D01*
X131879997Y-92175492D01*
X131880000Y-92175492D01*
X131880003Y-92175492D01*
X132005300Y-92155647D01*
X132005301Y-92155647D01*
X132005302Y-92155646D01*
X132005304Y-92155646D01*
X132118342Y-92098050D01*
X132208050Y-92008342D01*
X132265646Y-91895304D01*
X132265646Y-91895302D01*
X132265647Y-91895301D01*
X132265647Y-91895300D01*
X132285492Y-91770003D01*
X132285492Y-91769996D01*
X132265647Y-91644699D01*
X132265647Y-91644698D01*
X132262050Y-91637638D01*
X132208050Y-91531658D01*
X132208046Y-91531654D01*
X132208045Y-91531652D01*
X132118347Y-91441954D01*
X132118344Y-91441952D01*
X132118342Y-91441950D01*
X132005304Y-91384354D01*
X132005303Y-91384353D01*
X132005300Y-91384352D01*
X131870362Y-91362981D01*
X131870563Y-91361706D01*
X131813064Y-91344823D01*
X131767309Y-91292019D01*
X131757365Y-91222861D01*
X131786390Y-91159305D01*
X131836771Y-91124326D01*
X131928736Y-91090026D01*
X132002909Y-91062362D01*
X132273124Y-90922175D01*
X132524340Y-90750247D01*
X132533758Y-90741963D01*
X132597094Y-90712469D01*
X132666324Y-90721898D01*
X132717521Y-90764371D01*
X132794036Y-90874617D01*
X132966778Y-91123511D01*
X132970927Y-91129488D01*
X132970962Y-91129594D01*
X132970988Y-91129577D01*
X133046720Y-91238896D01*
X133050150Y-91244124D01*
X133284314Y-91621450D01*
X133284404Y-91621768D01*
X133284482Y-91621721D01*
X133431157Y-91859429D01*
X133434203Y-91864647D01*
X133634783Y-92228236D01*
X133635038Y-92228701D01*
X133782710Y-92499109D01*
X133785383Y-92504289D01*
X133794342Y-92522702D01*
X133852128Y-92641470D01*
X133856886Y-92651248D01*
X133868516Y-92720143D01*
X133841053Y-92784389D01*
X133783215Y-92823588D01*
X133745384Y-92829500D01*
X132265178Y-92829500D01*
X132221282Y-92838231D01*
X132221275Y-92838234D01*
X132171496Y-92871495D01*
X132171495Y-92871496D01*
X132138234Y-92921275D01*
X132138231Y-92921282D01*
X132129500Y-92965177D01*
X132129500Y-92965180D01*
X132129500Y-94494820D01*
X132129500Y-94494822D01*
X132129499Y-94494822D01*
X132138231Y-94538717D01*
X132138234Y-94538724D01*
X132165688Y-94579812D01*
X132171496Y-94588504D01*
X132221278Y-94621767D01*
X132221281Y-94621767D01*
X132221282Y-94621768D01*
X132265177Y-94630500D01*
X132265180Y-94630500D01*
X133794822Y-94630500D01*
X133838717Y-94621768D01*
X133838717Y-94621767D01*
X133838722Y-94621767D01*
X133888504Y-94588504D01*
X133921767Y-94538722D01*
X133928305Y-94505854D01*
X133930500Y-94494822D01*
X133930500Y-93364962D01*
X133950185Y-93297923D01*
X134002989Y-93252168D01*
X134072147Y-93242224D01*
X134135703Y-93271249D01*
X134168634Y-93316494D01*
X134257594Y-93526007D01*
X134257923Y-93526791D01*
X134383502Y-93828991D01*
X134385467Y-93834027D01*
X134519894Y-94202022D01*
X134520289Y-94203119D01*
X134631106Y-94515563D01*
X134632732Y-94520471D01*
X134710293Y-94772147D01*
X134747271Y-94892137D01*
X134747669Y-94893456D01*
X134842585Y-95214062D01*
X134843903Y-95218867D01*
X134938739Y-95593954D01*
X134939119Y-95595498D01*
X135017382Y-95922637D01*
X135018402Y-95927296D01*
X135093580Y-96305236D01*
X135093919Y-96307007D01*
X135155005Y-96639271D01*
X135155747Y-96643768D01*
X135211298Y-97024038D01*
X135211573Y-97026033D01*
X135255108Y-97362130D01*
X135255590Y-97366449D01*
X135291484Y-97748145D01*
X135291673Y-97750364D01*
X135317406Y-98089167D01*
X135317650Y-98093294D01*
X135333898Y-98475685D01*
X135333978Y-98478122D01*
X135341738Y-98818424D01*
X135341765Y-98822346D01*
X135338390Y-99204635D01*
X135338338Y-99207285D01*
X135328048Y-99547870D01*
X135327881Y-99551576D01*
X135304926Y-99932906D01*
X135304721Y-99935761D01*
X135276376Y-100275631D01*
X135276036Y-100279112D01*
X135233582Y-100658562D01*
X135233202Y-100661613D01*
X135186876Y-100999605D01*
X135186387Y-101002855D01*
X135124543Y-101379567D01*
X135123968Y-101382802D01*
X135059791Y-101717915D01*
X135059175Y-101720928D01*
X134978088Y-102094012D01*
X134977297Y-102097418D01*
X134895501Y-102428482D01*
X134894783Y-102431253D01*
X134794611Y-102799924D01*
X134793584Y-102803490D01*
X134694435Y-103129511D01*
X134693637Y-103132038D01*
X134574610Y-103495346D01*
X134573330Y-103499054D01*
X134457198Y-103818951D01*
X134456344Y-103821234D01*
X134318674Y-104178406D01*
X134317123Y-104182238D01*
X134184424Y-104495019D01*
X134183537Y-104497059D01*
X134167765Y-104532455D01*
X134122498Y-104585679D01*
X134055643Y-104605981D01*
X133988425Y-104586915D01*
X133942185Y-104534535D01*
X133930500Y-104481986D01*
X133930500Y-103205177D01*
X133921768Y-103161282D01*
X133921767Y-103161281D01*
X133921767Y-103161278D01*
X133888504Y-103111496D01*
X133888503Y-103111495D01*
X133838724Y-103078234D01*
X133838717Y-103078231D01*
X133794822Y-103069500D01*
X133794820Y-103069500D01*
X132265180Y-103069500D01*
X132265178Y-103069500D01*
X132221282Y-103078231D01*
X132221275Y-103078234D01*
X132171496Y-103111495D01*
X132171495Y-103111496D01*
X132138234Y-103161275D01*
X132138231Y-103161282D01*
X132129500Y-103205177D01*
X132129500Y-103205180D01*
X132129500Y-104734820D01*
X132129500Y-104734822D01*
X132129499Y-104734822D01*
X132138231Y-104778717D01*
X132138234Y-104778724D01*
X132171495Y-104828503D01*
X132171496Y-104828504D01*
X132221278Y-104861767D01*
X132221281Y-104861767D01*
X132221282Y-104861768D01*
X132265177Y-104870500D01*
X132265180Y-104870500D01*
X133794822Y-104870500D01*
X133800885Y-104869903D01*
X133801003Y-104871109D01*
X133864212Y-104876759D01*
X133919394Y-104919616D01*
X133942646Y-104985503D01*
X133930251Y-105046563D01*
X133876932Y-105155756D01*
X133876033Y-105157559D01*
X133701828Y-105500090D01*
X133699688Y-105504114D01*
X133535632Y-105799312D01*
X133534745Y-105800881D01*
X133342617Y-106135056D01*
X133340160Y-106139145D01*
X133161394Y-106424120D01*
X133160540Y-106425461D01*
X132950798Y-106750481D01*
X132948013Y-106754613D01*
X132755613Y-107027993D01*
X132754814Y-107029115D01*
X132527425Y-107344701D01*
X132524300Y-107348851D01*
X132463923Y-107425647D01*
X132407015Y-107466183D01*
X132337224Y-107469516D01*
X132276711Y-107434589D01*
X132244687Y-107372491D01*
X132243970Y-107329609D01*
X132244019Y-107329303D01*
X132245492Y-107320000D01*
X132245492Y-107319996D01*
X132225647Y-107194699D01*
X132225647Y-107194698D01*
X132222043Y-107187625D01*
X132168050Y-107081658D01*
X132168046Y-107081654D01*
X132168045Y-107081652D01*
X132078347Y-106991954D01*
X132078344Y-106991952D01*
X132078342Y-106991950D01*
X131998711Y-106951376D01*
X131965301Y-106934352D01*
X131845088Y-106915313D01*
X131795596Y-106895943D01*
X131790196Y-106892335D01*
X131757495Y-106870485D01*
X131757494Y-106870484D01*
X131757493Y-106870484D01*
X131671165Y-106853312D01*
X131671152Y-106853310D01*
X131650002Y-106849103D01*
X131650001Y-106849103D01*
X131650000Y-106849103D01*
X131634846Y-106852117D01*
X131610656Y-106854500D01*
X131591313Y-106854500D01*
X131524274Y-106834815D01*
X131489012Y-106800575D01*
X131483814Y-106792987D01*
X131483813Y-106792984D01*
X131407016Y-106716187D01*
X131378860Y-106703755D01*
X131307663Y-106672318D01*
X131283373Y-106669500D01*
X130916634Y-106669500D01*
X130916611Y-106669502D01*
X130892340Y-106672317D01*
X130892337Y-106672318D01*
X130792984Y-106716186D01*
X130792983Y-106716187D01*
X130708062Y-106801109D01*
X130705075Y-106798122D01*
X130668155Y-106828252D01*
X130598733Y-106836147D01*
X130536063Y-106805256D01*
X130532222Y-106800824D01*
X130531938Y-106801109D01*
X130469974Y-106739145D01*
X130436489Y-106677822D01*
X130441473Y-106608130D01*
X130469974Y-106563783D01*
X130474413Y-106559344D01*
X130484616Y-106549141D01*
X130527730Y-106451498D01*
X130530500Y-106427623D01*
X130530499Y-105972378D01*
X130527730Y-105948502D01*
X130527730Y-105948501D01*
X130484619Y-105850864D01*
X130484617Y-105850861D01*
X130484616Y-105850859D01*
X130409141Y-105775384D01*
X130409138Y-105775383D01*
X130409136Y-105775381D01*
X130311500Y-105732270D01*
X130311501Y-105732270D01*
X130287624Y-105729500D01*
X130287623Y-105729500D01*
X130080478Y-105729500D01*
X130013439Y-105709815D01*
X129992797Y-105693181D01*
X129392627Y-105093011D01*
X129377207Y-105074222D01*
X129369967Y-105063386D01*
X129349092Y-104996710D01*
X129367578Y-104929331D01*
X129419558Y-104882642D01*
X129473072Y-104870500D01*
X129864822Y-104870500D01*
X129908717Y-104861768D01*
X129908717Y-104861767D01*
X129908722Y-104861767D01*
X129958504Y-104828504D01*
X129991767Y-104778722D01*
X129994833Y-104763309D01*
X130000500Y-104734822D01*
X130000500Y-103205177D01*
X129991768Y-103161282D01*
X129991767Y-103161281D01*
X129991767Y-103161278D01*
X129958504Y-103111496D01*
X129958503Y-103111495D01*
X129908724Y-103078234D01*
X129908718Y-103078231D01*
X129893895Y-103075283D01*
X129831985Y-103042897D01*
X129797411Y-102982181D01*
X129801152Y-102912412D01*
X129823432Y-102877056D01*
X129822311Y-102876241D01*
X129828042Y-102868349D01*
X129828050Y-102868342D01*
X129885646Y-102755304D01*
X129885646Y-102755302D01*
X129885647Y-102755301D01*
X129885647Y-102755300D01*
X129905492Y-102630003D01*
X129905492Y-102629996D01*
X129885647Y-102504699D01*
X129885646Y-102504696D01*
X129866214Y-102466559D01*
X129836959Y-102409144D01*
X129824063Y-102340477D01*
X129850339Y-102275736D01*
X129885443Y-102245463D01*
X129890225Y-102242700D01*
X129890233Y-102242698D01*
X130010451Y-102150451D01*
X130102698Y-102030233D01*
X130160687Y-101890236D01*
X130180466Y-101740000D01*
X130179831Y-101735180D01*
X130160687Y-101589765D01*
X130160687Y-101589764D01*
X130102698Y-101449767D01*
X130010451Y-101329549D01*
X130010449Y-101329548D01*
X130010449Y-101329547D01*
X129998399Y-101320301D01*
X129979017Y-101305429D01*
X129937816Y-101249004D01*
X129933661Y-101179258D01*
X129967873Y-101118337D01*
X129973350Y-101113897D01*
X129978620Y-101108626D01*
X129978624Y-101108624D01*
X129987209Y-101095775D01*
X130002621Y-101076994D01*
X130122647Y-100956967D01*
X130183968Y-100923484D01*
X130190894Y-100922182D01*
X130295304Y-100905646D01*
X130408342Y-100848050D01*
X130498050Y-100758342D01*
X130555646Y-100645304D01*
X130555646Y-100645302D01*
X130555647Y-100645301D01*
X130570500Y-100551524D01*
X130570500Y-100510056D01*
X132149500Y-100510056D01*
X132163143Y-100565408D01*
X132190210Y-100675226D01*
X132269263Y-100825849D01*
X132298026Y-100858316D01*
X132382071Y-100953183D01*
X132449888Y-100999994D01*
X132522068Y-101049817D01*
X132522069Y-101049817D01*
X132522070Y-101049818D01*
X132593715Y-101076989D01*
X132677130Y-101108624D01*
X132681128Y-101110140D01*
X132748636Y-101118337D01*
X132807626Y-101125500D01*
X132807628Y-101125500D01*
X132892374Y-101125500D01*
X132934538Y-101120380D01*
X133018872Y-101110140D01*
X133177930Y-101049818D01*
X133317929Y-100953183D01*
X133430734Y-100825852D01*
X133439982Y-100808233D01*
X133469199Y-100752564D01*
X133509790Y-100675225D01*
X133550500Y-100510056D01*
X133550500Y-100339944D01*
X133509790Y-100174775D01*
X133484102Y-100125831D01*
X133430736Y-100024150D01*
X133388396Y-99976358D01*
X133317929Y-99896817D01*
X133259824Y-99856710D01*
X133177931Y-99800182D01*
X133018874Y-99739860D01*
X133018868Y-99739859D01*
X132892374Y-99724500D01*
X132892372Y-99724500D01*
X132807628Y-99724500D01*
X132807626Y-99724500D01*
X132681131Y-99739859D01*
X132681125Y-99739860D01*
X132522068Y-99800182D01*
X132382072Y-99896816D01*
X132269263Y-100024150D01*
X132190210Y-100174773D01*
X132153815Y-100322436D01*
X132149500Y-100339944D01*
X132149500Y-100510056D01*
X130570500Y-100510056D01*
X130570500Y-99856710D01*
X130590185Y-99789671D01*
X130642989Y-99743916D01*
X130712147Y-99733972D01*
X130769985Y-99758334D01*
X130812375Y-99790861D01*
X130946291Y-99846330D01*
X131073280Y-99863048D01*
X131089999Y-99865250D01*
X131090000Y-99865250D01*
X131090001Y-99865250D01*
X131104977Y-99863278D01*
X131233709Y-99846330D01*
X131367625Y-99790861D01*
X131482621Y-99702621D01*
X131570861Y-99587625D01*
X131626330Y-99453709D01*
X131645250Y-99310000D01*
X131626330Y-99166291D01*
X131570861Y-99032375D01*
X131482621Y-98917379D01*
X131367625Y-98829139D01*
X131367624Y-98829138D01*
X131367622Y-98829137D01*
X131233712Y-98773671D01*
X131233710Y-98773670D01*
X131233709Y-98773670D01*
X131154859Y-98763289D01*
X131090001Y-98754750D01*
X131089999Y-98754750D01*
X130946291Y-98773670D01*
X130946287Y-98773671D01*
X130812376Y-98829138D01*
X130812374Y-98829139D01*
X130769986Y-98861665D01*
X130704817Y-98886859D01*
X130636372Y-98872821D01*
X130586383Y-98824006D01*
X130570500Y-98763289D01*
X130570500Y-97510055D01*
X132149500Y-97510055D01*
X132190210Y-97675226D01*
X132269263Y-97825849D01*
X132298026Y-97858316D01*
X132382071Y-97953183D01*
X132454050Y-98002867D01*
X132522068Y-98049817D01*
X132522069Y-98049817D01*
X132522070Y-98049818D01*
X132681128Y-98110140D01*
X132757028Y-98119356D01*
X132807626Y-98125500D01*
X132807628Y-98125500D01*
X132892374Y-98125500D01*
X132934538Y-98120380D01*
X133018872Y-98110140D01*
X133177930Y-98049818D01*
X133317929Y-97953183D01*
X133430734Y-97825852D01*
X133432174Y-97823110D01*
X133478324Y-97735177D01*
X133509790Y-97675225D01*
X133550500Y-97510056D01*
X133550500Y-97339944D01*
X133509790Y-97174775D01*
X133461328Y-97082439D01*
X133430736Y-97024150D01*
X133382763Y-96970000D01*
X133317929Y-96896817D01*
X133248281Y-96848742D01*
X133177931Y-96800182D01*
X133018874Y-96739860D01*
X133018868Y-96739859D01*
X132892374Y-96724500D01*
X132892372Y-96724500D01*
X132807628Y-96724500D01*
X132807626Y-96724500D01*
X132681131Y-96739859D01*
X132681125Y-96739860D01*
X132522068Y-96800182D01*
X132382072Y-96896816D01*
X132269263Y-97024150D01*
X132190210Y-97174773D01*
X132149500Y-97339944D01*
X132149500Y-97510055D01*
X130570500Y-97510055D01*
X130570500Y-97348475D01*
X130555647Y-97254698D01*
X130555646Y-97254696D01*
X130498050Y-97141658D01*
X130498046Y-97141654D01*
X130498045Y-97141652D01*
X130408347Y-97051954D01*
X130408344Y-97051952D01*
X130408342Y-97051950D01*
X130316561Y-97005185D01*
X130295301Y-96994352D01*
X130190929Y-96977822D01*
X130127794Y-96947893D01*
X130122646Y-96943030D01*
X129846152Y-96666536D01*
X129812667Y-96605213D01*
X129817651Y-96535521D01*
X129859523Y-96479588D01*
X129886383Y-96464293D01*
X129887498Y-96463830D01*
X129890233Y-96462698D01*
X130010451Y-96370451D01*
X130102698Y-96250233D01*
X130160687Y-96110236D01*
X130180466Y-95960000D01*
X130160687Y-95809764D01*
X130102698Y-95669767D01*
X130010451Y-95549549D01*
X129890233Y-95457302D01*
X129890229Y-95457300D01*
X129788279Y-95415071D01*
X129733876Y-95371230D01*
X129711811Y-95304936D01*
X129725247Y-95244216D01*
X129775646Y-95145304D01*
X129776960Y-95137011D01*
X129795492Y-95020002D01*
X129795492Y-95019996D01*
X129775647Y-94894699D01*
X129775647Y-94894698D01*
X129740463Y-94825646D01*
X129732895Y-94810794D01*
X129720000Y-94742126D01*
X129746276Y-94677385D01*
X129803383Y-94637128D01*
X129843381Y-94630500D01*
X129864822Y-94630500D01*
X129908717Y-94621768D01*
X129908717Y-94621767D01*
X129908722Y-94621767D01*
X129958504Y-94588504D01*
X129991767Y-94538722D01*
X129998305Y-94505854D01*
X130000500Y-94494822D01*
X130000500Y-92965177D01*
X129991768Y-92921282D01*
X129991767Y-92921281D01*
X129991767Y-92921278D01*
X129958504Y-92871496D01*
X129958503Y-92871495D01*
X129908724Y-92838234D01*
X129908717Y-92838231D01*
X129864822Y-92829500D01*
X129864820Y-92829500D01*
X128335180Y-92829500D01*
X128335178Y-92829500D01*
X128291282Y-92838231D01*
X128291275Y-92838234D01*
X128241496Y-92871495D01*
X128241495Y-92871496D01*
X128208234Y-92921275D01*
X128208231Y-92921282D01*
X128199500Y-92965177D01*
X128199500Y-92965180D01*
X128199500Y-94494820D01*
X128199500Y-94494822D01*
X128199499Y-94494822D01*
X128208231Y-94538717D01*
X128208234Y-94538724D01*
X128235688Y-94579812D01*
X128241496Y-94588504D01*
X128291278Y-94621767D01*
X128291281Y-94621767D01*
X128291282Y-94621768D01*
X128335177Y-94630500D01*
X128335180Y-94630500D01*
X128936619Y-94630500D01*
X129003658Y-94650185D01*
X129049413Y-94702989D01*
X129059357Y-94772147D01*
X129047104Y-94810795D01*
X129004352Y-94894698D01*
X129004352Y-94894699D01*
X128987822Y-94999069D01*
X128957893Y-95062204D01*
X128953031Y-95067351D01*
X128847204Y-95173180D01*
X128785881Y-95206666D01*
X128759522Y-95209500D01*
X128074486Y-95209500D01*
X128007447Y-95189815D01*
X127961692Y-95137011D01*
X127950486Y-95085500D01*
X127950486Y-92834464D01*
X127970171Y-92767425D01*
X127976110Y-92758978D01*
X128009473Y-92715498D01*
X128030861Y-92687625D01*
X128086330Y-92553709D01*
X128105250Y-92410000D01*
X128086330Y-92266291D01*
X128041900Y-92159025D01*
X128030862Y-92132377D01*
X128030861Y-92132376D01*
X128030861Y-92132375D01*
X127942621Y-92017379D01*
X127827625Y-91929139D01*
X127827624Y-91929138D01*
X127827622Y-91929137D01*
X127693712Y-91873671D01*
X127693710Y-91873670D01*
X127693709Y-91873670D01*
X127585540Y-91859429D01*
X127550001Y-91854750D01*
X127549999Y-91854750D01*
X127406291Y-91873670D01*
X127288500Y-91922459D01*
X127219031Y-91929926D01*
X127156552Y-91898651D01*
X127120900Y-91838561D01*
X127119539Y-91832563D01*
X127119515Y-91832506D01*
X127119515Y-91832505D01*
X127089401Y-91787437D01*
X127068524Y-91720762D01*
X127076574Y-91680846D01*
X127075282Y-91680495D01*
X127077729Y-91671500D01*
X127077728Y-91671500D01*
X127077730Y-91671498D01*
X127080500Y-91647623D01*
X127080499Y-91192378D01*
X127077730Y-91168502D01*
X127074357Y-91160863D01*
X127034619Y-91070864D01*
X127034617Y-91070861D01*
X127034616Y-91070859D01*
X126959141Y-90995384D01*
X126959138Y-90995383D01*
X126959136Y-90995381D01*
X126861500Y-90952270D01*
X126861501Y-90952270D01*
X126837623Y-90949500D01*
X126482384Y-90949500D01*
X126482361Y-90949502D01*
X126458504Y-90952269D01*
X126458501Y-90952269D01*
X126360864Y-90995380D01*
X126360856Y-90995386D01*
X126285386Y-91070856D01*
X126285381Y-91070864D01*
X126260247Y-91127784D01*
X126215160Y-91181159D01*
X126148373Y-91201685D01*
X126081092Y-91182845D01*
X126059133Y-91165376D01*
X126039143Y-91145386D01*
X126039141Y-91145384D01*
X126015587Y-91134984D01*
X125989428Y-91123433D01*
X125936053Y-91078346D01*
X125915526Y-91011560D01*
X125934365Y-90944278D01*
X125986589Y-90897862D01*
X125989344Y-90896603D01*
X126039141Y-90874616D01*
X126114616Y-90799141D01*
X126157730Y-90701498D01*
X126160500Y-90677623D01*
X126160499Y-90322378D01*
X126157730Y-90298502D01*
X126155026Y-90292378D01*
X126114619Y-90200864D01*
X126114617Y-90200861D01*
X126114616Y-90200859D01*
X126042742Y-90128985D01*
X126009257Y-90067662D01*
X126014241Y-89997970D01*
X126019939Y-89985009D01*
X126065645Y-89895306D01*
X126065647Y-89895300D01*
X126079157Y-89810000D01*
X126884722Y-89810000D01*
X126903762Y-89966818D01*
X126954083Y-90099501D01*
X126959780Y-90114523D01*
X127049517Y-90244530D01*
X127167760Y-90349283D01*
X127167762Y-90349284D01*
X127307634Y-90422696D01*
X127461014Y-90460500D01*
X127461015Y-90460500D01*
X127618985Y-90460500D01*
X127772365Y-90422696D01*
X127805096Y-90405517D01*
X127912240Y-90349283D01*
X128030483Y-90244530D01*
X128120220Y-90114523D01*
X128176237Y-89966818D01*
X128195278Y-89810000D01*
X128180708Y-89690000D01*
X128176237Y-89653181D01*
X128154992Y-89597164D01*
X128120220Y-89505477D01*
X128030483Y-89375470D01*
X127912240Y-89270717D01*
X127912238Y-89270716D01*
X127912237Y-89270715D01*
X127772365Y-89197303D01*
X127618986Y-89159500D01*
X127618985Y-89159500D01*
X127461015Y-89159500D01*
X127461014Y-89159500D01*
X127307634Y-89197303D01*
X127167762Y-89270715D01*
X127049516Y-89375471D01*
X126959781Y-89505475D01*
X126959780Y-89505476D01*
X126903762Y-89653181D01*
X126884722Y-89809999D01*
X126884722Y-89810000D01*
X126079157Y-89810000D01*
X126085492Y-89770003D01*
X126085492Y-89769996D01*
X126065647Y-89644699D01*
X126065647Y-89644698D01*
X126059244Y-89632132D01*
X126008050Y-89531658D01*
X126008046Y-89531654D01*
X126008045Y-89531652D01*
X125918347Y-89441954D01*
X125918344Y-89441952D01*
X125918342Y-89441950D01*
X125831674Y-89397790D01*
X125805301Y-89384352D01*
X125678578Y-89364282D01*
X125629086Y-89344912D01*
X125607495Y-89330485D01*
X125607494Y-89330484D01*
X125607493Y-89330484D01*
X125607490Y-89330483D01*
X125521165Y-89313312D01*
X125521152Y-89313310D01*
X125500002Y-89309103D01*
X125500001Y-89309103D01*
X125500000Y-89309103D01*
X125484846Y-89312117D01*
X125460656Y-89314500D01*
X125251313Y-89314500D01*
X125184274Y-89294815D01*
X125149012Y-89260575D01*
X125143814Y-89252987D01*
X125143813Y-89252984D01*
X125067016Y-89176187D01*
X125067014Y-89176186D01*
X124967663Y-89132318D01*
X124943373Y-89129500D01*
X124576634Y-89129500D01*
X124576611Y-89129502D01*
X124552340Y-89132317D01*
X124552337Y-89132318D01*
X124452984Y-89176186D01*
X124452983Y-89176187D01*
X124368062Y-89261109D01*
X124365075Y-89258122D01*
X124328155Y-89288252D01*
X124258733Y-89296147D01*
X124196063Y-89265256D01*
X124192222Y-89260824D01*
X124191938Y-89261109D01*
X124107016Y-89176187D01*
X124007663Y-89132318D01*
X123983373Y-89129500D01*
X123616634Y-89129500D01*
X123616611Y-89129502D01*
X123592340Y-89132317D01*
X123592337Y-89132318D01*
X123492984Y-89176186D01*
X123416187Y-89252983D01*
X123372318Y-89352335D01*
X123372318Y-89352337D01*
X123369500Y-89376625D01*
X123369500Y-89803365D01*
X123369502Y-89803388D01*
X123372317Y-89827659D01*
X123372318Y-89827662D01*
X123416186Y-89927015D01*
X123420029Y-89930858D01*
X123453511Y-89992183D01*
X123448524Y-90061874D01*
X123420027Y-90106216D01*
X123388061Y-90138181D01*
X123326741Y-90171666D01*
X123300381Y-90174500D01*
X122879343Y-90174500D01*
X122855155Y-90172118D01*
X122840001Y-90169104D01*
X122839999Y-90169104D01*
X122818846Y-90173311D01*
X122818819Y-90173315D01*
X122732509Y-90190483D01*
X122732505Y-90190485D01*
X122641377Y-90251374D01*
X122641374Y-90251377D01*
X122632785Y-90264231D01*
X122617369Y-90283013D01*
X122563012Y-90337370D01*
X122544228Y-90352787D01*
X122531379Y-90361373D01*
X122531375Y-90361376D01*
X122470484Y-90452506D01*
X122470483Y-90452507D01*
X122461037Y-90500001D01*
X122449103Y-90559997D01*
X122449103Y-90559999D01*
X122452117Y-90575151D01*
X122454500Y-90599344D01*
X122454500Y-90887745D01*
X122434815Y-90954784D01*
X122418181Y-90975426D01*
X122401954Y-90991652D01*
X122401951Y-90991657D01*
X122401950Y-90991658D01*
X122390758Y-91013624D01*
X122344352Y-91104698D01*
X122344352Y-91104699D01*
X122324508Y-91229996D01*
X122324508Y-91230003D01*
X122344352Y-91355300D01*
X122344352Y-91355301D01*
X122350544Y-91367453D01*
X122401950Y-91468342D01*
X122401952Y-91468344D01*
X122401954Y-91468347D01*
X122491652Y-91558045D01*
X122491654Y-91558046D01*
X122491658Y-91558050D01*
X122604696Y-91615646D01*
X122604697Y-91615646D01*
X122604699Y-91615647D01*
X122729997Y-91635492D01*
X122730000Y-91635492D01*
X122730003Y-91635492D01*
X122855300Y-91615647D01*
X122855301Y-91615647D01*
X122855302Y-91615646D01*
X122855304Y-91615646D01*
X122968342Y-91558050D01*
X123058050Y-91468342D01*
X123075016Y-91435043D01*
X123122989Y-91384249D01*
X123190809Y-91367453D01*
X123256944Y-91389990D01*
X123300397Y-91444704D01*
X123309500Y-91491338D01*
X123309500Y-91667615D01*
X123309502Y-91667638D01*
X123312269Y-91691495D01*
X123312269Y-91691498D01*
X123355380Y-91789135D01*
X123355383Y-91789139D01*
X123355384Y-91789141D01*
X123430859Y-91864616D01*
X123430862Y-91864617D01*
X123430863Y-91864618D01*
X123528499Y-91907729D01*
X123528500Y-91907729D01*
X123528502Y-91907730D01*
X123552377Y-91910500D01*
X124007622Y-91910499D01*
X124031498Y-91907730D01*
X124129135Y-91864619D01*
X124129136Y-91864618D01*
X124129141Y-91864616D01*
X124173783Y-91819973D01*
X124235104Y-91786489D01*
X124304795Y-91791473D01*
X124349144Y-91819973D01*
X124402984Y-91873813D01*
X124501583Y-91917349D01*
X124511891Y-91926056D01*
X124522211Y-91921521D01*
X124538086Y-91920499D01*
X124953372Y-91920499D01*
X124977662Y-91917682D01*
X125077016Y-91873813D01*
X125110855Y-91839974D01*
X125172178Y-91806489D01*
X125241870Y-91811473D01*
X125286217Y-91839974D01*
X125340859Y-91894616D01*
X125340862Y-91894617D01*
X125340863Y-91894618D01*
X125438499Y-91937729D01*
X125438500Y-91937729D01*
X125438502Y-91937730D01*
X125462377Y-91940500D01*
X125669520Y-91940499D01*
X125736560Y-91960183D01*
X125757202Y-91976818D01*
X126148181Y-92367797D01*
X126181666Y-92429120D01*
X126184500Y-92455478D01*
X126184500Y-93762006D01*
X126164815Y-93829045D01*
X126112011Y-93874800D01*
X126042853Y-93884744D01*
X126041103Y-93884480D01*
X125973567Y-93873784D01*
X125915000Y-93864508D01*
X125914998Y-93864508D01*
X125914997Y-93864508D01*
X125893894Y-93867850D01*
X125824601Y-93858893D01*
X125771151Y-93813895D01*
X125750513Y-93747143D01*
X125750500Y-93745376D01*
X125750500Y-93285177D01*
X125741768Y-93241282D01*
X125741767Y-93241281D01*
X125741767Y-93241278D01*
X125708504Y-93191496D01*
X125708178Y-93191278D01*
X125658724Y-93158234D01*
X125658717Y-93158231D01*
X125614822Y-93149500D01*
X125614820Y-93149500D01*
X124885180Y-93149500D01*
X124885178Y-93149500D01*
X124841282Y-93158231D01*
X124841277Y-93158233D01*
X124825748Y-93168609D01*
X124759069Y-93189484D01*
X124691690Y-93170997D01*
X124668577Y-93148694D01*
X124667140Y-93150132D01*
X124658506Y-93141498D01*
X124658504Y-93141497D01*
X124658504Y-93141496D01*
X124627790Y-93120973D01*
X124582987Y-93067364D01*
X124574279Y-92998039D01*
X124604433Y-92935011D01*
X124640385Y-92907389D01*
X124678342Y-92888050D01*
X124768050Y-92798342D01*
X124825646Y-92685304D01*
X124825646Y-92685302D01*
X124825647Y-92685301D01*
X124825647Y-92685300D01*
X124845492Y-92560003D01*
X124845492Y-92559996D01*
X124825647Y-92434699D01*
X124825647Y-92434698D01*
X124822805Y-92429120D01*
X124768050Y-92321658D01*
X124768046Y-92321654D01*
X124768045Y-92321652D01*
X124678347Y-92231954D01*
X124678344Y-92231952D01*
X124678342Y-92231950D01*
X124601517Y-92192805D01*
X124565301Y-92174352D01*
X124518703Y-92166972D01*
X124477021Y-92147212D01*
X124449759Y-92151483D01*
X124449759Y-92154508D01*
X124439997Y-92154508D01*
X124314699Y-92174352D01*
X124314698Y-92174352D01*
X124239337Y-92212751D01*
X124201658Y-92231950D01*
X124201657Y-92231951D01*
X124201652Y-92231954D01*
X124185426Y-92248181D01*
X124124103Y-92281666D01*
X124097745Y-92284500D01*
X122429344Y-92284500D01*
X122405153Y-92282117D01*
X122390000Y-92279103D01*
X122389999Y-92279103D01*
X122389998Y-92279103D01*
X122368847Y-92283310D01*
X122368834Y-92283312D01*
X122282506Y-92300483D01*
X122282505Y-92300484D01*
X122250817Y-92321658D01*
X122214380Y-92346003D01*
X122214378Y-92346006D01*
X122214376Y-92346007D01*
X122208549Y-92349900D01*
X122191373Y-92361377D01*
X122182791Y-92374222D01*
X122167372Y-92393010D01*
X122037680Y-92522702D01*
X121976357Y-92556187D01*
X121906665Y-92551203D01*
X121862318Y-92522702D01*
X121157627Y-91818011D01*
X121142205Y-91799219D01*
X121135471Y-91789141D01*
X121133624Y-91786376D01*
X121133621Y-91786373D01*
X121115688Y-91774391D01*
X121115687Y-91774391D01*
X121110623Y-91771007D01*
X121110622Y-91771006D01*
X121084465Y-91753528D01*
X121051237Y-91731326D01*
X121006432Y-91677715D01*
X120996954Y-91613931D01*
X120997680Y-91607664D01*
X120997682Y-91607662D01*
X121000500Y-91583373D01*
X121000499Y-91380477D01*
X121020183Y-91313438D01*
X121036813Y-91292801D01*
X121291989Y-91037625D01*
X121310774Y-91022209D01*
X121323624Y-91013624D01*
X121384515Y-90922495D01*
X121400500Y-90842133D01*
X121400500Y-90842132D01*
X121405897Y-90815000D01*
X121402883Y-90799847D01*
X121400500Y-90775655D01*
X121400500Y-89644344D01*
X121402883Y-89620151D01*
X121405897Y-89604999D01*
X121397516Y-89562867D01*
X121384515Y-89497505D01*
X121353881Y-89451658D01*
X121338994Y-89429378D01*
X121338992Y-89429376D01*
X121323624Y-89406376D01*
X121323621Y-89406374D01*
X121323621Y-89406373D01*
X121310775Y-89397790D01*
X121291985Y-89382369D01*
X120559616Y-88650000D01*
X122104750Y-88650000D01*
X122123670Y-88793708D01*
X122123671Y-88793712D01*
X122179137Y-88927622D01*
X122179138Y-88927624D01*
X122179139Y-88927625D01*
X122267379Y-89042621D01*
X122382375Y-89130861D01*
X122382376Y-89130861D01*
X122382377Y-89130862D01*
X122404955Y-89140214D01*
X122516291Y-89186330D01*
X122643280Y-89203048D01*
X122659999Y-89205250D01*
X122660000Y-89205250D01*
X122660001Y-89205250D01*
X122674977Y-89203278D01*
X122803709Y-89186330D01*
X122937625Y-89130861D01*
X123052621Y-89042621D01*
X123140861Y-88927625D01*
X123196330Y-88793709D01*
X123215250Y-88650000D01*
X123196330Y-88506291D01*
X123140861Y-88372375D01*
X123052621Y-88257379D01*
X122937625Y-88169139D01*
X122937624Y-88169138D01*
X122937622Y-88169137D01*
X122803712Y-88113671D01*
X122803710Y-88113670D01*
X122803709Y-88113670D01*
X122715152Y-88102011D01*
X122660001Y-88094750D01*
X122659999Y-88094750D01*
X122516291Y-88113670D01*
X122516287Y-88113671D01*
X122382377Y-88169137D01*
X122267379Y-88257379D01*
X122179137Y-88372377D01*
X122123671Y-88506287D01*
X122123670Y-88506291D01*
X122104750Y-88649999D01*
X122104750Y-88650000D01*
X120559616Y-88650000D01*
X120192627Y-88283011D01*
X120177205Y-88264219D01*
X120168624Y-88251376D01*
X120168621Y-88251373D01*
X120150688Y-88239391D01*
X120150687Y-88239391D01*
X120145623Y-88236007D01*
X120145622Y-88236006D01*
X120119465Y-88218528D01*
X120077495Y-88190485D01*
X120077494Y-88190484D01*
X120077493Y-88190484D01*
X119991165Y-88173312D01*
X119991152Y-88173310D01*
X119970002Y-88169103D01*
X119970001Y-88169103D01*
X119970000Y-88169103D01*
X119954846Y-88172117D01*
X119930656Y-88174500D01*
X119415901Y-88174500D01*
X119348862Y-88154815D01*
X119303107Y-88102011D01*
X119292740Y-88064896D01*
X119285242Y-88000751D01*
X119285241Y-88000749D01*
X119285241Y-88000745D01*
X119225237Y-87835883D01*
X119214222Y-87819135D01*
X119128832Y-87689306D01*
X119128831Y-87689305D01*
X119001221Y-87568910D01*
X118849281Y-87481188D01*
X118849282Y-87481188D01*
X118681210Y-87430870D01*
X118681205Y-87430869D01*
X118506066Y-87420669D01*
X118506065Y-87420669D01*
X118448220Y-87430869D01*
X118333293Y-87451134D01*
X118333291Y-87451134D01*
X118333289Y-87451135D01*
X118333287Y-87451136D01*
X118172198Y-87520622D01*
X118172190Y-87520626D01*
X118031469Y-87625390D01*
X117918698Y-87759785D01*
X117918697Y-87759787D01*
X117839961Y-87916562D01*
X117839960Y-87916567D01*
X117799500Y-88087279D01*
X117799500Y-88768709D01*
X117805601Y-88820903D01*
X117814759Y-88899256D01*
X117814760Y-88899259D01*
X117874762Y-89064115D01*
X117874764Y-89064119D01*
X117971167Y-89210693D01*
X117971168Y-89210694D01*
X118098778Y-89331089D01*
X118098780Y-89331090D01*
X118098782Y-89331092D01*
X118250719Y-89418812D01*
X118418790Y-89469130D01*
X118593935Y-89479331D01*
X118766711Y-89448865D01*
X118927804Y-89379377D01*
X119068530Y-89274610D01*
X119181302Y-89140214D01*
X119260040Y-88983433D01*
X119298561Y-88820900D01*
X119333175Y-88760211D01*
X119395107Y-88727867D01*
X119419218Y-88725500D01*
X119804522Y-88725500D01*
X119871561Y-88745185D01*
X119892203Y-88761819D01*
X120405313Y-89274929D01*
X120438798Y-89336252D01*
X120433814Y-89405944D01*
X120391942Y-89461877D01*
X120326478Y-89486294D01*
X120261337Y-89473095D01*
X120185300Y-89434352D01*
X120060003Y-89414508D01*
X120059997Y-89414508D01*
X119934699Y-89434352D01*
X119934698Y-89434352D01*
X119859337Y-89472751D01*
X119821658Y-89491950D01*
X119821657Y-89491951D01*
X119821652Y-89491954D01*
X119731954Y-89581652D01*
X119731951Y-89581657D01*
X119674352Y-89694698D01*
X119674352Y-89694699D01*
X119657822Y-89799069D01*
X119627893Y-89862204D01*
X119623030Y-89867352D01*
X119517201Y-89973181D01*
X119455878Y-90006666D01*
X119429523Y-90009500D01*
X119396636Y-90009500D01*
X119396611Y-90009502D01*
X119372340Y-90012317D01*
X119372337Y-90012318D01*
X119272984Y-90056186D01*
X119196187Y-90132983D01*
X119152318Y-90232335D01*
X119152318Y-90232337D01*
X119149500Y-90256625D01*
X119149500Y-90623365D01*
X119149502Y-90623388D01*
X119152317Y-90647659D01*
X119152318Y-90647662D01*
X119196186Y-90747015D01*
X119281109Y-90831938D01*
X119278122Y-90834924D01*
X119308252Y-90871845D01*
X119316147Y-90941267D01*
X119285256Y-91003937D01*
X119280824Y-91007777D01*
X119281109Y-91008062D01*
X119199145Y-91090026D01*
X119137822Y-91123511D01*
X119068130Y-91118527D01*
X119023783Y-91090026D01*
X119009143Y-91075386D01*
X119009141Y-91075384D01*
X119009138Y-91075383D01*
X119009136Y-91075381D01*
X118911500Y-91032270D01*
X118911501Y-91032270D01*
X118887623Y-91029500D01*
X118432384Y-91029500D01*
X118432361Y-91029502D01*
X118408504Y-91032269D01*
X118408501Y-91032269D01*
X118310864Y-91075380D01*
X118310856Y-91075386D01*
X118272681Y-91113562D01*
X118211358Y-91147047D01*
X118141666Y-91142063D01*
X118097319Y-91113562D01*
X118069143Y-91085386D01*
X118069141Y-91085384D01*
X118069138Y-91085383D01*
X118069136Y-91085381D01*
X117971500Y-91042270D01*
X117971501Y-91042270D01*
X117947623Y-91039500D01*
X117492384Y-91039500D01*
X117492361Y-91039502D01*
X117468504Y-91042269D01*
X117468501Y-91042269D01*
X117370864Y-91085380D01*
X117370856Y-91085386D01*
X117295386Y-91160856D01*
X117295381Y-91160863D01*
X117252270Y-91258499D01*
X117249500Y-91282375D01*
X117249500Y-91637615D01*
X117249502Y-91637638D01*
X117252269Y-91661495D01*
X117252269Y-91661498D01*
X117295380Y-91759135D01*
X117295383Y-91759139D01*
X117295384Y-91759141D01*
X117370859Y-91834616D01*
X117370862Y-91834617D01*
X117370863Y-91834618D01*
X117468499Y-91877729D01*
X117468500Y-91877729D01*
X117468502Y-91877730D01*
X117492377Y-91880500D01*
X117699520Y-91880499D01*
X117766560Y-91900183D01*
X117787202Y-91916818D01*
X118447370Y-92576986D01*
X118462790Y-92595775D01*
X118471376Y-92608624D01*
X118489304Y-92620603D01*
X118489312Y-92620609D01*
X118494377Y-92623993D01*
X118494378Y-92623994D01*
X118520534Y-92641471D01*
X118562505Y-92669515D01*
X118562507Y-92669515D01*
X118562507Y-92669516D01*
X118648832Y-92686687D01*
X118648839Y-92686687D01*
X118670000Y-92690897D01*
X118685153Y-92687882D01*
X118709344Y-92685500D01*
X119004522Y-92685500D01*
X119071561Y-92705185D01*
X119092203Y-92721819D01*
X119238181Y-92867797D01*
X119271666Y-92929120D01*
X119274500Y-92955478D01*
X119274500Y-93057130D01*
X119254815Y-93124169D01*
X119238181Y-93144811D01*
X119237681Y-93145311D01*
X119176358Y-93178796D01*
X119106666Y-93173812D01*
X119062319Y-93145311D01*
X119058503Y-93141495D01*
X119008724Y-93108234D01*
X119008717Y-93108231D01*
X118964822Y-93099500D01*
X118964820Y-93099500D01*
X118535180Y-93099500D01*
X118535178Y-93099500D01*
X118491282Y-93108231D01*
X118491275Y-93108234D01*
X118441496Y-93141495D01*
X118441495Y-93141496D01*
X118408234Y-93191275D01*
X118408231Y-93191282D01*
X118399500Y-93235177D01*
X118399500Y-94003172D01*
X118379815Y-94070211D01*
X118327011Y-94115966D01*
X118275500Y-94127172D01*
X117903512Y-94127172D01*
X117836473Y-94107487D01*
X117815831Y-94090853D01*
X117799604Y-94074626D01*
X117799601Y-94074624D01*
X117799599Y-94074622D01*
X117686561Y-94017026D01*
X117686559Y-94017025D01*
X117686558Y-94017025D01*
X117605101Y-94004123D01*
X117541967Y-93974193D01*
X117505036Y-93914882D01*
X117500500Y-93881650D01*
X117500500Y-93669624D01*
X117500923Y-93659386D01*
X117504132Y-93620651D01*
X117503970Y-93618695D01*
X117500500Y-93590857D01*
X117500500Y-93235177D01*
X117491768Y-93191282D01*
X117491767Y-93191281D01*
X117491767Y-93191278D01*
X117458504Y-93141496D01*
X117456611Y-93140231D01*
X117408724Y-93108234D01*
X117408717Y-93108231D01*
X117364822Y-93099500D01*
X117364820Y-93099500D01*
X116935180Y-93099500D01*
X116935178Y-93099500D01*
X116891282Y-93108231D01*
X116891275Y-93108234D01*
X116841496Y-93141495D01*
X116837681Y-93145311D01*
X116776358Y-93178796D01*
X116706666Y-93173812D01*
X116662319Y-93145311D01*
X116658503Y-93141495D01*
X116608724Y-93108234D01*
X116608717Y-93108231D01*
X116564822Y-93099500D01*
X116564820Y-93099500D01*
X116135180Y-93099500D01*
X116135178Y-93099500D01*
X116091282Y-93108231D01*
X116091279Y-93108232D01*
X116082473Y-93114116D01*
X116043388Y-93140231D01*
X115976713Y-93161108D01*
X115909333Y-93142623D01*
X115862643Y-93090644D01*
X115850500Y-93037128D01*
X115850500Y-92791275D01*
X115852027Y-92771876D01*
X115855492Y-92750000D01*
X115855492Y-92749999D01*
X115850027Y-92715499D01*
X115850027Y-92715498D01*
X115835646Y-92624696D01*
X115778050Y-92511658D01*
X115778046Y-92511654D01*
X115778045Y-92511652D01*
X115688347Y-92421954D01*
X115688344Y-92421952D01*
X115688342Y-92421950D01*
X115575304Y-92364354D01*
X115575303Y-92364353D01*
X115575300Y-92364352D01*
X115450003Y-92344508D01*
X115449997Y-92344508D01*
X115324699Y-92364352D01*
X115324698Y-92364352D01*
X115249337Y-92402751D01*
X115211658Y-92421950D01*
X115211657Y-92421951D01*
X115211652Y-92421954D01*
X115121954Y-92511652D01*
X115121951Y-92511657D01*
X115121950Y-92511658D01*
X115064354Y-92624696D01*
X115049973Y-92715498D01*
X115049973Y-92715499D01*
X115044508Y-92749999D01*
X115044508Y-92750000D01*
X115047973Y-92771876D01*
X115049500Y-92791275D01*
X115049500Y-93086460D01*
X115029815Y-93153499D01*
X114994390Y-93189562D01*
X114991496Y-93191495D01*
X114991495Y-93191496D01*
X114958234Y-93241275D01*
X114958231Y-93241282D01*
X114949500Y-93285177D01*
X114949500Y-93285180D01*
X114949500Y-94014820D01*
X114949500Y-94014822D01*
X114949499Y-94014822D01*
X114958231Y-94058717D01*
X114958234Y-94058724D01*
X114979702Y-94090853D01*
X114991496Y-94108504D01*
X114994387Y-94110436D01*
X114999272Y-94116280D01*
X115000132Y-94117140D01*
X115000055Y-94117216D01*
X115039193Y-94164043D01*
X115049500Y-94213539D01*
X115049500Y-94303051D01*
X115029815Y-94370090D01*
X114994391Y-94406153D01*
X114941495Y-94441496D01*
X114908234Y-94491275D01*
X114908231Y-94491282D01*
X114899500Y-94535177D01*
X114899500Y-94535180D01*
X114899500Y-94964820D01*
X114899500Y-94964822D01*
X114899499Y-94964822D01*
X114908231Y-95008717D01*
X114908234Y-95008724D01*
X114941495Y-95058503D01*
X114945311Y-95062319D01*
X114978796Y-95123642D01*
X114973812Y-95193334D01*
X114945311Y-95237681D01*
X114941495Y-95241496D01*
X114908234Y-95291275D01*
X114908231Y-95291282D01*
X114899500Y-95335177D01*
X114899500Y-95335180D01*
X114899500Y-95764820D01*
X114899500Y-95764822D01*
X114899499Y-95764822D01*
X114908231Y-95808717D01*
X114908234Y-95808724D01*
X114941495Y-95858503D01*
X114945311Y-95862319D01*
X114978796Y-95923642D01*
X114973812Y-95993334D01*
X114945311Y-96037681D01*
X114941495Y-96041496D01*
X114908234Y-96091275D01*
X114908231Y-96091282D01*
X114899500Y-96135177D01*
X114899500Y-96135180D01*
X114899500Y-96564820D01*
X114899500Y-96564822D01*
X114899499Y-96564822D01*
X114908231Y-96608717D01*
X114908234Y-96608724D01*
X114941495Y-96658503D01*
X114945311Y-96662319D01*
X114978796Y-96723642D01*
X114973812Y-96793334D01*
X114945311Y-96837681D01*
X114941495Y-96841496D01*
X114908234Y-96891275D01*
X114908231Y-96891282D01*
X114899500Y-96935177D01*
X114899500Y-96935180D01*
X114899500Y-97364820D01*
X114899500Y-97364822D01*
X114899499Y-97364822D01*
X114908231Y-97408717D01*
X114908234Y-97408724D01*
X114941495Y-97458503D01*
X114945311Y-97462319D01*
X114978796Y-97523642D01*
X114973812Y-97593334D01*
X114945311Y-97637681D01*
X114941495Y-97641496D01*
X114908234Y-97691275D01*
X114908231Y-97691282D01*
X114899500Y-97735177D01*
X114899500Y-97735180D01*
X114899500Y-98164820D01*
X114899500Y-98164822D01*
X114899499Y-98164822D01*
X114908231Y-98208717D01*
X114908234Y-98208724D01*
X114941495Y-98258503D01*
X114945311Y-98262319D01*
X114978796Y-98323642D01*
X114973812Y-98393334D01*
X114945311Y-98437681D01*
X114941495Y-98441496D01*
X114908234Y-98491275D01*
X114908231Y-98491282D01*
X114899500Y-98535177D01*
X114899500Y-98535180D01*
X114899500Y-98964820D01*
X114899500Y-98964822D01*
X114899499Y-98964822D01*
X114908231Y-99008717D01*
X114908234Y-99008724D01*
X114941495Y-99058503D01*
X114945311Y-99062319D01*
X114978796Y-99123642D01*
X114973812Y-99193334D01*
X114945311Y-99237681D01*
X114941495Y-99241496D01*
X114908234Y-99291275D01*
X114908231Y-99291282D01*
X114899500Y-99335177D01*
X114899500Y-99335180D01*
X114899500Y-99764820D01*
X114899500Y-99764822D01*
X114899499Y-99764822D01*
X114908231Y-99808717D01*
X114908234Y-99808724D01*
X114941495Y-99858503D01*
X114945311Y-99862319D01*
X114978796Y-99923642D01*
X114973812Y-99993334D01*
X114945311Y-100037681D01*
X114941495Y-100041496D01*
X114908234Y-100091275D01*
X114908231Y-100091282D01*
X114899500Y-100135177D01*
X114899500Y-100135180D01*
X114899500Y-100564820D01*
X114899500Y-100564822D01*
X114899499Y-100564822D01*
X114908231Y-100608717D01*
X114908234Y-100608724D01*
X114941495Y-100658503D01*
X114945311Y-100662319D01*
X114978796Y-100723642D01*
X114973812Y-100793334D01*
X114945311Y-100837681D01*
X114941495Y-100841496D01*
X114908234Y-100891275D01*
X114908231Y-100891282D01*
X114899500Y-100935177D01*
X114899500Y-100935180D01*
X114899500Y-101364820D01*
X114899500Y-101364822D01*
X114899499Y-101364822D01*
X114908231Y-101408717D01*
X114908234Y-101408724D01*
X114941495Y-101458503D01*
X114945311Y-101462319D01*
X114978796Y-101523642D01*
X114973812Y-101593334D01*
X114945311Y-101637681D01*
X114941495Y-101641496D01*
X114908234Y-101691275D01*
X114908231Y-101691282D01*
X114899500Y-101735177D01*
X114899500Y-101735180D01*
X114899500Y-102164820D01*
X114899500Y-102164822D01*
X114899499Y-102164822D01*
X114908231Y-102208717D01*
X114908234Y-102208724D01*
X114941495Y-102258503D01*
X114945311Y-102262319D01*
X114978796Y-102323642D01*
X114973812Y-102393334D01*
X114945311Y-102437681D01*
X114941495Y-102441496D01*
X114908234Y-102491275D01*
X114908231Y-102491282D01*
X114899500Y-102535177D01*
X114899500Y-102535180D01*
X114899500Y-102964820D01*
X114899500Y-102964822D01*
X114899499Y-102964822D01*
X114908231Y-103008717D01*
X114908234Y-103008724D01*
X114941495Y-103058503D01*
X114945311Y-103062319D01*
X114978796Y-103123642D01*
X114973812Y-103193334D01*
X114945311Y-103237681D01*
X114941495Y-103241496D01*
X114908234Y-103291275D01*
X114908231Y-103291282D01*
X114899500Y-103335177D01*
X114899500Y-103335180D01*
X114899500Y-103764820D01*
X114899500Y-103764822D01*
X114899499Y-103764822D01*
X114908231Y-103808717D01*
X114908234Y-103808724D01*
X114941495Y-103858503D01*
X114945311Y-103862319D01*
X114978796Y-103923642D01*
X114973812Y-103993334D01*
X114945311Y-104037681D01*
X114941495Y-104041496D01*
X114908234Y-104091275D01*
X114908231Y-104091282D01*
X114899500Y-104135177D01*
X114899500Y-104135180D01*
X114899500Y-104564820D01*
X114899500Y-104564822D01*
X114899499Y-104564822D01*
X114908231Y-104608717D01*
X114908234Y-104608724D01*
X114941494Y-104658502D01*
X114941495Y-104658502D01*
X114941496Y-104658504D01*
X114991278Y-104691767D01*
X114991280Y-104691767D01*
X114994390Y-104693845D01*
X115039195Y-104747457D01*
X115049500Y-104796948D01*
X115049500Y-104886460D01*
X115029815Y-104953499D01*
X114994390Y-104989562D01*
X114991496Y-104991495D01*
X114991495Y-104991496D01*
X114958234Y-105041275D01*
X114958231Y-105041282D01*
X114949500Y-105085177D01*
X114949500Y-105085180D01*
X114949500Y-105814820D01*
X114949500Y-105814822D01*
X114949499Y-105814822D01*
X114958231Y-105858717D01*
X114958232Y-105858720D01*
X114958232Y-105858721D01*
X114958233Y-105858722D01*
X114991496Y-105908504D01*
X114991499Y-105908506D01*
X115000131Y-105917138D01*
X114997647Y-105919621D01*
X115029189Y-105957352D01*
X115039500Y-106006858D01*
X115039500Y-106738724D01*
X115037973Y-106758121D01*
X115034508Y-106780000D01*
X115037851Y-106801109D01*
X115038736Y-106806693D01*
X115038739Y-106806722D01*
X115054352Y-106905301D01*
X115059454Y-106915313D01*
X115111950Y-107018342D01*
X115111952Y-107018344D01*
X115111954Y-107018347D01*
X115201652Y-107108045D01*
X115201654Y-107108046D01*
X115201658Y-107108050D01*
X115314696Y-107165646D01*
X115314697Y-107165646D01*
X115314699Y-107165647D01*
X115439997Y-107185492D01*
X115440000Y-107185492D01*
X115440003Y-107185492D01*
X115565300Y-107165647D01*
X115565301Y-107165647D01*
X115565302Y-107165646D01*
X115565304Y-107165646D01*
X115678342Y-107108050D01*
X115768050Y-107018342D01*
X115825646Y-106905304D01*
X115825646Y-106905302D01*
X115825647Y-106905301D01*
X115841260Y-106806724D01*
X115841260Y-106806714D01*
X115845492Y-106780000D01*
X115842026Y-106758121D01*
X115840500Y-106738724D01*
X115840500Y-106056190D01*
X115860185Y-105989151D01*
X115912989Y-105943396D01*
X115982147Y-105933452D01*
X116033390Y-105953088D01*
X116062260Y-105972378D01*
X116091278Y-105991767D01*
X116091281Y-105991767D01*
X116091282Y-105991768D01*
X116135177Y-106000500D01*
X116135180Y-106000500D01*
X116564822Y-106000500D01*
X116608717Y-105991768D01*
X116608717Y-105991767D01*
X116608722Y-105991767D01*
X116658504Y-105958504D01*
X116658506Y-105958500D01*
X116662319Y-105954689D01*
X116723642Y-105921204D01*
X116793334Y-105926188D01*
X116837681Y-105954689D01*
X116841496Y-105958504D01*
X116891278Y-105991767D01*
X116891281Y-105991767D01*
X116891282Y-105991768D01*
X116935177Y-106000500D01*
X116935180Y-106000500D01*
X117053839Y-106000500D01*
X117120878Y-106020185D01*
X117166633Y-106072989D01*
X117176577Y-106142147D01*
X117176312Y-106143897D01*
X117158529Y-106256178D01*
X117128600Y-106319313D01*
X117069289Y-106356245D01*
X117052243Y-106359720D01*
X116946291Y-106373670D01*
X116946287Y-106373671D01*
X116812377Y-106429137D01*
X116697379Y-106517379D01*
X116609137Y-106632377D01*
X116553671Y-106766287D01*
X116553670Y-106766291D01*
X116542214Y-106853310D01*
X116534750Y-106910000D01*
X116549014Y-107018347D01*
X116553670Y-107053708D01*
X116553671Y-107053712D01*
X116609137Y-107187622D01*
X116609138Y-107187624D01*
X116609139Y-107187625D01*
X116697379Y-107302621D01*
X116812375Y-107390861D01*
X116812376Y-107390861D01*
X116812377Y-107390862D01*
X116832179Y-107399064D01*
X116946291Y-107446330D01*
X117064426Y-107461883D01*
X117089999Y-107465250D01*
X117090000Y-107465250D01*
X117090001Y-107465250D01*
X117115574Y-107461883D01*
X117233709Y-107446330D01*
X117367625Y-107390861D01*
X117415015Y-107354496D01*
X117480181Y-107329303D01*
X117548626Y-107343341D01*
X117598616Y-107392154D01*
X117614500Y-107452873D01*
X117614500Y-109159630D01*
X117594815Y-109226669D01*
X117542011Y-109272424D01*
X117472853Y-109282368D01*
X117471103Y-109282104D01*
X117380930Y-109267823D01*
X117317795Y-109237894D01*
X117312646Y-109233030D01*
X117292627Y-109213011D01*
X117277205Y-109194219D01*
X117268624Y-109181376D01*
X117268621Y-109181373D01*
X117250691Y-109169393D01*
X117250688Y-109169391D01*
X117245622Y-109166006D01*
X117215609Y-109145952D01*
X117170805Y-109092341D01*
X117160500Y-109042850D01*
X117160500Y-108865177D01*
X117151768Y-108821282D01*
X117151767Y-108821281D01*
X117151767Y-108821278D01*
X117118504Y-108771496D01*
X117118503Y-108771494D01*
X117116315Y-108769306D01*
X117113071Y-108763364D01*
X117111719Y-108761341D01*
X117111900Y-108761219D01*
X117082833Y-108707981D01*
X117080000Y-108681629D01*
X117080000Y-108559999D01*
X115380001Y-108539999D01*
X115379999Y-108540001D01*
X115370257Y-108803048D01*
X115367959Y-108822649D01*
X115359500Y-108865175D01*
X115359500Y-109633745D01*
X115339815Y-109700784D01*
X115287011Y-109746539D01*
X115217853Y-109756483D01*
X115154297Y-109727458D01*
X115147819Y-109721426D01*
X115128347Y-109701954D01*
X115128344Y-109701952D01*
X115128342Y-109701950D01*
X115015304Y-109644354D01*
X115015303Y-109644353D01*
X115015300Y-109644352D01*
X114890003Y-109624508D01*
X114889997Y-109624508D01*
X114764699Y-109644352D01*
X114764698Y-109644352D01*
X114689337Y-109682751D01*
X114651658Y-109701950D01*
X114651657Y-109701951D01*
X114651652Y-109701954D01*
X114561954Y-109791652D01*
X114561951Y-109791657D01*
X114561950Y-109791658D01*
X114544711Y-109825492D01*
X114504352Y-109904698D01*
X114504352Y-109904699D01*
X114484508Y-110029996D01*
X114484508Y-110030003D01*
X114504352Y-110155300D01*
X114504352Y-110155301D01*
X114516222Y-110178597D01*
X114561950Y-110268342D01*
X114561952Y-110268344D01*
X114561954Y-110268347D01*
X114651652Y-110358045D01*
X114651654Y-110358046D01*
X114651658Y-110358050D01*
X114764696Y-110415646D01*
X114869071Y-110432177D01*
X114932204Y-110462106D01*
X114937353Y-110466969D01*
X115317369Y-110846985D01*
X115332790Y-110865775D01*
X115341373Y-110878621D01*
X115341374Y-110878621D01*
X115341376Y-110878624D01*
X115359315Y-110890610D01*
X115359328Y-110890620D01*
X115365391Y-110894671D01*
X115366400Y-110895857D01*
X115368932Y-110897732D01*
X115368943Y-110897741D01*
X115368482Y-110898303D01*
X115409297Y-110946263D01*
X115421412Y-110972791D01*
X115421418Y-110972804D01*
X115499150Y-111093758D01*
X115513182Y-111109952D01*
X115527755Y-111126769D01*
X115636402Y-111220912D01*
X115636409Y-111220917D01*
X115636414Y-111220921D01*
X115657433Y-111234429D01*
X115673145Y-111244527D01*
X115673149Y-111244529D01*
X115673155Y-111244533D01*
X115803940Y-111304261D01*
X115845847Y-111316566D01*
X115845849Y-111316566D01*
X115845851Y-111316567D01*
X115888286Y-111322667D01*
X115988162Y-111337028D01*
X115988163Y-111337028D01*
X116031835Y-111337028D01*
X116031838Y-111337028D01*
X116043323Y-111335376D01*
X116047962Y-111334710D01*
X116065607Y-111333448D01*
X116454393Y-111333448D01*
X116472038Y-111334710D01*
X116477694Y-111335523D01*
X116488162Y-111337028D01*
X116488165Y-111337028D01*
X116531837Y-111337028D01*
X116531838Y-111337028D01*
X116646072Y-111320603D01*
X116674148Y-111316567D01*
X116674149Y-111316566D01*
X116674153Y-111316566D01*
X116716060Y-111304261D01*
X116846845Y-111244533D01*
X116883586Y-111220921D01*
X116883594Y-111220914D01*
X116883597Y-111220912D01*
X116934651Y-111176673D01*
X116992247Y-111126767D01*
X117020850Y-111093758D01*
X117098582Y-110972804D01*
X117104431Y-110959996D01*
X117116721Y-110933085D01*
X117116728Y-110933065D01*
X117145611Y-110834698D01*
X117157232Y-110795120D01*
X117163448Y-110751889D01*
X117163448Y-110189546D01*
X117183133Y-110122507D01*
X117235937Y-110076752D01*
X117305095Y-110066808D01*
X117306779Y-110067062D01*
X117346777Y-110073397D01*
X117359999Y-110075492D01*
X117360000Y-110075492D01*
X117360002Y-110075492D01*
X117421907Y-110065687D01*
X117471103Y-110057895D01*
X117540395Y-110066849D01*
X117593847Y-110111845D01*
X117614487Y-110178597D01*
X117614500Y-110180368D01*
X117614500Y-110369086D01*
X117612117Y-110393278D01*
X117609103Y-110408430D01*
X117609103Y-110408433D01*
X117613310Y-110429583D01*
X117613311Y-110429590D01*
X117630483Y-110515924D01*
X117637493Y-110526415D01*
X117669524Y-110574353D01*
X117691374Y-110607054D01*
X117695585Y-110609867D01*
X117704222Y-110615638D01*
X117723012Y-110631059D01*
X119170902Y-112078949D01*
X119204387Y-112140272D01*
X119205694Y-112147232D01*
X119222224Y-112251604D01*
X119222226Y-112251607D01*
X119279822Y-112364645D01*
X119279824Y-112364647D01*
X119279826Y-112364650D01*
X119369524Y-112454348D01*
X119369526Y-112454349D01*
X119369530Y-112454353D01*
X119482568Y-112511949D01*
X119482569Y-112511949D01*
X119482571Y-112511950D01*
X119607869Y-112531795D01*
X119607872Y-112531795D01*
X119607875Y-112531795D01*
X119733172Y-112511950D01*
X119733173Y-112511950D01*
X119733174Y-112511949D01*
X119733176Y-112511949D01*
X119846214Y-112454353D01*
X119935922Y-112364645D01*
X119993518Y-112251607D01*
X119993518Y-112251605D01*
X119993519Y-112251604D01*
X119993519Y-112251603D01*
X120013364Y-112126306D01*
X120013364Y-112126299D01*
X119993519Y-112001002D01*
X119993519Y-112001001D01*
X119984762Y-111983815D01*
X119935922Y-111887961D01*
X119935918Y-111887957D01*
X119935917Y-111887955D01*
X119846219Y-111798257D01*
X119846216Y-111798255D01*
X119846214Y-111798253D01*
X119753654Y-111751091D01*
X119733173Y-111740655D01*
X119628801Y-111724125D01*
X119565666Y-111694196D01*
X119560518Y-111689333D01*
X118201819Y-110330634D01*
X118168334Y-110269311D01*
X118165500Y-110242953D01*
X118165500Y-107315478D01*
X118185185Y-107248439D01*
X118201819Y-107227797D01*
X118217797Y-107211819D01*
X118279120Y-107178334D01*
X118305478Y-107175500D01*
X118658099Y-107175500D01*
X118725138Y-107195185D01*
X118770893Y-107247989D01*
X118780837Y-107317147D01*
X118751812Y-107380703D01*
X118714396Y-107409982D01*
X118651658Y-107441950D01*
X118651657Y-107441951D01*
X118651652Y-107441954D01*
X118561954Y-107531652D01*
X118561951Y-107531657D01*
X118561950Y-107531658D01*
X118555757Y-107543813D01*
X118504352Y-107644698D01*
X118504352Y-107644699D01*
X118484508Y-107769996D01*
X118484508Y-107770003D01*
X118504352Y-107895300D01*
X118504352Y-107895301D01*
X118509586Y-107905573D01*
X118561950Y-108008342D01*
X118561952Y-108008344D01*
X118561954Y-108008347D01*
X118651652Y-108098045D01*
X118651654Y-108098046D01*
X118651658Y-108098050D01*
X118764696Y-108155646D01*
X118764697Y-108155646D01*
X118764699Y-108155647D01*
X118889997Y-108175492D01*
X118890000Y-108175492D01*
X118890002Y-108175492D01*
X118945601Y-108166686D01*
X119014895Y-108175641D01*
X119068347Y-108220637D01*
X119088986Y-108287388D01*
X119078434Y-108339245D01*
X119052270Y-108398500D01*
X119049500Y-108422375D01*
X119049500Y-108877615D01*
X119049502Y-108877638D01*
X119052268Y-108901494D01*
X119060660Y-108920500D01*
X119070131Y-108941950D01*
X119079171Y-108962422D01*
X119088242Y-109031700D01*
X119058418Y-109094885D01*
X119053418Y-109100189D01*
X118971951Y-109181656D01*
X118971951Y-109181657D01*
X118971950Y-109181658D01*
X118960375Y-109204376D01*
X118914352Y-109294698D01*
X118914352Y-109294699D01*
X118894508Y-109419996D01*
X118894508Y-109420003D01*
X118914352Y-109545300D01*
X118914352Y-109545301D01*
X118922684Y-109561652D01*
X118971950Y-109658342D01*
X118971952Y-109658344D01*
X118971954Y-109658347D01*
X119061652Y-109748045D01*
X119061654Y-109748046D01*
X119061658Y-109748050D01*
X119174696Y-109805646D01*
X119174697Y-109805646D01*
X119174699Y-109805647D01*
X119299997Y-109825492D01*
X119300000Y-109825492D01*
X119300003Y-109825492D01*
X119425300Y-109805647D01*
X119425301Y-109805647D01*
X119425302Y-109805646D01*
X119425304Y-109805646D01*
X119538342Y-109748050D01*
X119628050Y-109658342D01*
X119651049Y-109613203D01*
X119699023Y-109562409D01*
X119761533Y-109545500D01*
X120463440Y-109545500D01*
X120530479Y-109565185D01*
X120576234Y-109617989D01*
X120586178Y-109687147D01*
X120581369Y-109707824D01*
X120580472Y-109710582D01*
X120560628Y-109835878D01*
X120560628Y-109835884D01*
X120580473Y-109961186D01*
X120583489Y-109970467D01*
X120581791Y-109971018D01*
X120591809Y-110011520D01*
X120614011Y-111624836D01*
X120620000Y-112060000D01*
X120620001Y-112060000D01*
X121132213Y-112060000D01*
X121145074Y-112053117D01*
X121170413Y-112050500D01*
X122004822Y-112050500D01*
X122048717Y-112041768D01*
X122048717Y-112041767D01*
X122048722Y-112041767D01*
X122048726Y-112041764D01*
X122060002Y-112037094D01*
X122060760Y-112038925D01*
X122112780Y-112022634D01*
X122169539Y-112038201D01*
X122169998Y-112037094D01*
X122178810Y-112040744D01*
X122180161Y-112041115D01*
X122180987Y-112041646D01*
X122181275Y-112041765D01*
X122181278Y-112041767D01*
X122181281Y-112041767D01*
X122181282Y-112041768D01*
X122239997Y-112053448D01*
X122240000Y-112053448D01*
X122861885Y-112053448D01*
X122861889Y-112053448D01*
X122905120Y-112047232D01*
X123043075Y-112006725D01*
X123043079Y-112006722D01*
X123043085Y-112006721D01*
X123082791Y-111988588D01*
X123082791Y-111988587D01*
X123082804Y-111988582D01*
X123203758Y-111910850D01*
X123236767Y-111882247D01*
X123309544Y-111798257D01*
X123330912Y-111773597D01*
X123330914Y-111773594D01*
X123330921Y-111773586D01*
X123354533Y-111736845D01*
X123414261Y-111606060D01*
X123426566Y-111564153D01*
X123431210Y-111531854D01*
X123460235Y-111468298D01*
X123519012Y-111430523D01*
X123553948Y-111425500D01*
X124820656Y-111425500D01*
X124844846Y-111427882D01*
X124860000Y-111430897D01*
X124887132Y-111425500D01*
X124887133Y-111425500D01*
X124933439Y-111416289D01*
X124967491Y-111409516D01*
X124967491Y-111409515D01*
X124967495Y-111409515D01*
X125005599Y-111384054D01*
X125055083Y-111364686D01*
X125175304Y-111345646D01*
X125288342Y-111288050D01*
X125378050Y-111198342D01*
X125435646Y-111085304D01*
X125435646Y-111085302D01*
X125435647Y-111085301D01*
X125435647Y-111085300D01*
X125455492Y-110960003D01*
X125455492Y-110959996D01*
X125435647Y-110834699D01*
X125435647Y-110834698D01*
X125435646Y-110834696D01*
X125378050Y-110721658D01*
X125378046Y-110721654D01*
X125378045Y-110721652D01*
X125288347Y-110631954D01*
X125288344Y-110631952D01*
X125288342Y-110631950D01*
X125175304Y-110574354D01*
X125175303Y-110574353D01*
X125175300Y-110574352D01*
X125050003Y-110554508D01*
X125049997Y-110554508D01*
X124924699Y-110574352D01*
X124924698Y-110574352D01*
X124860519Y-110607054D01*
X124811658Y-110631950D01*
X124811657Y-110631951D01*
X124811652Y-110631954D01*
X124721954Y-110721652D01*
X124721951Y-110721657D01*
X124721950Y-110721658D01*
X124678569Y-110806796D01*
X124630596Y-110857591D01*
X124568086Y-110874500D01*
X123553948Y-110874500D01*
X123486909Y-110854815D01*
X123441154Y-110802011D01*
X123431210Y-110768146D01*
X123426567Y-110735854D01*
X123426566Y-110735847D01*
X123414261Y-110693940D01*
X123354533Y-110563155D01*
X123330921Y-110526414D01*
X123330918Y-110526411D01*
X123330912Y-110526402D01*
X123236769Y-110417755D01*
X123203759Y-110389151D01*
X123203758Y-110389150D01*
X123082804Y-110311418D01*
X123078915Y-110309295D01*
X123079669Y-110307913D01*
X123031922Y-110266546D01*
X123012234Y-110199507D01*
X123031915Y-110132467D01*
X123084716Y-110086709D01*
X123136234Y-110075500D01*
X124367745Y-110075500D01*
X124434784Y-110095185D01*
X124455426Y-110111819D01*
X124471652Y-110128045D01*
X124471654Y-110128046D01*
X124471658Y-110128050D01*
X124584696Y-110185646D01*
X124584697Y-110185646D01*
X124584699Y-110185647D01*
X124709997Y-110205492D01*
X124710000Y-110205492D01*
X124710003Y-110205492D01*
X124835300Y-110185647D01*
X124835301Y-110185647D01*
X124835302Y-110185646D01*
X124835304Y-110185646D01*
X124948342Y-110128050D01*
X125038050Y-110038342D01*
X125095646Y-109925304D01*
X125095646Y-109925302D01*
X125095647Y-109925301D01*
X125095647Y-109925300D01*
X125115492Y-109800003D01*
X125115492Y-109799996D01*
X125095647Y-109674699D01*
X125095647Y-109674698D01*
X125088322Y-109660322D01*
X125038050Y-109561658D01*
X125038046Y-109561654D01*
X125038045Y-109561652D01*
X124948347Y-109471954D01*
X124948344Y-109471952D01*
X124948342Y-109471950D01*
X124835304Y-109414354D01*
X124835303Y-109414353D01*
X124835300Y-109414352D01*
X124710003Y-109394508D01*
X124709997Y-109394508D01*
X124584699Y-109414352D01*
X124584697Y-109414353D01*
X124576288Y-109418638D01*
X124507618Y-109431533D01*
X124442878Y-109405255D01*
X124402622Y-109348148D01*
X124397522Y-109288754D01*
X124400492Y-109270002D01*
X124400492Y-109269996D01*
X124380647Y-109144699D01*
X124380647Y-109144698D01*
X124358277Y-109100795D01*
X124345381Y-109032126D01*
X124371657Y-108967385D01*
X124428764Y-108927128D01*
X124468762Y-108920500D01*
X127541342Y-108920500D01*
X127565532Y-108922882D01*
X127580686Y-108925897D01*
X127607818Y-108920500D01*
X127607819Y-108920500D01*
X127688181Y-108904515D01*
X127739836Y-108870000D01*
X127756308Y-108858994D01*
X127756308Y-108858993D01*
X127769739Y-108850020D01*
X127769742Y-108850016D01*
X127779310Y-108843624D01*
X127787897Y-108830772D01*
X127803310Y-108811991D01*
X129106990Y-107508310D01*
X129125774Y-107492895D01*
X129138624Y-107484310D01*
X129155609Y-107458891D01*
X129159962Y-107452377D01*
X129199515Y-107393181D01*
X129212356Y-107328626D01*
X129212356Y-107328622D01*
X129214072Y-107320000D01*
X129215500Y-107312819D01*
X129215500Y-107312818D01*
X129220897Y-107285686D01*
X129217883Y-107270533D01*
X129215500Y-107246341D01*
X129215500Y-107092864D01*
X129215499Y-107092862D01*
X129199516Y-107012509D01*
X129199515Y-107012505D01*
X129183736Y-106988891D01*
X129162858Y-106922214D01*
X129181342Y-106854834D01*
X129183736Y-106851109D01*
X129199515Y-106827495D01*
X129215500Y-106747133D01*
X129215500Y-106559344D01*
X129217883Y-106535151D01*
X129220897Y-106519999D01*
X129201898Y-106424486D01*
X129201296Y-106418375D01*
X129199515Y-106412506D01*
X129199515Y-106412505D01*
X129160924Y-106354750D01*
X129138624Y-106321375D01*
X129125775Y-106312790D01*
X129106985Y-106297369D01*
X128802627Y-105993011D01*
X128787205Y-105974219D01*
X128778624Y-105961376D01*
X128778619Y-105961372D01*
X128755624Y-105946007D01*
X128755623Y-105946007D01*
X128755622Y-105946006D01*
X128720803Y-105922741D01*
X128717908Y-105920806D01*
X128687494Y-105900484D01*
X128687493Y-105900483D01*
X128601165Y-105883312D01*
X128601152Y-105883310D01*
X128580002Y-105879103D01*
X128580001Y-105879103D01*
X128580000Y-105879103D01*
X128564846Y-105882117D01*
X128540656Y-105884500D01*
X128273024Y-105884500D01*
X128205985Y-105864815D01*
X128160230Y-105812011D01*
X128150286Y-105742853D01*
X128179311Y-105679297D01*
X128216729Y-105650015D01*
X128225303Y-105645646D01*
X128225304Y-105645646D01*
X128338342Y-105588050D01*
X128343012Y-105583380D01*
X128354574Y-105571819D01*
X128415897Y-105538334D01*
X128442255Y-105535500D01*
X129004522Y-105535500D01*
X129071561Y-105555185D01*
X129092203Y-105571819D01*
X129653181Y-106132797D01*
X129686666Y-106194120D01*
X129689500Y-106220477D01*
X129689500Y-106427615D01*
X129689502Y-106427638D01*
X129692269Y-106451495D01*
X129692269Y-106451498D01*
X129735380Y-106549135D01*
X129735383Y-106549139D01*
X129735384Y-106549141D01*
X129735386Y-106549143D01*
X129735387Y-106549144D01*
X129780026Y-106593784D01*
X129813510Y-106655107D01*
X129808525Y-106724799D01*
X129780027Y-106769144D01*
X129756186Y-106792984D01*
X129712318Y-106892335D01*
X129712318Y-106892337D01*
X129709500Y-106916625D01*
X129709500Y-107343365D01*
X129709502Y-107343388D01*
X129712317Y-107367659D01*
X129712318Y-107367662D01*
X129756186Y-107467015D01*
X129756187Y-107467016D01*
X129832984Y-107543813D01*
X129932338Y-107587682D01*
X129956627Y-107590500D01*
X130323372Y-107590499D01*
X130347662Y-107587682D01*
X130447016Y-107543813D01*
X130523813Y-107467016D01*
X130523813Y-107467015D01*
X130531938Y-107458891D01*
X130534930Y-107461883D01*
X130571749Y-107431788D01*
X130641165Y-107423835D01*
X130703861Y-107454673D01*
X130707769Y-107459183D01*
X130708062Y-107458891D01*
X130716187Y-107467016D01*
X130792984Y-107543813D01*
X130892338Y-107587682D01*
X130916627Y-107590500D01*
X131283372Y-107590499D01*
X131307662Y-107587682D01*
X131392025Y-107550431D01*
X131461303Y-107541360D01*
X131524488Y-107571183D01*
X131529792Y-107576185D01*
X131601652Y-107648045D01*
X131601654Y-107648046D01*
X131601658Y-107648050D01*
X131714696Y-107705646D01*
X131714697Y-107705646D01*
X131714699Y-107705647D01*
X131839997Y-107725492D01*
X131840000Y-107725492D01*
X131840002Y-107725492D01*
X131965923Y-107705548D01*
X132035216Y-107714503D01*
X132088668Y-107759499D01*
X132109308Y-107826250D01*
X132090583Y-107893564D01*
X132082077Y-107905573D01*
X132073661Y-107916073D01*
X132070189Y-107920217D01*
X131854511Y-108166487D01*
X131853879Y-108167202D01*
X131590725Y-108463060D01*
X131586897Y-108467172D01*
X131363322Y-108696693D01*
X131362803Y-108697223D01*
X131079919Y-108984175D01*
X131075729Y-108988230D01*
X130849417Y-109197173D01*
X130849028Y-109197531D01*
X130542668Y-109477965D01*
X130538113Y-109481935D01*
X130323322Y-109660119D01*
X130323076Y-109660322D01*
X129980388Y-109943122D01*
X129975467Y-109946979D01*
X129868678Y-110026408D01*
X129868592Y-110026472D01*
X129511879Y-110291312D01*
X129446318Y-110315470D01*
X129378105Y-110300349D01*
X129330574Y-110253752D01*
X128512841Y-108837394D01*
X128512793Y-108837254D01*
X128512789Y-108837257D01*
X128500469Y-108815883D01*
X128500141Y-108815631D01*
X128500140Y-108815631D01*
X128500133Y-108815631D01*
X128499729Y-108815684D01*
X128479629Y-108827136D01*
X128478942Y-108827732D01*
X126356041Y-110053391D01*
X126355872Y-110053449D01*
X126355884Y-110053470D01*
X126334663Y-110065687D01*
X126334414Y-110066012D01*
X126334413Y-110066015D01*
X126334467Y-110066424D01*
X126346847Y-110087832D01*
X126346843Y-110087834D01*
X126346938Y-110087942D01*
X127109949Y-111409516D01*
X127160988Y-111497918D01*
X127177461Y-111565818D01*
X127154608Y-111631845D01*
X127102864Y-111673712D01*
X126916273Y-111754490D01*
X126916108Y-111754562D01*
X126565900Y-111905568D01*
X126560168Y-111907872D01*
X126219912Y-112034888D01*
X126219415Y-112035072D01*
X125874421Y-112162181D01*
X125868907Y-112164067D01*
X125518471Y-112274779D01*
X125517627Y-112275042D01*
X125170377Y-112382032D01*
X125165110Y-112383528D01*
X124807764Y-112476571D01*
X124806567Y-112476877D01*
X124455795Y-112564484D01*
X124450801Y-112565622D01*
X124088066Y-112640453D01*
X124086507Y-112640764D01*
X123732591Y-112709057D01*
X123727893Y-112709870D01*
X123361279Y-112766090D01*
X123359356Y-112766370D01*
X123002786Y-112815344D01*
X122998401Y-112815867D01*
X122628963Y-112853264D01*
X122626677Y-112853474D01*
X122268377Y-112883053D01*
X122264323Y-112883320D01*
X121893291Y-112901739D01*
X121890644Y-112901843D01*
X121531446Y-112911989D01*
X121527737Y-112912038D01*
X121156066Y-112911416D01*
X121153064Y-112911374D01*
X120793971Y-112902074D01*
X120790618Y-112901942D01*
X120419488Y-112882271D01*
X120416139Y-112882048D01*
X120058019Y-112853331D01*
X120055030Y-112853055D01*
X119685448Y-112814393D01*
X119681764Y-112813952D01*
X119325643Y-112765890D01*
X119323022Y-112765508D01*
X118955981Y-112707965D01*
X118951979Y-112707270D01*
X118598794Y-112639978D01*
X118596542Y-112639527D01*
X118233171Y-112563295D01*
X118228866Y-112562312D01*
X117879498Y-112475925D01*
X117877616Y-112475444D01*
X117518949Y-112380772D01*
X117514363Y-112379466D01*
X117169645Y-112274142D01*
X117168128Y-112273668D01*
X116815344Y-112160915D01*
X116810498Y-112159255D01*
X116471066Y-112035100D01*
X116469907Y-112034670D01*
X116275366Y-111961305D01*
X116124265Y-111904322D01*
X116119202Y-111902283D01*
X116028398Y-111863378D01*
X115785274Y-111759213D01*
X115784464Y-111758863D01*
X115447641Y-111611705D01*
X115442356Y-111609246D01*
X115112695Y-111446362D01*
X115112221Y-111446127D01*
X114787362Y-111283885D01*
X114781902Y-111280986D01*
X114441590Y-111089269D01*
X114441612Y-111089228D01*
X114441436Y-111089182D01*
X114235543Y-110972804D01*
X114213483Y-110960335D01*
X114164808Y-110910210D01*
X114150500Y-110852386D01*
X114150500Y-107638015D01*
X114157020Y-107598336D01*
X114158045Y-107595301D01*
X114604104Y-106274618D01*
X114604104Y-93074618D01*
X114604104Y-93074617D01*
X114175661Y-92509073D01*
X114150869Y-92443750D01*
X114150500Y-92434195D01*
X114150500Y-89690003D01*
X114934508Y-89690003D01*
X114954352Y-89815300D01*
X114954352Y-89815301D01*
X114963730Y-89833705D01*
X115011950Y-89928342D01*
X115011952Y-89928344D01*
X115011954Y-89928347D01*
X115053708Y-89970101D01*
X115087193Y-90031424D01*
X115082209Y-90101116D01*
X115053708Y-90145463D01*
X115006187Y-90192983D01*
X114962318Y-90292335D01*
X114962318Y-90292337D01*
X114959500Y-90316625D01*
X114959500Y-90683365D01*
X114959502Y-90683388D01*
X114962317Y-90707659D01*
X114962318Y-90707662D01*
X115006186Y-90807015D01*
X115006187Y-90807016D01*
X115082984Y-90883813D01*
X115182338Y-90927682D01*
X115206627Y-90930500D01*
X115633372Y-90930499D01*
X115657662Y-90927682D01*
X115757016Y-90883813D01*
X115807319Y-90833510D01*
X115868642Y-90800025D01*
X115938334Y-90805009D01*
X115982681Y-90833510D01*
X116032984Y-90883813D01*
X116132338Y-90927682D01*
X116156627Y-90930500D01*
X116583372Y-90930499D01*
X116607662Y-90927682D01*
X116707016Y-90883813D01*
X116783813Y-90807016D01*
X116827682Y-90707662D01*
X116830500Y-90683373D01*
X116830499Y-90316628D01*
X116827682Y-90292338D01*
X116783813Y-90192984D01*
X116707016Y-90116187D01*
X116675606Y-90102318D01*
X116607663Y-90072318D01*
X116583373Y-90069500D01*
X116156634Y-90069500D01*
X116156611Y-90069502D01*
X116132340Y-90072317D01*
X116132337Y-90072318D01*
X116032984Y-90116186D01*
X115982680Y-90166490D01*
X115921357Y-90199974D01*
X115851665Y-90194989D01*
X115807320Y-90166490D01*
X115757019Y-90116190D01*
X115757016Y-90116187D01*
X115757012Y-90116185D01*
X115749421Y-90110985D01*
X115705239Y-90056858D01*
X115695500Y-90008686D01*
X115695500Y-89904237D01*
X115709016Y-89847941D01*
X115725646Y-89815304D01*
X115726486Y-89810000D01*
X115745492Y-89690003D01*
X115745492Y-89689996D01*
X115725647Y-89564699D01*
X115725646Y-89564696D01*
X115708812Y-89531658D01*
X115668050Y-89451658D01*
X115668048Y-89451656D01*
X115668047Y-89451654D01*
X115578347Y-89361954D01*
X115578344Y-89361952D01*
X115578342Y-89361950D01*
X115465304Y-89304354D01*
X115465303Y-89304353D01*
X115465300Y-89304352D01*
X115340003Y-89284508D01*
X115339997Y-89284508D01*
X115214699Y-89304352D01*
X115214698Y-89304352D01*
X115152093Y-89336252D01*
X115101658Y-89361950D01*
X115101657Y-89361951D01*
X115101652Y-89361954D01*
X115011954Y-89451652D01*
X115011951Y-89451657D01*
X115011950Y-89451658D01*
X114999802Y-89475500D01*
X114954352Y-89564698D01*
X114954352Y-89564699D01*
X114934508Y-89689996D01*
X114934508Y-89690003D01*
X114150500Y-89690003D01*
X114150500Y-89106517D01*
X115799500Y-89106517D01*
X115804837Y-89140212D01*
X115814354Y-89200304D01*
X115871326Y-89312117D01*
X115871952Y-89313345D01*
X115961652Y-89403045D01*
X115961654Y-89403046D01*
X115961658Y-89403050D01*
X116074694Y-89460645D01*
X116074698Y-89460647D01*
X116168475Y-89475499D01*
X116168481Y-89475500D01*
X116931518Y-89475499D01*
X117025304Y-89460646D01*
X117138342Y-89403050D01*
X117228050Y-89313342D01*
X117285646Y-89200304D01*
X117285646Y-89200302D01*
X117285647Y-89200301D01*
X117300499Y-89106524D01*
X117300500Y-89106519D01*
X117300499Y-87793482D01*
X117285646Y-87699696D01*
X117228050Y-87586658D01*
X117228046Y-87586654D01*
X117228045Y-87586652D01*
X117138347Y-87496954D01*
X117138344Y-87496952D01*
X117138342Y-87496950D01*
X117061517Y-87457805D01*
X117025301Y-87439352D01*
X116931524Y-87424500D01*
X116168482Y-87424500D01*
X116087519Y-87437323D01*
X116074696Y-87439354D01*
X115961658Y-87496950D01*
X115961657Y-87496951D01*
X115961652Y-87496954D01*
X115871954Y-87586652D01*
X115871951Y-87586657D01*
X115814352Y-87699698D01*
X115799500Y-87793475D01*
X115799500Y-89106517D01*
X114150500Y-89106517D01*
X114150500Y-86997635D01*
X114170185Y-86930596D01*
X114213477Y-86889690D01*
X114462887Y-86748694D01*
X114462886Y-86748694D01*
X114463675Y-86748248D01*
X114781063Y-86569405D01*
X114786408Y-86566567D01*
X115122766Y-86398557D01*
X115441396Y-86241100D01*
X115446548Y-86238703D01*
X115790733Y-86088306D01*
X115791450Y-86087996D01*
X115903449Y-86040003D01*
X120294508Y-86040003D01*
X120314352Y-86165300D01*
X120314352Y-86165301D01*
X120332805Y-86201517D01*
X120371950Y-86278342D01*
X120371952Y-86278344D01*
X120371954Y-86278347D01*
X120461652Y-86368045D01*
X120461654Y-86368046D01*
X120461658Y-86368050D01*
X120574696Y-86425646D01*
X120574697Y-86425646D01*
X120574699Y-86425647D01*
X120699997Y-86445492D01*
X120700000Y-86445492D01*
X120700003Y-86445492D01*
X120825300Y-86425647D01*
X120825301Y-86425647D01*
X120825302Y-86425646D01*
X120825304Y-86425646D01*
X120938342Y-86368050D01*
X120997362Y-86309030D01*
X123774272Y-86309030D01*
X123794116Y-86434327D01*
X123794116Y-86434328D01*
X123794118Y-86434331D01*
X123851714Y-86547369D01*
X123851716Y-86547371D01*
X123851717Y-86547373D01*
X123888180Y-86583835D01*
X123921666Y-86645158D01*
X123924500Y-86671517D01*
X123924500Y-86970380D01*
X123904815Y-87037419D01*
X123888182Y-87058061D01*
X123825384Y-87120859D01*
X123825381Y-87120863D01*
X123782270Y-87218499D01*
X123779500Y-87242375D01*
X123779500Y-87697615D01*
X123779502Y-87697638D01*
X123782269Y-87721495D01*
X123782269Y-87721498D01*
X123825380Y-87819135D01*
X123825383Y-87819139D01*
X123825384Y-87819141D01*
X123900859Y-87894616D01*
X123900862Y-87894617D01*
X123900863Y-87894618D01*
X123998499Y-87937729D01*
X123998500Y-87937729D01*
X123998502Y-87937730D01*
X124022377Y-87940500D01*
X124377622Y-87940499D01*
X124401498Y-87937730D01*
X124499135Y-87894619D01*
X124499136Y-87894618D01*
X124499141Y-87894616D01*
X124574616Y-87819141D01*
X124596566Y-87769430D01*
X124641651Y-87716054D01*
X124708438Y-87695526D01*
X124775720Y-87714364D01*
X124822136Y-87766587D01*
X124823434Y-87769430D01*
X124829182Y-87782449D01*
X124845384Y-87819141D01*
X124920859Y-87894616D01*
X124920862Y-87894617D01*
X124920863Y-87894618D01*
X125018499Y-87937729D01*
X125018500Y-87937729D01*
X125018502Y-87937730D01*
X125042377Y-87940500D01*
X125397622Y-87940499D01*
X125421498Y-87937730D01*
X125519135Y-87894619D01*
X125519136Y-87894618D01*
X125519141Y-87894616D01*
X125594616Y-87819141D01*
X125637730Y-87721498D01*
X125640500Y-87697623D01*
X125640499Y-87242378D01*
X125637730Y-87218502D01*
X125637729Y-87218499D01*
X125594619Y-87120864D01*
X125594617Y-87120861D01*
X125594616Y-87120859D01*
X125531818Y-87058061D01*
X125498334Y-86996737D01*
X125495500Y-86970380D01*
X125495500Y-86629344D01*
X125497883Y-86605151D01*
X125500897Y-86589999D01*
X125481898Y-86494486D01*
X125481296Y-86488375D01*
X125479515Y-86482506D01*
X125479515Y-86482505D01*
X125447326Y-86434331D01*
X125433994Y-86414378D01*
X125433992Y-86414376D01*
X125418624Y-86391376D01*
X125418621Y-86391373D01*
X125405775Y-86382790D01*
X125386985Y-86367369D01*
X125306969Y-86287353D01*
X125273484Y-86226030D01*
X125272181Y-86219099D01*
X125255646Y-86114696D01*
X125198050Y-86001658D01*
X125198046Y-86001654D01*
X125198045Y-86001652D01*
X125108347Y-85911954D01*
X125108344Y-85911952D01*
X125108342Y-85911950D01*
X124995304Y-85854354D01*
X124995303Y-85854353D01*
X124995300Y-85854352D01*
X124870003Y-85834508D01*
X124869997Y-85834508D01*
X124744699Y-85854352D01*
X124744698Y-85854352D01*
X124669337Y-85892751D01*
X124631658Y-85911950D01*
X124631657Y-85911951D01*
X124631655Y-85911951D01*
X124576700Y-85966907D01*
X124515376Y-86000391D01*
X124445685Y-85995406D01*
X124426855Y-85985300D01*
X124426801Y-85985408D01*
X124418107Y-85980978D01*
X124418106Y-85980977D01*
X124305068Y-85923381D01*
X124305067Y-85923380D01*
X124305064Y-85923379D01*
X124179767Y-85903535D01*
X124179761Y-85903535D01*
X124054463Y-85923379D01*
X124054462Y-85923379D01*
X124006062Y-85948041D01*
X123941422Y-85980977D01*
X123941421Y-85980978D01*
X123941416Y-85980981D01*
X123851718Y-86070679D01*
X123851715Y-86070684D01*
X123851714Y-86070685D01*
X123832515Y-86108364D01*
X123794116Y-86183725D01*
X123794116Y-86183726D01*
X123774272Y-86309023D01*
X123774272Y-86309030D01*
X120997362Y-86309030D01*
X121028050Y-86278342D01*
X121085646Y-86165304D01*
X121085646Y-86165302D01*
X121085647Y-86165301D01*
X121085647Y-86165300D01*
X121105492Y-86040003D01*
X121105492Y-86039996D01*
X121085647Y-85914699D01*
X121085647Y-85914698D01*
X121079959Y-85903535D01*
X121028050Y-85801658D01*
X121028046Y-85801654D01*
X121028045Y-85801652D01*
X120938347Y-85711954D01*
X120938344Y-85711952D01*
X120938342Y-85711950D01*
X120825304Y-85654354D01*
X120825303Y-85654353D01*
X120825300Y-85654352D01*
X120700003Y-85634508D01*
X120699997Y-85634508D01*
X120574699Y-85654352D01*
X120574698Y-85654352D01*
X120505985Y-85689364D01*
X120461658Y-85711950D01*
X120461657Y-85711951D01*
X120461652Y-85711954D01*
X120371954Y-85801652D01*
X120371951Y-85801657D01*
X120371950Y-85801658D01*
X120358295Y-85828457D01*
X120314352Y-85914698D01*
X120314352Y-85914699D01*
X120294508Y-86039996D01*
X120294508Y-86040003D01*
X115903449Y-86040003D01*
X116118055Y-85948041D01*
X116123065Y-85946024D01*
X116474526Y-85813459D01*
X116475259Y-85813187D01*
X116809214Y-85691015D01*
X116814009Y-85689372D01*
X117171869Y-85574976D01*
X117172825Y-85574678D01*
X117512989Y-85470727D01*
X117517453Y-85469456D01*
X117880522Y-85373603D01*
X117882105Y-85373199D01*
X118227320Y-85287823D01*
X118231511Y-85286865D01*
X118598930Y-85209767D01*
X118600943Y-85209364D01*
X118950312Y-85142783D01*
X118954142Y-85142119D01*
X119325092Y-85083947D01*
X119327516Y-85083594D01*
X119679848Y-85036031D01*
X119683338Y-85035612D01*
X120056826Y-84996526D01*
X120059577Y-84996272D01*
X120414093Y-84967832D01*
X120417174Y-84967626D01*
X120792103Y-84947742D01*
X120795377Y-84947613D01*
X121150703Y-84938401D01*
X121153577Y-84938360D01*
X121529007Y-84937720D01*
X121532590Y-84937768D01*
G37*
%TD.AperFunction*%
%TA.AperFunction,Conductor*%
G36*
X128481561Y-106455185D02*
G01*
X128502203Y-106471819D01*
X128628181Y-106597797D01*
X128661666Y-106659120D01*
X128664500Y-106685478D01*
X128664500Y-106715103D01*
X128644815Y-106782142D01*
X128592011Y-106827897D01*
X128551956Y-106836610D01*
X128551978Y-106836720D01*
X128545860Y-106837936D01*
X128540500Y-106839103D01*
X128539998Y-106839103D01*
X128432506Y-106860484D01*
X128432505Y-106860484D01*
X128364379Y-106906004D01*
X128364372Y-106906010D01*
X128181980Y-107088402D01*
X128120657Y-107121887D01*
X128050965Y-107116903D01*
X128038005Y-107111206D01*
X127985304Y-107084353D01*
X127985300Y-107084352D01*
X127860003Y-107064508D01*
X127859997Y-107064508D01*
X127734699Y-107084352D01*
X127734698Y-107084352D01*
X127670815Y-107116903D01*
X127621658Y-107141950D01*
X127621657Y-107141951D01*
X127621652Y-107141954D01*
X127531954Y-107231652D01*
X127531951Y-107231657D01*
X127531950Y-107231658D01*
X127524469Y-107246341D01*
X127474352Y-107344698D01*
X127474352Y-107344699D01*
X127454508Y-107469996D01*
X127454508Y-107470003D01*
X127474352Y-107595300D01*
X127474352Y-107595301D01*
X127492805Y-107631517D01*
X127531950Y-107708342D01*
X127531952Y-107708344D01*
X127531954Y-107708347D01*
X127621652Y-107798045D01*
X127621654Y-107798046D01*
X127621658Y-107798050D01*
X127734696Y-107855646D01*
X127734697Y-107855646D01*
X127743391Y-107860076D01*
X127741871Y-107863057D01*
X127785393Y-107892817D01*
X127812590Y-107957176D01*
X127800675Y-108026022D01*
X127777079Y-108058990D01*
X127502889Y-108333181D01*
X127441566Y-108366666D01*
X127415208Y-108369500D01*
X126149478Y-108369500D01*
X126082439Y-108349815D01*
X126036684Y-108297011D01*
X126026740Y-108227853D01*
X126055765Y-108164297D01*
X126061797Y-108157819D01*
X127747797Y-106471819D01*
X127809120Y-106438334D01*
X127835478Y-106435500D01*
X128414522Y-106435500D01*
X128481561Y-106455185D01*
G37*
%TD.AperFunction*%
%TA.AperFunction,Conductor*%
G36*
X122393334Y-105926188D02*
G01*
X122437681Y-105954689D01*
X122441496Y-105958504D01*
X122491278Y-105991767D01*
X122491281Y-105991767D01*
X122491282Y-105991768D01*
X122535177Y-106000500D01*
X122535180Y-106000500D01*
X122549866Y-106000500D01*
X122616905Y-106020185D01*
X122662660Y-106072989D01*
X122672604Y-106142147D01*
X122671484Y-106148688D01*
X122669592Y-106158201D01*
X122669592Y-106158204D01*
X122689032Y-106255940D01*
X122689033Y-106255942D01*
X122689034Y-106255943D01*
X122701771Y-106275006D01*
X122701772Y-106275007D01*
X122732755Y-106321376D01*
X122744399Y-106338803D01*
X122755168Y-106345998D01*
X122773957Y-106361419D01*
X123478580Y-107066042D01*
X123494001Y-107084832D01*
X123501197Y-107095602D01*
X123542668Y-107123311D01*
X123587474Y-107176922D01*
X123596183Y-107246247D01*
X123566029Y-107309275D01*
X123530075Y-107336898D01*
X123441659Y-107381949D01*
X123441655Y-107381951D01*
X123384080Y-107439527D01*
X123322756Y-107473011D01*
X123253065Y-107468026D01*
X123198024Y-107427331D01*
X123176333Y-107399063D01*
X123061337Y-107310823D01*
X123061336Y-107310822D01*
X123061334Y-107310821D01*
X122927424Y-107255355D01*
X122927422Y-107255354D01*
X122927421Y-107255354D01*
X122845001Y-107244503D01*
X122783713Y-107236434D01*
X122783711Y-107236434D01*
X122640003Y-107255354D01*
X122639999Y-107255355D01*
X122506089Y-107310821D01*
X122391091Y-107399063D01*
X122302849Y-107514061D01*
X122247383Y-107647971D01*
X122247382Y-107647975D01*
X122237177Y-107725492D01*
X122228462Y-107791684D01*
X122244838Y-107916073D01*
X122247382Y-107935392D01*
X122247383Y-107935396D01*
X122283689Y-108023048D01*
X122291158Y-108092517D01*
X122259882Y-108154996D01*
X122199793Y-108190648D01*
X122169128Y-108194500D01*
X120965479Y-108194500D01*
X120898440Y-108174815D01*
X120877798Y-108158181D01*
X120777913Y-108058296D01*
X120744428Y-107996973D01*
X120745946Y-107938052D01*
X120747728Y-107931501D01*
X120747730Y-107931498D01*
X120750500Y-107907623D01*
X120750499Y-107452378D01*
X120747730Y-107428502D01*
X120747213Y-107427330D01*
X120704619Y-107330864D01*
X120704617Y-107330861D01*
X120704616Y-107330859D01*
X120661819Y-107288062D01*
X120628334Y-107226739D01*
X120625500Y-107200381D01*
X120625500Y-106042870D01*
X120645185Y-105975831D01*
X120661819Y-105955189D01*
X120662319Y-105954689D01*
X120723642Y-105921204D01*
X120793334Y-105926188D01*
X120837681Y-105954689D01*
X120841496Y-105958504D01*
X120891278Y-105991767D01*
X120891281Y-105991767D01*
X120891282Y-105991768D01*
X120935177Y-106000500D01*
X120935180Y-106000500D01*
X121364822Y-106000500D01*
X121408717Y-105991768D01*
X121408717Y-105991767D01*
X121408722Y-105991767D01*
X121458504Y-105958504D01*
X121458506Y-105958500D01*
X121462319Y-105954689D01*
X121523642Y-105921204D01*
X121593334Y-105926188D01*
X121637681Y-105954689D01*
X121641496Y-105958504D01*
X121691273Y-105991764D01*
X121691274Y-105991764D01*
X121691278Y-105991767D01*
X121691282Y-105991767D01*
X121697209Y-105994223D01*
X121751612Y-106038065D01*
X121773676Y-106104359D01*
X121756396Y-106172058D01*
X121706051Y-106219268D01*
X121596659Y-106275007D01*
X121596652Y-106275012D01*
X121506954Y-106364710D01*
X121506951Y-106364715D01*
X121506950Y-106364716D01*
X121501556Y-106375302D01*
X121449352Y-106477756D01*
X121449352Y-106477757D01*
X121429508Y-106603054D01*
X121429508Y-106603061D01*
X121449352Y-106728358D01*
X121449352Y-106728359D01*
X121464518Y-106758123D01*
X121506950Y-106841400D01*
X121506952Y-106841402D01*
X121506954Y-106841405D01*
X121596652Y-106931103D01*
X121596654Y-106931104D01*
X121596658Y-106931108D01*
X121709696Y-106988704D01*
X121709697Y-106988704D01*
X121709699Y-106988705D01*
X121834997Y-107008550D01*
X121835000Y-107008550D01*
X121835003Y-107008550D01*
X121960300Y-106988705D01*
X121960301Y-106988705D01*
X121960302Y-106988704D01*
X121960304Y-106988704D01*
X122073342Y-106931108D01*
X122163050Y-106841400D01*
X122220646Y-106728362D01*
X122220646Y-106728360D01*
X122220647Y-106728359D01*
X122220647Y-106728358D01*
X122240492Y-106603061D01*
X122240492Y-106603054D01*
X122220647Y-106477757D01*
X122220647Y-106477756D01*
X122217622Y-106471819D01*
X122163050Y-106364716D01*
X122163046Y-106364712D01*
X122163045Y-106364710D01*
X122073347Y-106275012D01*
X122073344Y-106275010D01*
X122073342Y-106275008D01*
X121994791Y-106234984D01*
X121943996Y-106187010D01*
X121927201Y-106119189D01*
X121949739Y-106053054D01*
X122004454Y-106009603D01*
X122051087Y-106000500D01*
X122164822Y-106000500D01*
X122208717Y-105991768D01*
X122208717Y-105991767D01*
X122208722Y-105991767D01*
X122258504Y-105958504D01*
X122258506Y-105958500D01*
X122262319Y-105954689D01*
X122323642Y-105921204D01*
X122393334Y-105926188D01*
G37*
%TD.AperFunction*%
%TA.AperFunction,Conductor*%
G36*
X121251561Y-96105185D02*
G01*
X121272203Y-96121819D01*
X121547370Y-96396986D01*
X121562790Y-96415775D01*
X121571376Y-96428624D01*
X121589316Y-96440611D01*
X121589324Y-96440617D01*
X121614582Y-96457494D01*
X121616595Y-96458839D01*
X121638310Y-96473348D01*
X121683116Y-96526958D01*
X121691825Y-96596283D01*
X121661672Y-96659311D01*
X121602230Y-96696032D01*
X121591111Y-96698091D01*
X121591155Y-96698311D01*
X121541282Y-96708231D01*
X121541275Y-96708234D01*
X121491496Y-96741495D01*
X121491495Y-96741496D01*
X121458234Y-96791275D01*
X121453558Y-96802564D01*
X121451362Y-96801654D01*
X121426730Y-96848742D01*
X121366014Y-96883315D01*
X121296244Y-96879574D01*
X121239573Y-96838706D01*
X121222808Y-96801997D01*
X121221442Y-96802564D01*
X121216767Y-96791281D01*
X121216767Y-96791278D01*
X121183504Y-96741496D01*
X121181056Y-96739860D01*
X121133724Y-96708234D01*
X121133717Y-96708231D01*
X121089822Y-96699500D01*
X121089820Y-96699500D01*
X119610180Y-96699500D01*
X119610178Y-96699500D01*
X119566282Y-96708231D01*
X119566275Y-96708234D01*
X119516496Y-96741495D01*
X119516495Y-96741496D01*
X119483234Y-96791275D01*
X119478558Y-96802564D01*
X119476362Y-96801654D01*
X119451730Y-96848742D01*
X119391014Y-96883315D01*
X119321244Y-96879574D01*
X119264573Y-96838706D01*
X119247808Y-96801997D01*
X119246442Y-96802564D01*
X119241767Y-96791281D01*
X119241767Y-96791278D01*
X119208504Y-96741496D01*
X119206056Y-96739860D01*
X119158724Y-96708234D01*
X119158717Y-96708231D01*
X119114822Y-96699500D01*
X119114820Y-96699500D01*
X118181161Y-96699500D01*
X118114122Y-96679815D01*
X118068367Y-96627011D01*
X118058423Y-96557853D01*
X118058688Y-96556103D01*
X118075492Y-96450001D01*
X118075492Y-96449994D01*
X118055647Y-96324697D01*
X118055647Y-96324696D01*
X118046634Y-96307007D01*
X118025634Y-96265793D01*
X118012739Y-96197126D01*
X118039015Y-96132385D01*
X118096122Y-96092128D01*
X118136120Y-96085500D01*
X121184522Y-96085500D01*
X121251561Y-96105185D01*
G37*
%TD.AperFunction*%
%TA.AperFunction,Conductor*%
G36*
X120836561Y-92280185D02*
G01*
X120857203Y-92296819D01*
X121448203Y-92887819D01*
X121481688Y-92949142D01*
X121476704Y-93018834D01*
X121434832Y-93074767D01*
X121369368Y-93099184D01*
X121360522Y-93099500D01*
X120935178Y-93099500D01*
X120891282Y-93108231D01*
X120891275Y-93108234D01*
X120841496Y-93141495D01*
X120837681Y-93145311D01*
X120776358Y-93178796D01*
X120706666Y-93173812D01*
X120662319Y-93145311D01*
X120658503Y-93141495D01*
X120608724Y-93108234D01*
X120608717Y-93108231D01*
X120564822Y-93099500D01*
X120564820Y-93099500D01*
X120135180Y-93099500D01*
X120135178Y-93099500D01*
X120091282Y-93108231D01*
X120091275Y-93108234D01*
X120041496Y-93141495D01*
X120037681Y-93145311D01*
X119976358Y-93178796D01*
X119906666Y-93173812D01*
X119862319Y-93145311D01*
X119861819Y-93144811D01*
X119828334Y-93083488D01*
X119825500Y-93057130D01*
X119825500Y-92829344D01*
X119827883Y-92805151D01*
X119830897Y-92790000D01*
X119830897Y-92789998D01*
X119823730Y-92753967D01*
X119809516Y-92682509D01*
X119809515Y-92682506D01*
X119809515Y-92682505D01*
X119781471Y-92640534D01*
X119763994Y-92614378D01*
X119763992Y-92614376D01*
X119748624Y-92591376D01*
X119748621Y-92591374D01*
X119748621Y-92591373D01*
X119735775Y-92582790D01*
X119716985Y-92567369D01*
X119621797Y-92472181D01*
X119588312Y-92410858D01*
X119593296Y-92341166D01*
X119635168Y-92285233D01*
X119700632Y-92260816D01*
X119709478Y-92260500D01*
X120769522Y-92260500D01*
X120836561Y-92280185D01*
G37*
%TD.AperFunction*%
%TD*%
M02*
