%TF.GenerationSoftware,KiCad,Pcbnew,7.0.10*%
%TF.CreationDate,2025-12-17T19:57:45-05:00*%
%TF.ProjectId,MiniBot,4d696e69-426f-4742-9e6b-696361645f70,rev?*%
%TF.SameCoordinates,Original*%
%TF.FileFunction,Paste,Bot*%
%TF.FilePolarity,Positive*%
%FSLAX46Y46*%
G04 Gerber Fmt 4.6, Leading zero omitted, Abs format (unit mm)*
G04 Created by KiCad (PCBNEW 7.0.10) date 2025-12-17 19:57:45*
%MOMM*%
%LPD*%
G01*
G04 APERTURE LIST*
G04 Aperture macros list*
%AMRoundRect*
0 Rectangle with rounded corners*
0 $1 Rounding radius*
0 $2 $3 $4 $5 $6 $7 $8 $9 X,Y pos of 4 corners*
0 Add a 4 corners polygon primitive as box body*
4,1,4,$2,$3,$4,$5,$6,$7,$8,$9,$2,$3,0*
0 Add four circle primitives for the rounded corners*
1,1,$1+$1,$2,$3*
1,1,$1+$1,$4,$5*
1,1,$1+$1,$6,$7*
1,1,$1+$1,$8,$9*
0 Add four rect primitives between the rounded corners*
20,1,$1+$1,$2,$3,$4,$5,0*
20,1,$1+$1,$4,$5,$6,$7,0*
20,1,$1+$1,$6,$7,$8,$9,0*
20,1,$1+$1,$8,$9,$2,$3,0*%
G04 Aperture macros list end*
%ADD10R,0.400000X0.800000*%
%ADD11R,0.800000X0.400000*%
%ADD12R,1.450000X1.450000*%
%ADD13R,0.700000X0.700000*%
%ADD14R,1.150000X0.580000*%
%ADD15R,1.150000X0.280000*%
%ADD16R,1.500000X1.500000*%
%ADD17C,0.226000*%
%ADD18RoundRect,0.135000X-0.185000X0.135000X-0.185000X-0.135000X0.185000X-0.135000X0.185000X0.135000X0*%
%ADD19RoundRect,0.135000X0.135000X0.185000X-0.135000X0.185000X-0.135000X-0.185000X0.135000X-0.185000X0*%
%ADD20RoundRect,0.140000X-0.140000X-0.170000X0.140000X-0.170000X0.140000X0.170000X-0.140000X0.170000X0*%
%ADD21RoundRect,0.140000X0.170000X-0.140000X0.170000X0.140000X-0.170000X0.140000X-0.170000X-0.140000X0*%
%ADD22RoundRect,0.135000X-0.135000X-0.185000X0.135000X-0.185000X0.135000X0.185000X-0.135000X0.185000X0*%
%ADD23RoundRect,0.140000X-0.170000X0.140000X-0.170000X-0.140000X0.170000X-0.140000X0.170000X0.140000X0*%
%ADD24RoundRect,0.135000X0.185000X-0.135000X0.185000X0.135000X-0.185000X0.135000X-0.185000X-0.135000X0*%
G04 APERTURE END LIST*
D10*
%TO.C,U1*%
X116350000Y-93650000D03*
X117150000Y-93650000D03*
X117950000Y-93650000D03*
X118750000Y-93650000D03*
X119550000Y-93650000D03*
X120350000Y-93650000D03*
X121150000Y-93650000D03*
X121950000Y-93650000D03*
X122750000Y-93650000D03*
X123550000Y-93650000D03*
X124350000Y-93650000D03*
D11*
X125250000Y-94750000D03*
X125250000Y-95550000D03*
X125250000Y-96350000D03*
X125250000Y-97150000D03*
X125250000Y-97950000D03*
X125250000Y-98750000D03*
X125250000Y-99550000D03*
X125250000Y-100350000D03*
X125250000Y-101150000D03*
X125250000Y-101950000D03*
X125250000Y-102750000D03*
X125250000Y-103550000D03*
X125250000Y-104350000D03*
D10*
X124350000Y-105450000D03*
X123550000Y-105450000D03*
X122750000Y-105450000D03*
X121950000Y-105450000D03*
X121150000Y-105450000D03*
X120350000Y-105450000D03*
X119550000Y-105450000D03*
X118750000Y-105450000D03*
X117950000Y-105450000D03*
X117150000Y-105450000D03*
X116350000Y-105450000D03*
D11*
X115450000Y-104350000D03*
X115450000Y-103550000D03*
X115450000Y-102750000D03*
X115450000Y-101950000D03*
X115450000Y-101150000D03*
X115450000Y-100350000D03*
X115450000Y-99550000D03*
X115450000Y-98750000D03*
X115450000Y-97950000D03*
X115450000Y-97150000D03*
X115450000Y-96350000D03*
X115450000Y-95550000D03*
X115450000Y-94750000D03*
D12*
X120350000Y-99550000D03*
D13*
X115450000Y-105450000D03*
X125250000Y-105450000D03*
X125250000Y-93650000D03*
X115450000Y-93650000D03*
D12*
X120350000Y-97575000D03*
X122325000Y-97575000D03*
X122325000Y-99550000D03*
X122325000Y-101525000D03*
X120350000Y-101525000D03*
X118375000Y-101525000D03*
X118375000Y-99550000D03*
X118375000Y-97575000D03*
%TD*%
D14*
%TO.C,J3*%
X128525000Y-95650000D03*
X128525000Y-96450000D03*
D15*
X128525000Y-97600000D03*
X128525000Y-98600000D03*
X128525000Y-99100000D03*
X128525000Y-100100000D03*
D14*
X128525000Y-101250000D03*
X128525000Y-102050000D03*
D15*
X128525000Y-100600000D03*
X128525000Y-99600000D03*
X128525000Y-98100000D03*
X128525000Y-97100000D03*
D16*
X129100000Y-93730000D03*
X129100000Y-103970000D03*
X133030000Y-93730000D03*
X133030000Y-103970000D03*
%TD*%
D17*
%TO.C,IC1*%
X128540000Y-107120000D03*
X128940000Y-107120000D03*
X128540000Y-106720000D03*
X128940000Y-106720000D03*
%TD*%
D18*
%TO.C,R10*%
X123780000Y-90470000D03*
X123780000Y-91490000D03*
%TD*%
D19*
%TO.C,R9*%
X131130000Y-106200000D03*
X130110000Y-106200000D03*
%TD*%
D20*
%TO.C,C5*%
X130140000Y-107130000D03*
X131100000Y-107130000D03*
%TD*%
D21*
%TO.C,C6*%
X124740000Y-91490000D03*
X124740000Y-90530000D03*
%TD*%
%TO.C,C3*%
X119610000Y-91400000D03*
X119610000Y-90440000D03*
%TD*%
D22*
%TO.C,R1*%
X118450000Y-108650000D03*
X119470000Y-108650000D03*
%TD*%
D19*
%TO.C,R13*%
X125220000Y-87470000D03*
X124200000Y-87470000D03*
%TD*%
D23*
%TO.C,C1*%
X116370000Y-90500000D03*
X116370000Y-91460000D03*
%TD*%
D18*
%TO.C,R3*%
X118660000Y-90430000D03*
X118660000Y-91450000D03*
%TD*%
D19*
%TO.C,R2*%
X121350000Y-107680000D03*
X120330000Y-107680000D03*
%TD*%
%TO.C,R5*%
X127680000Y-91420000D03*
X126660000Y-91420000D03*
%TD*%
D21*
%TO.C,C10*%
X120540000Y-91400000D03*
X120540000Y-90440000D03*
%TD*%
D24*
%TO.C,R11*%
X125690000Y-91520000D03*
X125690000Y-90500000D03*
%TD*%
D20*
%TO.C,C8*%
X123800000Y-89590000D03*
X124760000Y-89590000D03*
%TD*%
D18*
%TO.C,R6*%
X117720000Y-90440000D03*
X117720000Y-91460000D03*
%TD*%
D21*
%TO.C,C2*%
X115420000Y-91460000D03*
X115420000Y-90500000D03*
%TD*%
M02*
