%TF.GenerationSoftware,KiCad,Pcbnew,7.0.10*%
%TF.CreationDate,2025-12-17T19:57:45-05:00*%
%TF.ProjectId,MiniBot,4d696e69-426f-4742-9e6b-696361645f70,rev?*%
%TF.SameCoordinates,Original*%
%TF.FileFunction,Paste,Top*%
%TF.FilePolarity,Positive*%
%FSLAX46Y46*%
G04 Gerber Fmt 4.6, Leading zero omitted, Abs format (unit mm)*
G04 Created by KiCad (PCBNEW 7.0.10) date 2025-12-17 19:57:45*
%MOMM*%
%LPD*%
G01*
G04 APERTURE LIST*
G04 Aperture macros list*
%AMRoundRect*
0 Rectangle with rounded corners*
0 $1 Rounding radius*
0 $2 $3 $4 $5 $6 $7 $8 $9 X,Y pos of 4 corners*
0 Add a 4 corners polygon primitive as box body*
4,1,4,$2,$3,$4,$5,$6,$7,$8,$9,$2,$3,0*
0 Add four circle primitives for the rounded corners*
1,1,$1+$1,$2,$3*
1,1,$1+$1,$4,$5*
1,1,$1+$1,$6,$7*
1,1,$1+$1,$8,$9*
0 Add four rect primitives between the rounded corners*
20,1,$1+$1,$2,$3,$4,$5,0*
20,1,$1+$1,$4,$5,$6,$7,0*
20,1,$1+$1,$6,$7,$8,$9,0*
20,1,$1+$1,$8,$9,$2,$3,0*%
G04 Aperture macros list end*
%ADD10R,0.550000X1.500000*%
%ADD11R,1.500000X0.550000*%
%ADD12R,1.500000X0.700000*%
%ADD13R,0.800000X1.000000*%
%ADD14RoundRect,0.140000X-0.170000X0.140000X-0.170000X-0.140000X0.170000X-0.140000X0.170000X0.140000X0*%
%ADD15RoundRect,0.140000X0.170000X-0.140000X0.170000X0.140000X-0.170000X0.140000X-0.170000X-0.140000X0*%
%ADD16R,0.280000X0.800000*%
%ADD17R,1.300000X0.700000*%
%ADD18RoundRect,0.135000X-0.135000X-0.185000X0.135000X-0.185000X0.135000X0.185000X-0.135000X0.185000X0*%
%ADD19RoundRect,0.135000X-0.185000X0.135000X-0.185000X-0.135000X0.185000X-0.135000X0.185000X0.135000X0*%
%ADD20RoundRect,0.150000X-0.150000X0.512500X-0.150000X-0.512500X0.150000X-0.512500X0.150000X0.512500X0*%
%ADD21RoundRect,0.135000X0.135000X0.185000X-0.135000X0.185000X-0.135000X-0.185000X0.135000X-0.185000X0*%
%ADD22RoundRect,0.140000X-0.140000X-0.170000X0.140000X-0.170000X0.140000X0.170000X-0.140000X0.170000X0*%
%ADD23RoundRect,0.150000X-0.150000X-0.625000X0.150000X-0.625000X0.150000X0.625000X-0.150000X0.625000X0*%
%ADD24RoundRect,0.250000X-0.350000X-0.650000X0.350000X-0.650000X0.350000X0.650000X-0.350000X0.650000X0*%
%ADD25RoundRect,0.147500X-0.172500X0.147500X-0.172500X-0.147500X0.172500X-0.147500X0.172500X0.147500X0*%
%ADD26RoundRect,0.135000X0.185000X-0.135000X0.185000X0.135000X-0.185000X0.135000X-0.185000X-0.135000X0*%
%ADD27RoundRect,0.182500X-0.182500X-0.182500X0.182500X-0.182500X0.182500X0.182500X-0.182500X0.182500X0*%
%ADD28RoundRect,0.062500X-0.325000X-0.062500X0.325000X-0.062500X0.325000X0.062500X-0.325000X0.062500X0*%
%ADD29RoundRect,0.062500X-0.062500X-0.325000X0.062500X-0.325000X0.062500X0.325000X-0.062500X0.325000X0*%
%ADD30RoundRect,0.140000X0.140000X0.170000X-0.140000X0.170000X-0.140000X-0.170000X0.140000X-0.170000X0*%
%ADD31RoundRect,0.218750X-0.218750X-0.381250X0.218750X-0.381250X0.218750X0.381250X-0.218750X0.381250X0*%
G04 APERTURE END LIST*
D10*
%TO.C,S3*%
X128895000Y-106080000D03*
X132145000Y-106080000D03*
%TD*%
D11*
%TO.C,S2*%
X125950000Y-92010000D03*
X125950000Y-95260000D03*
%TD*%
D12*
%TO.C,S1*%
X131100000Y-101175000D03*
X131100000Y-98175000D03*
X131100000Y-96675000D03*
D13*
X131750000Y-102575000D03*
X133950000Y-102575000D03*
X133950000Y-95275000D03*
X131750000Y-95275000D03*
%TD*%
D14*
%TO.C,C21*%
X123610000Y-104978750D03*
X123610000Y-105938750D03*
%TD*%
D15*
%TO.C,C16*%
X117430000Y-99860000D03*
X117430000Y-98900000D03*
%TD*%
D16*
%TO.C,IC2*%
X123450000Y-92100000D03*
X122950000Y-92100000D03*
X122450000Y-92100000D03*
X121950000Y-92100000D03*
X121950000Y-94100000D03*
X122450000Y-94100000D03*
X122950000Y-94100000D03*
X123450000Y-94100000D03*
D17*
X122700000Y-93100000D03*
%TD*%
D18*
%TO.C,R8*%
X121500000Y-99060000D03*
X122520000Y-99060000D03*
%TD*%
D19*
%TO.C,R22*%
X126170000Y-103368750D03*
X126170000Y-104388750D03*
%TD*%
%TO.C,R19*%
X115430000Y-104990000D03*
X115430000Y-106010000D03*
%TD*%
D20*
%TO.C,U3*%
X123650000Y-86375000D03*
X122700000Y-86375000D03*
X121750000Y-86375000D03*
X121750000Y-88650000D03*
X123650000Y-88650000D03*
%TD*%
D21*
%TO.C,R15*%
X128180000Y-99190000D03*
X127160000Y-99190000D03*
%TD*%
D18*
%TO.C,R14*%
X127150000Y-98250000D03*
X128170000Y-98250000D03*
%TD*%
D19*
%TO.C,R17*%
X130575000Y-92265000D03*
X130575000Y-93285000D03*
%TD*%
D22*
%TO.C,C9*%
X127210000Y-97320000D03*
X128170000Y-97320000D03*
%TD*%
D19*
%TO.C,R23*%
X121910000Y-104988750D03*
X121910000Y-106008750D03*
%TD*%
D23*
%TO.C,J1*%
X117225000Y-111000000D03*
X118225000Y-111000000D03*
X119225000Y-111000000D03*
X120225000Y-111000000D03*
X121225000Y-111000000D03*
X122225000Y-111000000D03*
X123225000Y-111000000D03*
X124225000Y-111000000D03*
D24*
X115925000Y-108475000D03*
X125525000Y-108475000D03*
%TD*%
D25*
%TO.C,D1*%
X131550000Y-92290000D03*
X131550000Y-93260000D03*
%TD*%
D15*
%TO.C,C19*%
X125560000Y-99860000D03*
X125560000Y-98900000D03*
%TD*%
%TO.C,C15*%
X118390000Y-99870000D03*
X118390000Y-98910000D03*
%TD*%
%TO.C,C7*%
X121640000Y-96160000D03*
X121640000Y-95200000D03*
%TD*%
D26*
%TO.C,R24*%
X119700000Y-100980000D03*
X119700000Y-99960000D03*
%TD*%
%TO.C,R25*%
X127220000Y-102030000D03*
X127220000Y-101010000D03*
%TD*%
%TO.C,R20*%
X128170000Y-102030000D03*
X128170000Y-101010000D03*
%TD*%
D27*
%TO.C,U4*%
X116640000Y-101980000D03*
X116640000Y-102880000D03*
X117540000Y-101980000D03*
X117540000Y-102880000D03*
D28*
X115602500Y-101680000D03*
X115602500Y-102180000D03*
X115602500Y-102680000D03*
X115602500Y-103180000D03*
D29*
X116340000Y-103917500D03*
X116840000Y-103917500D03*
X117340000Y-103917500D03*
X117840000Y-103917500D03*
D28*
X118577500Y-103180000D03*
X118577500Y-102680000D03*
X118577500Y-102180000D03*
X118577500Y-101680000D03*
D29*
X117840000Y-100942500D03*
X117340000Y-100942500D03*
X116840000Y-100942500D03*
X116340000Y-100942500D03*
%TD*%
D15*
%TO.C,C20*%
X124600000Y-99850000D03*
X124600000Y-98890000D03*
%TD*%
D30*
%TO.C,C22*%
X128135000Y-100125000D03*
X127175000Y-100125000D03*
%TD*%
%TO.C,C18*%
X120615000Y-99075000D03*
X119655000Y-99075000D03*
%TD*%
D19*
%TO.C,R18*%
X118820000Y-105060000D03*
X118820000Y-106080000D03*
%TD*%
D14*
%TO.C,C17*%
X117130000Y-104980000D03*
X117130000Y-105940000D03*
%TD*%
D31*
%TO.C,L1*%
X121725000Y-90575000D03*
X123850000Y-90575000D03*
%TD*%
D18*
%TO.C,R7*%
X119640000Y-98140000D03*
X120660000Y-98140000D03*
%TD*%
D27*
%TO.C,U5*%
X123120000Y-101978750D03*
X123120000Y-102878750D03*
X124020000Y-101978750D03*
X124020000Y-102878750D03*
D28*
X122082500Y-101678750D03*
X122082500Y-102178750D03*
X122082500Y-102678750D03*
X122082500Y-103178750D03*
D29*
X122820000Y-103916250D03*
X123320000Y-103916250D03*
X123820000Y-103916250D03*
X124320000Y-103916250D03*
D28*
X125057500Y-103178750D03*
X125057500Y-102678750D03*
X125057500Y-102178750D03*
X125057500Y-101678750D03*
D29*
X124320000Y-100941250D03*
X123820000Y-100941250D03*
X123320000Y-100941250D03*
X122820000Y-100941250D03*
%TD*%
D22*
%TO.C,C23*%
X122540000Y-95810000D03*
X123500000Y-95810000D03*
%TD*%
%TO.C,C4*%
X121510000Y-98130000D03*
X122470000Y-98130000D03*
%TD*%
D19*
%TO.C,R12*%
X125020000Y-89260000D03*
X125020000Y-90280000D03*
%TD*%
D26*
%TO.C,R16*%
X120650000Y-100980000D03*
X120650000Y-99960000D03*
%TD*%
D25*
%TO.C,D2*%
X124990000Y-87285000D03*
X124990000Y-88255000D03*
%TD*%
M02*
