%TF.GenerationSoftware,KiCad,Pcbnew,7.0.10*%
%TF.CreationDate,2025-12-17T19:57:45-05:00*%
%TF.ProjectId,MiniBot,4d696e69-426f-4742-9e6b-696361645f70,rev?*%
%TF.SameCoordinates,Original*%
%TF.FileFunction,Copper,L1,Top*%
%TF.FilePolarity,Positive*%
%FSLAX46Y46*%
G04 Gerber Fmt 4.6, Leading zero omitted, Abs format (unit mm)*
G04 Created by KiCad (PCBNEW 7.0.10) date 2025-12-17 19:57:45*
%MOMM*%
%LPD*%
G01*
G04 APERTURE LIST*
G04 Aperture macros list*
%AMRoundRect*
0 Rectangle with rounded corners*
0 $1 Rounding radius*
0 $2 $3 $4 $5 $6 $7 $8 $9 X,Y pos of 4 corners*
0 Add a 4 corners polygon primitive as box body*
4,1,4,$2,$3,$4,$5,$6,$7,$8,$9,$2,$3,0*
0 Add four circle primitives for the rounded corners*
1,1,$1+$1,$2,$3*
1,1,$1+$1,$4,$5*
1,1,$1+$1,$6,$7*
1,1,$1+$1,$8,$9*
0 Add four rect primitives between the rounded corners*
20,1,$1+$1,$2,$3,$4,$5,0*
20,1,$1+$1,$4,$5,$6,$7,0*
20,1,$1+$1,$6,$7,$8,$9,0*
20,1,$1+$1,$8,$9,$2,$3,0*%
G04 Aperture macros list end*
%TA.AperFunction,SMDPad,CuDef*%
%ADD10R,0.550000X1.500000*%
%TD*%
%TA.AperFunction,SMDPad,CuDef*%
%ADD11R,1.500000X0.550000*%
%TD*%
%TA.AperFunction,SMDPad,CuDef*%
%ADD12R,1.500000X0.700000*%
%TD*%
%TA.AperFunction,SMDPad,CuDef*%
%ADD13R,0.800000X1.000000*%
%TD*%
%TA.AperFunction,SMDPad,CuDef*%
%ADD14RoundRect,0.140000X-0.170000X0.140000X-0.170000X-0.140000X0.170000X-0.140000X0.170000X0.140000X0*%
%TD*%
%TA.AperFunction,SMDPad,CuDef*%
%ADD15RoundRect,0.140000X0.170000X-0.140000X0.170000X0.140000X-0.170000X0.140000X-0.170000X-0.140000X0*%
%TD*%
%TA.AperFunction,SMDPad,CuDef*%
%ADD16R,0.280000X0.800000*%
%TD*%
%TA.AperFunction,SMDPad,CuDef*%
%ADD17R,1.300000X0.700000*%
%TD*%
%TA.AperFunction,SMDPad,CuDef*%
%ADD18RoundRect,0.135000X-0.135000X-0.185000X0.135000X-0.185000X0.135000X0.185000X-0.135000X0.185000X0*%
%TD*%
%TA.AperFunction,SMDPad,CuDef*%
%ADD19RoundRect,0.135000X-0.185000X0.135000X-0.185000X-0.135000X0.185000X-0.135000X0.185000X0.135000X0*%
%TD*%
%TA.AperFunction,SMDPad,CuDef*%
%ADD20RoundRect,0.150000X-0.150000X0.512500X-0.150000X-0.512500X0.150000X-0.512500X0.150000X0.512500X0*%
%TD*%
%TA.AperFunction,SMDPad,CuDef*%
%ADD21RoundRect,0.135000X0.135000X0.185000X-0.135000X0.185000X-0.135000X-0.185000X0.135000X-0.185000X0*%
%TD*%
%TA.AperFunction,SMDPad,CuDef*%
%ADD22RoundRect,0.140000X-0.140000X-0.170000X0.140000X-0.170000X0.140000X0.170000X-0.140000X0.170000X0*%
%TD*%
%TA.AperFunction,SMDPad,CuDef*%
%ADD23RoundRect,0.150000X-0.150000X-0.625000X0.150000X-0.625000X0.150000X0.625000X-0.150000X0.625000X0*%
%TD*%
%TA.AperFunction,SMDPad,CuDef*%
%ADD24RoundRect,0.250000X-0.350000X-0.650000X0.350000X-0.650000X0.350000X0.650000X-0.350000X0.650000X0*%
%TD*%
%TA.AperFunction,SMDPad,CuDef*%
%ADD25RoundRect,0.147500X-0.172500X0.147500X-0.172500X-0.147500X0.172500X-0.147500X0.172500X0.147500X0*%
%TD*%
%TA.AperFunction,ComponentPad*%
%ADD26RoundRect,0.250000X-0.350000X-0.625000X0.350000X-0.625000X0.350000X0.625000X-0.350000X0.625000X0*%
%TD*%
%TA.AperFunction,ComponentPad*%
%ADD27O,1.200000X1.750000*%
%TD*%
%TA.AperFunction,SMDPad,CuDef*%
%ADD28RoundRect,0.135000X0.185000X-0.135000X0.185000X0.135000X-0.185000X0.135000X-0.185000X-0.135000X0*%
%TD*%
%TA.AperFunction,SMDPad,CuDef*%
%ADD29RoundRect,0.062500X-0.325000X-0.062500X0.325000X-0.062500X0.325000X0.062500X-0.325000X0.062500X0*%
%TD*%
%TA.AperFunction,SMDPad,CuDef*%
%ADD30RoundRect,0.062500X-0.062500X-0.325000X0.062500X-0.325000X0.062500X0.325000X-0.062500X0.325000X0*%
%TD*%
%TA.AperFunction,SMDPad,CuDef*%
%ADD31R,1.800000X1.800000*%
%TD*%
%TA.AperFunction,SMDPad,CuDef*%
%ADD32RoundRect,0.140000X0.140000X0.170000X-0.140000X0.170000X-0.140000X-0.170000X0.140000X-0.170000X0*%
%TD*%
%TA.AperFunction,SMDPad,CuDef*%
%ADD33RoundRect,0.218750X-0.218750X-0.381250X0.218750X-0.381250X0.218750X0.381250X-0.218750X0.381250X0*%
%TD*%
%TA.AperFunction,ViaPad*%
%ADD34C,0.500000*%
%TD*%
%TA.AperFunction,ViaPad*%
%ADD35C,0.800000*%
%TD*%
%TA.AperFunction,Conductor*%
%ADD36C,0.250000*%
%TD*%
%TA.AperFunction,Conductor*%
%ADD37C,0.500000*%
%TD*%
%TA.AperFunction,Conductor*%
%ADD38C,0.750000*%
%TD*%
G04 APERTURE END LIST*
D10*
%TO.P,S3,A1,NO*%
%TO.N,/GPIO9*%
X128895000Y-106080000D03*
%TO.P,S3,A2,COM*%
%TO.N,GND*%
X132145000Y-106080000D03*
%TD*%
D11*
%TO.P,S2,A1,NO*%
%TO.N,/RST*%
X125950000Y-92010000D03*
%TO.P,S2,A2,COM*%
%TO.N,GND*%
X125950000Y-95260000D03*
%TD*%
D12*
%TO.P,S1,1,NC*%
%TO.N,+5V*%
X131100000Y-101175000D03*
%TO.P,S1,2,COM*%
%TO.N,VDC*%
X131100000Y-98175000D03*
%TO.P,S1,3,NO*%
%TO.N,+BATT*%
X131100000Y-96675000D03*
D13*
%TO.P,S1,MP1,MP1*%
%TO.N,unconnected-(S1-PadMP1)*%
X131750000Y-102575000D03*
%TO.P,S1,MP2,MP2*%
%TO.N,unconnected-(S1-PadMP2)*%
X133950000Y-102575000D03*
%TO.P,S1,MP3,MP3*%
%TO.N,unconnected-(S1-PadMP3)*%
X133950000Y-95275000D03*
%TO.P,S1,MP4,MP4*%
%TO.N,unconnected-(S1-PadMP4)*%
X131750000Y-95275000D03*
%TD*%
D14*
%TO.P,C21,1*%
%TO.N,VDC*%
X123610000Y-104978750D03*
%TO.P,C21,2*%
%TO.N,GND*%
X123610000Y-105938750D03*
%TD*%
D15*
%TO.P,C16,1*%
%TO.N,/M_RST*%
X117430000Y-99860000D03*
%TO.P,C16,2*%
%TO.N,GND*%
X117430000Y-98900000D03*
%TD*%
D16*
%TO.P,IC2,1,SW*%
%TO.N,Net-(IC2-SW)*%
X123450000Y-92100000D03*
%TO.P,IC2,2,EN*%
%TO.N,VDC*%
X122950000Y-92100000D03*
%TO.P,IC2,3,NC*%
%TO.N,unconnected-(IC2-NC-Pad3)*%
X122450000Y-92100000D03*
%TO.P,IC2,4,SNS*%
%TO.N,+3V3*%
X121950000Y-92100000D03*
%TO.P,IC2,5,CFF*%
%TO.N,/CFF*%
X121950000Y-94100000D03*
%TO.P,IC2,6,AGND*%
%TO.N,GND*%
X122450000Y-94100000D03*
%TO.P,IC2,7,VIN*%
%TO.N,VDC*%
X122950000Y-94100000D03*
%TO.P,IC2,8,PGND*%
%TO.N,GND*%
X123450000Y-94100000D03*
D17*
%TO.P,IC2,9,EP*%
X122700000Y-93100000D03*
%TD*%
D18*
%TO.P,R8,1*%
%TO.N,/VREF*%
X121500000Y-99060000D03*
%TO.P,R8,2*%
%TO.N,GND*%
X122520000Y-99060000D03*
%TD*%
D19*
%TO.P,R22,1*%
%TO.N,Net-(U5-SENSEB)*%
X126170000Y-103368750D03*
%TO.P,R22,2*%
%TO.N,GND*%
X126170000Y-104388750D03*
%TD*%
%TO.P,R19,1*%
%TO.N,Net-(U4-SENSEA)*%
X115430000Y-104990000D03*
%TO.P,R19,2*%
%TO.N,GND*%
X115430000Y-106010000D03*
%TD*%
D20*
%TO.P,U3,1,STAT*%
%TO.N,Net-(U3-STAT)*%
X123650000Y-86375000D03*
%TO.P,U3,2,V_{SS}*%
%TO.N,GND*%
X122700000Y-86375000D03*
%TO.P,U3,3,V_{BAT}*%
%TO.N,+BATT*%
X121750000Y-86375000D03*
%TO.P,U3,4,V_{DD}*%
%TO.N,+5V*%
X121750000Y-88650000D03*
%TO.P,U3,5,PROG*%
%TO.N,Net-(U3-PROG)*%
X123650000Y-88650000D03*
%TD*%
D21*
%TO.P,R15,1*%
%TO.N,/CC2*%
X128180000Y-99190000D03*
%TO.P,R15,2*%
%TO.N,GND*%
X127160000Y-99190000D03*
%TD*%
D18*
%TO.P,R14,1*%
%TO.N,/CC1*%
X127150000Y-98250000D03*
%TO.P,R14,2*%
%TO.N,GND*%
X128170000Y-98250000D03*
%TD*%
D19*
%TO.P,R17,1*%
%TO.N,+3V3*%
X130575000Y-92265000D03*
%TO.P,R17,2*%
%TO.N,Net-(D1-A)*%
X130575000Y-93285000D03*
%TD*%
D22*
%TO.P,C9,1*%
%TO.N,+5V*%
X127210000Y-97320000D03*
%TO.P,C9,2*%
%TO.N,GND*%
X128170000Y-97320000D03*
%TD*%
D19*
%TO.P,R23,1*%
%TO.N,Net-(U5-SENSEA)*%
X121910000Y-104988750D03*
%TO.P,R23,2*%
%TO.N,GND*%
X121910000Y-106008750D03*
%TD*%
D23*
%TO.P,J1,1,Pin_1*%
%TO.N,/M0_A1*%
X117225000Y-111000000D03*
%TO.P,J1,2,Pin_2*%
%TO.N,/M0_A2*%
X118225000Y-111000000D03*
%TO.P,J1,3,Pin_3*%
%TO.N,/M1_A1*%
X119225000Y-111000000D03*
%TO.P,J1,4,Pin_4*%
%TO.N,/M1_A2*%
X120225000Y-111000000D03*
%TO.P,J1,5,Pin_5*%
%TO.N,/M1_B1*%
X121225000Y-111000000D03*
%TO.P,J1,6,Pin_6*%
%TO.N,/M1_B2*%
X122225000Y-111000000D03*
%TO.P,J1,7,Pin_7*%
%TO.N,/M0_B1*%
X123225000Y-111000000D03*
%TO.P,J1,8,Pin_8*%
%TO.N,/M0_B2*%
X124225000Y-111000000D03*
D24*
%TO.P,J1,MP*%
%TO.N,N/C*%
X115925000Y-108475000D03*
X125525000Y-108475000D03*
%TD*%
D25*
%TO.P,D1,1,K*%
%TO.N,GND*%
X131550000Y-92290000D03*
%TO.P,D1,2,A*%
%TO.N,Net-(D1-A)*%
X131550000Y-93260000D03*
%TD*%
D15*
%TO.P,C19,1*%
%TO.N,/M_EN*%
X125560000Y-99860000D03*
%TO.P,C19,2*%
%TO.N,GND*%
X125560000Y-98900000D03*
%TD*%
%TO.P,C15,1*%
%TO.N,/M_EN*%
X118390000Y-99870000D03*
%TO.P,C15,2*%
%TO.N,GND*%
X118390000Y-98910000D03*
%TD*%
%TO.P,C7,1*%
%TO.N,+3V3*%
X121640000Y-96160000D03*
%TO.P,C7,2*%
%TO.N,/CFF*%
X121640000Y-95200000D03*
%TD*%
D26*
%TO.P,J2,1,Pin_1*%
%TO.N,GND*%
X116550000Y-88450000D03*
D27*
%TO.P,J2,2,Pin_2*%
%TO.N,+BATT*%
X118550000Y-88450000D03*
%TD*%
D28*
%TO.P,R24,1*%
%TO.N,Net-(U4-TOFF)*%
X119700000Y-100980000D03*
%TO.P,R24,2*%
%TO.N,GND*%
X119700000Y-99960000D03*
%TD*%
%TO.P,R25,1*%
%TO.N,Net-(U5-TOFF)*%
X127220000Y-102030000D03*
%TO.P,R25,2*%
%TO.N,GND*%
X127220000Y-101010000D03*
%TD*%
%TO.P,R20,1*%
%TO.N,Net-(U5-TOFF)*%
X128170000Y-102030000D03*
%TO.P,R20,2*%
%TO.N,Net-(C22-Pad1)*%
X128170000Y-101010000D03*
%TD*%
D29*
%TO.P,U4,1,DIR*%
%TO.N,/M0_DIR*%
X115602500Y-101680000D03*
%TO.P,U4,2,STCK*%
%TO.N,/M0_STEP*%
X115602500Y-102180000D03*
%TO.P,U4,3,OUTA1*%
%TO.N,/M0_A1*%
X115602500Y-102680000D03*
%TO.P,U4,4,SENSEA*%
%TO.N,Net-(U4-SENSEA)*%
X115602500Y-103180000D03*
D30*
%TO.P,U4,5,OUTA2*%
%TO.N,/M0_A2*%
X116340000Y-103917500D03*
%TO.P,U4,6,VS*%
%TO.N,VDC*%
X116840000Y-103917500D03*
%TO.P,U4,7,GND*%
%TO.N,GND*%
X117340000Y-103917500D03*
%TO.P,U4,8,OUTB2*%
%TO.N,/M0_B2*%
X117840000Y-103917500D03*
D29*
%TO.P,U4,9,SENSEB*%
%TO.N,Net-(U4-SENSEB)*%
X118577500Y-103180000D03*
%TO.P,U4,10,OUTB1*%
%TO.N,/M0_B1*%
X118577500Y-102680000D03*
%TO.P,U4,11,REF*%
%TO.N,/VREF*%
X118577500Y-102180000D03*
%TO.P,U4,12,TOFF*%
%TO.N,Net-(U4-TOFF)*%
X118577500Y-101680000D03*
D30*
%TO.P,U4,13,EN/FLT*%
%TO.N,/M_EN*%
X117840000Y-100942500D03*
%TO.P,U4,14,STBY/RESET*%
%TO.N,/M_RST*%
X117340000Y-100942500D03*
%TO.P,U4,15,MODE2*%
%TO.N,/MODE2*%
X116840000Y-100942500D03*
%TO.P,U4,16,MODE1*%
%TO.N,/MODE1*%
X116340000Y-100942500D03*
D31*
%TO.P,U4,17,EPAD*%
%TO.N,GND*%
X117090000Y-102430000D03*
%TD*%
D15*
%TO.P,C20,1*%
%TO.N,/M_RST*%
X124600000Y-99850000D03*
%TO.P,C20,2*%
%TO.N,GND*%
X124600000Y-98890000D03*
%TD*%
D32*
%TO.P,C22,1*%
%TO.N,Net-(C22-Pad1)*%
X128135000Y-100125000D03*
%TO.P,C22,2*%
%TO.N,GND*%
X127175000Y-100125000D03*
%TD*%
%TO.P,C18,1*%
%TO.N,Net-(C18-Pad1)*%
X120615000Y-99075000D03*
%TO.P,C18,2*%
%TO.N,GND*%
X119655000Y-99075000D03*
%TD*%
D19*
%TO.P,R18,1*%
%TO.N,Net-(U4-SENSEB)*%
X118820000Y-105060000D03*
%TO.P,R18,2*%
%TO.N,GND*%
X118820000Y-106080000D03*
%TD*%
D14*
%TO.P,C17,1*%
%TO.N,VDC*%
X117130000Y-104980000D03*
%TO.P,C17,2*%
%TO.N,GND*%
X117130000Y-105940000D03*
%TD*%
D33*
%TO.P,L1,1,1*%
%TO.N,+3V3*%
X121725000Y-90575000D03*
%TO.P,L1,2,2*%
%TO.N,Net-(IC2-SW)*%
X123850000Y-90575000D03*
%TD*%
D18*
%TO.P,R7,1*%
%TO.N,+3V3*%
X119640000Y-98140000D03*
%TO.P,R7,2*%
%TO.N,/VREF*%
X120660000Y-98140000D03*
%TD*%
D29*
%TO.P,U5,1,DIR*%
%TO.N,/M1_DIR*%
X122082500Y-101678750D03*
%TO.P,U5,2,STCK*%
%TO.N,/M1_STEP*%
X122082500Y-102178750D03*
%TO.P,U5,3,OUTA1*%
%TO.N,/M1_A1*%
X122082500Y-102678750D03*
%TO.P,U5,4,SENSEA*%
%TO.N,Net-(U5-SENSEA)*%
X122082500Y-103178750D03*
D30*
%TO.P,U5,5,OUTA2*%
%TO.N,/M1_A2*%
X122820000Y-103916250D03*
%TO.P,U5,6,VS*%
%TO.N,VDC*%
X123320000Y-103916250D03*
%TO.P,U5,7,GND*%
%TO.N,GND*%
X123820000Y-103916250D03*
%TO.P,U5,8,OUTB2*%
%TO.N,/M1_B2*%
X124320000Y-103916250D03*
D29*
%TO.P,U5,9,SENSEB*%
%TO.N,Net-(U5-SENSEB)*%
X125057500Y-103178750D03*
%TO.P,U5,10,OUTB1*%
%TO.N,/M1_B1*%
X125057500Y-102678750D03*
%TO.P,U5,11,REF*%
%TO.N,/VREF*%
X125057500Y-102178750D03*
%TO.P,U5,12,TOFF*%
%TO.N,Net-(U5-TOFF)*%
X125057500Y-101678750D03*
D30*
%TO.P,U5,13,EN/FLT*%
%TO.N,/M_EN*%
X124320000Y-100941250D03*
%TO.P,U5,14,STBY/RESET*%
%TO.N,/M_RST*%
X123820000Y-100941250D03*
%TO.P,U5,15,MODE2*%
%TO.N,/MODE2*%
X123320000Y-100941250D03*
%TO.P,U5,16,MODE1*%
%TO.N,/MODE1*%
X122820000Y-100941250D03*
D31*
%TO.P,U5,17,EPAD*%
%TO.N,GND*%
X123570000Y-102428750D03*
%TD*%
D22*
%TO.P,C23,1*%
%TO.N,VDC*%
X122540000Y-95810000D03*
%TO.P,C23,2*%
%TO.N,GND*%
X123500000Y-95810000D03*
%TD*%
%TO.P,C4,1*%
%TO.N,/VREF*%
X121510000Y-98130000D03*
%TO.P,C4,2*%
%TO.N,GND*%
X122470000Y-98130000D03*
%TD*%
D19*
%TO.P,R12,1*%
%TO.N,Net-(U3-PROG)*%
X125020000Y-89260000D03*
%TO.P,R12,2*%
%TO.N,GND*%
X125020000Y-90280000D03*
%TD*%
D28*
%TO.P,R16,1*%
%TO.N,Net-(U4-TOFF)*%
X120650000Y-100980000D03*
%TO.P,R16,2*%
%TO.N,Net-(C18-Pad1)*%
X120650000Y-99960000D03*
%TD*%
D25*
%TO.P,D2,1,K*%
%TO.N,Net-(D2-K)*%
X124990000Y-87285000D03*
%TO.P,D2,2,A*%
%TO.N,+BATT*%
X124990000Y-88255000D03*
%TD*%
D34*
%TO.N,GND*%
X114890000Y-110030000D03*
X125680000Y-89770000D03*
X120060000Y-89820000D03*
X117565000Y-106250002D03*
X129390000Y-95020000D03*
X125250000Y-105450000D03*
X121835000Y-106603058D03*
X117833448Y-98336552D03*
X120700000Y-86040000D03*
X118860000Y-100660000D03*
X125050000Y-110960000D03*
X115440000Y-106780000D03*
X131880000Y-91770000D03*
X115340000Y-89690000D03*
X124320000Y-94440000D03*
X115450000Y-92750000D03*
X131840000Y-107320000D03*
X118890000Y-107770000D03*
X123680000Y-107710000D03*
X129500000Y-102630000D03*
X127860000Y-107470000D03*
X126580000Y-99260000D03*
X122325000Y-97685000D03*
X124449998Y-95630000D03*
X126050002Y-98140000D03*
D35*
%TO.N,VDC*%
X122783712Y-107791684D03*
D34*
X122730000Y-91230000D03*
D35*
X117090000Y-106910000D03*
D34*
X122490000Y-94905000D03*
D35*
X131090000Y-99310000D03*
D34*
%TO.N,+3V3*%
X119030000Y-86030000D03*
X134150000Y-99200000D03*
X129480000Y-108230000D03*
X118470000Y-109480000D03*
X121888137Y-107880840D03*
D35*
X117620000Y-89699960D03*
D34*
X117360000Y-108530000D03*
X119337758Y-96528328D03*
X120900000Y-96370000D03*
X130950000Y-105030000D03*
X129950000Y-91730000D03*
X128000000Y-106760000D03*
X120230000Y-92550000D03*
%TO.N,/CC1*%
X126558984Y-96970000D03*
%TO.N,/CC2*%
X129500002Y-100067215D03*
D35*
%TO.N,+5V*%
X122660000Y-88650000D03*
X127550000Y-92410000D03*
D34*
%TO.N,/RST*%
X124440000Y-92560000D03*
%TO.N,/GPIO9*%
X128100000Y-105260000D03*
X126140000Y-105130000D03*
%TO.N,Net-(D2-K)*%
X124870000Y-86240000D03*
%TO.N,/M1_B1*%
X121800000Y-109800000D03*
X124710000Y-109800000D03*
%TO.N,/M0_B1*%
X119155000Y-106900000D03*
X119607872Y-112126303D03*
%TO.N,/M0_B2*%
X123995000Y-109270000D03*
X119300000Y-109420000D03*
%TO.N,Net-(U3-STAT)*%
X124179764Y-86309027D03*
%TO.N,/VREF*%
X119920000Y-102650000D03*
X126125230Y-102053750D03*
%TO.N,/M_EN*%
X126045000Y-100803750D03*
X117249998Y-98030000D03*
%TO.N,/M_RST*%
X117670000Y-96449998D03*
X117561257Y-94402672D03*
X123750000Y-99090000D03*
%TO.N,/M0_STEP*%
X116247804Y-94991874D03*
%TO.N,/M0_DIR*%
X116300000Y-95730000D03*
%TO.N,/M1_STEP*%
X120670000Y-103820000D03*
%TO.N,/M1_DIR*%
X120215000Y-103295000D03*
%TO.N,/GPIO0*%
X127540000Y-89810000D03*
X125915000Y-94270000D03*
%TO.N,/MODE1*%
X117360000Y-109670000D03*
X123530000Y-98320000D03*
%TO.N,/MODE2*%
X120966120Y-109835882D03*
X123449709Y-99887484D03*
X116465812Y-96879885D03*
%TD*%
D36*
%TO.N,Net-(D2-K)*%
X124990000Y-86360000D02*
X124870000Y-86240000D01*
X124990000Y-87285000D02*
X124990000Y-86360000D01*
%TO.N,Net-(U3-STAT)*%
X124113791Y-86375000D02*
X124179764Y-86309027D01*
X123650000Y-86375000D02*
X124113791Y-86375000D01*
%TO.N,/M0_B1*%
X122899999Y-112100000D02*
X123225000Y-111774999D01*
X119634175Y-112100000D02*
X122899999Y-112100000D01*
X119607872Y-112126303D02*
X119634175Y-112100000D01*
X123225000Y-111774999D02*
X123225000Y-111000000D01*
%TO.N,GND*%
X122700000Y-86375000D02*
X122700000Y-85712501D01*
X132145000Y-107015000D02*
X131840000Y-107320000D01*
X125170000Y-90280000D02*
X125680000Y-89770000D01*
X123450000Y-93450000D02*
X123450000Y-94100000D01*
X123820000Y-103916250D02*
X123820000Y-102678750D01*
X124320000Y-94440000D02*
X123900000Y-94860000D01*
X123820000Y-103916250D02*
X123820000Y-104303749D01*
X123610000Y-105938750D02*
X123610000Y-107640000D01*
X128170000Y-97320000D02*
X128170000Y-98250000D01*
X123860000Y-95450000D02*
X123860000Y-94860000D01*
X123820000Y-102678750D02*
X123570000Y-102428750D01*
X117910000Y-98900000D02*
X118380000Y-98900000D01*
X117715000Y-105355000D02*
X117130000Y-105940000D01*
X127175000Y-99205000D02*
X127160000Y-99190000D01*
X123500000Y-95810000D02*
X123860000Y-95450000D01*
X119560000Y-99960000D02*
X118860000Y-100660000D01*
X122700000Y-85712501D02*
X122424999Y-85437500D01*
X123955780Y-104423750D02*
X124195000Y-104662970D01*
X123900000Y-94860000D02*
X123860000Y-94860000D01*
X117340000Y-102680000D02*
X117090000Y-102430000D01*
X127230000Y-99190000D02*
X128170000Y-98250000D01*
X125560000Y-98630002D02*
X126050002Y-98140000D01*
X122470000Y-97830000D02*
X122325000Y-97685000D01*
X126170000Y-104388750D02*
X126051250Y-104388750D01*
D37*
X115430000Y-106770000D02*
X115440000Y-106780000D01*
D36*
X118530000Y-106370000D02*
X118530000Y-107410000D01*
X122450000Y-94100000D02*
X122450000Y-93350000D01*
D37*
X115430000Y-106010000D02*
X115430000Y-106770000D01*
D36*
X121302500Y-85437500D02*
X120700000Y-86040000D01*
X118820000Y-106080000D02*
X118530000Y-106370000D01*
X127175000Y-100125000D02*
X127175000Y-100965000D01*
X123610000Y-107640000D02*
X123680000Y-107710000D01*
X118530000Y-107410000D02*
X118890000Y-107770000D01*
X123860000Y-94860000D02*
X123450000Y-94450000D01*
X123940001Y-104423750D02*
X123955780Y-104423750D01*
X117715000Y-104659030D02*
X117715000Y-105355000D01*
X123610000Y-105879530D02*
X123610000Y-105938750D01*
X117254998Y-105940000D02*
X117565000Y-106250002D01*
X127175000Y-100125000D02*
X127175000Y-99205000D01*
X122470000Y-99010000D02*
X122520000Y-99060000D01*
X122450000Y-93350000D02*
X122700000Y-93100000D01*
X124195000Y-104662970D02*
X124195000Y-105294530D01*
X124195000Y-105294530D02*
X123610000Y-105879530D01*
X122700000Y-93100000D02*
X123100000Y-93100000D01*
X127175000Y-100965000D02*
X127220000Y-101010000D01*
X131550000Y-92100000D02*
X131880000Y-91770000D01*
X132145000Y-106080000D02*
X132145000Y-107015000D01*
X117910000Y-98900000D02*
X117910000Y-98413104D01*
X131550000Y-92290000D02*
X131550000Y-92100000D01*
X121910000Y-106528058D02*
X121835000Y-106603058D01*
X125140000Y-95260000D02*
X124320000Y-94440000D01*
X122424999Y-85437500D02*
X121302500Y-85437500D01*
X124600000Y-98890000D02*
X125550000Y-98890000D01*
X125560000Y-98900000D02*
X125560000Y-98630002D01*
X117340000Y-103917500D02*
X117340000Y-102680000D01*
X125020000Y-90280000D02*
X125170000Y-90280000D01*
X122470000Y-98130000D02*
X122470000Y-99010000D01*
X123820000Y-104303749D02*
X123940001Y-104423750D01*
X117340000Y-103917500D02*
X117340000Y-104284030D01*
X119700000Y-99960000D02*
X119560000Y-99960000D01*
X117130000Y-105940000D02*
X117254998Y-105940000D01*
X119655000Y-99915000D02*
X119700000Y-99960000D01*
X122470000Y-98130000D02*
X122470000Y-97830000D01*
X126650000Y-99190000D02*
X126580000Y-99260000D01*
X117340000Y-104284030D02*
X117715000Y-104659030D01*
X127160000Y-99190000D02*
X126650000Y-99190000D01*
X127160000Y-99190000D02*
X127230000Y-99190000D01*
X117430000Y-98900000D02*
X117910000Y-98900000D01*
X125550000Y-98890000D02*
X125560000Y-98900000D01*
X118380000Y-98900000D02*
X118390000Y-98910000D01*
X119655000Y-99075000D02*
X119655000Y-99915000D01*
X123450000Y-94450000D02*
X123450000Y-94100000D01*
X125250000Y-105190000D02*
X125250000Y-105450000D01*
X123100000Y-93100000D02*
X123450000Y-93450000D01*
X125950000Y-95260000D02*
X125140000Y-95260000D01*
X117910000Y-98413104D02*
X117833448Y-98336552D01*
X126051250Y-104388750D02*
X125250000Y-105190000D01*
X121910000Y-106008750D02*
X121910000Y-106528058D01*
%TO.N,VDC*%
X122950000Y-92100000D02*
X122950000Y-91450000D01*
D37*
X131090000Y-98185000D02*
X131100000Y-98175000D01*
D36*
X123610000Y-104978750D02*
X122905000Y-105683750D01*
X117130000Y-104980000D02*
X116545000Y-105565000D01*
X116545000Y-105565000D02*
X116545000Y-106365000D01*
X117130000Y-104980000D02*
X116840000Y-104690000D01*
X116840000Y-104690000D02*
X116840000Y-103917500D01*
D37*
X131090000Y-99310000D02*
X131090000Y-98185000D01*
D36*
X122540000Y-94955000D02*
X122490000Y-94905000D01*
X122950000Y-95400000D02*
X122540000Y-95810000D01*
X122905000Y-105683750D02*
X122905000Y-107670396D01*
X122950000Y-94100000D02*
X122950000Y-95400000D01*
X122950000Y-91450000D02*
X122730000Y-91230000D01*
X116545000Y-106365000D02*
X117090000Y-106910000D01*
X123320000Y-104688750D02*
X123320000Y-103916250D01*
X122540000Y-95810000D02*
X122540000Y-94955000D01*
X123610000Y-104978750D02*
X123320000Y-104688750D01*
X122905000Y-107670396D02*
X122783712Y-107791684D01*
%TO.N,+3V3*%
X119640000Y-96830570D02*
X119640000Y-98140000D01*
X121950000Y-92100000D02*
X121950000Y-90800000D01*
X121620000Y-92430000D02*
X121950000Y-92100000D01*
X121430000Y-96370000D02*
X121640000Y-96160000D01*
D37*
X118495040Y-90575000D02*
X117620000Y-89699960D01*
D36*
X121055000Y-95575000D02*
X121055000Y-93935000D01*
X128000000Y-106760000D02*
X128010000Y-106760000D01*
X119337758Y-96528328D02*
X119640000Y-96830570D01*
X130575000Y-92265000D02*
X130485000Y-92265000D01*
X121055000Y-93935000D02*
X121620000Y-93370000D01*
D37*
X121725000Y-90575000D02*
X118495040Y-90575000D01*
D36*
X121640000Y-96160000D02*
X121055000Y-95575000D01*
X130485000Y-92265000D02*
X129950000Y-91730000D01*
X121620000Y-93370000D02*
X121620000Y-92430000D01*
X120900000Y-96370000D02*
X121430000Y-96370000D01*
X128010000Y-106760000D02*
X129480000Y-108230000D01*
X121950000Y-90800000D02*
X121725000Y-90575000D01*
%TO.N,/CFF*%
X121640000Y-94410000D02*
X121950000Y-94100000D01*
X121640000Y-95200000D02*
X121640000Y-94410000D01*
%TO.N,/CC1*%
X126558984Y-97658984D02*
X127150000Y-98250000D01*
X126558984Y-96970000D02*
X126558984Y-97658984D01*
%TO.N,/CC2*%
X129007215Y-100067215D02*
X128175000Y-99235000D01*
X129500002Y-100067215D02*
X129007215Y-100067215D01*
D37*
%TO.N,+5V*%
X128690000Y-96610000D02*
X127802444Y-96610000D01*
X127210000Y-97202444D02*
X127210000Y-97320000D01*
X129430000Y-97350000D02*
X128690000Y-96610000D01*
X127802444Y-96610000D02*
X127210000Y-97202444D01*
X131100000Y-101175000D02*
X131100000Y-100709339D01*
X129430000Y-99039339D02*
X129430000Y-97350000D01*
X121750000Y-88650000D02*
X122660000Y-88650000D01*
X128740000Y-96560000D02*
X128740000Y-93600000D01*
X128690000Y-96610000D02*
X128740000Y-96560000D01*
X131100000Y-100709339D02*
X129430000Y-99039339D01*
X128740000Y-93600000D02*
X127550000Y-92410000D01*
D36*
%TO.N,/RST*%
X124990000Y-92010000D02*
X124440000Y-92560000D01*
X125950000Y-92010000D02*
X124990000Y-92010000D01*
%TO.N,/GPIO9*%
X128895000Y-106080000D02*
X128895000Y-106055000D01*
X128895000Y-106055000D02*
X128100000Y-105260000D01*
D37*
%TO.N,+BATT*%
X121750000Y-86375000D02*
X121750000Y-87037499D01*
X124861630Y-88255000D02*
X124990000Y-88255000D01*
X131100000Y-96675000D02*
X130690000Y-96265000D01*
X122242501Y-87530000D02*
X124136630Y-87530000D01*
X124136630Y-87530000D02*
X124861630Y-88255000D01*
X126390000Y-90770000D02*
X126390000Y-88910000D01*
X130690000Y-96265000D02*
X130690000Y-95370000D01*
X127790000Y-90770000D02*
X126390000Y-90770000D01*
D38*
X118550000Y-88450000D02*
X119675000Y-88450000D01*
D37*
X130690000Y-95370000D02*
X129590000Y-94270000D01*
X126390000Y-88910000D02*
X125735000Y-88255000D01*
X129590000Y-94270000D02*
X129590000Y-92570000D01*
X129590000Y-92570000D02*
X127790000Y-90770000D01*
D38*
X119675000Y-88450000D02*
X121750000Y-86375000D01*
D37*
X121750000Y-87037499D02*
X122242501Y-87530000D01*
X125735000Y-88255000D02*
X124990000Y-88255000D01*
D36*
%TO.N,Net-(D1-A)*%
X130575000Y-93285000D02*
X131525000Y-93285000D01*
X131525000Y-93285000D02*
X131550000Y-93260000D01*
%TO.N,/M0_A1*%
X114835000Y-103060001D02*
X114835000Y-109134390D01*
X115215001Y-102680000D02*
X114835000Y-103060001D01*
X115602500Y-102680000D02*
X115215001Y-102680000D01*
X116700610Y-111000000D02*
X117225000Y-111000000D01*
X114835000Y-109134390D02*
X116700610Y-111000000D01*
%TO.N,/M0_A2*%
X117618884Y-107905000D02*
X117920000Y-108206116D01*
X116340000Y-103917500D02*
X116145000Y-104112500D01*
X117920000Y-110695000D02*
X118225000Y-111000000D01*
X116145000Y-104112500D02*
X116145000Y-106945610D01*
X116145000Y-106945610D02*
X117104390Y-107905000D01*
X117920000Y-108206116D02*
X117920000Y-110695000D01*
X117104390Y-107905000D02*
X117618884Y-107905000D01*
%TO.N,/M1_A1*%
X121240000Y-103154720D02*
X121240000Y-106220000D01*
X122082500Y-102678750D02*
X121715970Y-102678750D01*
X121240000Y-106220000D02*
X119825000Y-107635000D01*
X119825000Y-107635000D02*
X119825000Y-110019804D01*
X119225000Y-110619804D02*
X119225000Y-111000000D01*
X121715970Y-102678750D02*
X121240000Y-103154720D01*
X119825000Y-110019804D02*
X119225000Y-110619804D01*
%TO.N,/M1_A2*%
X120225000Y-111000000D02*
X120225000Y-107800686D01*
X122505000Y-104231250D02*
X122820000Y-103916250D01*
X120769846Y-107255840D02*
X121944160Y-107255840D01*
X121944160Y-107255840D02*
X122505000Y-106695000D01*
X120225000Y-107800686D02*
X120769846Y-107255840D01*
X122505000Y-106695000D02*
X122505000Y-104231250D01*
%TO.N,/M1_B1*%
X121225000Y-110375000D02*
X121800000Y-109800000D01*
X121225000Y-111000000D02*
X121225000Y-110375000D01*
X126765000Y-103060182D02*
X126765000Y-105485610D01*
X125057500Y-102678750D02*
X126383568Y-102678750D01*
X124620000Y-107630610D02*
X124620000Y-109710000D01*
X126383568Y-102678750D02*
X126765000Y-103060182D01*
X124620000Y-109710000D02*
X124710000Y-109800000D01*
X126765000Y-105485610D02*
X124620000Y-107630610D01*
%TO.N,/M1_B2*%
X124220000Y-105835216D02*
X124220000Y-108383884D01*
X124320000Y-103916250D02*
X124595000Y-104191250D01*
X122225000Y-110156116D02*
X122225000Y-111000000D01*
X124595000Y-104191250D02*
X124595000Y-105460216D01*
X123736116Y-108645000D02*
X122225000Y-110156116D01*
X124595000Y-105460216D02*
X124220000Y-105835216D01*
X123958884Y-108645000D02*
X123736116Y-108645000D01*
X124220000Y-108383884D02*
X123958884Y-108645000D01*
%TO.N,/M0_B1*%
X119155000Y-106855000D02*
X119155000Y-106900000D01*
X119160000Y-102680000D02*
X119490000Y-103010000D01*
X118577500Y-102680000D02*
X119160000Y-102680000D01*
X119490000Y-106520000D02*
X119155000Y-106855000D01*
X119490000Y-103010000D02*
X119490000Y-106520000D01*
%TO.N,/M0_B2*%
X118120000Y-107840430D02*
X119300000Y-109020430D01*
X124225000Y-111000000D02*
X124170000Y-110945000D01*
X117840000Y-103917500D02*
X118120000Y-104197500D01*
X119300000Y-109020430D02*
X119300000Y-109420000D01*
X124170000Y-110945000D02*
X124170000Y-109445000D01*
X124170000Y-109445000D02*
X123995000Y-109270000D01*
X118120000Y-104197500D02*
X118120000Y-107840430D01*
%TO.N,Net-(U3-PROG)*%
X123650000Y-88650000D02*
X124325906Y-88650000D01*
X124325906Y-88650000D02*
X124935906Y-89260000D01*
X124935906Y-89260000D02*
X125020000Y-89260000D01*
%TO.N,Net-(U4-SENSEB)*%
X118577500Y-104817500D02*
X118820000Y-105060000D01*
X118577500Y-103180000D02*
X118577500Y-104817500D01*
%TO.N,Net-(U4-SENSEA)*%
X115430000Y-103352500D02*
X115602500Y-103180000D01*
X115430000Y-104990000D02*
X115430000Y-103352500D01*
%TO.N,Net-(U5-SENSEB)*%
X125247500Y-103368750D02*
X126170000Y-103368750D01*
X125057500Y-103178750D02*
X125247500Y-103368750D01*
%TO.N,Net-(C18-Pad1)*%
X120650000Y-99960000D02*
X120650000Y-99110000D01*
X120650000Y-99110000D02*
X120615000Y-99075000D01*
%TO.N,Net-(C22-Pad1)*%
X128170000Y-100160000D02*
X128135000Y-100125000D01*
X128170000Y-101010000D02*
X128170000Y-100160000D01*
%TO.N,/VREF*%
X121500000Y-101190000D02*
X121500000Y-99060000D01*
X119990000Y-102580000D02*
X119920000Y-102650000D01*
X126000230Y-102178750D02*
X126125230Y-102053750D01*
X119990000Y-102180000D02*
X120510000Y-102180000D01*
X121510000Y-99050000D02*
X121500000Y-99060000D01*
X119990000Y-102180000D02*
X119990000Y-102580000D01*
X125057500Y-102178750D02*
X126000230Y-102178750D01*
X120510000Y-102180000D02*
X121500000Y-101190000D01*
X120660000Y-98140000D02*
X121500000Y-98140000D01*
X121500000Y-98140000D02*
X121510000Y-98130000D01*
X118577500Y-102180000D02*
X119990000Y-102180000D01*
X121510000Y-98130000D02*
X121510000Y-99050000D01*
%TO.N,Net-(U5-SENSEA)*%
X121910000Y-103351250D02*
X122082500Y-103178750D01*
X121910000Y-104988750D02*
X121910000Y-103351250D01*
%TO.N,Net-(U4-TOFF)*%
X120650000Y-100980000D02*
X119700000Y-100980000D01*
X118577500Y-101680000D02*
X119380000Y-101680000D01*
X119380000Y-101680000D02*
X119700000Y-101360000D01*
X119700000Y-101360000D02*
X119700000Y-100980000D01*
%TO.N,Net-(U5-TOFF)*%
X125057500Y-101678750D02*
X125307500Y-101428750D01*
X128170000Y-102030000D02*
X127220000Y-102030000D01*
X125307500Y-101428750D02*
X126618750Y-101428750D01*
X126618750Y-101428750D02*
X127220000Y-102030000D01*
%TO.N,Net-(IC2-SW)*%
X123450000Y-92100000D02*
X123450000Y-90975000D01*
X123450000Y-90975000D02*
X123850000Y-90575000D01*
%TO.N,/M_EN*%
X125560000Y-99860000D02*
X125560000Y-100318750D01*
X118390000Y-99870000D02*
X118990000Y-99270000D01*
X124320000Y-100941250D02*
X125907500Y-100941250D01*
X125560000Y-100318750D02*
X126045000Y-100803750D01*
X118990000Y-99270000D02*
X118990000Y-98400000D01*
X118990000Y-98400000D02*
X118400000Y-97810000D01*
X117469998Y-97810000D02*
X117249998Y-98030000D01*
X118390000Y-99870000D02*
X118390000Y-100392500D01*
X118390000Y-100392500D02*
X117840000Y-100942500D01*
X118400000Y-97810000D02*
X117469998Y-97810000D01*
X125907500Y-100941250D02*
X126045000Y-100803750D01*
%TO.N,/M_RST*%
X116720000Y-97399998D02*
X116720000Y-99150000D01*
X116720000Y-99150000D02*
X117430000Y-99860000D01*
X117430000Y-100295000D02*
X117430000Y-99860000D01*
X124600000Y-99850000D02*
X124510000Y-99850000D01*
X117340000Y-100385000D02*
X117430000Y-100295000D01*
X124510000Y-99850000D02*
X123750000Y-99090000D01*
X117340000Y-100942500D02*
X117340000Y-100385000D01*
X117670000Y-96449998D02*
X116720000Y-97399998D01*
X123820000Y-100553751D02*
X124523751Y-99850000D01*
X124523751Y-99850000D02*
X124600000Y-99850000D01*
X123820000Y-100941250D02*
X123820000Y-100553751D01*
%TO.N,/M0_STEP*%
X115215001Y-102180000D02*
X115602500Y-102180000D01*
X116247804Y-94991874D02*
X114930000Y-96309678D01*
X114930000Y-96309678D02*
X114930000Y-101894999D01*
X114930000Y-101894999D02*
X115215001Y-102180000D01*
%TO.N,/M0_DIR*%
X115440812Y-96455315D02*
X116166127Y-95730000D01*
X115440812Y-101518312D02*
X115440812Y-96455315D01*
X115602500Y-101680000D02*
X115440812Y-101518312D01*
X116166127Y-95730000D02*
X116300000Y-95730000D01*
%TO.N,/M1_STEP*%
X120810000Y-103680000D02*
X120670000Y-103820000D01*
X122082500Y-102178750D02*
X121650286Y-102178750D01*
X120810000Y-103019036D02*
X120810000Y-103680000D01*
X121650286Y-102178750D02*
X120810000Y-103019036D01*
%TO.N,/M1_DIR*%
X122082500Y-101678750D02*
X121584600Y-101678750D01*
X121584600Y-101678750D02*
X120410000Y-102853351D01*
X120410000Y-102853351D02*
X120410000Y-103100000D01*
X120410000Y-103100000D02*
X120215000Y-103295000D01*
%TO.N,/MODE1*%
X123130000Y-98720000D02*
X123530000Y-98320000D01*
X119290000Y-95600000D02*
X120820000Y-97130000D01*
X116340000Y-100942500D02*
X115840812Y-100443312D01*
X123020000Y-97130000D02*
X123530000Y-97640000D01*
X120820000Y-97130000D02*
X123020000Y-97130000D01*
X123130000Y-99353568D02*
X123130000Y-98720000D01*
X115840812Y-96621001D02*
X116206928Y-96254885D01*
X116695115Y-96254885D02*
X117350000Y-95600000D01*
X116206928Y-96254885D02*
X116695115Y-96254885D01*
X117350000Y-95600000D02*
X119290000Y-95600000D01*
X122820000Y-99663568D02*
X123130000Y-99353568D01*
X115840812Y-100443312D02*
X115840812Y-96621001D01*
X123530000Y-97640000D02*
X123530000Y-98320000D01*
X122820000Y-100941250D02*
X122820000Y-99663568D01*
%TO.N,/MODE2*%
X116320000Y-99484314D02*
X116320000Y-97025697D01*
X116840000Y-100004314D02*
X116320000Y-99484314D01*
X123320000Y-100017193D02*
X123449709Y-99887484D01*
X123320000Y-100941250D02*
X123320000Y-100017193D01*
X116840000Y-100942500D02*
X116840000Y-100004314D01*
X116320000Y-97025697D02*
X116465812Y-96879885D01*
%TD*%
%TA.AperFunction,Conductor*%
%TO.N,+3V3*%
G36*
X132666324Y-90721898D02*
G01*
X132717521Y-90764371D01*
X132789100Y-90867505D01*
X132953721Y-91104698D01*
X132970927Y-91129488D01*
X132970962Y-91129594D01*
X132970988Y-91129577D01*
X133046720Y-91238896D01*
X133050150Y-91244124D01*
X133284314Y-91621450D01*
X133284404Y-91621768D01*
X133284482Y-91621721D01*
X133431157Y-91859429D01*
X133434203Y-91864647D01*
X133634783Y-92228236D01*
X133635038Y-92228701D01*
X133782710Y-92499109D01*
X133785383Y-92504290D01*
X133961640Y-92866550D01*
X133961963Y-92867218D01*
X134100442Y-93156217D01*
X134102754Y-93161337D01*
X134257553Y-93525911D01*
X134257923Y-93526791D01*
X134383502Y-93828991D01*
X134385467Y-93834027D01*
X134519894Y-94202022D01*
X134520289Y-94203119D01*
X134629985Y-94512405D01*
X134633842Y-94582168D01*
X134599370Y-94642942D01*
X134537514Y-94675431D01*
X134467912Y-94669321D01*
X134444230Y-94656958D01*
X134408722Y-94633233D01*
X134408720Y-94633232D01*
X134408717Y-94633231D01*
X134364822Y-94624500D01*
X134364820Y-94624500D01*
X133535180Y-94624500D01*
X133535178Y-94624500D01*
X133491282Y-94633231D01*
X133491275Y-94633234D01*
X133441496Y-94666495D01*
X133441495Y-94666496D01*
X133408234Y-94716275D01*
X133408231Y-94716282D01*
X133399500Y-94760177D01*
X133399500Y-94760180D01*
X133399500Y-95789820D01*
X133399500Y-95789822D01*
X133399499Y-95789822D01*
X133408231Y-95833717D01*
X133408234Y-95833724D01*
X133441495Y-95883503D01*
X133441496Y-95883504D01*
X133491278Y-95916767D01*
X133491281Y-95916767D01*
X133491282Y-95916768D01*
X133535177Y-95925500D01*
X133535180Y-95925500D01*
X134364822Y-95925500D01*
X134408717Y-95916768D01*
X134408717Y-95916767D01*
X134408722Y-95916767D01*
X134458504Y-95883504D01*
X134491767Y-95833722D01*
X134500500Y-95789820D01*
X134500500Y-94914798D01*
X134520185Y-94847759D01*
X134572989Y-94802004D01*
X134642147Y-94792060D01*
X134705703Y-94821085D01*
X134743002Y-94878284D01*
X134747272Y-94892142D01*
X134747669Y-94893456D01*
X134842585Y-95214062D01*
X134843903Y-95218867D01*
X134938739Y-95593954D01*
X134939119Y-95595498D01*
X135017382Y-95922637D01*
X135018402Y-95927296D01*
X135093580Y-96305236D01*
X135093919Y-96307007D01*
X135155005Y-96639271D01*
X135155747Y-96643768D01*
X135211298Y-97024038D01*
X135211573Y-97026033D01*
X135255108Y-97362130D01*
X135255590Y-97366449D01*
X135291484Y-97748145D01*
X135291673Y-97750364D01*
X135317406Y-98089167D01*
X135317650Y-98093294D01*
X135333898Y-98475685D01*
X135333978Y-98478122D01*
X135341738Y-98818424D01*
X135341765Y-98822346D01*
X135338390Y-99204635D01*
X135338338Y-99207285D01*
X135328048Y-99547870D01*
X135327881Y-99551576D01*
X135304926Y-99932906D01*
X135304721Y-99935761D01*
X135276376Y-100275631D01*
X135276036Y-100279112D01*
X135233582Y-100658562D01*
X135233202Y-100661613D01*
X135186876Y-100999605D01*
X135186387Y-101002855D01*
X135124543Y-101379567D01*
X135123968Y-101382802D01*
X135059791Y-101717915D01*
X135059175Y-101720928D01*
X134978088Y-102094012D01*
X134977297Y-102097418D01*
X134895501Y-102428482D01*
X134894783Y-102431253D01*
X134794611Y-102799924D01*
X134793584Y-102803490D01*
X134743135Y-102969379D01*
X134704797Y-103027790D01*
X134640965Y-103056202D01*
X134571905Y-103045593D01*
X134519544Y-102999332D01*
X134500500Y-102933300D01*
X134500500Y-102060177D01*
X134491768Y-102016282D01*
X134491767Y-102016281D01*
X134491767Y-102016278D01*
X134458504Y-101966496D01*
X134411235Y-101934912D01*
X134408724Y-101933234D01*
X134408717Y-101933231D01*
X134364822Y-101924500D01*
X134364820Y-101924500D01*
X133535180Y-101924500D01*
X133535178Y-101924500D01*
X133491282Y-101933231D01*
X133491275Y-101933234D01*
X133441496Y-101966495D01*
X133441495Y-101966496D01*
X133408234Y-102016275D01*
X133408231Y-102016282D01*
X133399500Y-102060177D01*
X133399500Y-102060180D01*
X133399500Y-103089820D01*
X133399500Y-103089822D01*
X133399499Y-103089822D01*
X133408231Y-103133717D01*
X133408234Y-103133724D01*
X133441495Y-103183503D01*
X133441496Y-103183504D01*
X133491278Y-103216767D01*
X133491281Y-103216767D01*
X133491282Y-103216768D01*
X133535177Y-103225500D01*
X133535180Y-103225500D01*
X134364822Y-103225500D01*
X134408717Y-103216768D01*
X134408717Y-103216767D01*
X134408722Y-103216767D01*
X134439452Y-103196233D01*
X134506128Y-103175356D01*
X134573509Y-103193840D01*
X134620199Y-103245819D01*
X134631375Y-103314789D01*
X134626179Y-103337942D01*
X134574610Y-103495346D01*
X134573330Y-103499054D01*
X134457198Y-103818951D01*
X134456344Y-103821234D01*
X134318674Y-104178406D01*
X134317123Y-104182238D01*
X134184424Y-104495019D01*
X134183536Y-104497061D01*
X134027487Y-104847256D01*
X134025649Y-104851194D01*
X133876932Y-105155756D01*
X133876033Y-105157559D01*
X133701828Y-105500090D01*
X133699688Y-105504114D01*
X133535632Y-105799312D01*
X133534745Y-105800881D01*
X133342617Y-106135056D01*
X133340160Y-106139145D01*
X133161394Y-106424120D01*
X133160540Y-106425461D01*
X132950798Y-106750481D01*
X132948013Y-106754612D01*
X132784162Y-106987427D01*
X132729481Y-107030922D01*
X132659966Y-107037948D01*
X132597687Y-107006277D01*
X132562417Y-106945962D01*
X132561141Y-106891868D01*
X132570500Y-106844821D01*
X132570500Y-105315177D01*
X132561768Y-105271282D01*
X132561767Y-105271281D01*
X132561767Y-105271278D01*
X132528504Y-105221496D01*
X132528503Y-105221495D01*
X132478724Y-105188234D01*
X132478717Y-105188231D01*
X132434822Y-105179500D01*
X132434820Y-105179500D01*
X131855180Y-105179500D01*
X131855178Y-105179500D01*
X131811282Y-105188231D01*
X131811275Y-105188234D01*
X131761496Y-105221495D01*
X131761495Y-105221496D01*
X131728234Y-105271275D01*
X131728231Y-105271282D01*
X131719500Y-105315177D01*
X131719500Y-106850912D01*
X131717974Y-106850912D01*
X131706346Y-106912186D01*
X131658275Y-106962890D01*
X131652265Y-106966164D01*
X131601659Y-106991949D01*
X131601652Y-106991954D01*
X131511954Y-107081652D01*
X131511953Y-107081654D01*
X131511951Y-107081656D01*
X131511950Y-107081658D01*
X131491121Y-107122537D01*
X131454352Y-107194698D01*
X131454352Y-107194699D01*
X131434508Y-107319996D01*
X131434508Y-107320003D01*
X131454352Y-107445300D01*
X131454352Y-107445301D01*
X131459021Y-107454464D01*
X131511950Y-107558342D01*
X131511952Y-107558344D01*
X131511954Y-107558347D01*
X131601652Y-107648045D01*
X131601654Y-107648046D01*
X131601658Y-107648050D01*
X131714696Y-107705646D01*
X131714697Y-107705646D01*
X131714699Y-107705647D01*
X131839997Y-107725492D01*
X131840000Y-107725492D01*
X131840002Y-107725492D01*
X131965923Y-107705548D01*
X132035216Y-107714503D01*
X132088668Y-107759499D01*
X132109308Y-107826250D01*
X132090583Y-107893564D01*
X132082077Y-107905573D01*
X132073661Y-107916073D01*
X132070189Y-107920217D01*
X131854511Y-108166487D01*
X131853879Y-108167202D01*
X131590725Y-108463060D01*
X131586897Y-108467172D01*
X131363322Y-108696693D01*
X131362803Y-108697223D01*
X131079919Y-108984175D01*
X131075729Y-108988230D01*
X130849417Y-109197173D01*
X130849028Y-109197531D01*
X130542668Y-109477965D01*
X130538113Y-109481935D01*
X130323322Y-109660119D01*
X130323076Y-109660322D01*
X129980388Y-109943122D01*
X129975467Y-109946979D01*
X129868678Y-110026408D01*
X129868592Y-110026472D01*
X129511879Y-110291312D01*
X129446318Y-110315470D01*
X129378105Y-110300349D01*
X129330574Y-110253752D01*
X128512841Y-108837394D01*
X128512793Y-108837254D01*
X128512789Y-108837257D01*
X128500469Y-108815883D01*
X128500141Y-108815631D01*
X128500140Y-108815631D01*
X128500133Y-108815631D01*
X128499729Y-108815684D01*
X128479629Y-108827136D01*
X128478942Y-108827732D01*
X126356041Y-110053391D01*
X126355872Y-110053449D01*
X126355884Y-110053470D01*
X126334663Y-110065687D01*
X126334414Y-110066012D01*
X126334413Y-110066015D01*
X126334467Y-110066424D01*
X126346847Y-110087832D01*
X126346843Y-110087834D01*
X126346938Y-110087942D01*
X126935394Y-111107178D01*
X127160988Y-111497918D01*
X127177461Y-111565818D01*
X127154608Y-111631845D01*
X127102864Y-111673712D01*
X126916273Y-111754490D01*
X126916108Y-111754562D01*
X126565900Y-111905568D01*
X126560168Y-111907872D01*
X126219912Y-112034888D01*
X126219415Y-112035072D01*
X125874421Y-112162181D01*
X125868907Y-112164067D01*
X125518471Y-112274779D01*
X125517627Y-112275042D01*
X125170377Y-112382032D01*
X125165110Y-112383528D01*
X124807764Y-112476571D01*
X124806567Y-112476877D01*
X124455795Y-112564484D01*
X124450801Y-112565622D01*
X124088066Y-112640453D01*
X124086507Y-112640764D01*
X123732591Y-112709057D01*
X123727893Y-112709870D01*
X123361279Y-112766090D01*
X123359356Y-112766370D01*
X123002786Y-112815344D01*
X122998401Y-112815867D01*
X122628963Y-112853264D01*
X122626677Y-112853474D01*
X122268377Y-112883053D01*
X122264323Y-112883320D01*
X121893291Y-112901739D01*
X121890644Y-112901843D01*
X121531446Y-112911989D01*
X121527737Y-112912038D01*
X121156066Y-112911416D01*
X121153064Y-112911374D01*
X120793971Y-112902074D01*
X120790618Y-112901942D01*
X120419488Y-112882271D01*
X120416139Y-112882048D01*
X120058019Y-112853331D01*
X120055030Y-112853055D01*
X119685448Y-112814393D01*
X119681764Y-112813952D01*
X119325643Y-112765890D01*
X119323022Y-112765508D01*
X118955981Y-112707965D01*
X118951979Y-112707270D01*
X118598794Y-112639978D01*
X118596542Y-112639527D01*
X118233171Y-112563295D01*
X118228866Y-112562312D01*
X117879498Y-112475925D01*
X117877616Y-112475444D01*
X117518949Y-112380772D01*
X117514363Y-112379466D01*
X117169645Y-112274142D01*
X117168128Y-112273668D01*
X116815344Y-112160915D01*
X116810498Y-112159255D01*
X116471066Y-112035100D01*
X116469907Y-112034670D01*
X116231043Y-111944590D01*
X116124265Y-111904322D01*
X116119202Y-111902283D01*
X116028398Y-111863378D01*
X115785274Y-111759213D01*
X115784464Y-111758863D01*
X115447641Y-111611705D01*
X115442356Y-111609246D01*
X115112695Y-111446362D01*
X115112221Y-111446127D01*
X114787362Y-111283885D01*
X114781902Y-111280986D01*
X114441590Y-111089269D01*
X114441612Y-111089228D01*
X114441436Y-111089182D01*
X114213483Y-110960335D01*
X114164808Y-110910210D01*
X114150500Y-110852386D01*
X114150500Y-107638015D01*
X114157020Y-107598336D01*
X114158046Y-107595300D01*
X114318020Y-107121649D01*
X114358121Y-107064435D01*
X114422790Y-107037982D01*
X114491494Y-107050691D01*
X114542420Y-107098527D01*
X114559500Y-107161329D01*
X114559500Y-109095045D01*
X114557117Y-109119237D01*
X114554103Y-109134389D01*
X114554103Y-109134392D01*
X114558310Y-109155542D01*
X114558311Y-109155549D01*
X114575483Y-109241880D01*
X114575484Y-109241883D01*
X114575485Y-109241885D01*
X114594270Y-109269998D01*
X114594271Y-109270001D01*
X114619944Y-109308424D01*
X114636375Y-109333013D01*
X114636376Y-109333014D01*
X114649222Y-109341597D01*
X114668012Y-109357018D01*
X114770312Y-109459318D01*
X114803797Y-109520641D01*
X114798813Y-109590333D01*
X114756941Y-109646266D01*
X114738927Y-109657483D01*
X114651659Y-109701949D01*
X114651652Y-109701954D01*
X114561954Y-109791652D01*
X114561951Y-109791657D01*
X114561950Y-109791658D01*
X114544711Y-109825492D01*
X114504352Y-109904698D01*
X114504352Y-109904699D01*
X114484508Y-110029996D01*
X114484508Y-110030003D01*
X114504352Y-110155300D01*
X114504352Y-110155301D01*
X114513309Y-110172880D01*
X114561950Y-110268342D01*
X114561952Y-110268344D01*
X114561954Y-110268347D01*
X114651652Y-110358045D01*
X114651654Y-110358046D01*
X114651658Y-110358050D01*
X114764696Y-110415646D01*
X114764697Y-110415646D01*
X114764699Y-110415647D01*
X114889997Y-110435492D01*
X114890000Y-110435492D01*
X114890003Y-110435492D01*
X115015300Y-110415647D01*
X115015301Y-110415647D01*
X115015302Y-110415646D01*
X115015304Y-110415646D01*
X115128342Y-110358050D01*
X115218050Y-110268342D01*
X115262517Y-110181070D01*
X115310489Y-110130277D01*
X115378310Y-110113482D01*
X115444445Y-110136019D01*
X115460681Y-110149687D01*
X116477979Y-111166985D01*
X116493400Y-111185775D01*
X116501983Y-111198621D01*
X116501984Y-111198621D01*
X116501986Y-111198624D01*
X116524986Y-111213992D01*
X116524988Y-111213994D01*
X116551144Y-111231471D01*
X116593115Y-111259515D01*
X116593117Y-111259515D01*
X116593117Y-111259516D01*
X116674692Y-111275742D01*
X116736603Y-111308126D01*
X116771177Y-111368842D01*
X116774501Y-111397359D01*
X116774501Y-111669856D01*
X116774502Y-111669882D01*
X116777413Y-111694987D01*
X116777415Y-111694991D01*
X116822793Y-111797764D01*
X116822794Y-111797765D01*
X116902235Y-111877206D01*
X117005009Y-111922585D01*
X117030135Y-111925500D01*
X117419864Y-111925499D01*
X117419879Y-111925497D01*
X117419882Y-111925497D01*
X117444987Y-111922586D01*
X117444988Y-111922585D01*
X117444991Y-111922585D01*
X117547765Y-111877206D01*
X117627206Y-111797765D01*
X117627206Y-111797764D01*
X117635331Y-111789640D01*
X117637749Y-111792058D01*
X117676810Y-111760165D01*
X117746230Y-111752249D01*
X117808910Y-111783121D01*
X117814609Y-111789699D01*
X117814669Y-111789640D01*
X117822794Y-111797765D01*
X117902235Y-111877206D01*
X118005009Y-111922585D01*
X118030135Y-111925500D01*
X118419864Y-111925499D01*
X118419879Y-111925497D01*
X118419882Y-111925497D01*
X118444987Y-111922586D01*
X118444988Y-111922585D01*
X118444991Y-111922585D01*
X118547765Y-111877206D01*
X118627206Y-111797765D01*
X118627206Y-111797764D01*
X118635331Y-111789640D01*
X118637749Y-111792058D01*
X118676810Y-111760165D01*
X118746230Y-111752249D01*
X118808910Y-111783121D01*
X118814609Y-111789699D01*
X118814669Y-111789640D01*
X118822794Y-111797765D01*
X118902235Y-111877206D01*
X119005009Y-111922585D01*
X119030135Y-111925500D01*
X119088998Y-111925499D01*
X119156036Y-111945182D01*
X119201792Y-111997986D01*
X119211736Y-112067144D01*
X119211472Y-112068895D01*
X119202380Y-112126304D01*
X119202380Y-112126306D01*
X119222224Y-112251603D01*
X119222224Y-112251604D01*
X119222226Y-112251607D01*
X119279822Y-112364645D01*
X119279824Y-112364647D01*
X119279826Y-112364650D01*
X119369524Y-112454348D01*
X119369526Y-112454349D01*
X119369530Y-112454353D01*
X119482568Y-112511949D01*
X119482569Y-112511949D01*
X119482571Y-112511950D01*
X119607869Y-112531795D01*
X119607872Y-112531795D01*
X119607875Y-112531795D01*
X119733172Y-112511950D01*
X119733173Y-112511950D01*
X119733174Y-112511949D01*
X119733176Y-112511949D01*
X119846214Y-112454353D01*
X119888747Y-112411820D01*
X119950070Y-112378334D01*
X119976429Y-112375500D01*
X122860655Y-112375500D01*
X122884845Y-112377882D01*
X122899999Y-112380897D01*
X122927131Y-112375500D01*
X122927132Y-112375500D01*
X123007494Y-112359515D01*
X123059258Y-112324927D01*
X123075621Y-112313994D01*
X123075622Y-112313992D01*
X123089048Y-112305022D01*
X123089050Y-112305019D01*
X123098623Y-112298624D01*
X123107210Y-112285772D01*
X123122623Y-112266991D01*
X123391990Y-111997623D01*
X123410775Y-111982207D01*
X123423624Y-111973623D01*
X123443024Y-111944588D01*
X123496040Y-111900044D01*
X123547765Y-111877206D01*
X123627206Y-111797765D01*
X123627206Y-111797764D01*
X123635331Y-111789640D01*
X123637749Y-111792058D01*
X123676810Y-111760165D01*
X123746230Y-111752249D01*
X123808910Y-111783121D01*
X123814609Y-111789699D01*
X123814669Y-111789640D01*
X123822794Y-111797765D01*
X123902235Y-111877206D01*
X124005009Y-111922585D01*
X124030135Y-111925500D01*
X124419864Y-111925499D01*
X124419879Y-111925497D01*
X124419882Y-111925497D01*
X124444987Y-111922586D01*
X124444988Y-111922585D01*
X124444991Y-111922585D01*
X124547765Y-111877206D01*
X124627206Y-111797765D01*
X124672585Y-111694991D01*
X124675500Y-111669865D01*
X124675499Y-111421021D01*
X124695183Y-111353984D01*
X124747987Y-111308229D01*
X124817146Y-111298285D01*
X124855791Y-111310537D01*
X124924696Y-111345646D01*
X124924697Y-111345646D01*
X124924699Y-111345647D01*
X125049997Y-111365492D01*
X125050000Y-111365492D01*
X125050003Y-111365492D01*
X125175300Y-111345647D01*
X125175301Y-111345647D01*
X125175302Y-111345646D01*
X125175304Y-111345646D01*
X125288342Y-111288050D01*
X125378050Y-111198342D01*
X125435646Y-111085304D01*
X125435646Y-111085302D01*
X125435647Y-111085301D01*
X125435647Y-111085300D01*
X125455492Y-110960003D01*
X125455492Y-110959996D01*
X125435647Y-110834699D01*
X125435647Y-110834698D01*
X125430688Y-110824965D01*
X125378050Y-110721658D01*
X125378046Y-110721654D01*
X125378045Y-110721652D01*
X125288347Y-110631954D01*
X125288344Y-110631952D01*
X125288342Y-110631950D01*
X125175304Y-110574354D01*
X125175303Y-110574353D01*
X125175300Y-110574352D01*
X125050003Y-110554508D01*
X125049997Y-110554508D01*
X124924699Y-110574352D01*
X124924698Y-110574352D01*
X124879594Y-110597334D01*
X124855792Y-110609462D01*
X124787125Y-110622358D01*
X124722385Y-110596082D01*
X124682127Y-110538976D01*
X124675499Y-110498977D01*
X124675499Y-110330143D01*
X124675292Y-110326561D01*
X124676452Y-110326493D01*
X124687448Y-110262418D01*
X124734619Y-110210875D01*
X124779401Y-110194499D01*
X124835304Y-110185646D01*
X124948342Y-110128050D01*
X125038050Y-110038342D01*
X125095646Y-109925304D01*
X125095646Y-109925302D01*
X125095647Y-109925301D01*
X125095647Y-109925300D01*
X125115492Y-109800003D01*
X125115492Y-109799997D01*
X125094728Y-109668897D01*
X125103683Y-109599603D01*
X125148679Y-109546151D01*
X125215431Y-109525512D01*
X125217077Y-109525499D01*
X125906518Y-109525499D01*
X126000304Y-109510646D01*
X126113342Y-109453050D01*
X126203050Y-109363342D01*
X126260646Y-109250304D01*
X126260646Y-109250302D01*
X126260647Y-109250301D01*
X126274707Y-109161523D01*
X126275500Y-109156519D01*
X126275499Y-107793482D01*
X126260646Y-107699696D01*
X126203050Y-107586658D01*
X126203046Y-107586654D01*
X126203045Y-107586652D01*
X126113347Y-107496954D01*
X126113344Y-107496952D01*
X126113342Y-107496950D01*
X126060456Y-107470003D01*
X127454508Y-107470003D01*
X127474352Y-107595300D01*
X127474352Y-107595301D01*
X127489028Y-107624103D01*
X127531950Y-107708342D01*
X127531952Y-107708344D01*
X127531954Y-107708347D01*
X127621652Y-107798045D01*
X127621654Y-107798046D01*
X127621658Y-107798050D01*
X127734696Y-107855646D01*
X127734697Y-107855646D01*
X127734699Y-107855647D01*
X127859997Y-107875492D01*
X127860000Y-107875492D01*
X127860003Y-107875492D01*
X127985300Y-107855647D01*
X127985301Y-107855647D01*
X127985302Y-107855646D01*
X127985304Y-107855646D01*
X128098342Y-107798050D01*
X128188050Y-107708342D01*
X128245646Y-107595304D01*
X128245646Y-107595302D01*
X128245647Y-107595301D01*
X128245647Y-107595300D01*
X128265492Y-107470003D01*
X128265492Y-107469996D01*
X128245647Y-107344699D01*
X128245647Y-107344698D01*
X128233064Y-107320003D01*
X128188050Y-107231658D01*
X128188046Y-107231654D01*
X128188045Y-107231652D01*
X128098347Y-107141954D01*
X128098344Y-107141952D01*
X128098342Y-107141950D01*
X127985304Y-107084354D01*
X127985303Y-107084353D01*
X127985300Y-107084352D01*
X127860003Y-107064508D01*
X127859997Y-107064508D01*
X127734699Y-107084352D01*
X127734698Y-107084352D01*
X127668458Y-107118104D01*
X127621658Y-107141950D01*
X127621657Y-107141951D01*
X127621652Y-107141954D01*
X127531954Y-107231652D01*
X127531951Y-107231657D01*
X127474352Y-107344698D01*
X127474352Y-107344699D01*
X127454508Y-107469996D01*
X127454508Y-107470003D01*
X126060456Y-107470003D01*
X126029959Y-107454464D01*
X126000301Y-107439352D01*
X125906524Y-107424500D01*
X125906519Y-107424500D01*
X125515087Y-107424500D01*
X125448048Y-107404815D01*
X125402293Y-107352011D01*
X125392349Y-107282853D01*
X125421374Y-107219297D01*
X125427406Y-107212819D01*
X126162471Y-106477754D01*
X126931990Y-105708234D01*
X126950774Y-105692819D01*
X126963624Y-105684234D01*
X126980151Y-105659501D01*
X126980593Y-105658840D01*
X127010208Y-105614517D01*
X127010209Y-105614516D01*
X127017362Y-105603810D01*
X127024515Y-105593105D01*
X127024515Y-105593103D01*
X127024516Y-105593103D01*
X127038503Y-105522784D01*
X127040500Y-105512743D01*
X127040500Y-105512742D01*
X127045897Y-105485610D01*
X127042883Y-105470457D01*
X127040500Y-105446265D01*
X127040500Y-105260003D01*
X127694508Y-105260003D01*
X127714352Y-105385300D01*
X127714352Y-105385301D01*
X127727192Y-105410500D01*
X127771950Y-105498342D01*
X127771952Y-105498344D01*
X127771954Y-105498347D01*
X127861652Y-105588045D01*
X127861654Y-105588046D01*
X127861658Y-105588050D01*
X127974696Y-105645646D01*
X128079071Y-105662177D01*
X128142204Y-105692106D01*
X128147353Y-105696969D01*
X128433181Y-105982797D01*
X128466666Y-106044120D01*
X128469500Y-106070478D01*
X128469500Y-106844820D01*
X128469500Y-106844822D01*
X128469499Y-106844822D01*
X128478231Y-106888717D01*
X128478234Y-106888724D01*
X128508312Y-106933739D01*
X128511496Y-106938504D01*
X128561278Y-106971767D01*
X128561281Y-106971767D01*
X128561282Y-106971768D01*
X128605177Y-106980500D01*
X128605180Y-106980500D01*
X129184822Y-106980500D01*
X129228717Y-106971768D01*
X129228717Y-106971767D01*
X129228722Y-106971767D01*
X129278504Y-106938504D01*
X129311767Y-106888722D01*
X129311768Y-106888717D01*
X129320500Y-106844822D01*
X129320500Y-105315177D01*
X129311768Y-105271282D01*
X129311767Y-105271281D01*
X129311767Y-105271278D01*
X129278504Y-105221496D01*
X129278503Y-105221495D01*
X129228724Y-105188234D01*
X129228717Y-105188231D01*
X129184822Y-105179500D01*
X129184820Y-105179500D01*
X128605180Y-105179500D01*
X128605177Y-105179500D01*
X128599115Y-105180097D01*
X128598880Y-105177720D01*
X128539784Y-105172401D01*
X128484629Y-105129509D01*
X128474759Y-105113330D01*
X128428050Y-105021658D01*
X128428046Y-105021654D01*
X128428045Y-105021652D01*
X128338347Y-104931954D01*
X128338344Y-104931952D01*
X128338342Y-104931950D01*
X128225304Y-104874354D01*
X128225303Y-104874353D01*
X128225300Y-104874352D01*
X128100003Y-104854508D01*
X128099997Y-104854508D01*
X127974699Y-104874352D01*
X127974698Y-104874352D01*
X127916528Y-104903992D01*
X127861658Y-104931950D01*
X127861657Y-104931951D01*
X127861652Y-104931954D01*
X127771954Y-105021652D01*
X127771951Y-105021657D01*
X127714352Y-105134698D01*
X127714352Y-105134699D01*
X127694508Y-105259996D01*
X127694508Y-105260003D01*
X127040500Y-105260003D01*
X127040500Y-103099526D01*
X127041456Y-103089822D01*
X131199499Y-103089822D01*
X131208231Y-103133717D01*
X131208234Y-103133724D01*
X131241495Y-103183503D01*
X131241496Y-103183504D01*
X131291278Y-103216767D01*
X131291281Y-103216767D01*
X131291282Y-103216768D01*
X131335177Y-103225500D01*
X131335180Y-103225500D01*
X132164822Y-103225500D01*
X132208717Y-103216768D01*
X132208717Y-103216767D01*
X132208722Y-103216767D01*
X132258504Y-103183504D01*
X132291767Y-103133722D01*
X132293678Y-103124116D01*
X132300500Y-103089822D01*
X132300500Y-102060177D01*
X132291768Y-102016282D01*
X132291767Y-102016281D01*
X132291767Y-102016278D01*
X132258504Y-101966496D01*
X132211235Y-101934912D01*
X132208724Y-101933234D01*
X132208717Y-101933231D01*
X132164822Y-101924500D01*
X132164820Y-101924500D01*
X131335180Y-101924500D01*
X131335178Y-101924500D01*
X131291282Y-101933231D01*
X131291275Y-101933234D01*
X131241496Y-101966495D01*
X131241495Y-101966496D01*
X131208234Y-102016275D01*
X131208231Y-102016282D01*
X131199500Y-102060177D01*
X131199500Y-102060180D01*
X131199500Y-103089820D01*
X131199500Y-103089822D01*
X131199499Y-103089822D01*
X127041456Y-103089822D01*
X127042883Y-103075333D01*
X127045897Y-103060181D01*
X127039929Y-103030181D01*
X127039928Y-103030178D01*
X127037038Y-103015647D01*
X127024515Y-102952687D01*
X127017302Y-102941892D01*
X127016073Y-102940052D01*
X126975627Y-102879519D01*
X126975609Y-102879495D01*
X126963624Y-102861558D01*
X126963621Y-102861556D01*
X126963621Y-102861555D01*
X126950775Y-102852972D01*
X126931985Y-102837551D01*
X126606195Y-102511761D01*
X126590773Y-102492969D01*
X126582192Y-102480126D01*
X126582187Y-102480122D01*
X126559192Y-102464757D01*
X126559191Y-102464757D01*
X126559190Y-102464756D01*
X126519543Y-102438265D01*
X126506165Y-102429326D01*
X126461361Y-102375715D01*
X126452652Y-102306390D01*
X126464569Y-102269934D01*
X126510876Y-102179054D01*
X126510875Y-102179054D01*
X126515307Y-102170358D01*
X126518246Y-102171855D01*
X126548088Y-102128205D01*
X126612444Y-102101001D01*
X126681291Y-102112908D01*
X126732772Y-102160147D01*
X126749765Y-102209905D01*
X126752269Y-102231495D01*
X126752269Y-102231498D01*
X126795380Y-102329135D01*
X126795383Y-102329139D01*
X126795384Y-102329141D01*
X126870859Y-102404616D01*
X126870862Y-102404617D01*
X126870863Y-102404618D01*
X126968499Y-102447729D01*
X126968500Y-102447729D01*
X126968502Y-102447730D01*
X126992377Y-102450500D01*
X127447622Y-102450499D01*
X127471498Y-102447730D01*
X127569135Y-102404619D01*
X127569136Y-102404618D01*
X127569141Y-102404616D01*
X127607319Y-102366438D01*
X127668642Y-102332953D01*
X127738334Y-102337937D01*
X127782681Y-102366438D01*
X127820859Y-102404616D01*
X127820862Y-102404617D01*
X127820863Y-102404618D01*
X127918499Y-102447729D01*
X127918500Y-102447729D01*
X127918502Y-102447730D01*
X127942377Y-102450500D01*
X128397622Y-102450499D01*
X128421498Y-102447730D01*
X128519135Y-102404619D01*
X128519136Y-102404618D01*
X128519141Y-102404616D01*
X128594616Y-102329141D01*
X128637730Y-102231498D01*
X128640500Y-102207623D01*
X128640499Y-101852378D01*
X128637730Y-101828502D01*
X128635901Y-101824359D01*
X128594619Y-101730864D01*
X128594617Y-101730861D01*
X128594616Y-101730859D01*
X128519141Y-101655384D01*
X128495587Y-101644984D01*
X128469428Y-101633433D01*
X128416053Y-101588346D01*
X128395526Y-101521560D01*
X128414365Y-101454278D01*
X128466589Y-101407862D01*
X128469344Y-101406603D01*
X128519141Y-101384616D01*
X128594616Y-101309141D01*
X128637730Y-101211498D01*
X128640500Y-101187623D01*
X128640499Y-100832378D01*
X128637730Y-100808502D01*
X128637729Y-100808499D01*
X128594619Y-100710864D01*
X128594617Y-100710861D01*
X128594616Y-100710859D01*
X128519974Y-100636217D01*
X128486489Y-100574894D01*
X128491473Y-100505202D01*
X128512885Y-100471884D01*
X128512319Y-100471496D01*
X128518809Y-100462019D01*
X128518813Y-100462016D01*
X128562682Y-100362662D01*
X128565500Y-100338373D01*
X128565499Y-100314478D01*
X128585181Y-100247441D01*
X128637983Y-100201685D01*
X128707142Y-100191738D01*
X128770698Y-100220761D01*
X128777180Y-100226796D01*
X128784584Y-100234200D01*
X128800005Y-100252990D01*
X128808588Y-100265836D01*
X128808589Y-100265836D01*
X128808591Y-100265839D01*
X128826539Y-100277831D01*
X128826551Y-100277840D01*
X128830055Y-100280181D01*
X128831591Y-100281207D01*
X128831593Y-100281209D01*
X128837266Y-100284999D01*
X128837274Y-100285008D01*
X128837276Y-100285006D01*
X128899720Y-100326730D01*
X128899723Y-100326730D01*
X128899724Y-100326731D01*
X128986047Y-100343902D01*
X128986054Y-100343902D01*
X129007215Y-100348112D01*
X129022369Y-100345097D01*
X129046559Y-100342715D01*
X129157747Y-100342715D01*
X129224786Y-100362400D01*
X129245428Y-100379034D01*
X129261654Y-100395260D01*
X129261656Y-100395261D01*
X129261660Y-100395265D01*
X129374698Y-100452861D01*
X129374699Y-100452861D01*
X129374701Y-100452862D01*
X129499999Y-100472707D01*
X129500002Y-100472707D01*
X129500005Y-100472707D01*
X129625302Y-100452862D01*
X129625303Y-100452862D01*
X129625304Y-100452861D01*
X129625306Y-100452861D01*
X129738344Y-100395265D01*
X129828052Y-100305557D01*
X129852430Y-100257711D01*
X129900403Y-100206917D01*
X129968224Y-100190122D01*
X130034359Y-100212659D01*
X130050595Y-100226327D01*
X130314054Y-100489786D01*
X130347539Y-100551109D01*
X130342555Y-100620801D01*
X130300683Y-100676734D01*
X130295264Y-100680569D01*
X130241495Y-100716496D01*
X130208234Y-100766275D01*
X130208231Y-100766282D01*
X130199500Y-100810177D01*
X130199500Y-101223164D01*
X130179815Y-101290203D01*
X130127011Y-101335958D01*
X130057853Y-101345902D01*
X130000014Y-101321540D01*
X129890233Y-101237302D01*
X129890230Y-101237300D01*
X129782994Y-101192882D01*
X129750236Y-101179313D01*
X129736171Y-101177461D01*
X129637727Y-101164500D01*
X129637720Y-101164500D01*
X129562280Y-101164500D01*
X129562272Y-101164500D01*
X129449764Y-101179313D01*
X129449763Y-101179313D01*
X129309770Y-101237300D01*
X129309767Y-101237301D01*
X129309767Y-101237302D01*
X129189549Y-101329549D01*
X129119955Y-101420246D01*
X129097300Y-101449770D01*
X129039313Y-101589763D01*
X129039312Y-101589765D01*
X129019534Y-101739999D01*
X129019534Y-101740000D01*
X129039312Y-101890234D01*
X129039313Y-101890236D01*
X129091521Y-102016278D01*
X129097302Y-102030233D01*
X129189549Y-102150451D01*
X129201599Y-102159697D01*
X129203896Y-102161460D01*
X129245098Y-102217888D01*
X129249253Y-102287634D01*
X129216091Y-102347515D01*
X129171954Y-102391652D01*
X129171951Y-102391657D01*
X129171950Y-102391658D01*
X129157899Y-102419235D01*
X129114352Y-102504698D01*
X129114352Y-102504699D01*
X129094508Y-102629996D01*
X129094508Y-102630003D01*
X129114352Y-102755300D01*
X129114352Y-102755301D01*
X129114354Y-102755304D01*
X129171950Y-102868342D01*
X129171952Y-102868344D01*
X129171954Y-102868347D01*
X129261652Y-102958045D01*
X129261654Y-102958046D01*
X129261658Y-102958050D01*
X129374696Y-103015646D01*
X129374697Y-103015646D01*
X129374699Y-103015647D01*
X129499997Y-103035492D01*
X129500000Y-103035492D01*
X129500003Y-103035492D01*
X129625300Y-103015647D01*
X129625301Y-103015647D01*
X129625302Y-103015646D01*
X129625304Y-103015646D01*
X129738342Y-102958050D01*
X129828050Y-102868342D01*
X129885646Y-102755304D01*
X129885646Y-102755302D01*
X129885647Y-102755301D01*
X129885647Y-102755300D01*
X129905492Y-102630003D01*
X129905492Y-102629996D01*
X129885647Y-102504699D01*
X129885646Y-102504696D01*
X129873125Y-102480122D01*
X129836959Y-102409144D01*
X129824063Y-102340477D01*
X129850339Y-102275736D01*
X129885443Y-102245463D01*
X129890225Y-102242700D01*
X129890233Y-102242698D01*
X130010451Y-102150451D01*
X130102698Y-102030233D01*
X130160687Y-101890236D01*
X130175408Y-101778417D01*
X130203674Y-101714521D01*
X130261999Y-101676050D01*
X130322538Y-101672986D01*
X130335175Y-101675499D01*
X130335178Y-101675500D01*
X130335180Y-101675500D01*
X131864822Y-101675500D01*
X131908717Y-101666768D01*
X131908717Y-101666767D01*
X131908722Y-101666767D01*
X131958504Y-101633504D01*
X131991767Y-101583722D01*
X131991984Y-101582629D01*
X132000500Y-101539822D01*
X132000500Y-100816849D01*
X132020067Y-100750209D01*
X131996237Y-100745706D01*
X131964973Y-100722965D01*
X131958503Y-100716495D01*
X131908724Y-100683234D01*
X131908717Y-100683231D01*
X131864822Y-100674500D01*
X131864820Y-100674500D01*
X131605131Y-100674500D01*
X131538092Y-100654815D01*
X131492337Y-100602011D01*
X131487200Y-100588818D01*
X131485646Y-100584036D01*
X131485646Y-100584035D01*
X131475584Y-100564288D01*
X131468140Y-100546315D01*
X131465702Y-100538813D01*
X131461296Y-100525250D01*
X131450258Y-100510057D01*
X132149500Y-100510057D01*
X132173051Y-100605610D01*
X132169982Y-100675412D01*
X132153201Y-100699159D01*
X132205703Y-100723136D01*
X132234294Y-100759219D01*
X132269266Y-100825852D01*
X132382071Y-100953183D01*
X132454033Y-101002855D01*
X132522068Y-101049817D01*
X132522069Y-101049817D01*
X132522070Y-101049818D01*
X132590801Y-101075884D01*
X132675424Y-101107977D01*
X132681128Y-101110140D01*
X132757028Y-101119356D01*
X132807626Y-101125500D01*
X132807628Y-101125500D01*
X132892374Y-101125500D01*
X132934538Y-101120380D01*
X133018872Y-101110140D01*
X133177930Y-101049818D01*
X133317929Y-100953183D01*
X133430734Y-100825852D01*
X133435385Y-100816992D01*
X133488129Y-100716496D01*
X133509790Y-100675225D01*
X133550500Y-100510056D01*
X133550500Y-100339944D01*
X133509790Y-100174775D01*
X133490291Y-100137623D01*
X133430736Y-100024150D01*
X133359000Y-99943177D01*
X133317929Y-99896817D01*
X133268177Y-99862475D01*
X133177931Y-99800182D01*
X133018874Y-99739860D01*
X133018868Y-99739859D01*
X132892374Y-99724500D01*
X132892372Y-99724500D01*
X132807628Y-99724500D01*
X132807626Y-99724500D01*
X132681131Y-99739859D01*
X132681125Y-99739860D01*
X132522068Y-99800182D01*
X132382072Y-99896816D01*
X132269263Y-100024150D01*
X132190210Y-100174773D01*
X132149500Y-100339944D01*
X132149500Y-100510057D01*
X131450258Y-100510057D01*
X131448274Y-100507326D01*
X131438108Y-100490737D01*
X131428050Y-100470997D01*
X131409825Y-100452772D01*
X131409807Y-100452752D01*
X131031247Y-100074192D01*
X130997762Y-100012869D01*
X131002746Y-99943177D01*
X131044618Y-99887244D01*
X131102741Y-99863572D01*
X131233709Y-99846330D01*
X131367625Y-99790861D01*
X131482621Y-99702621D01*
X131570861Y-99587625D01*
X131626330Y-99453709D01*
X131645250Y-99310000D01*
X131644730Y-99306054D01*
X131638396Y-99257939D01*
X131626330Y-99166291D01*
X131570861Y-99032375D01*
X131550632Y-99006012D01*
X131516124Y-98961039D01*
X131490930Y-98895869D01*
X131490500Y-98885553D01*
X131490500Y-98799500D01*
X131510185Y-98732461D01*
X131562989Y-98686706D01*
X131614500Y-98675500D01*
X131864822Y-98675500D01*
X131908717Y-98666768D01*
X131908717Y-98666767D01*
X131908722Y-98666767D01*
X131958504Y-98633504D01*
X131991767Y-98583722D01*
X131999372Y-98545492D01*
X132000500Y-98539822D01*
X132000500Y-97816849D01*
X132020067Y-97750209D01*
X131996237Y-97745706D01*
X131964973Y-97722965D01*
X131958503Y-97716495D01*
X131908724Y-97683234D01*
X131908717Y-97683231D01*
X131864822Y-97674500D01*
X131864820Y-97674500D01*
X130335180Y-97674500D01*
X130335178Y-97674500D01*
X130291282Y-97683231D01*
X130291275Y-97683234D01*
X130241496Y-97716495D01*
X130241495Y-97716496D01*
X130208234Y-97766275D01*
X130208231Y-97766282D01*
X130199500Y-97810177D01*
X130199500Y-97810180D01*
X130199500Y-98539820D01*
X130199500Y-98539822D01*
X130199499Y-98539822D01*
X130208231Y-98583717D01*
X130208234Y-98583724D01*
X130239028Y-98629811D01*
X130241496Y-98633504D01*
X130291278Y-98666767D01*
X130291281Y-98666767D01*
X130291282Y-98666768D01*
X130335177Y-98675500D01*
X130335180Y-98675500D01*
X130565500Y-98675500D01*
X130632539Y-98695185D01*
X130678294Y-98747989D01*
X130689500Y-98799500D01*
X130689500Y-98885553D01*
X130669815Y-98952592D01*
X130663876Y-98961039D01*
X130609139Y-99032374D01*
X130609138Y-99032376D01*
X130553671Y-99166287D01*
X130553670Y-99166292D01*
X130536427Y-99297258D01*
X130508160Y-99361155D01*
X130449835Y-99399625D01*
X130379970Y-99400456D01*
X130325807Y-99368753D01*
X129866819Y-98909764D01*
X129833334Y-98848441D01*
X129830500Y-98822083D01*
X129830500Y-97510057D01*
X132149500Y-97510057D01*
X132173051Y-97605610D01*
X132169982Y-97675412D01*
X132153201Y-97699159D01*
X132205703Y-97723136D01*
X132234294Y-97759219D01*
X132269266Y-97825852D01*
X132382071Y-97953183D01*
X132455615Y-98003947D01*
X132522068Y-98049817D01*
X132522069Y-98049817D01*
X132522070Y-98049818D01*
X132681128Y-98110140D01*
X132754664Y-98119069D01*
X132807626Y-98125500D01*
X132807628Y-98125500D01*
X132892374Y-98125500D01*
X132934538Y-98120380D01*
X133018872Y-98110140D01*
X133177930Y-98049818D01*
X133317929Y-97953183D01*
X133430734Y-97825852D01*
X133435460Y-97816849D01*
X133475687Y-97740202D01*
X133509790Y-97675225D01*
X133550500Y-97510056D01*
X133550500Y-97339944D01*
X133509790Y-97174775D01*
X133484735Y-97127037D01*
X133430736Y-97024150D01*
X133382763Y-96970000D01*
X133317929Y-96896817D01*
X133242422Y-96844698D01*
X133177931Y-96800182D01*
X133018874Y-96739860D01*
X133018868Y-96739859D01*
X132892374Y-96724500D01*
X132892372Y-96724500D01*
X132807628Y-96724500D01*
X132807626Y-96724500D01*
X132681131Y-96739859D01*
X132681125Y-96739860D01*
X132522068Y-96800182D01*
X132382072Y-96896816D01*
X132269263Y-97024150D01*
X132234296Y-97090776D01*
X132185711Y-97140989D01*
X132154842Y-97148238D01*
X132176338Y-97205865D01*
X132173051Y-97244389D01*
X132149500Y-97339942D01*
X132149500Y-97510057D01*
X129830500Y-97510057D01*
X129830500Y-97286568D01*
X129830500Y-97286567D01*
X129823652Y-97265491D01*
X129819111Y-97246578D01*
X129815646Y-97224696D01*
X129805588Y-97204958D01*
X129798140Y-97186976D01*
X129791296Y-97165910D01*
X129778271Y-97147982D01*
X129768106Y-97131394D01*
X129758049Y-97111656D01*
X129739825Y-97093433D01*
X129739807Y-97093413D01*
X129382522Y-96736128D01*
X129349037Y-96674805D01*
X129354021Y-96605113D01*
X129395893Y-96549180D01*
X129461357Y-96524763D01*
X129486381Y-96525507D01*
X129562280Y-96535500D01*
X129562287Y-96535500D01*
X129637713Y-96535500D01*
X129637720Y-96535500D01*
X129750236Y-96520687D01*
X129890233Y-96462698D01*
X130000014Y-96378459D01*
X130065182Y-96353265D01*
X130133627Y-96367303D01*
X130183617Y-96416117D01*
X130199500Y-96476835D01*
X130199500Y-97039820D01*
X130199500Y-97039822D01*
X130199499Y-97039822D01*
X130208231Y-97083717D01*
X130208234Y-97083724D01*
X130226899Y-97111658D01*
X130241496Y-97133504D01*
X130291278Y-97166767D01*
X130291281Y-97166767D01*
X130291282Y-97166768D01*
X130335177Y-97175500D01*
X130335180Y-97175500D01*
X131864822Y-97175500D01*
X131908717Y-97166768D01*
X131908717Y-97166767D01*
X131908722Y-97166767D01*
X131958504Y-97133504D01*
X131958506Y-97133500D01*
X131964970Y-97127037D01*
X132022425Y-97095661D01*
X132009048Y-97078391D01*
X132000500Y-97033150D01*
X132000500Y-96310177D01*
X131991768Y-96266282D01*
X131991767Y-96266281D01*
X131991767Y-96266278D01*
X131958504Y-96216496D01*
X131958280Y-96216346D01*
X131908724Y-96183234D01*
X131908717Y-96183231D01*
X131864822Y-96174500D01*
X131864820Y-96174500D01*
X131217255Y-96174500D01*
X131150216Y-96154815D01*
X131129574Y-96138181D01*
X131126819Y-96135426D01*
X131093334Y-96074103D01*
X131090500Y-96047745D01*
X131090500Y-96014598D01*
X131110185Y-95947559D01*
X131162989Y-95901804D01*
X131232147Y-95891860D01*
X131283390Y-95911496D01*
X131291278Y-95916767D01*
X131291281Y-95916767D01*
X131291282Y-95916768D01*
X131335177Y-95925500D01*
X131335180Y-95925500D01*
X132164822Y-95925500D01*
X132208717Y-95916768D01*
X132208717Y-95916767D01*
X132208722Y-95916767D01*
X132258504Y-95883504D01*
X132291767Y-95833722D01*
X132300500Y-95789820D01*
X132300500Y-94760180D01*
X132300500Y-94760177D01*
X132291768Y-94716282D01*
X132291767Y-94716281D01*
X132291767Y-94716278D01*
X132258504Y-94666496D01*
X132258503Y-94666495D01*
X132208724Y-94633234D01*
X132208717Y-94633231D01*
X132164822Y-94624500D01*
X132164820Y-94624500D01*
X131335180Y-94624500D01*
X131335178Y-94624500D01*
X131291282Y-94633231D01*
X131291275Y-94633234D01*
X131241496Y-94666495D01*
X131241495Y-94666496D01*
X131208234Y-94716275D01*
X131208231Y-94716282D01*
X131199500Y-94760177D01*
X131199500Y-95013744D01*
X131179815Y-95080783D01*
X131127011Y-95126538D01*
X131057853Y-95136482D01*
X130994297Y-95107457D01*
X130987819Y-95101425D01*
X130026819Y-94140425D01*
X129993334Y-94079102D01*
X129990500Y-94052744D01*
X129990500Y-93723619D01*
X130010185Y-93656580D01*
X130062989Y-93610825D01*
X130132147Y-93600881D01*
X130195703Y-93629906D01*
X130202181Y-93635938D01*
X130225859Y-93659616D01*
X130225862Y-93659617D01*
X130225863Y-93659618D01*
X130323499Y-93702729D01*
X130323500Y-93702729D01*
X130323502Y-93702730D01*
X130347377Y-93705500D01*
X130802622Y-93705499D01*
X130826498Y-93702730D01*
X130924135Y-93659619D01*
X130924136Y-93659618D01*
X130924141Y-93659616D01*
X130978479Y-93605278D01*
X131039802Y-93571793D01*
X131109494Y-93576777D01*
X131153841Y-93605277D01*
X131206172Y-93657608D01*
X131308091Y-93702609D01*
X131333009Y-93705500D01*
X131766990Y-93705499D01*
X131775020Y-93704567D01*
X131791903Y-93702610D01*
X131791905Y-93702609D01*
X131791909Y-93702609D01*
X131893828Y-93657608D01*
X131972608Y-93578828D01*
X132017609Y-93476909D01*
X132020500Y-93451991D01*
X132020499Y-93068010D01*
X132017609Y-93043091D01*
X131972608Y-92941172D01*
X131894117Y-92862681D01*
X131860632Y-92801358D01*
X131865616Y-92731666D01*
X131894117Y-92687319D01*
X131930936Y-92650500D01*
X131972608Y-92608828D01*
X132017609Y-92506909D01*
X132020500Y-92481991D01*
X132020499Y-92223889D01*
X132040183Y-92156851D01*
X132088205Y-92113404D01*
X132118342Y-92098050D01*
X132208050Y-92008342D01*
X132265646Y-91895304D01*
X132265646Y-91895302D01*
X132265647Y-91895301D01*
X132265647Y-91895300D01*
X132285492Y-91770003D01*
X132285492Y-91769996D01*
X132265647Y-91644699D01*
X132265647Y-91644698D01*
X132257641Y-91628985D01*
X132208050Y-91531658D01*
X132208046Y-91531654D01*
X132208045Y-91531652D01*
X132118347Y-91441954D01*
X132118344Y-91441952D01*
X132118342Y-91441950D01*
X132005304Y-91384354D01*
X132005303Y-91384353D01*
X132005300Y-91384352D01*
X131870362Y-91362981D01*
X131870563Y-91361706D01*
X131813064Y-91344823D01*
X131767309Y-91292019D01*
X131757365Y-91222861D01*
X131786390Y-91159305D01*
X131836771Y-91124326D01*
X131918007Y-91094027D01*
X132002909Y-91062362D01*
X132273124Y-90922175D01*
X132524340Y-90750247D01*
X132533758Y-90741963D01*
X132597094Y-90712469D01*
X132666324Y-90721898D01*
G37*
%TD.AperFunction*%
%TA.AperFunction,Conductor*%
G36*
X116880702Y-108074065D02*
G01*
X116902599Y-108098885D01*
X116905766Y-108103624D01*
X116923694Y-108115603D01*
X116923702Y-108115609D01*
X116928767Y-108118993D01*
X116928768Y-108118994D01*
X116996895Y-108164515D01*
X116996897Y-108164515D01*
X116996897Y-108164516D01*
X117104388Y-108185897D01*
X117104389Y-108185897D01*
X117104389Y-108185896D01*
X117104390Y-108185897D01*
X117119543Y-108182882D01*
X117143734Y-108180500D01*
X117453406Y-108180500D01*
X117520445Y-108200185D01*
X117541087Y-108216819D01*
X117608181Y-108283913D01*
X117641666Y-108345236D01*
X117644500Y-108371594D01*
X117644500Y-109165408D01*
X117624815Y-109232447D01*
X117572011Y-109278202D01*
X117502853Y-109288146D01*
X117489187Y-109284968D01*
X117360003Y-109264508D01*
X117359997Y-109264508D01*
X117234699Y-109284352D01*
X117234698Y-109284352D01*
X117187452Y-109308426D01*
X117121658Y-109341950D01*
X117121657Y-109341951D01*
X117121652Y-109341954D01*
X117031954Y-109431652D01*
X117031951Y-109431657D01*
X117031950Y-109431658D01*
X117012751Y-109469337D01*
X116974352Y-109544698D01*
X116974352Y-109544699D01*
X116954508Y-109669996D01*
X116954508Y-109670003D01*
X116974352Y-109795300D01*
X116974352Y-109795301D01*
X116993103Y-109832101D01*
X117031950Y-109908342D01*
X117031951Y-109908343D01*
X117036381Y-109917037D01*
X117033606Y-109918450D01*
X117051599Y-109968867D01*
X117035779Y-110036922D01*
X116985676Y-110085621D01*
X116977889Y-110089389D01*
X116902234Y-110122794D01*
X116822794Y-110202234D01*
X116777415Y-110305006D01*
X116777415Y-110305008D01*
X116774500Y-110330131D01*
X116774500Y-110384912D01*
X116754815Y-110451951D01*
X116702011Y-110497706D01*
X116632853Y-110507650D01*
X116569297Y-110478625D01*
X116562819Y-110472593D01*
X115827406Y-109737180D01*
X115793921Y-109675857D01*
X115798905Y-109606165D01*
X115840777Y-109550232D01*
X115906241Y-109525815D01*
X115915087Y-109525499D01*
X116306517Y-109525499D01*
X116306518Y-109525499D01*
X116400304Y-109510646D01*
X116513342Y-109453050D01*
X116603050Y-109363342D01*
X116660646Y-109250304D01*
X116660646Y-109250302D01*
X116660647Y-109250301D01*
X116674707Y-109161523D01*
X116675500Y-109156519D01*
X116675499Y-108167777D01*
X116695183Y-108100739D01*
X116747987Y-108054984D01*
X116817146Y-108045040D01*
X116880702Y-108074065D01*
G37*
%TD.AperFunction*%
%TA.AperFunction,Conductor*%
G36*
X118400703Y-108511195D02*
G01*
X118407181Y-108517227D01*
X118941885Y-109051931D01*
X118975370Y-109113254D01*
X118970386Y-109182946D01*
X118964689Y-109195906D01*
X118914353Y-109294695D01*
X118914352Y-109294699D01*
X118894508Y-109419996D01*
X118894508Y-109420003D01*
X118914352Y-109545300D01*
X118914352Y-109545301D01*
X118920269Y-109556913D01*
X118971950Y-109658342D01*
X118971952Y-109658344D01*
X118971954Y-109658347D01*
X119061652Y-109748045D01*
X119061654Y-109748046D01*
X119061658Y-109748050D01*
X119174696Y-109805646D01*
X119174697Y-109805646D01*
X119174699Y-109805647D01*
X119299997Y-109825492D01*
X119299999Y-109825492D01*
X119299999Y-109825491D01*
X119300000Y-109825492D01*
X119314804Y-109823147D01*
X119384097Y-109832101D01*
X119437549Y-109877096D01*
X119458190Y-109943847D01*
X119439466Y-110011161D01*
X119421893Y-110033292D01*
X119417014Y-110038172D01*
X119355695Y-110071664D01*
X119329324Y-110074500D01*
X119030143Y-110074500D01*
X119030117Y-110074502D01*
X119005012Y-110077413D01*
X119005008Y-110077415D01*
X118902235Y-110122793D01*
X118902234Y-110122794D01*
X118814669Y-110210360D01*
X118812251Y-110207942D01*
X118773171Y-110239842D01*
X118703750Y-110247747D01*
X118641076Y-110216865D01*
X118635389Y-110210301D01*
X118635331Y-110210360D01*
X118547765Y-110122794D01*
X118444992Y-110077415D01*
X118419868Y-110074500D01*
X118419865Y-110074500D01*
X118319500Y-110074500D01*
X118252461Y-110054815D01*
X118206706Y-110002011D01*
X118195500Y-109950500D01*
X118195500Y-108604908D01*
X118215185Y-108537869D01*
X118267989Y-108492114D01*
X118337147Y-108482170D01*
X118400703Y-108511195D01*
G37*
%TD.AperFunction*%
%TA.AperFunction,Conductor*%
G36*
X122193470Y-107507774D02*
G01*
X122240162Y-107559752D01*
X122251340Y-107628722D01*
X122248084Y-107645354D01*
X122247382Y-107647972D01*
X122237068Y-107726314D01*
X122228462Y-107791684D01*
X122244838Y-107916073D01*
X122247382Y-107935392D01*
X122247383Y-107935396D01*
X122302849Y-108069306D01*
X122302850Y-108069308D01*
X122302851Y-108069309D01*
X122391091Y-108184305D01*
X122506087Y-108272545D01*
X122506088Y-108272545D01*
X122506089Y-108272546D01*
X122550725Y-108291034D01*
X122640003Y-108328014D01*
X122766992Y-108344732D01*
X122783711Y-108346934D01*
X122783712Y-108346934D01*
X122783713Y-108346934D01*
X122798689Y-108344962D01*
X122927421Y-108328014D01*
X123061337Y-108272545D01*
X123176333Y-108184305D01*
X123264573Y-108069309D01*
X123264573Y-108069306D01*
X123269520Y-108062861D01*
X123272280Y-108064979D01*
X123311108Y-108027810D01*
X123379688Y-108014451D01*
X123432565Y-108034399D01*
X123432963Y-108033619D01*
X123439999Y-108037204D01*
X123441027Y-108037592D01*
X123441653Y-108038046D01*
X123441655Y-108038047D01*
X123441658Y-108038050D01*
X123554696Y-108095646D01*
X123554697Y-108095646D01*
X123554699Y-108095647D01*
X123679997Y-108115492D01*
X123680000Y-108115492D01*
X123680002Y-108115492D01*
X123800651Y-108096383D01*
X123869944Y-108105338D01*
X123923396Y-108150334D01*
X123944036Y-108217085D01*
X123925311Y-108284399D01*
X123907732Y-108306536D01*
X123881086Y-108333181D01*
X123819766Y-108366666D01*
X123793406Y-108369500D01*
X123775460Y-108369500D01*
X123751270Y-108367117D01*
X123736116Y-108364103D01*
X123736115Y-108364103D01*
X123736114Y-108364103D01*
X123714963Y-108368310D01*
X123714950Y-108368312D01*
X123628625Y-108385483D01*
X123628622Y-108385484D01*
X123628621Y-108385485D01*
X123599804Y-108404740D01*
X123560494Y-108431006D01*
X123560492Y-108431007D01*
X123546185Y-108440567D01*
X123537490Y-108446377D01*
X123528907Y-108459222D01*
X123513488Y-108478010D01*
X122350599Y-109640899D01*
X122289276Y-109674384D01*
X122219584Y-109669400D01*
X122163651Y-109627528D01*
X122152433Y-109609513D01*
X122128050Y-109561658D01*
X122128046Y-109561654D01*
X122128045Y-109561652D01*
X122038347Y-109471954D01*
X122038344Y-109471952D01*
X122038342Y-109471950D01*
X121925304Y-109414354D01*
X121925303Y-109414353D01*
X121925300Y-109414352D01*
X121800003Y-109394508D01*
X121799997Y-109394508D01*
X121674699Y-109414352D01*
X121674698Y-109414352D01*
X121614501Y-109445025D01*
X121561658Y-109471950D01*
X121561657Y-109471951D01*
X121561652Y-109471954D01*
X121471952Y-109561654D01*
X121467377Y-109567952D01*
X121412047Y-109610617D01*
X121342433Y-109616596D01*
X121280638Y-109583990D01*
X121279378Y-109582747D01*
X121204467Y-109507836D01*
X121204464Y-109507834D01*
X121204462Y-109507832D01*
X121091424Y-109450236D01*
X121091423Y-109450235D01*
X121091420Y-109450234D01*
X120966123Y-109430390D01*
X120966117Y-109430390D01*
X120840819Y-109450234D01*
X120840818Y-109450234D01*
X120778603Y-109481935D01*
X120727778Y-109507832D01*
X120727777Y-109507833D01*
X120727772Y-109507836D01*
X120712181Y-109523428D01*
X120650858Y-109556913D01*
X120581166Y-109551929D01*
X120525233Y-109510057D01*
X120500816Y-109444593D01*
X120500500Y-109435747D01*
X120500500Y-107966164D01*
X120520185Y-107899125D01*
X120536819Y-107878483D01*
X120847643Y-107567659D01*
X120908966Y-107534174D01*
X120935324Y-107531340D01*
X121904816Y-107531340D01*
X121929006Y-107533722D01*
X121944160Y-107536737D01*
X121971292Y-107531340D01*
X121971293Y-107531340D01*
X122051650Y-107515356D01*
X122051651Y-107515356D01*
X122051651Y-107515355D01*
X122051655Y-107515355D01*
X122059416Y-107510168D01*
X122126090Y-107489291D01*
X122193470Y-107507774D01*
G37*
%TD.AperFunction*%
%TA.AperFunction,Conductor*%
G36*
X119191561Y-95895185D02*
G01*
X119212203Y-95911819D01*
X120597370Y-97296986D01*
X120612790Y-97315775D01*
X120621376Y-97328624D01*
X120644376Y-97343992D01*
X120644378Y-97343994D01*
X120653633Y-97350178D01*
X120653637Y-97350182D01*
X120653638Y-97350181D01*
X120712505Y-97389515D01*
X120712508Y-97389515D01*
X120712509Y-97389516D01*
X120798832Y-97406687D01*
X120798839Y-97406687D01*
X120820000Y-97410897D01*
X120835154Y-97407882D01*
X120859344Y-97405500D01*
X121818784Y-97405500D01*
X121885823Y-97425185D01*
X121931578Y-97477989D01*
X121941522Y-97547147D01*
X121940845Y-97550053D01*
X121940880Y-97550059D01*
X121933390Y-97597344D01*
X121903460Y-97660478D01*
X121844147Y-97697408D01*
X121774285Y-97696410D01*
X121760831Y-97691379D01*
X121748911Y-97686116D01*
X121717662Y-97672318D01*
X121693373Y-97669500D01*
X121326634Y-97669500D01*
X121326611Y-97669502D01*
X121302340Y-97672317D01*
X121302337Y-97672318D01*
X121202984Y-97716186D01*
X121202983Y-97716187D01*
X121169145Y-97750026D01*
X121107822Y-97783511D01*
X121038130Y-97778527D01*
X120993783Y-97750026D01*
X120959143Y-97715386D01*
X120959141Y-97715384D01*
X120959138Y-97715383D01*
X120959136Y-97715381D01*
X120861500Y-97672270D01*
X120861501Y-97672270D01*
X120837623Y-97669500D01*
X120482384Y-97669500D01*
X120482361Y-97669502D01*
X120458504Y-97672269D01*
X120458501Y-97672269D01*
X120360864Y-97715380D01*
X120360856Y-97715386D01*
X120285386Y-97790856D01*
X120285381Y-97790863D01*
X120242270Y-97888499D01*
X120239500Y-97912375D01*
X120239500Y-98367615D01*
X120239502Y-98367638D01*
X120242269Y-98391495D01*
X120242269Y-98391498D01*
X120285380Y-98489135D01*
X120285386Y-98489143D01*
X120295026Y-98498783D01*
X120328511Y-98560106D01*
X120323527Y-98629798D01*
X120295026Y-98674145D01*
X120223062Y-98746109D01*
X120220075Y-98743122D01*
X120183155Y-98773252D01*
X120113733Y-98781147D01*
X120051063Y-98750256D01*
X120047222Y-98745824D01*
X120046938Y-98746109D01*
X119962016Y-98661187D01*
X119862663Y-98617318D01*
X119838373Y-98614500D01*
X119471634Y-98614500D01*
X119471611Y-98614502D01*
X119447340Y-98617317D01*
X119447339Y-98617317D01*
X119439583Y-98620742D01*
X119370305Y-98629811D01*
X119307120Y-98599986D01*
X119270091Y-98540736D01*
X119265500Y-98507306D01*
X119265500Y-98439344D01*
X119267883Y-98415151D01*
X119270897Y-98399999D01*
X119265500Y-98372868D01*
X119265500Y-98372867D01*
X119249515Y-98292505D01*
X119212758Y-98237495D01*
X119203994Y-98224378D01*
X119203992Y-98224376D01*
X119200609Y-98219312D01*
X119200604Y-98219305D01*
X119188625Y-98201378D01*
X119188624Y-98201376D01*
X119188622Y-98201375D01*
X119188621Y-98201373D01*
X119175775Y-98192790D01*
X119156985Y-98177369D01*
X118622627Y-97643011D01*
X118607205Y-97624219D01*
X118598624Y-97611376D01*
X118598619Y-97611372D01*
X118575624Y-97596007D01*
X118575623Y-97596007D01*
X118575622Y-97596006D01*
X118550958Y-97579526D01*
X118527403Y-97563787D01*
X118527373Y-97563767D01*
X118527332Y-97563740D01*
X118507495Y-97550485D01*
X118507494Y-97550484D01*
X118507492Y-97550483D01*
X118507493Y-97550483D01*
X118421165Y-97533312D01*
X118421152Y-97533310D01*
X118400002Y-97529103D01*
X118400001Y-97529103D01*
X118400000Y-97529103D01*
X118384846Y-97532117D01*
X118360656Y-97534500D01*
X117509342Y-97534500D01*
X117485151Y-97532117D01*
X117469998Y-97529103D01*
X117469997Y-97529103D01*
X117469996Y-97529103D01*
X117448845Y-97533310D01*
X117448832Y-97533312D01*
X117362504Y-97550483D01*
X117362503Y-97550484D01*
X117342667Y-97563739D01*
X117342666Y-97563740D01*
X117294376Y-97596006D01*
X117294374Y-97596007D01*
X117287109Y-97600861D01*
X117274878Y-97609034D01*
X117225386Y-97628405D01*
X117193371Y-97633476D01*
X117124078Y-97624522D01*
X117070625Y-97579526D01*
X117049985Y-97512775D01*
X117068709Y-97445461D01*
X117086287Y-97423326D01*
X117622647Y-96886965D01*
X117683968Y-96853482D01*
X117690888Y-96852181D01*
X117795304Y-96835644D01*
X117908342Y-96778048D01*
X117998050Y-96688340D01*
X118055646Y-96575302D01*
X118055646Y-96575300D01*
X118055647Y-96575299D01*
X118055647Y-96575298D01*
X118075492Y-96450001D01*
X118075492Y-96449994D01*
X118055647Y-96324697D01*
X118055647Y-96324696D01*
X118046390Y-96306529D01*
X117998050Y-96211656D01*
X117998046Y-96211652D01*
X117998045Y-96211650D01*
X117908347Y-96121952D01*
X117908344Y-96121950D01*
X117908342Y-96121948D01*
X117884860Y-96109983D01*
X117834066Y-96062010D01*
X117817271Y-95994189D01*
X117839808Y-95928055D01*
X117894523Y-95884603D01*
X117941157Y-95875500D01*
X119124522Y-95875500D01*
X119191561Y-95895185D01*
G37*
%TD.AperFunction*%
%TA.AperFunction,Conductor*%
G36*
X121214183Y-84956445D02*
G01*
X121261291Y-85008045D01*
X121273024Y-85076923D01*
X121245656Y-85141209D01*
X121197331Y-85177021D01*
X121195007Y-85177983D01*
X121153036Y-85206025D01*
X121153037Y-85206026D01*
X121126878Y-85223506D01*
X121126876Y-85223507D01*
X121103874Y-85238876D01*
X121095291Y-85251722D01*
X121079872Y-85270510D01*
X120747352Y-85603030D01*
X120686029Y-85636515D01*
X120679069Y-85637822D01*
X120574699Y-85654352D01*
X120574698Y-85654352D01*
X120505985Y-85689364D01*
X120461658Y-85711950D01*
X120461657Y-85711951D01*
X120461652Y-85711954D01*
X120371954Y-85801652D01*
X120371951Y-85801657D01*
X120371950Y-85801658D01*
X120363809Y-85817636D01*
X120314352Y-85914698D01*
X120314352Y-85914699D01*
X120294508Y-86039996D01*
X120294508Y-86040003D01*
X120314352Y-86165300D01*
X120314352Y-86165301D01*
X120332805Y-86201517D01*
X120371950Y-86278342D01*
X120371952Y-86278344D01*
X120371954Y-86278347D01*
X120461652Y-86368045D01*
X120461654Y-86368046D01*
X120461658Y-86368050D01*
X120574696Y-86425646D01*
X120574697Y-86425646D01*
X120574699Y-86425647D01*
X120663655Y-86439736D01*
X120726790Y-86469665D01*
X120763722Y-86528976D01*
X120762724Y-86598839D01*
X120731939Y-86649890D01*
X119493650Y-87888181D01*
X119432327Y-87921666D01*
X119405969Y-87924500D01*
X119344316Y-87924500D01*
X119277277Y-87904815D01*
X119231522Y-87852011D01*
X119227793Y-87842907D01*
X119226704Y-87839915D01*
X119225237Y-87835883D01*
X119189563Y-87781643D01*
X119128832Y-87689306D01*
X119128831Y-87689305D01*
X119001221Y-87568910D01*
X118849281Y-87481188D01*
X118849282Y-87481188D01*
X118681210Y-87430870D01*
X118681205Y-87430869D01*
X118506066Y-87420669D01*
X118506065Y-87420669D01*
X118448220Y-87430869D01*
X118333293Y-87451134D01*
X118333291Y-87451134D01*
X118333289Y-87451135D01*
X118273345Y-87476992D01*
X118172198Y-87520622D01*
X118172190Y-87520626D01*
X118031469Y-87625390D01*
X117918698Y-87759785D01*
X117918697Y-87759787D01*
X117839961Y-87916562D01*
X117832151Y-87949516D01*
X117799500Y-88087279D01*
X117799500Y-88768709D01*
X117808601Y-88846567D01*
X117814759Y-88899256D01*
X117814760Y-88899259D01*
X117874762Y-89064115D01*
X117874764Y-89064119D01*
X117971167Y-89210693D01*
X117971168Y-89210694D01*
X118098778Y-89331089D01*
X118098780Y-89331090D01*
X118098782Y-89331092D01*
X118250719Y-89418812D01*
X118418790Y-89469130D01*
X118593935Y-89479331D01*
X118766711Y-89448865D01*
X118927804Y-89379377D01*
X119068530Y-89274610D01*
X119181302Y-89140214D01*
X119229699Y-89043846D01*
X119277375Y-88992775D01*
X119340508Y-88975500D01*
X119663890Y-88975500D01*
X119668122Y-88975572D01*
X119671352Y-88975682D01*
X119729245Y-88977660D01*
X119767070Y-88968441D01*
X119779513Y-88966075D01*
X119818111Y-88960771D01*
X119833386Y-88954135D01*
X119853421Y-88947397D01*
X119869594Y-88943457D01*
X119903531Y-88924374D01*
X119914879Y-88918737D01*
X119944737Y-88905769D01*
X119950605Y-88903221D01*
X119950605Y-88903220D01*
X119950609Y-88903219D01*
X119963528Y-88892707D01*
X119980997Y-88880818D01*
X119995512Y-88872658D01*
X120023052Y-88845116D01*
X120032457Y-88836628D01*
X120062665Y-88812054D01*
X120072264Y-88798453D01*
X120085881Y-88782287D01*
X121419458Y-87448709D01*
X121480779Y-87415226D01*
X121550471Y-87420210D01*
X121594818Y-87448711D01*
X121771427Y-87625319D01*
X121804912Y-87686642D01*
X121799928Y-87756333D01*
X121758057Y-87812267D01*
X121692592Y-87836684D01*
X121683747Y-87837000D01*
X121555144Y-87837000D01*
X121555117Y-87837002D01*
X121530012Y-87839913D01*
X121530008Y-87839915D01*
X121427235Y-87885293D01*
X121347794Y-87964734D01*
X121302415Y-88067506D01*
X121302415Y-88067508D01*
X121299500Y-88092631D01*
X121299500Y-89207356D01*
X121299502Y-89207382D01*
X121302413Y-89232487D01*
X121302415Y-89232491D01*
X121347793Y-89335264D01*
X121347794Y-89335265D01*
X121427235Y-89414706D01*
X121530009Y-89460085D01*
X121555135Y-89463000D01*
X121944864Y-89462999D01*
X121944879Y-89462997D01*
X121944882Y-89462997D01*
X121969987Y-89460086D01*
X121969988Y-89460085D01*
X121969991Y-89460085D01*
X122072765Y-89414706D01*
X122152206Y-89335265D01*
X122197585Y-89232491D01*
X122198488Y-89224705D01*
X122225764Y-89160380D01*
X122283488Y-89121013D01*
X122353332Y-89119103D01*
X122374785Y-89127945D01*
X122374866Y-89127751D01*
X122382377Y-89130862D01*
X122516291Y-89186330D01*
X122643280Y-89203048D01*
X122659999Y-89205250D01*
X122660000Y-89205250D01*
X122660001Y-89205250D01*
X122674977Y-89203278D01*
X122803709Y-89186330D01*
X122937625Y-89130861D01*
X123000015Y-89082986D01*
X123065181Y-89057793D01*
X123133626Y-89071831D01*
X123183617Y-89120644D01*
X123199500Y-89181359D01*
X123199500Y-89207354D01*
X123199502Y-89207382D01*
X123202413Y-89232487D01*
X123202415Y-89232491D01*
X123247793Y-89335264D01*
X123247794Y-89335265D01*
X123327235Y-89414706D01*
X123430009Y-89460085D01*
X123455135Y-89463000D01*
X123844864Y-89462999D01*
X123844879Y-89462997D01*
X123844882Y-89462997D01*
X123869987Y-89460086D01*
X123869988Y-89460085D01*
X123869991Y-89460085D01*
X123972765Y-89414706D01*
X124052206Y-89335265D01*
X124097585Y-89232491D01*
X124100500Y-89207365D01*
X124100500Y-89113572D01*
X124120185Y-89046533D01*
X124172989Y-89000778D01*
X124242147Y-88990834D01*
X124305703Y-89019859D01*
X124312181Y-89025891D01*
X124513181Y-89226891D01*
X124546666Y-89288214D01*
X124549500Y-89314571D01*
X124549500Y-89437614D01*
X124549502Y-89437638D01*
X124552269Y-89461495D01*
X124552269Y-89461498D01*
X124595380Y-89559135D01*
X124595383Y-89559139D01*
X124595384Y-89559141D01*
X124670859Y-89634616D01*
X124708574Y-89651269D01*
X124720570Y-89656566D01*
X124773946Y-89701652D01*
X124794473Y-89768438D01*
X124775634Y-89835720D01*
X124723411Y-89882137D01*
X124720570Y-89883434D01*
X124670863Y-89905382D01*
X124670861Y-89905383D01*
X124670859Y-89905384D01*
X124670858Y-89905384D01*
X124670856Y-89905386D01*
X124595386Y-89980856D01*
X124588890Y-89990340D01*
X124585936Y-89988316D01*
X124553725Y-90026432D01*
X124486933Y-90046943D01*
X124419656Y-90028087D01*
X124380041Y-89984115D01*
X124379389Y-89984581D01*
X124375294Y-89978845D01*
X124374000Y-89977409D01*
X124373419Y-89976220D01*
X124373416Y-89976217D01*
X124373416Y-89976216D01*
X124286282Y-89889082D01*
X124175567Y-89834957D01*
X124103795Y-89824500D01*
X124103789Y-89824500D01*
X123596206Y-89824500D01*
X123524432Y-89834957D01*
X123413717Y-89889082D01*
X123326582Y-89976217D01*
X123276579Y-90078502D01*
X123272457Y-90086933D01*
X123262000Y-90158705D01*
X123262000Y-90158710D01*
X123262000Y-90722860D01*
X123242315Y-90789899D01*
X123241101Y-90791752D01*
X123236006Y-90799375D01*
X123236007Y-90799376D01*
X123226784Y-90813180D01*
X123226782Y-90813183D01*
X123190482Y-90867508D01*
X123186345Y-90877496D01*
X123142499Y-90931895D01*
X123076203Y-90953954D01*
X123008505Y-90936669D01*
X122984107Y-90917714D01*
X122968347Y-90901954D01*
X122968344Y-90901952D01*
X122968342Y-90901950D01*
X122855304Y-90844354D01*
X122855303Y-90844353D01*
X122855300Y-90844352D01*
X122730003Y-90824508D01*
X122729997Y-90824508D01*
X122604699Y-90844352D01*
X122604698Y-90844352D01*
X122539651Y-90877496D01*
X122491658Y-90901950D01*
X122491657Y-90901951D01*
X122491652Y-90901954D01*
X122401954Y-90991652D01*
X122401951Y-90991657D01*
X122401950Y-90991658D01*
X122382751Y-91029337D01*
X122344352Y-91104698D01*
X122344352Y-91104699D01*
X122324508Y-91229996D01*
X122324508Y-91230003D01*
X122344352Y-91355300D01*
X122344353Y-91355302D01*
X122355304Y-91376795D01*
X122368199Y-91445464D01*
X122341922Y-91510204D01*
X122284815Y-91550460D01*
X122269010Y-91554705D01*
X122251282Y-91558231D01*
X122251275Y-91558234D01*
X122201496Y-91591495D01*
X122201495Y-91591496D01*
X122168234Y-91641275D01*
X122168231Y-91641282D01*
X122159500Y-91685177D01*
X122159500Y-92475500D01*
X122139815Y-92542539D01*
X122087011Y-92588294D01*
X122041177Y-92598264D01*
X122041240Y-92598903D01*
X122035766Y-92599441D01*
X122035500Y-92599500D01*
X122035178Y-92599500D01*
X121991282Y-92608231D01*
X121991275Y-92608234D01*
X121941496Y-92641495D01*
X121941495Y-92641496D01*
X121908234Y-92691275D01*
X121908231Y-92691282D01*
X121899500Y-92735177D01*
X121899500Y-93426985D01*
X121879815Y-93494024D01*
X121827011Y-93539779D01*
X121799692Y-93548602D01*
X121751282Y-93558231D01*
X121751275Y-93558234D01*
X121701496Y-93591495D01*
X121701495Y-93591496D01*
X121668234Y-93641275D01*
X121668231Y-93641282D01*
X121659500Y-93685177D01*
X121659500Y-93949521D01*
X121639815Y-94016560D01*
X121623181Y-94037202D01*
X121541769Y-94118614D01*
X121473010Y-94187373D01*
X121454222Y-94202791D01*
X121441376Y-94211374D01*
X121426007Y-94234376D01*
X121426006Y-94234378D01*
X121408526Y-94260537D01*
X121380485Y-94302503D01*
X121380485Y-94302505D01*
X121374333Y-94333433D01*
X121374333Y-94333434D01*
X121359103Y-94409999D01*
X121362117Y-94425151D01*
X121364500Y-94449344D01*
X121364500Y-94708686D01*
X121344815Y-94775725D01*
X121310579Y-94810985D01*
X121302981Y-94816189D01*
X121226187Y-94892983D01*
X121182318Y-94992335D01*
X121182318Y-94992337D01*
X121179500Y-95016625D01*
X121179500Y-95383365D01*
X121179502Y-95383388D01*
X121182317Y-95407659D01*
X121182318Y-95407662D01*
X121226186Y-95507015D01*
X121226187Y-95507016D01*
X121302984Y-95583813D01*
X121402338Y-95627682D01*
X121426627Y-95630500D01*
X121853372Y-95630499D01*
X121877662Y-95627682D01*
X121935414Y-95602181D01*
X122004692Y-95593110D01*
X122067877Y-95622933D01*
X122104908Y-95682183D01*
X122109500Y-95715616D01*
X122109500Y-96023365D01*
X122109502Y-96023388D01*
X122112317Y-96047659D01*
X122112318Y-96047662D01*
X122156186Y-96147015D01*
X122156187Y-96147016D01*
X122232984Y-96223813D01*
X122332338Y-96267682D01*
X122356627Y-96270500D01*
X122723372Y-96270499D01*
X122747662Y-96267682D01*
X122847016Y-96223813D01*
X122923813Y-96147016D01*
X122923813Y-96147015D01*
X122931938Y-96138891D01*
X122934930Y-96141883D01*
X122971749Y-96111788D01*
X123041165Y-96103835D01*
X123103861Y-96134673D01*
X123107769Y-96139183D01*
X123108062Y-96138891D01*
X123116187Y-96147016D01*
X123192984Y-96223813D01*
X123292338Y-96267682D01*
X123316627Y-96270500D01*
X123683372Y-96270499D01*
X123707662Y-96267682D01*
X123807016Y-96223813D01*
X123883813Y-96147016D01*
X123927682Y-96047662D01*
X123930500Y-96023373D01*
X123930499Y-95976255D01*
X123950182Y-95909219D01*
X124002985Y-95863463D01*
X124072144Y-95853518D01*
X124135700Y-95882541D01*
X124142180Y-95888575D01*
X124211650Y-95958045D01*
X124211652Y-95958046D01*
X124211656Y-95958050D01*
X124324694Y-96015646D01*
X124324695Y-96015646D01*
X124324697Y-96015647D01*
X124449995Y-96035492D01*
X124449998Y-96035492D01*
X124450001Y-96035492D01*
X124575298Y-96015647D01*
X124575299Y-96015647D01*
X124575300Y-96015646D01*
X124575302Y-96015646D01*
X124688340Y-95958050D01*
X124778048Y-95868342D01*
X124835644Y-95755304D01*
X124849423Y-95668302D01*
X124879351Y-95605171D01*
X124938663Y-95568239D01*
X125008525Y-95569236D01*
X125066758Y-95607846D01*
X125074991Y-95618802D01*
X125091496Y-95643504D01*
X125091497Y-95643505D01*
X125109258Y-95655372D01*
X125141278Y-95676767D01*
X125141281Y-95676767D01*
X125141282Y-95676768D01*
X125185177Y-95685500D01*
X125185180Y-95685500D01*
X126714822Y-95685500D01*
X126758717Y-95676768D01*
X126758717Y-95676767D01*
X126758722Y-95676767D01*
X126808504Y-95643504D01*
X126841767Y-95593722D01*
X126850500Y-95549820D01*
X126850500Y-94970180D01*
X126850500Y-94970177D01*
X126841768Y-94926282D01*
X126841767Y-94926281D01*
X126841767Y-94926278D01*
X126808504Y-94876496D01*
X126808503Y-94876495D01*
X126758724Y-94843234D01*
X126758717Y-94843231D01*
X126714822Y-94834500D01*
X126714820Y-94834500D01*
X126205779Y-94834500D01*
X126138740Y-94814815D01*
X126092985Y-94762011D01*
X126083041Y-94692853D01*
X126112066Y-94629297D01*
X126149485Y-94600015D01*
X126153342Y-94598050D01*
X126243050Y-94508342D01*
X126300646Y-94395304D01*
X126300646Y-94395302D01*
X126300647Y-94395301D01*
X126300647Y-94395300D01*
X126320492Y-94270003D01*
X126320492Y-94269996D01*
X126300647Y-94144699D01*
X126300647Y-94144698D01*
X126283963Y-94111954D01*
X126243050Y-94031658D01*
X126243046Y-94031654D01*
X126243045Y-94031652D01*
X126153347Y-93941954D01*
X126153344Y-93941952D01*
X126153342Y-93941950D01*
X126040304Y-93884354D01*
X126040303Y-93884353D01*
X126040300Y-93884352D01*
X125915003Y-93864508D01*
X125914997Y-93864508D01*
X125789699Y-93884352D01*
X125789698Y-93884352D01*
X125714337Y-93922751D01*
X125676658Y-93941950D01*
X125676657Y-93941951D01*
X125676652Y-93941954D01*
X125586954Y-94031652D01*
X125586951Y-94031657D01*
X125529352Y-94144698D01*
X125529352Y-94144699D01*
X125509508Y-94269996D01*
X125509508Y-94270003D01*
X125529352Y-94395300D01*
X125529352Y-94395301D01*
X125536842Y-94410000D01*
X125586950Y-94508342D01*
X125586952Y-94508344D01*
X125586954Y-94508347D01*
X125676652Y-94598045D01*
X125676655Y-94598047D01*
X125676658Y-94598050D01*
X125680515Y-94600015D01*
X125684353Y-94603640D01*
X125684550Y-94603783D01*
X125684531Y-94603808D01*
X125731312Y-94647989D01*
X125748107Y-94715810D01*
X125725570Y-94781945D01*
X125670855Y-94825397D01*
X125624221Y-94834500D01*
X125185179Y-94834500D01*
X125182564Y-94835020D01*
X125181167Y-94834894D01*
X125179115Y-94835097D01*
X125179076Y-94834707D01*
X125112973Y-94828788D01*
X125070698Y-94801082D01*
X124756969Y-94487353D01*
X124723484Y-94426030D01*
X124722181Y-94419099D01*
X124705646Y-94314696D01*
X124648050Y-94201658D01*
X124648046Y-94201654D01*
X124648045Y-94201652D01*
X124558347Y-94111954D01*
X124558344Y-94111952D01*
X124558342Y-94111950D01*
X124445304Y-94054354D01*
X124445303Y-94054353D01*
X124445300Y-94054352D01*
X124320003Y-94034508D01*
X124319997Y-94034508D01*
X124194699Y-94054352D01*
X124194698Y-94054352D01*
X124119337Y-94092751D01*
X124081658Y-94111950D01*
X124081657Y-94111951D01*
X124081652Y-94111954D01*
X123991954Y-94201652D01*
X123991949Y-94201659D01*
X123974984Y-94234955D01*
X123927009Y-94285750D01*
X123859188Y-94302545D01*
X123793054Y-94280007D01*
X123749603Y-94225291D01*
X123740500Y-94178659D01*
X123740500Y-93685177D01*
X123729385Y-93629301D01*
X123730969Y-93628985D01*
X123725500Y-93601482D01*
X123725500Y-93489344D01*
X123727883Y-93465151D01*
X123730897Y-93449999D01*
X123724116Y-93415911D01*
X123724116Y-93415910D01*
X123709515Y-93342505D01*
X123666052Y-93277458D01*
X123648624Y-93251375D01*
X123635775Y-93242790D01*
X123616985Y-93227369D01*
X123536819Y-93147203D01*
X123503334Y-93085880D01*
X123500500Y-93059522D01*
X123500500Y-92773014D01*
X123520185Y-92705975D01*
X123572989Y-92660220D01*
X123600310Y-92651396D01*
X123604814Y-92650500D01*
X123604820Y-92650500D01*
X123648722Y-92641767D01*
X123698504Y-92608504D01*
X123731767Y-92558722D01*
X123734986Y-92542539D01*
X123740500Y-92514822D01*
X123740500Y-91685177D01*
X123729385Y-91629301D01*
X123730969Y-91628985D01*
X123725500Y-91601482D01*
X123725500Y-91449499D01*
X123745185Y-91382460D01*
X123797989Y-91336705D01*
X123849500Y-91325499D01*
X124103794Y-91325499D01*
X124175567Y-91315043D01*
X124286280Y-91260919D01*
X124373419Y-91173780D01*
X124427543Y-91063067D01*
X124438000Y-90991295D01*
X124437999Y-90721115D01*
X124457683Y-90654079D01*
X124510487Y-90608324D01*
X124579646Y-90598380D01*
X124643201Y-90627405D01*
X124649680Y-90633437D01*
X124670859Y-90654616D01*
X124670862Y-90654617D01*
X124670863Y-90654618D01*
X124768499Y-90697729D01*
X124768500Y-90697729D01*
X124768502Y-90697730D01*
X124792377Y-90700500D01*
X125247622Y-90700499D01*
X125271498Y-90697730D01*
X125369135Y-90654619D01*
X125369136Y-90654618D01*
X125369141Y-90654616D01*
X125444616Y-90579141D01*
X125487730Y-90481498D01*
X125490500Y-90457623D01*
X125490499Y-90400477D01*
X125510182Y-90333439D01*
X125526813Y-90312801D01*
X125632647Y-90206967D01*
X125693968Y-90173484D01*
X125700888Y-90172183D01*
X125805304Y-90155646D01*
X125809200Y-90153660D01*
X125814449Y-90152674D01*
X125814583Y-90152631D01*
X125814588Y-90152648D01*
X125877866Y-90140760D01*
X125942609Y-90167032D01*
X125982869Y-90224136D01*
X125989500Y-90264142D01*
X125989500Y-90728724D01*
X125987973Y-90748121D01*
X125987636Y-90750250D01*
X125984508Y-90769999D01*
X125984508Y-90770000D01*
X125988736Y-90796693D01*
X125988739Y-90796722D01*
X126004352Y-90895301D01*
X126018174Y-90922427D01*
X126061950Y-91008342D01*
X126061952Y-91008344D01*
X126061954Y-91008347D01*
X126151652Y-91098045D01*
X126151654Y-91098046D01*
X126151658Y-91098050D01*
X126264696Y-91155646D01*
X126264697Y-91155646D01*
X126264699Y-91155647D01*
X126389997Y-91175492D01*
X126390000Y-91175492D01*
X126411879Y-91172026D01*
X126431275Y-91170500D01*
X127572745Y-91170500D01*
X127639784Y-91190185D01*
X127660426Y-91206819D01*
X129153181Y-92699573D01*
X129186666Y-92760896D01*
X129189500Y-92787254D01*
X129189500Y-93183745D01*
X129169815Y-93250784D01*
X129117011Y-93296539D01*
X129047853Y-93306483D01*
X128984297Y-93277458D01*
X128977819Y-93271426D01*
X128133323Y-92426930D01*
X128099838Y-92365607D01*
X128098067Y-92355448D01*
X128086330Y-92266291D01*
X128040999Y-92156851D01*
X128030862Y-92132377D01*
X128030861Y-92132376D01*
X128030861Y-92132375D01*
X127942621Y-92017379D01*
X127827625Y-91929139D01*
X127827624Y-91929138D01*
X127827622Y-91929137D01*
X127693712Y-91873671D01*
X127693710Y-91873670D01*
X127693709Y-91873670D01*
X127585540Y-91859429D01*
X127550001Y-91854750D01*
X127549999Y-91854750D01*
X127406291Y-91873670D01*
X127406287Y-91873671D01*
X127272377Y-91929137D01*
X127217599Y-91971170D01*
X127157379Y-92017379D01*
X127157378Y-92017380D01*
X127157377Y-92017381D01*
X127072875Y-92127505D01*
X127016447Y-92168708D01*
X126946701Y-92172862D01*
X126885781Y-92138649D01*
X126853029Y-92076931D01*
X126850500Y-92052018D01*
X126850500Y-91720177D01*
X126841768Y-91676282D01*
X126841767Y-91676281D01*
X126841767Y-91676278D01*
X126808504Y-91626496D01*
X126801358Y-91621721D01*
X126758724Y-91593234D01*
X126758717Y-91593231D01*
X126714822Y-91584500D01*
X126714820Y-91584500D01*
X125185180Y-91584500D01*
X125185178Y-91584500D01*
X125141282Y-91593231D01*
X125141275Y-91593234D01*
X125091496Y-91626495D01*
X125056520Y-91678841D01*
X125002907Y-91723646D01*
X124977616Y-91731566D01*
X124968856Y-91733309D01*
X124968829Y-91733313D01*
X124882507Y-91750483D01*
X124882506Y-91750484D01*
X124882505Y-91750485D01*
X124814378Y-91796006D01*
X124814376Y-91796007D01*
X124800069Y-91805567D01*
X124791374Y-91811377D01*
X124782791Y-91824222D01*
X124767372Y-91843010D01*
X124487352Y-92123030D01*
X124426029Y-92156515D01*
X124419069Y-92157822D01*
X124314699Y-92174352D01*
X124314698Y-92174352D01*
X124239337Y-92212751D01*
X124201658Y-92231950D01*
X124201657Y-92231951D01*
X124201652Y-92231954D01*
X124111954Y-92321652D01*
X124111951Y-92321657D01*
X124054352Y-92434698D01*
X124054352Y-92434699D01*
X124034508Y-92559996D01*
X124034508Y-92560003D01*
X124054352Y-92685300D01*
X124054352Y-92685301D01*
X124057396Y-92691275D01*
X124111950Y-92798342D01*
X124111952Y-92798344D01*
X124111954Y-92798347D01*
X124201652Y-92888045D01*
X124201654Y-92888046D01*
X124201658Y-92888050D01*
X124314696Y-92945646D01*
X124314697Y-92945646D01*
X124314699Y-92945647D01*
X124439997Y-92965492D01*
X124440000Y-92965492D01*
X124440003Y-92965492D01*
X124565300Y-92945647D01*
X124565301Y-92945647D01*
X124565302Y-92945646D01*
X124565304Y-92945646D01*
X124678342Y-92888050D01*
X124768050Y-92798342D01*
X124825646Y-92685304D01*
X124842177Y-92580925D01*
X124872105Y-92517794D01*
X124876951Y-92512663D01*
X124962360Y-92427254D01*
X125023681Y-92393771D01*
X125093373Y-92398755D01*
X125118928Y-92411834D01*
X125125553Y-92416260D01*
X125141278Y-92426767D01*
X125141281Y-92426767D01*
X125141282Y-92426768D01*
X125185177Y-92435500D01*
X125185180Y-92435500D01*
X126714822Y-92435500D01*
X126758717Y-92426768D01*
X126758717Y-92426767D01*
X126758722Y-92426767D01*
X126808504Y-92393504D01*
X126808504Y-92393502D01*
X126811893Y-92391239D01*
X126878571Y-92370361D01*
X126945951Y-92388846D01*
X126992641Y-92440825D01*
X127003722Y-92478154D01*
X127012199Y-92542539D01*
X127013670Y-92553708D01*
X127013671Y-92553712D01*
X127069137Y-92687622D01*
X127069138Y-92687624D01*
X127069139Y-92687625D01*
X127157379Y-92802621D01*
X127272375Y-92890861D01*
X127406291Y-92946330D01*
X127495435Y-92958065D01*
X127559330Y-92986331D01*
X127566930Y-92993323D01*
X127935265Y-93361658D01*
X128303181Y-93729573D01*
X128336666Y-93790896D01*
X128339500Y-93817254D01*
X128339500Y-96085500D01*
X128319815Y-96152539D01*
X128267011Y-96198294D01*
X128215500Y-96209500D01*
X127765814Y-96209500D01*
X127765790Y-96209501D01*
X127739008Y-96209501D01*
X127717943Y-96216346D01*
X127699026Y-96220887D01*
X127677144Y-96224352D01*
X127677139Y-96224354D01*
X127657394Y-96234414D01*
X127639430Y-96241855D01*
X127618351Y-96248705D01*
X127600428Y-96261727D01*
X127583843Y-96271890D01*
X127564103Y-96281948D01*
X127558269Y-96287783D01*
X127541536Y-96304516D01*
X127541535Y-96304517D01*
X127084459Y-96761591D01*
X127023136Y-96795076D01*
X126953444Y-96790092D01*
X126897511Y-96748220D01*
X126888183Y-96733240D01*
X126887035Y-96731660D01*
X126887034Y-96731658D01*
X126887031Y-96731655D01*
X126887029Y-96731652D01*
X126797331Y-96641954D01*
X126797328Y-96641952D01*
X126797326Y-96641950D01*
X126684288Y-96584354D01*
X126684287Y-96584353D01*
X126684284Y-96584352D01*
X126558987Y-96564508D01*
X126558981Y-96564508D01*
X126433683Y-96584352D01*
X126433682Y-96584352D01*
X126358321Y-96622751D01*
X126320642Y-96641950D01*
X126320641Y-96641951D01*
X126320636Y-96641954D01*
X126230938Y-96731652D01*
X126230935Y-96731657D01*
X126230934Y-96731658D01*
X126226755Y-96739860D01*
X126173336Y-96844698D01*
X126173336Y-96844699D01*
X126153492Y-96969996D01*
X126153492Y-96970003D01*
X126173336Y-97095300D01*
X126173336Y-97095301D01*
X126179108Y-97106628D01*
X126230934Y-97208342D01*
X126230936Y-97208344D01*
X126230937Y-97208346D01*
X126247163Y-97224571D01*
X126280650Y-97285893D01*
X126283484Y-97312254D01*
X126283484Y-97619639D01*
X126281101Y-97643828D01*
X126279816Y-97650293D01*
X126247428Y-97712203D01*
X126186712Y-97746775D01*
X126138802Y-97748572D01*
X126098557Y-97742198D01*
X126050002Y-97734508D01*
X126050000Y-97734508D01*
X126049999Y-97734508D01*
X125924701Y-97754352D01*
X125924700Y-97754352D01*
X125867474Y-97783511D01*
X125811660Y-97811950D01*
X125811659Y-97811951D01*
X125811654Y-97811954D01*
X125721956Y-97901652D01*
X125721953Y-97901657D01*
X125721952Y-97901658D01*
X125702753Y-97939337D01*
X125664354Y-98014698D01*
X125664354Y-98014699D01*
X125647824Y-98119069D01*
X125617895Y-98182204D01*
X125613032Y-98187352D01*
X125393010Y-98407374D01*
X125374222Y-98422793D01*
X125361376Y-98431376D01*
X125361375Y-98431377D01*
X125358938Y-98435025D01*
X125305926Y-98479564D01*
X125222983Y-98516187D01*
X125172680Y-98566490D01*
X125111357Y-98599974D01*
X125041665Y-98594989D01*
X124997319Y-98566490D01*
X124937015Y-98506186D01*
X124837663Y-98462318D01*
X124813373Y-98459500D01*
X124386634Y-98459500D01*
X124386611Y-98459502D01*
X124362340Y-98462317D01*
X124362337Y-98462318D01*
X124262984Y-98506186D01*
X124186187Y-98582983D01*
X124138550Y-98690871D01*
X124135145Y-98689367D01*
X124107928Y-98733564D01*
X124044942Y-98763805D01*
X123975605Y-98755192D01*
X123968645Y-98751914D01*
X123966582Y-98750863D01*
X123913026Y-98723574D01*
X123862231Y-98675600D01*
X123845436Y-98607779D01*
X123858837Y-98556797D01*
X123915646Y-98445304D01*
X123917852Y-98431376D01*
X123935492Y-98320003D01*
X123935492Y-98319996D01*
X123915647Y-98194699D01*
X123915647Y-98194698D01*
X123899137Y-98162296D01*
X123858050Y-98081658D01*
X123858046Y-98081654D01*
X123858045Y-98081652D01*
X123841819Y-98065426D01*
X123808334Y-98004103D01*
X123805500Y-97977745D01*
X123805500Y-97679344D01*
X123807883Y-97655151D01*
X123808850Y-97650293D01*
X123810897Y-97640000D01*
X123809778Y-97634376D01*
X123797070Y-97570486D01*
X123796427Y-97567255D01*
X123789515Y-97532505D01*
X123778415Y-97515893D01*
X123758692Y-97486375D01*
X123740611Y-97459315D01*
X123740611Y-97459314D01*
X123740604Y-97459305D01*
X123728625Y-97441378D01*
X123728624Y-97441376D01*
X123728622Y-97441375D01*
X123728621Y-97441373D01*
X123715775Y-97432790D01*
X123696985Y-97417369D01*
X123242627Y-96963011D01*
X123227205Y-96944219D01*
X123218624Y-96931376D01*
X123218619Y-96931372D01*
X123195624Y-96916007D01*
X123195623Y-96916007D01*
X123195622Y-96916006D01*
X123166767Y-96896726D01*
X123166765Y-96896724D01*
X123137286Y-96877027D01*
X123127495Y-96870485D01*
X123127494Y-96870484D01*
X123127493Y-96870484D01*
X123127490Y-96870483D01*
X123041165Y-96853312D01*
X123041152Y-96853310D01*
X123020002Y-96849103D01*
X123020001Y-96849103D01*
X123020000Y-96849103D01*
X123004846Y-96852117D01*
X122980656Y-96854500D01*
X120985478Y-96854500D01*
X120918439Y-96834815D01*
X120897797Y-96818181D01*
X119512627Y-95433011D01*
X119497205Y-95414219D01*
X119488624Y-95401376D01*
X119488621Y-95401373D01*
X119470691Y-95389393D01*
X119470689Y-95389391D01*
X119470689Y-95389392D01*
X119470687Y-95389391D01*
X119465623Y-95386007D01*
X119465622Y-95386006D01*
X119410988Y-95349501D01*
X119410987Y-95349500D01*
X119397495Y-95340484D01*
X119397493Y-95340483D01*
X119311165Y-95323312D01*
X119311152Y-95323310D01*
X119290002Y-95319103D01*
X119290001Y-95319103D01*
X119290000Y-95319103D01*
X119274846Y-95322117D01*
X119250656Y-95324500D01*
X117389344Y-95324500D01*
X117365153Y-95322117D01*
X117350000Y-95319103D01*
X117349999Y-95319103D01*
X117349998Y-95319103D01*
X117242507Y-95340483D01*
X117242506Y-95340484D01*
X117211509Y-95361196D01*
X117174378Y-95386006D01*
X117174376Y-95386007D01*
X117160069Y-95395567D01*
X117151374Y-95401377D01*
X117142791Y-95414222D01*
X117127372Y-95433010D01*
X116894652Y-95665730D01*
X116833329Y-95699215D01*
X116763637Y-95694231D01*
X116707704Y-95652359D01*
X116691148Y-95613172D01*
X116688663Y-95613980D01*
X116685647Y-95604698D01*
X116684365Y-95602182D01*
X116628050Y-95491658D01*
X116628046Y-95491654D01*
X116628045Y-95491652D01*
X116558912Y-95422519D01*
X116525427Y-95361196D01*
X116530411Y-95291504D01*
X116558911Y-95247158D01*
X116575854Y-95230216D01*
X116633450Y-95117178D01*
X116633450Y-95117176D01*
X116633451Y-95117175D01*
X116633451Y-95117174D01*
X116653296Y-94991877D01*
X116653296Y-94991870D01*
X116633451Y-94866573D01*
X116633451Y-94866572D01*
X116621604Y-94843321D01*
X116575854Y-94753532D01*
X116575850Y-94753528D01*
X116575849Y-94753526D01*
X116486151Y-94663828D01*
X116486148Y-94663826D01*
X116486146Y-94663824D01*
X116373108Y-94606228D01*
X116373107Y-94606227D01*
X116373104Y-94606226D01*
X116247807Y-94586382D01*
X116247801Y-94586382D01*
X116122503Y-94606226D01*
X116122502Y-94606226D01*
X116054229Y-94641014D01*
X116009462Y-94663824D01*
X116009461Y-94663825D01*
X116009456Y-94663828D01*
X115919758Y-94753526D01*
X115919755Y-94753531D01*
X115919754Y-94753532D01*
X115916367Y-94760180D01*
X115862156Y-94866572D01*
X115862156Y-94866573D01*
X115845626Y-94970943D01*
X115815697Y-95034078D01*
X115810834Y-95039226D01*
X114815785Y-96034276D01*
X114754462Y-96067761D01*
X114684771Y-96062777D01*
X114628837Y-96020905D01*
X114604420Y-95955441D01*
X114604104Y-95946595D01*
X114604104Y-94402675D01*
X117155765Y-94402675D01*
X117175609Y-94527972D01*
X117175609Y-94527973D01*
X117175611Y-94527976D01*
X117233207Y-94641014D01*
X117233209Y-94641016D01*
X117233211Y-94641019D01*
X117322909Y-94730717D01*
X117322911Y-94730718D01*
X117322915Y-94730722D01*
X117435953Y-94788318D01*
X117435954Y-94788318D01*
X117435956Y-94788319D01*
X117561254Y-94808164D01*
X117561257Y-94808164D01*
X117561260Y-94808164D01*
X117686557Y-94788319D01*
X117686558Y-94788319D01*
X117686559Y-94788318D01*
X117686561Y-94788318D01*
X117799599Y-94730722D01*
X117889307Y-94641014D01*
X117946903Y-94527976D01*
X117946903Y-94527974D01*
X117946904Y-94527973D01*
X117946904Y-94527972D01*
X117966749Y-94402675D01*
X117966749Y-94402668D01*
X117946904Y-94277371D01*
X117946904Y-94277370D01*
X117938327Y-94260537D01*
X117889307Y-94164330D01*
X117889303Y-94164326D01*
X117889302Y-94164324D01*
X117799604Y-94074626D01*
X117799601Y-94074624D01*
X117799599Y-94074622D01*
X117686561Y-94017026D01*
X117686560Y-94017025D01*
X117686557Y-94017024D01*
X117561260Y-93997180D01*
X117561254Y-93997180D01*
X117435956Y-94017024D01*
X117435955Y-94017024D01*
X117365853Y-94052744D01*
X117322915Y-94074622D01*
X117322914Y-94074623D01*
X117322909Y-94074626D01*
X117233211Y-94164324D01*
X117233208Y-94164329D01*
X117175609Y-94277370D01*
X117175609Y-94277371D01*
X117155765Y-94402668D01*
X117155765Y-94402675D01*
X114604104Y-94402675D01*
X114604104Y-93074617D01*
X114358184Y-92750003D01*
X115044508Y-92750003D01*
X115064352Y-92875300D01*
X115064352Y-92875301D01*
X115072281Y-92890862D01*
X115121950Y-92988342D01*
X115121952Y-92988344D01*
X115121954Y-92988347D01*
X115211652Y-93078045D01*
X115211654Y-93078046D01*
X115211658Y-93078050D01*
X115324696Y-93135646D01*
X115324697Y-93135646D01*
X115324699Y-93135647D01*
X115449997Y-93155492D01*
X115450000Y-93155492D01*
X115450003Y-93155492D01*
X115575300Y-93135647D01*
X115575301Y-93135647D01*
X115575302Y-93135646D01*
X115575304Y-93135646D01*
X115688342Y-93078050D01*
X115778050Y-92988342D01*
X115835646Y-92875304D01*
X115835646Y-92875302D01*
X115835647Y-92875301D01*
X115835647Y-92875300D01*
X115855492Y-92750003D01*
X115855492Y-92749996D01*
X115835647Y-92624699D01*
X115835647Y-92624698D01*
X115827559Y-92608824D01*
X115778050Y-92511658D01*
X115778046Y-92511654D01*
X115778045Y-92511652D01*
X115688347Y-92421954D01*
X115688344Y-92421952D01*
X115688342Y-92421950D01*
X115575304Y-92364354D01*
X115575303Y-92364353D01*
X115575300Y-92364352D01*
X115450003Y-92344508D01*
X115449997Y-92344508D01*
X115324699Y-92364352D01*
X115324698Y-92364352D01*
X115249337Y-92402751D01*
X115211658Y-92421950D01*
X115211657Y-92421951D01*
X115211652Y-92421954D01*
X115121954Y-92511652D01*
X115121951Y-92511657D01*
X115121950Y-92511658D01*
X115108287Y-92538474D01*
X115064352Y-92624698D01*
X115064352Y-92624699D01*
X115044508Y-92749996D01*
X115044508Y-92750003D01*
X114358184Y-92750003D01*
X114175661Y-92509073D01*
X114150869Y-92443750D01*
X114150500Y-92434195D01*
X114150500Y-89690003D01*
X114934508Y-89690003D01*
X114954352Y-89815300D01*
X114954352Y-89815301D01*
X114972805Y-89851517D01*
X115011950Y-89928342D01*
X115011952Y-89928344D01*
X115011954Y-89928347D01*
X115101652Y-90018045D01*
X115101654Y-90018046D01*
X115101658Y-90018050D01*
X115214696Y-90075646D01*
X115214697Y-90075646D01*
X115214699Y-90075647D01*
X115339997Y-90095492D01*
X115340000Y-90095492D01*
X115340003Y-90095492D01*
X115465300Y-90075647D01*
X115465301Y-90075647D01*
X115465302Y-90075646D01*
X115465304Y-90075646D01*
X115578342Y-90018050D01*
X115668050Y-89928342D01*
X115723252Y-89820003D01*
X119654508Y-89820003D01*
X119674352Y-89945300D01*
X119674352Y-89945301D01*
X119690712Y-89977408D01*
X119731950Y-90058342D01*
X119731952Y-90058344D01*
X119731954Y-90058347D01*
X119821652Y-90148045D01*
X119821654Y-90148046D01*
X119821658Y-90148050D01*
X119934696Y-90205646D01*
X119934697Y-90205646D01*
X119934699Y-90205647D01*
X120059997Y-90225492D01*
X120060000Y-90225492D01*
X120060003Y-90225492D01*
X120185300Y-90205647D01*
X120185301Y-90205647D01*
X120185302Y-90205646D01*
X120185304Y-90205646D01*
X120298342Y-90148050D01*
X120388050Y-90058342D01*
X120445646Y-89945304D01*
X120445646Y-89945302D01*
X120445647Y-89945301D01*
X120445647Y-89945300D01*
X120465492Y-89820003D01*
X120465492Y-89819996D01*
X120445647Y-89694699D01*
X120445647Y-89694698D01*
X120432738Y-89669363D01*
X120388050Y-89581658D01*
X120388046Y-89581654D01*
X120388045Y-89581652D01*
X120298347Y-89491954D01*
X120298344Y-89491952D01*
X120298342Y-89491950D01*
X120185304Y-89434354D01*
X120185303Y-89434353D01*
X120185300Y-89434352D01*
X120060003Y-89414508D01*
X120059997Y-89414508D01*
X119934699Y-89434352D01*
X119934698Y-89434352D01*
X119859337Y-89472751D01*
X119821658Y-89491950D01*
X119821657Y-89491951D01*
X119821652Y-89491954D01*
X119731954Y-89581652D01*
X119731951Y-89581657D01*
X119674352Y-89694698D01*
X119674352Y-89694699D01*
X119654508Y-89819996D01*
X119654508Y-89820003D01*
X115723252Y-89820003D01*
X115725646Y-89815304D01*
X115725646Y-89815302D01*
X115725647Y-89815301D01*
X115725647Y-89815300D01*
X115745492Y-89690003D01*
X115745492Y-89689996D01*
X115725647Y-89564699D01*
X115725646Y-89564696D01*
X115722816Y-89559141D01*
X115668050Y-89451658D01*
X115668048Y-89451656D01*
X115668047Y-89451654D01*
X115578347Y-89361954D01*
X115578344Y-89361952D01*
X115578342Y-89361950D01*
X115465304Y-89304354D01*
X115465303Y-89304353D01*
X115465300Y-89304352D01*
X115340003Y-89284508D01*
X115339997Y-89284508D01*
X115214699Y-89304352D01*
X115214698Y-89304352D01*
X115154032Y-89335264D01*
X115101658Y-89361950D01*
X115101657Y-89361951D01*
X115101652Y-89361954D01*
X115011954Y-89451652D01*
X115011951Y-89451657D01*
X115011950Y-89451658D01*
X114999802Y-89475500D01*
X114954352Y-89564698D01*
X114954352Y-89564699D01*
X114934508Y-89689996D01*
X114934508Y-89690003D01*
X114150500Y-89690003D01*
X114150500Y-89106517D01*
X115799500Y-89106517D01*
X115808031Y-89160380D01*
X115814354Y-89200304D01*
X115871950Y-89313342D01*
X115871952Y-89313345D01*
X115961652Y-89403045D01*
X115961654Y-89403046D01*
X115961658Y-89403050D01*
X116073593Y-89460084D01*
X116074698Y-89460647D01*
X116168475Y-89475499D01*
X116168481Y-89475500D01*
X116931518Y-89475499D01*
X117025304Y-89460646D01*
X117138342Y-89403050D01*
X117228050Y-89313342D01*
X117285646Y-89200304D01*
X117285646Y-89200302D01*
X117285647Y-89200301D01*
X117300499Y-89106524D01*
X117300500Y-89106519D01*
X117300499Y-87793482D01*
X117285646Y-87699696D01*
X117228050Y-87586658D01*
X117228046Y-87586654D01*
X117228045Y-87586652D01*
X117138347Y-87496954D01*
X117138344Y-87496952D01*
X117138342Y-87496950D01*
X117061517Y-87457805D01*
X117025301Y-87439352D01*
X116931524Y-87424500D01*
X116168482Y-87424500D01*
X116087519Y-87437323D01*
X116074696Y-87439354D01*
X115961658Y-87496950D01*
X115961657Y-87496951D01*
X115961652Y-87496954D01*
X115871954Y-87586652D01*
X115871951Y-87586657D01*
X115871950Y-87586658D01*
X115863201Y-87603829D01*
X115814352Y-87699698D01*
X115799500Y-87793475D01*
X115799500Y-89106517D01*
X114150500Y-89106517D01*
X114150500Y-86997635D01*
X114170185Y-86930596D01*
X114213477Y-86889690D01*
X114462887Y-86748694D01*
X114462886Y-86748694D01*
X114463675Y-86748248D01*
X114781063Y-86569405D01*
X114786408Y-86566567D01*
X115122766Y-86398557D01*
X115441396Y-86241100D01*
X115446548Y-86238703D01*
X115790733Y-86088306D01*
X115791450Y-86087996D01*
X116118055Y-85948041D01*
X116123065Y-85946024D01*
X116474526Y-85813459D01*
X116475259Y-85813187D01*
X116809214Y-85691015D01*
X116814009Y-85689372D01*
X117171869Y-85574976D01*
X117172825Y-85574678D01*
X117512989Y-85470727D01*
X117517453Y-85469456D01*
X117880522Y-85373603D01*
X117882105Y-85373199D01*
X118227320Y-85287823D01*
X118231511Y-85286865D01*
X118598930Y-85209767D01*
X118600943Y-85209364D01*
X118950312Y-85142783D01*
X118954142Y-85142119D01*
X119325092Y-85083947D01*
X119327516Y-85083594D01*
X119679848Y-85036031D01*
X119683338Y-85035612D01*
X120056826Y-84996526D01*
X120059577Y-84996272D01*
X120414093Y-84967832D01*
X120417174Y-84967626D01*
X120792103Y-84947742D01*
X120795377Y-84947613D01*
X121146659Y-84938505D01*
X121214183Y-84956445D01*
G37*
%TD.AperFunction*%
%TA.AperFunction,Conductor*%
G36*
X122999309Y-85033994D02*
G01*
X123003637Y-85034510D01*
X123355978Y-85082896D01*
X123357440Y-85083108D01*
X123728663Y-85140027D01*
X123733313Y-85140832D01*
X124082433Y-85208194D01*
X124083724Y-85208452D01*
X124451482Y-85284313D01*
X124456345Y-85285421D01*
X124801443Y-85371606D01*
X124802141Y-85371784D01*
X125165690Y-85466439D01*
X125170824Y-85467897D01*
X125485718Y-85564915D01*
X125510499Y-85572550D01*
X125511341Y-85572813D01*
X125717124Y-85637822D01*
X125869296Y-85685895D01*
X125874775Y-85687768D01*
X126208319Y-85810656D01*
X126560481Y-85942115D01*
X126566161Y-85944399D01*
X126787848Y-86039996D01*
X126892157Y-86084977D01*
X127102746Y-86176143D01*
X127156447Y-86220841D01*
X127177458Y-86287476D01*
X127160841Y-86351986D01*
X126346595Y-87760810D01*
X126346046Y-87761441D01*
X126334467Y-87781712D01*
X126334413Y-87782120D01*
X126334414Y-87782123D01*
X126334487Y-87782218D01*
X126334564Y-87782318D01*
X126334666Y-87782450D01*
X126355803Y-87794646D01*
X126355968Y-87794703D01*
X126871995Y-88092631D01*
X128444707Y-89000636D01*
X128492923Y-89051203D01*
X128506033Y-89095115D01*
X128515274Y-89183407D01*
X128515276Y-89183424D01*
X128579409Y-89462999D01*
X128583339Y-89480131D01*
X128651790Y-89669363D01*
X128686889Y-89766396D01*
X128824397Y-90037988D01*
X128993816Y-90290873D01*
X128993828Y-90290890D01*
X129074467Y-90384355D01*
X129192684Y-90521375D01*
X129418030Y-90726041D01*
X129585253Y-90844354D01*
X129666533Y-90901861D01*
X129666543Y-90901867D01*
X129934529Y-91046244D01*
X129934531Y-91046245D01*
X130218064Y-91157055D01*
X130512933Y-91232654D01*
X130512937Y-91232654D01*
X130512942Y-91232656D01*
X130814813Y-91271933D01*
X130967016Y-91273119D01*
X131119212Y-91274305D01*
X131119212Y-91274304D01*
X131119219Y-91274305D01*
X131421665Y-91239737D01*
X131569322Y-91204323D01*
X131639102Y-91207829D01*
X131695911Y-91248505D01*
X131721710Y-91313437D01*
X131708308Y-91382010D01*
X131659961Y-91432451D01*
X131654540Y-91435386D01*
X131641658Y-91441949D01*
X131641652Y-91441954D01*
X131551954Y-91531652D01*
X131551951Y-91531657D01*
X131494352Y-91644698D01*
X131479274Y-91739899D01*
X131449344Y-91803033D01*
X131390032Y-91839964D01*
X131356806Y-91844500D01*
X131333018Y-91844500D01*
X131332993Y-91844502D01*
X131308096Y-91847389D01*
X131308092Y-91847390D01*
X131206175Y-91892390D01*
X131206170Y-91892393D01*
X131127393Y-91971170D01*
X131127390Y-91971175D01*
X131082391Y-92073088D01*
X131082391Y-92073090D01*
X131079500Y-92098007D01*
X131079500Y-92481983D01*
X131079502Y-92482006D01*
X131082389Y-92506903D01*
X131082390Y-92506907D01*
X131127390Y-92608824D01*
X131127393Y-92608829D01*
X131205883Y-92687319D01*
X131239368Y-92748642D01*
X131234384Y-92818334D01*
X131205884Y-92862679D01*
X131158184Y-92910380D01*
X131128841Y-92939723D01*
X131067517Y-92973207D01*
X130997826Y-92968222D01*
X130953479Y-92939722D01*
X130924143Y-92910386D01*
X130924141Y-92910384D01*
X130924138Y-92910383D01*
X130924136Y-92910381D01*
X130826500Y-92867270D01*
X130826501Y-92867270D01*
X130802623Y-92864500D01*
X130347384Y-92864500D01*
X130347361Y-92864502D01*
X130323504Y-92867269D01*
X130323501Y-92867269D01*
X130225864Y-92910380D01*
X130225856Y-92910386D01*
X130202181Y-92934062D01*
X130140858Y-92967547D01*
X130071166Y-92962563D01*
X130015233Y-92920691D01*
X129990816Y-92855227D01*
X129990500Y-92846381D01*
X129990500Y-92534080D01*
X129990499Y-92534065D01*
X129990499Y-92506568D01*
X129990499Y-92506567D01*
X129983653Y-92485501D01*
X129979111Y-92466580D01*
X129975646Y-92444696D01*
X129970551Y-92434696D01*
X129965586Y-92424952D01*
X129958140Y-92406974D01*
X129951297Y-92385913D01*
X129951296Y-92385912D01*
X129951296Y-92385910D01*
X129938269Y-92367981D01*
X129928104Y-92351392D01*
X129924196Y-92343722D01*
X129918050Y-92331658D01*
X129828342Y-92241950D01*
X129389425Y-91803033D01*
X128047813Y-90461419D01*
X128047782Y-90461390D01*
X128028342Y-90441950D01*
X128028340Y-90441949D01*
X128008600Y-90431890D01*
X127992014Y-90421726D01*
X127974090Y-90408704D01*
X127974091Y-90408704D01*
X127953018Y-90401857D01*
X127935045Y-90394412D01*
X127915307Y-90384355D01*
X127915304Y-90384354D01*
X127893418Y-90380887D01*
X127874507Y-90376346D01*
X127853439Y-90369501D01*
X127853434Y-90369500D01*
X127853433Y-90369500D01*
X127853429Y-90369500D01*
X127840592Y-90369500D01*
X127773553Y-90349815D01*
X127727798Y-90297011D01*
X127717854Y-90227853D01*
X127746879Y-90164297D01*
X127771408Y-90145102D01*
X127770450Y-90143783D01*
X127778335Y-90138053D01*
X127778342Y-90138050D01*
X127868050Y-90048342D01*
X127925646Y-89935304D01*
X127925646Y-89935302D01*
X127925647Y-89935301D01*
X127925647Y-89935300D01*
X127945492Y-89810003D01*
X127945492Y-89809996D01*
X127925647Y-89684699D01*
X127925647Y-89684698D01*
X127923508Y-89680500D01*
X127868050Y-89571658D01*
X127868046Y-89571654D01*
X127868045Y-89571652D01*
X127778347Y-89481954D01*
X127778344Y-89481952D01*
X127778342Y-89481950D01*
X127665304Y-89424354D01*
X127665303Y-89424353D01*
X127665300Y-89424352D01*
X127540003Y-89404508D01*
X127539997Y-89404508D01*
X127414699Y-89424352D01*
X127414698Y-89424352D01*
X127361111Y-89451657D01*
X127301658Y-89481950D01*
X127301657Y-89481951D01*
X127301652Y-89481954D01*
X127211954Y-89571652D01*
X127211951Y-89571657D01*
X127211950Y-89571658D01*
X127206855Y-89581658D01*
X127154352Y-89684698D01*
X127154352Y-89684699D01*
X127134508Y-89809996D01*
X127134508Y-89810003D01*
X127154352Y-89935300D01*
X127154352Y-89935301D01*
X127159449Y-89945304D01*
X127211950Y-90048342D01*
X127211952Y-90048344D01*
X127211954Y-90048347D01*
X127301652Y-90138045D01*
X127301655Y-90138047D01*
X127301658Y-90138050D01*
X127301660Y-90138051D01*
X127309550Y-90143783D01*
X127307692Y-90146339D01*
X127346497Y-90182986D01*
X127363294Y-90250807D01*
X127340759Y-90316943D01*
X127286045Y-90360396D01*
X127239408Y-90369500D01*
X126914500Y-90369500D01*
X126847461Y-90349815D01*
X126801706Y-90297011D01*
X126790500Y-90245500D01*
X126790500Y-88846568D01*
X126790500Y-88846567D01*
X126783652Y-88825491D01*
X126779111Y-88806578D01*
X126775646Y-88784696D01*
X126765588Y-88764958D01*
X126758140Y-88746976D01*
X126751296Y-88725910D01*
X126738271Y-88707982D01*
X126728106Y-88691394D01*
X126718049Y-88671656D01*
X126699825Y-88653433D01*
X126699807Y-88653413D01*
X125992813Y-87946419D01*
X125992782Y-87946390D01*
X125973342Y-87926950D01*
X125973340Y-87926949D01*
X125953600Y-87916890D01*
X125937014Y-87906726D01*
X125919090Y-87893704D01*
X125919091Y-87893704D01*
X125898018Y-87886857D01*
X125880045Y-87879412D01*
X125860307Y-87869355D01*
X125860304Y-87869354D01*
X125838418Y-87865887D01*
X125819507Y-87861346D01*
X125798439Y-87854501D01*
X125798434Y-87854500D01*
X125798433Y-87854500D01*
X125798429Y-87854500D01*
X125461298Y-87854500D01*
X125394259Y-87834815D01*
X125348504Y-87782011D01*
X125338560Y-87712853D01*
X125367585Y-87649297D01*
X125373617Y-87642819D01*
X125391117Y-87625319D01*
X125412608Y-87603828D01*
X125457609Y-87501909D01*
X125460500Y-87476991D01*
X125460499Y-87093010D01*
X125457609Y-87068095D01*
X125457609Y-87068092D01*
X125457607Y-87068088D01*
X125412608Y-86966172D01*
X125333828Y-86887392D01*
X125333825Y-86887390D01*
X125324347Y-86880898D01*
X125325980Y-86878514D01*
X125286026Y-86844755D01*
X125265510Y-86777965D01*
X125265500Y-86776423D01*
X125265500Y-86399344D01*
X125267883Y-86375151D01*
X125270897Y-86359999D01*
X125267194Y-86341384D01*
X125266338Y-86297793D01*
X125275492Y-86240000D01*
X125275492Y-86239996D01*
X125255647Y-86114699D01*
X125255647Y-86114698D01*
X125255646Y-86114696D01*
X125198050Y-86001658D01*
X125198046Y-86001654D01*
X125198045Y-86001652D01*
X125108347Y-85911954D01*
X125108344Y-85911952D01*
X125108342Y-85911950D01*
X124995304Y-85854354D01*
X124995303Y-85854353D01*
X124995300Y-85854352D01*
X124870003Y-85834508D01*
X124869997Y-85834508D01*
X124744699Y-85854352D01*
X124744698Y-85854352D01*
X124669337Y-85892751D01*
X124631658Y-85911950D01*
X124631657Y-85911951D01*
X124631655Y-85911951D01*
X124576700Y-85966907D01*
X124515376Y-86000391D01*
X124445685Y-85995406D01*
X124426855Y-85985300D01*
X124426801Y-85985408D01*
X124418107Y-85980978D01*
X124418106Y-85980977D01*
X124341814Y-85942104D01*
X124305065Y-85923379D01*
X124202100Y-85907072D01*
X124138966Y-85877143D01*
X124102034Y-85817832D01*
X124098324Y-85798883D01*
X124097585Y-85792509D01*
X124052206Y-85689735D01*
X123972765Y-85610294D01*
X123956314Y-85603030D01*
X123869992Y-85564915D01*
X123844865Y-85562000D01*
X123455143Y-85562000D01*
X123455117Y-85562002D01*
X123430012Y-85564913D01*
X123430008Y-85564915D01*
X123327235Y-85610293D01*
X123327234Y-85610294D01*
X123262681Y-85674848D01*
X123201358Y-85708333D01*
X123131666Y-85703349D01*
X123087319Y-85674848D01*
X123022767Y-85610296D01*
X123022765Y-85610294D01*
X123022762Y-85610293D01*
X123022760Y-85610291D01*
X122971039Y-85587454D01*
X122918024Y-85542911D01*
X122898624Y-85513877D01*
X122898621Y-85513874D01*
X122885775Y-85505291D01*
X122866985Y-85489870D01*
X122647626Y-85270511D01*
X122632204Y-85251719D01*
X122623623Y-85238876D01*
X122609169Y-85229218D01*
X122564364Y-85175607D01*
X122555657Y-85106282D01*
X122585811Y-85043254D01*
X122645254Y-85006534D01*
X122690542Y-85002746D01*
X122999309Y-85033994D01*
G37*
%TD.AperFunction*%
%TD*%
M02*
