%TF.GenerationSoftware,KiCad,Pcbnew,7.0.10*%
%TF.CreationDate,2025-12-17T19:57:45-05:00*%
%TF.ProjectId,MiniBot,4d696e69-426f-4742-9e6b-696361645f70,rev?*%
%TF.SameCoordinates,Original*%
%TF.FileFunction,Legend,Top*%
%TF.FilePolarity,Positive*%
%FSLAX46Y46*%
G04 Gerber Fmt 4.6, Leading zero omitted, Abs format (unit mm)*
G04 Created by KiCad (PCBNEW 7.0.10) date 2025-12-17 19:57:45*
%MOMM*%
%LPD*%
G01*
G04 APERTURE LIST*
%ADD10C,0.150000*%
%ADD11C,0.254000*%
%ADD12C,0.100000*%
%ADD13C,0.200000*%
%ADD14C,0.120000*%
%ADD15C,0.250000*%
G04 APERTURE END LIST*
D10*
X116499160Y-86939533D02*
X117108684Y-86939533D01*
X118099160Y-86939533D02*
X118708684Y-86939533D01*
X118403922Y-87244295D02*
X118403922Y-86634771D01*
X132204295Y-93477030D02*
X132204295Y-92981792D01*
X132204295Y-92981792D02*
X132509057Y-93248458D01*
X132509057Y-93248458D02*
X132509057Y-93134173D01*
X132509057Y-93134173D02*
X132547152Y-93057982D01*
X132547152Y-93057982D02*
X132585247Y-93019887D01*
X132585247Y-93019887D02*
X132661438Y-92981792D01*
X132661438Y-92981792D02*
X132851914Y-92981792D01*
X132851914Y-92981792D02*
X132928104Y-93019887D01*
X132928104Y-93019887D02*
X132966200Y-93057982D01*
X132966200Y-93057982D02*
X133004295Y-93134173D01*
X133004295Y-93134173D02*
X133004295Y-93362744D01*
X133004295Y-93362744D02*
X132966200Y-93438935D01*
X132966200Y-93438935D02*
X132928104Y-93477030D01*
X132470961Y-92715125D02*
X133004295Y-92524649D01*
X133004295Y-92524649D02*
X132470961Y-92334172D01*
X132204295Y-92105601D02*
X132204295Y-91610363D01*
X132204295Y-91610363D02*
X132509057Y-91877029D01*
X132509057Y-91877029D02*
X132509057Y-91762744D01*
X132509057Y-91762744D02*
X132547152Y-91686553D01*
X132547152Y-91686553D02*
X132585247Y-91648458D01*
X132585247Y-91648458D02*
X132661438Y-91610363D01*
X132661438Y-91610363D02*
X132851914Y-91610363D01*
X132851914Y-91610363D02*
X132928104Y-91648458D01*
X132928104Y-91648458D02*
X132966200Y-91686553D01*
X132966200Y-91686553D02*
X133004295Y-91762744D01*
X133004295Y-91762744D02*
X133004295Y-91991315D01*
X133004295Y-91991315D02*
X132966200Y-92067506D01*
X132966200Y-92067506D02*
X132928104Y-92105601D01*
X128815826Y-104345247D02*
X128930112Y-104383342D01*
X128930112Y-104383342D02*
X128968207Y-104421438D01*
X128968207Y-104421438D02*
X129006303Y-104497628D01*
X129006303Y-104497628D02*
X129006303Y-104611914D01*
X129006303Y-104611914D02*
X128968207Y-104688104D01*
X128968207Y-104688104D02*
X128930112Y-104726200D01*
X128930112Y-104726200D02*
X128853922Y-104764295D01*
X128853922Y-104764295D02*
X128549160Y-104764295D01*
X128549160Y-104764295D02*
X128549160Y-103964295D01*
X128549160Y-103964295D02*
X128815826Y-103964295D01*
X128815826Y-103964295D02*
X128892017Y-104002390D01*
X128892017Y-104002390D02*
X128930112Y-104040485D01*
X128930112Y-104040485D02*
X128968207Y-104116676D01*
X128968207Y-104116676D02*
X128968207Y-104192866D01*
X128968207Y-104192866D02*
X128930112Y-104269057D01*
X128930112Y-104269057D02*
X128892017Y-104307152D01*
X128892017Y-104307152D02*
X128815826Y-104345247D01*
X128815826Y-104345247D02*
X128549160Y-104345247D01*
X129501541Y-103964295D02*
X129653922Y-103964295D01*
X129653922Y-103964295D02*
X129730112Y-104002390D01*
X129730112Y-104002390D02*
X129806303Y-104078580D01*
X129806303Y-104078580D02*
X129844398Y-104230961D01*
X129844398Y-104230961D02*
X129844398Y-104497628D01*
X129844398Y-104497628D02*
X129806303Y-104650009D01*
X129806303Y-104650009D02*
X129730112Y-104726200D01*
X129730112Y-104726200D02*
X129653922Y-104764295D01*
X129653922Y-104764295D02*
X129501541Y-104764295D01*
X129501541Y-104764295D02*
X129425350Y-104726200D01*
X129425350Y-104726200D02*
X129349160Y-104650009D01*
X129349160Y-104650009D02*
X129311064Y-104497628D01*
X129311064Y-104497628D02*
X129311064Y-104230961D01*
X129311064Y-104230961D02*
X129349160Y-104078580D01*
X129349160Y-104078580D02*
X129425350Y-104002390D01*
X129425350Y-104002390D02*
X129501541Y-103964295D01*
X130339636Y-103964295D02*
X130492017Y-103964295D01*
X130492017Y-103964295D02*
X130568207Y-104002390D01*
X130568207Y-104002390D02*
X130644398Y-104078580D01*
X130644398Y-104078580D02*
X130682493Y-104230961D01*
X130682493Y-104230961D02*
X130682493Y-104497628D01*
X130682493Y-104497628D02*
X130644398Y-104650009D01*
X130644398Y-104650009D02*
X130568207Y-104726200D01*
X130568207Y-104726200D02*
X130492017Y-104764295D01*
X130492017Y-104764295D02*
X130339636Y-104764295D01*
X130339636Y-104764295D02*
X130263445Y-104726200D01*
X130263445Y-104726200D02*
X130187255Y-104650009D01*
X130187255Y-104650009D02*
X130149159Y-104497628D01*
X130149159Y-104497628D02*
X130149159Y-104230961D01*
X130149159Y-104230961D02*
X130187255Y-104078580D01*
X130187255Y-104078580D02*
X130263445Y-104002390D01*
X130263445Y-104002390D02*
X130339636Y-103964295D01*
X130911064Y-103964295D02*
X131368207Y-103964295D01*
X131139635Y-104764295D02*
X131139635Y-103964295D01*
X126148104Y-88313696D02*
X126186200Y-88351792D01*
X126186200Y-88351792D02*
X126224295Y-88466077D01*
X126224295Y-88466077D02*
X126224295Y-88542268D01*
X126224295Y-88542268D02*
X126186200Y-88656554D01*
X126186200Y-88656554D02*
X126110009Y-88732744D01*
X126110009Y-88732744D02*
X126033819Y-88770839D01*
X126033819Y-88770839D02*
X125881438Y-88808935D01*
X125881438Y-88808935D02*
X125767152Y-88808935D01*
X125767152Y-88808935D02*
X125614771Y-88770839D01*
X125614771Y-88770839D02*
X125538580Y-88732744D01*
X125538580Y-88732744D02*
X125462390Y-88656554D01*
X125462390Y-88656554D02*
X125424295Y-88542268D01*
X125424295Y-88542268D02*
X125424295Y-88466077D01*
X125424295Y-88466077D02*
X125462390Y-88351792D01*
X125462390Y-88351792D02*
X125500485Y-88313696D01*
X126224295Y-87970839D02*
X125424295Y-87970839D01*
X125805247Y-87970839D02*
X125805247Y-87513696D01*
X126224295Y-87513696D02*
X125424295Y-87513696D01*
X125462390Y-86713697D02*
X125424295Y-86789887D01*
X125424295Y-86789887D02*
X125424295Y-86904173D01*
X125424295Y-86904173D02*
X125462390Y-87018459D01*
X125462390Y-87018459D02*
X125538580Y-87094649D01*
X125538580Y-87094649D02*
X125614771Y-87132744D01*
X125614771Y-87132744D02*
X125767152Y-87170840D01*
X125767152Y-87170840D02*
X125881438Y-87170840D01*
X125881438Y-87170840D02*
X126033819Y-87132744D01*
X126033819Y-87132744D02*
X126110009Y-87094649D01*
X126110009Y-87094649D02*
X126186200Y-87018459D01*
X126186200Y-87018459D02*
X126224295Y-86904173D01*
X126224295Y-86904173D02*
X126224295Y-86827982D01*
X126224295Y-86827982D02*
X126186200Y-86713697D01*
X126186200Y-86713697D02*
X126148104Y-86675601D01*
X126148104Y-86675601D02*
X125881438Y-86675601D01*
X125881438Y-86675601D02*
X125881438Y-86827982D01*
X127395704Y-94356303D02*
X127776657Y-94089636D01*
X127395704Y-93899160D02*
X128195704Y-93899160D01*
X128195704Y-93899160D02*
X128195704Y-94203922D01*
X128195704Y-94203922D02*
X128157609Y-94280112D01*
X128157609Y-94280112D02*
X128119514Y-94318207D01*
X128119514Y-94318207D02*
X128043323Y-94356303D01*
X128043323Y-94356303D02*
X127929038Y-94356303D01*
X127929038Y-94356303D02*
X127852847Y-94318207D01*
X127852847Y-94318207D02*
X127814752Y-94280112D01*
X127814752Y-94280112D02*
X127776657Y-94203922D01*
X127776657Y-94203922D02*
X127776657Y-93899160D01*
X127433800Y-94661064D02*
X127395704Y-94775350D01*
X127395704Y-94775350D02*
X127395704Y-94965826D01*
X127395704Y-94965826D02*
X127433800Y-95042017D01*
X127433800Y-95042017D02*
X127471895Y-95080112D01*
X127471895Y-95080112D02*
X127548085Y-95118207D01*
X127548085Y-95118207D02*
X127624276Y-95118207D01*
X127624276Y-95118207D02*
X127700466Y-95080112D01*
X127700466Y-95080112D02*
X127738561Y-95042017D01*
X127738561Y-95042017D02*
X127776657Y-94965826D01*
X127776657Y-94965826D02*
X127814752Y-94813445D01*
X127814752Y-94813445D02*
X127852847Y-94737255D01*
X127852847Y-94737255D02*
X127890942Y-94699160D01*
X127890942Y-94699160D02*
X127967133Y-94661064D01*
X127967133Y-94661064D02*
X128043323Y-94661064D01*
X128043323Y-94661064D02*
X128119514Y-94699160D01*
X128119514Y-94699160D02*
X128157609Y-94737255D01*
X128157609Y-94737255D02*
X128195704Y-94813445D01*
X128195704Y-94813445D02*
X128195704Y-95003922D01*
X128195704Y-95003922D02*
X128157609Y-95118207D01*
X128195704Y-95346779D02*
X128195704Y-95803922D01*
X127395704Y-95575350D02*
X128195704Y-95575350D01*
D11*
X129552380Y-106593842D02*
X129733809Y-106654318D01*
X129733809Y-106654318D02*
X130036190Y-106654318D01*
X130036190Y-106654318D02*
X130157142Y-106593842D01*
X130157142Y-106593842D02*
X130217618Y-106533365D01*
X130217618Y-106533365D02*
X130278095Y-106412413D01*
X130278095Y-106412413D02*
X130278095Y-106291461D01*
X130278095Y-106291461D02*
X130217618Y-106170508D01*
X130217618Y-106170508D02*
X130157142Y-106110032D01*
X130157142Y-106110032D02*
X130036190Y-106049556D01*
X130036190Y-106049556D02*
X129794285Y-105989080D01*
X129794285Y-105989080D02*
X129673333Y-105928603D01*
X129673333Y-105928603D02*
X129612856Y-105868127D01*
X129612856Y-105868127D02*
X129552380Y-105747175D01*
X129552380Y-105747175D02*
X129552380Y-105626222D01*
X129552380Y-105626222D02*
X129612856Y-105505270D01*
X129612856Y-105505270D02*
X129673333Y-105444794D01*
X129673333Y-105444794D02*
X129794285Y-105384318D01*
X129794285Y-105384318D02*
X130096666Y-105384318D01*
X130096666Y-105384318D02*
X130278095Y-105444794D01*
X130701428Y-105384318D02*
X131487619Y-105384318D01*
X131487619Y-105384318D02*
X131064285Y-105868127D01*
X131064285Y-105868127D02*
X131245714Y-105868127D01*
X131245714Y-105868127D02*
X131366666Y-105928603D01*
X131366666Y-105928603D02*
X131427142Y-105989080D01*
X131427142Y-105989080D02*
X131487619Y-106110032D01*
X131487619Y-106110032D02*
X131487619Y-106412413D01*
X131487619Y-106412413D02*
X131427142Y-106533365D01*
X131427142Y-106533365D02*
X131366666Y-106593842D01*
X131366666Y-106593842D02*
X131245714Y-106654318D01*
X131245714Y-106654318D02*
X130882857Y-106654318D01*
X130882857Y-106654318D02*
X130761904Y-106593842D01*
X130761904Y-106593842D02*
X130701428Y-106533365D01*
X126463842Y-94602619D02*
X126524318Y-94421190D01*
X126524318Y-94421190D02*
X126524318Y-94118809D01*
X126524318Y-94118809D02*
X126463842Y-93997857D01*
X126463842Y-93997857D02*
X126403365Y-93937381D01*
X126403365Y-93937381D02*
X126282413Y-93876904D01*
X126282413Y-93876904D02*
X126161461Y-93876904D01*
X126161461Y-93876904D02*
X126040508Y-93937381D01*
X126040508Y-93937381D02*
X125980032Y-93997857D01*
X125980032Y-93997857D02*
X125919556Y-94118809D01*
X125919556Y-94118809D02*
X125859080Y-94360714D01*
X125859080Y-94360714D02*
X125798603Y-94481666D01*
X125798603Y-94481666D02*
X125738127Y-94542143D01*
X125738127Y-94542143D02*
X125617175Y-94602619D01*
X125617175Y-94602619D02*
X125496222Y-94602619D01*
X125496222Y-94602619D02*
X125375270Y-94542143D01*
X125375270Y-94542143D02*
X125314794Y-94481666D01*
X125314794Y-94481666D02*
X125254318Y-94360714D01*
X125254318Y-94360714D02*
X125254318Y-94058333D01*
X125254318Y-94058333D02*
X125314794Y-93876904D01*
X125375270Y-93393095D02*
X125314794Y-93332619D01*
X125314794Y-93332619D02*
X125254318Y-93211666D01*
X125254318Y-93211666D02*
X125254318Y-92909285D01*
X125254318Y-92909285D02*
X125314794Y-92788333D01*
X125314794Y-92788333D02*
X125375270Y-92727857D01*
X125375270Y-92727857D02*
X125496222Y-92667380D01*
X125496222Y-92667380D02*
X125617175Y-92667380D01*
X125617175Y-92667380D02*
X125798603Y-92727857D01*
X125798603Y-92727857D02*
X126524318Y-93453571D01*
X126524318Y-93453571D02*
X126524318Y-92667380D01*
D12*
%TO.C,S3*%
X128020000Y-106080000D02*
X128020000Y-106080000D01*
X128120000Y-106080000D02*
X128120000Y-106080000D01*
D13*
X129520000Y-105080000D02*
X131520000Y-105080000D01*
X129520000Y-107080000D02*
X131520000Y-107080000D01*
D12*
X128120000Y-106080000D02*
G75*
G03*
X128020000Y-106080000I-50000J0D01*
G01*
X128020000Y-106080000D02*
G75*
G03*
X128120000Y-106080000I50000J0D01*
G01*
%TO.C,S2*%
X125950000Y-91135000D02*
X125950000Y-91135000D01*
X125950000Y-91235000D02*
X125950000Y-91235000D01*
D13*
X126950000Y-92635000D02*
X126950000Y-94635000D01*
X124950000Y-92635000D02*
X124950000Y-94635000D01*
D12*
X125950000Y-91235000D02*
G75*
G03*
X125950000Y-91135000I0J50000D01*
G01*
X125950000Y-91135000D02*
G75*
G03*
X125950000Y-91235000I0J-50000D01*
G01*
%TO.C,S1*%
X134150000Y-101825000D02*
X134150000Y-96025000D01*
D13*
X129650000Y-101225000D02*
X129650000Y-101225000D01*
X129750000Y-101225000D02*
X129750000Y-101225000D01*
X129650000Y-101225000D02*
X129650000Y-101225000D01*
X129650000Y-101225000D02*
G75*
G03*
X129750000Y-101225000I50000J0D01*
G01*
X129750000Y-101225000D02*
G75*
G03*
X129650000Y-101225000I-50000J0D01*
G01*
X129650000Y-101225000D02*
G75*
G03*
X129750000Y-101225000I50000J0D01*
G01*
D14*
%TO.C,C21*%
X123970000Y-105350914D02*
X123970000Y-105566586D01*
X123250000Y-105350914D02*
X123250000Y-105566586D01*
%TO.C,C16*%
X117070000Y-99487836D02*
X117070000Y-99272164D01*
X117790000Y-99487836D02*
X117790000Y-99272164D01*
D15*
%TO.C,IC2*%
X124225000Y-91700000D02*
G75*
G03*
X123975000Y-91700000I-125000J0D01*
G01*
X123975000Y-91700000D02*
G75*
G03*
X124225000Y-91700000I125000J0D01*
G01*
D14*
%TO.C,R8*%
X121856359Y-98680000D02*
X122163641Y-98680000D01*
X121856359Y-99440000D02*
X122163641Y-99440000D01*
%TO.C,R22*%
X126550000Y-103725109D02*
X126550000Y-104032391D01*
X125790000Y-103725109D02*
X125790000Y-104032391D01*
%TO.C,R19*%
X115810000Y-105346359D02*
X115810000Y-105653641D01*
X115050000Y-105346359D02*
X115050000Y-105653641D01*
%TO.C,U3*%
X124260000Y-87512500D02*
X124260000Y-85712500D01*
X124260000Y-87512500D02*
X124260000Y-88312500D01*
X121140000Y-87512500D02*
X121140000Y-86712500D01*
X121140000Y-87512500D02*
X121140000Y-88312500D01*
%TO.C,R15*%
X127823641Y-99570000D02*
X127516359Y-99570000D01*
X127823641Y-98810000D02*
X127516359Y-98810000D01*
%TO.C,R14*%
X127506359Y-97870000D02*
X127813641Y-97870000D01*
X127506359Y-98630000D02*
X127813641Y-98630000D01*
%TO.C,R17*%
X130955000Y-92621359D02*
X130955000Y-92928641D01*
X130195000Y-92621359D02*
X130195000Y-92928641D01*
%TO.C,C9*%
X127582164Y-96960000D02*
X127797836Y-96960000D01*
X127582164Y-97680000D02*
X127797836Y-97680000D01*
%TO.C,R23*%
X122290000Y-105345109D02*
X122290000Y-105652391D01*
X121530000Y-105345109D02*
X121530000Y-105652391D01*
%TO.C,J1*%
X115615000Y-109635000D02*
X115615000Y-110785000D01*
X115615000Y-110785000D02*
X116665000Y-110785000D01*
X116665000Y-110785000D02*
X116665000Y-111775000D01*
X116785000Y-107665000D02*
X124665000Y-107665000D01*
X125835000Y-109635000D02*
X125835000Y-110785000D01*
X125835000Y-110785000D02*
X124785000Y-110785000D01*
D12*
%TO.C,D1*%
X131600000Y-91685000D02*
G75*
G03*
X131500000Y-91685000I-50000J0D01*
G01*
X131500000Y-91685000D02*
G75*
G03*
X131600000Y-91685000I50000J0D01*
G01*
D14*
%TO.C,C19*%
X125200000Y-99487836D02*
X125200000Y-99272164D01*
X125920000Y-99487836D02*
X125920000Y-99272164D01*
%TO.C,C15*%
X118030000Y-99497836D02*
X118030000Y-99282164D01*
X118750000Y-99497836D02*
X118750000Y-99282164D01*
%TO.C,C7*%
X121280000Y-95787836D02*
X121280000Y-95572164D01*
X122000000Y-95787836D02*
X122000000Y-95572164D01*
%TO.C,J2*%
X114490000Y-86990000D02*
X114490000Y-94810000D01*
X114490000Y-88590000D02*
X115410000Y-88590000D01*
X114490000Y-94810000D02*
X120610000Y-94810000D01*
X115250000Y-90950000D02*
X115250000Y-92550000D01*
X115250000Y-92550000D02*
X116250000Y-92550000D01*
X115410000Y-86990000D02*
X114490000Y-86990000D01*
X115410000Y-88590000D02*
X115410000Y-86990000D01*
X115690000Y-88590000D02*
X115410000Y-88590000D01*
X115690000Y-88590000D02*
X115690000Y-87375000D01*
X115750000Y-92550000D02*
X115750000Y-94810000D01*
X116250000Y-90950000D02*
X115250000Y-90950000D01*
X116250000Y-92550000D02*
X116250000Y-90950000D01*
X116250000Y-92550000D02*
X116250000Y-94810000D01*
X117050000Y-90450000D02*
X118050000Y-90450000D01*
X117050000Y-94810000D02*
X117050000Y-90450000D01*
X118050000Y-90450000D02*
X118050000Y-94810000D01*
X118850000Y-90950000D02*
X119850000Y-90950000D01*
X118850000Y-92550000D02*
X118850000Y-90950000D01*
X119690000Y-86990000D02*
X119690000Y-88590000D01*
X119690000Y-88590000D02*
X119410000Y-88590000D01*
X119850000Y-90950000D02*
X119850000Y-92550000D01*
X119850000Y-92550000D02*
X118850000Y-92550000D01*
X120610000Y-86990000D02*
X119690000Y-86990000D01*
X120610000Y-88590000D02*
X119690000Y-88590000D01*
X120610000Y-94810000D02*
X120610000Y-86990000D01*
%TO.C,R24*%
X119320000Y-100623641D02*
X119320000Y-100316359D01*
X120080000Y-100623641D02*
X120080000Y-100316359D01*
%TO.C,R25*%
X126840000Y-101673641D02*
X126840000Y-101366359D01*
X127600000Y-101673641D02*
X127600000Y-101366359D01*
%TO.C,R20*%
X127790000Y-101673641D02*
X127790000Y-101366359D01*
X128550000Y-101673641D02*
X128550000Y-101366359D01*
%TO.C,U4*%
X115480000Y-104040000D02*
X115480000Y-103565000D01*
X115955000Y-100820000D02*
X115480000Y-100820000D01*
X115955000Y-104040000D02*
X115480000Y-104040000D01*
X118225000Y-100820000D02*
X118700000Y-100820000D01*
X118225000Y-104040000D02*
X118700000Y-104040000D01*
X118700000Y-100820000D02*
X118700000Y-101295000D01*
X118700000Y-104040000D02*
X118700000Y-103565000D01*
%TO.C,C20*%
X124240000Y-99477836D02*
X124240000Y-99262164D01*
X124960000Y-99477836D02*
X124960000Y-99262164D01*
%TO.C,C22*%
X127762836Y-100485000D02*
X127547164Y-100485000D01*
X127762836Y-99765000D02*
X127547164Y-99765000D01*
%TO.C,C18*%
X120242836Y-99435000D02*
X120027164Y-99435000D01*
X120242836Y-98715000D02*
X120027164Y-98715000D01*
%TO.C,R18*%
X119200000Y-105416359D02*
X119200000Y-105723641D01*
X118440000Y-105416359D02*
X118440000Y-105723641D01*
%TO.C,C17*%
X117490000Y-105352164D02*
X117490000Y-105567836D01*
X116770000Y-105352164D02*
X116770000Y-105567836D01*
%TO.C,L1*%
X122387878Y-90015000D02*
X123187122Y-90015000D01*
X122387878Y-91135000D02*
X123187122Y-91135000D01*
%TO.C,R7*%
X119996359Y-97760000D02*
X120303641Y-97760000D01*
X119996359Y-98520000D02*
X120303641Y-98520000D01*
%TO.C,U5*%
X121960000Y-104038750D02*
X121960000Y-103563750D01*
X122435000Y-100818750D02*
X121960000Y-100818750D01*
X122435000Y-104038750D02*
X121960000Y-104038750D01*
X124705000Y-100818750D02*
X125180000Y-100818750D01*
X124705000Y-104038750D02*
X125180000Y-104038750D01*
X125180000Y-100818750D02*
X125180000Y-101293750D01*
X125180000Y-104038750D02*
X125180000Y-103563750D01*
%TO.C,C23*%
X122912164Y-95450000D02*
X123127836Y-95450000D01*
X122912164Y-96170000D02*
X123127836Y-96170000D01*
%TO.C,C4*%
X121882164Y-97770000D02*
X122097836Y-97770000D01*
X121882164Y-98490000D02*
X122097836Y-98490000D01*
%TO.C,R12*%
X125400000Y-89616359D02*
X125400000Y-89923641D01*
X124640000Y-89616359D02*
X124640000Y-89923641D01*
%TO.C,R16*%
X120270000Y-100623641D02*
X120270000Y-100316359D01*
X121030000Y-100623641D02*
X121030000Y-100316359D01*
D12*
%TO.C,D2*%
X125040000Y-86680000D02*
G75*
G03*
X124940000Y-86680000I-50000J0D01*
G01*
X124940000Y-86680000D02*
G75*
G03*
X125040000Y-86680000I50000J0D01*
G01*
%TD*%
M02*
