M48
; DRILL file {KiCad 7.0.10} date Wed Dec 17 19:57:42 2025
; FORMAT={-:-/ absolute / inch / decimal}
; #@! TF.CreationDate,2025-12-17T19:57:42-05:00
; #@! TF.GenerationSoftware,Kicad,Pcbnew,7.0.10
; #@! TF.FileFunction,Plated,1,4,PTH
FMAT,2
INCH
; #@! TA.AperFunction,Plated,PTH,ViaDrill
T1C0.0098
; #@! TA.AperFunction,Plated,PTH,ViaDrill
T2C0.0157
; #@! TA.AperFunction,Plated,PTH,ComponentDrill
T3C0.0295
%
G90
G05
T1
X4.5232Y-4.3319
X4.5409Y-3.5311
X4.5449Y-4.2039
X4.5453Y-3.6516
X4.5767Y-3.7398
X4.5787Y-3.7689
X4.5853Y-3.8142
X4.6161Y-3.8594
X4.6205Y-4.2728
X4.6205Y-4.3177
X4.6284Y-3.7166
X4.6285Y-4.1831
X4.6327Y-3.7972
X4.6391Y-3.8715
X4.6642Y-4.3102
X4.6795Y-3.963
X4.6807Y-4.2429
X4.6862Y-3.387
X4.6911Y-4.2087
X4.6969Y-4.3079
X4.6983Y-3.8003
X4.709Y-4.4144
X4.7213Y-4.0413
X4.7268Y-3.5362
X4.7329Y-4.0667
X4.7335Y-3.6437
X4.7508Y-4.0874
X4.752Y-3.3874
X4.7598Y-3.7941
X4.7624Y-4.3242
X4.7953Y-4.3228
X4.7967Y-4.197
X4.7987Y-4.2473
X4.8159Y-3.8459
X4.8224Y-3.7364
X4.8319Y-3.5917
X4.8602Y-3.9326
X4.8634Y-3.8709
X4.8693Y-4.2406
X4.872Y-3.9012
X4.8817Y-4.302
X4.889Y-3.398
X4.8945Y-3.7181
X4.8992Y-3.6441
X4.8996Y-3.765
X4.9098Y-4.3228
X4.9161Y-3.3953
X4.9232Y-4.3685
X4.9311Y-4.1516
X4.948Y-3.5343
X4.9573Y-3.7114
X4.9624Y-3.9687
X4.9626Y-3.8638
X4.9656Y-4.0179
X4.9661Y-4.139
X4.9826Y-3.8177
X4.9835Y-3.9079
X5.0213Y-3.5358
X5.0339Y-4.2311
X5.0394Y-4.2031
X5.0433Y-4.1441
X5.0941Y-3.7409
X5.0976Y-4.261
X5.0984Y-4.0406
X5.0984Y-3.9397
X5.1161Y-3.6114
X5.1555Y-4.135
X5.1906Y-4.2252
X5.1921Y-3.613
X5.2815Y-3.9055
T2
X4.6098Y-4.2091
X4.6307Y-3.5315
X4.8291Y-3.4902
X4.834Y-4.2438
X5.0217Y-3.6382
X5.161Y-3.9098
T3
X4.5886Y-3.4823
X4.6673Y-3.4823
M30
