M48
; DRILL file {KiCad 7.0.10} date Fri Dec 12 10:10:59 2025
; FORMAT={-:-/ absolute / inch / decimal}
; #@! TF.CreationDate,2025-12-12T10:10:59-05:00
; #@! TF.GenerationSoftware,Kicad,Pcbnew,7.0.10
; #@! TF.FileFunction,Plated,1,4,PTH
FMAT,2
INCH
; #@! TA.AperFunction,Plated,PTH,ViaDrill
T1C0.0098
; #@! TA.AperFunction,Plated,PTH,ViaDrill
T2C0.0138
; #@! TA.AperFunction,Plated,PTH,ViaDrill
T3C0.0157
; #@! TA.AperFunction,Plated,PTH,ComponentDrill
T4C0.0295
%
G90
G05
T1
X4.5571Y-4.3327
X4.562Y-3.5581
X4.5679Y-3.9862
X4.5768Y-3.9616
X4.5768Y-4.0768
X4.585Y-4.2204
X4.5998Y-3.9771
X4.6083Y-3.7648
X4.6106Y-3.9311
X4.6139Y-3.864
X4.6142Y-4.0295
X4.6152Y-4.3228
X4.6437Y-3.5482
X4.6447Y-4.2264
X4.6545Y-4.3209
X4.6644Y-3.7736
X4.6703Y-4.2264
X4.6772Y-3.3957
X4.7014Y-3.5847
X4.7116Y-3.7825
X4.7187Y-4.2313
X4.724Y-3.6339
X4.7372Y-3.7185
X4.7382Y-3.997
X4.753Y-3.749
X4.7677Y-4.0719
X4.7697Y-4.1909
X4.7726Y-4.3228
X4.812Y-4.3219
X4.8238Y-3.439
X4.8238Y-3.4774
X4.8327Y-4.2303
X4.8514Y-4.3228
X4.8602Y-4.0344
X4.8642Y-4.2303
X4.872Y-4.0079
X4.8832Y-3.9511
X4.8839Y-3.7894
X4.8845Y-3.8487
X4.8878Y-3.402
X4.8907Y-4.3228
X4.8974Y-3.8711
X4.8986Y-3.9281
X4.8996Y-3.8268
X4.8996Y-3.8976
X4.9331Y-4.3415
X4.9421Y-3.5622
X4.9445Y-3.5004
X4.9685Y-3.7175
X4.9715Y-3.873
X4.9744Y-3.9144
X4.9774Y-3.9439
X4.9783Y-4.1565
X4.9802Y-3.6038
X4.9902Y-4.0128
X4.998Y-3.8612
X5.0079Y-4.2274
X5.0128Y-3.8829
X5.0246Y-4.1004
X5.0253Y-4.2471
X5.0413Y-4.1909
X5.063Y-4.1398
X5.0797Y-4.2323
X5.0797Y-4.1909
X5.0817Y-3.7411
X5.0915Y-4.1437
X5.0961Y-3.8425
X5.0994Y-3.9016
X5.0994Y-3.9419
X5.1042Y-3.6127
X5.1093Y-4.251
X5.1152Y-4.2933
X5.1388Y-4.0719
X5.2175Y-3.623
X5.2323Y-3.7549
X5.2982Y-3.8848
T2
X4.814Y-3.5236
T3
X4.9783Y-3.753
X5.0148Y-3.7165
X5.1457Y-3.935
X5.1515Y-3.7224
X5.1811Y-3.8947
T4
X4.5886Y-3.4823
X4.6673Y-3.4823
M30
