%TF.GenerationSoftware,KiCad,Pcbnew,7.0.10*%
%TF.CreationDate,2025-12-12T10:11:07-05:00*%
%TF.ProjectId,MiniBot,4d696e69-426f-4742-9e6b-696361645f70,rev?*%
%TF.SameCoordinates,Original*%
%TF.FileFunction,Copper,L3,Inr*%
%TF.FilePolarity,Positive*%
%FSLAX46Y46*%
G04 Gerber Fmt 4.6, Leading zero omitted, Abs format (unit mm)*
G04 Created by KiCad (PCBNEW 7.0.10) date 2025-12-12 10:11:07*
%MOMM*%
%LPD*%
G01*
G04 APERTURE LIST*
G04 Aperture macros list*
%AMRoundRect*
0 Rectangle with rounded corners*
0 $1 Rounding radius*
0 $2 $3 $4 $5 $6 $7 $8 $9 X,Y pos of 4 corners*
0 Add a 4 corners polygon primitive as box body*
4,1,4,$2,$3,$4,$5,$6,$7,$8,$9,$2,$3,0*
0 Add four circle primitives for the rounded corners*
1,1,$1+$1,$2,$3*
1,1,$1+$1,$4,$5*
1,1,$1+$1,$6,$7*
1,1,$1+$1,$8,$9*
0 Add four rect primitives between the rounded corners*
20,1,$1+$1,$2,$3,$4,$5,0*
20,1,$1+$1,$4,$5,$6,$7,0*
20,1,$1+$1,$6,$7,$8,$9,0*
20,1,$1+$1,$8,$9,$2,$3,0*%
G04 Aperture macros list end*
%TA.AperFunction,ComponentPad*%
%ADD10RoundRect,0.250000X-0.350000X-0.625000X0.350000X-0.625000X0.350000X0.625000X-0.350000X0.625000X0*%
%TD*%
%TA.AperFunction,ComponentPad*%
%ADD11O,1.200000X1.750000*%
%TD*%
%TA.AperFunction,ViaPad*%
%ADD12C,0.500000*%
%TD*%
%TA.AperFunction,ViaPad*%
%ADD13C,0.800000*%
%TD*%
%TA.AperFunction,ViaPad*%
%ADD14C,0.600000*%
%TD*%
%TA.AperFunction,Conductor*%
%ADD15C,0.500000*%
%TD*%
%TA.AperFunction,Conductor*%
%ADD16C,0.250000*%
%TD*%
G04 APERTURE END LIST*
D10*
%TO.N,GND*%
%TO.C,J2*%
X116550000Y-88450000D03*
D11*
%TO.N,+BATT*%
X118550000Y-88450000D03*
%TD*%
D12*
%TO.N,GND*%
X123449994Y-102475000D03*
X129646246Y-91763181D03*
X128050000Y-106450000D03*
X134575000Y-98675000D03*
X126750000Y-101925000D03*
X126275000Y-98375000D03*
X124050000Y-96250000D03*
X132525000Y-92025000D03*
X119855000Y-107475000D03*
X120350000Y-101525000D03*
X117193000Y-98145000D03*
X117050000Y-95625000D03*
X115875000Y-90375000D03*
X119990000Y-92300000D03*
X126200000Y-94425000D03*
X129025000Y-107500000D03*
X129075000Y-95025000D03*
X130525000Y-103425000D03*
X116025000Y-101250000D03*
X122525000Y-87350000D03*
X116459403Y-107199048D03*
D13*
%TO.N,VDC*%
X131600000Y-98925000D03*
X126449981Y-95324981D03*
D12*
X116835653Y-101018523D03*
X126950000Y-98075000D03*
D14*
X122275000Y-89500002D03*
D12*
X129775000Y-107975000D03*
%TO.N,/USB+*%
X129525000Y-99100000D03*
X122750000Y-107450000D03*
%TO.N,/USB-*%
X123550000Y-107450000D03*
X127325000Y-98625000D03*
%TO.N,+3V3*%
X119675000Y-96075000D03*
X121149982Y-106449991D03*
X125530000Y-90480000D03*
X125300000Y-110275000D03*
X129025004Y-106449996D03*
X132900000Y-95375000D03*
X118800000Y-86250000D03*
X118475000Y-95850000D03*
X129925000Y-109050000D03*
X119416799Y-91051254D03*
X123750000Y-101800000D03*
X115750000Y-110050000D03*
%TO.N,/CC1*%
X129440000Y-97600000D03*
%TO.N,/CC2*%
X129525000Y-100125000D03*
D13*
%TO.N,+5V*%
X130700013Y-99950013D03*
D12*
X117950000Y-90125000D03*
D13*
X127375000Y-94400000D03*
D12*
%TO.N,/VSENSE*%
X124449998Y-97200000D03*
%TO.N,/RST*%
X126498311Y-91537650D03*
%TO.N,/GPIO9*%
X124065642Y-97757878D03*
%TO.N,/GPIO8*%
X129325000Y-105250000D03*
%TO.N,/GPIO2*%
X120725000Y-95225000D03*
%TO.N,Net-(D2-K)*%
X125590000Y-88910000D03*
%TO.N,+BATT*%
X122525000Y-88325000D03*
D13*
X130848442Y-94549299D03*
D12*
%TO.N,/M0_A1*%
X121100000Y-103425000D03*
X117225000Y-109800000D03*
%TO.N,/M0_A2*%
X118225000Y-109750000D03*
X117110510Y-99850000D03*
%TO.N,/M1_B1*%
X121225000Y-109800000D03*
X127625000Y-104150000D03*
%TO.N,/M1_B2*%
X126450000Y-105575000D03*
X122225000Y-109775000D03*
%TO.N,/M0_B1*%
X123225000Y-109800000D03*
X116250000Y-103550000D03*
%TO.N,/M0_B2*%
X117200000Y-102350000D03*
X124225000Y-109800000D03*
%TO.N,Net-(U3-STAT)*%
X124150000Y-86410000D03*
%TO.N,/VREF*%
X128600000Y-105150000D03*
X116250000Y-100625000D03*
%TO.N,/SDA*%
X127200000Y-107375000D03*
%TO.N,/SCL*%
X127643669Y-107875278D03*
%TO.N,/M_EN*%
X117975000Y-107350000D03*
X126425000Y-100175000D03*
%TO.N,/M_RST*%
X120325000Y-94450000D03*
X126350000Y-99425000D03*
X118625000Y-107350000D03*
%TO.N,/M0_STEP*%
X124392828Y-98324968D03*
%TO.N,/M0_DIR*%
X124450000Y-99000000D03*
%TO.N,/M1_STEP*%
X124425000Y-99775000D03*
%TO.N,/M1_DIR*%
X124032628Y-100357628D03*
%TD*%
D15*
%TO.N,VDC*%
X122275000Y-92525000D02*
X122275000Y-89500002D01*
X125074981Y-95324981D02*
X122275000Y-92525000D01*
X126449981Y-95324981D02*
X125074981Y-95324981D01*
X127250000Y-97775000D02*
X126950000Y-98075000D01*
D16*
X118175000Y-101600000D02*
X118175000Y-103700000D01*
X128300000Y-108075000D02*
X129675000Y-108075000D01*
X124750000Y-105025000D02*
X125300000Y-105575000D01*
D15*
X130300000Y-98300000D02*
X128500000Y-98300000D01*
D16*
X117593523Y-101018523D02*
X118175000Y-101600000D01*
D15*
X128500000Y-98300000D02*
X127975000Y-97775000D01*
X127975000Y-97775000D02*
X127250000Y-97775000D01*
D16*
X127950000Y-108425000D02*
X128300000Y-108075000D01*
X118175000Y-103700000D02*
X119500000Y-105025000D01*
X119500000Y-105025000D02*
X124750000Y-105025000D01*
D15*
X127975000Y-97775000D02*
X127975000Y-96850000D01*
D16*
X129675000Y-108075000D02*
X129775000Y-107975000D01*
D15*
X130925000Y-98925000D02*
X130300000Y-98300000D01*
D16*
X116835653Y-101018523D02*
X117593523Y-101018523D01*
X127225000Y-108425000D02*
X127950000Y-108425000D01*
D15*
X131600000Y-98925000D02*
X130925000Y-98925000D01*
X127975000Y-96850000D02*
X126449981Y-95324981D01*
D16*
X125300000Y-106500000D02*
X127225000Y-108425000D01*
X125300000Y-105575000D02*
X125300000Y-106500000D01*
%TO.N,/M0_B1*%
X119725000Y-105975000D02*
X118675000Y-105975000D01*
X118675000Y-105975000D02*
X116250000Y-103550000D01*
X123225000Y-109800000D02*
X123225000Y-109475000D01*
X123225000Y-109475000D02*
X119725000Y-105975000D01*
%TO.N,/M0_B2*%
X116475000Y-102350000D02*
X117200000Y-102350000D01*
X120625000Y-110225000D02*
X120625000Y-107500000D01*
X124225000Y-109800000D02*
X123200000Y-110825000D01*
X123200000Y-110825000D02*
X121225000Y-110825000D01*
X118362500Y-106425000D02*
X115725000Y-103787500D01*
X121225000Y-110825000D02*
X120625000Y-110225000D01*
X119550000Y-106425000D02*
X118362500Y-106425000D01*
X120625000Y-107500000D02*
X119550000Y-106425000D01*
X115725000Y-103100000D02*
X116475000Y-102350000D01*
X115725000Y-103787500D02*
X115725000Y-103100000D01*
%TO.N,/VREF*%
X128600000Y-104300000D02*
X128600000Y-105150000D01*
X126700000Y-103625000D02*
X127925000Y-103625000D01*
X125800000Y-104525000D02*
X126700000Y-103625000D01*
X116400000Y-100475000D02*
X117775000Y-100475000D01*
X117775000Y-100475000D02*
X118750000Y-101450000D01*
X119700000Y-104525000D02*
X125800000Y-104525000D01*
X118750000Y-101450000D02*
X118750000Y-103575000D01*
X116250000Y-100625000D02*
X116400000Y-100475000D01*
X127925000Y-103625000D02*
X128600000Y-104300000D01*
X118750000Y-103575000D02*
X119700000Y-104525000D01*
%TD*%
%TA.AperFunction,Conductor*%
%TO.N,+3V3*%
G36*
X121532590Y-84937768D02*
G01*
X121887996Y-84947796D01*
X121890440Y-84947891D01*
X122265436Y-84966499D01*
X122269399Y-84966761D01*
X122623711Y-84996002D01*
X122625770Y-84996191D01*
X122999316Y-85033995D01*
X123003637Y-85034510D01*
X123355978Y-85082896D01*
X123357440Y-85083108D01*
X123728663Y-85140027D01*
X123733313Y-85140832D01*
X124082433Y-85208194D01*
X124083724Y-85208452D01*
X124451482Y-85284313D01*
X124456345Y-85285421D01*
X124801443Y-85371606D01*
X124802141Y-85371784D01*
X125165690Y-85466439D01*
X125170824Y-85467897D01*
X125510499Y-85572550D01*
X125511341Y-85572813D01*
X125741088Y-85645392D01*
X125869296Y-85685895D01*
X125874775Y-85687768D01*
X126208319Y-85810656D01*
X126560481Y-85942115D01*
X126566161Y-85944399D01*
X126751570Y-86024352D01*
X126892157Y-86084977D01*
X127102746Y-86176143D01*
X127156447Y-86220841D01*
X127177458Y-86287476D01*
X127160841Y-86351986D01*
X126346595Y-87760810D01*
X126346046Y-87761441D01*
X126334467Y-87781712D01*
X126334413Y-87782120D01*
X126334414Y-87782123D01*
X126334487Y-87782218D01*
X126334564Y-87782318D01*
X126334666Y-87782450D01*
X126355803Y-87794646D01*
X126355968Y-87794703D01*
X126938956Y-88131291D01*
X128444707Y-89000636D01*
X128492923Y-89051203D01*
X128506033Y-89095115D01*
X128515274Y-89183411D01*
X128515276Y-89183424D01*
X128580815Y-89469129D01*
X128583339Y-89480131D01*
X128636910Y-89628228D01*
X128686889Y-89766396D01*
X128824397Y-90037988D01*
X128993816Y-90290873D01*
X128993828Y-90290890D01*
X129056338Y-90363342D01*
X129192684Y-90521375D01*
X129418030Y-90726041D01*
X129639403Y-90882666D01*
X129666533Y-90901861D01*
X129666543Y-90901867D01*
X129934529Y-91046244D01*
X129934531Y-91046245D01*
X130218064Y-91157055D01*
X130512933Y-91232654D01*
X130512937Y-91232654D01*
X130512942Y-91232656D01*
X130814813Y-91271933D01*
X130967016Y-91273119D01*
X131119212Y-91274305D01*
X131119212Y-91274304D01*
X131119219Y-91274305D01*
X131421665Y-91239737D01*
X131717686Y-91168740D01*
X132002909Y-91062362D01*
X132273124Y-90922175D01*
X132524340Y-90750247D01*
X132533758Y-90741963D01*
X132597094Y-90712469D01*
X132666324Y-90721898D01*
X132717521Y-90764371D01*
X132950997Y-91100773D01*
X132970927Y-91129488D01*
X132970962Y-91129594D01*
X132970988Y-91129577D01*
X133046720Y-91238896D01*
X133050150Y-91244124D01*
X133284314Y-91621450D01*
X133284404Y-91621768D01*
X133284482Y-91621721D01*
X133431157Y-91859429D01*
X133434203Y-91864647D01*
X133634783Y-92228236D01*
X133635038Y-92228701D01*
X133782710Y-92499109D01*
X133785383Y-92504290D01*
X133961640Y-92866550D01*
X133961963Y-92867218D01*
X134100442Y-93156217D01*
X134102754Y-93161337D01*
X134257553Y-93525911D01*
X134257923Y-93526791D01*
X134383502Y-93828991D01*
X134385467Y-93834027D01*
X134519894Y-94202022D01*
X134520289Y-94203119D01*
X134631109Y-94515572D01*
X134632732Y-94520470D01*
X134692004Y-94712800D01*
X134747271Y-94892137D01*
X134747669Y-94893456D01*
X134842585Y-95214062D01*
X134843903Y-95218867D01*
X134938739Y-95593954D01*
X134939119Y-95595498D01*
X135017382Y-95922637D01*
X135018402Y-95927296D01*
X135093580Y-96305236D01*
X135093919Y-96307007D01*
X135155005Y-96639271D01*
X135155747Y-96643768D01*
X135211298Y-97024038D01*
X135211573Y-97026033D01*
X135255108Y-97362130D01*
X135255590Y-97366449D01*
X135291484Y-97748145D01*
X135291673Y-97750364D01*
X135317406Y-98089167D01*
X135317650Y-98093294D01*
X135333898Y-98475685D01*
X135333978Y-98478122D01*
X135341738Y-98818424D01*
X135341765Y-98822346D01*
X135338390Y-99204635D01*
X135338338Y-99207285D01*
X135328048Y-99547870D01*
X135327881Y-99551576D01*
X135304926Y-99932906D01*
X135304721Y-99935761D01*
X135276376Y-100275631D01*
X135276036Y-100279112D01*
X135233582Y-100658562D01*
X135233202Y-100661613D01*
X135186876Y-100999605D01*
X135186387Y-101002855D01*
X135124543Y-101379567D01*
X135123968Y-101382802D01*
X135059791Y-101717915D01*
X135059175Y-101720928D01*
X134978088Y-102094012D01*
X134977297Y-102097418D01*
X134895501Y-102428482D01*
X134894783Y-102431253D01*
X134794611Y-102799924D01*
X134793584Y-102803490D01*
X134694435Y-103129511D01*
X134693637Y-103132038D01*
X134574610Y-103495346D01*
X134573330Y-103499054D01*
X134457198Y-103818951D01*
X134456344Y-103821234D01*
X134318674Y-104178406D01*
X134317123Y-104182238D01*
X134184424Y-104495019D01*
X134183536Y-104497061D01*
X134027487Y-104847256D01*
X134025649Y-104851194D01*
X133876932Y-105155756D01*
X133876033Y-105157559D01*
X133701828Y-105500090D01*
X133699688Y-105504114D01*
X133535632Y-105799312D01*
X133534745Y-105800881D01*
X133342617Y-106135056D01*
X133340160Y-106139145D01*
X133161394Y-106424120D01*
X133160540Y-106425461D01*
X132950798Y-106750481D01*
X132948013Y-106754613D01*
X132755613Y-107027993D01*
X132754814Y-107029115D01*
X132527425Y-107344701D01*
X132524301Y-107348851D01*
X132319425Y-107609443D01*
X132318700Y-107610356D01*
X132073661Y-107916073D01*
X132070189Y-107920217D01*
X131854511Y-108166487D01*
X131853879Y-108167202D01*
X131590725Y-108463060D01*
X131586897Y-108467172D01*
X131363322Y-108696693D01*
X131362803Y-108697223D01*
X131079919Y-108984175D01*
X131075729Y-108988230D01*
X130849417Y-109197173D01*
X130849028Y-109197531D01*
X130542668Y-109477965D01*
X130538113Y-109481935D01*
X130323322Y-109660119D01*
X130323076Y-109660322D01*
X129980388Y-109943122D01*
X129975467Y-109946979D01*
X129868678Y-110026408D01*
X129868592Y-110026472D01*
X129511879Y-110291312D01*
X129446318Y-110315470D01*
X129378105Y-110300349D01*
X129330574Y-110253752D01*
X128512841Y-108837394D01*
X128512793Y-108837254D01*
X128512789Y-108837257D01*
X128500469Y-108815883D01*
X128500141Y-108815631D01*
X128500140Y-108815631D01*
X128500133Y-108815631D01*
X128499729Y-108815684D01*
X128479629Y-108827136D01*
X128478942Y-108827732D01*
X126356041Y-110053391D01*
X126355872Y-110053449D01*
X126355884Y-110053470D01*
X126334663Y-110065687D01*
X126334414Y-110066012D01*
X126334413Y-110066015D01*
X126334467Y-110066424D01*
X126346847Y-110087832D01*
X126346843Y-110087834D01*
X126346938Y-110087942D01*
X126931539Y-111100500D01*
X127160988Y-111497918D01*
X127177461Y-111565818D01*
X127154608Y-111631845D01*
X127102864Y-111673712D01*
X126916273Y-111754490D01*
X126916108Y-111754562D01*
X126565900Y-111905568D01*
X126560168Y-111907872D01*
X126219912Y-112034888D01*
X126219415Y-112035072D01*
X125874421Y-112162181D01*
X125868907Y-112164067D01*
X125518471Y-112274779D01*
X125517627Y-112275042D01*
X125170377Y-112382032D01*
X125165110Y-112383528D01*
X124807764Y-112476571D01*
X124806567Y-112476877D01*
X124455795Y-112564484D01*
X124450801Y-112565622D01*
X124088066Y-112640453D01*
X124086507Y-112640764D01*
X123732591Y-112709057D01*
X123727893Y-112709870D01*
X123361279Y-112766090D01*
X123359356Y-112766370D01*
X123002786Y-112815344D01*
X122998401Y-112815867D01*
X122628963Y-112853264D01*
X122626677Y-112853474D01*
X122268377Y-112883053D01*
X122264323Y-112883320D01*
X121893291Y-112901739D01*
X121890644Y-112901843D01*
X121531446Y-112911989D01*
X121527737Y-112912038D01*
X121156066Y-112911416D01*
X121153064Y-112911374D01*
X120793971Y-112902074D01*
X120790618Y-112901942D01*
X120419488Y-112882271D01*
X120416139Y-112882048D01*
X120058019Y-112853331D01*
X120055030Y-112853055D01*
X119685448Y-112814393D01*
X119681764Y-112813952D01*
X119325643Y-112765890D01*
X119323022Y-112765508D01*
X118955981Y-112707965D01*
X118951979Y-112707270D01*
X118598794Y-112639978D01*
X118596542Y-112639527D01*
X118233171Y-112563295D01*
X118228866Y-112562312D01*
X117879498Y-112475925D01*
X117877616Y-112475444D01*
X117518949Y-112380772D01*
X117514363Y-112379466D01*
X117169645Y-112274142D01*
X117168128Y-112273668D01*
X116815344Y-112160915D01*
X116810498Y-112159255D01*
X116471066Y-112035100D01*
X116469907Y-112034670D01*
X116133679Y-111907872D01*
X116124265Y-111904322D01*
X116119202Y-111902283D01*
X116028398Y-111863378D01*
X115785274Y-111759213D01*
X115784464Y-111758863D01*
X115447641Y-111611705D01*
X115442356Y-111609246D01*
X115112695Y-111446362D01*
X115112221Y-111446127D01*
X114787362Y-111283885D01*
X114781902Y-111280986D01*
X114441590Y-111089269D01*
X114441612Y-111089228D01*
X114441436Y-111089182D01*
X114213483Y-110960335D01*
X114164808Y-110910210D01*
X114150500Y-110852386D01*
X114150500Y-109800003D01*
X116819508Y-109800003D01*
X116839352Y-109925300D01*
X116839352Y-109925301D01*
X116839354Y-109925304D01*
X116896950Y-110038342D01*
X116896952Y-110038344D01*
X116896954Y-110038347D01*
X116986652Y-110128045D01*
X116986654Y-110128046D01*
X116986658Y-110128050D01*
X117099696Y-110185646D01*
X117099697Y-110185646D01*
X117099699Y-110185647D01*
X117224997Y-110205492D01*
X117225000Y-110205492D01*
X117225003Y-110205492D01*
X117350300Y-110185647D01*
X117350301Y-110185647D01*
X117350302Y-110185646D01*
X117350304Y-110185646D01*
X117463342Y-110128050D01*
X117553050Y-110038342D01*
X117610646Y-109925304D01*
X117611220Y-109921678D01*
X117613141Y-109917624D01*
X117613663Y-109916020D01*
X117613870Y-109916087D01*
X117641144Y-109858544D01*
X117700452Y-109821608D01*
X117770315Y-109822600D01*
X117828551Y-109861205D01*
X117844178Y-109884773D01*
X117896949Y-109988340D01*
X117896954Y-109988347D01*
X117986652Y-110078045D01*
X117986654Y-110078046D01*
X117986658Y-110078050D01*
X118099696Y-110135646D01*
X118099697Y-110135646D01*
X118099699Y-110135647D01*
X118224997Y-110155492D01*
X118225000Y-110155492D01*
X118225003Y-110155492D01*
X118350300Y-110135647D01*
X118350301Y-110135647D01*
X118350302Y-110135646D01*
X118350304Y-110135646D01*
X118463342Y-110078050D01*
X118553050Y-109988342D01*
X118610646Y-109875304D01*
X118610646Y-109875302D01*
X118610647Y-109875301D01*
X118610647Y-109875300D01*
X118630492Y-109750003D01*
X118630492Y-109749996D01*
X118610647Y-109624699D01*
X118610647Y-109624698D01*
X118604353Y-109612346D01*
X118553050Y-109511658D01*
X118553046Y-109511654D01*
X118553045Y-109511652D01*
X118463347Y-109421954D01*
X118463344Y-109421952D01*
X118463342Y-109421950D01*
X118350304Y-109364354D01*
X118350303Y-109364353D01*
X118350300Y-109364352D01*
X118225003Y-109344508D01*
X118224997Y-109344508D01*
X118099699Y-109364352D01*
X118099698Y-109364352D01*
X118024337Y-109402751D01*
X117986658Y-109421950D01*
X117986657Y-109421951D01*
X117986652Y-109421954D01*
X117896954Y-109511652D01*
X117896951Y-109511657D01*
X117896950Y-109511658D01*
X117871477Y-109561652D01*
X117839353Y-109624698D01*
X117838778Y-109628329D01*
X117836855Y-109632384D01*
X117836337Y-109633980D01*
X117836130Y-109633912D01*
X117808848Y-109691463D01*
X117749537Y-109728394D01*
X117679674Y-109727396D01*
X117621442Y-109688786D01*
X117605820Y-109665225D01*
X117553050Y-109561658D01*
X117553046Y-109561654D01*
X117553045Y-109561652D01*
X117463347Y-109471954D01*
X117463344Y-109471952D01*
X117463342Y-109471950D01*
X117350304Y-109414354D01*
X117350303Y-109414353D01*
X117350300Y-109414352D01*
X117225003Y-109394508D01*
X117224997Y-109394508D01*
X117099699Y-109414352D01*
X117099698Y-109414352D01*
X117055486Y-109436880D01*
X116986658Y-109471950D01*
X116986657Y-109471951D01*
X116986652Y-109471954D01*
X116896954Y-109561652D01*
X116896951Y-109561657D01*
X116896950Y-109561658D01*
X116877751Y-109599337D01*
X116839352Y-109674698D01*
X116839352Y-109674699D01*
X116819508Y-109799996D01*
X116819508Y-109800003D01*
X114150500Y-109800003D01*
X114150500Y-107638015D01*
X114157020Y-107598336D01*
X114157877Y-107595798D01*
X114291878Y-107199051D01*
X116053911Y-107199051D01*
X116073755Y-107324348D01*
X116073755Y-107324349D01*
X116084125Y-107344701D01*
X116131353Y-107437390D01*
X116131355Y-107437392D01*
X116131357Y-107437395D01*
X116221055Y-107527093D01*
X116221057Y-107527094D01*
X116221061Y-107527098D01*
X116334099Y-107584694D01*
X116334100Y-107584694D01*
X116334102Y-107584695D01*
X116459400Y-107604540D01*
X116459403Y-107604540D01*
X116459406Y-107604540D01*
X116584703Y-107584695D01*
X116584704Y-107584695D01*
X116584705Y-107584694D01*
X116584707Y-107584694D01*
X116697745Y-107527098D01*
X116787453Y-107437390D01*
X116831979Y-107350003D01*
X117569508Y-107350003D01*
X117589352Y-107475300D01*
X117589352Y-107475301D01*
X117601935Y-107499996D01*
X117646950Y-107588342D01*
X117646952Y-107588344D01*
X117646954Y-107588347D01*
X117736652Y-107678045D01*
X117736654Y-107678046D01*
X117736658Y-107678050D01*
X117849696Y-107735646D01*
X117849697Y-107735646D01*
X117849699Y-107735647D01*
X117974997Y-107755492D01*
X117975000Y-107755492D01*
X117975003Y-107755492D01*
X118100300Y-107735647D01*
X118100301Y-107735647D01*
X118100302Y-107735646D01*
X118100304Y-107735646D01*
X118213342Y-107678050D01*
X118213349Y-107678042D01*
X118221241Y-107672311D01*
X118222225Y-107673665D01*
X118273632Y-107645590D01*
X118343324Y-107650569D01*
X118378248Y-107673013D01*
X118378759Y-107672311D01*
X118386653Y-107678045D01*
X118386658Y-107678050D01*
X118499696Y-107735646D01*
X118499697Y-107735646D01*
X118499699Y-107735647D01*
X118624997Y-107755492D01*
X118625000Y-107755492D01*
X118625003Y-107755492D01*
X118750300Y-107735647D01*
X118750301Y-107735647D01*
X118750302Y-107735646D01*
X118750304Y-107735646D01*
X118863342Y-107678050D01*
X118953050Y-107588342D01*
X119010646Y-107475304D01*
X119010646Y-107475302D01*
X119010647Y-107475301D01*
X119010647Y-107475300D01*
X119030492Y-107350003D01*
X119030492Y-107349996D01*
X119010647Y-107224699D01*
X119010647Y-107224698D01*
X118997579Y-107199051D01*
X118953050Y-107111658D01*
X118953046Y-107111654D01*
X118953045Y-107111652D01*
X118863347Y-107021954D01*
X118863344Y-107021952D01*
X118863342Y-107021950D01*
X118750304Y-106964354D01*
X118750303Y-106964353D01*
X118750300Y-106964352D01*
X118640567Y-106946973D01*
X118628460Y-106941234D01*
X118624971Y-106943477D01*
X118609433Y-106946973D01*
X118499699Y-106964352D01*
X118499698Y-106964352D01*
X118433831Y-106997914D01*
X118386658Y-107021950D01*
X118386657Y-107021951D01*
X118378759Y-107027689D01*
X118377775Y-107026334D01*
X118326358Y-107054411D01*
X118256666Y-107049427D01*
X118221750Y-107026987D01*
X118221241Y-107027689D01*
X118213345Y-107021953D01*
X118213342Y-107021950D01*
X118100304Y-106964354D01*
X118100303Y-106964353D01*
X118100300Y-106964352D01*
X117975003Y-106944508D01*
X117974997Y-106944508D01*
X117849699Y-106964352D01*
X117849698Y-106964352D01*
X117783831Y-106997914D01*
X117736658Y-107021950D01*
X117736657Y-107021951D01*
X117736652Y-107021954D01*
X117646954Y-107111652D01*
X117646951Y-107111657D01*
X117646950Y-107111658D01*
X117634215Y-107136652D01*
X117589352Y-107224698D01*
X117589352Y-107224699D01*
X117569508Y-107349996D01*
X117569508Y-107350003D01*
X116831979Y-107350003D01*
X116845049Y-107324352D01*
X116845049Y-107324350D01*
X116845050Y-107324349D01*
X116845050Y-107324348D01*
X116864895Y-107199051D01*
X116864895Y-107199044D01*
X116845050Y-107073747D01*
X116845050Y-107073746D01*
X116845049Y-107073744D01*
X116787453Y-106960706D01*
X116787449Y-106960702D01*
X116787448Y-106960700D01*
X116697750Y-106871002D01*
X116697747Y-106871000D01*
X116697745Y-106870998D01*
X116584707Y-106813402D01*
X116584706Y-106813401D01*
X116584703Y-106813400D01*
X116459406Y-106793556D01*
X116459400Y-106793556D01*
X116334102Y-106813400D01*
X116334101Y-106813400D01*
X116258740Y-106851799D01*
X116221061Y-106870998D01*
X116221060Y-106870999D01*
X116221055Y-106871002D01*
X116131357Y-106960700D01*
X116131354Y-106960705D01*
X116131353Y-106960706D01*
X116116757Y-106989352D01*
X116073755Y-107073746D01*
X116073755Y-107073747D01*
X116053911Y-107199044D01*
X116053911Y-107199051D01*
X114291878Y-107199051D01*
X114604104Y-106274618D01*
X114604104Y-103787502D01*
X115444103Y-103787502D01*
X115448310Y-103808652D01*
X115448311Y-103808659D01*
X115465483Y-103894992D01*
X115465484Y-103894994D01*
X115465485Y-103894995D01*
X115476561Y-103911571D01*
X115476562Y-103911574D01*
X115509635Y-103961071D01*
X115526374Y-103986123D01*
X115530585Y-103988936D01*
X115539222Y-103994707D01*
X115558012Y-104010128D01*
X118139870Y-106591986D01*
X118155290Y-106610775D01*
X118163876Y-106623624D01*
X118181804Y-106635603D01*
X118181812Y-106635609D01*
X118186877Y-106638993D01*
X118186878Y-106638994D01*
X118255005Y-106684515D01*
X118255007Y-106684515D01*
X118255007Y-106684516D01*
X118362498Y-106705897D01*
X118362499Y-106705897D01*
X118362499Y-106705896D01*
X118362500Y-106705897D01*
X118377653Y-106702882D01*
X118401844Y-106700500D01*
X118590036Y-106700500D01*
X118623825Y-106710421D01*
X118644071Y-106701523D01*
X118659964Y-106700500D01*
X119384522Y-106700500D01*
X119451561Y-106720185D01*
X119472203Y-106736819D01*
X119671975Y-106936591D01*
X119705460Y-106997914D01*
X119700476Y-107067606D01*
X119658604Y-107123539D01*
X119640593Y-107134754D01*
X119628628Y-107140850D01*
X119616657Y-107146950D01*
X119616652Y-107146954D01*
X119526954Y-107236652D01*
X119526951Y-107236657D01*
X119526950Y-107236658D01*
X119514215Y-107261652D01*
X119469352Y-107349698D01*
X119469352Y-107349699D01*
X119449508Y-107474996D01*
X119449508Y-107475003D01*
X119469352Y-107600300D01*
X119469352Y-107600301D01*
X119479696Y-107620601D01*
X119526950Y-107713342D01*
X119526952Y-107713344D01*
X119526954Y-107713347D01*
X119616652Y-107803045D01*
X119616654Y-107803046D01*
X119616658Y-107803050D01*
X119729696Y-107860646D01*
X119729697Y-107860646D01*
X119729699Y-107860647D01*
X119854997Y-107880492D01*
X119855000Y-107880492D01*
X119855003Y-107880492D01*
X119980300Y-107860647D01*
X119980301Y-107860647D01*
X119980302Y-107860646D01*
X119980304Y-107860646D01*
X120093342Y-107803050D01*
X120104185Y-107792207D01*
X120137819Y-107758574D01*
X120199142Y-107725089D01*
X120268834Y-107730073D01*
X120324767Y-107771945D01*
X120349184Y-107837409D01*
X120349500Y-107846255D01*
X120349500Y-110185655D01*
X120347117Y-110209847D01*
X120344103Y-110224999D01*
X120344103Y-110225002D01*
X120348310Y-110246152D01*
X120348311Y-110246159D01*
X120365483Y-110332490D01*
X120365484Y-110332493D01*
X120365485Y-110332495D01*
X120375635Y-110347685D01*
X120426373Y-110423621D01*
X120426376Y-110423624D01*
X120439221Y-110432206D01*
X120458011Y-110447627D01*
X121002369Y-110991985D01*
X121017790Y-111010775D01*
X121026373Y-111023621D01*
X121026374Y-111023621D01*
X121026376Y-111023624D01*
X121049376Y-111038992D01*
X121049378Y-111038994D01*
X121075534Y-111056471D01*
X121117505Y-111084515D01*
X121117507Y-111084515D01*
X121117507Y-111084516D01*
X121203832Y-111101687D01*
X121203839Y-111101687D01*
X121225000Y-111105897D01*
X121240153Y-111102882D01*
X121264344Y-111100500D01*
X123160656Y-111100500D01*
X123184846Y-111102882D01*
X123200000Y-111105897D01*
X123227132Y-111100500D01*
X123227133Y-111100500D01*
X123250734Y-111095805D01*
X123307493Y-111084516D01*
X123307493Y-111084515D01*
X123307495Y-111084515D01*
X123349465Y-111056471D01*
X123375622Y-111038994D01*
X123375622Y-111038993D01*
X123389051Y-111030021D01*
X123389053Y-111030018D01*
X123398624Y-111023624D01*
X123407208Y-111010775D01*
X123422624Y-110991990D01*
X124177647Y-110236967D01*
X124238968Y-110203484D01*
X124245888Y-110202183D01*
X124350304Y-110185646D01*
X124463342Y-110128050D01*
X124553050Y-110038342D01*
X124610646Y-109925304D01*
X124610646Y-109925302D01*
X124610647Y-109925301D01*
X124610647Y-109925300D01*
X124630492Y-109800003D01*
X124630492Y-109799996D01*
X124610647Y-109674699D01*
X124610647Y-109674698D01*
X124603322Y-109660322D01*
X124553050Y-109561658D01*
X124553046Y-109561654D01*
X124553045Y-109561652D01*
X124463347Y-109471954D01*
X124463344Y-109471952D01*
X124463342Y-109471950D01*
X124350304Y-109414354D01*
X124350303Y-109414353D01*
X124350300Y-109414352D01*
X124225003Y-109394508D01*
X124224997Y-109394508D01*
X124099699Y-109414352D01*
X124099698Y-109414352D01*
X124055486Y-109436880D01*
X123986658Y-109471950D01*
X123986657Y-109471951D01*
X123986652Y-109471954D01*
X123896954Y-109561652D01*
X123896949Y-109561659D01*
X123835484Y-109682290D01*
X123787510Y-109733085D01*
X123719689Y-109749880D01*
X123653554Y-109727342D01*
X123614516Y-109682290D01*
X123578877Y-109612346D01*
X123553050Y-109561658D01*
X123553047Y-109561655D01*
X123553045Y-109561652D01*
X123542215Y-109550822D01*
X123508730Y-109489499D01*
X123508455Y-109486943D01*
X123508279Y-109486979D01*
X123501689Y-109453849D01*
X123501687Y-109453833D01*
X123484516Y-109367509D01*
X123484515Y-109367508D01*
X123484515Y-109367505D01*
X123447447Y-109312030D01*
X123423624Y-109276375D01*
X123410775Y-109267790D01*
X123391985Y-109252369D01*
X121589619Y-107450003D01*
X122344508Y-107450003D01*
X122364352Y-107575300D01*
X122364352Y-107575301D01*
X122381614Y-107609179D01*
X122421950Y-107688342D01*
X122421952Y-107688344D01*
X122421954Y-107688347D01*
X122511652Y-107778045D01*
X122511654Y-107778046D01*
X122511658Y-107778050D01*
X122624696Y-107835646D01*
X122624697Y-107835646D01*
X122624699Y-107835647D01*
X122749997Y-107855492D01*
X122750000Y-107855492D01*
X122750003Y-107855492D01*
X122875300Y-107835647D01*
X122875301Y-107835647D01*
X122875302Y-107835646D01*
X122875304Y-107835646D01*
X122988342Y-107778050D01*
X123020627Y-107745765D01*
X123062319Y-107704074D01*
X123123642Y-107670589D01*
X123193334Y-107675573D01*
X123237681Y-107704074D01*
X123311652Y-107778045D01*
X123311654Y-107778046D01*
X123311658Y-107778050D01*
X123424696Y-107835646D01*
X123424697Y-107835646D01*
X123424699Y-107835647D01*
X123549997Y-107855492D01*
X123550000Y-107855492D01*
X123550003Y-107855492D01*
X123675300Y-107835647D01*
X123675301Y-107835647D01*
X123675302Y-107835646D01*
X123675304Y-107835646D01*
X123788342Y-107778050D01*
X123878050Y-107688342D01*
X123935646Y-107575304D01*
X123935646Y-107575302D01*
X123935647Y-107575301D01*
X123935647Y-107575300D01*
X123955492Y-107450003D01*
X123955492Y-107449996D01*
X123935647Y-107324699D01*
X123935647Y-107324698D01*
X123903526Y-107261658D01*
X123878050Y-107211658D01*
X123878046Y-107211654D01*
X123878045Y-107211652D01*
X123788347Y-107121954D01*
X123788344Y-107121952D01*
X123788342Y-107121950D01*
X123675304Y-107064354D01*
X123675303Y-107064353D01*
X123675300Y-107064352D01*
X123550003Y-107044508D01*
X123549997Y-107044508D01*
X123424699Y-107064352D01*
X123424698Y-107064352D01*
X123349337Y-107102751D01*
X123311658Y-107121950D01*
X123311657Y-107121951D01*
X123311652Y-107121954D01*
X123237681Y-107195926D01*
X123176358Y-107229411D01*
X123106666Y-107224427D01*
X123062319Y-107195926D01*
X122988347Y-107121954D01*
X122988344Y-107121952D01*
X122988342Y-107121950D01*
X122875304Y-107064354D01*
X122875303Y-107064353D01*
X122875300Y-107064352D01*
X122750003Y-107044508D01*
X122749997Y-107044508D01*
X122624699Y-107064352D01*
X122624698Y-107064352D01*
X122549337Y-107102751D01*
X122511658Y-107121950D01*
X122511657Y-107121951D01*
X122511652Y-107121954D01*
X122421954Y-107211652D01*
X122421951Y-107211657D01*
X122421950Y-107211658D01*
X122409215Y-107236652D01*
X122364352Y-107324698D01*
X122364352Y-107324699D01*
X122344508Y-107449996D01*
X122344508Y-107450003D01*
X121589619Y-107450003D01*
X119947627Y-105808011D01*
X119932205Y-105789219D01*
X119923624Y-105776376D01*
X119923621Y-105776373D01*
X119905688Y-105764391D01*
X119905687Y-105764391D01*
X119900623Y-105761007D01*
X119900622Y-105761006D01*
X119874465Y-105743528D01*
X119869900Y-105740478D01*
X119853619Y-105729600D01*
X119832495Y-105715485D01*
X119832494Y-105715484D01*
X119832493Y-105715484D01*
X119746165Y-105698312D01*
X119746152Y-105698310D01*
X119725002Y-105694103D01*
X119725001Y-105694103D01*
X119725000Y-105694103D01*
X119709846Y-105697117D01*
X119685656Y-105699500D01*
X118840478Y-105699500D01*
X118773439Y-105679815D01*
X118752797Y-105663181D01*
X116686969Y-103597353D01*
X116653484Y-103536030D01*
X116652181Y-103529099D01*
X116635646Y-103424696D01*
X116578050Y-103311658D01*
X116578046Y-103311654D01*
X116578045Y-103311652D01*
X116488347Y-103221954D01*
X116488344Y-103221952D01*
X116488342Y-103221950D01*
X116411517Y-103182805D01*
X116375301Y-103164352D01*
X116335071Y-103157981D01*
X116271936Y-103128052D01*
X116235005Y-103068740D01*
X116236003Y-102998878D01*
X116266786Y-102947829D01*
X116552797Y-102661819D01*
X116614120Y-102628334D01*
X116640478Y-102625500D01*
X116857745Y-102625500D01*
X116924784Y-102645185D01*
X116945426Y-102661819D01*
X116961652Y-102678045D01*
X116961654Y-102678046D01*
X116961658Y-102678050D01*
X117074696Y-102735646D01*
X117074697Y-102735646D01*
X117074699Y-102735647D01*
X117199997Y-102755492D01*
X117200000Y-102755492D01*
X117200003Y-102755492D01*
X117325300Y-102735647D01*
X117325301Y-102735647D01*
X117325302Y-102735646D01*
X117325304Y-102735646D01*
X117438342Y-102678050D01*
X117528050Y-102588342D01*
X117585646Y-102475304D01*
X117585646Y-102475302D01*
X117585647Y-102475301D01*
X117585647Y-102475300D01*
X117605492Y-102350003D01*
X117605492Y-102349996D01*
X117585647Y-102224699D01*
X117585647Y-102224698D01*
X117585646Y-102224696D01*
X117528050Y-102111658D01*
X117528046Y-102111654D01*
X117528045Y-102111652D01*
X117438347Y-102021954D01*
X117438344Y-102021952D01*
X117438342Y-102021950D01*
X117325304Y-101964354D01*
X117325303Y-101964353D01*
X117325300Y-101964352D01*
X117200003Y-101944508D01*
X117199997Y-101944508D01*
X117074699Y-101964352D01*
X117074698Y-101964352D01*
X116999337Y-102002751D01*
X116961658Y-102021950D01*
X116961657Y-102021951D01*
X116961652Y-102021954D01*
X116945426Y-102038181D01*
X116884103Y-102071666D01*
X116857745Y-102074500D01*
X116514344Y-102074500D01*
X116490153Y-102072117D01*
X116475000Y-102069103D01*
X116474999Y-102069103D01*
X116474998Y-102069103D01*
X116453847Y-102073310D01*
X116453834Y-102073312D01*
X116367506Y-102090483D01*
X116367505Y-102090484D01*
X116335817Y-102111658D01*
X116299380Y-102136003D01*
X116299378Y-102136006D01*
X116299376Y-102136007D01*
X116293549Y-102139900D01*
X116276373Y-102151377D01*
X116267791Y-102164222D01*
X116252372Y-102183010D01*
X115558010Y-102877372D01*
X115539222Y-102892791D01*
X115526380Y-102901371D01*
X115526375Y-102901376D01*
X115465484Y-102992506D01*
X115463703Y-102998375D01*
X115463102Y-103004486D01*
X115444103Y-103099999D01*
X115447117Y-103115151D01*
X115449500Y-103139344D01*
X115449500Y-103748155D01*
X115447117Y-103772347D01*
X115444103Y-103787499D01*
X115444103Y-103787502D01*
X114604104Y-103787502D01*
X114604104Y-101250003D01*
X115619508Y-101250003D01*
X115639352Y-101375300D01*
X115639352Y-101375301D01*
X115654062Y-101404170D01*
X115696950Y-101488342D01*
X115696952Y-101488344D01*
X115696954Y-101488347D01*
X115786652Y-101578045D01*
X115786654Y-101578046D01*
X115786658Y-101578050D01*
X115899696Y-101635646D01*
X115899697Y-101635646D01*
X115899699Y-101635647D01*
X116024997Y-101655492D01*
X116025000Y-101655492D01*
X116025003Y-101655492D01*
X116150300Y-101635647D01*
X116150301Y-101635647D01*
X116150302Y-101635646D01*
X116150304Y-101635646D01*
X116263342Y-101578050D01*
X116353050Y-101488342D01*
X116405868Y-101384680D01*
X116453842Y-101333886D01*
X116521663Y-101317091D01*
X116587798Y-101339628D01*
X116589343Y-101340928D01*
X116589412Y-101340834D01*
X116597306Y-101346568D01*
X116597311Y-101346573D01*
X116710349Y-101404169D01*
X116710350Y-101404169D01*
X116710352Y-101404170D01*
X116835650Y-101424015D01*
X116835653Y-101424015D01*
X116835656Y-101424015D01*
X116960953Y-101404170D01*
X116960954Y-101404170D01*
X116960955Y-101404169D01*
X116960957Y-101404169D01*
X117073995Y-101346573D01*
X117080940Y-101339628D01*
X117090227Y-101330342D01*
X117151550Y-101296857D01*
X117177908Y-101294023D01*
X117428045Y-101294023D01*
X117495084Y-101313708D01*
X117515726Y-101330342D01*
X117863181Y-101677797D01*
X117896666Y-101739120D01*
X117899500Y-101765478D01*
X117899500Y-103660655D01*
X117897117Y-103684847D01*
X117894103Y-103699999D01*
X117894103Y-103700002D01*
X117898310Y-103721152D01*
X117898311Y-103721159D01*
X117915483Y-103807490D01*
X117915484Y-103807493D01*
X117915485Y-103807495D01*
X117930851Y-103830492D01*
X117976373Y-103898621D01*
X117976376Y-103898624D01*
X117989221Y-103907206D01*
X118008011Y-103922627D01*
X119277370Y-105191986D01*
X119292790Y-105210775D01*
X119301376Y-105223624D01*
X119319316Y-105235611D01*
X119319324Y-105235617D01*
X119340849Y-105250000D01*
X119340850Y-105250000D01*
X119392505Y-105284515D01*
X119392507Y-105284515D01*
X119392509Y-105284516D01*
X119478832Y-105301687D01*
X119478839Y-105301687D01*
X119500000Y-105305897D01*
X119515153Y-105302882D01*
X119539344Y-105300500D01*
X124584522Y-105300500D01*
X124651561Y-105320185D01*
X124672203Y-105336819D01*
X124988181Y-105652797D01*
X125021666Y-105714120D01*
X125024500Y-105740478D01*
X125024500Y-106460655D01*
X125022117Y-106484847D01*
X125019103Y-106499999D01*
X125019103Y-106500002D01*
X125023310Y-106521152D01*
X125023311Y-106521159D01*
X125040483Y-106607490D01*
X125040484Y-106607493D01*
X125040485Y-106607495D01*
X125059264Y-106635600D01*
X125101373Y-106698621D01*
X125101376Y-106698624D01*
X125114221Y-106707206D01*
X125133011Y-106722627D01*
X127002369Y-108591985D01*
X127017790Y-108610775D01*
X127026373Y-108623621D01*
X127026374Y-108623621D01*
X127026376Y-108623624D01*
X127049376Y-108638992D01*
X127049378Y-108638994D01*
X127075534Y-108656471D01*
X127117505Y-108684515D01*
X127117507Y-108684515D01*
X127117507Y-108684516D01*
X127203832Y-108701687D01*
X127203839Y-108701687D01*
X127225000Y-108705897D01*
X127240153Y-108702882D01*
X127264344Y-108700500D01*
X127910656Y-108700500D01*
X127934846Y-108702882D01*
X127950000Y-108705897D01*
X127977132Y-108700500D01*
X127977133Y-108700500D01*
X128000734Y-108695805D01*
X128057493Y-108684516D01*
X128057493Y-108684515D01*
X128057495Y-108684515D01*
X128099465Y-108656471D01*
X128125622Y-108638994D01*
X128125622Y-108638993D01*
X128139051Y-108630021D01*
X128139053Y-108630018D01*
X128148624Y-108623624D01*
X128157208Y-108610775D01*
X128172619Y-108591995D01*
X128377798Y-108386816D01*
X128439120Y-108353334D01*
X128465478Y-108350500D01*
X129600013Y-108350500D01*
X129639637Y-108360013D01*
X129640412Y-108357630D01*
X129649694Y-108360645D01*
X129649696Y-108360646D01*
X129691464Y-108367261D01*
X129774998Y-108380492D01*
X129775000Y-108380492D01*
X129775003Y-108380492D01*
X129900300Y-108360647D01*
X129900301Y-108360647D01*
X129900302Y-108360646D01*
X129900304Y-108360646D01*
X130013342Y-108303050D01*
X130103050Y-108213342D01*
X130160646Y-108100304D01*
X130160646Y-108100302D01*
X130160647Y-108100301D01*
X130160647Y-108100300D01*
X130180492Y-107975003D01*
X130180492Y-107974996D01*
X130160647Y-107849699D01*
X130160647Y-107849698D01*
X130157503Y-107843528D01*
X130103050Y-107736658D01*
X130103046Y-107736654D01*
X130103045Y-107736652D01*
X130013347Y-107646954D01*
X130013344Y-107646952D01*
X130013342Y-107646950D01*
X129900304Y-107589354D01*
X129900303Y-107589353D01*
X129900300Y-107589352D01*
X129775003Y-107569508D01*
X129774997Y-107569508D01*
X129649699Y-107589352D01*
X129649695Y-107589353D01*
X129610786Y-107609179D01*
X129542117Y-107622075D01*
X129477376Y-107595798D01*
X129437120Y-107538691D01*
X129432298Y-107509593D01*
X129432019Y-107509638D01*
X129410647Y-107374699D01*
X129410647Y-107374698D01*
X129398064Y-107350003D01*
X129353050Y-107261658D01*
X129353046Y-107261654D01*
X129353045Y-107261652D01*
X129263347Y-107171954D01*
X129263344Y-107171952D01*
X129263342Y-107171950D01*
X129150304Y-107114354D01*
X129150303Y-107114353D01*
X129150300Y-107114352D01*
X129025003Y-107094508D01*
X129024997Y-107094508D01*
X128899699Y-107114352D01*
X128899698Y-107114352D01*
X128835723Y-107146950D01*
X128786658Y-107171950D01*
X128786657Y-107171951D01*
X128786652Y-107171954D01*
X128696954Y-107261652D01*
X128696951Y-107261657D01*
X128639352Y-107374698D01*
X128639352Y-107374699D01*
X128619508Y-107499996D01*
X128619508Y-107500003D01*
X128639352Y-107625300D01*
X128642369Y-107634583D01*
X128639319Y-107635574D01*
X128649144Y-107687864D01*
X128622873Y-107752607D01*
X128565770Y-107792868D01*
X128525762Y-107799500D01*
X128339344Y-107799500D01*
X128315154Y-107797117D01*
X128300000Y-107794103D01*
X128299999Y-107794103D01*
X128299998Y-107794103D01*
X128278847Y-107798310D01*
X128278834Y-107798312D01*
X128192504Y-107815484D01*
X128191209Y-107816021D01*
X128188161Y-107816348D01*
X128180527Y-107817867D01*
X128180391Y-107817183D01*
X128121739Y-107823485D01*
X128059262Y-107792207D01*
X128033278Y-107757752D01*
X128022530Y-107736658D01*
X127971719Y-107636936D01*
X127971718Y-107636935D01*
X127971714Y-107636930D01*
X127882016Y-107547232D01*
X127882013Y-107547230D01*
X127882011Y-107547228D01*
X127789918Y-107500304D01*
X127768970Y-107489630D01*
X127708890Y-107480115D01*
X127645755Y-107450186D01*
X127608824Y-107390874D01*
X127605815Y-107377039D01*
X127585647Y-107249699D01*
X127585647Y-107249698D01*
X127572909Y-107224699D01*
X127528050Y-107136658D01*
X127528046Y-107136654D01*
X127528045Y-107136652D01*
X127438347Y-107046954D01*
X127438344Y-107046952D01*
X127438342Y-107046950D01*
X127325304Y-106989354D01*
X127325303Y-106989353D01*
X127325300Y-106989352D01*
X127200003Y-106969508D01*
X127199997Y-106969508D01*
X127074699Y-106989352D01*
X127074698Y-106989352D01*
X127010723Y-107021950D01*
X126961658Y-107046950D01*
X126961657Y-107046951D01*
X126961652Y-107046954D01*
X126871954Y-107136652D01*
X126871951Y-107136657D01*
X126814352Y-107249698D01*
X126814352Y-107249699D01*
X126801145Y-107333091D01*
X126771216Y-107396226D01*
X126711905Y-107433158D01*
X126642042Y-107432160D01*
X126590991Y-107401375D01*
X125639619Y-106450003D01*
X127644508Y-106450003D01*
X127664352Y-106575300D01*
X127664352Y-106575301D01*
X127664354Y-106575304D01*
X127721950Y-106688342D01*
X127721952Y-106688344D01*
X127721954Y-106688347D01*
X127811652Y-106778045D01*
X127811654Y-106778046D01*
X127811658Y-106778050D01*
X127924696Y-106835646D01*
X127924697Y-106835646D01*
X127924699Y-106835647D01*
X128049997Y-106855492D01*
X128050000Y-106855492D01*
X128050003Y-106855492D01*
X128175300Y-106835647D01*
X128175301Y-106835647D01*
X128175302Y-106835646D01*
X128175304Y-106835646D01*
X128288342Y-106778050D01*
X128378050Y-106688342D01*
X128435646Y-106575304D01*
X128435646Y-106575302D01*
X128435647Y-106575301D01*
X128435647Y-106575300D01*
X128455492Y-106450003D01*
X128455492Y-106449996D01*
X128435647Y-106324699D01*
X128435647Y-106324698D01*
X128435646Y-106324696D01*
X128378050Y-106211658D01*
X128378046Y-106211654D01*
X128378045Y-106211652D01*
X128288347Y-106121954D01*
X128288344Y-106121952D01*
X128288342Y-106121950D01*
X128175304Y-106064354D01*
X128175303Y-106064353D01*
X128175300Y-106064352D01*
X128050003Y-106044508D01*
X128049997Y-106044508D01*
X127924699Y-106064352D01*
X127924698Y-106064352D01*
X127849337Y-106102751D01*
X127811658Y-106121950D01*
X127811657Y-106121951D01*
X127811652Y-106121954D01*
X127721954Y-106211652D01*
X127721951Y-106211657D01*
X127664352Y-106324698D01*
X127664352Y-106324699D01*
X127644508Y-106449996D01*
X127644508Y-106450003D01*
X125639619Y-106450003D01*
X125611819Y-106422203D01*
X125578334Y-106360880D01*
X125575500Y-106334522D01*
X125575500Y-105614339D01*
X125577883Y-105590146D01*
X125578260Y-105588254D01*
X125580895Y-105575003D01*
X126044508Y-105575003D01*
X126064352Y-105700300D01*
X126064352Y-105700301D01*
X126072089Y-105715485D01*
X126121950Y-105813342D01*
X126121952Y-105813344D01*
X126121954Y-105813347D01*
X126211652Y-105903045D01*
X126211654Y-105903046D01*
X126211658Y-105903050D01*
X126324696Y-105960646D01*
X126324697Y-105960646D01*
X126324699Y-105960647D01*
X126449997Y-105980492D01*
X126450000Y-105980492D01*
X126450003Y-105980492D01*
X126575300Y-105960647D01*
X126575301Y-105960647D01*
X126575302Y-105960646D01*
X126575304Y-105960646D01*
X126688342Y-105903050D01*
X126778050Y-105813342D01*
X126835646Y-105700304D01*
X126835646Y-105700302D01*
X126835647Y-105700301D01*
X126835647Y-105700300D01*
X126855492Y-105575003D01*
X126855492Y-105574996D01*
X126835647Y-105449699D01*
X126835647Y-105449698D01*
X126835646Y-105449696D01*
X126778050Y-105336658D01*
X126778046Y-105336654D01*
X126778045Y-105336652D01*
X126688347Y-105246954D01*
X126688344Y-105246952D01*
X126688342Y-105246950D01*
X126575304Y-105189354D01*
X126575303Y-105189353D01*
X126575300Y-105189352D01*
X126450003Y-105169508D01*
X126449997Y-105169508D01*
X126324699Y-105189352D01*
X126324698Y-105189352D01*
X126249337Y-105227751D01*
X126211658Y-105246950D01*
X126211657Y-105246951D01*
X126211652Y-105246954D01*
X126121954Y-105336652D01*
X126121951Y-105336657D01*
X126064352Y-105449698D01*
X126064352Y-105449699D01*
X126044508Y-105574996D01*
X126044508Y-105575003D01*
X125580895Y-105575003D01*
X125580896Y-105575000D01*
X125580895Y-105574996D01*
X125576689Y-105553849D01*
X125576687Y-105553833D01*
X125559516Y-105467509D01*
X125559515Y-105467508D01*
X125559515Y-105467505D01*
X125506623Y-105388347D01*
X125498624Y-105376375D01*
X125485775Y-105367790D01*
X125466985Y-105352369D01*
X125126797Y-105012181D01*
X125093312Y-104950858D01*
X125098296Y-104881166D01*
X125140168Y-104825233D01*
X125205632Y-104800816D01*
X125214478Y-104800500D01*
X125760656Y-104800500D01*
X125784846Y-104802882D01*
X125800000Y-104805897D01*
X125827132Y-104800500D01*
X125827133Y-104800500D01*
X125858937Y-104794173D01*
X125907492Y-104784516D01*
X125907492Y-104784515D01*
X125907495Y-104784515D01*
X125959898Y-104749500D01*
X125975622Y-104738994D01*
X125975622Y-104738993D01*
X125989050Y-104730022D01*
X125989053Y-104730018D01*
X125998624Y-104723624D01*
X126007208Y-104710775D01*
X126022624Y-104691990D01*
X126777797Y-103936819D01*
X126839120Y-103903334D01*
X126865478Y-103900500D01*
X127113839Y-103900500D01*
X127180878Y-103920185D01*
X127226633Y-103972989D01*
X127236577Y-104042147D01*
X127236312Y-104043897D01*
X127219508Y-104149996D01*
X127219508Y-104150003D01*
X127239352Y-104275300D01*
X127239352Y-104275301D01*
X127251937Y-104299999D01*
X127296950Y-104388342D01*
X127296952Y-104388344D01*
X127296954Y-104388347D01*
X127386652Y-104478045D01*
X127386654Y-104478046D01*
X127386658Y-104478050D01*
X127499696Y-104535646D01*
X127499697Y-104535646D01*
X127499699Y-104535647D01*
X127624997Y-104555492D01*
X127625000Y-104555492D01*
X127625003Y-104555492D01*
X127750300Y-104535647D01*
X127750301Y-104535647D01*
X127750302Y-104535646D01*
X127750304Y-104535646D01*
X127863342Y-104478050D01*
X127953050Y-104388342D01*
X127992248Y-104311411D01*
X128040220Y-104260618D01*
X128108041Y-104243823D01*
X128174176Y-104266360D01*
X128190412Y-104280028D01*
X128288181Y-104377797D01*
X128321666Y-104439120D01*
X128324500Y-104465478D01*
X128324500Y-104807745D01*
X128304815Y-104874784D01*
X128288181Y-104895426D01*
X128271954Y-104911652D01*
X128271951Y-104911657D01*
X128271950Y-104911658D01*
X128262725Y-104929763D01*
X128214352Y-105024698D01*
X128214352Y-105024699D01*
X128194508Y-105149996D01*
X128194508Y-105150003D01*
X128214352Y-105275300D01*
X128214352Y-105275301D01*
X128227192Y-105300500D01*
X128271950Y-105388342D01*
X128271952Y-105388344D01*
X128271954Y-105388347D01*
X128361652Y-105478045D01*
X128361654Y-105478046D01*
X128361658Y-105478050D01*
X128474696Y-105535646D01*
X128474697Y-105535646D01*
X128474699Y-105535647D01*
X128599997Y-105555492D01*
X128600000Y-105555492D01*
X128600003Y-105555492D01*
X128725300Y-105535647D01*
X128725301Y-105535647D01*
X128725302Y-105535646D01*
X128725304Y-105535646D01*
X128838342Y-105478050D01*
X128838350Y-105478041D01*
X128838557Y-105477892D01*
X128838870Y-105477780D01*
X128847037Y-105473619D01*
X128847574Y-105474673D01*
X128904362Y-105454408D01*
X128972417Y-105470228D01*
X128999131Y-105490524D01*
X129086652Y-105578045D01*
X129086654Y-105578046D01*
X129086658Y-105578050D01*
X129199696Y-105635646D01*
X129199697Y-105635646D01*
X129199699Y-105635647D01*
X129324997Y-105655492D01*
X129325000Y-105655492D01*
X129325003Y-105655492D01*
X129450300Y-105635647D01*
X129450301Y-105635647D01*
X129450302Y-105635646D01*
X129450304Y-105635646D01*
X129563342Y-105578050D01*
X129653050Y-105488342D01*
X129710646Y-105375304D01*
X129710646Y-105375302D01*
X129710647Y-105375301D01*
X129710647Y-105375300D01*
X129730492Y-105250002D01*
X129730492Y-105249996D01*
X129710647Y-105124699D01*
X129710647Y-105124698D01*
X129710646Y-105124696D01*
X129653050Y-105011658D01*
X129653046Y-105011654D01*
X129653045Y-105011652D01*
X129563347Y-104921954D01*
X129563344Y-104921952D01*
X129563342Y-104921950D01*
X129450304Y-104864354D01*
X129450303Y-104864353D01*
X129450300Y-104864352D01*
X129325003Y-104844508D01*
X129324997Y-104844508D01*
X129199699Y-104864352D01*
X129199698Y-104864352D01*
X129086654Y-104921952D01*
X129086428Y-104922117D01*
X129086106Y-104922231D01*
X129077963Y-104926381D01*
X129077426Y-104925328D01*
X129020620Y-104945592D01*
X128952567Y-104929763D01*
X128925868Y-104909475D01*
X128911819Y-104895426D01*
X128878334Y-104834103D01*
X128875500Y-104807745D01*
X128875500Y-104339344D01*
X128877883Y-104315151D01*
X128878627Y-104311414D01*
X128880897Y-104300000D01*
X128873063Y-104260618D01*
X128861898Y-104204486D01*
X128861296Y-104198375D01*
X128859515Y-104192506D01*
X128859515Y-104192505D01*
X128829069Y-104146940D01*
X128798624Y-104101375D01*
X128785775Y-104092790D01*
X128766985Y-104077369D01*
X128147627Y-103458011D01*
X128132205Y-103439219D01*
X128123624Y-103426376D01*
X128123619Y-103426372D01*
X128121570Y-103425003D01*
X130119508Y-103425003D01*
X130139352Y-103550300D01*
X130139352Y-103550301D01*
X130139354Y-103550304D01*
X130196950Y-103663342D01*
X130196952Y-103663344D01*
X130196954Y-103663347D01*
X130286652Y-103753045D01*
X130286654Y-103753046D01*
X130286658Y-103753050D01*
X130399696Y-103810646D01*
X130399697Y-103810646D01*
X130399699Y-103810647D01*
X130524997Y-103830492D01*
X130525000Y-103830492D01*
X130525003Y-103830492D01*
X130650300Y-103810647D01*
X130650301Y-103810647D01*
X130650302Y-103810646D01*
X130650304Y-103810646D01*
X130763342Y-103753050D01*
X130853050Y-103663342D01*
X130910646Y-103550304D01*
X130910646Y-103550302D01*
X130910647Y-103550301D01*
X130910647Y-103550300D01*
X130930492Y-103425003D01*
X130930492Y-103424996D01*
X130910647Y-103299699D01*
X130910647Y-103299698D01*
X130902859Y-103284414D01*
X130853050Y-103186658D01*
X130853046Y-103186654D01*
X130853045Y-103186652D01*
X130763347Y-103096954D01*
X130763344Y-103096952D01*
X130763342Y-103096950D01*
X130650304Y-103039354D01*
X130650303Y-103039353D01*
X130650300Y-103039352D01*
X130525003Y-103019508D01*
X130524997Y-103019508D01*
X130399699Y-103039352D01*
X130399698Y-103039352D01*
X130342023Y-103068740D01*
X130286658Y-103096950D01*
X130286657Y-103096951D01*
X130286652Y-103096954D01*
X130196954Y-103186652D01*
X130196951Y-103186657D01*
X130196950Y-103186658D01*
X130178968Y-103221950D01*
X130139352Y-103299698D01*
X130139352Y-103299699D01*
X130119508Y-103424996D01*
X130119508Y-103425003D01*
X128121570Y-103425003D01*
X128100624Y-103411007D01*
X128100623Y-103411007D01*
X128100622Y-103411006D01*
X128048794Y-103376376D01*
X128048793Y-103376375D01*
X128048793Y-103376374D01*
X128048790Y-103376373D01*
X128032495Y-103365484D01*
X128032493Y-103365483D01*
X127946165Y-103348312D01*
X127946152Y-103348310D01*
X127925002Y-103344103D01*
X127925001Y-103344103D01*
X127925000Y-103344103D01*
X127909846Y-103347117D01*
X127885656Y-103349500D01*
X126739344Y-103349500D01*
X126715153Y-103347117D01*
X126700000Y-103344103D01*
X126699999Y-103344103D01*
X126686433Y-103346801D01*
X126672867Y-103349500D01*
X126592505Y-103365485D01*
X126524378Y-103411006D01*
X126524376Y-103411007D01*
X126510069Y-103420567D01*
X126501374Y-103426377D01*
X126492791Y-103439222D01*
X126477372Y-103458010D01*
X125722203Y-104213181D01*
X125660880Y-104246666D01*
X125634522Y-104249500D01*
X119865478Y-104249500D01*
X119798439Y-104229815D01*
X119777797Y-104213181D01*
X119061819Y-103497203D01*
X119028334Y-103435880D01*
X119027165Y-103425003D01*
X120694508Y-103425003D01*
X120714352Y-103550300D01*
X120714352Y-103550301D01*
X120714354Y-103550304D01*
X120771950Y-103663342D01*
X120771952Y-103663344D01*
X120771954Y-103663347D01*
X120861652Y-103753045D01*
X120861654Y-103753046D01*
X120861658Y-103753050D01*
X120974696Y-103810646D01*
X120974697Y-103810646D01*
X120974699Y-103810647D01*
X121099997Y-103830492D01*
X121100000Y-103830492D01*
X121100003Y-103830492D01*
X121225300Y-103810647D01*
X121225301Y-103810647D01*
X121225302Y-103810646D01*
X121225304Y-103810646D01*
X121338342Y-103753050D01*
X121428050Y-103663342D01*
X121485646Y-103550304D01*
X121485646Y-103550302D01*
X121485647Y-103550301D01*
X121485647Y-103550300D01*
X121505492Y-103425003D01*
X121505492Y-103424996D01*
X121485647Y-103299699D01*
X121485647Y-103299698D01*
X121477859Y-103284414D01*
X121428050Y-103186658D01*
X121428046Y-103186654D01*
X121428045Y-103186652D01*
X121338347Y-103096954D01*
X121338344Y-103096952D01*
X121338342Y-103096950D01*
X121225304Y-103039354D01*
X121225303Y-103039353D01*
X121225300Y-103039352D01*
X121100003Y-103019508D01*
X121099997Y-103019508D01*
X120974699Y-103039352D01*
X120974698Y-103039352D01*
X120917023Y-103068740D01*
X120861658Y-103096950D01*
X120861657Y-103096951D01*
X120861652Y-103096954D01*
X120771954Y-103186652D01*
X120771951Y-103186657D01*
X120771950Y-103186658D01*
X120753968Y-103221950D01*
X120714352Y-103299698D01*
X120714352Y-103299699D01*
X120694508Y-103424996D01*
X120694508Y-103425003D01*
X119027165Y-103425003D01*
X119025500Y-103409522D01*
X119025500Y-102475003D01*
X123044502Y-102475003D01*
X123064346Y-102600300D01*
X123064346Y-102600301D01*
X123064348Y-102600304D01*
X123121944Y-102713342D01*
X123121946Y-102713344D01*
X123121948Y-102713347D01*
X123211646Y-102803045D01*
X123211648Y-102803046D01*
X123211652Y-102803050D01*
X123324690Y-102860646D01*
X123324691Y-102860646D01*
X123324693Y-102860647D01*
X123449991Y-102880492D01*
X123449994Y-102880492D01*
X123449997Y-102880492D01*
X123575294Y-102860647D01*
X123575295Y-102860647D01*
X123575296Y-102860646D01*
X123575298Y-102860646D01*
X123688336Y-102803050D01*
X123778044Y-102713342D01*
X123835640Y-102600304D01*
X123835640Y-102600302D01*
X123835641Y-102600301D01*
X123835641Y-102600300D01*
X123855486Y-102475003D01*
X123855486Y-102474996D01*
X123835641Y-102349699D01*
X123835641Y-102349698D01*
X123818216Y-102315500D01*
X123778044Y-102236658D01*
X123778040Y-102236654D01*
X123778039Y-102236652D01*
X123688341Y-102146954D01*
X123688338Y-102146952D01*
X123688336Y-102146950D01*
X123575298Y-102089354D01*
X123575297Y-102089353D01*
X123575294Y-102089352D01*
X123449997Y-102069508D01*
X123449991Y-102069508D01*
X123324693Y-102089352D01*
X123324692Y-102089352D01*
X123249331Y-102127751D01*
X123211652Y-102146950D01*
X123211651Y-102146951D01*
X123211646Y-102146954D01*
X123121948Y-102236652D01*
X123121945Y-102236657D01*
X123121944Y-102236658D01*
X123113593Y-102253048D01*
X123064346Y-102349698D01*
X123064346Y-102349699D01*
X123044502Y-102474996D01*
X123044502Y-102475003D01*
X119025500Y-102475003D01*
X119025500Y-101525003D01*
X119944508Y-101525003D01*
X119964352Y-101650300D01*
X119964352Y-101650301D01*
X119964354Y-101650304D01*
X120021950Y-101763342D01*
X120021952Y-101763344D01*
X120021954Y-101763347D01*
X120111652Y-101853045D01*
X120111654Y-101853046D01*
X120111658Y-101853050D01*
X120224696Y-101910646D01*
X120224697Y-101910646D01*
X120224699Y-101910647D01*
X120349997Y-101930492D01*
X120350000Y-101930492D01*
X120350003Y-101930492D01*
X120384659Y-101925003D01*
X126344508Y-101925003D01*
X126364352Y-102050300D01*
X126364352Y-102050301D01*
X126382805Y-102086517D01*
X126421950Y-102163342D01*
X126421952Y-102163344D01*
X126421954Y-102163347D01*
X126511652Y-102253045D01*
X126511654Y-102253046D01*
X126511658Y-102253050D01*
X126624696Y-102310646D01*
X126624697Y-102310646D01*
X126624699Y-102310647D01*
X126749997Y-102330492D01*
X126750000Y-102330492D01*
X126750003Y-102330492D01*
X126875300Y-102310647D01*
X126875301Y-102310647D01*
X126875302Y-102310646D01*
X126875304Y-102310646D01*
X126988342Y-102253050D01*
X127078050Y-102163342D01*
X127135646Y-102050304D01*
X127135646Y-102050302D01*
X127135647Y-102050301D01*
X127135647Y-102050300D01*
X127155492Y-101925003D01*
X127155492Y-101924996D01*
X127135647Y-101799699D01*
X127135647Y-101799698D01*
X127117125Y-101763347D01*
X127105229Y-101740000D01*
X129019534Y-101740000D01*
X129039312Y-101890234D01*
X129039313Y-101890236D01*
X129093872Y-102021954D01*
X129097302Y-102030233D01*
X129189549Y-102150451D01*
X129309767Y-102242698D01*
X129449764Y-102300687D01*
X129562280Y-102315500D01*
X129562287Y-102315500D01*
X129637713Y-102315500D01*
X129637720Y-102315500D01*
X129750236Y-102300687D01*
X129890233Y-102242698D01*
X130010451Y-102150451D01*
X130102698Y-102030233D01*
X130160687Y-101890236D01*
X130180466Y-101740000D01*
X130177558Y-101717915D01*
X130165607Y-101627133D01*
X130160687Y-101589764D01*
X130102698Y-101449767D01*
X130010451Y-101329549D01*
X129890233Y-101237302D01*
X129890229Y-101237300D01*
X129826801Y-101211027D01*
X129750236Y-101179313D01*
X129736171Y-101177461D01*
X129637727Y-101164500D01*
X129637720Y-101164500D01*
X129562280Y-101164500D01*
X129562272Y-101164500D01*
X129449764Y-101179313D01*
X129449763Y-101179313D01*
X129309770Y-101237300D01*
X129309767Y-101237301D01*
X129309767Y-101237302D01*
X129189549Y-101329549D01*
X129117063Y-101424015D01*
X129097300Y-101449770D01*
X129039313Y-101589763D01*
X129039312Y-101589765D01*
X129019534Y-101739999D01*
X129019534Y-101740000D01*
X127105229Y-101740000D01*
X127078050Y-101686658D01*
X127078046Y-101686654D01*
X127078045Y-101686652D01*
X126988347Y-101596954D01*
X126988344Y-101596952D01*
X126988342Y-101596950D01*
X126875304Y-101539354D01*
X126875303Y-101539353D01*
X126875300Y-101539352D01*
X126750003Y-101519508D01*
X126749997Y-101519508D01*
X126624699Y-101539352D01*
X126624698Y-101539352D01*
X126549337Y-101577751D01*
X126511658Y-101596950D01*
X126511657Y-101596951D01*
X126511652Y-101596954D01*
X126421954Y-101686652D01*
X126421951Y-101686657D01*
X126421950Y-101686658D01*
X126402751Y-101724337D01*
X126364352Y-101799698D01*
X126364352Y-101799699D01*
X126344508Y-101924996D01*
X126344508Y-101925003D01*
X120384659Y-101925003D01*
X120475300Y-101910647D01*
X120475301Y-101910647D01*
X120475302Y-101910646D01*
X120475304Y-101910646D01*
X120588342Y-101853050D01*
X120678050Y-101763342D01*
X120735646Y-101650304D01*
X120735646Y-101650302D01*
X120735647Y-101650301D01*
X120735647Y-101650300D01*
X120755492Y-101525003D01*
X120755492Y-101524996D01*
X120735647Y-101399699D01*
X120735647Y-101399698D01*
X120725660Y-101380098D01*
X120678050Y-101286658D01*
X120678046Y-101286654D01*
X120678045Y-101286652D01*
X120588347Y-101196954D01*
X120588344Y-101196952D01*
X120588342Y-101196950D01*
X120475304Y-101139354D01*
X120475303Y-101139353D01*
X120475300Y-101139352D01*
X120350003Y-101119508D01*
X120349997Y-101119508D01*
X120224699Y-101139352D01*
X120224698Y-101139352D01*
X120175344Y-101164500D01*
X120111658Y-101196950D01*
X120111657Y-101196951D01*
X120111652Y-101196954D01*
X120021954Y-101286652D01*
X120021951Y-101286657D01*
X120021950Y-101286658D01*
X120008167Y-101313708D01*
X119964352Y-101399698D01*
X119964352Y-101399699D01*
X119944508Y-101524996D01*
X119944508Y-101525003D01*
X119025500Y-101525003D01*
X119025500Y-101489344D01*
X119027883Y-101465151D01*
X119030897Y-101450000D01*
X119016992Y-101380097D01*
X119009515Y-101342505D01*
X119009514Y-101342503D01*
X118993878Y-101319102D01*
X118993878Y-101319103D01*
X118963994Y-101274378D01*
X118963992Y-101274376D01*
X118948624Y-101251376D01*
X118948621Y-101251373D01*
X118935775Y-101242790D01*
X118916985Y-101227369D01*
X118047247Y-100357631D01*
X123627136Y-100357631D01*
X123646980Y-100482928D01*
X123646980Y-100482929D01*
X123665433Y-100519145D01*
X123704578Y-100595970D01*
X123704580Y-100595972D01*
X123704582Y-100595975D01*
X123794280Y-100685673D01*
X123794282Y-100685674D01*
X123794286Y-100685678D01*
X123907324Y-100743274D01*
X123907325Y-100743274D01*
X123907327Y-100743275D01*
X124032625Y-100763120D01*
X124032628Y-100763120D01*
X124032631Y-100763120D01*
X124157928Y-100743275D01*
X124157929Y-100743275D01*
X124157930Y-100743274D01*
X124157932Y-100743274D01*
X124270970Y-100685678D01*
X124360678Y-100595970D01*
X124418274Y-100482932D01*
X124418274Y-100482930D01*
X124418275Y-100482929D01*
X124418275Y-100482928D01*
X124438120Y-100357631D01*
X124438120Y-100357626D01*
X124429828Y-100305273D01*
X124438782Y-100235980D01*
X124483779Y-100182528D01*
X124532903Y-100163401D01*
X124550304Y-100160646D01*
X124663342Y-100103050D01*
X124753050Y-100013342D01*
X124810646Y-99900304D01*
X124810646Y-99900302D01*
X124810647Y-99900301D01*
X124810647Y-99900300D01*
X124830492Y-99775003D01*
X124830492Y-99774996D01*
X124810647Y-99649699D01*
X124810647Y-99649698D01*
X124810646Y-99649696D01*
X124753050Y-99536658D01*
X124753046Y-99536654D01*
X124753045Y-99536652D01*
X124704074Y-99487681D01*
X124670589Y-99426358D01*
X124670686Y-99425003D01*
X125944508Y-99425003D01*
X125964352Y-99550300D01*
X125964352Y-99550301D01*
X125976697Y-99574528D01*
X126021950Y-99663342D01*
X126021952Y-99663344D01*
X126021954Y-99663347D01*
X126108426Y-99749819D01*
X126141911Y-99811142D01*
X126136927Y-99880834D01*
X126108426Y-99925181D01*
X126096954Y-99936652D01*
X126096951Y-99936657D01*
X126096950Y-99936658D01*
X126080356Y-99969225D01*
X126039352Y-100049698D01*
X126039352Y-100049699D01*
X126019508Y-100174996D01*
X126019508Y-100175003D01*
X126039352Y-100300300D01*
X126039352Y-100300301D01*
X126043281Y-100308011D01*
X126096950Y-100413342D01*
X126096952Y-100413344D01*
X126096954Y-100413347D01*
X126186652Y-100503045D01*
X126186654Y-100503046D01*
X126186658Y-100503050D01*
X126299696Y-100560646D01*
X126299697Y-100560646D01*
X126299699Y-100560647D01*
X126424997Y-100580492D01*
X126425000Y-100580492D01*
X126425003Y-100580492D01*
X126550300Y-100560647D01*
X126550301Y-100560647D01*
X126550302Y-100560646D01*
X126550304Y-100560646D01*
X126663342Y-100503050D01*
X126753050Y-100413342D01*
X126810646Y-100300304D01*
X126810646Y-100300302D01*
X126810647Y-100300301D01*
X126810647Y-100300300D01*
X126830492Y-100175003D01*
X126830492Y-100174996D01*
X126822574Y-100125003D01*
X129119508Y-100125003D01*
X129139352Y-100250300D01*
X129139352Y-100250301D01*
X129152259Y-100275631D01*
X129196950Y-100363342D01*
X129196952Y-100363344D01*
X129196954Y-100363347D01*
X129286652Y-100453045D01*
X129286654Y-100453046D01*
X129286658Y-100453050D01*
X129399696Y-100510646D01*
X129399697Y-100510646D01*
X129399699Y-100510647D01*
X129524997Y-100530492D01*
X129525000Y-100530492D01*
X129525003Y-100530492D01*
X129650300Y-100510647D01*
X129650301Y-100510647D01*
X129650302Y-100510646D01*
X129650304Y-100510646D01*
X129651462Y-100510056D01*
X132149500Y-100510056D01*
X132166861Y-100580492D01*
X132190210Y-100675226D01*
X132269263Y-100825849D01*
X132269266Y-100825852D01*
X132382071Y-100953183D01*
X132454033Y-101002855D01*
X132522068Y-101049817D01*
X132522069Y-101049817D01*
X132522070Y-101049818D01*
X132681128Y-101110140D01*
X132757028Y-101119356D01*
X132807626Y-101125500D01*
X132807628Y-101125500D01*
X132892374Y-101125500D01*
X132941720Y-101119508D01*
X133018872Y-101110140D01*
X133177930Y-101049818D01*
X133317929Y-100953183D01*
X133430734Y-100825852D01*
X133509790Y-100675225D01*
X133550500Y-100510056D01*
X133550500Y-100339944D01*
X133509790Y-100174775D01*
X133509789Y-100174773D01*
X133430736Y-100024150D01*
X133387459Y-99975301D01*
X133317929Y-99896817D01*
X133250108Y-99850003D01*
X133177931Y-99800182D01*
X133018874Y-99739860D01*
X133018868Y-99739859D01*
X132892374Y-99724500D01*
X132892372Y-99724500D01*
X132807628Y-99724500D01*
X132807626Y-99724500D01*
X132681131Y-99739859D01*
X132681125Y-99739860D01*
X132522068Y-99800182D01*
X132382314Y-99896649D01*
X132382071Y-99896817D01*
X132378982Y-99900304D01*
X132269263Y-100024150D01*
X132190210Y-100174773D01*
X132157371Y-100308011D01*
X132149500Y-100339944D01*
X132149500Y-100510056D01*
X129651462Y-100510056D01*
X129763342Y-100453050D01*
X129853050Y-100363342D01*
X129910646Y-100250304D01*
X129929798Y-100129377D01*
X129959726Y-100066246D01*
X129978852Y-100054336D01*
X129939560Y-100036392D01*
X129910278Y-99998974D01*
X129853050Y-99886658D01*
X129853049Y-99886657D01*
X129853045Y-99886652D01*
X129763347Y-99796954D01*
X129763344Y-99796952D01*
X129763342Y-99796950D01*
X129650304Y-99739354D01*
X129650303Y-99739353D01*
X129650300Y-99739352D01*
X129622647Y-99734973D01*
X129559512Y-99705044D01*
X129525531Y-99650472D01*
X129487812Y-99707363D01*
X129427353Y-99734973D01*
X129399698Y-99739352D01*
X129348142Y-99765622D01*
X129286658Y-99796950D01*
X129286657Y-99796951D01*
X129286652Y-99796954D01*
X129196954Y-99886652D01*
X129196951Y-99886657D01*
X129196950Y-99886658D01*
X129191774Y-99896817D01*
X129139352Y-99999698D01*
X129139352Y-99999699D01*
X129119508Y-100124996D01*
X129119508Y-100125003D01*
X126822574Y-100125003D01*
X126810647Y-100049699D01*
X126810647Y-100049698D01*
X126800395Y-100029578D01*
X126753050Y-99936658D01*
X126753046Y-99936654D01*
X126753045Y-99936652D01*
X126666574Y-99850181D01*
X126633089Y-99788858D01*
X126638073Y-99719166D01*
X126666574Y-99674819D01*
X126678045Y-99663347D01*
X126678050Y-99663342D01*
X126735646Y-99550304D01*
X126735646Y-99550302D01*
X126735647Y-99550301D01*
X126735647Y-99550300D01*
X126755492Y-99425003D01*
X126755492Y-99424996D01*
X126735647Y-99299699D01*
X126735647Y-99299698D01*
X126733843Y-99296157D01*
X126678050Y-99186658D01*
X126678046Y-99186654D01*
X126678045Y-99186652D01*
X126588347Y-99096954D01*
X126588344Y-99096952D01*
X126588342Y-99096950D01*
X126475304Y-99039354D01*
X126475303Y-99039353D01*
X126475300Y-99039352D01*
X126350003Y-99019508D01*
X126341483Y-99019508D01*
X126329905Y-99016108D01*
X126318452Y-99023469D01*
X126302914Y-99026965D01*
X126224699Y-99039352D01*
X126224698Y-99039352D01*
X126149337Y-99077751D01*
X126111658Y-99096950D01*
X126111657Y-99096951D01*
X126111652Y-99096954D01*
X126021954Y-99186652D01*
X126021951Y-99186657D01*
X126021950Y-99186658D01*
X126012790Y-99204635D01*
X125964352Y-99299698D01*
X125964352Y-99299699D01*
X125944508Y-99424996D01*
X125944508Y-99425003D01*
X124670686Y-99425003D01*
X124675573Y-99356666D01*
X124704074Y-99312319D01*
X124778045Y-99238347D01*
X124778050Y-99238342D01*
X124835646Y-99125304D01*
X124835646Y-99125302D01*
X124835647Y-99125301D01*
X124835647Y-99125300D01*
X124855492Y-99000003D01*
X124855492Y-98999996D01*
X124835647Y-98874699D01*
X124835647Y-98874698D01*
X124808972Y-98822346D01*
X124778050Y-98761658D01*
X124778046Y-98761654D01*
X124778045Y-98761652D01*
X124736357Y-98719964D01*
X124702872Y-98658641D01*
X124707856Y-98588949D01*
X124716843Y-98572207D01*
X124716447Y-98572005D01*
X124720876Y-98563311D01*
X124720878Y-98563310D01*
X124778474Y-98450272D01*
X124778474Y-98450270D01*
X124778475Y-98450269D01*
X124778475Y-98450268D01*
X124798320Y-98324971D01*
X124798320Y-98324964D01*
X124778475Y-98199667D01*
X124778475Y-98199666D01*
X124771667Y-98186305D01*
X124720878Y-98086626D01*
X124720874Y-98086622D01*
X124720873Y-98086620D01*
X124631175Y-97996922D01*
X124631172Y-97996920D01*
X124631170Y-97996918D01*
X124528322Y-97944514D01*
X124477527Y-97896540D01*
X124460732Y-97828719D01*
X124462145Y-97814631D01*
X124462231Y-97814093D01*
X124471134Y-97757878D01*
X124471133Y-97757874D01*
X124466470Y-97728429D01*
X124475424Y-97659136D01*
X124520421Y-97605684D01*
X124569548Y-97586557D01*
X124575302Y-97585646D01*
X124688340Y-97528050D01*
X124778048Y-97438342D01*
X124835644Y-97325304D01*
X124835644Y-97325302D01*
X124835645Y-97325301D01*
X124835645Y-97325300D01*
X124855490Y-97200003D01*
X124855490Y-97199996D01*
X124835645Y-97074699D01*
X124835645Y-97074698D01*
X124835644Y-97074696D01*
X124778048Y-96961658D01*
X124778044Y-96961654D01*
X124778043Y-96961652D01*
X124688345Y-96871954D01*
X124688342Y-96871952D01*
X124688340Y-96871950D01*
X124575302Y-96814354D01*
X124575301Y-96814353D01*
X124575298Y-96814352D01*
X124450001Y-96794508D01*
X124449999Y-96794508D01*
X124449998Y-96794508D01*
X124386357Y-96804587D01*
X124372249Y-96806822D01*
X124302955Y-96797866D01*
X124269510Y-96769710D01*
X124252407Y-96831194D01*
X124217449Y-96863327D01*
X124219548Y-96866217D01*
X124211650Y-96871954D01*
X124121952Y-96961652D01*
X124121949Y-96961657D01*
X124121948Y-96961658D01*
X124102749Y-96999337D01*
X124064350Y-97074698D01*
X124064350Y-97074699D01*
X124044506Y-97199996D01*
X124044506Y-97199998D01*
X124044506Y-97200000D01*
X124046645Y-97213506D01*
X124049170Y-97229450D01*
X124040213Y-97298744D01*
X123995216Y-97352195D01*
X123946099Y-97371319D01*
X123940339Y-97372231D01*
X123883819Y-97401030D01*
X123827300Y-97429828D01*
X123827299Y-97429829D01*
X123827294Y-97429832D01*
X123737596Y-97519530D01*
X123737593Y-97519535D01*
X123737592Y-97519536D01*
X123733255Y-97528048D01*
X123679994Y-97632576D01*
X123679994Y-97632577D01*
X123660150Y-97757874D01*
X123660150Y-97757881D01*
X123679994Y-97883178D01*
X123679994Y-97883179D01*
X123698447Y-97919395D01*
X123737592Y-97996220D01*
X123737594Y-97996222D01*
X123737596Y-97996225D01*
X123827294Y-98085923D01*
X123827298Y-98085926D01*
X123827300Y-98085928D01*
X123930148Y-98138331D01*
X123980942Y-98186305D01*
X123997737Y-98254126D01*
X123996325Y-98268211D01*
X123987336Y-98324969D01*
X123987336Y-98324971D01*
X124007180Y-98450268D01*
X124007180Y-98450269D01*
X124021372Y-98478122D01*
X124064778Y-98563310D01*
X124064780Y-98563312D01*
X124064782Y-98563315D01*
X124106470Y-98605003D01*
X124139955Y-98666326D01*
X124134971Y-98736018D01*
X124125985Y-98752761D01*
X124126381Y-98752963D01*
X124121951Y-98761656D01*
X124121950Y-98761658D01*
X124110622Y-98783891D01*
X124064352Y-98874698D01*
X124064352Y-98874699D01*
X124044508Y-98999996D01*
X124044508Y-99000003D01*
X124064352Y-99125300D01*
X124064352Y-99125301D01*
X124064354Y-99125304D01*
X124121950Y-99238342D01*
X124121952Y-99238344D01*
X124121954Y-99238347D01*
X124170926Y-99287319D01*
X124204411Y-99348642D01*
X124199427Y-99418334D01*
X124170926Y-99462681D01*
X124096954Y-99536652D01*
X124096951Y-99536657D01*
X124096950Y-99536658D01*
X124077751Y-99574337D01*
X124039352Y-99649698D01*
X124039352Y-99649699D01*
X124019508Y-99774996D01*
X124019508Y-99774998D01*
X124019508Y-99775000D01*
X124022985Y-99796950D01*
X124027800Y-99827356D01*
X124018844Y-99896649D01*
X123973847Y-99950100D01*
X123924726Y-99969225D01*
X123907326Y-99971981D01*
X123907324Y-99971981D01*
X123907324Y-99971982D01*
X123794286Y-100029578D01*
X123794285Y-100029579D01*
X123794280Y-100029582D01*
X123704582Y-100119280D01*
X123704579Y-100119285D01*
X123704578Y-100119286D01*
X123687596Y-100152615D01*
X123646980Y-100232326D01*
X123646980Y-100232327D01*
X123627136Y-100357624D01*
X123627136Y-100357631D01*
X118047247Y-100357631D01*
X117997627Y-100308011D01*
X117982205Y-100289219D01*
X117973624Y-100276376D01*
X117973621Y-100276373D01*
X117955688Y-100264391D01*
X117955687Y-100264391D01*
X117950623Y-100261007D01*
X117950622Y-100261006D01*
X117924465Y-100243528D01*
X117913168Y-100235980D01*
X117903619Y-100229600D01*
X117882495Y-100215485D01*
X117882494Y-100215484D01*
X117882493Y-100215484D01*
X117796165Y-100198312D01*
X117796152Y-100198310D01*
X117775002Y-100194103D01*
X117775001Y-100194103D01*
X117775000Y-100194103D01*
X117759846Y-100197117D01*
X117735656Y-100199500D01*
X117584272Y-100199500D01*
X117517233Y-100179815D01*
X117471478Y-100127011D01*
X117461534Y-100057853D01*
X117473787Y-100019205D01*
X117476772Y-100013347D01*
X117496156Y-99975304D01*
X117496156Y-99975302D01*
X117496157Y-99975301D01*
X117496157Y-99975300D01*
X117516002Y-99850003D01*
X117516002Y-99849996D01*
X117496157Y-99724699D01*
X117496157Y-99724698D01*
X117496056Y-99724500D01*
X117438560Y-99611658D01*
X117438556Y-99611654D01*
X117438555Y-99611652D01*
X117348857Y-99521954D01*
X117348854Y-99521952D01*
X117348852Y-99521950D01*
X117235814Y-99464354D01*
X117235813Y-99464353D01*
X117235810Y-99464352D01*
X117110513Y-99444508D01*
X117110507Y-99444508D01*
X116985209Y-99464352D01*
X116985208Y-99464352D01*
X116932031Y-99491448D01*
X116872168Y-99521950D01*
X116872167Y-99521951D01*
X116872162Y-99521954D01*
X116782464Y-99611652D01*
X116782461Y-99611657D01*
X116724862Y-99724698D01*
X116724862Y-99724699D01*
X116705018Y-99849996D01*
X116705018Y-99850003D01*
X116724862Y-99975300D01*
X116724862Y-99975301D01*
X116737292Y-99999696D01*
X116744245Y-100013342D01*
X116747233Y-100019205D01*
X116760129Y-100087874D01*
X116733853Y-100152615D01*
X116676746Y-100192872D01*
X116636748Y-100199500D01*
X116439344Y-100199500D01*
X116415153Y-100197117D01*
X116400000Y-100194103D01*
X116399999Y-100194103D01*
X116399998Y-100194103D01*
X116378847Y-100198310D01*
X116378834Y-100198312D01*
X116284120Y-100217152D01*
X116259758Y-100217636D01*
X116259758Y-100219508D01*
X116249997Y-100219508D01*
X116124699Y-100239352D01*
X116124698Y-100239352D01*
X116049337Y-100277751D01*
X116011658Y-100296950D01*
X116011657Y-100296951D01*
X116011652Y-100296954D01*
X115921954Y-100386652D01*
X115921951Y-100386657D01*
X115864352Y-100499698D01*
X115864352Y-100499699D01*
X115844508Y-100624996D01*
X115844508Y-100625003D01*
X115864352Y-100750300D01*
X115867369Y-100759583D01*
X115864456Y-100760529D01*
X115874375Y-100813313D01*
X115848107Y-100878056D01*
X115807291Y-100911436D01*
X115786660Y-100921948D01*
X115786652Y-100921954D01*
X115696954Y-101011652D01*
X115696951Y-101011657D01*
X115696950Y-101011658D01*
X115693452Y-101018523D01*
X115639352Y-101124698D01*
X115639352Y-101124699D01*
X115619508Y-101249996D01*
X115619508Y-101250003D01*
X114604104Y-101250003D01*
X114604104Y-98145003D01*
X116787508Y-98145003D01*
X116807352Y-98270300D01*
X116807352Y-98270301D01*
X116820931Y-98296950D01*
X116864950Y-98383342D01*
X116864952Y-98383344D01*
X116864954Y-98383347D01*
X116954652Y-98473045D01*
X116954654Y-98473046D01*
X116954658Y-98473050D01*
X117067696Y-98530646D01*
X117067697Y-98530646D01*
X117067699Y-98530647D01*
X117192997Y-98550492D01*
X117193000Y-98550492D01*
X117193003Y-98550492D01*
X117318300Y-98530647D01*
X117318301Y-98530647D01*
X117318302Y-98530646D01*
X117318304Y-98530646D01*
X117431342Y-98473050D01*
X117521050Y-98383342D01*
X117578646Y-98270304D01*
X117578646Y-98270302D01*
X117578647Y-98270301D01*
X117578647Y-98270300D01*
X117598492Y-98145003D01*
X117598492Y-98144996D01*
X117578647Y-98019699D01*
X117578647Y-98019698D01*
X117565816Y-97994516D01*
X117521050Y-97906658D01*
X117521046Y-97906654D01*
X117521045Y-97906652D01*
X117431347Y-97816954D01*
X117431344Y-97816952D01*
X117431342Y-97816950D01*
X117318304Y-97759354D01*
X117318303Y-97759353D01*
X117318300Y-97759352D01*
X117193003Y-97739508D01*
X117192997Y-97739508D01*
X117067699Y-97759352D01*
X117067698Y-97759352D01*
X117011742Y-97787864D01*
X116954658Y-97816950D01*
X116954657Y-97816951D01*
X116954652Y-97816954D01*
X116864954Y-97906652D01*
X116864951Y-97906657D01*
X116864950Y-97906658D01*
X116849469Y-97937041D01*
X116807352Y-98019698D01*
X116807352Y-98019699D01*
X116787508Y-98144996D01*
X116787508Y-98145003D01*
X114604104Y-98145003D01*
X114604104Y-96250003D01*
X123644508Y-96250003D01*
X123664352Y-96375300D01*
X123664352Y-96375301D01*
X123664354Y-96375304D01*
X123721950Y-96488342D01*
X123721952Y-96488344D01*
X123721954Y-96488347D01*
X123811652Y-96578045D01*
X123811654Y-96578046D01*
X123811658Y-96578050D01*
X123924696Y-96635646D01*
X123924697Y-96635646D01*
X123924699Y-96635647D01*
X124049997Y-96655492D01*
X124050000Y-96655492D01*
X124050002Y-96655492D01*
X124097417Y-96647982D01*
X124127747Y-96643178D01*
X124197040Y-96652132D01*
X124230486Y-96680287D01*
X124247590Y-96618804D01*
X124282582Y-96586719D01*
X124280450Y-96583783D01*
X124288335Y-96578053D01*
X124288342Y-96578050D01*
X124378050Y-96488342D01*
X124435646Y-96375304D01*
X124435646Y-96375302D01*
X124435647Y-96375301D01*
X124435647Y-96375300D01*
X124455492Y-96250003D01*
X124455492Y-96249996D01*
X124435647Y-96124699D01*
X124435647Y-96124698D01*
X124428277Y-96110234D01*
X124378050Y-96011658D01*
X124378046Y-96011654D01*
X124378045Y-96011652D01*
X124288347Y-95921954D01*
X124288344Y-95921952D01*
X124288342Y-95921950D01*
X124175304Y-95864354D01*
X124175303Y-95864353D01*
X124175300Y-95864352D01*
X124050003Y-95844508D01*
X124049997Y-95844508D01*
X123924699Y-95864352D01*
X123924698Y-95864352D01*
X123852162Y-95901312D01*
X123811658Y-95921950D01*
X123811657Y-95921951D01*
X123811652Y-95921954D01*
X123721954Y-96011652D01*
X123721951Y-96011657D01*
X123664352Y-96124698D01*
X123664352Y-96124699D01*
X123644508Y-96249996D01*
X123644508Y-96250003D01*
X114604104Y-96250003D01*
X114604104Y-95625003D01*
X116644508Y-95625003D01*
X116664352Y-95750300D01*
X116664352Y-95750301D01*
X116664354Y-95750304D01*
X116721950Y-95863342D01*
X116721952Y-95863344D01*
X116721954Y-95863347D01*
X116811652Y-95953045D01*
X116811654Y-95953046D01*
X116811658Y-95953050D01*
X116924696Y-96010646D01*
X116924697Y-96010646D01*
X116924699Y-96010647D01*
X117049997Y-96030492D01*
X117050000Y-96030492D01*
X117050003Y-96030492D01*
X117175300Y-96010647D01*
X117175301Y-96010647D01*
X117175302Y-96010646D01*
X117175304Y-96010646D01*
X117288342Y-95953050D01*
X117378050Y-95863342D01*
X117435646Y-95750304D01*
X117435646Y-95750302D01*
X117435647Y-95750301D01*
X117435647Y-95750300D01*
X117455492Y-95625003D01*
X117455492Y-95624996D01*
X117435647Y-95499699D01*
X117435647Y-95499698D01*
X117417125Y-95463347D01*
X117378050Y-95386658D01*
X117378046Y-95386654D01*
X117378045Y-95386652D01*
X117288347Y-95296954D01*
X117288344Y-95296952D01*
X117288342Y-95296950D01*
X117175304Y-95239354D01*
X117175303Y-95239353D01*
X117175300Y-95239352D01*
X117050003Y-95219508D01*
X117049997Y-95219508D01*
X116924699Y-95239352D01*
X116924698Y-95239352D01*
X116849337Y-95277751D01*
X116811658Y-95296950D01*
X116811657Y-95296951D01*
X116811652Y-95296954D01*
X116721954Y-95386652D01*
X116721951Y-95386657D01*
X116721950Y-95386658D01*
X116702751Y-95424337D01*
X116664352Y-95499698D01*
X116664352Y-95499699D01*
X116644508Y-95624996D01*
X116644508Y-95625003D01*
X114604104Y-95625003D01*
X114604104Y-94450003D01*
X119919508Y-94450003D01*
X119939352Y-94575300D01*
X119939352Y-94575301D01*
X119939354Y-94575304D01*
X119996950Y-94688342D01*
X119996952Y-94688344D01*
X119996954Y-94688347D01*
X120086652Y-94778045D01*
X120086654Y-94778046D01*
X120086658Y-94778050D01*
X120199696Y-94835646D01*
X120199697Y-94835646D01*
X120199699Y-94835647D01*
X120284847Y-94849133D01*
X120347982Y-94879062D01*
X120384914Y-94938373D01*
X120383916Y-95008236D01*
X120375935Y-95027900D01*
X120339353Y-95099695D01*
X120339352Y-95099699D01*
X120319508Y-95224996D01*
X120319508Y-95225003D01*
X120339352Y-95350300D01*
X120339352Y-95350301D01*
X120340752Y-95353048D01*
X120396950Y-95463342D01*
X120396952Y-95463344D01*
X120396954Y-95463347D01*
X120486652Y-95553045D01*
X120486654Y-95553046D01*
X120486658Y-95553050D01*
X120599696Y-95610646D01*
X120599697Y-95610646D01*
X120599699Y-95610647D01*
X120724997Y-95630492D01*
X120725000Y-95630492D01*
X120725003Y-95630492D01*
X120850300Y-95610647D01*
X120850301Y-95610647D01*
X120850302Y-95610646D01*
X120850304Y-95610646D01*
X120963342Y-95553050D01*
X121053050Y-95463342D01*
X121110646Y-95350304D01*
X121110646Y-95350302D01*
X121110647Y-95350301D01*
X121110647Y-95350300D01*
X121130492Y-95225003D01*
X121130492Y-95224996D01*
X121110647Y-95099699D01*
X121110647Y-95099698D01*
X121083977Y-95047356D01*
X121053050Y-94986658D01*
X121053046Y-94986654D01*
X121053045Y-94986652D01*
X120963347Y-94896954D01*
X120963344Y-94896952D01*
X120963342Y-94896950D01*
X120850304Y-94839354D01*
X120850303Y-94839353D01*
X120850300Y-94839352D01*
X120765151Y-94825866D01*
X120702016Y-94795937D01*
X120665085Y-94736625D01*
X120666083Y-94666762D01*
X120674065Y-94647097D01*
X120710646Y-94575304D01*
X120710646Y-94575302D01*
X120710647Y-94575300D01*
X120730492Y-94450003D01*
X120730492Y-94449996D01*
X120710647Y-94324699D01*
X120710647Y-94324698D01*
X120697909Y-94299699D01*
X120653050Y-94211658D01*
X120653046Y-94211654D01*
X120653045Y-94211652D01*
X120563347Y-94121954D01*
X120563344Y-94121952D01*
X120563342Y-94121950D01*
X120450304Y-94064354D01*
X120450303Y-94064353D01*
X120450300Y-94064352D01*
X120325003Y-94044508D01*
X120324997Y-94044508D01*
X120199699Y-94064352D01*
X120199698Y-94064352D01*
X120135723Y-94096950D01*
X120086658Y-94121950D01*
X120086657Y-94121951D01*
X120086652Y-94121954D01*
X119996954Y-94211652D01*
X119996951Y-94211657D01*
X119939352Y-94324698D01*
X119939352Y-94324699D01*
X119919508Y-94449996D01*
X119919508Y-94450003D01*
X114604104Y-94450003D01*
X114604104Y-93074618D01*
X114604104Y-93074617D01*
X114175661Y-92509073D01*
X114150869Y-92443750D01*
X114150500Y-92434195D01*
X114150500Y-92300003D01*
X119584508Y-92300003D01*
X119604352Y-92425300D01*
X119604352Y-92425301D01*
X119604354Y-92425304D01*
X119661950Y-92538342D01*
X119661952Y-92538344D01*
X119661954Y-92538347D01*
X119751652Y-92628045D01*
X119751654Y-92628046D01*
X119751658Y-92628050D01*
X119864696Y-92685646D01*
X119864697Y-92685646D01*
X119864699Y-92685647D01*
X119989997Y-92705492D01*
X119990000Y-92705492D01*
X119990003Y-92705492D01*
X120115300Y-92685647D01*
X120115301Y-92685647D01*
X120115302Y-92685646D01*
X120115304Y-92685646D01*
X120228342Y-92628050D01*
X120318050Y-92538342D01*
X120375646Y-92425304D01*
X120375646Y-92425302D01*
X120375647Y-92425301D01*
X120375647Y-92425300D01*
X120395492Y-92300003D01*
X120395492Y-92299996D01*
X120375647Y-92174699D01*
X120375647Y-92174698D01*
X120367661Y-92159025D01*
X120318050Y-92061658D01*
X120318046Y-92061654D01*
X120318045Y-92061652D01*
X120228347Y-91971954D01*
X120228344Y-91971952D01*
X120228342Y-91971950D01*
X120115304Y-91914354D01*
X120115303Y-91914353D01*
X120115300Y-91914352D01*
X119990003Y-91894508D01*
X119989997Y-91894508D01*
X119864699Y-91914352D01*
X119864698Y-91914352D01*
X119789337Y-91952751D01*
X119751658Y-91971950D01*
X119751657Y-91971951D01*
X119751652Y-91971954D01*
X119661954Y-92061652D01*
X119661951Y-92061657D01*
X119604352Y-92174698D01*
X119604352Y-92174699D01*
X119584508Y-92299996D01*
X119584508Y-92300003D01*
X114150500Y-92300003D01*
X114150500Y-90375003D01*
X115469508Y-90375003D01*
X115489352Y-90500300D01*
X115489352Y-90500301D01*
X115494624Y-90510647D01*
X115546950Y-90613342D01*
X115546952Y-90613344D01*
X115546954Y-90613347D01*
X115636652Y-90703045D01*
X115636654Y-90703046D01*
X115636658Y-90703050D01*
X115749696Y-90760646D01*
X115749697Y-90760646D01*
X115749699Y-90760647D01*
X115874997Y-90780492D01*
X115875000Y-90780492D01*
X115875003Y-90780492D01*
X116000300Y-90760647D01*
X116000301Y-90760647D01*
X116000302Y-90760646D01*
X116000304Y-90760646D01*
X116113342Y-90703050D01*
X116203050Y-90613342D01*
X116260646Y-90500304D01*
X116260646Y-90500302D01*
X116260647Y-90500301D01*
X116260647Y-90500300D01*
X116280492Y-90375003D01*
X116280492Y-90374996D01*
X116260647Y-90249699D01*
X116260647Y-90249698D01*
X116260646Y-90249696D01*
X116203050Y-90136658D01*
X116203046Y-90136654D01*
X116203045Y-90136652D01*
X116191396Y-90125003D01*
X117544508Y-90125003D01*
X117564352Y-90250300D01*
X117564352Y-90250301D01*
X117564354Y-90250304D01*
X117621950Y-90363342D01*
X117621952Y-90363344D01*
X117621954Y-90363347D01*
X117711652Y-90453045D01*
X117711654Y-90453046D01*
X117711658Y-90453050D01*
X117824696Y-90510646D01*
X117824697Y-90510646D01*
X117824699Y-90510647D01*
X117949997Y-90530492D01*
X117950000Y-90530492D01*
X117950003Y-90530492D01*
X118075300Y-90510647D01*
X118075301Y-90510647D01*
X118075302Y-90510646D01*
X118075304Y-90510646D01*
X118188342Y-90453050D01*
X118278050Y-90363342D01*
X118335646Y-90250304D01*
X118335646Y-90250302D01*
X118335647Y-90250301D01*
X118335647Y-90250300D01*
X118355492Y-90125003D01*
X118355492Y-90124996D01*
X118335647Y-89999699D01*
X118335647Y-89999698D01*
X118320264Y-89969508D01*
X118278050Y-89886658D01*
X118278046Y-89886654D01*
X118278045Y-89886652D01*
X118188347Y-89796954D01*
X118188344Y-89796952D01*
X118188342Y-89796950D01*
X118075304Y-89739354D01*
X118075303Y-89739353D01*
X118075300Y-89739352D01*
X117950003Y-89719508D01*
X117949997Y-89719508D01*
X117824699Y-89739352D01*
X117824698Y-89739352D01*
X117771629Y-89766393D01*
X117711658Y-89796950D01*
X117711657Y-89796951D01*
X117711652Y-89796954D01*
X117621954Y-89886652D01*
X117621951Y-89886657D01*
X117564352Y-89999698D01*
X117564352Y-89999699D01*
X117544508Y-90124996D01*
X117544508Y-90125003D01*
X116191396Y-90125003D01*
X116113347Y-90046954D01*
X116113344Y-90046952D01*
X116113342Y-90046950D01*
X116000304Y-89989354D01*
X116000303Y-89989353D01*
X116000300Y-89989352D01*
X115875003Y-89969508D01*
X115874997Y-89969508D01*
X115749699Y-89989352D01*
X115749698Y-89989352D01*
X115674337Y-90027751D01*
X115636658Y-90046950D01*
X115636657Y-90046951D01*
X115636652Y-90046954D01*
X115546954Y-90136652D01*
X115546951Y-90136657D01*
X115489352Y-90249698D01*
X115489352Y-90249699D01*
X115469508Y-90374996D01*
X115469508Y-90375003D01*
X114150500Y-90375003D01*
X114150500Y-89500002D01*
X121819867Y-89500002D01*
X121838302Y-89628224D01*
X121838303Y-89628228D01*
X121863294Y-89682949D01*
X121874500Y-89734461D01*
X121874500Y-92588429D01*
X121874501Y-92588439D01*
X121881346Y-92609507D01*
X121885887Y-92628418D01*
X121889354Y-92650304D01*
X121889355Y-92650307D01*
X121899412Y-92670045D01*
X121906857Y-92688018D01*
X121913704Y-92709090D01*
X121926726Y-92727014D01*
X121936890Y-92743600D01*
X121946949Y-92763340D01*
X121946950Y-92763342D01*
X121966390Y-92782782D01*
X121966419Y-92782813D01*
X124053998Y-94870390D01*
X124746931Y-95563323D01*
X124836639Y-95653031D01*
X124856376Y-95663087D01*
X124872962Y-95673250D01*
X124890891Y-95686277D01*
X124911962Y-95693123D01*
X124929939Y-95700569D01*
X124949677Y-95710627D01*
X124971559Y-95714092D01*
X124990472Y-95718633D01*
X125011548Y-95725481D01*
X125043462Y-95725481D01*
X126025535Y-95725481D01*
X126092574Y-95745166D01*
X126101021Y-95751105D01*
X126150563Y-95789120D01*
X126172356Y-95805842D01*
X126306272Y-95861311D01*
X126395416Y-95873046D01*
X126459311Y-95901312D01*
X126466911Y-95908304D01*
X127538181Y-96979574D01*
X127571666Y-97040897D01*
X127574500Y-97067255D01*
X127574500Y-97250500D01*
X127554815Y-97317539D01*
X127502011Y-97363294D01*
X127450500Y-97374500D01*
X127186567Y-97374500D01*
X127165491Y-97381347D01*
X127146582Y-97385887D01*
X127124695Y-97389354D01*
X127104952Y-97399413D01*
X127086988Y-97406854D01*
X127065910Y-97413703D01*
X127065905Y-97413706D01*
X127047977Y-97426731D01*
X127031397Y-97436891D01*
X127011660Y-97446948D01*
X127011659Y-97446948D01*
X127000376Y-97458231D01*
X126989094Y-97469513D01*
X126989093Y-97469513D01*
X126644513Y-97814093D01*
X126644513Y-97814094D01*
X126633231Y-97825376D01*
X126621948Y-97836659D01*
X126621948Y-97836660D01*
X126611891Y-97856397D01*
X126601731Y-97872977D01*
X126588706Y-97890905D01*
X126588703Y-97890910D01*
X126581854Y-97911988D01*
X126574417Y-97929944D01*
X126570802Y-97937041D01*
X126522834Y-97987843D01*
X126455015Y-98004647D01*
X126404016Y-97991245D01*
X126400304Y-97989354D01*
X126400300Y-97989352D01*
X126275003Y-97969508D01*
X126274997Y-97969508D01*
X126149699Y-97989352D01*
X126149698Y-97989352D01*
X126074337Y-98027751D01*
X126036658Y-98046950D01*
X126036657Y-98046951D01*
X126036652Y-98046954D01*
X125946954Y-98136652D01*
X125946951Y-98136657D01*
X125946950Y-98136658D01*
X125927751Y-98174337D01*
X125889352Y-98249698D01*
X125889352Y-98249699D01*
X125869508Y-98374996D01*
X125869508Y-98375003D01*
X125889352Y-98500300D01*
X125889352Y-98500301D01*
X125904814Y-98530646D01*
X125946950Y-98613342D01*
X125946952Y-98613344D01*
X125946954Y-98613347D01*
X126036652Y-98703045D01*
X126036654Y-98703046D01*
X126036658Y-98703050D01*
X126149696Y-98760646D01*
X126149697Y-98760646D01*
X126149699Y-98760647D01*
X126274997Y-98780492D01*
X126283517Y-98780492D01*
X126295094Y-98783891D01*
X126306548Y-98776531D01*
X126322086Y-98773035D01*
X126400300Y-98760647D01*
X126400301Y-98760647D01*
X126400302Y-98760646D01*
X126400304Y-98760646D01*
X126513342Y-98703050D01*
X126603050Y-98613342D01*
X126654206Y-98512942D01*
X126702178Y-98462148D01*
X126769999Y-98445353D01*
X126820987Y-98458756D01*
X126824696Y-98460646D01*
X126824699Y-98460646D01*
X126833978Y-98463662D01*
X126833179Y-98466119D01*
X126883225Y-98489832D01*
X126920167Y-98549137D01*
X126923184Y-98601787D01*
X126919508Y-98624999D01*
X126919508Y-98625003D01*
X126939352Y-98750300D01*
X126939352Y-98750301D01*
X126957805Y-98786517D01*
X126996950Y-98863342D01*
X126996952Y-98863344D01*
X126996954Y-98863347D01*
X127086652Y-98953045D01*
X127086654Y-98953046D01*
X127086658Y-98953050D01*
X127199696Y-99010646D01*
X127199697Y-99010646D01*
X127199699Y-99010647D01*
X127324997Y-99030492D01*
X127325000Y-99030492D01*
X127325003Y-99030492D01*
X127450300Y-99010647D01*
X127450301Y-99010647D01*
X127450302Y-99010646D01*
X127450304Y-99010646D01*
X127563342Y-98953050D01*
X127653050Y-98863342D01*
X127710646Y-98750304D01*
X127710646Y-98750302D01*
X127710647Y-98750301D01*
X127710647Y-98750300D01*
X127730492Y-98625003D01*
X127730492Y-98624996D01*
X127710647Y-98499699D01*
X127710647Y-98499698D01*
X127699653Y-98478122D01*
X127653050Y-98386658D01*
X127653045Y-98386653D01*
X127647311Y-98378759D01*
X127648502Y-98377893D01*
X127620089Y-98325858D01*
X127625073Y-98256166D01*
X127666945Y-98200233D01*
X127732409Y-98175816D01*
X127741255Y-98175500D01*
X127757745Y-98175500D01*
X127824784Y-98195185D01*
X127845426Y-98211819D01*
X128011501Y-98377893D01*
X128171950Y-98538342D01*
X128261658Y-98628050D01*
X128281395Y-98638106D01*
X128297981Y-98648269D01*
X128315910Y-98661296D01*
X128336981Y-98668142D01*
X128354958Y-98675588D01*
X128374696Y-98685646D01*
X128396578Y-98689111D01*
X128415491Y-98693652D01*
X128436567Y-98700500D01*
X128468481Y-98700500D01*
X129076715Y-98700500D01*
X129143754Y-98720185D01*
X129189509Y-98772989D01*
X129199453Y-98842147D01*
X129187199Y-98880795D01*
X129139354Y-98974693D01*
X129139352Y-98974699D01*
X129119508Y-99099996D01*
X129119508Y-99100003D01*
X129139352Y-99225300D01*
X129139352Y-99225301D01*
X129153491Y-99253050D01*
X129196950Y-99338342D01*
X129196952Y-99338344D01*
X129196954Y-99338347D01*
X129286652Y-99428045D01*
X129286654Y-99428046D01*
X129286658Y-99428050D01*
X129389106Y-99480250D01*
X129399698Y-99485647D01*
X129427353Y-99490027D01*
X129490487Y-99519956D01*
X129524468Y-99574528D01*
X129562187Y-99517638D01*
X129622647Y-99490027D01*
X129650300Y-99485647D01*
X129650301Y-99485647D01*
X129650302Y-99485646D01*
X129650304Y-99485646D01*
X129763342Y-99428050D01*
X129853050Y-99338342D01*
X129910646Y-99225304D01*
X129910646Y-99225302D01*
X129910647Y-99225301D01*
X129910647Y-99225300D01*
X129930492Y-99100003D01*
X129930492Y-99099996D01*
X129910647Y-98974699D01*
X129910645Y-98974693D01*
X129862801Y-98880795D01*
X129849904Y-98812126D01*
X129876180Y-98747386D01*
X129933286Y-98707128D01*
X129973285Y-98700500D01*
X130082745Y-98700500D01*
X130149784Y-98720185D01*
X130170426Y-98736819D01*
X130596950Y-99163342D01*
X130635639Y-99202031D01*
X130669124Y-99263354D01*
X130664140Y-99333046D01*
X130622268Y-99388979D01*
X130564144Y-99412650D01*
X130556304Y-99413683D01*
X130556303Y-99413683D01*
X130556300Y-99413684D01*
X130422390Y-99469150D01*
X130307392Y-99557392D01*
X130219150Y-99672390D01*
X130163684Y-99806300D01*
X130163683Y-99806304D01*
X130143702Y-99958071D01*
X130140372Y-99957632D01*
X130125078Y-100009718D01*
X130095931Y-100034973D01*
X130147133Y-100068921D01*
X130166832Y-100101326D01*
X130215009Y-100217636D01*
X130219152Y-100227638D01*
X130307392Y-100342634D01*
X130422388Y-100430874D01*
X130556304Y-100486343D01*
X130683166Y-100503045D01*
X130700012Y-100505263D01*
X130700013Y-100505263D01*
X130700014Y-100505263D01*
X130716860Y-100503045D01*
X130843722Y-100486343D01*
X130977638Y-100430874D01*
X131092634Y-100342634D01*
X131180874Y-100227638D01*
X131236343Y-100093722D01*
X131255263Y-99950013D01*
X131236343Y-99806304D01*
X131180874Y-99672388D01*
X131092634Y-99557392D01*
X131092632Y-99557391D01*
X131092632Y-99557390D01*
X131083393Y-99550301D01*
X131080231Y-99547875D01*
X131039029Y-99491448D01*
X131034874Y-99421702D01*
X131069086Y-99360782D01*
X131130803Y-99328029D01*
X131155718Y-99325500D01*
X131175554Y-99325500D01*
X131242593Y-99345185D01*
X131251040Y-99351124D01*
X131258263Y-99356666D01*
X131322375Y-99405861D01*
X131456291Y-99461330D01*
X131583280Y-99478048D01*
X131599999Y-99480250D01*
X131600000Y-99480250D01*
X131600001Y-99480250D01*
X131614977Y-99478278D01*
X131743709Y-99461330D01*
X131877625Y-99405861D01*
X131992621Y-99317621D01*
X132080861Y-99202625D01*
X132136330Y-99068709D01*
X132155250Y-98925000D01*
X132136330Y-98781291D01*
X132093839Y-98678706D01*
X132092305Y-98675003D01*
X134169508Y-98675003D01*
X134189352Y-98800300D01*
X134189352Y-98800301D01*
X134200585Y-98822346D01*
X134246950Y-98913342D01*
X134246952Y-98913344D01*
X134246954Y-98913347D01*
X134336652Y-99003045D01*
X134336654Y-99003046D01*
X134336658Y-99003050D01*
X134449696Y-99060646D01*
X134449697Y-99060646D01*
X134449699Y-99060647D01*
X134574997Y-99080492D01*
X134575000Y-99080492D01*
X134575003Y-99080492D01*
X134700300Y-99060647D01*
X134700301Y-99060647D01*
X134700302Y-99060646D01*
X134700304Y-99060646D01*
X134813342Y-99003050D01*
X134903050Y-98913342D01*
X134960646Y-98800304D01*
X134960646Y-98800302D01*
X134960647Y-98800301D01*
X134960647Y-98800300D01*
X134980492Y-98675003D01*
X134980492Y-98674996D01*
X134960647Y-98549699D01*
X134960647Y-98549698D01*
X134954861Y-98538342D01*
X134903050Y-98436658D01*
X134903046Y-98436654D01*
X134903045Y-98436652D01*
X134813347Y-98346954D01*
X134813344Y-98346952D01*
X134813342Y-98346950D01*
X134700304Y-98289354D01*
X134700303Y-98289353D01*
X134700300Y-98289352D01*
X134575003Y-98269508D01*
X134574997Y-98269508D01*
X134449699Y-98289352D01*
X134449698Y-98289352D01*
X134379808Y-98324964D01*
X134336658Y-98346950D01*
X134336657Y-98346951D01*
X134336652Y-98346954D01*
X134246954Y-98436652D01*
X134246951Y-98436657D01*
X134246950Y-98436658D01*
X134233962Y-98462148D01*
X134189352Y-98549698D01*
X134189352Y-98549699D01*
X134169508Y-98674996D01*
X134169508Y-98675003D01*
X132092305Y-98675003D01*
X132080862Y-98647377D01*
X132080861Y-98647376D01*
X132080861Y-98647375D01*
X131992621Y-98532379D01*
X131877625Y-98444139D01*
X131877624Y-98444138D01*
X131877622Y-98444137D01*
X131743712Y-98388671D01*
X131743710Y-98388670D01*
X131743709Y-98388670D01*
X131639847Y-98374996D01*
X131600001Y-98369750D01*
X131599999Y-98369750D01*
X131456291Y-98388670D01*
X131456287Y-98388671D01*
X131322376Y-98444138D01*
X131322374Y-98444139D01*
X131251040Y-98498876D01*
X131185871Y-98524070D01*
X131175554Y-98524500D01*
X131142254Y-98524500D01*
X131075215Y-98504815D01*
X131054573Y-98488181D01*
X130557813Y-97991419D01*
X130557782Y-97991390D01*
X130538342Y-97971950D01*
X130538340Y-97971949D01*
X130518600Y-97961890D01*
X130502014Y-97951726D01*
X130484090Y-97938704D01*
X130484091Y-97938704D01*
X130463018Y-97931857D01*
X130445045Y-97924412D01*
X130425307Y-97914355D01*
X130425304Y-97914354D01*
X130403418Y-97910887D01*
X130384507Y-97906346D01*
X130363439Y-97899501D01*
X130363434Y-97899500D01*
X130363433Y-97899500D01*
X130363429Y-97899500D01*
X129939238Y-97899500D01*
X129872199Y-97879815D01*
X129826444Y-97827011D01*
X129816500Y-97757853D01*
X129823762Y-97734950D01*
X129822631Y-97734583D01*
X129825647Y-97725300D01*
X129845492Y-97600003D01*
X129845492Y-97599996D01*
X129831247Y-97510056D01*
X132149500Y-97510056D01*
X132151837Y-97519536D01*
X132190210Y-97675226D01*
X132269263Y-97825849D01*
X132271806Y-97828719D01*
X132382071Y-97953183D01*
X132456629Y-98004647D01*
X132522068Y-98049817D01*
X132522069Y-98049817D01*
X132522070Y-98049818D01*
X132681128Y-98110140D01*
X132757028Y-98119356D01*
X132807626Y-98125500D01*
X132807628Y-98125500D01*
X132892374Y-98125500D01*
X132934538Y-98120380D01*
X133018872Y-98110140D01*
X133177930Y-98049818D01*
X133317929Y-97953183D01*
X133430734Y-97825852D01*
X133435407Y-97816950D01*
X133478116Y-97735574D01*
X133509790Y-97675225D01*
X133550500Y-97510056D01*
X133550500Y-97339944D01*
X133509790Y-97174775D01*
X133509789Y-97174773D01*
X133430736Y-97024150D01*
X133391245Y-96979574D01*
X133317929Y-96896817D01*
X133268177Y-96862475D01*
X133177931Y-96800182D01*
X133018874Y-96739860D01*
X133018868Y-96739859D01*
X132892374Y-96724500D01*
X132892372Y-96724500D01*
X132807628Y-96724500D01*
X132807626Y-96724500D01*
X132681131Y-96739859D01*
X132681125Y-96739860D01*
X132522068Y-96800182D01*
X132382072Y-96896816D01*
X132269263Y-97024150D01*
X132190210Y-97174773D01*
X132166258Y-97271954D01*
X132149500Y-97339944D01*
X132149500Y-97510056D01*
X129831247Y-97510056D01*
X129825647Y-97474699D01*
X129825647Y-97474698D01*
X129823005Y-97469513D01*
X129768050Y-97361658D01*
X129768046Y-97361654D01*
X129768045Y-97361652D01*
X129678347Y-97271954D01*
X129678344Y-97271952D01*
X129678342Y-97271950D01*
X129565304Y-97214354D01*
X129565303Y-97214353D01*
X129565300Y-97214352D01*
X129440003Y-97194508D01*
X129439997Y-97194508D01*
X129314699Y-97214352D01*
X129314698Y-97214352D01*
X129243756Y-97250500D01*
X129201658Y-97271950D01*
X129201657Y-97271951D01*
X129201652Y-97271954D01*
X129111954Y-97361652D01*
X129111951Y-97361657D01*
X129111950Y-97361658D01*
X129105407Y-97374500D01*
X129054352Y-97474698D01*
X129054352Y-97474699D01*
X129034508Y-97599996D01*
X129034508Y-97600003D01*
X129054352Y-97725300D01*
X129057369Y-97734583D01*
X129054319Y-97735574D01*
X129064144Y-97787864D01*
X129037873Y-97852607D01*
X128980770Y-97892868D01*
X128940762Y-97899500D01*
X128717254Y-97899500D01*
X128650215Y-97879815D01*
X128629573Y-97863181D01*
X128411819Y-97645426D01*
X128378334Y-97584103D01*
X128375500Y-97557745D01*
X128375500Y-96786569D01*
X128375499Y-96786565D01*
X128368651Y-96765489D01*
X128364112Y-96746582D01*
X128360646Y-96724696D01*
X128350586Y-96704953D01*
X128343144Y-96686985D01*
X128336297Y-96665911D01*
X128323266Y-96647976D01*
X128313103Y-96631389D01*
X128306691Y-96618804D01*
X128303050Y-96611658D01*
X128284824Y-96593432D01*
X128284804Y-96593410D01*
X127033304Y-95341911D01*
X126999819Y-95280588D01*
X126998048Y-95270429D01*
X126986311Y-95181272D01*
X126930842Y-95047356D01*
X126927732Y-95039847D01*
X126930985Y-95038499D01*
X126927701Y-95025003D01*
X128669508Y-95025003D01*
X128689352Y-95150300D01*
X128689352Y-95150301D01*
X128689354Y-95150304D01*
X128746950Y-95263342D01*
X128746952Y-95263344D01*
X128746954Y-95263347D01*
X128836652Y-95353045D01*
X128836654Y-95353046D01*
X128836658Y-95353050D01*
X128949696Y-95410646D01*
X129052734Y-95426965D01*
X129115866Y-95456893D01*
X129152798Y-95516205D01*
X129151800Y-95586067D01*
X129131711Y-95624923D01*
X129097301Y-95669767D01*
X129097300Y-95669769D01*
X129039313Y-95809763D01*
X129039312Y-95809765D01*
X129019534Y-95959999D01*
X129019534Y-95960000D01*
X129039312Y-96110234D01*
X129039313Y-96110236D01*
X129097206Y-96250003D01*
X129097302Y-96250233D01*
X129189549Y-96370451D01*
X129309767Y-96462698D01*
X129449764Y-96520687D01*
X129562280Y-96535500D01*
X129562287Y-96535500D01*
X129637713Y-96535500D01*
X129637720Y-96535500D01*
X129750236Y-96520687D01*
X129890233Y-96462698D01*
X130010451Y-96370451D01*
X130102698Y-96250233D01*
X130160687Y-96110236D01*
X130180466Y-95960000D01*
X130160687Y-95809764D01*
X130102698Y-95669767D01*
X130010451Y-95549549D01*
X129890233Y-95457302D01*
X129890229Y-95457300D01*
X129816991Y-95426964D01*
X129750236Y-95399313D01*
X129736171Y-95397461D01*
X129637727Y-95384500D01*
X129637720Y-95384500D01*
X129562280Y-95384500D01*
X129562275Y-95384500D01*
X129562267Y-95384501D01*
X129559084Y-95384920D01*
X129490049Y-95374147D01*
X129437799Y-95327761D01*
X129418921Y-95260490D01*
X129432427Y-95205686D01*
X129460646Y-95150304D01*
X129460646Y-95150302D01*
X129460647Y-95150300D01*
X129480492Y-95025003D01*
X129480492Y-95024996D01*
X129460647Y-94899699D01*
X129460647Y-94899698D01*
X129459247Y-94896950D01*
X129403050Y-94786658D01*
X129403046Y-94786654D01*
X129403045Y-94786652D01*
X129313347Y-94696954D01*
X129313344Y-94696952D01*
X129313342Y-94696950D01*
X129200304Y-94639354D01*
X129200303Y-94639353D01*
X129200300Y-94639352D01*
X129075003Y-94619508D01*
X129074997Y-94619508D01*
X128949699Y-94639352D01*
X128949698Y-94639352D01*
X128874591Y-94677622D01*
X128836658Y-94696950D01*
X128836657Y-94696951D01*
X128836652Y-94696954D01*
X128746954Y-94786652D01*
X128746951Y-94786657D01*
X128746950Y-94786658D01*
X128730212Y-94819508D01*
X128689352Y-94899698D01*
X128689352Y-94899699D01*
X128669508Y-95024996D01*
X128669508Y-95025003D01*
X126927701Y-95025003D01*
X126918296Y-94986349D01*
X126941104Y-94920307D01*
X126995995Y-94877079D01*
X127065544Y-94870390D01*
X127089250Y-94879236D01*
X127089866Y-94877751D01*
X127142847Y-94899696D01*
X127231291Y-94936330D01*
X127358280Y-94953048D01*
X127374999Y-94955250D01*
X127375000Y-94955250D01*
X127375001Y-94955250D01*
X127389977Y-94953278D01*
X127518709Y-94936330D01*
X127652625Y-94880861D01*
X127767621Y-94792621D01*
X127855861Y-94677625D01*
X127909015Y-94549299D01*
X130293192Y-94549299D01*
X130312112Y-94693007D01*
X130312113Y-94693011D01*
X130367579Y-94826921D01*
X130367580Y-94826923D01*
X130367581Y-94826924D01*
X130455821Y-94941920D01*
X130570817Y-95030160D01*
X130704733Y-95085629D01*
X130831722Y-95102347D01*
X130848441Y-95104549D01*
X130848442Y-95104549D01*
X130848443Y-95104549D01*
X130863419Y-95102577D01*
X130992151Y-95085629D01*
X131126067Y-95030160D01*
X131241063Y-94941920D01*
X131329303Y-94826924D01*
X131384772Y-94693008D01*
X131403692Y-94549299D01*
X131402956Y-94543712D01*
X131399252Y-94515572D01*
X131384772Y-94405590D01*
X131329303Y-94271674D01*
X131241063Y-94156678D01*
X131126067Y-94068438D01*
X131126066Y-94068437D01*
X131126064Y-94068436D01*
X130992154Y-94012970D01*
X130992152Y-94012969D01*
X130992151Y-94012969D01*
X130920296Y-94003509D01*
X130848443Y-93994049D01*
X130848441Y-93994049D01*
X130704733Y-94012969D01*
X130704729Y-94012970D01*
X130570819Y-94068436D01*
X130455821Y-94156678D01*
X130367579Y-94271676D01*
X130312113Y-94405586D01*
X130312112Y-94405590D01*
X130293192Y-94549298D01*
X130293192Y-94549299D01*
X127909015Y-94549299D01*
X127911330Y-94543709D01*
X127930250Y-94400000D01*
X127911330Y-94256291D01*
X127855861Y-94122375D01*
X127767621Y-94007379D01*
X127652625Y-93919139D01*
X127652624Y-93919138D01*
X127652622Y-93919137D01*
X127518712Y-93863671D01*
X127518710Y-93863670D01*
X127518709Y-93863670D01*
X127446854Y-93854210D01*
X127375001Y-93844750D01*
X127374999Y-93844750D01*
X127231291Y-93863670D01*
X127231287Y-93863671D01*
X127097377Y-93919137D01*
X126982379Y-94007379D01*
X126894137Y-94122377D01*
X126838671Y-94256287D01*
X126838670Y-94256291D01*
X126832325Y-94304483D01*
X126804057Y-94368379D01*
X126745732Y-94406850D01*
X126675868Y-94407680D01*
X126616645Y-94370607D01*
X126586912Y-94307691D01*
X126585646Y-94299696D01*
X126571368Y-94271674D01*
X126528050Y-94186658D01*
X126528046Y-94186654D01*
X126528045Y-94186652D01*
X126438347Y-94096954D01*
X126438344Y-94096952D01*
X126438342Y-94096950D01*
X126325304Y-94039354D01*
X126325303Y-94039353D01*
X126325300Y-94039352D01*
X126200003Y-94019508D01*
X126199997Y-94019508D01*
X126074699Y-94039352D01*
X126074698Y-94039352D01*
X125999337Y-94077751D01*
X125961658Y-94096950D01*
X125961657Y-94096951D01*
X125961652Y-94096954D01*
X125871954Y-94186652D01*
X125871951Y-94186657D01*
X125814352Y-94299698D01*
X125814352Y-94299699D01*
X125794508Y-94424996D01*
X125794508Y-94425003D01*
X125814352Y-94550300D01*
X125814352Y-94550301D01*
X125826743Y-94574618D01*
X125871950Y-94663342D01*
X125871952Y-94663344D01*
X125871954Y-94663347D01*
X125921407Y-94712800D01*
X125954892Y-94774123D01*
X125949908Y-94843815D01*
X125908036Y-94899748D01*
X125842572Y-94924165D01*
X125833726Y-94924481D01*
X125292235Y-94924481D01*
X125225196Y-94904796D01*
X125204554Y-94888162D01*
X122711819Y-92395426D01*
X122678334Y-92334103D01*
X122675500Y-92307745D01*
X122675500Y-91537653D01*
X126092819Y-91537653D01*
X126112663Y-91662950D01*
X126112663Y-91662951D01*
X126112665Y-91662954D01*
X126170261Y-91775992D01*
X126170263Y-91775994D01*
X126170265Y-91775997D01*
X126259963Y-91865695D01*
X126259965Y-91865696D01*
X126259969Y-91865700D01*
X126373007Y-91923296D01*
X126373008Y-91923296D01*
X126373010Y-91923297D01*
X126498308Y-91943142D01*
X126498311Y-91943142D01*
X126498314Y-91943142D01*
X126623611Y-91923297D01*
X126623612Y-91923297D01*
X126623613Y-91923296D01*
X126623615Y-91923296D01*
X126736653Y-91865700D01*
X126826361Y-91775992D01*
X126832887Y-91763184D01*
X129240754Y-91763184D01*
X129260598Y-91888481D01*
X129260598Y-91888482D01*
X129266312Y-91899696D01*
X129318196Y-92001523D01*
X129318198Y-92001525D01*
X129318200Y-92001528D01*
X129407898Y-92091226D01*
X129407900Y-92091227D01*
X129407904Y-92091231D01*
X129520942Y-92148827D01*
X129520943Y-92148827D01*
X129520945Y-92148828D01*
X129646243Y-92168673D01*
X129646246Y-92168673D01*
X129646249Y-92168673D01*
X129771546Y-92148828D01*
X129771547Y-92148828D01*
X129771548Y-92148827D01*
X129771550Y-92148827D01*
X129884588Y-92091231D01*
X129950816Y-92025003D01*
X132119508Y-92025003D01*
X132139352Y-92150300D01*
X132139352Y-92150301D01*
X132151782Y-92174696D01*
X132196950Y-92263342D01*
X132196952Y-92263344D01*
X132196954Y-92263347D01*
X132286652Y-92353045D01*
X132286654Y-92353046D01*
X132286658Y-92353050D01*
X132399696Y-92410646D01*
X132399697Y-92410646D01*
X132399699Y-92410647D01*
X132524997Y-92430492D01*
X132525000Y-92430492D01*
X132525003Y-92430492D01*
X132650300Y-92410647D01*
X132650301Y-92410647D01*
X132650302Y-92410646D01*
X132650304Y-92410646D01*
X132763342Y-92353050D01*
X132853050Y-92263342D01*
X132910646Y-92150304D01*
X132910646Y-92150302D01*
X132910647Y-92150301D01*
X132910647Y-92150300D01*
X132930492Y-92025003D01*
X132930492Y-92024996D01*
X132910647Y-91899699D01*
X132910647Y-91899698D01*
X132910646Y-91899696D01*
X132853050Y-91786658D01*
X132853046Y-91786654D01*
X132853045Y-91786652D01*
X132763347Y-91696954D01*
X132763344Y-91696952D01*
X132763342Y-91696950D01*
X132650304Y-91639354D01*
X132650303Y-91639353D01*
X132650300Y-91639352D01*
X132525003Y-91619508D01*
X132524997Y-91619508D01*
X132399699Y-91639352D01*
X132399698Y-91639352D01*
X132324337Y-91677751D01*
X132286658Y-91696950D01*
X132286657Y-91696951D01*
X132286652Y-91696954D01*
X132196954Y-91786652D01*
X132196951Y-91786657D01*
X132139352Y-91899698D01*
X132139352Y-91899699D01*
X132119508Y-92024996D01*
X132119508Y-92025003D01*
X129950816Y-92025003D01*
X129974296Y-92001523D01*
X130031892Y-91888485D01*
X130031892Y-91888483D01*
X130031893Y-91888482D01*
X130031893Y-91888481D01*
X130051738Y-91763184D01*
X130051738Y-91763177D01*
X130031893Y-91637880D01*
X130031893Y-91637879D01*
X130022532Y-91619508D01*
X129974296Y-91524839D01*
X129974292Y-91524835D01*
X129974291Y-91524833D01*
X129884593Y-91435135D01*
X129884590Y-91435133D01*
X129884588Y-91435131D01*
X129771550Y-91377535D01*
X129771549Y-91377534D01*
X129771546Y-91377533D01*
X129646249Y-91357689D01*
X129646243Y-91357689D01*
X129520945Y-91377533D01*
X129520944Y-91377533D01*
X129452622Y-91412346D01*
X129407904Y-91435131D01*
X129407903Y-91435132D01*
X129407898Y-91435135D01*
X129318200Y-91524833D01*
X129318197Y-91524838D01*
X129318196Y-91524839D01*
X129298997Y-91562518D01*
X129260598Y-91637879D01*
X129260598Y-91637880D01*
X129240754Y-91763177D01*
X129240754Y-91763184D01*
X126832887Y-91763184D01*
X126883957Y-91662954D01*
X126883957Y-91662952D01*
X126883958Y-91662951D01*
X126883958Y-91662950D01*
X126903803Y-91537653D01*
X126903803Y-91537646D01*
X126883958Y-91412349D01*
X126883958Y-91412348D01*
X126883957Y-91412346D01*
X126826361Y-91299308D01*
X126826357Y-91299304D01*
X126826356Y-91299302D01*
X126736658Y-91209604D01*
X126736655Y-91209602D01*
X126736653Y-91209600D01*
X126623615Y-91152004D01*
X126623614Y-91152003D01*
X126623611Y-91152002D01*
X126498314Y-91132158D01*
X126498308Y-91132158D01*
X126373010Y-91152002D01*
X126373009Y-91152002D01*
X126297648Y-91190401D01*
X126259969Y-91209600D01*
X126259968Y-91209601D01*
X126259963Y-91209604D01*
X126170265Y-91299302D01*
X126170262Y-91299307D01*
X126112663Y-91412348D01*
X126112663Y-91412349D01*
X126092819Y-91537646D01*
X126092819Y-91537653D01*
X122675500Y-91537653D01*
X122675500Y-89734461D01*
X122686706Y-89682949D01*
X122711697Y-89628228D01*
X122730133Y-89500002D01*
X122711697Y-89371776D01*
X122657882Y-89253939D01*
X122573049Y-89156035D01*
X122464069Y-89085998D01*
X122464065Y-89085996D01*
X122464064Y-89085996D01*
X122339774Y-89049502D01*
X122339772Y-89049502D01*
X122210228Y-89049502D01*
X122210226Y-89049502D01*
X122085935Y-89085996D01*
X122085932Y-89085997D01*
X122085931Y-89085998D01*
X122054000Y-89106519D01*
X121976950Y-89156035D01*
X121892118Y-89253939D01*
X121892117Y-89253940D01*
X121838302Y-89371776D01*
X121819867Y-89500002D01*
X114150500Y-89500002D01*
X114150500Y-89106517D01*
X115799500Y-89106517D01*
X115807343Y-89156035D01*
X115814354Y-89200304D01*
X115871950Y-89313342D01*
X115871952Y-89313344D01*
X115871954Y-89313347D01*
X115961652Y-89403045D01*
X115961654Y-89403046D01*
X115961658Y-89403050D01*
X116051571Y-89448863D01*
X116074698Y-89460647D01*
X116168475Y-89475499D01*
X116168481Y-89475500D01*
X116931518Y-89475499D01*
X117025304Y-89460646D01*
X117138342Y-89403050D01*
X117228050Y-89313342D01*
X117285646Y-89200304D01*
X117285646Y-89200302D01*
X117285647Y-89200301D01*
X117300499Y-89106524D01*
X117300500Y-89106519D01*
X117300500Y-88768709D01*
X117799500Y-88768709D01*
X117813063Y-88884749D01*
X117814759Y-88899256D01*
X117814760Y-88899259D01*
X117874762Y-89064115D01*
X117874764Y-89064119D01*
X117971167Y-89210693D01*
X117971168Y-89210694D01*
X118098778Y-89331089D01*
X118098780Y-89331090D01*
X118098782Y-89331092D01*
X118250719Y-89418812D01*
X118418790Y-89469130D01*
X118593935Y-89479331D01*
X118766711Y-89448865D01*
X118927804Y-89379377D01*
X119068530Y-89274610D01*
X119181302Y-89140214D01*
X119260040Y-88983433D01*
X119277443Y-88910003D01*
X125184508Y-88910003D01*
X125204352Y-89035300D01*
X125204352Y-89035301D01*
X125204354Y-89035304D01*
X125261950Y-89148342D01*
X125261952Y-89148344D01*
X125261954Y-89148347D01*
X125351652Y-89238045D01*
X125351654Y-89238046D01*
X125351658Y-89238050D01*
X125464696Y-89295646D01*
X125464697Y-89295646D01*
X125464699Y-89295647D01*
X125589997Y-89315492D01*
X125590000Y-89315492D01*
X125590003Y-89315492D01*
X125715300Y-89295647D01*
X125715301Y-89295647D01*
X125715302Y-89295646D01*
X125715304Y-89295646D01*
X125828342Y-89238050D01*
X125918050Y-89148342D01*
X125975646Y-89035304D01*
X125975646Y-89035302D01*
X125975647Y-89035301D01*
X125975647Y-89035300D01*
X125995492Y-88910003D01*
X125995492Y-88909996D01*
X125975647Y-88784699D01*
X125975647Y-88784698D01*
X125967496Y-88768701D01*
X125918050Y-88671658D01*
X125918046Y-88671654D01*
X125918045Y-88671652D01*
X125828347Y-88581954D01*
X125828344Y-88581952D01*
X125828342Y-88581950D01*
X125715304Y-88524354D01*
X125715303Y-88524353D01*
X125715300Y-88524352D01*
X125590003Y-88504508D01*
X125589997Y-88504508D01*
X125464699Y-88524352D01*
X125464698Y-88524352D01*
X125389337Y-88562751D01*
X125351658Y-88581950D01*
X125351657Y-88581951D01*
X125351652Y-88581954D01*
X125261954Y-88671652D01*
X125261951Y-88671657D01*
X125204352Y-88784698D01*
X125204352Y-88784699D01*
X125184508Y-88909996D01*
X125184508Y-88910003D01*
X119277443Y-88910003D01*
X119300500Y-88812721D01*
X119300500Y-88325003D01*
X122119508Y-88325003D01*
X122139352Y-88450300D01*
X122139352Y-88450301D01*
X122139354Y-88450304D01*
X122196950Y-88563342D01*
X122196952Y-88563344D01*
X122196954Y-88563347D01*
X122286652Y-88653045D01*
X122286654Y-88653046D01*
X122286658Y-88653050D01*
X122399696Y-88710646D01*
X122399697Y-88710646D01*
X122399699Y-88710647D01*
X122524997Y-88730492D01*
X122525000Y-88730492D01*
X122525003Y-88730492D01*
X122650300Y-88710647D01*
X122650301Y-88710647D01*
X122650302Y-88710646D01*
X122650304Y-88710646D01*
X122763342Y-88653050D01*
X122853050Y-88563342D01*
X122910646Y-88450304D01*
X122910646Y-88450302D01*
X122910647Y-88450301D01*
X122910647Y-88450300D01*
X122930492Y-88325003D01*
X122930492Y-88324996D01*
X122910647Y-88199699D01*
X122910647Y-88199698D01*
X122910646Y-88199696D01*
X122853050Y-88086658D01*
X122853046Y-88086654D01*
X122853045Y-88086652D01*
X122763347Y-87996954D01*
X122763344Y-87996952D01*
X122763342Y-87996950D01*
X122667240Y-87947983D01*
X122616446Y-87900010D01*
X122599651Y-87832189D01*
X122622189Y-87766054D01*
X122667240Y-87727016D01*
X122763342Y-87678050D01*
X122853050Y-87588342D01*
X122910646Y-87475304D01*
X122910646Y-87475302D01*
X122910647Y-87475301D01*
X122910647Y-87475300D01*
X122930492Y-87350003D01*
X122930492Y-87349996D01*
X122910647Y-87224699D01*
X122910647Y-87224698D01*
X122910646Y-87224696D01*
X122853050Y-87111658D01*
X122853046Y-87111654D01*
X122853045Y-87111652D01*
X122763347Y-87021954D01*
X122763344Y-87021952D01*
X122763342Y-87021950D01*
X122650304Y-86964354D01*
X122650303Y-86964353D01*
X122650300Y-86964352D01*
X122525003Y-86944508D01*
X122524997Y-86944508D01*
X122399699Y-86964352D01*
X122399698Y-86964352D01*
X122324337Y-87002751D01*
X122286658Y-87021950D01*
X122286657Y-87021951D01*
X122286652Y-87021954D01*
X122196954Y-87111652D01*
X122196951Y-87111657D01*
X122139352Y-87224698D01*
X122139352Y-87224699D01*
X122119508Y-87349996D01*
X122119508Y-87350003D01*
X122139352Y-87475300D01*
X122139352Y-87475301D01*
X122139354Y-87475304D01*
X122196950Y-87588342D01*
X122196952Y-87588344D01*
X122196954Y-87588347D01*
X122286652Y-87678045D01*
X122286661Y-87678052D01*
X122382757Y-87727016D01*
X122433553Y-87774990D01*
X122450348Y-87842811D01*
X122427810Y-87908946D01*
X122382757Y-87947984D01*
X122286661Y-87996947D01*
X122286652Y-87996954D01*
X122196954Y-88086652D01*
X122196951Y-88086657D01*
X122139352Y-88199698D01*
X122139352Y-88199699D01*
X122119508Y-88324996D01*
X122119508Y-88325003D01*
X119300500Y-88325003D01*
X119300500Y-88131291D01*
X119285241Y-88000745D01*
X119225237Y-87835883D01*
X119221595Y-87830346D01*
X119128832Y-87689306D01*
X119128831Y-87689305D01*
X119001221Y-87568910D01*
X118849281Y-87481188D01*
X118849282Y-87481188D01*
X118681210Y-87430870D01*
X118681205Y-87430869D01*
X118506066Y-87420669D01*
X118506065Y-87420669D01*
X118448220Y-87430869D01*
X118333293Y-87451134D01*
X118333291Y-87451134D01*
X118333289Y-87451135D01*
X118333287Y-87451136D01*
X118172198Y-87520622D01*
X118172190Y-87520626D01*
X118031469Y-87625390D01*
X117918698Y-87759785D01*
X117918697Y-87759787D01*
X117839961Y-87916562D01*
X117839960Y-87916567D01*
X117799500Y-88087279D01*
X117799500Y-88768709D01*
X117300500Y-88768709D01*
X117300499Y-87793482D01*
X117285646Y-87699696D01*
X117228050Y-87586658D01*
X117228046Y-87586654D01*
X117228045Y-87586652D01*
X117138347Y-87496954D01*
X117138344Y-87496952D01*
X117138342Y-87496950D01*
X117061517Y-87457805D01*
X117025301Y-87439352D01*
X116931524Y-87424500D01*
X116168482Y-87424500D01*
X116087519Y-87437323D01*
X116074696Y-87439354D01*
X115961658Y-87496950D01*
X115961657Y-87496951D01*
X115961652Y-87496954D01*
X115871954Y-87586652D01*
X115871951Y-87586657D01*
X115871950Y-87586658D01*
X115852751Y-87624337D01*
X115814352Y-87699698D01*
X115799500Y-87793475D01*
X115799500Y-89106517D01*
X114150500Y-89106517D01*
X114150500Y-86997635D01*
X114170185Y-86930596D01*
X114213477Y-86889690D01*
X114462887Y-86748694D01*
X114462886Y-86748694D01*
X114463675Y-86748248D01*
X114781063Y-86569405D01*
X114786408Y-86566567D01*
X115099851Y-86410003D01*
X123744508Y-86410003D01*
X123764352Y-86535300D01*
X123764352Y-86535301D01*
X123764354Y-86535304D01*
X123821950Y-86648342D01*
X123821952Y-86648344D01*
X123821954Y-86648347D01*
X123911652Y-86738045D01*
X123911654Y-86738046D01*
X123911658Y-86738050D01*
X124024696Y-86795646D01*
X124024697Y-86795646D01*
X124024699Y-86795647D01*
X124149997Y-86815492D01*
X124150000Y-86815492D01*
X124150003Y-86815492D01*
X124275300Y-86795647D01*
X124275301Y-86795647D01*
X124275302Y-86795646D01*
X124275304Y-86795646D01*
X124388342Y-86738050D01*
X124478050Y-86648342D01*
X124535646Y-86535304D01*
X124535646Y-86535302D01*
X124535647Y-86535301D01*
X124535647Y-86535300D01*
X124555492Y-86410003D01*
X124555492Y-86409996D01*
X124535647Y-86284699D01*
X124535647Y-86284698D01*
X124518889Y-86251809D01*
X124478050Y-86171658D01*
X124478046Y-86171654D01*
X124478045Y-86171652D01*
X124388347Y-86081954D01*
X124388344Y-86081952D01*
X124388342Y-86081950D01*
X124275304Y-86024354D01*
X124275303Y-86024353D01*
X124275300Y-86024352D01*
X124150003Y-86004508D01*
X124149997Y-86004508D01*
X124024699Y-86024352D01*
X124024698Y-86024352D01*
X123949337Y-86062751D01*
X123911658Y-86081950D01*
X123911657Y-86081951D01*
X123911652Y-86081954D01*
X123821954Y-86171652D01*
X123821951Y-86171657D01*
X123764352Y-86284698D01*
X123764352Y-86284699D01*
X123744508Y-86409996D01*
X123744508Y-86410003D01*
X115099851Y-86410003D01*
X115122766Y-86398557D01*
X115441396Y-86241100D01*
X115446548Y-86238703D01*
X115790733Y-86088306D01*
X115791450Y-86087996D01*
X116118055Y-85948041D01*
X116123065Y-85946024D01*
X116474526Y-85813459D01*
X116475259Y-85813187D01*
X116809214Y-85691015D01*
X116814009Y-85689372D01*
X117171869Y-85574976D01*
X117172825Y-85574678D01*
X117512989Y-85470727D01*
X117517453Y-85469456D01*
X117880522Y-85373603D01*
X117882105Y-85373199D01*
X118227320Y-85287823D01*
X118231511Y-85286865D01*
X118598930Y-85209767D01*
X118600943Y-85209364D01*
X118950312Y-85142783D01*
X118954142Y-85142119D01*
X119325092Y-85083947D01*
X119327516Y-85083594D01*
X119679848Y-85036031D01*
X119683338Y-85035612D01*
X120056826Y-84996526D01*
X120059577Y-84996272D01*
X120414093Y-84967832D01*
X120417174Y-84967626D01*
X120792103Y-84947742D01*
X120795377Y-84947613D01*
X121150703Y-84938401D01*
X121153577Y-84938360D01*
X121529007Y-84937720D01*
X121532590Y-84937768D01*
G37*
%TD.AperFunction*%
%TD*%
M02*
