%TF.GenerationSoftware,KiCad,Pcbnew,7.0.10*%
%TF.CreationDate,2025-12-12T10:11:07-05:00*%
%TF.ProjectId,MiniBot,4d696e69-426f-4742-9e6b-696361645f70,rev?*%
%TF.SameCoordinates,Original*%
%TF.FileFunction,Copper,L1,Top*%
%TF.FilePolarity,Positive*%
%FSLAX46Y46*%
G04 Gerber Fmt 4.6, Leading zero omitted, Abs format (unit mm)*
G04 Created by KiCad (PCBNEW 7.0.10) date 2025-12-12 10:11:07*
%MOMM*%
%LPD*%
G01*
G04 APERTURE LIST*
G04 Aperture macros list*
%AMRoundRect*
0 Rectangle with rounded corners*
0 $1 Rounding radius*
0 $2 $3 $4 $5 $6 $7 $8 $9 X,Y pos of 4 corners*
0 Add a 4 corners polygon primitive as box body*
4,1,4,$2,$3,$4,$5,$6,$7,$8,$9,$2,$3,0*
0 Add four circle primitives for the rounded corners*
1,1,$1+$1,$2,$3*
1,1,$1+$1,$4,$5*
1,1,$1+$1,$6,$7*
1,1,$1+$1,$8,$9*
0 Add four rect primitives between the rounded corners*
20,1,$1+$1,$2,$3,$4,$5,0*
20,1,$1+$1,$4,$5,$6,$7,0*
20,1,$1+$1,$6,$7,$8,$9,0*
20,1,$1+$1,$8,$9,$2,$3,0*%
G04 Aperture macros list end*
%TA.AperFunction,SMDPad,CuDef*%
%ADD10RoundRect,0.140000X-0.140000X-0.170000X0.140000X-0.170000X0.140000X0.170000X-0.140000X0.170000X0*%
%TD*%
%TA.AperFunction,SMDPad,CuDef*%
%ADD11RoundRect,0.135000X0.185000X-0.135000X0.185000X0.135000X-0.185000X0.135000X-0.185000X-0.135000X0*%
%TD*%
%TA.AperFunction,SMDPad,CuDef*%
%ADD12R,0.280000X0.800000*%
%TD*%
%TA.AperFunction,SMDPad,CuDef*%
%ADD13R,1.300000X0.700000*%
%TD*%
%TA.AperFunction,SMDPad,CuDef*%
%ADD14RoundRect,0.135000X-0.135000X-0.185000X0.135000X-0.185000X0.135000X0.185000X-0.135000X0.185000X0*%
%TD*%
%TA.AperFunction,SMDPad,CuDef*%
%ADD15RoundRect,0.135000X-0.185000X0.135000X-0.185000X-0.135000X0.185000X-0.135000X0.185000X0.135000X0*%
%TD*%
%TA.AperFunction,SMDPad,CuDef*%
%ADD16RoundRect,0.135000X0.135000X0.185000X-0.135000X0.185000X-0.135000X-0.185000X0.135000X-0.185000X0*%
%TD*%
%TA.AperFunction,SMDPad,CuDef*%
%ADD17RoundRect,0.150000X-0.150000X0.512500X-0.150000X-0.512500X0.150000X-0.512500X0.150000X0.512500X0*%
%TD*%
%TA.AperFunction,SMDPad,CuDef*%
%ADD18RoundRect,0.140000X-0.170000X0.140000X-0.170000X-0.140000X0.170000X-0.140000X0.170000X0.140000X0*%
%TD*%
%TA.AperFunction,SMDPad,CuDef*%
%ADD19RoundRect,0.150000X-0.150000X-0.625000X0.150000X-0.625000X0.150000X0.625000X-0.150000X0.625000X0*%
%TD*%
%TA.AperFunction,SMDPad,CuDef*%
%ADD20RoundRect,0.250000X-0.350000X-0.650000X0.350000X-0.650000X0.350000X0.650000X-0.350000X0.650000X0*%
%TD*%
%TA.AperFunction,SMDPad,CuDef*%
%ADD21RoundRect,0.147500X-0.172500X0.147500X-0.172500X-0.147500X0.172500X-0.147500X0.172500X0.147500X0*%
%TD*%
%TA.AperFunction,SMDPad,CuDef*%
%ADD22RoundRect,0.140000X0.140000X0.170000X-0.140000X0.170000X-0.140000X-0.170000X0.140000X-0.170000X0*%
%TD*%
%TA.AperFunction,SMDPad,CuDef*%
%ADD23RoundRect,0.140000X0.170000X-0.140000X0.170000X0.140000X-0.170000X0.140000X-0.170000X-0.140000X0*%
%TD*%
%TA.AperFunction,ComponentPad*%
%ADD24RoundRect,0.250000X-0.350000X-0.625000X0.350000X-0.625000X0.350000X0.625000X-0.350000X0.625000X0*%
%TD*%
%TA.AperFunction,ComponentPad*%
%ADD25O,1.200000X1.750000*%
%TD*%
%TA.AperFunction,SMDPad,CuDef*%
%ADD26RoundRect,0.062500X0.325000X0.062500X-0.325000X0.062500X-0.325000X-0.062500X0.325000X-0.062500X0*%
%TD*%
%TA.AperFunction,SMDPad,CuDef*%
%ADD27RoundRect,0.062500X0.062500X0.325000X-0.062500X0.325000X-0.062500X-0.325000X0.062500X-0.325000X0*%
%TD*%
%TA.AperFunction,SMDPad,CuDef*%
%ADD28R,1.800000X1.800000*%
%TD*%
%TA.AperFunction,SMDPad,CuDef*%
%ADD29R,1.500000X0.700000*%
%TD*%
%TA.AperFunction,SMDPad,CuDef*%
%ADD30R,0.800000X1.000000*%
%TD*%
%TA.AperFunction,SMDPad,CuDef*%
%ADD31R,0.550000X1.500000*%
%TD*%
%TA.AperFunction,SMDPad,CuDef*%
%ADD32RoundRect,0.218750X-0.218750X-0.381250X0.218750X-0.381250X0.218750X0.381250X-0.218750X0.381250X0*%
%TD*%
%TA.AperFunction,SMDPad,CuDef*%
%ADD33RoundRect,0.062500X-0.325000X-0.062500X0.325000X-0.062500X0.325000X0.062500X-0.325000X0.062500X0*%
%TD*%
%TA.AperFunction,SMDPad,CuDef*%
%ADD34RoundRect,0.062500X-0.062500X-0.325000X0.062500X-0.325000X0.062500X0.325000X-0.062500X0.325000X0*%
%TD*%
%TA.AperFunction,SMDPad,CuDef*%
%ADD35C,0.226000*%
%TD*%
%TA.AperFunction,SMDPad,CuDef*%
%ADD36RoundRect,0.147500X0.172500X-0.147500X0.172500X0.147500X-0.172500X0.147500X-0.172500X-0.147500X0*%
%TD*%
%TA.AperFunction,ViaPad*%
%ADD37C,0.500000*%
%TD*%
%TA.AperFunction,ViaPad*%
%ADD38C,0.800000*%
%TD*%
%TA.AperFunction,ViaPad*%
%ADD39C,0.600000*%
%TD*%
%TA.AperFunction,Conductor*%
%ADD40C,0.400000*%
%TD*%
%TA.AperFunction,Conductor*%
%ADD41C,0.250000*%
%TD*%
%TA.AperFunction,Conductor*%
%ADD42C,0.500000*%
%TD*%
%TA.AperFunction,Conductor*%
%ADD43C,0.300000*%
%TD*%
G04 APERTURE END LIST*
D10*
%TO.P,C21,1*%
%TO.N,VDC*%
X125270000Y-106600000D03*
%TO.P,C21,2*%
%TO.N,GND*%
X126230000Y-106600000D03*
%TD*%
D11*
%TO.P,R10,1*%
%TO.N,VDC*%
X127225000Y-97335000D03*
%TO.P,R10,2*%
%TO.N,/VSENSE*%
X127225000Y-96315000D03*
%TD*%
D10*
%TO.P,C16,1*%
%TO.N,/M_RST*%
X118895000Y-106600000D03*
%TO.P,C16,2*%
%TO.N,GND*%
X119855000Y-106600000D03*
%TD*%
D12*
%TO.P,IC2,1,SW*%
%TO.N,Net-(IC2-SW)*%
X123450000Y-92100000D03*
%TO.P,IC2,2,EN*%
%TO.N,VDC*%
X122950000Y-92100000D03*
%TO.P,IC2,3,NC*%
%TO.N,unconnected-(IC2-NC-Pad3)*%
X122450000Y-92100000D03*
%TO.P,IC2,4,SNS*%
%TO.N,+3V3*%
X121950000Y-92100000D03*
%TO.P,IC2,5,CFF*%
%TO.N,/CFF*%
X121950000Y-94100000D03*
%TO.P,IC2,6,AGND*%
%TO.N,GND*%
X122450000Y-94100000D03*
%TO.P,IC2,7,VIN*%
%TO.N,VDC*%
X122950000Y-94100000D03*
%TO.P,IC2,8,PGND*%
%TO.N,GND*%
X123450000Y-94100000D03*
D13*
%TO.P,IC2,9,EP*%
X122700000Y-93100000D03*
%TD*%
D14*
%TO.P,R8,1*%
%TO.N,/VREF*%
X115498000Y-97245000D03*
%TO.P,R8,2*%
%TO.N,GND*%
X116518000Y-97245000D03*
%TD*%
D15*
%TO.P,R22,1*%
%TO.N,Net-(U5-SENSEB)*%
X127650000Y-104839999D03*
%TO.P,R22,2*%
%TO.N,GND*%
X127650000Y-105859999D03*
%TD*%
D16*
%TO.P,R19,1*%
%TO.N,Net-(U4-SENSEA)*%
X121010000Y-101125000D03*
%TO.P,R19,2*%
%TO.N,GND*%
X119990000Y-101125000D03*
%TD*%
D17*
%TO.P,U3,1,STAT*%
%TO.N,Net-(U3-STAT)*%
X123475000Y-86302500D03*
%TO.P,U3,2,V_{SS}*%
%TO.N,GND*%
X122525000Y-86302500D03*
%TO.P,U3,3,V_{BAT}*%
%TO.N,+BATT*%
X121575000Y-86302500D03*
%TO.P,U3,4,V_{DD}*%
%TO.N,+5V*%
X121575000Y-88577500D03*
%TO.P,U3,5,PROG*%
%TO.N,Net-(U3-PROG)*%
X123475000Y-88577500D03*
%TD*%
D11*
%TO.P,R9,1*%
%TO.N,+3V3*%
X123375000Y-98075000D03*
%TO.P,R9,2*%
%TO.N,/GPIO9*%
X123375000Y-97055000D03*
%TD*%
D10*
%TO.P,C5,1*%
%TO.N,/GPIO9*%
X123390000Y-95425000D03*
%TO.P,C5,2*%
%TO.N,GND*%
X124350000Y-95425000D03*
%TD*%
D11*
%TO.P,R15,1*%
%TO.N,/CC2*%
X128175000Y-99235000D03*
%TO.P,R15,2*%
%TO.N,GND*%
X128175000Y-98215000D03*
%TD*%
D18*
%TO.P,C6,1*%
%TO.N,/VSENSE*%
X125325000Y-96345000D03*
%TO.P,C6,2*%
%TO.N,GND*%
X125325000Y-97305000D03*
%TD*%
D15*
%TO.P,R14,1*%
%TO.N,/CC1*%
X128175000Y-96325000D03*
%TO.P,R14,2*%
%TO.N,GND*%
X128175000Y-97345000D03*
%TD*%
D18*
%TO.P,C9,1*%
%TO.N,+5V*%
X128150000Y-94320000D03*
%TO.P,C9,2*%
%TO.N,GND*%
X128150000Y-95280000D03*
%TD*%
D14*
%TO.P,R23,1*%
%TO.N,Net-(U5-SENSEA)*%
X122665000Y-106525000D03*
%TO.P,R23,2*%
%TO.N,GND*%
X123685000Y-106525000D03*
%TD*%
D19*
%TO.P,J1,1,Pin_1*%
%TO.N,/M0_A1*%
X117225000Y-111000000D03*
%TO.P,J1,2,Pin_2*%
%TO.N,/M0_A2*%
X118225000Y-111000000D03*
%TO.P,J1,3,Pin_3*%
%TO.N,/M1_A1*%
X119225000Y-111000000D03*
%TO.P,J1,4,Pin_4*%
%TO.N,/M1_A2*%
X120225000Y-111000000D03*
%TO.P,J1,5,Pin_5*%
%TO.N,/M1_B1*%
X121225000Y-111000000D03*
%TO.P,J1,6,Pin_6*%
%TO.N,/M1_B2*%
X122225000Y-111000000D03*
%TO.P,J1,7,Pin_7*%
%TO.N,/M0_B1*%
X123225000Y-111000000D03*
%TO.P,J1,8,Pin_8*%
%TO.N,/M0_B2*%
X124225000Y-111000000D03*
D20*
%TO.P,J1,MP*%
%TO.N,N/C*%
X115925000Y-108475000D03*
X125525000Y-108475000D03*
%TD*%
D21*
%TO.P,D1,1,K*%
%TO.N,GND*%
X131550000Y-92290000D03*
%TO.P,D1,2,A*%
%TO.N,Net-(D1-A)*%
X131550000Y-93260000D03*
%TD*%
D10*
%TO.P,C19,1*%
%TO.N,/M_EN*%
X125894999Y-101100000D03*
%TO.P,C19,2*%
%TO.N,GND*%
X126854999Y-101100000D03*
%TD*%
D22*
%TO.P,C15,1*%
%TO.N,/M_EN*%
X117980000Y-106600000D03*
%TO.P,C15,2*%
%TO.N,GND*%
X117020000Y-106600000D03*
%TD*%
D23*
%TO.P,C7,1*%
%TO.N,+3V3*%
X122425000Y-96180000D03*
%TO.P,C7,2*%
%TO.N,/CFF*%
X122425000Y-95220000D03*
%TD*%
D24*
%TO.P,J2,1,Pin_1*%
%TO.N,GND*%
X116550000Y-88450000D03*
D25*
%TO.P,J2,2,Pin_2*%
%TO.N,+BATT*%
X118550000Y-88450000D03*
%TD*%
D15*
%TO.P,R24,1*%
%TO.N,Net-(U4-TOFF)*%
X116200000Y-104655000D03*
%TO.P,R24,2*%
%TO.N,GND*%
X116200000Y-105675000D03*
%TD*%
D11*
%TO.P,R25,1*%
%TO.N,Net-(U5-TOFF)*%
X127675000Y-103045000D03*
%TO.P,R25,2*%
%TO.N,GND*%
X127675000Y-102025000D03*
%TD*%
%TO.P,R20,1*%
%TO.N,Net-(U5-TOFF)*%
X128625000Y-103045000D03*
%TO.P,R20,2*%
%TO.N,Net-(C22-Pad1)*%
X128625000Y-102025000D03*
%TD*%
D26*
%TO.P,U4,1,DIR*%
%TO.N,/M0_DIR*%
X120312500Y-104550000D03*
%TO.P,U4,2,STCK*%
%TO.N,/M0_STEP*%
X120312500Y-104050000D03*
%TO.P,U4,3,OUTA1*%
%TO.N,/M0_A1*%
X120312500Y-103550000D03*
%TO.P,U4,4,SENSEA*%
%TO.N,Net-(U4-SENSEA)*%
X120312500Y-103050000D03*
D27*
%TO.P,U4,5,OUTA2*%
%TO.N,/M0_A2*%
X119575000Y-102312500D03*
%TO.P,U4,6,VS*%
%TO.N,VDC*%
X119075000Y-102312500D03*
%TO.P,U4,7,GND*%
%TO.N,GND*%
X118575000Y-102312500D03*
%TO.P,U4,8,OUTB2*%
%TO.N,/M0_B2*%
X118075000Y-102312500D03*
D26*
%TO.P,U4,9,SENSEB*%
%TO.N,Net-(U4-SENSEB)*%
X117337500Y-103050000D03*
%TO.P,U4,10,OUTB1*%
%TO.N,/M0_B1*%
X117337500Y-103550000D03*
%TO.P,U4,11,REF*%
%TO.N,/VREF*%
X117337500Y-104050000D03*
%TO.P,U4,12,TOFF*%
%TO.N,Net-(U4-TOFF)*%
X117337500Y-104550000D03*
D27*
%TO.P,U4,13,EN/FLT*%
%TO.N,/M_EN*%
X118075000Y-105287500D03*
%TO.P,U4,14,STBY/RESET*%
%TO.N,/M_RST*%
X118575000Y-105287500D03*
%TO.P,U4,15,MODE2*%
%TO.N,+3V3*%
X119075000Y-105287500D03*
%TO.P,U4,16,MODE1*%
%TO.N,GND*%
X119575000Y-105287500D03*
D28*
%TO.P,U4,17,EPAD*%
X118825000Y-103800000D03*
%TD*%
D29*
%TO.P,S1,1,NC*%
%TO.N,+5V*%
X131100000Y-101175000D03*
%TO.P,S1,2,COM*%
%TO.N,VDC*%
X131100000Y-98175000D03*
%TO.P,S1,3,NO*%
%TO.N,+BATT*%
X131100000Y-96675000D03*
D30*
%TO.P,S1,MP1,MP1*%
%TO.N,unconnected-(S1-PadMP1)*%
X131750000Y-102575000D03*
%TO.P,S1,MP2,MP2*%
%TO.N,unconnected-(S1-PadMP2)*%
X133950000Y-102575000D03*
%TO.P,S1,MP3,MP3*%
%TO.N,unconnected-(S1-PadMP3)*%
X133950000Y-95275000D03*
%TO.P,S1,MP4,MP4*%
%TO.N,unconnected-(S1-PadMP4)*%
X131750000Y-95275000D03*
%TD*%
D22*
%TO.P,C20,1*%
%TO.N,/M_RST*%
X124980000Y-101100000D03*
%TO.P,C20,2*%
%TO.N,GND*%
X124020000Y-101100000D03*
%TD*%
D15*
%TO.P,R4,1*%
%TO.N,+3V3*%
X130595000Y-92270000D03*
%TO.P,R4,2*%
%TO.N,Net-(D1-A)*%
X130595000Y-93290000D03*
%TD*%
D22*
%TO.P,C22,1*%
%TO.N,Net-(C22-Pad1)*%
X128679999Y-101125000D03*
%TO.P,C22,2*%
%TO.N,GND*%
X127719999Y-101125000D03*
%TD*%
D31*
%TO.P,S2,A1,NO*%
%TO.N,/RST*%
X125525000Y-91775000D03*
%TO.P,S2,A2,COM*%
%TO.N,GND*%
X128775000Y-91775000D03*
%TD*%
D10*
%TO.P,C18,1*%
%TO.N,Net-(C18-Pad1)*%
X115195000Y-106575000D03*
%TO.P,C18,2*%
%TO.N,GND*%
X116155000Y-106575000D03*
%TD*%
D11*
%TO.P,R18,1*%
%TO.N,Net-(U4-SENSEB)*%
X116225000Y-102860000D03*
%TO.P,R18,2*%
%TO.N,GND*%
X116225000Y-101840000D03*
%TD*%
D31*
%TO.P,S3,A1,NO*%
%TO.N,/GPIO9*%
X121575000Y-98625000D03*
%TO.P,S3,A2,COM*%
%TO.N,GND*%
X118325000Y-98625000D03*
%TD*%
D22*
%TO.P,C17,1*%
%TO.N,VDC*%
X118605000Y-101100000D03*
%TO.P,C17,2*%
%TO.N,GND*%
X117645000Y-101100000D03*
%TD*%
D32*
%TO.P,L1,1,1*%
%TO.N,+3V3*%
X121897500Y-90600000D03*
%TO.P,L1,2,2*%
%TO.N,Net-(IC2-SW)*%
X124022500Y-90600000D03*
%TD*%
D16*
%TO.P,R7,1*%
%TO.N,VDC*%
X116518000Y-99120000D03*
%TO.P,R7,2*%
%TO.N,/VREF*%
X115498000Y-99120000D03*
%TD*%
D33*
%TO.P,U5,1,DIR*%
%TO.N,/M1_DIR*%
X123562500Y-103150000D03*
%TO.P,U5,2,STCK*%
%TO.N,/M1_STEP*%
X123562500Y-103650000D03*
%TO.P,U5,3,OUTA1*%
%TO.N,/M1_A1*%
X123562500Y-104150000D03*
%TO.P,U5,4,SENSEA*%
%TO.N,Net-(U5-SENSEA)*%
X123562500Y-104650000D03*
D34*
%TO.P,U5,5,OUTA2*%
%TO.N,/M1_A2*%
X124300000Y-105387500D03*
%TO.P,U5,6,VS*%
%TO.N,VDC*%
X124800000Y-105387500D03*
%TO.P,U5,7,GND*%
%TO.N,GND*%
X125300000Y-105387500D03*
%TO.P,U5,8,OUTB2*%
%TO.N,/M1_B2*%
X125800000Y-105387500D03*
D33*
%TO.P,U5,9,SENSEB*%
%TO.N,Net-(U5-SENSEB)*%
X126537500Y-104650000D03*
%TO.P,U5,10,OUTB1*%
%TO.N,/M1_B1*%
X126537500Y-104150000D03*
%TO.P,U5,11,REF*%
%TO.N,/VREF*%
X126537500Y-103650000D03*
%TO.P,U5,12,TOFF*%
%TO.N,Net-(U5-TOFF)*%
X126537500Y-103150000D03*
D34*
%TO.P,U5,13,EN/FLT*%
%TO.N,/M_EN*%
X125800000Y-102412500D03*
%TO.P,U5,14,STBY/RESET*%
%TO.N,/M_RST*%
X125300000Y-102412500D03*
%TO.P,U5,15,MODE2*%
%TO.N,+3V3*%
X124800000Y-102412500D03*
%TO.P,U5,16,MODE1*%
%TO.N,GND*%
X124300000Y-102412500D03*
D28*
%TO.P,U5,17,EPAD*%
X125050000Y-103900000D03*
%TD*%
D16*
%TO.P,R5,1*%
%TO.N,+3V3*%
X131185000Y-105600000D03*
%TO.P,R5,2*%
%TO.N,/GPIO8*%
X130165000Y-105600000D03*
%TD*%
D23*
%TO.P,C23,1*%
%TO.N,VDC*%
X125325000Y-95380000D03*
%TO.P,C23,2*%
%TO.N,GND*%
X125325000Y-94420000D03*
%TD*%
D35*
%TO.P,IC1,A1,VSA*%
%TO.N,GND*%
X128275000Y-107475000D03*
%TO.P,IC1,A2,SCL*%
%TO.N,/SCL*%
X127875000Y-107475000D03*
%TO.P,IC1,B1,VDD*%
%TO.N,+3V3*%
X128275000Y-107075000D03*
%TO.P,IC1,B2,SDA*%
%TO.N,/SDA*%
X127875000Y-107075000D03*
%TD*%
D15*
%TO.P,R11,1*%
%TO.N,/VSENSE*%
X126275000Y-96315000D03*
%TO.P,R11,2*%
%TO.N,GND*%
X126275000Y-97335000D03*
%TD*%
D10*
%TO.P,C4,1*%
%TO.N,/VREF*%
X115515000Y-98175000D03*
%TO.P,C4,2*%
%TO.N,GND*%
X116475000Y-98175000D03*
%TD*%
D14*
%TO.P,R12,1*%
%TO.N,Net-(U3-PROG)*%
X126365000Y-89275000D03*
%TO.P,R12,2*%
%TO.N,GND*%
X127385000Y-89275000D03*
%TD*%
D15*
%TO.P,R16,1*%
%TO.N,Net-(U4-TOFF)*%
X115250000Y-104655000D03*
%TO.P,R16,2*%
%TO.N,Net-(C18-Pad1)*%
X115250000Y-105675000D03*
%TD*%
D11*
%TO.P,R6,1*%
%TO.N,+3V3*%
X121475000Y-96210000D03*
%TO.P,R6,2*%
%TO.N,/GPIO2*%
X121475000Y-95190000D03*
%TD*%
D36*
%TO.P,D2,1,K*%
%TO.N,Net-(D2-K)*%
X124800000Y-88837500D03*
%TO.P,D2,2,A*%
%TO.N,+BATT*%
X124800000Y-87867500D03*
%TD*%
D37*
%TO.N,GND*%
X123449994Y-102475000D03*
X129646246Y-91763181D03*
X128050000Y-106450000D03*
X134575000Y-98675000D03*
X126750000Y-101925000D03*
X126275000Y-98375000D03*
X124050000Y-96250000D03*
X132525000Y-92025000D03*
X119855000Y-107475000D03*
X120350000Y-101525000D03*
X117193000Y-98145000D03*
X117050000Y-95625000D03*
X115875000Y-90375000D03*
X119990000Y-92300000D03*
X126200000Y-94425000D03*
X129025000Y-107500000D03*
X129075000Y-95025000D03*
X130525000Y-103425000D03*
X116025000Y-101250000D03*
X122525000Y-87350000D03*
X116459403Y-107199048D03*
D38*
%TO.N,VDC*%
X131600000Y-98925000D03*
X126449981Y-95324981D03*
D37*
X116835653Y-101018523D03*
X126950000Y-98075000D03*
D39*
X122275000Y-89500002D03*
D37*
X129775000Y-107975000D03*
%TO.N,/USB+*%
X129525000Y-99100000D03*
X122750000Y-107450000D03*
%TO.N,/USB-*%
X123550000Y-107450000D03*
X127325000Y-98625000D03*
%TO.N,+3V3*%
X119675000Y-96075000D03*
X121149982Y-106449991D03*
X125530000Y-90480000D03*
X125300000Y-110275000D03*
X129025004Y-106449996D03*
X132900000Y-95375000D03*
X118800000Y-86250000D03*
X118475000Y-95850000D03*
X129925000Y-109050000D03*
X119416799Y-91051254D03*
X123750000Y-101800000D03*
X115750000Y-110050000D03*
%TO.N,/CC1*%
X129440000Y-97600000D03*
%TO.N,/CC2*%
X129525000Y-100125000D03*
D38*
%TO.N,+5V*%
X130700013Y-99950013D03*
D37*
X117950000Y-90125000D03*
D38*
X127375000Y-94400000D03*
D37*
%TO.N,/VSENSE*%
X124449998Y-97200000D03*
%TO.N,/RST*%
X126498311Y-91537650D03*
%TO.N,/GPIO9*%
X124065642Y-97757878D03*
%TO.N,/GPIO8*%
X129325000Y-105250000D03*
%TO.N,/GPIO2*%
X120725000Y-95225000D03*
%TO.N,Net-(D2-K)*%
X125590000Y-88910000D03*
%TO.N,+BATT*%
X122525000Y-88325000D03*
D38*
X130848442Y-94549299D03*
D37*
%TO.N,/M0_A1*%
X121100000Y-103425000D03*
X117225000Y-109800000D03*
%TO.N,/M0_A2*%
X118225000Y-109750000D03*
X117110510Y-99850000D03*
%TO.N,/M1_B1*%
X121225000Y-109800000D03*
X127625000Y-104150000D03*
%TO.N,/M1_B2*%
X126450000Y-105575000D03*
X122225000Y-109775000D03*
%TO.N,/M0_B1*%
X123225000Y-109800000D03*
X116250000Y-103550000D03*
%TO.N,/M0_B2*%
X117200000Y-102350000D03*
X124225000Y-109800000D03*
%TO.N,Net-(U3-STAT)*%
X124150000Y-86410000D03*
%TO.N,/VREF*%
X128600000Y-105150000D03*
X116250000Y-100625000D03*
%TO.N,/SDA*%
X127200000Y-107375000D03*
%TO.N,/SCL*%
X127643669Y-107875278D03*
%TO.N,/M_EN*%
X117975000Y-107350000D03*
X126425000Y-100175000D03*
%TO.N,/M_RST*%
X120325000Y-94450000D03*
X126350000Y-99425000D03*
X118625000Y-107350000D03*
%TO.N,/M0_STEP*%
X124392828Y-98324968D03*
%TO.N,/M0_DIR*%
X124450000Y-99000000D03*
%TO.N,/M1_STEP*%
X124425000Y-99775000D03*
%TO.N,/M1_DIR*%
X124032628Y-100357628D03*
%TD*%
D40*
%TO.N,VDC*%
X122950000Y-90175002D02*
X122275000Y-89500002D01*
X122950000Y-92100000D02*
X122950000Y-90175002D01*
D41*
%TO.N,/VREF*%
X128060000Y-103610000D02*
X126577500Y-103610000D01*
X128600000Y-104150000D02*
X128060000Y-103610000D01*
X128600000Y-105150000D02*
X128600000Y-104150000D01*
X126577500Y-103610000D02*
X126537500Y-103650000D01*
D42*
%TO.N,Net-(IC2-SW)*%
X124037500Y-91202500D02*
X123560000Y-91680000D01*
X124037500Y-90525000D02*
X124037500Y-91202500D01*
D43*
X123490000Y-91750000D02*
X123560000Y-91680000D01*
X123490000Y-92100000D02*
X123490000Y-91750000D01*
D40*
%TO.N,+3V3*%
X121750000Y-92050000D02*
X121750000Y-90687500D01*
X121875000Y-92175000D02*
X121750000Y-92050000D01*
D41*
X121025000Y-96660000D02*
X121475000Y-96210000D01*
X121175000Y-99650000D02*
X121025000Y-99500000D01*
X123375000Y-98405000D02*
X122130000Y-99650000D01*
X122130000Y-99650000D02*
X121175000Y-99650000D01*
X121025000Y-99500000D02*
X121025000Y-96660000D01*
X123375000Y-98075000D02*
X123375000Y-98405000D01*
%TO.N,/GPIO9*%
X121995000Y-97055000D02*
X123375000Y-97055000D01*
X121575000Y-97475000D02*
X121995000Y-97055000D01*
X121575000Y-98625000D02*
X121575000Y-97475000D01*
%TO.N,GND*%
X125300000Y-104150000D02*
X125050000Y-103900000D01*
X124350000Y-95425000D02*
X124350000Y-95950000D01*
X116225000Y-101840000D02*
X116225000Y-101450000D01*
X125300000Y-105875000D02*
X125440000Y-106015000D01*
X127650000Y-105859999D02*
X126970001Y-105859999D01*
X123100000Y-93100000D02*
X122700000Y-93100000D01*
X125005000Y-94100000D02*
X125325000Y-94420000D01*
X126855000Y-101820000D02*
X126750000Y-101925000D01*
X116225000Y-101450000D02*
X116025000Y-101250000D01*
X123450000Y-93450000D02*
X123100000Y-93100000D01*
X123707537Y-101100000D02*
X123225000Y-101582537D01*
X124300000Y-103150000D02*
X125050000Y-103900000D01*
X126855000Y-101100000D02*
X127695000Y-101100000D01*
X116180000Y-106600000D02*
X116155000Y-106575000D01*
X119990000Y-101125000D02*
X119990000Y-101165000D01*
X129000000Y-107475000D02*
X129025000Y-107500000D01*
X128050000Y-106259999D02*
X128050000Y-106450000D01*
X125300000Y-105387500D02*
X125300000Y-104150000D01*
X116459403Y-107199048D02*
X117020000Y-106638451D01*
X128820000Y-95280000D02*
X129075000Y-95025000D01*
X123225000Y-102250006D02*
X123449994Y-102475000D01*
X128775000Y-91775000D02*
X129634427Y-91775000D01*
X117020000Y-106600000D02*
X116180000Y-106600000D01*
X122450000Y-93350000D02*
X122450000Y-94100000D01*
X116905000Y-101840000D02*
X117645000Y-101100000D01*
X119990000Y-101165000D02*
X120350000Y-101525000D01*
X126245000Y-97305000D02*
X126275000Y-97335000D01*
X116518000Y-97245000D02*
X116518000Y-98132000D01*
X123512494Y-102412500D02*
X123449994Y-102475000D01*
X127695000Y-101100000D02*
X127720000Y-101125000D01*
X118575000Y-101825000D02*
X118435000Y-101685000D01*
X125440000Y-106015000D02*
X125585780Y-106015000D01*
X124300000Y-102412500D02*
X123512494Y-102412500D01*
X123450000Y-94100000D02*
X125005000Y-94100000D01*
X125585780Y-106015000D02*
X126170780Y-106600000D01*
X129634427Y-91775000D02*
X129646246Y-91763181D01*
X127720000Y-101955000D02*
X127650000Y-102025000D01*
X126275000Y-97335000D02*
X126275000Y-98375000D01*
X118575000Y-102312500D02*
X118575000Y-101825000D01*
X123225000Y-101582537D02*
X123225000Y-102250006D01*
X122525000Y-86302500D02*
X122525000Y-87350000D01*
X117163000Y-98175000D02*
X117193000Y-98145000D01*
X116200000Y-106530000D02*
X116155000Y-106575000D01*
X119855000Y-106600000D02*
X119855000Y-107475000D01*
X128275000Y-107475000D02*
X129000000Y-107475000D01*
X127650000Y-105859999D02*
X128050000Y-106259999D01*
X117704220Y-101100000D02*
X117645000Y-101100000D01*
X127720000Y-101125000D02*
X127720000Y-101955000D01*
X128150000Y-95280000D02*
X128820000Y-95280000D01*
X123450000Y-94100000D02*
X123450000Y-93450000D01*
X124300000Y-102412500D02*
X124300000Y-103150000D01*
X132260000Y-92290000D02*
X132525000Y-92025000D01*
X125325000Y-97305000D02*
X126245000Y-97305000D01*
X126855000Y-101100000D02*
X126855000Y-101820000D01*
X124020000Y-101100000D02*
X123707537Y-101100000D01*
X126195000Y-94420000D02*
X126200000Y-94425000D01*
X122700000Y-93100000D02*
X122450000Y-93350000D01*
X126970001Y-105859999D02*
X126230000Y-106600000D01*
X131550000Y-92290000D02*
X132260000Y-92290000D01*
X118289220Y-101685000D02*
X117704220Y-101100000D01*
X116225000Y-101840000D02*
X116905000Y-101840000D01*
X116200000Y-105675000D02*
X116200000Y-106530000D01*
X116475000Y-98175000D02*
X117163000Y-98175000D01*
X116518000Y-98132000D02*
X116475000Y-98175000D01*
X125325000Y-94420000D02*
X126195000Y-94420000D01*
X125300000Y-105387500D02*
X125300000Y-105875000D01*
X117020000Y-106638451D02*
X117020000Y-106600000D01*
X118435000Y-101685000D02*
X118289220Y-101685000D01*
X126170780Y-106600000D02*
X126230000Y-106600000D01*
X124350000Y-95950000D02*
X124050000Y-96250000D01*
%TO.N,VDC*%
X118020000Y-100515000D02*
X117329220Y-100515000D01*
X125855000Y-107185000D02*
X126010000Y-107185000D01*
X119075000Y-101645000D02*
X118605000Y-101175000D01*
X129250000Y-108100000D02*
X129650000Y-108100000D01*
X118605000Y-101100000D02*
X118020000Y-100515000D01*
X127850000Y-108500000D02*
X128100000Y-108250000D01*
X116835653Y-101018523D02*
X116835653Y-100459027D01*
X127225000Y-97800000D02*
X126950000Y-98075000D01*
X119075000Y-102312500D02*
X119075000Y-101645000D01*
X125325000Y-95380000D02*
X126394962Y-95380000D01*
X129650000Y-108100000D02*
X129775000Y-107975000D01*
X124800000Y-106055000D02*
X125270000Y-106525000D01*
X127625000Y-108500000D02*
X127850000Y-108500000D01*
X116518000Y-100141374D02*
X116518000Y-99120000D01*
X122950000Y-94645000D02*
X123105000Y-94800000D01*
X125270000Y-106600000D02*
X125855000Y-107185000D01*
X125230000Y-95380000D02*
X125325000Y-95380000D01*
X123105000Y-94800000D02*
X124650000Y-94800000D01*
X127225000Y-97335000D02*
X127225000Y-97800000D01*
X122950000Y-94100000D02*
X122950000Y-94645000D01*
X126394962Y-95380000D02*
X126449981Y-95324981D01*
X128100000Y-108250000D02*
X128250000Y-108100000D01*
X124800000Y-105387500D02*
X124800000Y-106055000D01*
D42*
X131100000Y-98175000D02*
X131100000Y-98425000D01*
D41*
X124650000Y-94800000D02*
X125230000Y-95380000D01*
X116835653Y-100459027D02*
X116518000Y-100141374D01*
X116835653Y-101008567D02*
X116835653Y-101018523D01*
X117329220Y-100515000D02*
X116835653Y-101008567D01*
X127225000Y-97335000D02*
X127225000Y-97265000D01*
X126010000Y-107185000D02*
X127325000Y-108500000D01*
X127325000Y-108500000D02*
X127625000Y-108500000D01*
D42*
X131100000Y-98425000D02*
X131600000Y-98925000D01*
D41*
X128250000Y-108100000D02*
X129250000Y-108100000D01*
%TO.N,+3V3*%
X127960000Y-92800000D02*
X127460000Y-92300000D01*
X131185000Y-105600000D02*
X130335004Y-106449996D01*
X127460000Y-91300000D02*
X126640000Y-90480000D01*
X120735000Y-96210000D02*
X120212500Y-95687500D01*
X119415001Y-106015000D02*
X120714991Y-106015000D01*
X119416799Y-91051254D02*
X119780553Y-90687500D01*
X121600000Y-92175000D02*
X121875000Y-92175000D01*
X130065000Y-92800000D02*
X127960000Y-92800000D01*
X119675000Y-95150000D02*
X119675000Y-94100000D01*
X126640000Y-90480000D02*
X125530000Y-90480000D01*
X119675000Y-96075000D02*
X119825000Y-96075000D01*
X119075000Y-105674999D02*
X119415001Y-106015000D01*
X120212500Y-95687500D02*
X119675000Y-95150000D01*
X123865000Y-101685000D02*
X123750000Y-101800000D01*
X120714991Y-106015000D02*
X121149982Y-106449991D01*
X121475000Y-96210000D02*
X122395000Y-96210000D01*
X121750000Y-90687500D02*
X121912500Y-90525000D01*
X127460000Y-92300000D02*
X127460000Y-91300000D01*
X128275000Y-107075000D02*
X128900004Y-106449996D01*
X124459999Y-101685000D02*
X123865000Y-101685000D01*
X130335004Y-106449996D02*
X129025004Y-106449996D01*
X130595000Y-92270000D02*
X130065000Y-92800000D01*
X122395000Y-96210000D02*
X122425000Y-96180000D01*
X121475000Y-96210000D02*
X120735000Y-96210000D01*
X124800000Y-102412500D02*
X124800000Y-102025001D01*
X119675000Y-94100000D02*
X121600000Y-92175000D01*
X119825000Y-96075000D02*
X120212500Y-95687500D01*
X124800000Y-102025001D02*
X124459999Y-101685000D01*
X119075000Y-105287500D02*
X119075000Y-105674999D01*
X121875000Y-92175000D02*
X121950000Y-92100000D01*
X119780553Y-90687500D02*
X121750000Y-90687500D01*
X128900004Y-106449996D02*
X129025004Y-106449996D01*
%TO.N,/CFF*%
X121950000Y-94745000D02*
X122425000Y-95220000D01*
X121950000Y-94100000D02*
X121950000Y-94745000D01*
%TO.N,/CC1*%
X129440000Y-97590000D02*
X129440000Y-97600000D01*
X128175000Y-96325000D02*
X129440000Y-97590000D01*
%TO.N,/CC2*%
X128175000Y-99235000D02*
X128635000Y-99235000D01*
X128635000Y-99235000D02*
X129525000Y-100125000D01*
%TO.N,+5V*%
X128070000Y-94400000D02*
X128150000Y-94320000D01*
X127375000Y-94400000D02*
X128070000Y-94400000D01*
D42*
X131100000Y-100350000D02*
X130700013Y-99950013D01*
X120622500Y-88577500D02*
X121575000Y-88577500D01*
D41*
X127380000Y-94405000D02*
X127375000Y-94400000D01*
D42*
X117950000Y-90125000D02*
X119075000Y-90125000D01*
X119075000Y-90125000D02*
X120622500Y-88577500D01*
X131100000Y-101175000D02*
X131100000Y-100350000D01*
D41*
%TO.N,/VSENSE*%
X124449998Y-97200000D02*
X125304998Y-96345000D01*
X126275000Y-96315000D02*
X125355000Y-96315000D01*
X125304998Y-96345000D02*
X125325000Y-96345000D01*
X125355000Y-96315000D02*
X125325000Y-96345000D01*
X126275000Y-96315000D02*
X127225000Y-96315000D01*
%TO.N,/RST*%
X125525000Y-91775000D02*
X126260961Y-91775000D01*
X126260961Y-91775000D02*
X126498311Y-91537650D01*
%TO.N,/GPIO9*%
X124065642Y-97745642D02*
X123375000Y-97055000D01*
X123390000Y-95425000D02*
X123390000Y-97040000D01*
X123390000Y-97040000D02*
X123375000Y-97055000D01*
X124065642Y-97757878D02*
X124065642Y-97745642D01*
%TO.N,/GPIO8*%
X129675000Y-105600000D02*
X129325000Y-105250000D01*
X130165000Y-105600000D02*
X129675000Y-105600000D01*
%TO.N,/GPIO2*%
X120725000Y-95225000D02*
X121440000Y-95225000D01*
X121440000Y-95225000D02*
X121475000Y-95190000D01*
%TO.N,Net-(D2-K)*%
X124772500Y-88837500D02*
X125517500Y-88837500D01*
X124725000Y-88885000D02*
X124772500Y-88837500D01*
X125517500Y-88837500D02*
X125590000Y-88910000D01*
%TO.N,+BATT*%
X122550000Y-87875000D02*
X122550000Y-88300000D01*
X122550000Y-87875000D02*
X122909804Y-87875000D01*
D42*
X130848442Y-96423442D02*
X131100000Y-96675000D01*
D41*
X121575000Y-87225000D02*
X121765000Y-87415000D01*
D42*
X118550000Y-88450000D02*
X119585000Y-87415000D01*
X130848442Y-94549299D02*
X130848442Y-96423442D01*
D41*
X122550000Y-88300000D02*
X122525000Y-88325000D01*
X122225000Y-87875000D02*
X121765000Y-87415000D01*
X121575000Y-86425000D02*
X121575000Y-87225000D01*
X122909804Y-87875000D02*
X123144804Y-87640000D01*
X124572500Y-87640000D02*
X124800000Y-87867500D01*
X122550000Y-87875000D02*
X122225000Y-87875000D01*
X123144804Y-87640000D02*
X124572500Y-87640000D01*
D42*
X119585000Y-87415000D02*
X121765000Y-87415000D01*
D41*
%TO.N,Net-(D1-A)*%
X130625000Y-93260000D02*
X130595000Y-93290000D01*
X131550000Y-93260000D02*
X130625000Y-93260000D01*
%TO.N,/M0_A1*%
X117225000Y-111000000D02*
X117225000Y-109800000D01*
X120975000Y-103550000D02*
X121100000Y-103425000D01*
X120312500Y-103550000D02*
X120975000Y-103550000D01*
%TO.N,/M0_A2*%
X118225000Y-111000000D02*
X118225000Y-109750000D01*
X119575000Y-102312500D02*
X119575000Y-101613568D01*
X119445000Y-101483568D02*
X119445000Y-101039220D01*
X119445000Y-101039220D02*
X118255780Y-99850000D01*
X118255780Y-99850000D02*
X117110510Y-99850000D01*
X119575000Y-101613568D02*
X119445000Y-101483568D01*
%TO.N,/M1_A1*%
X119225000Y-110225001D02*
X122100000Y-107350001D01*
X122100000Y-105180000D02*
X123130000Y-104150000D01*
X119225000Y-111000000D02*
X119225000Y-110225001D01*
X122100000Y-107350001D02*
X122100000Y-105180000D01*
X123130000Y-104150000D02*
X123562500Y-104150000D01*
%TO.N,/M1_A2*%
X124300000Y-107525000D02*
X123400000Y-108425000D01*
X120225000Y-109915686D02*
X120225000Y-111000000D01*
X123400000Y-108425000D02*
X121715686Y-108425000D01*
X124300000Y-105387500D02*
X124300000Y-107525000D01*
X121715686Y-108425000D02*
X120225000Y-109915686D01*
%TO.N,/M1_B1*%
X121225000Y-111000000D02*
X121225000Y-109800000D01*
X126537500Y-104150000D02*
X127625000Y-104150000D01*
%TO.N,/M1_B2*%
X126262500Y-105387500D02*
X126450000Y-105575000D01*
X122225000Y-111000000D02*
X122225000Y-109775000D01*
X125800000Y-105387500D02*
X126262500Y-105387500D01*
%TO.N,/M0_B1*%
X123225000Y-111000000D02*
X123225000Y-109800000D01*
X117337500Y-103550000D02*
X116250000Y-103550000D01*
%TO.N,/M0_B2*%
X124225000Y-111000000D02*
X124225000Y-109800000D01*
X118075000Y-102312500D02*
X117237500Y-102312500D01*
X117237500Y-102312500D02*
X117200000Y-102350000D01*
%TO.N,Net-(U3-PROG)*%
X123475000Y-88577500D02*
X124397500Y-89500000D01*
X126140000Y-89500000D02*
X126365000Y-89275000D01*
X124397500Y-89500000D02*
X126140000Y-89500000D01*
%TO.N,Net-(U3-STAT)*%
X123475000Y-86302500D02*
X123475000Y-86425000D01*
X124150000Y-86410000D02*
X123582500Y-86410000D01*
X123582500Y-86410000D02*
X123475000Y-86302500D01*
%TO.N,Net-(U4-SENSEB)*%
X116415000Y-103050000D02*
X117337500Y-103050000D01*
X116225000Y-102860000D02*
X116415000Y-103050000D01*
%TO.N,Net-(U4-SENSEA)*%
X121010000Y-102352500D02*
X120312500Y-103050000D01*
X121010000Y-101125000D02*
X121010000Y-102352500D01*
%TO.N,Net-(U5-SENSEB)*%
X127650000Y-104840000D02*
X126727500Y-104840000D01*
X126727500Y-104840000D02*
X126537500Y-104650000D01*
%TO.N,Net-(C18-Pad1)*%
X115250000Y-105675000D02*
X115250000Y-106520000D01*
X115250000Y-106520000D02*
X115195000Y-106575000D01*
%TO.N,Net-(C22-Pad1)*%
X128625000Y-101180000D02*
X128680000Y-101125000D01*
X128625000Y-102025000D02*
X128625000Y-101180000D01*
%TO.N,/VREF*%
X115885000Y-104110000D02*
X115400000Y-103625000D01*
X115900000Y-100275000D02*
X116250000Y-100625000D01*
X115575000Y-100275000D02*
X115900000Y-100275000D01*
X115575000Y-99197000D02*
X115498000Y-99120000D01*
X115400000Y-103625000D02*
X115400000Y-100450000D01*
X115575000Y-100275000D02*
X115575000Y-99197000D01*
X117337500Y-104050000D02*
X117277500Y-104110000D01*
X117277500Y-104110000D02*
X115885000Y-104110000D01*
X115515000Y-98175000D02*
X115515000Y-97262000D01*
X115498000Y-98192000D02*
X115515000Y-98175000D01*
X115400000Y-100450000D02*
X115575000Y-100275000D01*
X115498000Y-99120000D02*
X115498000Y-98192000D01*
%TO.N,Net-(U5-SENSEA)*%
X122665000Y-105185000D02*
X122665000Y-106525000D01*
X123200000Y-104650000D02*
X122665000Y-105185000D01*
X123562500Y-104650000D02*
X123200000Y-104650000D01*
%TO.N,Net-(U4-TOFF)*%
X116330000Y-104550000D02*
X116225000Y-104655000D01*
X117337500Y-104550000D02*
X116330000Y-104550000D01*
X115250000Y-104655000D02*
X116225000Y-104655000D01*
%TO.N,Net-(U5-TOFF)*%
X127545000Y-103150000D02*
X127650000Y-103045000D01*
X126537500Y-103150000D02*
X127545000Y-103150000D01*
X128625000Y-103045000D02*
X127650000Y-103045000D01*
%TO.N,/SDA*%
X127500000Y-107075000D02*
X127200000Y-107375000D01*
X127875000Y-107075000D02*
X127500000Y-107075000D01*
%TO.N,/SCL*%
X127875000Y-107643947D02*
X127643669Y-107875278D01*
X127875000Y-107475000D02*
X127875000Y-107643947D01*
%TO.N,/M_EN*%
X125800000Y-102412500D02*
X125800000Y-101195000D01*
X125894999Y-100705001D02*
X126425000Y-100175000D01*
X125894999Y-101100000D02*
X125894999Y-100705001D01*
X125800000Y-101195000D02*
X125895000Y-101100000D01*
X117980000Y-106600000D02*
X117980000Y-107345000D01*
X118075000Y-105287500D02*
X118075000Y-106505000D01*
X117980000Y-107345000D02*
X117975000Y-107350000D01*
X118075000Y-106505000D02*
X117980000Y-106600000D01*
%TO.N,/M_RST*%
X118895000Y-107080000D02*
X118625000Y-107350000D01*
X118575000Y-106280000D02*
X118895000Y-106600000D01*
X125300000Y-101420000D02*
X124980000Y-101100000D01*
X124980000Y-100795000D02*
X126350000Y-99425000D01*
X125300000Y-102412500D02*
X125300000Y-101420000D01*
X124980000Y-101100000D02*
X124980000Y-100795000D01*
X118895000Y-106600000D02*
X118895000Y-107080000D01*
X118575000Y-105287500D02*
X118575000Y-106280000D01*
%TO.N,/M0_STEP*%
X121625000Y-100825000D02*
X124125032Y-98324968D01*
X121625000Y-103833884D02*
X121625000Y-100825000D01*
X124125032Y-98324968D02*
X124392828Y-98324968D01*
X121408884Y-104050000D02*
X121625000Y-103833884D01*
X120312500Y-104050000D02*
X121408884Y-104050000D01*
%TO.N,/M0_DIR*%
X122025000Y-104015685D02*
X122025000Y-100990686D01*
X120312500Y-104550000D02*
X121490685Y-104550000D01*
X124015686Y-99000000D02*
X124450000Y-99000000D01*
X121490685Y-104550000D02*
X122025000Y-104015685D01*
X122025000Y-100990686D02*
X124015686Y-99000000D01*
%TO.N,/M1_STEP*%
X122425000Y-103090685D02*
X122425000Y-101156372D01*
X123806372Y-99775000D02*
X124425000Y-99775000D01*
X122984315Y-103650000D02*
X122425000Y-103090685D01*
X123562500Y-103650000D02*
X122984315Y-103650000D01*
X122425000Y-101156372D02*
X123806372Y-99775000D01*
%TO.N,/M1_DIR*%
X122825000Y-102925000D02*
X122825000Y-101322058D01*
X123562500Y-103150000D02*
X123050000Y-103150000D01*
X122825000Y-101322058D02*
X123789430Y-100357628D01*
X123050000Y-103150000D02*
X122825000Y-102925000D01*
X123789430Y-100357628D02*
X124032628Y-100357628D01*
%TD*%
%TA.AperFunction,Conductor*%
%TO.N,GND*%
G36*
X121532590Y-84937768D02*
G01*
X121887996Y-84947796D01*
X121890440Y-84947891D01*
X122265436Y-84966499D01*
X122269399Y-84966761D01*
X122623711Y-84996002D01*
X122625770Y-84996191D01*
X122999316Y-85033995D01*
X123003637Y-85034510D01*
X123355978Y-85082896D01*
X123357440Y-85083108D01*
X123728663Y-85140027D01*
X123733313Y-85140832D01*
X124082433Y-85208194D01*
X124083724Y-85208452D01*
X124451482Y-85284313D01*
X124456345Y-85285421D01*
X124801443Y-85371606D01*
X124802141Y-85371784D01*
X125165690Y-85466439D01*
X125170824Y-85467897D01*
X125510499Y-85572550D01*
X125511341Y-85572813D01*
X125651957Y-85617235D01*
X125869296Y-85685895D01*
X125874775Y-85687768D01*
X126208319Y-85810656D01*
X126560481Y-85942115D01*
X126566161Y-85944399D01*
X126751570Y-86024352D01*
X126892157Y-86084977D01*
X127102746Y-86176143D01*
X127156447Y-86220841D01*
X127177458Y-86287476D01*
X127160841Y-86351986D01*
X126346595Y-87760810D01*
X126346046Y-87761441D01*
X126334467Y-87781712D01*
X126334413Y-87782120D01*
X126334414Y-87782123D01*
X126334487Y-87782218D01*
X126334564Y-87782318D01*
X126334666Y-87782450D01*
X126355803Y-87794646D01*
X126355968Y-87794703D01*
X127261055Y-88317255D01*
X128444707Y-89000636D01*
X128492923Y-89051203D01*
X128506033Y-89095115D01*
X128515274Y-89183411D01*
X128515276Y-89183424D01*
X128576167Y-89448865D01*
X128583339Y-89480131D01*
X128662732Y-89699613D01*
X128686889Y-89766396D01*
X128824397Y-90037988D01*
X128993816Y-90290873D01*
X128993828Y-90290890D01*
X129048880Y-90354698D01*
X129192684Y-90521375D01*
X129418030Y-90726041D01*
X129615347Y-90865646D01*
X129666533Y-90901861D01*
X129666543Y-90901867D01*
X129934529Y-91046244D01*
X129934531Y-91046245D01*
X130218064Y-91157055D01*
X130512933Y-91232654D01*
X130512937Y-91232654D01*
X130512942Y-91232656D01*
X130814813Y-91271933D01*
X130967016Y-91273119D01*
X131119212Y-91274305D01*
X131119212Y-91274304D01*
X131119219Y-91274305D01*
X131421665Y-91239737D01*
X131717686Y-91168740D01*
X132002909Y-91062362D01*
X132273124Y-90922175D01*
X132524340Y-90750247D01*
X132533758Y-90741963D01*
X132597094Y-90712469D01*
X132666324Y-90721898D01*
X132717521Y-90764371D01*
X132751399Y-90813183D01*
X132950997Y-91100773D01*
X132970927Y-91129488D01*
X132970962Y-91129594D01*
X132970988Y-91129577D01*
X133046720Y-91238896D01*
X133050150Y-91244124D01*
X133284314Y-91621450D01*
X133284404Y-91621768D01*
X133284482Y-91621721D01*
X133431157Y-91859429D01*
X133434203Y-91864647D01*
X133634783Y-92228236D01*
X133635038Y-92228701D01*
X133782710Y-92499109D01*
X133785383Y-92504290D01*
X133961640Y-92866550D01*
X133961963Y-92867218D01*
X134100442Y-93156217D01*
X134102754Y-93161337D01*
X134257553Y-93525911D01*
X134257923Y-93526791D01*
X134383502Y-93828991D01*
X134385467Y-93834027D01*
X134519894Y-94202022D01*
X134520289Y-94203119D01*
X134629985Y-94512405D01*
X134633842Y-94582168D01*
X134599370Y-94642942D01*
X134537514Y-94675431D01*
X134467912Y-94669321D01*
X134444230Y-94656958D01*
X134408722Y-94633233D01*
X134408720Y-94633232D01*
X134408717Y-94633231D01*
X134364822Y-94624500D01*
X134364820Y-94624500D01*
X133535180Y-94624500D01*
X133535178Y-94624500D01*
X133491282Y-94633231D01*
X133491275Y-94633234D01*
X133441496Y-94666495D01*
X133441495Y-94666496D01*
X133408234Y-94716275D01*
X133408231Y-94716282D01*
X133399500Y-94760177D01*
X133399500Y-95008745D01*
X133379815Y-95075784D01*
X133327011Y-95121539D01*
X133257853Y-95131483D01*
X133194297Y-95102458D01*
X133187819Y-95096426D01*
X133138347Y-95046954D01*
X133138344Y-95046952D01*
X133138342Y-95046950D01*
X133025304Y-94989354D01*
X133025303Y-94989353D01*
X133025300Y-94989352D01*
X132900003Y-94969508D01*
X132899997Y-94969508D01*
X132774699Y-94989352D01*
X132774698Y-94989352D01*
X132726341Y-95013992D01*
X132661658Y-95046950D01*
X132661657Y-95046951D01*
X132661652Y-95046954D01*
X132571954Y-95136652D01*
X132571947Y-95136661D01*
X132534984Y-95209206D01*
X132487010Y-95260002D01*
X132419189Y-95276797D01*
X132353054Y-95254259D01*
X132309603Y-95199544D01*
X132300500Y-95152911D01*
X132300500Y-94760177D01*
X132291768Y-94716282D01*
X132291767Y-94716281D01*
X132291767Y-94716278D01*
X132258504Y-94666496D01*
X132244228Y-94656957D01*
X132208724Y-94633234D01*
X132208717Y-94633231D01*
X132164822Y-94624500D01*
X132164820Y-94624500D01*
X131522337Y-94624500D01*
X131455298Y-94604815D01*
X131409543Y-94552011D01*
X131399398Y-94516685D01*
X131399152Y-94514820D01*
X131384772Y-94405590D01*
X131329303Y-94271674D01*
X131241063Y-94156678D01*
X131126067Y-94068438D01*
X131126066Y-94068437D01*
X131126064Y-94068436D01*
X130992154Y-94012970D01*
X130992152Y-94012969D01*
X130992151Y-94012969D01*
X130864507Y-93996164D01*
X130848443Y-93994049D01*
X130848441Y-93994049D01*
X130704733Y-94012969D01*
X130704729Y-94012970D01*
X130570819Y-94068436D01*
X130455821Y-94156678D01*
X130367579Y-94271676D01*
X130312113Y-94405586D01*
X130312112Y-94405590D01*
X130293928Y-94543712D01*
X130293192Y-94549299D01*
X130308993Y-94669321D01*
X130312112Y-94693007D01*
X130312113Y-94693011D01*
X130343796Y-94769501D01*
X130367581Y-94826924D01*
X130410896Y-94883373D01*
X130422317Y-94898256D01*
X130447512Y-94963424D01*
X130447942Y-94973743D01*
X130447942Y-96051006D01*
X130428257Y-96118045D01*
X130375453Y-96163800D01*
X130341104Y-96173060D01*
X130341154Y-96173311D01*
X130337423Y-96174053D01*
X130336107Y-96174408D01*
X130335179Y-96174499D01*
X130317023Y-96178111D01*
X130247432Y-96171884D01*
X130192254Y-96129021D01*
X130169010Y-96063131D01*
X130169893Y-96040308D01*
X130170000Y-96039500D01*
X130180466Y-95960000D01*
X130179199Y-95950380D01*
X130164228Y-95836658D01*
X130160687Y-95809764D01*
X130102698Y-95669767D01*
X130010451Y-95549549D01*
X129890233Y-95457302D01*
X129890229Y-95457300D01*
X129761831Y-95404116D01*
X129750236Y-95399313D01*
X129736171Y-95397461D01*
X129637727Y-95384500D01*
X129637720Y-95384500D01*
X129562280Y-95384500D01*
X129562272Y-95384500D01*
X129449764Y-95399313D01*
X129449763Y-95399313D01*
X129309770Y-95457300D01*
X129309767Y-95457301D01*
X129309767Y-95457302D01*
X129189549Y-95549549D01*
X129099468Y-95666945D01*
X129097300Y-95669770D01*
X129039313Y-95809763D01*
X129039312Y-95809765D01*
X129019534Y-95959999D01*
X129019534Y-95960000D01*
X129039312Y-96110234D01*
X129039313Y-96110236D01*
X129093885Y-96241985D01*
X129097302Y-96250233D01*
X129189549Y-96370451D01*
X129309767Y-96462698D01*
X129449764Y-96520687D01*
X129562280Y-96535500D01*
X129562287Y-96535500D01*
X129637713Y-96535500D01*
X129637720Y-96535500D01*
X129750236Y-96520687D01*
X129890233Y-96462698D01*
X130000014Y-96378459D01*
X130065182Y-96353265D01*
X130133627Y-96367303D01*
X130183617Y-96416117D01*
X130199500Y-96476835D01*
X130199500Y-97039820D01*
X130199500Y-97039822D01*
X130199499Y-97039822D01*
X130208231Y-97083717D01*
X130208234Y-97083724D01*
X130241495Y-97133503D01*
X130241496Y-97133504D01*
X130291278Y-97166767D01*
X130291281Y-97166767D01*
X130291282Y-97166768D01*
X130335177Y-97175500D01*
X130335180Y-97175500D01*
X131864822Y-97175500D01*
X131908717Y-97166768D01*
X131908717Y-97166767D01*
X131908722Y-97166767D01*
X131958504Y-97133504D01*
X131958506Y-97133500D01*
X131964970Y-97127037D01*
X132022425Y-97095661D01*
X132009048Y-97078391D01*
X132000500Y-97033150D01*
X132000500Y-96310177D01*
X131991768Y-96266282D01*
X131991767Y-96266281D01*
X131991767Y-96266278D01*
X131958504Y-96216496D01*
X131934271Y-96200304D01*
X131908724Y-96183234D01*
X131908717Y-96183231D01*
X131864822Y-96174500D01*
X131864820Y-96174500D01*
X131372942Y-96174500D01*
X131305903Y-96154815D01*
X131260148Y-96102011D01*
X131248942Y-96050500D01*
X131248942Y-96049500D01*
X131268627Y-95982461D01*
X131321431Y-95936706D01*
X131372942Y-95925500D01*
X132164822Y-95925500D01*
X132208717Y-95916768D01*
X132208717Y-95916767D01*
X132208722Y-95916767D01*
X132258504Y-95883504D01*
X132291767Y-95833722D01*
X132296061Y-95812137D01*
X132300500Y-95789822D01*
X132300500Y-95597088D01*
X132320185Y-95530049D01*
X132372989Y-95484294D01*
X132442147Y-95474350D01*
X132505703Y-95503375D01*
X132534982Y-95540790D01*
X132571950Y-95613342D01*
X132571952Y-95613344D01*
X132571954Y-95613347D01*
X132661652Y-95703045D01*
X132661654Y-95703046D01*
X132661658Y-95703050D01*
X132774696Y-95760646D01*
X132774697Y-95760646D01*
X132774699Y-95760647D01*
X132899997Y-95780492D01*
X132900000Y-95780492D01*
X132900003Y-95780492D01*
X133025300Y-95760647D01*
X133025301Y-95760647D01*
X133025302Y-95760646D01*
X133025304Y-95760646D01*
X133138342Y-95703050D01*
X133156532Y-95684860D01*
X133187819Y-95653574D01*
X133249142Y-95620089D01*
X133318834Y-95625073D01*
X133374767Y-95666945D01*
X133399184Y-95732409D01*
X133399500Y-95741255D01*
X133399500Y-95789820D01*
X133399500Y-95789822D01*
X133399499Y-95789822D01*
X133408231Y-95833717D01*
X133408234Y-95833724D01*
X133439309Y-95880231D01*
X133441496Y-95883504D01*
X133491278Y-95916767D01*
X133491281Y-95916767D01*
X133491282Y-95916768D01*
X133535177Y-95925500D01*
X133535180Y-95925500D01*
X134364822Y-95925500D01*
X134408717Y-95916768D01*
X134408717Y-95916767D01*
X134408722Y-95916767D01*
X134458504Y-95883504D01*
X134491767Y-95833722D01*
X134496061Y-95812137D01*
X134500500Y-95789822D01*
X134500500Y-94914798D01*
X134520185Y-94847759D01*
X134572989Y-94802004D01*
X134642147Y-94792060D01*
X134705703Y-94821085D01*
X134743002Y-94878284D01*
X134747272Y-94892142D01*
X134747669Y-94893456D01*
X134842585Y-95214062D01*
X134843903Y-95218867D01*
X134938739Y-95593954D01*
X134939119Y-95595498D01*
X135017382Y-95922637D01*
X135018402Y-95927296D01*
X135093580Y-96305236D01*
X135093919Y-96307007D01*
X135155005Y-96639271D01*
X135155747Y-96643768D01*
X135211298Y-97024038D01*
X135211573Y-97026033D01*
X135255108Y-97362130D01*
X135255590Y-97366449D01*
X135291484Y-97748145D01*
X135291673Y-97750364D01*
X135317406Y-98089167D01*
X135317650Y-98093294D01*
X135333898Y-98475685D01*
X135333978Y-98478122D01*
X135341738Y-98818424D01*
X135341765Y-98822346D01*
X135338390Y-99204635D01*
X135338338Y-99207285D01*
X135328048Y-99547870D01*
X135327881Y-99551576D01*
X135304926Y-99932906D01*
X135304721Y-99935761D01*
X135276376Y-100275631D01*
X135276036Y-100279112D01*
X135233582Y-100658562D01*
X135233202Y-100661613D01*
X135186876Y-100999605D01*
X135186387Y-101002855D01*
X135124543Y-101379567D01*
X135123968Y-101382802D01*
X135059791Y-101717915D01*
X135059175Y-101720928D01*
X134978088Y-102094012D01*
X134977297Y-102097418D01*
X134895501Y-102428482D01*
X134894783Y-102431253D01*
X134794611Y-102799924D01*
X134793584Y-102803490D01*
X134743135Y-102969379D01*
X134704797Y-103027790D01*
X134640965Y-103056202D01*
X134571905Y-103045593D01*
X134519544Y-102999332D01*
X134500500Y-102933300D01*
X134500500Y-102060177D01*
X134491768Y-102016282D01*
X134491767Y-102016281D01*
X134491767Y-102016278D01*
X134458504Y-101966496D01*
X134458503Y-101966495D01*
X134408724Y-101933234D01*
X134408717Y-101933231D01*
X134364822Y-101924500D01*
X134364820Y-101924500D01*
X133535180Y-101924500D01*
X133535178Y-101924500D01*
X133491282Y-101933231D01*
X133491275Y-101933234D01*
X133441496Y-101966495D01*
X133441495Y-101966496D01*
X133408234Y-102016275D01*
X133408231Y-102016282D01*
X133399500Y-102060177D01*
X133399500Y-102060180D01*
X133399500Y-103089820D01*
X133399500Y-103089822D01*
X133399499Y-103089822D01*
X133408231Y-103133717D01*
X133408234Y-103133724D01*
X133441495Y-103183503D01*
X133441496Y-103183504D01*
X133491278Y-103216767D01*
X133491281Y-103216767D01*
X133491282Y-103216768D01*
X133535177Y-103225500D01*
X133535180Y-103225500D01*
X134364822Y-103225500D01*
X134408717Y-103216768D01*
X134408717Y-103216767D01*
X134408722Y-103216767D01*
X134439452Y-103196233D01*
X134506128Y-103175356D01*
X134573509Y-103193840D01*
X134620199Y-103245819D01*
X134631375Y-103314789D01*
X134626179Y-103337942D01*
X134574610Y-103495346D01*
X134573330Y-103499054D01*
X134457198Y-103818951D01*
X134456344Y-103821234D01*
X134318674Y-104178406D01*
X134317123Y-104182238D01*
X134184424Y-104495019D01*
X134183536Y-104497061D01*
X134027487Y-104847256D01*
X134025649Y-104851194D01*
X133876932Y-105155756D01*
X133876033Y-105157559D01*
X133701828Y-105500090D01*
X133699688Y-105504114D01*
X133535632Y-105799312D01*
X133534745Y-105800881D01*
X133342617Y-106135056D01*
X133340160Y-106139145D01*
X133161394Y-106424120D01*
X133160540Y-106425461D01*
X132950798Y-106750481D01*
X132948013Y-106754613D01*
X132755613Y-107027993D01*
X132754814Y-107029115D01*
X132527425Y-107344701D01*
X132524301Y-107348851D01*
X132319425Y-107609443D01*
X132318700Y-107610356D01*
X132073661Y-107916073D01*
X132070189Y-107920217D01*
X131854511Y-108166487D01*
X131853879Y-108167202D01*
X131590725Y-108463060D01*
X131586897Y-108467172D01*
X131363322Y-108696693D01*
X131362803Y-108697223D01*
X131079919Y-108984175D01*
X131075729Y-108988230D01*
X130849417Y-109197173D01*
X130849028Y-109197531D01*
X130542668Y-109477965D01*
X130538113Y-109481935D01*
X130323322Y-109660119D01*
X130323076Y-109660322D01*
X129980388Y-109943122D01*
X129975467Y-109946979D01*
X129868678Y-110026408D01*
X129868592Y-110026472D01*
X129511879Y-110291312D01*
X129446318Y-110315470D01*
X129378105Y-110300349D01*
X129330574Y-110253752D01*
X128635591Y-109050003D01*
X129519508Y-109050003D01*
X129539352Y-109175300D01*
X129539352Y-109175301D01*
X129539354Y-109175304D01*
X129596950Y-109288342D01*
X129596952Y-109288344D01*
X129596954Y-109288347D01*
X129686652Y-109378045D01*
X129686654Y-109378046D01*
X129686658Y-109378050D01*
X129799696Y-109435646D01*
X129799697Y-109435646D01*
X129799699Y-109435647D01*
X129924997Y-109455492D01*
X129925000Y-109455492D01*
X129925003Y-109455492D01*
X130050300Y-109435647D01*
X130050301Y-109435647D01*
X130050302Y-109435646D01*
X130050304Y-109435646D01*
X130163342Y-109378050D01*
X130253050Y-109288342D01*
X130310646Y-109175304D01*
X130310646Y-109175302D01*
X130310647Y-109175301D01*
X130310647Y-109175300D01*
X130330492Y-109050003D01*
X130330492Y-109049996D01*
X130310647Y-108924699D01*
X130310647Y-108924698D01*
X130310646Y-108924696D01*
X130253050Y-108811658D01*
X130253046Y-108811654D01*
X130253045Y-108811652D01*
X130163347Y-108721954D01*
X130163344Y-108721952D01*
X130163342Y-108721950D01*
X130050304Y-108664354D01*
X130050303Y-108664353D01*
X130050300Y-108664352D01*
X129925003Y-108644508D01*
X129924997Y-108644508D01*
X129799699Y-108664352D01*
X129799698Y-108664352D01*
X129728756Y-108700500D01*
X129686658Y-108721950D01*
X129686657Y-108721951D01*
X129686652Y-108721954D01*
X129596954Y-108811652D01*
X129596951Y-108811657D01*
X129596950Y-108811658D01*
X129594743Y-108815990D01*
X129539352Y-108924698D01*
X129539352Y-108924699D01*
X129519508Y-109049996D01*
X129519508Y-109050003D01*
X128635591Y-109050003D01*
X128512841Y-108837394D01*
X128512793Y-108837254D01*
X128512789Y-108837257D01*
X128500469Y-108815883D01*
X128500141Y-108815631D01*
X128500140Y-108815631D01*
X128500133Y-108815631D01*
X128499729Y-108815684D01*
X128479629Y-108827136D01*
X128478942Y-108827732D01*
X126356041Y-110053391D01*
X126355872Y-110053449D01*
X126355884Y-110053470D01*
X126334663Y-110065687D01*
X126334414Y-110066012D01*
X126334413Y-110066015D01*
X126334467Y-110066424D01*
X126346847Y-110087832D01*
X126346843Y-110087834D01*
X126346938Y-110087942D01*
X126936996Y-111109952D01*
X127160988Y-111497918D01*
X127177461Y-111565818D01*
X127154608Y-111631845D01*
X127102864Y-111673712D01*
X126916273Y-111754490D01*
X126916108Y-111754562D01*
X126565900Y-111905568D01*
X126560168Y-111907872D01*
X126219912Y-112034888D01*
X126219415Y-112035072D01*
X125874421Y-112162181D01*
X125868907Y-112164067D01*
X125518471Y-112274779D01*
X125517627Y-112275042D01*
X125170377Y-112382032D01*
X125165110Y-112383528D01*
X124807764Y-112476571D01*
X124806567Y-112476877D01*
X124455795Y-112564484D01*
X124450801Y-112565622D01*
X124088066Y-112640453D01*
X124086507Y-112640764D01*
X123732591Y-112709057D01*
X123727893Y-112709870D01*
X123361279Y-112766090D01*
X123359356Y-112766370D01*
X123002786Y-112815344D01*
X122998401Y-112815867D01*
X122628963Y-112853264D01*
X122626677Y-112853474D01*
X122268377Y-112883053D01*
X122264323Y-112883320D01*
X121893291Y-112901739D01*
X121890644Y-112901843D01*
X121531446Y-112911989D01*
X121527737Y-112912038D01*
X121156066Y-112911416D01*
X121153064Y-112911374D01*
X120793971Y-112902074D01*
X120790618Y-112901942D01*
X120419488Y-112882271D01*
X120416139Y-112882048D01*
X120058019Y-112853331D01*
X120055030Y-112853055D01*
X119685448Y-112814393D01*
X119681764Y-112813952D01*
X119325643Y-112765890D01*
X119323022Y-112765508D01*
X118955981Y-112707965D01*
X118951979Y-112707270D01*
X118598794Y-112639978D01*
X118596542Y-112639527D01*
X118233171Y-112563295D01*
X118228866Y-112562312D01*
X117879498Y-112475925D01*
X117877616Y-112475444D01*
X117518949Y-112380772D01*
X117514363Y-112379466D01*
X117169645Y-112274142D01*
X117168128Y-112273668D01*
X116815344Y-112160915D01*
X116810498Y-112159255D01*
X116471066Y-112035100D01*
X116469907Y-112034670D01*
X116275366Y-111961305D01*
X116124265Y-111904322D01*
X116119202Y-111902283D01*
X116028398Y-111863378D01*
X115785274Y-111759213D01*
X115784464Y-111758863D01*
X115447641Y-111611705D01*
X115442356Y-111609246D01*
X115112695Y-111446362D01*
X115112221Y-111446127D01*
X114787362Y-111283885D01*
X114781902Y-111280986D01*
X114441590Y-111089269D01*
X114441612Y-111089228D01*
X114441436Y-111089182D01*
X114213483Y-110960335D01*
X114164808Y-110910210D01*
X114150500Y-110852386D01*
X114150500Y-109156517D01*
X115174500Y-109156517D01*
X115180996Y-109197531D01*
X115189354Y-109250304D01*
X115246950Y-109363342D01*
X115246952Y-109363344D01*
X115246954Y-109363347D01*
X115336652Y-109453045D01*
X115336654Y-109453046D01*
X115336658Y-109453050D01*
X115449694Y-109510645D01*
X115449698Y-109510647D01*
X115458980Y-109513663D01*
X115458192Y-109516085D01*
X115508359Y-109539863D01*
X115545294Y-109599172D01*
X115544300Y-109669035D01*
X115513514Y-109720093D01*
X115421951Y-109811656D01*
X115421951Y-109811657D01*
X115421950Y-109811658D01*
X115416375Y-109822600D01*
X115364352Y-109924698D01*
X115364352Y-109924699D01*
X115344508Y-110049996D01*
X115344508Y-110050003D01*
X115364352Y-110175300D01*
X115364352Y-110175301D01*
X115378076Y-110202235D01*
X115421950Y-110288342D01*
X115421952Y-110288344D01*
X115421954Y-110288347D01*
X115511652Y-110378045D01*
X115511654Y-110378046D01*
X115511658Y-110378050D01*
X115624696Y-110435646D01*
X115624697Y-110435646D01*
X115624699Y-110435647D01*
X115749997Y-110455492D01*
X115750000Y-110455492D01*
X115750003Y-110455492D01*
X115875300Y-110435647D01*
X115875301Y-110435647D01*
X115875302Y-110435646D01*
X115875304Y-110435646D01*
X115988342Y-110378050D01*
X116078050Y-110288342D01*
X116135646Y-110175304D01*
X116135646Y-110175302D01*
X116135647Y-110175301D01*
X116135647Y-110175300D01*
X116155492Y-110050003D01*
X116155492Y-110049996D01*
X116135647Y-109924699D01*
X116135647Y-109924698D01*
X116124432Y-109902688D01*
X116078050Y-109811658D01*
X116078046Y-109811654D01*
X116078045Y-109811652D01*
X116003573Y-109737180D01*
X115970088Y-109675857D01*
X115975072Y-109606165D01*
X116016944Y-109550232D01*
X116082408Y-109525815D01*
X116091246Y-109525499D01*
X116306518Y-109525499D01*
X116400304Y-109510646D01*
X116513342Y-109453050D01*
X116603050Y-109363342D01*
X116660646Y-109250304D01*
X116660646Y-109250302D01*
X116660647Y-109250301D01*
X116675499Y-109156524D01*
X116675500Y-109156519D01*
X116675499Y-107793482D01*
X116660646Y-107699696D01*
X116603050Y-107586658D01*
X116603046Y-107586654D01*
X116603045Y-107586652D01*
X116513347Y-107496954D01*
X116513344Y-107496952D01*
X116513342Y-107496950D01*
X116417012Y-107447867D01*
X116400301Y-107439352D01*
X116306524Y-107424500D01*
X115543482Y-107424500D01*
X115462519Y-107437323D01*
X115449696Y-107439354D01*
X115336658Y-107496950D01*
X115336657Y-107496951D01*
X115336652Y-107496954D01*
X115246954Y-107586652D01*
X115246951Y-107586657D01*
X115246950Y-107586658D01*
X115234875Y-107610356D01*
X115189352Y-107699698D01*
X115174500Y-107793475D01*
X115174500Y-109156517D01*
X114150500Y-109156517D01*
X114150500Y-107638015D01*
X114157020Y-107598336D01*
X114523022Y-106514684D01*
X114563121Y-106457472D01*
X114627790Y-106431019D01*
X114696494Y-106443728D01*
X114747420Y-106491564D01*
X114764500Y-106554365D01*
X114764500Y-106788365D01*
X114764502Y-106788388D01*
X114767317Y-106812659D01*
X114767318Y-106812662D01*
X114811186Y-106912015D01*
X114811187Y-106912016D01*
X114887984Y-106988813D01*
X114987338Y-107032682D01*
X115011627Y-107035500D01*
X115378372Y-107035499D01*
X115402662Y-107032682D01*
X115502016Y-106988813D01*
X115578813Y-106912016D01*
X115622682Y-106812662D01*
X115625500Y-106788373D01*
X115625499Y-106361628D01*
X115622682Y-106337338D01*
X115578813Y-106237984D01*
X115572319Y-106228504D01*
X115573959Y-106227380D01*
X115547392Y-106178725D01*
X115552376Y-106109033D01*
X115594248Y-106053100D01*
X115598484Y-106050066D01*
X115599136Y-106049617D01*
X115599141Y-106049616D01*
X115674616Y-105974141D01*
X115717730Y-105876498D01*
X115720500Y-105852623D01*
X115720499Y-105497378D01*
X115717730Y-105473502D01*
X115717730Y-105473501D01*
X115674619Y-105375864D01*
X115674617Y-105375861D01*
X115674616Y-105375859D01*
X115599141Y-105300384D01*
X115553239Y-105280116D01*
X115549428Y-105278433D01*
X115496053Y-105233346D01*
X115475526Y-105166560D01*
X115494365Y-105099278D01*
X115546589Y-105052862D01*
X115549344Y-105051603D01*
X115599141Y-105029616D01*
X115637319Y-104991438D01*
X115698642Y-104957953D01*
X115768334Y-104962937D01*
X115812681Y-104991438D01*
X115850859Y-105029616D01*
X115850862Y-105029617D01*
X115850863Y-105029618D01*
X115948499Y-105072729D01*
X115948500Y-105072729D01*
X115948502Y-105072730D01*
X115972377Y-105075500D01*
X116427622Y-105075499D01*
X116451498Y-105072730D01*
X116549135Y-105029619D01*
X116549136Y-105029618D01*
X116549141Y-105029616D01*
X116624616Y-104954141D01*
X116624619Y-104954135D01*
X116648781Y-104899414D01*
X116693867Y-104846037D01*
X116760653Y-104825510D01*
X116762215Y-104825500D01*
X117675500Y-104825500D01*
X117742539Y-104845185D01*
X117788294Y-104897989D01*
X117799500Y-104949500D01*
X117799500Y-106049526D01*
X117779815Y-106116565D01*
X117727011Y-106162320D01*
X117725588Y-106162960D01*
X117676418Y-106184671D01*
X117672982Y-106186188D01*
X117596187Y-106262983D01*
X117552318Y-106362335D01*
X117552318Y-106362337D01*
X117549500Y-106386625D01*
X117549500Y-106813365D01*
X117549502Y-106813388D01*
X117552317Y-106837659D01*
X117552318Y-106837662D01*
X117596186Y-106937015D01*
X117625060Y-106965889D01*
X117658545Y-107027212D01*
X117653561Y-107096904D01*
X117647864Y-107109865D01*
X117646950Y-107111657D01*
X117646950Y-107111658D01*
X117608310Y-107187493D01*
X117589353Y-107224698D01*
X117569508Y-107349996D01*
X117569508Y-107350003D01*
X117589352Y-107475300D01*
X117589352Y-107475301D01*
X117600383Y-107496950D01*
X117646950Y-107588342D01*
X117646952Y-107588344D01*
X117646954Y-107588347D01*
X117736652Y-107678045D01*
X117736654Y-107678046D01*
X117736658Y-107678050D01*
X117849696Y-107735646D01*
X117849697Y-107735646D01*
X117849699Y-107735647D01*
X117974997Y-107755492D01*
X117975000Y-107755492D01*
X117975003Y-107755492D01*
X118100300Y-107735647D01*
X118100301Y-107735647D01*
X118100302Y-107735646D01*
X118100304Y-107735646D01*
X118213342Y-107678050D01*
X118213349Y-107678042D01*
X118221241Y-107672311D01*
X118222225Y-107673665D01*
X118273632Y-107645590D01*
X118343324Y-107650569D01*
X118378248Y-107673013D01*
X118378759Y-107672311D01*
X118386653Y-107678045D01*
X118386658Y-107678050D01*
X118499696Y-107735646D01*
X118499697Y-107735646D01*
X118499699Y-107735647D01*
X118624997Y-107755492D01*
X118625000Y-107755492D01*
X118625003Y-107755492D01*
X118750300Y-107735647D01*
X118750301Y-107735647D01*
X118750302Y-107735646D01*
X118750304Y-107735646D01*
X118863342Y-107678050D01*
X118953050Y-107588342D01*
X119010646Y-107475304D01*
X119027177Y-107370925D01*
X119057105Y-107307794D01*
X119061951Y-107302663D01*
X119061990Y-107302624D01*
X119080774Y-107287209D01*
X119093624Y-107278624D01*
X119112954Y-107249696D01*
X119129658Y-107224696D01*
X119154515Y-107187495D01*
X119170500Y-107107133D01*
X119170500Y-107107132D01*
X119175897Y-107080000D01*
X119175896Y-107079998D01*
X119178280Y-107068018D01*
X119182485Y-107068854D01*
X119195582Y-107024255D01*
X119212216Y-107003613D01*
X119244823Y-106971006D01*
X119278813Y-106937016D01*
X119322682Y-106837662D01*
X119325500Y-106813373D01*
X119325499Y-106415463D01*
X119345183Y-106348425D01*
X119397987Y-106302670D01*
X119425304Y-106293847D01*
X119430154Y-106292882D01*
X119454345Y-106290500D01*
X120549513Y-106290500D01*
X120616552Y-106310185D01*
X120637194Y-106326819D01*
X120713012Y-106402637D01*
X120746497Y-106463960D01*
X120747804Y-106470920D01*
X120764334Y-106575292D01*
X120782787Y-106611508D01*
X120821932Y-106688333D01*
X120821934Y-106688335D01*
X120821936Y-106688338D01*
X120911634Y-106778036D01*
X120911636Y-106778037D01*
X120911640Y-106778041D01*
X121024678Y-106835637D01*
X121024679Y-106835637D01*
X121024681Y-106835638D01*
X121149979Y-106855483D01*
X121149982Y-106855483D01*
X121149985Y-106855483D01*
X121275282Y-106835638D01*
X121275283Y-106835638D01*
X121275284Y-106835637D01*
X121275286Y-106835637D01*
X121388324Y-106778041D01*
X121478032Y-106688333D01*
X121535628Y-106575295D01*
X121535628Y-106575293D01*
X121535629Y-106575292D01*
X121535629Y-106575291D01*
X121555474Y-106449994D01*
X121555474Y-106449987D01*
X121535629Y-106324690D01*
X121535629Y-106324689D01*
X121528239Y-106310185D01*
X121478032Y-106211649D01*
X121478028Y-106211645D01*
X121478027Y-106211643D01*
X121388329Y-106121945D01*
X121388326Y-106121943D01*
X121388324Y-106121941D01*
X121287364Y-106070499D01*
X121275283Y-106064343D01*
X121170911Y-106047813D01*
X121107776Y-106017884D01*
X121102628Y-106013021D01*
X120937618Y-105848011D01*
X120922196Y-105829219D01*
X120921130Y-105827624D01*
X120913615Y-105816376D01*
X120913612Y-105816373D01*
X120895682Y-105804393D01*
X120895679Y-105804391D01*
X120882536Y-105795609D01*
X120852623Y-105775622D01*
X120822486Y-105755485D01*
X120822485Y-105755484D01*
X120822484Y-105755484D01*
X120822481Y-105755483D01*
X120736156Y-105738312D01*
X120736143Y-105738310D01*
X120714993Y-105734103D01*
X120714992Y-105734103D01*
X120714991Y-105734103D01*
X120699837Y-105737117D01*
X120675647Y-105739500D01*
X119580479Y-105739500D01*
X119513440Y-105719815D01*
X119492798Y-105703181D01*
X119386819Y-105597202D01*
X119353334Y-105535879D01*
X119350500Y-105509521D01*
X119350500Y-104941519D01*
X119350499Y-104941515D01*
X119338142Y-104879390D01*
X119310682Y-104838294D01*
X119291065Y-104808935D01*
X119256109Y-104785578D01*
X119220609Y-104761857D01*
X119158484Y-104749500D01*
X119158480Y-104749500D01*
X118991520Y-104749500D01*
X118991515Y-104749500D01*
X118929390Y-104761857D01*
X118893891Y-104785578D01*
X118827214Y-104806456D01*
X118759834Y-104787972D01*
X118756109Y-104785578D01*
X118720609Y-104761857D01*
X118658484Y-104749500D01*
X118658480Y-104749500D01*
X118491520Y-104749500D01*
X118491515Y-104749500D01*
X118429390Y-104761857D01*
X118393891Y-104785578D01*
X118327214Y-104806456D01*
X118259834Y-104787972D01*
X118256109Y-104785578D01*
X118220609Y-104761857D01*
X118158484Y-104749500D01*
X118158480Y-104749500D01*
X117999500Y-104749500D01*
X117932461Y-104729815D01*
X117886706Y-104677011D01*
X117875500Y-104625500D01*
X117875500Y-104466519D01*
X117875499Y-104466515D01*
X117870818Y-104442982D01*
X117863142Y-104404391D01*
X117839421Y-104368889D01*
X117818543Y-104302216D01*
X117837026Y-104234835D01*
X117839394Y-104231149D01*
X117863142Y-104195609D01*
X117875500Y-104133480D01*
X117875500Y-103966520D01*
X117863142Y-103904391D01*
X117839421Y-103868889D01*
X117818543Y-103802216D01*
X117837026Y-103734835D01*
X117839394Y-103731149D01*
X117863142Y-103695609D01*
X117875500Y-103633480D01*
X117875500Y-103466520D01*
X117863142Y-103404391D01*
X117839421Y-103368889D01*
X117818543Y-103302216D01*
X117837026Y-103234835D01*
X117839394Y-103231149D01*
X117863142Y-103195609D01*
X117875500Y-103133480D01*
X117875500Y-102974500D01*
X117895185Y-102907461D01*
X117947989Y-102861706D01*
X117999500Y-102850500D01*
X118158481Y-102850500D01*
X118158482Y-102850499D01*
X118220609Y-102838142D01*
X118291065Y-102791065D01*
X118338142Y-102720609D01*
X118350500Y-102658480D01*
X118350500Y-102351844D01*
X118352883Y-102327651D01*
X118353338Y-102325367D01*
X118355897Y-102312500D01*
X118352883Y-102297347D01*
X118350500Y-102273155D01*
X118350500Y-101966519D01*
X118350499Y-101966515D01*
X118338142Y-101904390D01*
X118311890Y-101865102D01*
X118291065Y-101833935D01*
X118255959Y-101810478D01*
X118220609Y-101786857D01*
X118158484Y-101774500D01*
X118158480Y-101774500D01*
X117991520Y-101774500D01*
X117991515Y-101774500D01*
X117929390Y-101786857D01*
X117858935Y-101833935D01*
X117811857Y-101904390D01*
X117811857Y-101904391D01*
X117805333Y-101937191D01*
X117772948Y-101999102D01*
X117712232Y-102033677D01*
X117683716Y-102037000D01*
X117497648Y-102037000D01*
X117441353Y-102023485D01*
X117438343Y-102021951D01*
X117438342Y-102021950D01*
X117325304Y-101964354D01*
X117325303Y-101964353D01*
X117325300Y-101964352D01*
X117200003Y-101944508D01*
X117199997Y-101944508D01*
X117074699Y-101964352D01*
X117074698Y-101964352D01*
X116999337Y-102002751D01*
X116961658Y-102021950D01*
X116961657Y-102021951D01*
X116961652Y-102021954D01*
X116871954Y-102111652D01*
X116871951Y-102111657D01*
X116871950Y-102111658D01*
X116863599Y-102128048D01*
X116814352Y-102224698D01*
X116814352Y-102224699D01*
X116794508Y-102349996D01*
X116794508Y-102350003D01*
X116801756Y-102395767D01*
X116792801Y-102465060D01*
X116747805Y-102518512D01*
X116681053Y-102539151D01*
X116613739Y-102520426D01*
X116591602Y-102502845D01*
X116574143Y-102485386D01*
X116574141Y-102485384D01*
X116574138Y-102485383D01*
X116574136Y-102485381D01*
X116476500Y-102442270D01*
X116476501Y-102442270D01*
X116452623Y-102439500D01*
X115997384Y-102439500D01*
X115997361Y-102439502D01*
X115973504Y-102442269D01*
X115973501Y-102442269D01*
X115875859Y-102485383D01*
X115869575Y-102489688D01*
X115803142Y-102511333D01*
X115735553Y-102493627D01*
X115688267Y-102442189D01*
X115675500Y-102387387D01*
X115675500Y-100896153D01*
X115695185Y-100829114D01*
X115747989Y-100783359D01*
X115817147Y-100773415D01*
X115880703Y-100802440D01*
X115909982Y-100839855D01*
X115921950Y-100863342D01*
X115921951Y-100863343D01*
X115921954Y-100863347D01*
X116011652Y-100953045D01*
X116011654Y-100953046D01*
X116011658Y-100953050D01*
X116124696Y-101010646D01*
X116124697Y-101010646D01*
X116124699Y-101010647D01*
X116249997Y-101030492D01*
X116250000Y-101030492D01*
X116250002Y-101030492D01*
X116305127Y-101021761D01*
X116374420Y-101030716D01*
X116427872Y-101075712D01*
X116446998Y-101124834D01*
X116450006Y-101143824D01*
X116450006Y-101143825D01*
X116450007Y-101143827D01*
X116507603Y-101256865D01*
X116507605Y-101256867D01*
X116507607Y-101256870D01*
X116597305Y-101346568D01*
X116597307Y-101346569D01*
X116597311Y-101346573D01*
X116710349Y-101404169D01*
X116710350Y-101404169D01*
X116710352Y-101404170D01*
X116835650Y-101424015D01*
X116835653Y-101424015D01*
X116835656Y-101424015D01*
X116960953Y-101404170D01*
X116960954Y-101404170D01*
X116960955Y-101404169D01*
X116960957Y-101404169D01*
X117073995Y-101346573D01*
X117163703Y-101256865D01*
X117221299Y-101143827D01*
X117221299Y-101143825D01*
X117221300Y-101143824D01*
X117221300Y-101143823D01*
X117239704Y-101027622D01*
X117269633Y-100964487D01*
X117274459Y-100959376D01*
X117407018Y-100826817D01*
X117468341Y-100793334D01*
X117494698Y-100790500D01*
X117854522Y-100790500D01*
X117921561Y-100810185D01*
X117942203Y-100826819D01*
X118138181Y-101022797D01*
X118171666Y-101084120D01*
X118174500Y-101110477D01*
X118174500Y-101313365D01*
X118174502Y-101313388D01*
X118177317Y-101337659D01*
X118177318Y-101337662D01*
X118221186Y-101437015D01*
X118221187Y-101437016D01*
X118297984Y-101513813D01*
X118397338Y-101557682D01*
X118421627Y-101560500D01*
X118549520Y-101560499D01*
X118616560Y-101580183D01*
X118637202Y-101596818D01*
X118763181Y-101722797D01*
X118796666Y-101784120D01*
X118799500Y-101810478D01*
X118799500Y-102658484D01*
X118811857Y-102720609D01*
X118835166Y-102755492D01*
X118858935Y-102791065D01*
X118900432Y-102818792D01*
X118929390Y-102838142D01*
X118991515Y-102850499D01*
X118991519Y-102850500D01*
X118991520Y-102850500D01*
X119158481Y-102850500D01*
X119158482Y-102850499D01*
X119220609Y-102838142D01*
X119256110Y-102814421D01*
X119322784Y-102793543D01*
X119390165Y-102812026D01*
X119393850Y-102814394D01*
X119429391Y-102838142D01*
X119491515Y-102850499D01*
X119491519Y-102850500D01*
X119650500Y-102850500D01*
X119717539Y-102870185D01*
X119763294Y-102922989D01*
X119774500Y-102974500D01*
X119774500Y-103133484D01*
X119786857Y-103195609D01*
X119810578Y-103231109D01*
X119831456Y-103297786D01*
X119812972Y-103365166D01*
X119810578Y-103368891D01*
X119786857Y-103404390D01*
X119774500Y-103466515D01*
X119774500Y-103633484D01*
X119786857Y-103695609D01*
X119810578Y-103731109D01*
X119831456Y-103797786D01*
X119812972Y-103865166D01*
X119810578Y-103868891D01*
X119786857Y-103904390D01*
X119774500Y-103966515D01*
X119774500Y-104133484D01*
X119786857Y-104195609D01*
X119810578Y-104231109D01*
X119831456Y-104297786D01*
X119812972Y-104365166D01*
X119810578Y-104368891D01*
X119786857Y-104404390D01*
X119774500Y-104466515D01*
X119774500Y-104633484D01*
X119786857Y-104695609D01*
X119812162Y-104733480D01*
X119833935Y-104766065D01*
X119873556Y-104792539D01*
X119904390Y-104813142D01*
X119966515Y-104825499D01*
X119966519Y-104825500D01*
X119966520Y-104825500D01*
X120285367Y-104825500D01*
X121451341Y-104825500D01*
X121475531Y-104827882D01*
X121490685Y-104830897D01*
X121517817Y-104825500D01*
X121517818Y-104825500D01*
X121598180Y-104809515D01*
X121665768Y-104764354D01*
X121666307Y-104763994D01*
X121666308Y-104763992D01*
X121669503Y-104761857D01*
X121679723Y-104755032D01*
X121679734Y-104755020D01*
X121689309Y-104748624D01*
X121697896Y-104735772D01*
X121713309Y-104716991D01*
X122191990Y-104238309D01*
X122210774Y-104222894D01*
X122223624Y-104214309D01*
X122251936Y-104171938D01*
X122261588Y-104157494D01*
X122284515Y-104123181D01*
X122284515Y-104123180D01*
X122284516Y-104123179D01*
X122305897Y-104015685D01*
X122303651Y-104004391D01*
X122302882Y-104000525D01*
X122300500Y-103976337D01*
X122300500Y-103655163D01*
X122320185Y-103588124D01*
X122372989Y-103542369D01*
X122442147Y-103532425D01*
X122505703Y-103561450D01*
X122512181Y-103567482D01*
X122761684Y-103816985D01*
X122777105Y-103835775D01*
X122785688Y-103848621D01*
X122785689Y-103848622D01*
X122785691Y-103848624D01*
X122803631Y-103860611D01*
X122803652Y-103860627D01*
X122813554Y-103867242D01*
X122858363Y-103920851D01*
X122867076Y-103990175D01*
X122836926Y-104053205D01*
X122832352Y-104058030D01*
X121933010Y-104957372D01*
X121914222Y-104972791D01*
X121901377Y-104981374D01*
X121886005Y-105004377D01*
X121886006Y-105004378D01*
X121877157Y-105017622D01*
X121877156Y-105017623D01*
X121840484Y-105072505D01*
X121832754Y-105111370D01*
X121826561Y-105142506D01*
X121826561Y-105142507D01*
X121819103Y-105179999D01*
X121822117Y-105195151D01*
X121824500Y-105219344D01*
X121824500Y-107184522D01*
X121804815Y-107251561D01*
X121788181Y-107272203D01*
X119058010Y-110002373D01*
X119039222Y-110017792D01*
X119026377Y-110026375D01*
X119024087Y-110029802D01*
X119011007Y-110049377D01*
X119011006Y-110049379D01*
X119011005Y-110049381D01*
X119010998Y-110049391D01*
X119006968Y-110055421D01*
X118953961Y-110099954D01*
X118902234Y-110122794D01*
X118875333Y-110149696D01*
X118822794Y-110202235D01*
X118822793Y-110202236D01*
X118814670Y-110210360D01*
X118812251Y-110207941D01*
X118773171Y-110239842D01*
X118703750Y-110247747D01*
X118641076Y-110216865D01*
X118635388Y-110210301D01*
X118635330Y-110210360D01*
X118627206Y-110202236D01*
X118627206Y-110202235D01*
X118569132Y-110144161D01*
X118535649Y-110082838D01*
X118540634Y-110013147D01*
X118549141Y-109997303D01*
X118548619Y-109997037D01*
X118553048Y-109988343D01*
X118553050Y-109988342D01*
X118610646Y-109875304D01*
X118610646Y-109875302D01*
X118610647Y-109875301D01*
X118610647Y-109875300D01*
X118630492Y-109750003D01*
X118630492Y-109749996D01*
X118610647Y-109624699D01*
X118610647Y-109624698D01*
X118601204Y-109606165D01*
X118553050Y-109511658D01*
X118553046Y-109511654D01*
X118553045Y-109511652D01*
X118463347Y-109421954D01*
X118463344Y-109421952D01*
X118463342Y-109421950D01*
X118350304Y-109364354D01*
X118350303Y-109364353D01*
X118350300Y-109364352D01*
X118225003Y-109344508D01*
X118224997Y-109344508D01*
X118099699Y-109364352D01*
X118099698Y-109364352D01*
X118024337Y-109402751D01*
X117986658Y-109421950D01*
X117986657Y-109421951D01*
X117986652Y-109421954D01*
X117896954Y-109511652D01*
X117896951Y-109511657D01*
X117896950Y-109511658D01*
X117871477Y-109561652D01*
X117839353Y-109624698D01*
X117838778Y-109628329D01*
X117836855Y-109632384D01*
X117836337Y-109633980D01*
X117836130Y-109633912D01*
X117808848Y-109691463D01*
X117749537Y-109728394D01*
X117679674Y-109727396D01*
X117621442Y-109688786D01*
X117605820Y-109665225D01*
X117605376Y-109664354D01*
X117553050Y-109561658D01*
X117553046Y-109561654D01*
X117553045Y-109561652D01*
X117463347Y-109471954D01*
X117463344Y-109471952D01*
X117463342Y-109471950D01*
X117350304Y-109414354D01*
X117350303Y-109414353D01*
X117350300Y-109414352D01*
X117225003Y-109394508D01*
X117224997Y-109394508D01*
X117099699Y-109414352D01*
X117099698Y-109414352D01*
X117035723Y-109446950D01*
X116986658Y-109471950D01*
X116986657Y-109471951D01*
X116986652Y-109471954D01*
X116896954Y-109561652D01*
X116896951Y-109561657D01*
X116896950Y-109561658D01*
X116877836Y-109599172D01*
X116839352Y-109674698D01*
X116839352Y-109674699D01*
X116819508Y-109799996D01*
X116819508Y-109800003D01*
X116839352Y-109925300D01*
X116839352Y-109925301D01*
X116850385Y-109946954D01*
X116884112Y-110013147D01*
X116886339Y-110017516D01*
X116899235Y-110086185D01*
X116872959Y-110150926D01*
X116863537Y-110161490D01*
X116822795Y-110202233D01*
X116822794Y-110202234D01*
X116777415Y-110305006D01*
X116777415Y-110305008D01*
X116774500Y-110330131D01*
X116774500Y-111669856D01*
X116774502Y-111669882D01*
X116777413Y-111694987D01*
X116777415Y-111694991D01*
X116822793Y-111797764D01*
X116822794Y-111797765D01*
X116902235Y-111877206D01*
X117005009Y-111922585D01*
X117030135Y-111925500D01*
X117419864Y-111925499D01*
X117419879Y-111925497D01*
X117419882Y-111925497D01*
X117444987Y-111922586D01*
X117444988Y-111922585D01*
X117444991Y-111922585D01*
X117547765Y-111877206D01*
X117627206Y-111797765D01*
X117627206Y-111797764D01*
X117635331Y-111789640D01*
X117637749Y-111792058D01*
X117676810Y-111760165D01*
X117746230Y-111752249D01*
X117808910Y-111783121D01*
X117814609Y-111789699D01*
X117814669Y-111789640D01*
X117822794Y-111797765D01*
X117902235Y-111877206D01*
X118005009Y-111922585D01*
X118030135Y-111925500D01*
X118419864Y-111925499D01*
X118419879Y-111925497D01*
X118419882Y-111925497D01*
X118444987Y-111922586D01*
X118444988Y-111922585D01*
X118444991Y-111922585D01*
X118547765Y-111877206D01*
X118627206Y-111797765D01*
X118627206Y-111797764D01*
X118635331Y-111789640D01*
X118637749Y-111792058D01*
X118676810Y-111760165D01*
X118746230Y-111752249D01*
X118808910Y-111783121D01*
X118814609Y-111789699D01*
X118814669Y-111789640D01*
X118822794Y-111797765D01*
X118902235Y-111877206D01*
X119005009Y-111922585D01*
X119030135Y-111925500D01*
X119419864Y-111925499D01*
X119419879Y-111925497D01*
X119419882Y-111925497D01*
X119444987Y-111922586D01*
X119444988Y-111922585D01*
X119444991Y-111922585D01*
X119547765Y-111877206D01*
X119627206Y-111797765D01*
X119627206Y-111797764D01*
X119635331Y-111789640D01*
X119637749Y-111792058D01*
X119676810Y-111760165D01*
X119746230Y-111752249D01*
X119808910Y-111783121D01*
X119814609Y-111789699D01*
X119814669Y-111789640D01*
X119822794Y-111797765D01*
X119902235Y-111877206D01*
X120005009Y-111922585D01*
X120030135Y-111925500D01*
X120419864Y-111925499D01*
X120419879Y-111925497D01*
X120419882Y-111925497D01*
X120444987Y-111922586D01*
X120444988Y-111922585D01*
X120444991Y-111922585D01*
X120547765Y-111877206D01*
X120627206Y-111797765D01*
X120627206Y-111797764D01*
X120635331Y-111789640D01*
X120637749Y-111792058D01*
X120676810Y-111760165D01*
X120746230Y-111752249D01*
X120808910Y-111783121D01*
X120814609Y-111789699D01*
X120814669Y-111789640D01*
X120822794Y-111797765D01*
X120902235Y-111877206D01*
X121005009Y-111922585D01*
X121030135Y-111925500D01*
X121419864Y-111925499D01*
X121419879Y-111925497D01*
X121419882Y-111925497D01*
X121444987Y-111922586D01*
X121444988Y-111922585D01*
X121444991Y-111922585D01*
X121547765Y-111877206D01*
X121627206Y-111797765D01*
X121627206Y-111797764D01*
X121635331Y-111789640D01*
X121637749Y-111792058D01*
X121676810Y-111760165D01*
X121746230Y-111752249D01*
X121808910Y-111783121D01*
X121814609Y-111789699D01*
X121814669Y-111789640D01*
X121822794Y-111797765D01*
X121902235Y-111877206D01*
X122005009Y-111922585D01*
X122030135Y-111925500D01*
X122419864Y-111925499D01*
X122419879Y-111925497D01*
X122419882Y-111925497D01*
X122444987Y-111922586D01*
X122444988Y-111922585D01*
X122444991Y-111922585D01*
X122547765Y-111877206D01*
X122627206Y-111797765D01*
X122627206Y-111797764D01*
X122635331Y-111789640D01*
X122637749Y-111792058D01*
X122676810Y-111760165D01*
X122746230Y-111752249D01*
X122808910Y-111783121D01*
X122814609Y-111789699D01*
X122814669Y-111789640D01*
X122822794Y-111797765D01*
X122902235Y-111877206D01*
X123005009Y-111922585D01*
X123030135Y-111925500D01*
X123419864Y-111925499D01*
X123419879Y-111925497D01*
X123419882Y-111925497D01*
X123444987Y-111922586D01*
X123444988Y-111922585D01*
X123444991Y-111922585D01*
X123547765Y-111877206D01*
X123627206Y-111797765D01*
X123627206Y-111797764D01*
X123635331Y-111789640D01*
X123637749Y-111792058D01*
X123676810Y-111760165D01*
X123746230Y-111752249D01*
X123808910Y-111783121D01*
X123814609Y-111789699D01*
X123814669Y-111789640D01*
X123822794Y-111797765D01*
X123902235Y-111877206D01*
X124005009Y-111922585D01*
X124030135Y-111925500D01*
X124419864Y-111925499D01*
X124419879Y-111925497D01*
X124419882Y-111925497D01*
X124444987Y-111922586D01*
X124444988Y-111922585D01*
X124444991Y-111922585D01*
X124547765Y-111877206D01*
X124627206Y-111797765D01*
X124672585Y-111694991D01*
X124675500Y-111669865D01*
X124675499Y-110448020D01*
X124695184Y-110380982D01*
X124734340Y-110347052D01*
X124714859Y-110334135D01*
X124836530Y-110334135D01*
X124880702Y-110354308D01*
X124909984Y-110391726D01*
X124914353Y-110400301D01*
X124914354Y-110400304D01*
X124971950Y-110513342D01*
X124971952Y-110513344D01*
X124971954Y-110513347D01*
X125061652Y-110603045D01*
X125061654Y-110603046D01*
X125061658Y-110603050D01*
X125174696Y-110660646D01*
X125174697Y-110660646D01*
X125174699Y-110660647D01*
X125299997Y-110680492D01*
X125300000Y-110680492D01*
X125300003Y-110680492D01*
X125425300Y-110660647D01*
X125425301Y-110660647D01*
X125425302Y-110660646D01*
X125425304Y-110660646D01*
X125538342Y-110603050D01*
X125628050Y-110513342D01*
X125685646Y-110400304D01*
X125685646Y-110400302D01*
X125685647Y-110400301D01*
X125685647Y-110400300D01*
X125705492Y-110275003D01*
X125705492Y-110274996D01*
X125685647Y-110149699D01*
X125685647Y-110149698D01*
X125680882Y-110140346D01*
X125628050Y-110036658D01*
X125628046Y-110036654D01*
X125628045Y-110036652D01*
X125538347Y-109946954D01*
X125538344Y-109946952D01*
X125538342Y-109946950D01*
X125425304Y-109889354D01*
X125425303Y-109889353D01*
X125425300Y-109889352D01*
X125300003Y-109869508D01*
X125299997Y-109869508D01*
X125174699Y-109889352D01*
X125174698Y-109889352D01*
X125104131Y-109925309D01*
X125061658Y-109946950D01*
X125061657Y-109946951D01*
X125061652Y-109946954D01*
X124971954Y-110036652D01*
X124971951Y-110036657D01*
X124971950Y-110036658D01*
X124956993Y-110066012D01*
X124914352Y-110149698D01*
X124914352Y-110149699D01*
X124898278Y-110251189D01*
X124868349Y-110314324D01*
X124836530Y-110334135D01*
X124714859Y-110334135D01*
X124680942Y-110311647D01*
X124662374Y-110281883D01*
X124627206Y-110202235D01*
X124627204Y-110202233D01*
X124627204Y-110202232D01*
X124586463Y-110161491D01*
X124552979Y-110100168D01*
X124557964Y-110030476D01*
X124563661Y-110017516D01*
X124610646Y-109925304D01*
X124610646Y-109925302D01*
X124610647Y-109925300D01*
X124630492Y-109800003D01*
X124630492Y-109799996D01*
X124610647Y-109674699D01*
X124610647Y-109674698D01*
X124609431Y-109672311D01*
X124553050Y-109561658D01*
X124553046Y-109561654D01*
X124553045Y-109561652D01*
X124463347Y-109471954D01*
X124463344Y-109471952D01*
X124463342Y-109471950D01*
X124350304Y-109414354D01*
X124350303Y-109414353D01*
X124350300Y-109414352D01*
X124225003Y-109394508D01*
X124224997Y-109394508D01*
X124099699Y-109414352D01*
X124099698Y-109414352D01*
X124035723Y-109446950D01*
X123986658Y-109471950D01*
X123986657Y-109471951D01*
X123986652Y-109471954D01*
X123896954Y-109561652D01*
X123896949Y-109561659D01*
X123835484Y-109682290D01*
X123787510Y-109733085D01*
X123719689Y-109749880D01*
X123653554Y-109727342D01*
X123614516Y-109682290D01*
X123580150Y-109614845D01*
X123553050Y-109561658D01*
X123553047Y-109561655D01*
X123553045Y-109561652D01*
X123463347Y-109471954D01*
X123463344Y-109471952D01*
X123463342Y-109471950D01*
X123350304Y-109414354D01*
X123350303Y-109414353D01*
X123350300Y-109414352D01*
X123225003Y-109394508D01*
X123224997Y-109394508D01*
X123099699Y-109414352D01*
X123099698Y-109414352D01*
X123035723Y-109446950D01*
X122986658Y-109471950D01*
X122986657Y-109471951D01*
X122986652Y-109471954D01*
X122896954Y-109561652D01*
X122896949Y-109561659D01*
X122840568Y-109672312D01*
X122792594Y-109723107D01*
X122724773Y-109739902D01*
X122658638Y-109717364D01*
X122615187Y-109662649D01*
X122612153Y-109654335D01*
X122610646Y-109649701D01*
X122610646Y-109649696D01*
X122553050Y-109536658D01*
X122553046Y-109536654D01*
X122553045Y-109536652D01*
X122463347Y-109446954D01*
X122463344Y-109446952D01*
X122463342Y-109446950D01*
X122350304Y-109389354D01*
X122350303Y-109389353D01*
X122350300Y-109389352D01*
X122225003Y-109369508D01*
X122224997Y-109369508D01*
X122099699Y-109389352D01*
X122099698Y-109389352D01*
X122035723Y-109421950D01*
X121986658Y-109446950D01*
X121986657Y-109446951D01*
X121986652Y-109446954D01*
X121896954Y-109536652D01*
X121896951Y-109536657D01*
X121896950Y-109536658D01*
X121866986Y-109595463D01*
X121839351Y-109649701D01*
X121837843Y-109654343D01*
X121798402Y-109712015D01*
X121734041Y-109739209D01*
X121665196Y-109727289D01*
X121613723Y-109680042D01*
X121609431Y-109672312D01*
X121553050Y-109561658D01*
X121553046Y-109561654D01*
X121553045Y-109561652D01*
X121463347Y-109471954D01*
X121463344Y-109471952D01*
X121463342Y-109471950D01*
X121350304Y-109414354D01*
X121350302Y-109414353D01*
X121347120Y-109412732D01*
X121296324Y-109364757D01*
X121279529Y-109296936D01*
X121302067Y-109230801D01*
X121315727Y-109214574D01*
X121793483Y-108736819D01*
X121854806Y-108703334D01*
X121881164Y-108700500D01*
X123360656Y-108700500D01*
X123384846Y-108702882D01*
X123400000Y-108705897D01*
X123427132Y-108700500D01*
X123427133Y-108700500D01*
X123450734Y-108695805D01*
X123507493Y-108684516D01*
X123507493Y-108684515D01*
X123507495Y-108684515D01*
X123549465Y-108656471D01*
X123575622Y-108638994D01*
X123575622Y-108638993D01*
X123589047Y-108630024D01*
X123589052Y-108630019D01*
X123598624Y-108623624D01*
X123607211Y-108610772D01*
X123622624Y-108591991D01*
X124466990Y-107747624D01*
X124485774Y-107732209D01*
X124498624Y-107723624D01*
X124514612Y-107699698D01*
X124514615Y-107699694D01*
X124549856Y-107646951D01*
X124559515Y-107632495D01*
X124559515Y-107632494D01*
X124560724Y-107630685D01*
X124567115Y-107625343D01*
X124565047Y-107604718D01*
X124565299Y-107603415D01*
X124565738Y-107601211D01*
X124572044Y-107569508D01*
X124575500Y-107552133D01*
X124575500Y-107552132D01*
X124580897Y-107525000D01*
X124577883Y-107509847D01*
X124575500Y-107485655D01*
X124575500Y-106519478D01*
X124595185Y-106452439D01*
X124647989Y-106406684D01*
X124717147Y-106396740D01*
X124780703Y-106425765D01*
X124787181Y-106431797D01*
X124803181Y-106447797D01*
X124836666Y-106509120D01*
X124839500Y-106535478D01*
X124839500Y-106813365D01*
X124839502Y-106813388D01*
X124842317Y-106837659D01*
X124842318Y-106837662D01*
X124886186Y-106937015D01*
X124886187Y-106937016D01*
X124962984Y-107013813D01*
X125062338Y-107057682D01*
X125086627Y-107060500D01*
X125289520Y-107060499D01*
X125356560Y-107080183D01*
X125377202Y-107096818D01*
X125493203Y-107212819D01*
X125526688Y-107274142D01*
X125521704Y-107343834D01*
X125479832Y-107399767D01*
X125414368Y-107424184D01*
X125405522Y-107424500D01*
X125143482Y-107424500D01*
X125062519Y-107437323D01*
X125049696Y-107439354D01*
X124936658Y-107496950D01*
X124936657Y-107496951D01*
X124936652Y-107496954D01*
X124846954Y-107586652D01*
X124846949Y-107586659D01*
X124797400Y-107683903D01*
X124785079Y-107696947D01*
X124786300Y-107718972D01*
X124774500Y-107793475D01*
X124774500Y-109156517D01*
X124780996Y-109197531D01*
X124789354Y-109250304D01*
X124846950Y-109363342D01*
X124846952Y-109363344D01*
X124846954Y-109363347D01*
X124936652Y-109453045D01*
X124936654Y-109453046D01*
X124936658Y-109453050D01*
X125049694Y-109510645D01*
X125049698Y-109510647D01*
X125143475Y-109525499D01*
X125143481Y-109525500D01*
X125906518Y-109525499D01*
X126000304Y-109510646D01*
X126113342Y-109453050D01*
X126203050Y-109363342D01*
X126260646Y-109250304D01*
X126260646Y-109250302D01*
X126260647Y-109250301D01*
X126275499Y-109156524D01*
X126275500Y-109156519D01*
X126275499Y-108139476D01*
X126295183Y-108072438D01*
X126347987Y-108026683D01*
X126417146Y-108016739D01*
X126480702Y-108045764D01*
X126487180Y-108051796D01*
X127102369Y-108666985D01*
X127117790Y-108685775D01*
X127126373Y-108698621D01*
X127126374Y-108698621D01*
X127126376Y-108698624D01*
X127149376Y-108713992D01*
X127149378Y-108713994D01*
X127175534Y-108731471D01*
X127217505Y-108759515D01*
X127217507Y-108759515D01*
X127217507Y-108759516D01*
X127303832Y-108776687D01*
X127303839Y-108776687D01*
X127325000Y-108780897D01*
X127340153Y-108777882D01*
X127364344Y-108775500D01*
X127597867Y-108775500D01*
X127810656Y-108775500D01*
X127834846Y-108777882D01*
X127850000Y-108780897D01*
X127877132Y-108775500D01*
X127877133Y-108775500D01*
X127900734Y-108770805D01*
X127957493Y-108759516D01*
X127957493Y-108759515D01*
X127957495Y-108759515D01*
X127999465Y-108731471D01*
X128025622Y-108713994D01*
X128025622Y-108713993D01*
X128039051Y-108705021D01*
X128039053Y-108705018D01*
X128048624Y-108698624D01*
X128057208Y-108685775D01*
X128072619Y-108666995D01*
X128313994Y-108425622D01*
X128327797Y-108411819D01*
X128389120Y-108378334D01*
X128415478Y-108375500D01*
X129222867Y-108375500D01*
X129610656Y-108375500D01*
X129634846Y-108377882D01*
X129650000Y-108380897D01*
X129677132Y-108375500D01*
X129677133Y-108375500D01*
X129684819Y-108373970D01*
X129728413Y-108373113D01*
X129775000Y-108380492D01*
X129775003Y-108380492D01*
X129900300Y-108360647D01*
X129900301Y-108360647D01*
X129900302Y-108360646D01*
X129900304Y-108360646D01*
X130013342Y-108303050D01*
X130103050Y-108213342D01*
X130160646Y-108100304D01*
X130160646Y-108100302D01*
X130160647Y-108100301D01*
X130160647Y-108100300D01*
X130180492Y-107975003D01*
X130180492Y-107974996D01*
X130160647Y-107849699D01*
X130160647Y-107849698D01*
X130155764Y-107840115D01*
X130103050Y-107736658D01*
X130103046Y-107736654D01*
X130103045Y-107736652D01*
X130013347Y-107646954D01*
X130013344Y-107646952D01*
X130013342Y-107646950D01*
X129900304Y-107589354D01*
X129900303Y-107589353D01*
X129900300Y-107589352D01*
X129775003Y-107569508D01*
X129774997Y-107569508D01*
X129649699Y-107589352D01*
X129649698Y-107589352D01*
X129579064Y-107625343D01*
X129536658Y-107646950D01*
X129536657Y-107646951D01*
X129536652Y-107646954D01*
X129446954Y-107736652D01*
X129446949Y-107736659D01*
X129436689Y-107756796D01*
X129388714Y-107807591D01*
X129326205Y-107824500D01*
X128289344Y-107824500D01*
X128265148Y-107822116D01*
X128247576Y-107818620D01*
X128185666Y-107786233D01*
X128151094Y-107725516D01*
X128150322Y-107682062D01*
X128149520Y-107682015D01*
X128149521Y-107681998D01*
X128150224Y-107676516D01*
X128150158Y-107672798D01*
X128151684Y-107665130D01*
X128151687Y-107665107D01*
X128155896Y-107643947D01*
X128152882Y-107628792D01*
X128150500Y-107604604D01*
X128150500Y-107479897D01*
X128170185Y-107412858D01*
X128222989Y-107367103D01*
X128263043Y-107358389D01*
X128263022Y-107358280D01*
X128269139Y-107357063D01*
X128274500Y-107355897D01*
X128275002Y-107355897D01*
X128373550Y-107336294D01*
X128382494Y-107334515D01*
X128450622Y-107288994D01*
X128858716Y-106880898D01*
X128920035Y-106847416D01*
X128965788Y-106846109D01*
X129025004Y-106855488D01*
X129025004Y-106855487D01*
X129025005Y-106855488D01*
X129025007Y-106855488D01*
X129150304Y-106835643D01*
X129150305Y-106835643D01*
X129150306Y-106835642D01*
X129150308Y-106835642D01*
X129263346Y-106778046D01*
X129264894Y-106776498D01*
X129279578Y-106761815D01*
X129340901Y-106728330D01*
X129367259Y-106725496D01*
X130295660Y-106725496D01*
X130319850Y-106727878D01*
X130335004Y-106730893D01*
X130362136Y-106725496D01*
X130362137Y-106725496D01*
X130442499Y-106709511D01*
X130496459Y-106673456D01*
X130510626Y-106663990D01*
X130510626Y-106663989D01*
X130524033Y-106655031D01*
X130524036Y-106655028D01*
X130533628Y-106648620D01*
X130542215Y-106635768D01*
X130557628Y-106616987D01*
X131067797Y-106106817D01*
X131129120Y-106073333D01*
X131155478Y-106070499D01*
X131362616Y-106070499D01*
X131362622Y-106070499D01*
X131386498Y-106067730D01*
X131484135Y-106024619D01*
X131484136Y-106024618D01*
X131484141Y-106024616D01*
X131559616Y-105949141D01*
X131602730Y-105851498D01*
X131605500Y-105827623D01*
X131605499Y-105372378D01*
X131602730Y-105348502D01*
X131602577Y-105348155D01*
X131559619Y-105250864D01*
X131559617Y-105250861D01*
X131559616Y-105250859D01*
X131484141Y-105175384D01*
X131484138Y-105175383D01*
X131484136Y-105175381D01*
X131386500Y-105132270D01*
X131386501Y-105132270D01*
X131362623Y-105129500D01*
X131007384Y-105129500D01*
X131007361Y-105129502D01*
X130983504Y-105132269D01*
X130983501Y-105132269D01*
X130885864Y-105175380D01*
X130885856Y-105175386D01*
X130810386Y-105250856D01*
X130810380Y-105250866D01*
X130788432Y-105300571D01*
X130743345Y-105353947D01*
X130676559Y-105374473D01*
X130609277Y-105355634D01*
X130562862Y-105303409D01*
X130561590Y-105300624D01*
X130539616Y-105250859D01*
X130464141Y-105175384D01*
X130464138Y-105175383D01*
X130464136Y-105175381D01*
X130366500Y-105132270D01*
X130366501Y-105132270D01*
X130342623Y-105129500D01*
X129987384Y-105129500D01*
X129987361Y-105129502D01*
X129963504Y-105132269D01*
X129963501Y-105132270D01*
X129867549Y-105174637D01*
X129798271Y-105183709D01*
X129735086Y-105153885D01*
X129706978Y-105117498D01*
X129701427Y-105106603D01*
X129653050Y-105011658D01*
X129653046Y-105011654D01*
X129653045Y-105011652D01*
X129563347Y-104921954D01*
X129563344Y-104921952D01*
X129563342Y-104921950D01*
X129450304Y-104864354D01*
X129450303Y-104864353D01*
X129450300Y-104864352D01*
X129325003Y-104844508D01*
X129324997Y-104844508D01*
X129199699Y-104864352D01*
X129199698Y-104864352D01*
X129086654Y-104921952D01*
X129086428Y-104922117D01*
X129086106Y-104922231D01*
X129077963Y-104926381D01*
X129077426Y-104925328D01*
X129020620Y-104945592D01*
X128952567Y-104929763D01*
X128925868Y-104909475D01*
X128911819Y-104895426D01*
X128878334Y-104834103D01*
X128875500Y-104807745D01*
X128875500Y-104189344D01*
X128877883Y-104165151D01*
X128880897Y-104149999D01*
X128880897Y-104149997D01*
X128859516Y-104042507D01*
X128841593Y-104015683D01*
X128813994Y-103974378D01*
X128813992Y-103974376D01*
X128798624Y-103951376D01*
X128798621Y-103951374D01*
X128798621Y-103951373D01*
X128785775Y-103942790D01*
X128766985Y-103927369D01*
X128516796Y-103677180D01*
X128483311Y-103615857D01*
X128488295Y-103546165D01*
X128530167Y-103490232D01*
X128595631Y-103465815D01*
X128604461Y-103465499D01*
X128852622Y-103465499D01*
X128876498Y-103462730D01*
X128974135Y-103419619D01*
X128974136Y-103419618D01*
X128974141Y-103419616D01*
X129049616Y-103344141D01*
X129092730Y-103246498D01*
X129095500Y-103222623D01*
X129095500Y-103089822D01*
X131199499Y-103089822D01*
X131208231Y-103133717D01*
X131208234Y-103133724D01*
X131241495Y-103183503D01*
X131241496Y-103183504D01*
X131291278Y-103216767D01*
X131291281Y-103216767D01*
X131291282Y-103216768D01*
X131335177Y-103225500D01*
X131335180Y-103225500D01*
X132164822Y-103225500D01*
X132208717Y-103216768D01*
X132208717Y-103216767D01*
X132208722Y-103216767D01*
X132258504Y-103183504D01*
X132291767Y-103133722D01*
X132300500Y-103089820D01*
X132300500Y-102060180D01*
X132300500Y-102060177D01*
X132291768Y-102016282D01*
X132291767Y-102016281D01*
X132291767Y-102016278D01*
X132258504Y-101966496D01*
X132258503Y-101966495D01*
X132208724Y-101933234D01*
X132208717Y-101933231D01*
X132164822Y-101924500D01*
X132164820Y-101924500D01*
X131335180Y-101924500D01*
X131335178Y-101924500D01*
X131291282Y-101933231D01*
X131291275Y-101933234D01*
X131241496Y-101966495D01*
X131241495Y-101966496D01*
X131208234Y-102016275D01*
X131208231Y-102016282D01*
X131199500Y-102060177D01*
X131199500Y-102060180D01*
X131199500Y-103089820D01*
X131199500Y-103089822D01*
X131199499Y-103089822D01*
X129095500Y-103089822D01*
X129095499Y-102867378D01*
X129092730Y-102843502D01*
X129092730Y-102843501D01*
X129049619Y-102745864D01*
X129049617Y-102745861D01*
X129049616Y-102745859D01*
X128974141Y-102670384D01*
X128947181Y-102658480D01*
X128924428Y-102648433D01*
X128871053Y-102603346D01*
X128850526Y-102536560D01*
X128869365Y-102469278D01*
X128921589Y-102422862D01*
X128924344Y-102421603D01*
X128974141Y-102399616D01*
X129049616Y-102324141D01*
X129049619Y-102324135D01*
X129078577Y-102258552D01*
X129123663Y-102205175D01*
X129190449Y-102184648D01*
X129257731Y-102203486D01*
X129267479Y-102210249D01*
X129309767Y-102242698D01*
X129309769Y-102242699D01*
X129330270Y-102251190D01*
X129449764Y-102300687D01*
X129562280Y-102315500D01*
X129562287Y-102315500D01*
X129637713Y-102315500D01*
X129637720Y-102315500D01*
X129750236Y-102300687D01*
X129890233Y-102242698D01*
X130010451Y-102150451D01*
X130102698Y-102030233D01*
X130160687Y-101890236D01*
X130175408Y-101778417D01*
X130203674Y-101714521D01*
X130261999Y-101676050D01*
X130322538Y-101672986D01*
X130335175Y-101675499D01*
X130335178Y-101675500D01*
X130335180Y-101675500D01*
X131864822Y-101675500D01*
X131908717Y-101666768D01*
X131908717Y-101666767D01*
X131908722Y-101666767D01*
X131958504Y-101633504D01*
X131991767Y-101583722D01*
X131996157Y-101561652D01*
X132000500Y-101539822D01*
X132000500Y-100816849D01*
X132020067Y-100750209D01*
X131996237Y-100745706D01*
X131964973Y-100722965D01*
X131958503Y-100716495D01*
X131908724Y-100683234D01*
X131908717Y-100683231D01*
X131864822Y-100674500D01*
X131864820Y-100674500D01*
X131624500Y-100674500D01*
X131557461Y-100654815D01*
X131511706Y-100602011D01*
X131500500Y-100550500D01*
X131500500Y-100510057D01*
X132149500Y-100510057D01*
X132173051Y-100605610D01*
X132169982Y-100675412D01*
X132153201Y-100699159D01*
X132205703Y-100723136D01*
X132234294Y-100759219D01*
X132269266Y-100825852D01*
X132382071Y-100953183D01*
X132454033Y-101002855D01*
X132522068Y-101049817D01*
X132522069Y-101049817D01*
X132522070Y-101049818D01*
X132681128Y-101110140D01*
X132757028Y-101119356D01*
X132807626Y-101125500D01*
X132807628Y-101125500D01*
X132892374Y-101125500D01*
X132934538Y-101120380D01*
X133018872Y-101110140D01*
X133177930Y-101049818D01*
X133317929Y-100953183D01*
X133430734Y-100825852D01*
X133435460Y-100816849D01*
X133474574Y-100742322D01*
X133509790Y-100675225D01*
X133550500Y-100510056D01*
X133550500Y-100339944D01*
X133509790Y-100174775D01*
X133505137Y-100165910D01*
X133430736Y-100024150D01*
X133407559Y-99997989D01*
X133317929Y-99896817D01*
X133229495Y-99835775D01*
X133177931Y-99800182D01*
X133018874Y-99739860D01*
X133018868Y-99739859D01*
X132892374Y-99724500D01*
X132892372Y-99724500D01*
X132807628Y-99724500D01*
X132807626Y-99724500D01*
X132681131Y-99739859D01*
X132681125Y-99739860D01*
X132522068Y-99800182D01*
X132384057Y-99895446D01*
X132382071Y-99896817D01*
X132378982Y-99900304D01*
X132269263Y-100024150D01*
X132190210Y-100174773D01*
X132149500Y-100339944D01*
X132149500Y-100510057D01*
X131500500Y-100510057D01*
X131500500Y-100286568D01*
X131500500Y-100286567D01*
X131493652Y-100265491D01*
X131489111Y-100246578D01*
X131485646Y-100224696D01*
X131475588Y-100204958D01*
X131468140Y-100186976D01*
X131466695Y-100182528D01*
X131461296Y-100165910D01*
X131448271Y-100147982D01*
X131438106Y-100131394D01*
X131428049Y-100111656D01*
X131409825Y-100093433D01*
X131409815Y-100093422D01*
X131350907Y-100034514D01*
X131283334Y-99966941D01*
X131249851Y-99905621D01*
X131248080Y-99895461D01*
X131236343Y-99806304D01*
X131181881Y-99674819D01*
X131180875Y-99672390D01*
X131180874Y-99672389D01*
X131180874Y-99672388D01*
X131092634Y-99557392D01*
X130977638Y-99469152D01*
X130977637Y-99469151D01*
X130977635Y-99469150D01*
X130843725Y-99413684D01*
X130843723Y-99413683D01*
X130843722Y-99413683D01*
X130770698Y-99404069D01*
X130700014Y-99394763D01*
X130700012Y-99394763D01*
X130556304Y-99413683D01*
X130556300Y-99413684D01*
X130422390Y-99469150D01*
X130307392Y-99557392D01*
X130219150Y-99672390D01*
X130163684Y-99806300D01*
X130163683Y-99806304D01*
X130143702Y-99958071D01*
X130140372Y-99957632D01*
X130125078Y-100009718D01*
X130095931Y-100034973D01*
X130147133Y-100068921D01*
X130166832Y-100101326D01*
X130219150Y-100227634D01*
X130219152Y-100227638D01*
X130307392Y-100342634D01*
X130422388Y-100430874D01*
X130434616Y-100435939D01*
X130489019Y-100479779D01*
X130511085Y-100546072D01*
X130493807Y-100613772D01*
X130442670Y-100661383D01*
X130387164Y-100674500D01*
X130335178Y-100674500D01*
X130291282Y-100683231D01*
X130291275Y-100683234D01*
X130241496Y-100716495D01*
X130241495Y-100716496D01*
X130208234Y-100766275D01*
X130208231Y-100766282D01*
X130199500Y-100810177D01*
X130199500Y-101223164D01*
X130179815Y-101290203D01*
X130127011Y-101335958D01*
X130057853Y-101345902D01*
X130000014Y-101321540D01*
X129890233Y-101237302D01*
X129890230Y-101237300D01*
X129782994Y-101192882D01*
X129750236Y-101179313D01*
X129736171Y-101177461D01*
X129637727Y-101164500D01*
X129637720Y-101164500D01*
X129562280Y-101164500D01*
X129562272Y-101164500D01*
X129449764Y-101179313D01*
X129449763Y-101179313D01*
X129309769Y-101237300D01*
X129302732Y-101241364D01*
X129302059Y-101240199D01*
X129244810Y-101262330D01*
X129176365Y-101248288D01*
X129126378Y-101199472D01*
X129110498Y-101138761D01*
X129110498Y-100911628D01*
X129107681Y-100887338D01*
X129063812Y-100787984D01*
X128987015Y-100711187D01*
X128962553Y-100700386D01*
X128887662Y-100667318D01*
X128863372Y-100664500D01*
X128496633Y-100664500D01*
X128496610Y-100664502D01*
X128472339Y-100667317D01*
X128472336Y-100667318D01*
X128372983Y-100711186D01*
X128296186Y-100787983D01*
X128252317Y-100887335D01*
X128252317Y-100887337D01*
X128249499Y-100911625D01*
X128249499Y-101338365D01*
X128249501Y-101338388D01*
X128252316Y-101362658D01*
X128252317Y-101362662D01*
X128296185Y-101462015D01*
X128302680Y-101471496D01*
X128301039Y-101472619D01*
X128327607Y-101521275D01*
X128322623Y-101590967D01*
X128280751Y-101646900D01*
X128276520Y-101649931D01*
X128275859Y-101650383D01*
X128200386Y-101725856D01*
X128200381Y-101725863D01*
X128157270Y-101823499D01*
X128154500Y-101847375D01*
X128154500Y-102202615D01*
X128154502Y-102202638D01*
X128157269Y-102226495D01*
X128157269Y-102226498D01*
X128200380Y-102324135D01*
X128200383Y-102324139D01*
X128200384Y-102324141D01*
X128275859Y-102399616D01*
X128313574Y-102416269D01*
X128325570Y-102421566D01*
X128378946Y-102466652D01*
X128399473Y-102533438D01*
X128380634Y-102600720D01*
X128328411Y-102647137D01*
X128325570Y-102648434D01*
X128275863Y-102670382D01*
X128275861Y-102670382D01*
X128275859Y-102670384D01*
X128275857Y-102670385D01*
X128275855Y-102670387D01*
X128237680Y-102708562D01*
X128176357Y-102742046D01*
X128106665Y-102737061D01*
X128062320Y-102708562D01*
X128024144Y-102670387D01*
X128024143Y-102670386D01*
X128024141Y-102670384D01*
X128024138Y-102670382D01*
X128024136Y-102670381D01*
X127926500Y-102627270D01*
X127926501Y-102627270D01*
X127902623Y-102624500D01*
X127447384Y-102624500D01*
X127447361Y-102624502D01*
X127423504Y-102627269D01*
X127423501Y-102627269D01*
X127325864Y-102670380D01*
X127325856Y-102670386D01*
X127250386Y-102745856D01*
X127250380Y-102745864D01*
X127226219Y-102800586D01*
X127181133Y-102853963D01*
X127114347Y-102874490D01*
X127112785Y-102874500D01*
X126199500Y-102874500D01*
X126132461Y-102854815D01*
X126086706Y-102802011D01*
X126075500Y-102750500D01*
X126075500Y-101650472D01*
X126095185Y-101583433D01*
X126147989Y-101537678D01*
X126149273Y-101537100D01*
X126202015Y-101513813D01*
X126278812Y-101437016D01*
X126322681Y-101337662D01*
X126325499Y-101313373D01*
X126325498Y-100886628D01*
X126322681Y-100862338D01*
X126297138Y-100804490D01*
X126288067Y-100735213D01*
X126317890Y-100672028D01*
X126322891Y-100666725D01*
X126377645Y-100611970D01*
X126438968Y-100578484D01*
X126445894Y-100577182D01*
X126550304Y-100560646D01*
X126663342Y-100503050D01*
X126753050Y-100413342D01*
X126810646Y-100300304D01*
X126810646Y-100300302D01*
X126810647Y-100300301D01*
X126810647Y-100300300D01*
X126830492Y-100175003D01*
X126830492Y-100174996D01*
X126810647Y-100049699D01*
X126810647Y-100049698D01*
X126802910Y-100034514D01*
X126753050Y-99936658D01*
X126753046Y-99936654D01*
X126753045Y-99936652D01*
X126666574Y-99850181D01*
X126633089Y-99788858D01*
X126638073Y-99719166D01*
X126666574Y-99674819D01*
X126678045Y-99663347D01*
X126678050Y-99663342D01*
X126735646Y-99550304D01*
X126735646Y-99550302D01*
X126735647Y-99550301D01*
X126735647Y-99550300D01*
X126755492Y-99425003D01*
X126755492Y-99424996D01*
X126735647Y-99299699D01*
X126735647Y-99299698D01*
X126723317Y-99275500D01*
X126678050Y-99186658D01*
X126678046Y-99186654D01*
X126678045Y-99186652D01*
X126588347Y-99096954D01*
X126588344Y-99096952D01*
X126588342Y-99096950D01*
X126475304Y-99039354D01*
X126475303Y-99039353D01*
X126475300Y-99039352D01*
X126350003Y-99019508D01*
X126349997Y-99019508D01*
X126224699Y-99039352D01*
X126224698Y-99039352D01*
X126149337Y-99077751D01*
X126111658Y-99096950D01*
X126111657Y-99096951D01*
X126111652Y-99096954D01*
X126021954Y-99186652D01*
X126021951Y-99186657D01*
X126021950Y-99186658D01*
X126012790Y-99204635D01*
X125964352Y-99299698D01*
X125964352Y-99299699D01*
X125947822Y-99404069D01*
X125917893Y-99467204D01*
X125913030Y-99472352D01*
X124813010Y-100572372D01*
X124794222Y-100587791D01*
X124781376Y-100596374D01*
X124766005Y-100619379D01*
X124766003Y-100619383D01*
X124761642Y-100625909D01*
X124708631Y-100670447D01*
X124672986Y-100686186D01*
X124672981Y-100686189D01*
X124596187Y-100762983D01*
X124552318Y-100862335D01*
X124552318Y-100862337D01*
X124549500Y-100886625D01*
X124549500Y-101284535D01*
X124529815Y-101351574D01*
X124477011Y-101397329D01*
X124449722Y-101406146D01*
X124444877Y-101407111D01*
X124420655Y-101409500D01*
X123904348Y-101409500D01*
X123880159Y-101407118D01*
X123865000Y-101404103D01*
X123864999Y-101404103D01*
X123862590Y-101404582D01*
X123819005Y-101405437D01*
X123750002Y-101394508D01*
X123749997Y-101394508D01*
X123624699Y-101414352D01*
X123624698Y-101414352D01*
X123578394Y-101437946D01*
X123511658Y-101471950D01*
X123511657Y-101471951D01*
X123511652Y-101471954D01*
X123421954Y-101561652D01*
X123421951Y-101561657D01*
X123421950Y-101561658D01*
X123410708Y-101583722D01*
X123364352Y-101674698D01*
X123346973Y-101784433D01*
X123341234Y-101796538D01*
X123343477Y-101800029D01*
X123346973Y-101815567D01*
X123364352Y-101925300D01*
X123364352Y-101925301D01*
X123374139Y-101944508D01*
X123421950Y-102038342D01*
X123421952Y-102038344D01*
X123421954Y-102038347D01*
X123511652Y-102128045D01*
X123511654Y-102128046D01*
X123511658Y-102128050D01*
X123624696Y-102185646D01*
X123624697Y-102185646D01*
X123624699Y-102185647D01*
X123749997Y-102205492D01*
X123750000Y-102205492D01*
X123750003Y-102205492D01*
X123875300Y-102185647D01*
X123875301Y-102185647D01*
X123875302Y-102185646D01*
X123875304Y-102185646D01*
X123988342Y-102128050D01*
X124078050Y-102038342D01*
X124083215Y-102028204D01*
X124131190Y-101977409D01*
X124193700Y-101960500D01*
X124294521Y-101960500D01*
X124361560Y-101980185D01*
X124382202Y-101996819D01*
X124488181Y-102102798D01*
X124521666Y-102164121D01*
X124524500Y-102190479D01*
X124524500Y-102758484D01*
X124536857Y-102820609D01*
X124564318Y-102861706D01*
X124583935Y-102891065D01*
X124626169Y-102919285D01*
X124654390Y-102938142D01*
X124716515Y-102950499D01*
X124716519Y-102950500D01*
X124716520Y-102950500D01*
X124883481Y-102950500D01*
X124883482Y-102950499D01*
X124945609Y-102938142D01*
X124981110Y-102914421D01*
X125047784Y-102893543D01*
X125115165Y-102912026D01*
X125118850Y-102914394D01*
X125154391Y-102938142D01*
X125216515Y-102950499D01*
X125216519Y-102950500D01*
X125216520Y-102950500D01*
X125383481Y-102950500D01*
X125383482Y-102950499D01*
X125445609Y-102938142D01*
X125481110Y-102914421D01*
X125547784Y-102893543D01*
X125615165Y-102912026D01*
X125618850Y-102914394D01*
X125654391Y-102938142D01*
X125716515Y-102950499D01*
X125716519Y-102950500D01*
X125875500Y-102950500D01*
X125942539Y-102970185D01*
X125988294Y-103022989D01*
X125999500Y-103074500D01*
X125999500Y-103233484D01*
X126011857Y-103295609D01*
X126035578Y-103331109D01*
X126056456Y-103397786D01*
X126037972Y-103465166D01*
X126035578Y-103468891D01*
X126011857Y-103504390D01*
X125999500Y-103566515D01*
X125999500Y-103733484D01*
X126011857Y-103795608D01*
X126035578Y-103831109D01*
X126056456Y-103897786D01*
X126037972Y-103965166D01*
X126035578Y-103968891D01*
X126011857Y-104004390D01*
X125999500Y-104066515D01*
X125999500Y-104233484D01*
X126011857Y-104295609D01*
X126035578Y-104331109D01*
X126056456Y-104397786D01*
X126037972Y-104465166D01*
X126035578Y-104468891D01*
X126011857Y-104504390D01*
X125999500Y-104566515D01*
X125999500Y-104725500D01*
X125979815Y-104792539D01*
X125927011Y-104838294D01*
X125875500Y-104849500D01*
X125716515Y-104849500D01*
X125654390Y-104861857D01*
X125583935Y-104908935D01*
X125536857Y-104979390D01*
X125524500Y-105041515D01*
X125524500Y-105348155D01*
X125522117Y-105372347D01*
X125521418Y-105375864D01*
X125519103Y-105387500D01*
X125519271Y-105388347D01*
X125522117Y-105402651D01*
X125524500Y-105426844D01*
X125524500Y-105733484D01*
X125536857Y-105795609D01*
X125559315Y-105829219D01*
X125583935Y-105866065D01*
X125619041Y-105889522D01*
X125654390Y-105913142D01*
X125716515Y-105925499D01*
X125716519Y-105925500D01*
X125716520Y-105925500D01*
X125883481Y-105925500D01*
X125883482Y-105925499D01*
X125945609Y-105913142D01*
X126016065Y-105866065D01*
X126016065Y-105866064D01*
X126026219Y-105859280D01*
X126028699Y-105862992D01*
X126068776Y-105841008D01*
X126138477Y-105845858D01*
X126183049Y-105874442D01*
X126211652Y-105903045D01*
X126211654Y-105903046D01*
X126211658Y-105903050D01*
X126324696Y-105960646D01*
X126324697Y-105960646D01*
X126324699Y-105960647D01*
X126449997Y-105980492D01*
X126450000Y-105980492D01*
X126450003Y-105980492D01*
X126575300Y-105960647D01*
X126575301Y-105960647D01*
X126575302Y-105960646D01*
X126575304Y-105960646D01*
X126688342Y-105903050D01*
X126778050Y-105813342D01*
X126835646Y-105700304D01*
X126835646Y-105700302D01*
X126835647Y-105700301D01*
X126835647Y-105700300D01*
X126855492Y-105575003D01*
X126855492Y-105574996D01*
X126835647Y-105449699D01*
X126835647Y-105449698D01*
X126820829Y-105420617D01*
X126778050Y-105336658D01*
X126778046Y-105336654D01*
X126778045Y-105336652D01*
X126768574Y-105327181D01*
X126735089Y-105265858D01*
X126740073Y-105196166D01*
X126781945Y-105140233D01*
X126847409Y-105115816D01*
X126856255Y-105115500D01*
X127150382Y-105115500D01*
X127217421Y-105135185D01*
X127238063Y-105151819D01*
X127300859Y-105214615D01*
X127300862Y-105214616D01*
X127300863Y-105214617D01*
X127398499Y-105257728D01*
X127398500Y-105257728D01*
X127398502Y-105257729D01*
X127422377Y-105260499D01*
X127877622Y-105260498D01*
X127901498Y-105257729D01*
X127999135Y-105214618D01*
X127999135Y-105214617D01*
X127999141Y-105214615D01*
X128004545Y-105209210D01*
X128065864Y-105175725D01*
X128135556Y-105180707D01*
X128191491Y-105222576D01*
X128210031Y-105266444D01*
X128211337Y-105266020D01*
X128214352Y-105275301D01*
X128226487Y-105299116D01*
X128271950Y-105388342D01*
X128271952Y-105388344D01*
X128271954Y-105388347D01*
X128361652Y-105478045D01*
X128361654Y-105478046D01*
X128361658Y-105478050D01*
X128474696Y-105535646D01*
X128474697Y-105535646D01*
X128474699Y-105535647D01*
X128599997Y-105555492D01*
X128600000Y-105555492D01*
X128600003Y-105555492D01*
X128725300Y-105535647D01*
X128725301Y-105535647D01*
X128725302Y-105535646D01*
X128725304Y-105535646D01*
X128838342Y-105478050D01*
X128838350Y-105478041D01*
X128838557Y-105477892D01*
X128838870Y-105477780D01*
X128847037Y-105473619D01*
X128847574Y-105474673D01*
X128904362Y-105454408D01*
X128972417Y-105470228D01*
X128999131Y-105490524D01*
X129086652Y-105578045D01*
X129086654Y-105578046D01*
X129086658Y-105578050D01*
X129199696Y-105635646D01*
X129304071Y-105652177D01*
X129367204Y-105682106D01*
X129372353Y-105686969D01*
X129452370Y-105766986D01*
X129467790Y-105785775D01*
X129476376Y-105798624D01*
X129494304Y-105810603D01*
X129494312Y-105810609D01*
X129499377Y-105813993D01*
X129499378Y-105813994D01*
X129502938Y-105816373D01*
X129516597Y-105825499D01*
X129516597Y-105825500D01*
X129567503Y-105859514D01*
X129567507Y-105859516D01*
X129653832Y-105876687D01*
X129653839Y-105876687D01*
X129675000Y-105880897D01*
X129675001Y-105880896D01*
X129675002Y-105880897D01*
X129679453Y-105880897D01*
X129746492Y-105900582D01*
X129781670Y-105941180D01*
X129783890Y-105939660D01*
X129790382Y-105949138D01*
X129790384Y-105949141D01*
X129790386Y-105949143D01*
X129804058Y-105962815D01*
X129837543Y-106024138D01*
X129832559Y-106093830D01*
X129790687Y-106149763D01*
X129725223Y-106174180D01*
X129716377Y-106174496D01*
X129367259Y-106174496D01*
X129300220Y-106154811D01*
X129279578Y-106138177D01*
X129263351Y-106121950D01*
X129263348Y-106121948D01*
X129263346Y-106121946D01*
X129150308Y-106064350D01*
X129150307Y-106064349D01*
X129150304Y-106064348D01*
X129025007Y-106044504D01*
X129025001Y-106044504D01*
X128899703Y-106064348D01*
X128899702Y-106064348D01*
X128824341Y-106102747D01*
X128786662Y-106121946D01*
X128786661Y-106121947D01*
X128786656Y-106121950D01*
X128696954Y-106211652D01*
X128652081Y-106299719D01*
X128629278Y-106331104D01*
X128151806Y-106808576D01*
X128090483Y-106842061D01*
X128020791Y-106837077D01*
X127995235Y-106823998D01*
X127982495Y-106815485D01*
X127982494Y-106815484D01*
X127982493Y-106815484D01*
X127982490Y-106815483D01*
X127902137Y-106799500D01*
X127902133Y-106799500D01*
X127539344Y-106799500D01*
X127515153Y-106797117D01*
X127500000Y-106794103D01*
X127499999Y-106794103D01*
X127499998Y-106794103D01*
X127478847Y-106798310D01*
X127478834Y-106798312D01*
X127392506Y-106815483D01*
X127392505Y-106815484D01*
X127364026Y-106834514D01*
X127364025Y-106834515D01*
X127324380Y-106861003D01*
X127324378Y-106861006D01*
X127324376Y-106861007D01*
X127318549Y-106864900D01*
X127301373Y-106876377D01*
X127292791Y-106889222D01*
X127277372Y-106908010D01*
X127247352Y-106938030D01*
X127186029Y-106971515D01*
X127179069Y-106972822D01*
X127074699Y-106989352D01*
X127074698Y-106989352D01*
X127010723Y-107021950D01*
X126961658Y-107046950D01*
X126961657Y-107046951D01*
X126961652Y-107046954D01*
X126871954Y-107136652D01*
X126871951Y-107136657D01*
X126871950Y-107136658D01*
X126854177Y-107171539D01*
X126814352Y-107249698D01*
X126804563Y-107311510D01*
X126774634Y-107374645D01*
X126715322Y-107411576D01*
X126645460Y-107410578D01*
X126594409Y-107379793D01*
X126232627Y-107018011D01*
X126217205Y-106999219D01*
X126214719Y-106995499D01*
X126208624Y-106986376D01*
X126208619Y-106986372D01*
X126185624Y-106971007D01*
X126185623Y-106971007D01*
X126185622Y-106971006D01*
X126153609Y-106949616D01*
X126135980Y-106937836D01*
X126117494Y-106925484D01*
X126117493Y-106925483D01*
X126031165Y-106908312D01*
X126031152Y-106908310D01*
X125998022Y-106901720D01*
X125998515Y-106899238D01*
X125948042Y-106884418D01*
X125927400Y-106867784D01*
X125736818Y-106677202D01*
X125703333Y-106615879D01*
X125700499Y-106589521D01*
X125700499Y-106386634D01*
X125700499Y-106386628D01*
X125697682Y-106362338D01*
X125653813Y-106262984D01*
X125577016Y-106186187D01*
X125553637Y-106175864D01*
X125477663Y-106142318D01*
X125453374Y-106139500D01*
X125453373Y-106139500D01*
X125325478Y-106139500D01*
X125258439Y-106119815D01*
X125237797Y-106103181D01*
X125111819Y-105977203D01*
X125078334Y-105915880D01*
X125075500Y-105889522D01*
X125075500Y-105041519D01*
X125075499Y-105041515D01*
X125063142Y-104979390D01*
X125040286Y-104945185D01*
X125016065Y-104908935D01*
X124981109Y-104885578D01*
X124945609Y-104861857D01*
X124883484Y-104849500D01*
X124883480Y-104849500D01*
X124716520Y-104849500D01*
X124716515Y-104849500D01*
X124654390Y-104861857D01*
X124618891Y-104885578D01*
X124552214Y-104906456D01*
X124484834Y-104887972D01*
X124481109Y-104885578D01*
X124445609Y-104861857D01*
X124383484Y-104849500D01*
X124383480Y-104849500D01*
X124224500Y-104849500D01*
X124157461Y-104829815D01*
X124111706Y-104777011D01*
X124100500Y-104725500D01*
X124100500Y-104566519D01*
X124100499Y-104566515D01*
X124088142Y-104504392D01*
X124088142Y-104504391D01*
X124064421Y-104468889D01*
X124043543Y-104402216D01*
X124062026Y-104334835D01*
X124064394Y-104331149D01*
X124088142Y-104295609D01*
X124100500Y-104233480D01*
X124100500Y-104066520D01*
X124088142Y-104004391D01*
X124064421Y-103968889D01*
X124043543Y-103902216D01*
X124062026Y-103834835D01*
X124064394Y-103831149D01*
X124088142Y-103795609D01*
X124100500Y-103733480D01*
X124100500Y-103566520D01*
X124088142Y-103504391D01*
X124064421Y-103468889D01*
X124043543Y-103402216D01*
X124062026Y-103334835D01*
X124064394Y-103331149D01*
X124088142Y-103295609D01*
X124100500Y-103233480D01*
X124100500Y-103066520D01*
X124098448Y-103056202D01*
X124088142Y-103004390D01*
X124064748Y-102969379D01*
X124041065Y-102933935D01*
X124001444Y-102907461D01*
X123970609Y-102886857D01*
X123908484Y-102874500D01*
X123908480Y-102874500D01*
X123589633Y-102874500D01*
X123224500Y-102874500D01*
X123157461Y-102854815D01*
X123111706Y-102802011D01*
X123100500Y-102750500D01*
X123100500Y-101834964D01*
X123110421Y-101801174D01*
X123101523Y-101780928D01*
X123100500Y-101765035D01*
X123100500Y-101487535D01*
X123120185Y-101420496D01*
X123136815Y-101399858D01*
X123768151Y-100768521D01*
X123829472Y-100735038D01*
X123899163Y-100740022D01*
X123904394Y-100742322D01*
X123907327Y-100743275D01*
X124032625Y-100763120D01*
X124032628Y-100763120D01*
X124032631Y-100763120D01*
X124157928Y-100743275D01*
X124157929Y-100743275D01*
X124157930Y-100743274D01*
X124157932Y-100743274D01*
X124270970Y-100685678D01*
X124360678Y-100595970D01*
X124418274Y-100482932D01*
X124418274Y-100482930D01*
X124418275Y-100482929D01*
X124418275Y-100482928D01*
X124438120Y-100357631D01*
X124438120Y-100357626D01*
X124429828Y-100305273D01*
X124438782Y-100235980D01*
X124483779Y-100182528D01*
X124532903Y-100163401D01*
X124550304Y-100160646D01*
X124663342Y-100103050D01*
X124753050Y-100013342D01*
X124810646Y-99900304D01*
X124810646Y-99900302D01*
X124810647Y-99900301D01*
X124810647Y-99900300D01*
X124830492Y-99775003D01*
X124830492Y-99774996D01*
X124810647Y-99649699D01*
X124810647Y-99649698D01*
X124803671Y-99636007D01*
X124753050Y-99536658D01*
X124753046Y-99536654D01*
X124753045Y-99536652D01*
X124704074Y-99487681D01*
X124670589Y-99426358D01*
X124675573Y-99356666D01*
X124704074Y-99312319D01*
X124778045Y-99238347D01*
X124778050Y-99238342D01*
X124835646Y-99125304D01*
X124835646Y-99125302D01*
X124835647Y-99125301D01*
X124835647Y-99125300D01*
X124855492Y-99000003D01*
X124855492Y-98999996D01*
X124835647Y-98874699D01*
X124835647Y-98874698D01*
X124829000Y-98861652D01*
X124778050Y-98761658D01*
X124778046Y-98761654D01*
X124778045Y-98761652D01*
X124736357Y-98719964D01*
X124702872Y-98658641D01*
X124707856Y-98588949D01*
X124716843Y-98572207D01*
X124716447Y-98572005D01*
X124720876Y-98563311D01*
X124720878Y-98563310D01*
X124778474Y-98450272D01*
X124778474Y-98450270D01*
X124778475Y-98450269D01*
X124778475Y-98450268D01*
X124798320Y-98324971D01*
X124798320Y-98324964D01*
X124778475Y-98199667D01*
X124778475Y-98199666D01*
X124778474Y-98199664D01*
X124720878Y-98086626D01*
X124720874Y-98086622D01*
X124720873Y-98086620D01*
X124631175Y-97996922D01*
X124631172Y-97996920D01*
X124631170Y-97996918D01*
X124528322Y-97944514D01*
X124477527Y-97896540D01*
X124460732Y-97828719D01*
X124462145Y-97814631D01*
X124462851Y-97810177D01*
X124471134Y-97757878D01*
X124469919Y-97750209D01*
X124466470Y-97728429D01*
X124475424Y-97659136D01*
X124520421Y-97605684D01*
X124569548Y-97586557D01*
X124575302Y-97585646D01*
X124688340Y-97528050D01*
X124778048Y-97438342D01*
X124835644Y-97325304D01*
X124852175Y-97220925D01*
X124882103Y-97157794D01*
X124886949Y-97152663D01*
X125227795Y-96811818D01*
X125289118Y-96778333D01*
X125315476Y-96775499D01*
X125538366Y-96775499D01*
X125538372Y-96775499D01*
X125562662Y-96772682D01*
X125662016Y-96728813D01*
X125725857Y-96664971D01*
X125787176Y-96631489D01*
X125856868Y-96636473D01*
X125901215Y-96664972D01*
X125925859Y-96689616D01*
X125925862Y-96689617D01*
X125925863Y-96689618D01*
X126023499Y-96732729D01*
X126023500Y-96732729D01*
X126023502Y-96732730D01*
X126047377Y-96735500D01*
X126502622Y-96735499D01*
X126526498Y-96732730D01*
X126624135Y-96689619D01*
X126624136Y-96689618D01*
X126624141Y-96689616D01*
X126662319Y-96651438D01*
X126723642Y-96617953D01*
X126793334Y-96622937D01*
X126837681Y-96651438D01*
X126875859Y-96689616D01*
X126913574Y-96706269D01*
X126925570Y-96711566D01*
X126978946Y-96756652D01*
X126999473Y-96823438D01*
X126980634Y-96890720D01*
X126928411Y-96937137D01*
X126925570Y-96938434D01*
X126875863Y-96960382D01*
X126875861Y-96960383D01*
X126875859Y-96960384D01*
X126875858Y-96960384D01*
X126875856Y-96960386D01*
X126800386Y-97035856D01*
X126800381Y-97035863D01*
X126757270Y-97133499D01*
X126754500Y-97157375D01*
X126754500Y-97512615D01*
X126754502Y-97512638D01*
X126757269Y-97536495D01*
X126777367Y-97582014D01*
X126786438Y-97651292D01*
X126756614Y-97714477D01*
X126720230Y-97742582D01*
X126711660Y-97746948D01*
X126711652Y-97746954D01*
X126621954Y-97836652D01*
X126621951Y-97836657D01*
X126621950Y-97836658D01*
X126609965Y-97860180D01*
X126564352Y-97949698D01*
X126564352Y-97949699D01*
X126544508Y-98074996D01*
X126544508Y-98075003D01*
X126564352Y-98200300D01*
X126564352Y-98200301D01*
X126571783Y-98214884D01*
X126621950Y-98313342D01*
X126621952Y-98313344D01*
X126621954Y-98313347D01*
X126711652Y-98403045D01*
X126711654Y-98403046D01*
X126711658Y-98403050D01*
X126824696Y-98460646D01*
X126824697Y-98460646D01*
X126824699Y-98460647D01*
X126833981Y-98463663D01*
X126833182Y-98466120D01*
X126883228Y-98489835D01*
X126920168Y-98549140D01*
X126923184Y-98601787D01*
X126919508Y-98624999D01*
X126919508Y-98625003D01*
X126939352Y-98750300D01*
X126939352Y-98750301D01*
X126945139Y-98761658D01*
X126996950Y-98863342D01*
X126996952Y-98863344D01*
X126996954Y-98863347D01*
X127086652Y-98953045D01*
X127086654Y-98953046D01*
X127086658Y-98953050D01*
X127199696Y-99010646D01*
X127199697Y-99010646D01*
X127199699Y-99010647D01*
X127324997Y-99030492D01*
X127325000Y-99030492D01*
X127325003Y-99030492D01*
X127450300Y-99010647D01*
X127450302Y-99010646D01*
X127450304Y-99010646D01*
X127524206Y-98972990D01*
X127592873Y-98960094D01*
X127657614Y-98986369D01*
X127697871Y-99043475D01*
X127704500Y-99083475D01*
X127704500Y-99412615D01*
X127704502Y-99412638D01*
X127707269Y-99436495D01*
X127707269Y-99436498D01*
X127750380Y-99534135D01*
X127750383Y-99534139D01*
X127750384Y-99534141D01*
X127825859Y-99609616D01*
X127825862Y-99609617D01*
X127825863Y-99609618D01*
X127923499Y-99652729D01*
X127923500Y-99652729D01*
X127923502Y-99652730D01*
X127947377Y-99655500D01*
X128402622Y-99655499D01*
X128426498Y-99652730D01*
X128512935Y-99614563D01*
X128582211Y-99605492D01*
X128645396Y-99635315D01*
X128650701Y-99640317D01*
X129088030Y-100077646D01*
X129121515Y-100138969D01*
X129122822Y-100145929D01*
X129139352Y-100250301D01*
X129146040Y-100263426D01*
X129196950Y-100363342D01*
X129196952Y-100363344D01*
X129196954Y-100363347D01*
X129286652Y-100453045D01*
X129286654Y-100453046D01*
X129286658Y-100453050D01*
X129399696Y-100510646D01*
X129399697Y-100510646D01*
X129399699Y-100510647D01*
X129524997Y-100530492D01*
X129525000Y-100530492D01*
X129525003Y-100530492D01*
X129650300Y-100510647D01*
X129650301Y-100510647D01*
X129650302Y-100510646D01*
X129650304Y-100510646D01*
X129763342Y-100453050D01*
X129853050Y-100363342D01*
X129910646Y-100250304D01*
X129929798Y-100129377D01*
X129959726Y-100066246D01*
X129978852Y-100054336D01*
X129939560Y-100036392D01*
X129910278Y-99998974D01*
X129878069Y-99935761D01*
X129853050Y-99886658D01*
X129853049Y-99886657D01*
X129853045Y-99886652D01*
X129763347Y-99796954D01*
X129763344Y-99796952D01*
X129763342Y-99796950D01*
X129650304Y-99739354D01*
X129650302Y-99739353D01*
X129650301Y-99739353D01*
X129622644Y-99734972D01*
X129559510Y-99705041D01*
X129522580Y-99645729D01*
X129523580Y-99575866D01*
X129562191Y-99517634D01*
X129622648Y-99490026D01*
X129650304Y-99485646D01*
X129763342Y-99428050D01*
X129853050Y-99338342D01*
X129910646Y-99225304D01*
X129910646Y-99225302D01*
X129910647Y-99225301D01*
X129910647Y-99225300D01*
X129930492Y-99100003D01*
X129930492Y-99099996D01*
X129910647Y-98974699D01*
X129910647Y-98974698D01*
X129900153Y-98954103D01*
X129853050Y-98861658D01*
X129853046Y-98861654D01*
X129853045Y-98861652D01*
X129763347Y-98771954D01*
X129763344Y-98771952D01*
X129763342Y-98771950D01*
X129650304Y-98714354D01*
X129650303Y-98714353D01*
X129650300Y-98714352D01*
X129525003Y-98694508D01*
X129524997Y-98694508D01*
X129399699Y-98714352D01*
X129399698Y-98714352D01*
X129329148Y-98750300D01*
X129286658Y-98771950D01*
X129286657Y-98771951D01*
X129286652Y-98771954D01*
X129196954Y-98861652D01*
X129196951Y-98861657D01*
X129196950Y-98861658D01*
X129189829Y-98875634D01*
X129139352Y-98974698D01*
X129139352Y-98974699D01*
X129126145Y-99058091D01*
X129096216Y-99121226D01*
X129036905Y-99158158D01*
X128967042Y-99157160D01*
X128915991Y-99126375D01*
X128857627Y-99068011D01*
X128842205Y-99049219D01*
X128841209Y-99047729D01*
X128833624Y-99036376D01*
X128833619Y-99036372D01*
X128810624Y-99021007D01*
X128810623Y-99021007D01*
X128810622Y-99021006D01*
X128795117Y-99010646D01*
X128776824Y-98998423D01*
X128776794Y-98998403D01*
X128776753Y-98998376D01*
X128742495Y-98975485D01*
X128742494Y-98975484D01*
X128742492Y-98975483D01*
X128742493Y-98975483D01*
X128656195Y-98958318D01*
X128656162Y-98958312D01*
X128650495Y-98957185D01*
X128588585Y-98924801D01*
X128587006Y-98923249D01*
X128524143Y-98860386D01*
X128524141Y-98860384D01*
X128524138Y-98860383D01*
X128524136Y-98860381D01*
X128426500Y-98817270D01*
X128426501Y-98817270D01*
X128402623Y-98814500D01*
X127947384Y-98814500D01*
X127947361Y-98814502D01*
X127923504Y-98817269D01*
X127923503Y-98817269D01*
X127891391Y-98831448D01*
X127822112Y-98840519D01*
X127758928Y-98810694D01*
X127721898Y-98751444D01*
X127718833Y-98698615D01*
X127730492Y-98625002D01*
X127730492Y-98624996D01*
X127717002Y-98539822D01*
X130199499Y-98539822D01*
X130208231Y-98583717D01*
X130208234Y-98583724D01*
X130226593Y-98611200D01*
X130241496Y-98633504D01*
X130291278Y-98666767D01*
X130291281Y-98666767D01*
X130291282Y-98666768D01*
X130335177Y-98675500D01*
X130335180Y-98675500D01*
X130732744Y-98675500D01*
X130799783Y-98695185D01*
X130820425Y-98711819D01*
X131016675Y-98908068D01*
X131050160Y-98969391D01*
X131051933Y-98979563D01*
X131063670Y-99068707D01*
X131063671Y-99068712D01*
X131119137Y-99202622D01*
X131119138Y-99202624D01*
X131119139Y-99202625D01*
X131207379Y-99317621D01*
X131322375Y-99405861D01*
X131322376Y-99405861D01*
X131322377Y-99405862D01*
X131348270Y-99416587D01*
X131456291Y-99461330D01*
X131583280Y-99478048D01*
X131599999Y-99480250D01*
X131600000Y-99480250D01*
X131600001Y-99480250D01*
X131614977Y-99478278D01*
X131743709Y-99461330D01*
X131877625Y-99405861D01*
X131992621Y-99317621D01*
X132080861Y-99202625D01*
X132136330Y-99068709D01*
X132155250Y-98925000D01*
X132155019Y-98923249D01*
X132150953Y-98892361D01*
X132136330Y-98781291D01*
X132080861Y-98647375D01*
X132080860Y-98647374D01*
X132080860Y-98647373D01*
X132026125Y-98576042D01*
X132000930Y-98510873D01*
X132000500Y-98500555D01*
X132000500Y-97816849D01*
X132020067Y-97750209D01*
X131996237Y-97745706D01*
X131964973Y-97722965D01*
X131958503Y-97716495D01*
X131908724Y-97683234D01*
X131908717Y-97683231D01*
X131864822Y-97674500D01*
X131864820Y-97674500D01*
X130335180Y-97674500D01*
X130335178Y-97674500D01*
X130291282Y-97683231D01*
X130291275Y-97683234D01*
X130241496Y-97716495D01*
X130241495Y-97716496D01*
X130208234Y-97766275D01*
X130208231Y-97766282D01*
X130199500Y-97810177D01*
X130199500Y-97810180D01*
X130199500Y-98539820D01*
X130199500Y-98539822D01*
X130199499Y-98539822D01*
X127717002Y-98539822D01*
X127710647Y-98499699D01*
X127710647Y-98499698D01*
X127710646Y-98499696D01*
X127653050Y-98386658D01*
X127653046Y-98386654D01*
X127653045Y-98386652D01*
X127563347Y-98296954D01*
X127563344Y-98296952D01*
X127563342Y-98296950D01*
X127476330Y-98252615D01*
X127450301Y-98239352D01*
X127441020Y-98236337D01*
X127441816Y-98233884D01*
X127391741Y-98210136D01*
X127354820Y-98150819D01*
X127351815Y-98098214D01*
X127352176Y-98095934D01*
X127382102Y-98032798D01*
X127386951Y-98027663D01*
X127391990Y-98022624D01*
X127410774Y-98007209D01*
X127423624Y-97998624D01*
X127444418Y-97967505D01*
X127464573Y-97937340D01*
X127476506Y-97919481D01*
X127476507Y-97919478D01*
X127476509Y-97919476D01*
X127484515Y-97907495D01*
X127489352Y-97883182D01*
X127501687Y-97821167D01*
X127501687Y-97821161D01*
X127505897Y-97800000D01*
X127505896Y-97799998D01*
X127506462Y-97797156D01*
X127538848Y-97735246D01*
X127565175Y-97716866D01*
X127564658Y-97716112D01*
X127574135Y-97709618D01*
X127574141Y-97709616D01*
X127649616Y-97634141D01*
X127692730Y-97536498D01*
X127695500Y-97512623D01*
X127695499Y-97157378D01*
X127692730Y-97133502D01*
X127692729Y-97133499D01*
X127649619Y-97035864D01*
X127649617Y-97035861D01*
X127649616Y-97035859D01*
X127574141Y-96960384D01*
X127550587Y-96949984D01*
X127524428Y-96938433D01*
X127471053Y-96893346D01*
X127450526Y-96826560D01*
X127469365Y-96759278D01*
X127521589Y-96712862D01*
X127524344Y-96711603D01*
X127574141Y-96689616D01*
X127607319Y-96656438D01*
X127668642Y-96622953D01*
X127738334Y-96627937D01*
X127782681Y-96656438D01*
X127825859Y-96699616D01*
X127825862Y-96699617D01*
X127825863Y-96699618D01*
X127923499Y-96742729D01*
X127923500Y-96742729D01*
X127923502Y-96742730D01*
X127947377Y-96745500D01*
X128154520Y-96745499D01*
X128221560Y-96765183D01*
X128242202Y-96781818D01*
X129001148Y-97540764D01*
X129034633Y-97602087D01*
X129035940Y-97609047D01*
X129054352Y-97725301D01*
X129064749Y-97745706D01*
X129111950Y-97838342D01*
X129111952Y-97838344D01*
X129111954Y-97838347D01*
X129201652Y-97928045D01*
X129201654Y-97928046D01*
X129201658Y-97928050D01*
X129314696Y-97985646D01*
X129314697Y-97985646D01*
X129314699Y-97985647D01*
X129439997Y-98005492D01*
X129440000Y-98005492D01*
X129440003Y-98005492D01*
X129565300Y-97985647D01*
X129565301Y-97985647D01*
X129565302Y-97985646D01*
X129565304Y-97985646D01*
X129678342Y-97928050D01*
X129768050Y-97838342D01*
X129825646Y-97725304D01*
X129825646Y-97725302D01*
X129825647Y-97725301D01*
X129825647Y-97725300D01*
X129845492Y-97600003D01*
X129845492Y-97599996D01*
X129831247Y-97510057D01*
X132149500Y-97510057D01*
X132173051Y-97605610D01*
X132169982Y-97675412D01*
X132153201Y-97699159D01*
X132205703Y-97723136D01*
X132234294Y-97759219D01*
X132269266Y-97825852D01*
X132382071Y-97953183D01*
X132470167Y-98013992D01*
X132522068Y-98049817D01*
X132522069Y-98049817D01*
X132522070Y-98049818D01*
X132588478Y-98075003D01*
X132641736Y-98095201D01*
X132681128Y-98110140D01*
X132757028Y-98119356D01*
X132807626Y-98125500D01*
X132807628Y-98125500D01*
X132892374Y-98125500D01*
X132934538Y-98120380D01*
X133018872Y-98110140D01*
X133177930Y-98049818D01*
X133317929Y-97953183D01*
X133430734Y-97825852D01*
X133435460Y-97816849D01*
X133488129Y-97716496D01*
X133509790Y-97675225D01*
X133550500Y-97510056D01*
X133550500Y-97339944D01*
X133509790Y-97174775D01*
X133500878Y-97157794D01*
X133430736Y-97024150D01*
X133403581Y-96993499D01*
X133317929Y-96896817D01*
X133255177Y-96853502D01*
X133177931Y-96800182D01*
X133018874Y-96739860D01*
X133018868Y-96739859D01*
X132892374Y-96724500D01*
X132892372Y-96724500D01*
X132807628Y-96724500D01*
X132807626Y-96724500D01*
X132681131Y-96739859D01*
X132681125Y-96739860D01*
X132522068Y-96800182D01*
X132382072Y-96896816D01*
X132269263Y-97024150D01*
X132234296Y-97090776D01*
X132185711Y-97140989D01*
X132154842Y-97148238D01*
X132176338Y-97205865D01*
X132173051Y-97244389D01*
X132149500Y-97339942D01*
X132149500Y-97510057D01*
X129831247Y-97510057D01*
X129825647Y-97474699D01*
X129825647Y-97474698D01*
X129824586Y-97472615D01*
X129768050Y-97361658D01*
X129768046Y-97361654D01*
X129768045Y-97361652D01*
X129678347Y-97271954D01*
X129678344Y-97271952D01*
X129678342Y-97271950D01*
X129601517Y-97232805D01*
X129565301Y-97214352D01*
X129472809Y-97199703D01*
X129409675Y-97169773D01*
X129404527Y-97164911D01*
X128681818Y-96442202D01*
X128648333Y-96380879D01*
X128645499Y-96354521D01*
X128645499Y-96147384D01*
X128645499Y-96147378D01*
X128642730Y-96123502D01*
X128642730Y-96123501D01*
X128599619Y-96025864D01*
X128599617Y-96025861D01*
X128599616Y-96025859D01*
X128524141Y-95950384D01*
X128524138Y-95950383D01*
X128524136Y-95950381D01*
X128426500Y-95907270D01*
X128426501Y-95907270D01*
X128402623Y-95904500D01*
X127947384Y-95904500D01*
X127947361Y-95904502D01*
X127923504Y-95907269D01*
X127923501Y-95907269D01*
X127825864Y-95950380D01*
X127825856Y-95950386D01*
X127792681Y-95983562D01*
X127731358Y-96017047D01*
X127661666Y-96012063D01*
X127617319Y-95983562D01*
X127574143Y-95940386D01*
X127574142Y-95940385D01*
X127574141Y-95940384D01*
X127574138Y-95940383D01*
X127574136Y-95940381D01*
X127476500Y-95897270D01*
X127476501Y-95897270D01*
X127452623Y-95894500D01*
X126997384Y-95894500D01*
X126997361Y-95894502D01*
X126969478Y-95897736D01*
X126900617Y-95885906D01*
X126849084Y-95838724D01*
X126831239Y-95771172D01*
X126852749Y-95704696D01*
X126856818Y-95699075D01*
X126864278Y-95689354D01*
X126930842Y-95602606D01*
X126986311Y-95468690D01*
X127005231Y-95324981D01*
X126986311Y-95181272D01*
X126950653Y-95095185D01*
X126927732Y-95039847D01*
X126930985Y-95038499D01*
X126918296Y-94986349D01*
X126941104Y-94920307D01*
X126995995Y-94877079D01*
X127065544Y-94870390D01*
X127089250Y-94879236D01*
X127089866Y-94877751D01*
X127136218Y-94896950D01*
X127231291Y-94936330D01*
X127352730Y-94952318D01*
X127374999Y-94955250D01*
X127375000Y-94955250D01*
X127375001Y-94955250D01*
X127397270Y-94952318D01*
X127518709Y-94936330D01*
X127652625Y-94880861D01*
X127767621Y-94792621D01*
X127770152Y-94789323D01*
X127770679Y-94788636D01*
X127827106Y-94747433D01*
X127896852Y-94743277D01*
X127903287Y-94745416D01*
X127903337Y-94745233D01*
X127912333Y-94747680D01*
X127912338Y-94747682D01*
X127936627Y-94750500D01*
X128363372Y-94750499D01*
X128387662Y-94747682D01*
X128487016Y-94703813D01*
X128563813Y-94627016D01*
X128607682Y-94527662D01*
X128610500Y-94503373D01*
X128610499Y-94136628D01*
X128607682Y-94112338D01*
X128563813Y-94012984D01*
X128487016Y-93936187D01*
X128448404Y-93919138D01*
X128387663Y-93892318D01*
X128363373Y-93889500D01*
X127936634Y-93889500D01*
X127936611Y-93889502D01*
X127912340Y-93892317D01*
X127912337Y-93892318D01*
X127802473Y-93940828D01*
X127801835Y-93939384D01*
X127747751Y-93956998D01*
X127680165Y-93939282D01*
X127668641Y-93931428D01*
X127652624Y-93919138D01*
X127652625Y-93919138D01*
X127518712Y-93863671D01*
X127518710Y-93863670D01*
X127518709Y-93863670D01*
X127446854Y-93854210D01*
X127375001Y-93844750D01*
X127374999Y-93844750D01*
X127231291Y-93863670D01*
X127231287Y-93863671D01*
X127097377Y-93919137D01*
X126982379Y-94007379D01*
X126894137Y-94122377D01*
X126838671Y-94256287D01*
X126838670Y-94256291D01*
X126819750Y-94400000D01*
X126838245Y-94540484D01*
X126838670Y-94543708D01*
X126838671Y-94543712D01*
X126897249Y-94685134D01*
X126894018Y-94686472D01*
X126906675Y-94738802D01*
X126883777Y-94804813D01*
X126828826Y-94847965D01*
X126759268Y-94854558D01*
X126735720Y-94845768D01*
X126735115Y-94847230D01*
X126593693Y-94788652D01*
X126593691Y-94788651D01*
X126593690Y-94788651D01*
X126513169Y-94778050D01*
X126449982Y-94769731D01*
X126449980Y-94769731D01*
X126306272Y-94788651D01*
X126306268Y-94788652D01*
X126172358Y-94844118D01*
X126138120Y-94870390D01*
X126057360Y-94932360D01*
X126057359Y-94932361D01*
X126057358Y-94932362D01*
X125964171Y-95053805D01*
X125961897Y-95052060D01*
X125921348Y-95090720D01*
X125864536Y-95104500D01*
X125821692Y-95104500D01*
X125754653Y-95084815D01*
X125734011Y-95068182D01*
X125701713Y-95035884D01*
X125662016Y-94996187D01*
X125646541Y-94989354D01*
X125562663Y-94952318D01*
X125538374Y-94949500D01*
X125538373Y-94949500D01*
X125240478Y-94949500D01*
X125173439Y-94929815D01*
X125152797Y-94913181D01*
X124872627Y-94633011D01*
X124857205Y-94614219D01*
X124848624Y-94601376D01*
X124848621Y-94601373D01*
X124830688Y-94589391D01*
X124830687Y-94589391D01*
X124825623Y-94586007D01*
X124825622Y-94586006D01*
X124799465Y-94568528D01*
X124757495Y-94540485D01*
X124757494Y-94540484D01*
X124757493Y-94540484D01*
X124671165Y-94523312D01*
X124671152Y-94523310D01*
X124650002Y-94519103D01*
X124650001Y-94519103D01*
X124650000Y-94519103D01*
X124634846Y-94522117D01*
X124610656Y-94524500D01*
X123364500Y-94524500D01*
X123297461Y-94504815D01*
X123251706Y-94452011D01*
X123240500Y-94400500D01*
X123240500Y-93685177D01*
X123231768Y-93641282D01*
X123231767Y-93641281D01*
X123231767Y-93641278D01*
X123198504Y-93591496D01*
X123195182Y-93589276D01*
X123148724Y-93558234D01*
X123148717Y-93558231D01*
X123104822Y-93549500D01*
X123104820Y-93549500D01*
X122795180Y-93549500D01*
X122795178Y-93549500D01*
X122751282Y-93558231D01*
X122751275Y-93558234D01*
X122701496Y-93591495D01*
X122701495Y-93591496D01*
X122668234Y-93641275D01*
X122668231Y-93641282D01*
X122659500Y-93685177D01*
X122659500Y-93685180D01*
X122659500Y-94514820D01*
X122668233Y-94558722D01*
X122668233Y-94558723D01*
X122670616Y-94570698D01*
X122669028Y-94571013D01*
X122674500Y-94598515D01*
X122674500Y-94605655D01*
X122672117Y-94629847D01*
X122669103Y-94644999D01*
X122669103Y-94657213D01*
X122666946Y-94657213D01*
X122662139Y-94710906D01*
X122619273Y-94766081D01*
X122553382Y-94789323D01*
X122546751Y-94789500D01*
X122435478Y-94789500D01*
X122368439Y-94769815D01*
X122347797Y-94753181D01*
X122265621Y-94671005D01*
X122232136Y-94609682D01*
X122231685Y-94559130D01*
X122231765Y-94558723D01*
X122231767Y-94558722D01*
X122240500Y-94514820D01*
X122240500Y-93685180D01*
X122240500Y-93685177D01*
X122231768Y-93641282D01*
X122231767Y-93641281D01*
X122231767Y-93641278D01*
X122198504Y-93591496D01*
X122195182Y-93589276D01*
X122148724Y-93558234D01*
X122148717Y-93558231D01*
X122104822Y-93549500D01*
X122104820Y-93549500D01*
X121795180Y-93549500D01*
X121795178Y-93549500D01*
X121751282Y-93558231D01*
X121751275Y-93558234D01*
X121701496Y-93591495D01*
X121701495Y-93591496D01*
X121668234Y-93641275D01*
X121668231Y-93641282D01*
X121659500Y-93685177D01*
X121659500Y-93685180D01*
X121659500Y-94514820D01*
X121668233Y-94558722D01*
X121668233Y-94558723D01*
X121670616Y-94570698D01*
X121669028Y-94571013D01*
X121674500Y-94598515D01*
X121674500Y-94645500D01*
X121654815Y-94712539D01*
X121602011Y-94758294D01*
X121550500Y-94769500D01*
X121247384Y-94769500D01*
X121247361Y-94769502D01*
X121223504Y-94772269D01*
X121223501Y-94772269D01*
X121125864Y-94815380D01*
X121125858Y-94815385D01*
X121080671Y-94860571D01*
X121019347Y-94894055D01*
X120949655Y-94889069D01*
X120936696Y-94883373D01*
X120850301Y-94839352D01*
X120765151Y-94825866D01*
X120702016Y-94795937D01*
X120665085Y-94736625D01*
X120666083Y-94666762D01*
X120674065Y-94647097D01*
X120674879Y-94645500D01*
X120710646Y-94575304D01*
X120711376Y-94570698D01*
X120730492Y-94450003D01*
X120730492Y-94449996D01*
X120710647Y-94324699D01*
X120710647Y-94324698D01*
X120710646Y-94324696D01*
X120653050Y-94211658D01*
X120653046Y-94211654D01*
X120653045Y-94211652D01*
X120563347Y-94121954D01*
X120563344Y-94121952D01*
X120563342Y-94121950D01*
X120486517Y-94082805D01*
X120450301Y-94064352D01*
X120388489Y-94054563D01*
X120325355Y-94024634D01*
X120288423Y-93965323D01*
X120289421Y-93895460D01*
X120320204Y-93844411D01*
X121542388Y-92622227D01*
X121603709Y-92588744D01*
X121673401Y-92593728D01*
X121698957Y-92606807D01*
X121701495Y-92608503D01*
X121701496Y-92608504D01*
X121751278Y-92641767D01*
X121751280Y-92641767D01*
X121751282Y-92641768D01*
X121795177Y-92650500D01*
X121795180Y-92650500D01*
X122104822Y-92650500D01*
X122148717Y-92641768D01*
X122148717Y-92641767D01*
X122148722Y-92641767D01*
X122148726Y-92641764D01*
X122152540Y-92640185D01*
X122222009Y-92632712D01*
X122247460Y-92640185D01*
X122251275Y-92641765D01*
X122251278Y-92641767D01*
X122251281Y-92641767D01*
X122251282Y-92641768D01*
X122295177Y-92650500D01*
X122295180Y-92650500D01*
X122604822Y-92650500D01*
X122648717Y-92641768D01*
X122648717Y-92641767D01*
X122648722Y-92641767D01*
X122648726Y-92641764D01*
X122652540Y-92640185D01*
X122722009Y-92632712D01*
X122747460Y-92640185D01*
X122751275Y-92641765D01*
X122751278Y-92641767D01*
X122751281Y-92641767D01*
X122751282Y-92641768D01*
X122795177Y-92650500D01*
X122795180Y-92650500D01*
X123104822Y-92650500D01*
X123148717Y-92641768D01*
X123148717Y-92641767D01*
X123148722Y-92641767D01*
X123148726Y-92641764D01*
X123152540Y-92640185D01*
X123222009Y-92632712D01*
X123247460Y-92640185D01*
X123251275Y-92641765D01*
X123251278Y-92641767D01*
X123251281Y-92641767D01*
X123251282Y-92641768D01*
X123295177Y-92650500D01*
X123295180Y-92650500D01*
X123604822Y-92650500D01*
X123648717Y-92641768D01*
X123648717Y-92641767D01*
X123648722Y-92641767D01*
X123698504Y-92608504D01*
X123731767Y-92558722D01*
X123735527Y-92539822D01*
X125099499Y-92539822D01*
X125108231Y-92583717D01*
X125108234Y-92583724D01*
X125141495Y-92633503D01*
X125141496Y-92633504D01*
X125191278Y-92666767D01*
X125191281Y-92666767D01*
X125191282Y-92666768D01*
X125235177Y-92675500D01*
X125235180Y-92675500D01*
X125814822Y-92675500D01*
X125858717Y-92666768D01*
X125858717Y-92666767D01*
X125858722Y-92666767D01*
X125908504Y-92633504D01*
X125941767Y-92583722D01*
X125944667Y-92569143D01*
X125950500Y-92539822D01*
X125950500Y-92174500D01*
X125970185Y-92107461D01*
X126022989Y-92061706D01*
X126074500Y-92050500D01*
X126221617Y-92050500D01*
X126245807Y-92052882D01*
X126260961Y-92055897D01*
X126288093Y-92050500D01*
X126288094Y-92050500D01*
X126311695Y-92045805D01*
X126368454Y-92034516D01*
X126368454Y-92034515D01*
X126368456Y-92034515D01*
X126410426Y-92006471D01*
X126436583Y-91988994D01*
X126436583Y-91988993D01*
X126450012Y-91980021D01*
X126450014Y-91980018D01*
X126459585Y-91973624D01*
X126459589Y-91973618D01*
X126460020Y-91973188D01*
X126461201Y-91972542D01*
X126469745Y-91966835D01*
X126470255Y-91967598D01*
X126521341Y-91939699D01*
X126528280Y-91938395D01*
X126623615Y-91923296D01*
X126736653Y-91865700D01*
X126826361Y-91775992D01*
X126883957Y-91662954D01*
X126883957Y-91662952D01*
X126883958Y-91662951D01*
X126883958Y-91662950D01*
X126903803Y-91537653D01*
X126903803Y-91537647D01*
X126887431Y-91434280D01*
X126896386Y-91364987D01*
X126941382Y-91311535D01*
X127008133Y-91290895D01*
X127075447Y-91309620D01*
X127097585Y-91327201D01*
X127148181Y-91377797D01*
X127181666Y-91439120D01*
X127184500Y-91465478D01*
X127184500Y-92260655D01*
X127182117Y-92284847D01*
X127179103Y-92299999D01*
X127179103Y-92300002D01*
X127183310Y-92321152D01*
X127183311Y-92321159D01*
X127200483Y-92407490D01*
X127200484Y-92407493D01*
X127200484Y-92407494D01*
X127200485Y-92407495D01*
X127224460Y-92443376D01*
X127224461Y-92443377D01*
X127224461Y-92443378D01*
X127227298Y-92447624D01*
X127243250Y-92471498D01*
X127261376Y-92498624D01*
X127274222Y-92507207D01*
X127293012Y-92522628D01*
X127737369Y-92966985D01*
X127752790Y-92985775D01*
X127761373Y-92998621D01*
X127761374Y-92998621D01*
X127761376Y-92998624D01*
X127784376Y-93013992D01*
X127784378Y-93013994D01*
X127810534Y-93031471D01*
X127852505Y-93059515D01*
X127852507Y-93059515D01*
X127852507Y-93059516D01*
X127938832Y-93076687D01*
X127938839Y-93076687D01*
X127960000Y-93080897D01*
X127975154Y-93077882D01*
X127999344Y-93075500D01*
X130000500Y-93075500D01*
X130067539Y-93095185D01*
X130113294Y-93147989D01*
X130124500Y-93199500D01*
X130124500Y-93467615D01*
X130124502Y-93467638D01*
X130127269Y-93491495D01*
X130127269Y-93491498D01*
X130170380Y-93589135D01*
X130170383Y-93589139D01*
X130170384Y-93589141D01*
X130245859Y-93664616D01*
X130245862Y-93664617D01*
X130245863Y-93664618D01*
X130343499Y-93707729D01*
X130343500Y-93707729D01*
X130343502Y-93707730D01*
X130367377Y-93710500D01*
X130822622Y-93710499D01*
X130846498Y-93707730D01*
X130944135Y-93664619D01*
X130944136Y-93664618D01*
X130944141Y-93664616D01*
X130990980Y-93617776D01*
X131052301Y-93584292D01*
X131121993Y-93589276D01*
X131166341Y-93617777D01*
X131206172Y-93657608D01*
X131308091Y-93702609D01*
X131333009Y-93705500D01*
X131766990Y-93705499D01*
X131775020Y-93704567D01*
X131791903Y-93702610D01*
X131791905Y-93702609D01*
X131791909Y-93702609D01*
X131893828Y-93657608D01*
X131972608Y-93578828D01*
X132017609Y-93476909D01*
X132020500Y-93451991D01*
X132020499Y-93068010D01*
X132017609Y-93043091D01*
X131972608Y-92941172D01*
X131893828Y-92862392D01*
X131893825Y-92862390D01*
X131893824Y-92862390D01*
X131791910Y-92817391D01*
X131766991Y-92814500D01*
X131333016Y-92814500D01*
X131332993Y-92814502D01*
X131308096Y-92817389D01*
X131308092Y-92817390D01*
X131206175Y-92862390D01*
X131206173Y-92862391D01*
X131136341Y-92932223D01*
X131075017Y-92965707D01*
X131005326Y-92960722D01*
X130960979Y-92932222D01*
X130944143Y-92915386D01*
X130944141Y-92915384D01*
X130920587Y-92904984D01*
X130894428Y-92893433D01*
X130841053Y-92848346D01*
X130820526Y-92781560D01*
X130839365Y-92714278D01*
X130891589Y-92667862D01*
X130894344Y-92666603D01*
X130944141Y-92644616D01*
X131019616Y-92569141D01*
X131062729Y-92471500D01*
X131062730Y-92471500D01*
X131063305Y-92466535D01*
X131065500Y-92447623D01*
X131065499Y-92092378D01*
X131062730Y-92068502D01*
X131062729Y-92068499D01*
X131019619Y-91970864D01*
X131019617Y-91970861D01*
X131019616Y-91970859D01*
X130944141Y-91895384D01*
X130944138Y-91895383D01*
X130944136Y-91895381D01*
X130846500Y-91852270D01*
X130846501Y-91852270D01*
X130822623Y-91849500D01*
X130367384Y-91849500D01*
X130367361Y-91849502D01*
X130343504Y-91852269D01*
X130343501Y-91852269D01*
X130245864Y-91895380D01*
X130245856Y-91895386D01*
X130170386Y-91970856D01*
X130170381Y-91970863D01*
X130127270Y-92068499D01*
X130124500Y-92092375D01*
X130124500Y-92299521D01*
X130104815Y-92366560D01*
X130088185Y-92387197D01*
X129987201Y-92488182D01*
X129925881Y-92521666D01*
X129899522Y-92524500D01*
X128125478Y-92524500D01*
X128058439Y-92504815D01*
X128037797Y-92488181D01*
X127771819Y-92222203D01*
X127738334Y-92160880D01*
X127735500Y-92134522D01*
X127735500Y-91339344D01*
X127737883Y-91315151D01*
X127740897Y-91299999D01*
X127728910Y-91239737D01*
X127728868Y-91239527D01*
X127728868Y-91239524D01*
X127722916Y-91209604D01*
X127719515Y-91192505D01*
X127677479Y-91129594D01*
X127658624Y-91101375D01*
X127645775Y-91092790D01*
X127626985Y-91077369D01*
X126862627Y-90313011D01*
X126847205Y-90294219D01*
X126844979Y-90290888D01*
X126838624Y-90281376D01*
X126838621Y-90281373D01*
X126820688Y-90269391D01*
X126820687Y-90269391D01*
X126815623Y-90266007D01*
X126815622Y-90266006D01*
X126789465Y-90248528D01*
X126747495Y-90220485D01*
X126747494Y-90220484D01*
X126747493Y-90220484D01*
X126661165Y-90203312D01*
X126661152Y-90203310D01*
X126640002Y-90199103D01*
X126640001Y-90199103D01*
X126640000Y-90199103D01*
X126624846Y-90202117D01*
X126600656Y-90204500D01*
X125872255Y-90204500D01*
X125805216Y-90184815D01*
X125784574Y-90168181D01*
X125768347Y-90151954D01*
X125768344Y-90151952D01*
X125768342Y-90151950D01*
X125655304Y-90094354D01*
X125655303Y-90094353D01*
X125655300Y-90094352D01*
X125530003Y-90074508D01*
X125529997Y-90074508D01*
X125404699Y-90094352D01*
X125404698Y-90094352D01*
X125344558Y-90124996D01*
X125291658Y-90151950D01*
X125291657Y-90151951D01*
X125291652Y-90151954D01*
X125201954Y-90241652D01*
X125201951Y-90241657D01*
X125201950Y-90241658D01*
X125197545Y-90250304D01*
X125144352Y-90354698D01*
X125144352Y-90354699D01*
X125124508Y-90479996D01*
X125124508Y-90480003D01*
X125144352Y-90605300D01*
X125144352Y-90605301D01*
X125201952Y-90718345D01*
X125203309Y-90720213D01*
X125204254Y-90722863D01*
X125206381Y-90727037D01*
X125205841Y-90727311D01*
X125226785Y-90786020D01*
X125210956Y-90854074D01*
X125171879Y-90896194D01*
X125141496Y-90916495D01*
X125141495Y-90916496D01*
X125108234Y-90966275D01*
X125108231Y-90966282D01*
X125099500Y-91010177D01*
X125099500Y-91010180D01*
X125099500Y-92539820D01*
X125099500Y-92539822D01*
X125099499Y-92539822D01*
X123735527Y-92539822D01*
X123735527Y-92539820D01*
X123740500Y-92514822D01*
X123740500Y-92308416D01*
X123748873Y-92263622D01*
X123749913Y-92260935D01*
X123749916Y-92260933D01*
X123790500Y-92156173D01*
X123790500Y-92067255D01*
X123810185Y-92000216D01*
X123826819Y-91979574D01*
X124350052Y-91456341D01*
X124350057Y-91456334D01*
X124365550Y-91440842D01*
X124375614Y-91421088D01*
X124385763Y-91404526D01*
X124398796Y-91386590D01*
X124405644Y-91365511D01*
X124413086Y-91347544D01*
X124422556Y-91328961D01*
X124452512Y-91294182D01*
X124451515Y-91293185D01*
X124545917Y-91198782D01*
X124545919Y-91198780D01*
X124600043Y-91088067D01*
X124610500Y-91016295D01*
X124610499Y-90183706D01*
X124600043Y-90111933D01*
X124545919Y-90001220D01*
X124545917Y-90001218D01*
X124545917Y-90001217D01*
X124531881Y-89987181D01*
X124498396Y-89925858D01*
X124503380Y-89856166D01*
X124545252Y-89800233D01*
X124610716Y-89775816D01*
X124619562Y-89775500D01*
X126100656Y-89775500D01*
X126124846Y-89777882D01*
X126140000Y-89780897D01*
X126167132Y-89775500D01*
X126167133Y-89775500D01*
X126247495Y-89759515D01*
X126247499Y-89759512D01*
X126258541Y-89754939D01*
X126305997Y-89745499D01*
X126542616Y-89745499D01*
X126542622Y-89745499D01*
X126566498Y-89742730D01*
X126664135Y-89699619D01*
X126664136Y-89699618D01*
X126664141Y-89699616D01*
X126739616Y-89624141D01*
X126782730Y-89526498D01*
X126785500Y-89502623D01*
X126785499Y-89047378D01*
X126782730Y-89023502D01*
X126782730Y-89023501D01*
X126739619Y-88925864D01*
X126739617Y-88925861D01*
X126739616Y-88925859D01*
X126664141Y-88850384D01*
X126664138Y-88850383D01*
X126664136Y-88850381D01*
X126566500Y-88807270D01*
X126566501Y-88807270D01*
X126542623Y-88804500D01*
X126187384Y-88804500D01*
X126187361Y-88804502D01*
X126163505Y-88807268D01*
X126140685Y-88817344D01*
X126126848Y-88823454D01*
X126057572Y-88832525D01*
X125994387Y-88802701D01*
X125966281Y-88766317D01*
X125918050Y-88671658D01*
X125918046Y-88671654D01*
X125918045Y-88671652D01*
X125828347Y-88581954D01*
X125828344Y-88581952D01*
X125828342Y-88581950D01*
X125715304Y-88524354D01*
X125715303Y-88524353D01*
X125715300Y-88524352D01*
X125590003Y-88504508D01*
X125589997Y-88504508D01*
X125464699Y-88524352D01*
X125464698Y-88524352D01*
X125417337Y-88548485D01*
X125361042Y-88562000D01*
X125317298Y-88562000D01*
X125250259Y-88542315D01*
X125229617Y-88525681D01*
X125144117Y-88440181D01*
X125110632Y-88378858D01*
X125115616Y-88309166D01*
X125144117Y-88264819D01*
X125179709Y-88229227D01*
X125222608Y-88186328D01*
X125267609Y-88084409D01*
X125270500Y-88059491D01*
X125270499Y-87675510D01*
X125267609Y-87650591D01*
X125222608Y-87548672D01*
X125143828Y-87469892D01*
X125143825Y-87469890D01*
X125143824Y-87469890D01*
X125041910Y-87424891D01*
X125016992Y-87422000D01*
X125016991Y-87422000D01*
X124779742Y-87422000D01*
X124712703Y-87402315D01*
X124710860Y-87401108D01*
X124710140Y-87400627D01*
X124710132Y-87400622D01*
X124700325Y-87394069D01*
X124679995Y-87380485D01*
X124679994Y-87380484D01*
X124679993Y-87380484D01*
X124679990Y-87380483D01*
X124593665Y-87363312D01*
X124593652Y-87363310D01*
X124572502Y-87359103D01*
X124572501Y-87359103D01*
X124572500Y-87359103D01*
X124557346Y-87362117D01*
X124533156Y-87364500D01*
X123184148Y-87364500D01*
X123159957Y-87362117D01*
X123144804Y-87359103D01*
X123144803Y-87359103D01*
X123144802Y-87359103D01*
X123037311Y-87380483D01*
X123037310Y-87380484D01*
X123037309Y-87380485D01*
X122969182Y-87426006D01*
X122969180Y-87426007D01*
X122954873Y-87435567D01*
X122946178Y-87441377D01*
X122937597Y-87454219D01*
X122922179Y-87473006D01*
X122832007Y-87563180D01*
X122770684Y-87596666D01*
X122744325Y-87599500D01*
X122589344Y-87599500D01*
X122565154Y-87597117D01*
X122550000Y-87594103D01*
X122534845Y-87597117D01*
X122510656Y-87599500D01*
X122390478Y-87599500D01*
X122323439Y-87579815D01*
X122302797Y-87563181D01*
X122201969Y-87462353D01*
X122168484Y-87401030D01*
X122167181Y-87394099D01*
X122150646Y-87289696D01*
X122093050Y-87176658D01*
X122093046Y-87176654D01*
X122093045Y-87176652D01*
X122014894Y-87098501D01*
X121981409Y-87037178D01*
X121986393Y-86967486D01*
X121989132Y-86960754D01*
X122022585Y-86884991D01*
X122025500Y-86859865D01*
X122025500Y-86859856D01*
X123024500Y-86859856D01*
X123024502Y-86859882D01*
X123027413Y-86884987D01*
X123027415Y-86884991D01*
X123072793Y-86987764D01*
X123072794Y-86987765D01*
X123152235Y-87067206D01*
X123255009Y-87112585D01*
X123280135Y-87115500D01*
X123669864Y-87115499D01*
X123669879Y-87115497D01*
X123669882Y-87115497D01*
X123694987Y-87112586D01*
X123694988Y-87112585D01*
X123694991Y-87112585D01*
X123797765Y-87067206D01*
X123877206Y-86987765D01*
X123922585Y-86884991D01*
X123922584Y-86884991D01*
X123926353Y-86876458D01*
X123929180Y-86877706D01*
X123957473Y-86831656D01*
X124020428Y-86801349D01*
X124059957Y-86801231D01*
X124149998Y-86815492D01*
X124150000Y-86815492D01*
X124150003Y-86815492D01*
X124275300Y-86795647D01*
X124275301Y-86795647D01*
X124275302Y-86795646D01*
X124275304Y-86795646D01*
X124388342Y-86738050D01*
X124478050Y-86648342D01*
X124535646Y-86535304D01*
X124535646Y-86535302D01*
X124535647Y-86535301D01*
X124535647Y-86535300D01*
X124555492Y-86410003D01*
X124555492Y-86409996D01*
X124535647Y-86284699D01*
X124535647Y-86284698D01*
X124518889Y-86251809D01*
X124478050Y-86171658D01*
X124478046Y-86171654D01*
X124478045Y-86171652D01*
X124388347Y-86081954D01*
X124388344Y-86081952D01*
X124388342Y-86081950D01*
X124275304Y-86024354D01*
X124275303Y-86024353D01*
X124275300Y-86024352D01*
X124150003Y-86004508D01*
X124150001Y-86004508D01*
X124150000Y-86004508D01*
X124133871Y-86007062D01*
X124068895Y-86017353D01*
X123999602Y-86008397D01*
X123946151Y-85963400D01*
X123925512Y-85896648D01*
X123925499Y-85894879D01*
X123925499Y-85745143D01*
X123925499Y-85745136D01*
X123925497Y-85745117D01*
X123922586Y-85720012D01*
X123922585Y-85720010D01*
X123922585Y-85720009D01*
X123877206Y-85617235D01*
X123797765Y-85537794D01*
X123797763Y-85537793D01*
X123694992Y-85492415D01*
X123669865Y-85489500D01*
X123280143Y-85489500D01*
X123280117Y-85489502D01*
X123255012Y-85492413D01*
X123255008Y-85492415D01*
X123152235Y-85537793D01*
X123072794Y-85617234D01*
X123027415Y-85720006D01*
X123027415Y-85720008D01*
X123024500Y-85745131D01*
X123024500Y-86859856D01*
X122025500Y-86859856D01*
X122025499Y-85745136D01*
X122025497Y-85745117D01*
X122022586Y-85720012D01*
X122022585Y-85720010D01*
X122022585Y-85720009D01*
X121977206Y-85617235D01*
X121897765Y-85537794D01*
X121897763Y-85537793D01*
X121794992Y-85492415D01*
X121769865Y-85489500D01*
X121380143Y-85489500D01*
X121380117Y-85489502D01*
X121355012Y-85492413D01*
X121355008Y-85492415D01*
X121252235Y-85537793D01*
X121172794Y-85617234D01*
X121127415Y-85720006D01*
X121127415Y-85720008D01*
X121124500Y-85745131D01*
X121124500Y-86859856D01*
X121124502Y-86859877D01*
X121126397Y-86876214D01*
X121114567Y-86945075D01*
X121067387Y-86996609D01*
X121003223Y-87014500D01*
X119521567Y-87014500D01*
X119500491Y-87021347D01*
X119481582Y-87025887D01*
X119459695Y-87029354D01*
X119439952Y-87039413D01*
X119421988Y-87046854D01*
X119400910Y-87053703D01*
X119400905Y-87053706D01*
X119382977Y-87066731D01*
X119366397Y-87076891D01*
X119346660Y-87086948D01*
X119346659Y-87086948D01*
X119335376Y-87098231D01*
X119324094Y-87109513D01*
X119324093Y-87109513D01*
X119324091Y-87109516D01*
X118980849Y-87452756D01*
X118919526Y-87486241D01*
X118856652Y-87481744D01*
X118856199Y-87483259D01*
X118681218Y-87430872D01*
X118681212Y-87430870D01*
X118681210Y-87430870D01*
X118681209Y-87430869D01*
X118681205Y-87430869D01*
X118506066Y-87420669D01*
X118506065Y-87420669D01*
X118475793Y-87426007D01*
X118333293Y-87451134D01*
X118333291Y-87451134D01*
X118333289Y-87451135D01*
X118302593Y-87464376D01*
X118172198Y-87520622D01*
X118172190Y-87520626D01*
X118031469Y-87625390D01*
X117918698Y-87759785D01*
X117918697Y-87759787D01*
X117839961Y-87916562D01*
X117839960Y-87916567D01*
X117799500Y-88087279D01*
X117799500Y-88768709D01*
X117809047Y-88850384D01*
X117814759Y-88899256D01*
X117814760Y-88899259D01*
X117874762Y-89064115D01*
X117874764Y-89064119D01*
X117971167Y-89210693D01*
X117971168Y-89210694D01*
X118098778Y-89331089D01*
X118098780Y-89331090D01*
X118098782Y-89331092D01*
X118250719Y-89418812D01*
X118418790Y-89469130D01*
X118548438Y-89476681D01*
X118548934Y-89476710D01*
X118577486Y-89486931D01*
X118585902Y-89481523D01*
X118599299Y-89478385D01*
X118766711Y-89448865D01*
X118906866Y-89388408D01*
X118976215Y-89379931D01*
X119039143Y-89410294D01*
X119075666Y-89469858D01*
X119074187Y-89539712D01*
X119043657Y-89589949D01*
X118945424Y-89688182D01*
X118884104Y-89721666D01*
X118857745Y-89724500D01*
X118620837Y-89724500D01*
X118583484Y-89713531D01*
X118569682Y-89721307D01*
X118541724Y-89724500D01*
X117991275Y-89724500D01*
X117971879Y-89722973D01*
X117950000Y-89719508D01*
X117949998Y-89719508D01*
X117918481Y-89724500D01*
X117918480Y-89724500D01*
X117824699Y-89739352D01*
X117824698Y-89739352D01*
X117755487Y-89774618D01*
X117711658Y-89796950D01*
X117711657Y-89796951D01*
X117711652Y-89796954D01*
X117621954Y-89886652D01*
X117621951Y-89886657D01*
X117564352Y-89999698D01*
X117564352Y-89999699D01*
X117544508Y-90124996D01*
X117544508Y-90125003D01*
X117564352Y-90250300D01*
X117564352Y-90250301D01*
X117580186Y-90281376D01*
X117621950Y-90363342D01*
X117621952Y-90363344D01*
X117621954Y-90363347D01*
X117711652Y-90453045D01*
X117711654Y-90453046D01*
X117711658Y-90453050D01*
X117824696Y-90510646D01*
X117824697Y-90510646D01*
X117824699Y-90510647D01*
X117915323Y-90525000D01*
X117915324Y-90525000D01*
X117949998Y-90530492D01*
X117950000Y-90530492D01*
X117971879Y-90527026D01*
X117991275Y-90525500D01*
X119076798Y-90525500D01*
X119143837Y-90545185D01*
X119189592Y-90597989D01*
X119199536Y-90667147D01*
X119170511Y-90730703D01*
X119164479Y-90737181D01*
X119088753Y-90812906D01*
X119088750Y-90812911D01*
X119031151Y-90925952D01*
X119031151Y-90925953D01*
X119011307Y-91051250D01*
X119011307Y-91051257D01*
X119031151Y-91176554D01*
X119031151Y-91176555D01*
X119046797Y-91207261D01*
X119088749Y-91289596D01*
X119088751Y-91289598D01*
X119088753Y-91289601D01*
X119178451Y-91379299D01*
X119178453Y-91379300D01*
X119178457Y-91379304D01*
X119291495Y-91436900D01*
X119291496Y-91436900D01*
X119291498Y-91436901D01*
X119416796Y-91456746D01*
X119416799Y-91456746D01*
X119416802Y-91456746D01*
X119542099Y-91436901D01*
X119542100Y-91436901D01*
X119542101Y-91436900D01*
X119542103Y-91436900D01*
X119655141Y-91379304D01*
X119744849Y-91289596D01*
X119802445Y-91176558D01*
X119818976Y-91072182D01*
X119848905Y-91009050D01*
X119853777Y-91003891D01*
X119858360Y-90999309D01*
X119919687Y-90965831D01*
X119946032Y-90963000D01*
X121194493Y-90963000D01*
X121261532Y-90982685D01*
X121307287Y-91035489D01*
X121317196Y-91069119D01*
X121319957Y-91088067D01*
X121374081Y-91198780D01*
X121374082Y-91198781D01*
X121374083Y-91198783D01*
X121376418Y-91202054D01*
X121378227Y-91207261D01*
X121378594Y-91208011D01*
X121378503Y-91208055D01*
X121399352Y-91268052D01*
X121399500Y-91274106D01*
X121399500Y-91934521D01*
X121379815Y-92001560D01*
X121363181Y-92022202D01*
X119508010Y-93877372D01*
X119489222Y-93892791D01*
X119476380Y-93901371D01*
X119476375Y-93901376D01*
X119415485Y-93992505D01*
X119401963Y-94060485D01*
X119400381Y-94068438D01*
X119394103Y-94099999D01*
X119397117Y-94115151D01*
X119399500Y-94139344D01*
X119399500Y-95110655D01*
X119397117Y-95134847D01*
X119394103Y-95149999D01*
X119394103Y-95150002D01*
X119398310Y-95171152D01*
X119398311Y-95171159D01*
X119415483Y-95257492D01*
X119415485Y-95257496D01*
X119442211Y-95297494D01*
X119455581Y-95317504D01*
X119476374Y-95348623D01*
X119478890Y-95350304D01*
X119489222Y-95357207D01*
X119508012Y-95372628D01*
X119615047Y-95479663D01*
X119648532Y-95540986D01*
X119643548Y-95610678D01*
X119601676Y-95666611D01*
X119558500Y-95684860D01*
X119558980Y-95686337D01*
X119549698Y-95689352D01*
X119494256Y-95717602D01*
X119436658Y-95746950D01*
X119436657Y-95746951D01*
X119436652Y-95746954D01*
X119346954Y-95836652D01*
X119346951Y-95836657D01*
X119346950Y-95836658D01*
X119335043Y-95860027D01*
X119289352Y-95949698D01*
X119289352Y-95949699D01*
X119269508Y-96074996D01*
X119269508Y-96075003D01*
X119289352Y-96200300D01*
X119289352Y-96200301D01*
X119289354Y-96200304D01*
X119346950Y-96313342D01*
X119346952Y-96313344D01*
X119346954Y-96313347D01*
X119436652Y-96403045D01*
X119436654Y-96403046D01*
X119436658Y-96403050D01*
X119549696Y-96460646D01*
X119549697Y-96460646D01*
X119549699Y-96460647D01*
X119674997Y-96480492D01*
X119675000Y-96480492D01*
X119675003Y-96480492D01*
X119800300Y-96460647D01*
X119800301Y-96460647D01*
X119800302Y-96460646D01*
X119800304Y-96460646D01*
X119913342Y-96403050D01*
X120003050Y-96313342D01*
X120018884Y-96282263D01*
X120026260Y-96269679D01*
X120032204Y-96260782D01*
X120047624Y-96241990D01*
X120124821Y-96164794D01*
X120186141Y-96131311D01*
X120255833Y-96136295D01*
X120300180Y-96164796D01*
X120512370Y-96376986D01*
X120527790Y-96395775D01*
X120536376Y-96408624D01*
X120554308Y-96420605D01*
X120554331Y-96420622D01*
X120627504Y-96469515D01*
X120627506Y-96469516D01*
X120654493Y-96474884D01*
X120716404Y-96507267D01*
X120750980Y-96567981D01*
X120751924Y-96620680D01*
X120750525Y-96627717D01*
X120750522Y-96627730D01*
X120744812Y-96656438D01*
X120744103Y-96660000D01*
X120745092Y-96664974D01*
X120747117Y-96675151D01*
X120749500Y-96699344D01*
X120749500Y-99460655D01*
X120747117Y-99484847D01*
X120744103Y-99499999D01*
X120744103Y-99500002D01*
X120748310Y-99521152D01*
X120748311Y-99521159D01*
X120765483Y-99607492D01*
X120765484Y-99607494D01*
X120765485Y-99607495D01*
X120784536Y-99636006D01*
X120808845Y-99672388D01*
X120808846Y-99672390D01*
X120826374Y-99698623D01*
X120830585Y-99701436D01*
X120839222Y-99707207D01*
X120858012Y-99722628D01*
X120952369Y-99816985D01*
X120967790Y-99835775D01*
X120976373Y-99848621D01*
X120976374Y-99848622D01*
X120976376Y-99848624D01*
X120994316Y-99860611D01*
X120994341Y-99860630D01*
X121004503Y-99867418D01*
X121004513Y-99867429D01*
X121004515Y-99867427D01*
X121048501Y-99896817D01*
X121067505Y-99909515D01*
X121067508Y-99909515D01*
X121067509Y-99909516D01*
X121153832Y-99926687D01*
X121153839Y-99926687D01*
X121175000Y-99930897D01*
X121190153Y-99927882D01*
X121214344Y-99925500D01*
X121835521Y-99925500D01*
X121902560Y-99945185D01*
X121948315Y-99997989D01*
X121958259Y-100067147D01*
X121929234Y-100130703D01*
X121923202Y-100137181D01*
X121458010Y-100602372D01*
X121439222Y-100617791D01*
X121426376Y-100626374D01*
X121426374Y-100626376D01*
X121419362Y-100636871D01*
X121365749Y-100681675D01*
X121296424Y-100690381D01*
X121266175Y-100681412D01*
X121211500Y-100657270D01*
X121211501Y-100657270D01*
X121187623Y-100654500D01*
X120832384Y-100654500D01*
X120832361Y-100654502D01*
X120808504Y-100657269D01*
X120808501Y-100657269D01*
X120710864Y-100700380D01*
X120710856Y-100700386D01*
X120635386Y-100775856D01*
X120635381Y-100775863D01*
X120592270Y-100873499D01*
X120589500Y-100897375D01*
X120589500Y-101352615D01*
X120589502Y-101352638D01*
X120592269Y-101376495D01*
X120592269Y-101376498D01*
X120635380Y-101474135D01*
X120635386Y-101474143D01*
X120698181Y-101536938D01*
X120731666Y-101598261D01*
X120734500Y-101624619D01*
X120734500Y-102187022D01*
X120714815Y-102254061D01*
X120698181Y-102274703D01*
X120234703Y-102738181D01*
X120173380Y-102771666D01*
X120147022Y-102774500D01*
X119974500Y-102774500D01*
X119907461Y-102754815D01*
X119861706Y-102702011D01*
X119850500Y-102650500D01*
X119850500Y-101652912D01*
X119852883Y-101628719D01*
X119855897Y-101613568D01*
X119855897Y-101613566D01*
X119848531Y-101576535D01*
X119834515Y-101506073D01*
X119796892Y-101449767D01*
X119796893Y-101449766D01*
X119796887Y-101449760D01*
X119788994Y-101437946D01*
X119788992Y-101437944D01*
X119788372Y-101437016D01*
X119785625Y-101432904D01*
X119785616Y-101432892D01*
X119773624Y-101414944D01*
X119773620Y-101414941D01*
X119764986Y-101406306D01*
X119766236Y-101405055D01*
X119730804Y-101362658D01*
X119720500Y-101313168D01*
X119720500Y-101078564D01*
X119722883Y-101054371D01*
X119725897Y-101039219D01*
X119719126Y-101005181D01*
X119704515Y-100931725D01*
X119666930Y-100875475D01*
X119658994Y-100863598D01*
X119658992Y-100863596D01*
X119658822Y-100863342D01*
X119655616Y-100858543D01*
X119655612Y-100858538D01*
X119643624Y-100840596D01*
X119643621Y-100840594D01*
X119643621Y-100840593D01*
X119630775Y-100832010D01*
X119611985Y-100816589D01*
X118478407Y-99683011D01*
X118462985Y-99664219D01*
X118462402Y-99663347D01*
X118454404Y-99651376D01*
X118454401Y-99651373D01*
X118436471Y-99639393D01*
X118436454Y-99639381D01*
X118405424Y-99618648D01*
X118388732Y-99607495D01*
X118388731Y-99607493D01*
X118363277Y-99590486D01*
X118363270Y-99590483D01*
X118276945Y-99573312D01*
X118276932Y-99573310D01*
X118255782Y-99569103D01*
X118255781Y-99569103D01*
X118255780Y-99569103D01*
X118240626Y-99572117D01*
X118216436Y-99574500D01*
X117452765Y-99574500D01*
X117385726Y-99554815D01*
X117365084Y-99538181D01*
X117348857Y-99521954D01*
X117348854Y-99521952D01*
X117348852Y-99521950D01*
X117235814Y-99464354D01*
X117235813Y-99464353D01*
X117235810Y-99464352D01*
X117110513Y-99444508D01*
X117110511Y-99444508D01*
X117110510Y-99444508D01*
X117095092Y-99446950D01*
X117081895Y-99449040D01*
X117012602Y-99440084D01*
X116959151Y-99395087D01*
X116938512Y-99328335D01*
X116938499Y-99326695D01*
X116938499Y-98892378D01*
X116935730Y-98868502D01*
X116933452Y-98863342D01*
X116892619Y-98770864D01*
X116892617Y-98770861D01*
X116892616Y-98770859D01*
X116817141Y-98695384D01*
X116817138Y-98695383D01*
X116817136Y-98695381D01*
X116719500Y-98652270D01*
X116719501Y-98652270D01*
X116695623Y-98649500D01*
X116340384Y-98649500D01*
X116340361Y-98649502D01*
X116316504Y-98652269D01*
X116316501Y-98652269D01*
X116218864Y-98695380D01*
X116218856Y-98695386D01*
X116143386Y-98770856D01*
X116143380Y-98770866D01*
X116121432Y-98820571D01*
X116076345Y-98873947D01*
X116009559Y-98894473D01*
X115942277Y-98875634D01*
X115895862Y-98823409D01*
X115894590Y-98820624D01*
X115875208Y-98776730D01*
X115872617Y-98770861D01*
X115872616Y-98770860D01*
X115872616Y-98770859D01*
X115863409Y-98761652D01*
X115843973Y-98742215D01*
X115810488Y-98680891D01*
X115815474Y-98611200D01*
X115843970Y-98566858D01*
X115898813Y-98512016D01*
X115942682Y-98412662D01*
X115945500Y-98388373D01*
X115945499Y-97961628D01*
X115942682Y-97937338D01*
X115898813Y-97837984D01*
X115875460Y-97814631D01*
X115851473Y-97790643D01*
X115817989Y-97729320D01*
X115822974Y-97659628D01*
X115851471Y-97615285D01*
X115872616Y-97594141D01*
X115915730Y-97496498D01*
X115918500Y-97472623D01*
X115918499Y-97017378D01*
X115915730Y-96993502D01*
X115901671Y-96961661D01*
X115872619Y-96895864D01*
X115872617Y-96895861D01*
X115872616Y-96895859D01*
X115797141Y-96820384D01*
X115797138Y-96820383D01*
X115797136Y-96820381D01*
X115699500Y-96777270D01*
X115699501Y-96777270D01*
X115675623Y-96774500D01*
X115320384Y-96774500D01*
X115320361Y-96774502D01*
X115296504Y-96777269D01*
X115296501Y-96777269D01*
X115198864Y-96820380D01*
X115198856Y-96820386D01*
X115123386Y-96895856D01*
X115123381Y-96895863D01*
X115080270Y-96993499D01*
X115077500Y-97017375D01*
X115077500Y-97472615D01*
X115077502Y-97472638D01*
X115080269Y-97496495D01*
X115080269Y-97496498D01*
X115123380Y-97594135D01*
X115123386Y-97594143D01*
X115161525Y-97632282D01*
X115195010Y-97693605D01*
X115190026Y-97763297D01*
X115161528Y-97807642D01*
X115131187Y-97837984D01*
X115087318Y-97937335D01*
X115087318Y-97937337D01*
X115084500Y-97961625D01*
X115084500Y-98388365D01*
X115084502Y-98388388D01*
X115087317Y-98412659D01*
X115087318Y-98412662D01*
X115131186Y-98512015D01*
X115169025Y-98549854D01*
X115202510Y-98611177D01*
X115197526Y-98680869D01*
X115169027Y-98725215D01*
X115123385Y-98770858D01*
X115123381Y-98770863D01*
X115080270Y-98868499D01*
X115077500Y-98892375D01*
X115077500Y-99347615D01*
X115077502Y-99347638D01*
X115080269Y-99371495D01*
X115080269Y-99371498D01*
X115123380Y-99469135D01*
X115123383Y-99469139D01*
X115123384Y-99469141D01*
X115198859Y-99544616D01*
X115225586Y-99556417D01*
X115278962Y-99601501D01*
X115299490Y-99668287D01*
X115299500Y-99669851D01*
X115299500Y-100109520D01*
X115279815Y-100176559D01*
X115263181Y-100197201D01*
X115233008Y-100227374D01*
X115214218Y-100242795D01*
X115201375Y-100251376D01*
X115186003Y-100274380D01*
X115186004Y-100274381D01*
X115172909Y-100293979D01*
X115140485Y-100342503D01*
X115140459Y-100342634D01*
X115126395Y-100413342D01*
X115119103Y-100449999D01*
X115122117Y-100465151D01*
X115124500Y-100489344D01*
X115124500Y-103585655D01*
X115122117Y-103609847D01*
X115119103Y-103624999D01*
X115119103Y-103625002D01*
X115123310Y-103646152D01*
X115123311Y-103646159D01*
X115140483Y-103732493D01*
X115140484Y-103732495D01*
X115154219Y-103753049D01*
X115154223Y-103753054D01*
X115182655Y-103795608D01*
X115201374Y-103823623D01*
X115204368Y-103825623D01*
X115214222Y-103832207D01*
X115233012Y-103847628D01*
X115408203Y-104022819D01*
X115441688Y-104084142D01*
X115436704Y-104153834D01*
X115394832Y-104209767D01*
X115329368Y-104234184D01*
X115320522Y-104234500D01*
X115022384Y-104234500D01*
X115022361Y-104234502D01*
X114998504Y-104237269D01*
X114998501Y-104237269D01*
X114900864Y-104280380D01*
X114900856Y-104280386D01*
X114817259Y-104363984D01*
X114814660Y-104361385D01*
X114776258Y-104392722D01*
X114706836Y-104400617D01*
X114644166Y-104369725D01*
X114608146Y-104309856D01*
X114604104Y-104278454D01*
X114604104Y-95850003D01*
X118069508Y-95850003D01*
X118089352Y-95975300D01*
X118089352Y-95975301D01*
X118099402Y-95995025D01*
X118146950Y-96088342D01*
X118146952Y-96088344D01*
X118146954Y-96088347D01*
X118236652Y-96178045D01*
X118236654Y-96178046D01*
X118236658Y-96178050D01*
X118349696Y-96235646D01*
X118349697Y-96235646D01*
X118349699Y-96235647D01*
X118474997Y-96255492D01*
X118475000Y-96255492D01*
X118475003Y-96255492D01*
X118600300Y-96235647D01*
X118600301Y-96235647D01*
X118600302Y-96235646D01*
X118600304Y-96235646D01*
X118713342Y-96178050D01*
X118803050Y-96088342D01*
X118860646Y-95975304D01*
X118860646Y-95975302D01*
X118860647Y-95975301D01*
X118860647Y-95975300D01*
X118880492Y-95850003D01*
X118880492Y-95849996D01*
X118860647Y-95724699D01*
X118860647Y-95724698D01*
X118850107Y-95704013D01*
X118803050Y-95611658D01*
X118803046Y-95611654D01*
X118803045Y-95611652D01*
X118713347Y-95521954D01*
X118713344Y-95521952D01*
X118713342Y-95521950D01*
X118600304Y-95464354D01*
X118600303Y-95464353D01*
X118600300Y-95464352D01*
X118475003Y-95444508D01*
X118474997Y-95444508D01*
X118349699Y-95464352D01*
X118349698Y-95464352D01*
X118279140Y-95500304D01*
X118236658Y-95521950D01*
X118236657Y-95521951D01*
X118236652Y-95521954D01*
X118146954Y-95611652D01*
X118146951Y-95611657D01*
X118146950Y-95611658D01*
X118132395Y-95640224D01*
X118089352Y-95724698D01*
X118089352Y-95724699D01*
X118069508Y-95849996D01*
X118069508Y-95850003D01*
X114604104Y-95850003D01*
X114604104Y-93074617D01*
X114175661Y-92509073D01*
X114150869Y-92443750D01*
X114150500Y-92434195D01*
X114150500Y-86997635D01*
X114170185Y-86930596D01*
X114213477Y-86889690D01*
X114369745Y-86801349D01*
X114463675Y-86748248D01*
X114781063Y-86569405D01*
X114786408Y-86566567D01*
X115122766Y-86398557D01*
X115423380Y-86250003D01*
X118394508Y-86250003D01*
X118414352Y-86375300D01*
X118414352Y-86375301D01*
X118414354Y-86375304D01*
X118471950Y-86488342D01*
X118471952Y-86488344D01*
X118471954Y-86488347D01*
X118561652Y-86578045D01*
X118561654Y-86578046D01*
X118561658Y-86578050D01*
X118674696Y-86635646D01*
X118674697Y-86635646D01*
X118674699Y-86635647D01*
X118799997Y-86655492D01*
X118800000Y-86655492D01*
X118800003Y-86655492D01*
X118925300Y-86635647D01*
X118925301Y-86635647D01*
X118925302Y-86635646D01*
X118925304Y-86635646D01*
X119038342Y-86578050D01*
X119128050Y-86488342D01*
X119185646Y-86375304D01*
X119185646Y-86375302D01*
X119185647Y-86375301D01*
X119185647Y-86375300D01*
X119205492Y-86250003D01*
X119205492Y-86249996D01*
X119185647Y-86124699D01*
X119185647Y-86124698D01*
X119166946Y-86087996D01*
X119128050Y-86011658D01*
X119128046Y-86011654D01*
X119128045Y-86011652D01*
X119038347Y-85921954D01*
X119038344Y-85921952D01*
X119038342Y-85921950D01*
X118925304Y-85864354D01*
X118925303Y-85864353D01*
X118925300Y-85864352D01*
X118800003Y-85844508D01*
X118799997Y-85844508D01*
X118674699Y-85864352D01*
X118674698Y-85864352D01*
X118599337Y-85902751D01*
X118561658Y-85921950D01*
X118561657Y-85921951D01*
X118561652Y-85921954D01*
X118471954Y-86011652D01*
X118471951Y-86011657D01*
X118471950Y-86011658D01*
X118465482Y-86024352D01*
X118414352Y-86124698D01*
X118414352Y-86124699D01*
X118394508Y-86249996D01*
X118394508Y-86250003D01*
X115423380Y-86250003D01*
X115441396Y-86241100D01*
X115446548Y-86238703D01*
X115790733Y-86088306D01*
X115791450Y-86087996D01*
X116118055Y-85948041D01*
X116123065Y-85946024D01*
X116474526Y-85813459D01*
X116475259Y-85813187D01*
X116809214Y-85691015D01*
X116814009Y-85689372D01*
X117171869Y-85574976D01*
X117172825Y-85574678D01*
X117512989Y-85470727D01*
X117517453Y-85469456D01*
X117880522Y-85373603D01*
X117882105Y-85373199D01*
X118227320Y-85287823D01*
X118231511Y-85286865D01*
X118598930Y-85209767D01*
X118600943Y-85209364D01*
X118950312Y-85142783D01*
X118954142Y-85142119D01*
X119325092Y-85083947D01*
X119327516Y-85083594D01*
X119679848Y-85036031D01*
X119683338Y-85035612D01*
X120056826Y-84996526D01*
X120059577Y-84996272D01*
X120414093Y-84967832D01*
X120417174Y-84967626D01*
X120792103Y-84947742D01*
X120795377Y-84947613D01*
X121150703Y-84938401D01*
X121153577Y-84938360D01*
X121529007Y-84937720D01*
X121532590Y-84937768D01*
G37*
%TD.AperFunction*%
%TA.AperFunction,Conductor*%
G36*
X123967539Y-104945185D02*
G01*
X124013294Y-104997989D01*
X124024500Y-105049500D01*
X124024500Y-107058745D01*
X124004815Y-107125784D01*
X123952011Y-107171539D01*
X123882853Y-107181483D01*
X123819297Y-107152458D01*
X123812819Y-107146426D01*
X123788347Y-107121954D01*
X123788344Y-107121952D01*
X123788342Y-107121950D01*
X123675304Y-107064354D01*
X123675303Y-107064353D01*
X123675300Y-107064352D01*
X123550003Y-107044508D01*
X123549997Y-107044508D01*
X123424699Y-107064352D01*
X123424698Y-107064352D01*
X123360982Y-107096818D01*
X123311658Y-107121950D01*
X123311657Y-107121951D01*
X123311652Y-107121954D01*
X123237681Y-107195926D01*
X123176358Y-107229411D01*
X123106666Y-107224427D01*
X123062319Y-107195926D01*
X122981442Y-107115049D01*
X122983232Y-107113258D01*
X122949297Y-107069241D01*
X122943325Y-106999627D01*
X122975937Y-106937836D01*
X122977034Y-106936722D01*
X123039616Y-106874141D01*
X123082730Y-106776498D01*
X123085500Y-106752623D01*
X123085499Y-106297378D01*
X123082730Y-106273502D01*
X123078086Y-106262984D01*
X123039619Y-106175864D01*
X123039617Y-106175861D01*
X123039616Y-106175859D01*
X122976818Y-106113061D01*
X122943334Y-106051737D01*
X122940500Y-106025380D01*
X122940500Y-105350478D01*
X122960185Y-105283439D01*
X122976819Y-105262797D01*
X123277797Y-104961819D01*
X123339120Y-104928334D01*
X123365478Y-104925500D01*
X123900500Y-104925500D01*
X123967539Y-104945185D01*
G37*
%TD.AperFunction*%
%TA.AperFunction,Conductor*%
G36*
X124551561Y-95095185D02*
G01*
X124572203Y-95111819D01*
X124828181Y-95367797D01*
X124861666Y-95429120D01*
X124864500Y-95455477D01*
X124864500Y-95563364D01*
X124864502Y-95563388D01*
X124867317Y-95587659D01*
X124867318Y-95587662D01*
X124911186Y-95687015D01*
X124996109Y-95771938D01*
X124994008Y-95774038D01*
X125026897Y-95814336D01*
X125034797Y-95883757D01*
X125003912Y-95946430D01*
X124995142Y-95954028D01*
X124911187Y-96037983D01*
X124867318Y-96137335D01*
X124867318Y-96137337D01*
X124864500Y-96161625D01*
X124864500Y-96344519D01*
X124844815Y-96411558D01*
X124828181Y-96432200D01*
X124497350Y-96763030D01*
X124436027Y-96796515D01*
X124429067Y-96797822D01*
X124324697Y-96814352D01*
X124324696Y-96814352D01*
X124249335Y-96852751D01*
X124211656Y-96871950D01*
X124211655Y-96871951D01*
X124211650Y-96871954D01*
X124121952Y-96961652D01*
X124121945Y-96961661D01*
X124079983Y-97044017D01*
X124032009Y-97094813D01*
X123964188Y-97111608D01*
X123898053Y-97089070D01*
X123854602Y-97034355D01*
X123845499Y-96987722D01*
X123845499Y-96877384D01*
X123845499Y-96877378D01*
X123842730Y-96853502D01*
X123837213Y-96841007D01*
X123799619Y-96755864D01*
X123799617Y-96755861D01*
X123799616Y-96755859D01*
X123724141Y-96680384D01*
X123724140Y-96680383D01*
X123724139Y-96680382D01*
X123719422Y-96677151D01*
X123675240Y-96623025D01*
X123665500Y-96574852D01*
X123665500Y-95921691D01*
X123685185Y-95854652D01*
X123701819Y-95834010D01*
X123729987Y-95805842D01*
X123773813Y-95762016D01*
X123817682Y-95662662D01*
X123820500Y-95638373D01*
X123820499Y-95211628D01*
X123820498Y-95211622D01*
X123820292Y-95208051D01*
X123821744Y-95207967D01*
X123832590Y-95144905D01*
X123879780Y-95093380D01*
X123943924Y-95075500D01*
X124484522Y-95075500D01*
X124551561Y-95095185D01*
G37*
%TD.AperFunction*%
%TD*%
M02*
