%TF.GenerationSoftware,KiCad,Pcbnew,7.0.10*%
%TF.CreationDate,2025-12-17T19:57:45-05:00*%
%TF.ProjectId,MiniBot,4d696e69-426f-4742-9e6b-696361645f70,rev?*%
%TF.SameCoordinates,Original*%
%TF.FileFunction,Copper,L3,Inr*%
%TF.FilePolarity,Positive*%
%FSLAX46Y46*%
G04 Gerber Fmt 4.6, Leading zero omitted, Abs format (unit mm)*
G04 Created by KiCad (PCBNEW 7.0.10) date 2025-12-17 19:57:45*
%MOMM*%
%LPD*%
G01*
G04 APERTURE LIST*
G04 Aperture macros list*
%AMRoundRect*
0 Rectangle with rounded corners*
0 $1 Rounding radius*
0 $2 $3 $4 $5 $6 $7 $8 $9 X,Y pos of 4 corners*
0 Add a 4 corners polygon primitive as box body*
4,1,4,$2,$3,$4,$5,$6,$7,$8,$9,$2,$3,0*
0 Add four circle primitives for the rounded corners*
1,1,$1+$1,$2,$3*
1,1,$1+$1,$4,$5*
1,1,$1+$1,$6,$7*
1,1,$1+$1,$8,$9*
0 Add four rect primitives between the rounded corners*
20,1,$1+$1,$2,$3,$4,$5,0*
20,1,$1+$1,$4,$5,$6,$7,0*
20,1,$1+$1,$6,$7,$8,$9,0*
20,1,$1+$1,$8,$9,$2,$3,0*%
G04 Aperture macros list end*
%TA.AperFunction,ComponentPad*%
%ADD10RoundRect,0.250000X-0.350000X-0.625000X0.350000X-0.625000X0.350000X0.625000X-0.350000X0.625000X0*%
%TD*%
%TA.AperFunction,ComponentPad*%
%ADD11O,1.200000X1.750000*%
%TD*%
%TA.AperFunction,ViaPad*%
%ADD12C,0.500000*%
%TD*%
%TA.AperFunction,ViaPad*%
%ADD13C,0.800000*%
%TD*%
%TA.AperFunction,Conductor*%
%ADD14C,0.500000*%
%TD*%
%TA.AperFunction,Conductor*%
%ADD15C,0.250000*%
%TD*%
G04 APERTURE END LIST*
D10*
%TO.N,GND*%
%TO.C,J2*%
X116550000Y-88450000D03*
D11*
%TO.N,+BATT*%
X118550000Y-88450000D03*
%TD*%
D12*
%TO.N,GND*%
X114890000Y-110030000D03*
X125680000Y-89770000D03*
X120060000Y-89820000D03*
X117565000Y-106250002D03*
X129390000Y-95020000D03*
X125250000Y-105450000D03*
X121835000Y-106603058D03*
X117833448Y-98336552D03*
X120700000Y-86040000D03*
X118860000Y-100660000D03*
X125050000Y-110960000D03*
X115440000Y-106780000D03*
X131880000Y-91770000D03*
X115340000Y-89690000D03*
X124320000Y-94440000D03*
X115450000Y-92750000D03*
X131840000Y-107320000D03*
X118890000Y-107770000D03*
X123680000Y-107710000D03*
X129500000Y-102630000D03*
X127860000Y-107470000D03*
X126580000Y-99260000D03*
X122325000Y-97685000D03*
X124449998Y-95630000D03*
X126050002Y-98140000D03*
D13*
%TO.N,VDC*%
X122783712Y-107791684D03*
D12*
X122730000Y-91230000D03*
D13*
X117090000Y-106910000D03*
D12*
X122490000Y-94905000D03*
D13*
X131090000Y-99310000D03*
D12*
%TO.N,+3V3*%
X119030000Y-86030000D03*
X134150000Y-99200000D03*
X129480000Y-108230000D03*
X118470000Y-109480000D03*
X121888137Y-107880840D03*
D13*
X117620000Y-89699960D03*
D12*
X117360000Y-108530000D03*
X119337758Y-96528328D03*
X120900000Y-96370000D03*
X130950000Y-105030000D03*
X129950000Y-91730000D03*
X128000000Y-106760000D03*
X120230000Y-92550000D03*
%TO.N,/CC1*%
X126558984Y-96970000D03*
%TO.N,/CC2*%
X129500002Y-100067215D03*
D13*
%TO.N,+5V*%
X122660000Y-88650000D03*
X127550000Y-92410000D03*
D12*
%TO.N,/RST*%
X124440000Y-92560000D03*
%TO.N,/GPIO9*%
X128100000Y-105260000D03*
X126140000Y-105130000D03*
%TO.N,Net-(D2-K)*%
X124870000Y-86240000D03*
%TO.N,/M1_B1*%
X121800000Y-109800000D03*
X124710000Y-109800000D03*
%TO.N,/M0_B1*%
X119155000Y-106900000D03*
X119607872Y-112126303D03*
%TO.N,/M0_B2*%
X123995000Y-109270000D03*
X119300000Y-109420000D03*
%TO.N,Net-(U3-STAT)*%
X124179764Y-86309027D03*
%TO.N,/VREF*%
X119920000Y-102650000D03*
X126125230Y-102053750D03*
%TO.N,/M_EN*%
X126045000Y-100803750D03*
X117249998Y-98030000D03*
%TO.N,/M_RST*%
X117670000Y-96449998D03*
X117561257Y-94402672D03*
X123750000Y-99090000D03*
%TO.N,/M0_STEP*%
X116247804Y-94991874D03*
%TO.N,/M0_DIR*%
X116300000Y-95730000D03*
%TO.N,/M1_STEP*%
X120670000Y-103820000D03*
%TO.N,/M1_DIR*%
X120215000Y-103295000D03*
%TO.N,/GPIO0*%
X127540000Y-89810000D03*
X125915000Y-94270000D03*
%TO.N,/MODE1*%
X117360000Y-109670000D03*
X123530000Y-98320000D03*
%TO.N,/MODE2*%
X120966120Y-109835882D03*
X123449709Y-99887484D03*
X116465812Y-96879885D03*
%TD*%
D14*
%TO.N,VDC*%
X125120000Y-103770000D02*
X127330000Y-103770000D01*
X122783712Y-106143712D02*
X122783712Y-107791684D01*
X128090000Y-103010000D02*
X128090000Y-100170000D01*
X122490000Y-91470000D02*
X122730000Y-91230000D01*
X128950000Y-98370000D02*
X126900000Y-96320000D01*
X127330000Y-103770000D02*
X128090000Y-103010000D01*
X128950000Y-99310000D02*
X128950000Y-98370000D01*
X117930000Y-107070000D02*
X119270000Y-105730000D01*
X117250000Y-107070000D02*
X117930000Y-107070000D01*
X128090000Y-100170000D02*
X128950000Y-99310000D01*
X126900000Y-96320000D02*
X123905000Y-96320000D01*
X123905000Y-96320000D02*
X122490000Y-94905000D01*
X122370000Y-105730000D02*
X123160000Y-105730000D01*
X122370000Y-105730000D02*
X122783712Y-106143712D01*
X117090000Y-106910000D02*
X117250000Y-107070000D01*
X119270000Y-105730000D02*
X122370000Y-105730000D01*
X123160000Y-105730000D02*
X125120000Y-103770000D01*
X122490000Y-94905000D02*
X122490000Y-91470000D01*
X128950000Y-99310000D02*
X131090000Y-99310000D01*
D15*
%TO.N,+3V3*%
X118470000Y-109480000D02*
X120069160Y-107880840D01*
X117360000Y-108530000D02*
X117520000Y-108530000D01*
X120069160Y-107880840D02*
X121888137Y-107880840D01*
X117520000Y-108530000D02*
X118470000Y-109480000D01*
D14*
%TO.N,+5V*%
X122660000Y-88650000D02*
X126420000Y-92410000D01*
X126420000Y-92410000D02*
X127550000Y-92410000D01*
D15*
%TO.N,/GPIO9*%
X127970000Y-105130000D02*
X128100000Y-105260000D01*
X126140000Y-105130000D02*
X127970000Y-105130000D01*
%TO.N,/VREF*%
X120516250Y-102053750D02*
X119920000Y-102650000D01*
X126125230Y-102053750D02*
X120516250Y-102053750D01*
%TO.N,/M_RST*%
X117561257Y-96341255D02*
X117670000Y-96449998D01*
X117561257Y-94402672D02*
X117561257Y-96341255D01*
%TO.N,/GPIO0*%
X128490000Y-92440000D02*
X126660000Y-94270000D01*
X127540000Y-89810000D02*
X128490000Y-90760000D01*
X128490000Y-90760000D02*
X128490000Y-92440000D01*
X126660000Y-94270000D02*
X125915000Y-94270000D01*
%TO.N,/MODE1*%
X116390000Y-108700000D02*
X116390000Y-100570000D01*
X118640000Y-98320000D02*
X123530000Y-98320000D01*
X116390000Y-100570000D02*
X118640000Y-98320000D01*
X117360000Y-109670000D02*
X116390000Y-108700000D01*
%TO.N,/MODE2*%
X115990000Y-97355697D02*
X116465812Y-96879885D01*
X123449709Y-99887484D02*
X123842516Y-99887484D01*
X115990000Y-109340000D02*
X115990000Y-97355697D01*
X123842516Y-99887484D02*
X124360000Y-99370000D01*
X117210000Y-110560000D02*
X115990000Y-109340000D01*
X117520000Y-97570000D02*
X116829885Y-96879885D01*
X123019999Y-97060000D02*
X122020000Y-97060000D01*
X116829885Y-96879885D02*
X116465812Y-96879885D01*
X120434118Y-109835882D02*
X119710000Y-110560000D01*
X121510000Y-97570000D02*
X117520000Y-97570000D01*
X119710000Y-110560000D02*
X117210000Y-110560000D01*
X120966120Y-109835882D02*
X120434118Y-109835882D01*
X124360000Y-99370000D02*
X124360000Y-98400001D01*
X122020000Y-97060000D02*
X121510000Y-97570000D01*
X124360000Y-98400001D02*
X123019999Y-97060000D01*
%TD*%
%TA.AperFunction,Conductor*%
%TO.N,VDC*%
G36*
X121532590Y-84937768D02*
G01*
X121887996Y-84947796D01*
X121890440Y-84947891D01*
X122265436Y-84966499D01*
X122269399Y-84966761D01*
X122623711Y-84996002D01*
X122625770Y-84996191D01*
X122999316Y-85033995D01*
X123003637Y-85034510D01*
X123355978Y-85082896D01*
X123357440Y-85083108D01*
X123728663Y-85140027D01*
X123733313Y-85140832D01*
X124082433Y-85208194D01*
X124083724Y-85208452D01*
X124451482Y-85284313D01*
X124456345Y-85285421D01*
X124801443Y-85371606D01*
X124802141Y-85371784D01*
X125165690Y-85466439D01*
X125170824Y-85467897D01*
X125510499Y-85572550D01*
X125511341Y-85572813D01*
X125737794Y-85644352D01*
X125869296Y-85685895D01*
X125874775Y-85687768D01*
X126208319Y-85810656D01*
X126560481Y-85942115D01*
X126566161Y-85944399D01*
X126787848Y-86039996D01*
X126892157Y-86084977D01*
X127102746Y-86176143D01*
X127156447Y-86220841D01*
X127177458Y-86287476D01*
X127160841Y-86351986D01*
X126346595Y-87760810D01*
X126346046Y-87761441D01*
X126334467Y-87781712D01*
X126334413Y-87782120D01*
X126334414Y-87782123D01*
X126334487Y-87782218D01*
X126334564Y-87782318D01*
X126334666Y-87782450D01*
X126355803Y-87794646D01*
X126355968Y-87794703D01*
X126875665Y-88094750D01*
X128444707Y-89000636D01*
X128492923Y-89051203D01*
X128506033Y-89095115D01*
X128515274Y-89183407D01*
X128515276Y-89183424D01*
X128580815Y-89469128D01*
X128583339Y-89480131D01*
X128625195Y-89595841D01*
X128686889Y-89766396D01*
X128824397Y-90037988D01*
X128993816Y-90290873D01*
X128993828Y-90290890D01*
X129092725Y-90405517D01*
X129192684Y-90521375D01*
X129418030Y-90726041D01*
X129627319Y-90874116D01*
X129666533Y-90901861D01*
X129666543Y-90901867D01*
X129934529Y-91046244D01*
X129934531Y-91046245D01*
X130053381Y-91092694D01*
X130108656Y-91135431D01*
X130132051Y-91201268D01*
X130116138Y-91269301D01*
X130065969Y-91317931D01*
X129997473Y-91331718D01*
X129988847Y-91330660D01*
X129950003Y-91324508D01*
X129949997Y-91324508D01*
X129824699Y-91344352D01*
X129824698Y-91344352D01*
X129750792Y-91382010D01*
X129711658Y-91401950D01*
X129711657Y-91401951D01*
X129711652Y-91401954D01*
X129621954Y-91491652D01*
X129621951Y-91491657D01*
X129564352Y-91604698D01*
X129564352Y-91604699D01*
X129544508Y-91729996D01*
X129544508Y-91730003D01*
X129564352Y-91855300D01*
X129564352Y-91855301D01*
X129573712Y-91873670D01*
X129621950Y-91968342D01*
X129621952Y-91968344D01*
X129621954Y-91968347D01*
X129711652Y-92058045D01*
X129711654Y-92058046D01*
X129711658Y-92058050D01*
X129824696Y-92115646D01*
X129824697Y-92115646D01*
X129824699Y-92115647D01*
X129949997Y-92135492D01*
X129950000Y-92135492D01*
X129950003Y-92135492D01*
X130075300Y-92115647D01*
X130075301Y-92115647D01*
X130075302Y-92115646D01*
X130075304Y-92115646D01*
X130188342Y-92058050D01*
X130278050Y-91968342D01*
X130335646Y-91855304D01*
X130335646Y-91855302D01*
X130335647Y-91855301D01*
X130335647Y-91855300D01*
X130355492Y-91730003D01*
X130355492Y-91729996D01*
X130335647Y-91604699D01*
X130335647Y-91604698D01*
X130335646Y-91604696D01*
X130278050Y-91491658D01*
X130278046Y-91491654D01*
X130278045Y-91491652D01*
X130188347Y-91401954D01*
X130188343Y-91401951D01*
X130188342Y-91401950D01*
X130188340Y-91401949D01*
X130180450Y-91396217D01*
X130181496Y-91394777D01*
X130139172Y-91354798D01*
X130122382Y-91286976D01*
X130144925Y-91220842D01*
X130199644Y-91177395D01*
X130269165Y-91170428D01*
X130277050Y-91172178D01*
X130512942Y-91232656D01*
X130814813Y-91271933D01*
X130967016Y-91273119D01*
X131119212Y-91274305D01*
X131119212Y-91274304D01*
X131119219Y-91274305D01*
X131421665Y-91239737D01*
X131569322Y-91204323D01*
X131639102Y-91207829D01*
X131695911Y-91248505D01*
X131721710Y-91313437D01*
X131708308Y-91382010D01*
X131659961Y-91432451D01*
X131654540Y-91435386D01*
X131641658Y-91441949D01*
X131641652Y-91441954D01*
X131551954Y-91531652D01*
X131551951Y-91531657D01*
X131494352Y-91644698D01*
X131494352Y-91644699D01*
X131474508Y-91769996D01*
X131474508Y-91770003D01*
X131494352Y-91895300D01*
X131494352Y-91895301D01*
X131494354Y-91895304D01*
X131551950Y-92008342D01*
X131551952Y-92008344D01*
X131551954Y-92008347D01*
X131641652Y-92098045D01*
X131641654Y-92098046D01*
X131641658Y-92098050D01*
X131754696Y-92155646D01*
X131754697Y-92155646D01*
X131754699Y-92155647D01*
X131879997Y-92175492D01*
X131880000Y-92175492D01*
X131880003Y-92175492D01*
X132005300Y-92155647D01*
X132005301Y-92155647D01*
X132005302Y-92155646D01*
X132005304Y-92155646D01*
X132118342Y-92098050D01*
X132208050Y-92008342D01*
X132265646Y-91895304D01*
X132265646Y-91895302D01*
X132265647Y-91895301D01*
X132265647Y-91895300D01*
X132285492Y-91770003D01*
X132285492Y-91769996D01*
X132265647Y-91644699D01*
X132265647Y-91644698D01*
X132265646Y-91644696D01*
X132208050Y-91531658D01*
X132208046Y-91531654D01*
X132208045Y-91531652D01*
X132118347Y-91441954D01*
X132118344Y-91441952D01*
X132118342Y-91441950D01*
X132005304Y-91384354D01*
X132005303Y-91384353D01*
X132005300Y-91384352D01*
X131870362Y-91362981D01*
X131870563Y-91361706D01*
X131813064Y-91344823D01*
X131767309Y-91292019D01*
X131757365Y-91222861D01*
X131786390Y-91159305D01*
X131836771Y-91124326D01*
X131921582Y-91092694D01*
X132002909Y-91062362D01*
X132273124Y-90922175D01*
X132524340Y-90750247D01*
X132533758Y-90741963D01*
X132597094Y-90712469D01*
X132666324Y-90721898D01*
X132717521Y-90764371D01*
X132811042Y-90899120D01*
X132950997Y-91100773D01*
X132970927Y-91129488D01*
X132970962Y-91129594D01*
X132970988Y-91129577D01*
X133046720Y-91238896D01*
X133050150Y-91244124D01*
X133284314Y-91621450D01*
X133284404Y-91621768D01*
X133284482Y-91621721D01*
X133431157Y-91859429D01*
X133434203Y-91864647D01*
X133634783Y-92228236D01*
X133635038Y-92228701D01*
X133782710Y-92499109D01*
X133785383Y-92504290D01*
X133961640Y-92866550D01*
X133961963Y-92867218D01*
X134100442Y-93156217D01*
X134102754Y-93161337D01*
X134257553Y-93525911D01*
X134257923Y-93526791D01*
X134383502Y-93828991D01*
X134385467Y-93834027D01*
X134519894Y-94202022D01*
X134520289Y-94203119D01*
X134631106Y-94515563D01*
X134632732Y-94520471D01*
X134712795Y-94780266D01*
X134747271Y-94892137D01*
X134747669Y-94893456D01*
X134842585Y-95214062D01*
X134843903Y-95218867D01*
X134938739Y-95593954D01*
X134939119Y-95595498D01*
X135017382Y-95922637D01*
X135018402Y-95927296D01*
X135093580Y-96305236D01*
X135093919Y-96307007D01*
X135155005Y-96639271D01*
X135155747Y-96643768D01*
X135211298Y-97024038D01*
X135211573Y-97026033D01*
X135255108Y-97362130D01*
X135255590Y-97366449D01*
X135291484Y-97748145D01*
X135291673Y-97750364D01*
X135317406Y-98089167D01*
X135317650Y-98093294D01*
X135333898Y-98475685D01*
X135333978Y-98478122D01*
X135341738Y-98818424D01*
X135341765Y-98822346D01*
X135338390Y-99204635D01*
X135338338Y-99207285D01*
X135328048Y-99547870D01*
X135327881Y-99551576D01*
X135304926Y-99932906D01*
X135304721Y-99935761D01*
X135276376Y-100275631D01*
X135276036Y-100279112D01*
X135233582Y-100658562D01*
X135233202Y-100661613D01*
X135186876Y-100999605D01*
X135186387Y-101002855D01*
X135124543Y-101379567D01*
X135123968Y-101382802D01*
X135059791Y-101717915D01*
X135059175Y-101720928D01*
X134978088Y-102094012D01*
X134977297Y-102097418D01*
X134895501Y-102428482D01*
X134894783Y-102431253D01*
X134794611Y-102799924D01*
X134793584Y-102803490D01*
X134694435Y-103129511D01*
X134693637Y-103132038D01*
X134574610Y-103495346D01*
X134573330Y-103499054D01*
X134457198Y-103818951D01*
X134456344Y-103821234D01*
X134318674Y-104178406D01*
X134317123Y-104182238D01*
X134184424Y-104495019D01*
X134183536Y-104497061D01*
X134027487Y-104847256D01*
X134025649Y-104851194D01*
X133876932Y-105155756D01*
X133876033Y-105157559D01*
X133701828Y-105500090D01*
X133699688Y-105504114D01*
X133535632Y-105799312D01*
X133534745Y-105800881D01*
X133342617Y-106135056D01*
X133340160Y-106139145D01*
X133161394Y-106424120D01*
X133160540Y-106425461D01*
X132950798Y-106750481D01*
X132948013Y-106754613D01*
X132755613Y-107027993D01*
X132754814Y-107029115D01*
X132527425Y-107344701D01*
X132524300Y-107348851D01*
X132463923Y-107425647D01*
X132407015Y-107466183D01*
X132337224Y-107469516D01*
X132276711Y-107434589D01*
X132244687Y-107372491D01*
X132243970Y-107329609D01*
X132245492Y-107320000D01*
X132245492Y-107319996D01*
X132225647Y-107194699D01*
X132225647Y-107194698D01*
X132213124Y-107170121D01*
X132168050Y-107081658D01*
X132168046Y-107081654D01*
X132168045Y-107081652D01*
X132078347Y-106991954D01*
X132078344Y-106991952D01*
X132078342Y-106991950D01*
X131965304Y-106934354D01*
X131965303Y-106934353D01*
X131965300Y-106934352D01*
X131840003Y-106914508D01*
X131839997Y-106914508D01*
X131714699Y-106934352D01*
X131714698Y-106934352D01*
X131639337Y-106972751D01*
X131601658Y-106991950D01*
X131601657Y-106991951D01*
X131601652Y-106991954D01*
X131511954Y-107081652D01*
X131511951Y-107081657D01*
X131511950Y-107081658D01*
X131507059Y-107091258D01*
X131454352Y-107194698D01*
X131454352Y-107194699D01*
X131434508Y-107319996D01*
X131434508Y-107320003D01*
X131454352Y-107445300D01*
X131454352Y-107445301D01*
X131467782Y-107471658D01*
X131511950Y-107558342D01*
X131511952Y-107558344D01*
X131511954Y-107558347D01*
X131601652Y-107648045D01*
X131601654Y-107648046D01*
X131601658Y-107648050D01*
X131714696Y-107705646D01*
X131714697Y-107705646D01*
X131714699Y-107705647D01*
X131839997Y-107725492D01*
X131840000Y-107725492D01*
X131840002Y-107725492D01*
X131965923Y-107705548D01*
X132035216Y-107714503D01*
X132088668Y-107759499D01*
X132109308Y-107826250D01*
X132090583Y-107893564D01*
X132082077Y-107905573D01*
X132073661Y-107916073D01*
X132070189Y-107920217D01*
X131854511Y-108166487D01*
X131853879Y-108167202D01*
X131590725Y-108463060D01*
X131586897Y-108467172D01*
X131363322Y-108696693D01*
X131362803Y-108697223D01*
X131079919Y-108984175D01*
X131075729Y-108988230D01*
X130849417Y-109197173D01*
X130849028Y-109197531D01*
X130542677Y-109477957D01*
X130538122Y-109481927D01*
X130323151Y-109660261D01*
X130322905Y-109660464D01*
X129980388Y-109943122D01*
X129975467Y-109946979D01*
X129868678Y-110026408D01*
X129868592Y-110026472D01*
X129511879Y-110291312D01*
X129446318Y-110315470D01*
X129378105Y-110300349D01*
X129330574Y-110253752D01*
X128512841Y-108837394D01*
X128512793Y-108837254D01*
X128512789Y-108837257D01*
X128500469Y-108815883D01*
X128500141Y-108815631D01*
X128500140Y-108815631D01*
X128500133Y-108815631D01*
X128499729Y-108815684D01*
X128479629Y-108827136D01*
X128478942Y-108827732D01*
X126356041Y-110053391D01*
X126355872Y-110053449D01*
X126355884Y-110053470D01*
X126334663Y-110065687D01*
X126334414Y-110066012D01*
X126334413Y-110066015D01*
X126334467Y-110066424D01*
X126346847Y-110087832D01*
X126346843Y-110087834D01*
X126346938Y-110087942D01*
X126936996Y-111109952D01*
X127160988Y-111497918D01*
X127177461Y-111565818D01*
X127154608Y-111631845D01*
X127102864Y-111673712D01*
X126916273Y-111754490D01*
X126916108Y-111754562D01*
X126565900Y-111905568D01*
X126560168Y-111907872D01*
X126219912Y-112034888D01*
X126219415Y-112035072D01*
X125874421Y-112162181D01*
X125868907Y-112164067D01*
X125518471Y-112274779D01*
X125517627Y-112275042D01*
X125170377Y-112382032D01*
X125165110Y-112383528D01*
X124807764Y-112476571D01*
X124806567Y-112476877D01*
X124455795Y-112564484D01*
X124450801Y-112565622D01*
X124088066Y-112640453D01*
X124086507Y-112640764D01*
X123732591Y-112709057D01*
X123727893Y-112709870D01*
X123361279Y-112766090D01*
X123359356Y-112766370D01*
X123002786Y-112815344D01*
X122998401Y-112815867D01*
X122628963Y-112853264D01*
X122626677Y-112853474D01*
X122268377Y-112883053D01*
X122264323Y-112883320D01*
X121893291Y-112901739D01*
X121890644Y-112901843D01*
X121531446Y-112911989D01*
X121527737Y-112912038D01*
X121156066Y-112911416D01*
X121153064Y-112911374D01*
X120793971Y-112902074D01*
X120790618Y-112901942D01*
X120419488Y-112882271D01*
X120416139Y-112882048D01*
X120058019Y-112853331D01*
X120055030Y-112853055D01*
X119685448Y-112814393D01*
X119681764Y-112813952D01*
X119325643Y-112765890D01*
X119323022Y-112765508D01*
X118955981Y-112707965D01*
X118951979Y-112707270D01*
X118598794Y-112639978D01*
X118596542Y-112639527D01*
X118233171Y-112563295D01*
X118228866Y-112562312D01*
X117879498Y-112475925D01*
X117877616Y-112475444D01*
X117518949Y-112380772D01*
X117514363Y-112379466D01*
X117169645Y-112274142D01*
X117168128Y-112273668D01*
X116815344Y-112160915D01*
X116810498Y-112159255D01*
X116720417Y-112126306D01*
X119202380Y-112126306D01*
X119222224Y-112251603D01*
X119222224Y-112251604D01*
X119222226Y-112251607D01*
X119279822Y-112364645D01*
X119279824Y-112364647D01*
X119279826Y-112364650D01*
X119369524Y-112454348D01*
X119369526Y-112454349D01*
X119369530Y-112454353D01*
X119482568Y-112511949D01*
X119482569Y-112511949D01*
X119482571Y-112511950D01*
X119607869Y-112531795D01*
X119607872Y-112531795D01*
X119607875Y-112531795D01*
X119733172Y-112511950D01*
X119733173Y-112511950D01*
X119733174Y-112511949D01*
X119733176Y-112511949D01*
X119846214Y-112454353D01*
X119935922Y-112364645D01*
X119993518Y-112251607D01*
X119993518Y-112251605D01*
X119993519Y-112251604D01*
X119993519Y-112251603D01*
X120013364Y-112126306D01*
X120013364Y-112126299D01*
X119993519Y-112001002D01*
X119993519Y-112001001D01*
X119993518Y-112000999D01*
X119935922Y-111887961D01*
X119935918Y-111887957D01*
X119935917Y-111887955D01*
X119846219Y-111798257D01*
X119846216Y-111798255D01*
X119846214Y-111798253D01*
X119733176Y-111740657D01*
X119733175Y-111740656D01*
X119733172Y-111740655D01*
X119607875Y-111720811D01*
X119607869Y-111720811D01*
X119482571Y-111740655D01*
X119482570Y-111740655D01*
X119407209Y-111779054D01*
X119369530Y-111798253D01*
X119369529Y-111798254D01*
X119369524Y-111798257D01*
X119279826Y-111887955D01*
X119279823Y-111887960D01*
X119222224Y-112001001D01*
X119222224Y-112001002D01*
X119202380Y-112126299D01*
X119202380Y-112126306D01*
X116720417Y-112126306D01*
X116471066Y-112035100D01*
X116469907Y-112034670D01*
X116133679Y-111907872D01*
X116124265Y-111904322D01*
X116119202Y-111902283D01*
X116028398Y-111863378D01*
X115785274Y-111759213D01*
X115784464Y-111758863D01*
X115447641Y-111611705D01*
X115442356Y-111609246D01*
X115112695Y-111446362D01*
X115112221Y-111446127D01*
X114787362Y-111283885D01*
X114781902Y-111280986D01*
X114441590Y-111089269D01*
X114441612Y-111089228D01*
X114441436Y-111089182D01*
X114213483Y-110960335D01*
X114213161Y-110960003D01*
X124644508Y-110960003D01*
X124664352Y-111085300D01*
X124664352Y-111085301D01*
X124664354Y-111085304D01*
X124721950Y-111198342D01*
X124721952Y-111198344D01*
X124721954Y-111198347D01*
X124811652Y-111288045D01*
X124811654Y-111288046D01*
X124811658Y-111288050D01*
X124924696Y-111345646D01*
X124924697Y-111345646D01*
X124924699Y-111345647D01*
X125049997Y-111365492D01*
X125050000Y-111365492D01*
X125050003Y-111365492D01*
X125175300Y-111345647D01*
X125175301Y-111345647D01*
X125175302Y-111345646D01*
X125175304Y-111345646D01*
X125288342Y-111288050D01*
X125378050Y-111198342D01*
X125435646Y-111085304D01*
X125435646Y-111085302D01*
X125435647Y-111085301D01*
X125435647Y-111085300D01*
X125455492Y-110960003D01*
X125455492Y-110959996D01*
X125435647Y-110834699D01*
X125435647Y-110834698D01*
X125427911Y-110819515D01*
X125378050Y-110721658D01*
X125378046Y-110721654D01*
X125378045Y-110721652D01*
X125288347Y-110631954D01*
X125288344Y-110631952D01*
X125288342Y-110631950D01*
X125175304Y-110574354D01*
X125175303Y-110574353D01*
X125175300Y-110574352D01*
X125050003Y-110554508D01*
X125049997Y-110554508D01*
X124924699Y-110574352D01*
X124924698Y-110574352D01*
X124849337Y-110612751D01*
X124811658Y-110631950D01*
X124811657Y-110631951D01*
X124811652Y-110631954D01*
X124721954Y-110721652D01*
X124721951Y-110721657D01*
X124721950Y-110721658D01*
X124709662Y-110745775D01*
X124664352Y-110834698D01*
X124664352Y-110834699D01*
X124644508Y-110959996D01*
X124644508Y-110960003D01*
X114213161Y-110960003D01*
X114164808Y-110910210D01*
X114150500Y-110852386D01*
X114150500Y-110030003D01*
X114484508Y-110030003D01*
X114504352Y-110155300D01*
X114504352Y-110155301D01*
X114519814Y-110185646D01*
X114561950Y-110268342D01*
X114561952Y-110268344D01*
X114561954Y-110268347D01*
X114651652Y-110358045D01*
X114651654Y-110358046D01*
X114651658Y-110358050D01*
X114764696Y-110415646D01*
X114764697Y-110415646D01*
X114764699Y-110415647D01*
X114889997Y-110435492D01*
X114890000Y-110435492D01*
X114890003Y-110435492D01*
X115015300Y-110415647D01*
X115015301Y-110415647D01*
X115015302Y-110415646D01*
X115015304Y-110415646D01*
X115128342Y-110358050D01*
X115218050Y-110268342D01*
X115275646Y-110155304D01*
X115275646Y-110155302D01*
X115275647Y-110155301D01*
X115275647Y-110155300D01*
X115295492Y-110030003D01*
X115295492Y-110029996D01*
X115275647Y-109904699D01*
X115275647Y-109904698D01*
X115255749Y-109865647D01*
X115218050Y-109791658D01*
X115218046Y-109791654D01*
X115218045Y-109791652D01*
X115128347Y-109701954D01*
X115128344Y-109701952D01*
X115128342Y-109701950D01*
X115015304Y-109644354D01*
X115015303Y-109644353D01*
X115015300Y-109644352D01*
X114890003Y-109624508D01*
X114889997Y-109624508D01*
X114764699Y-109644352D01*
X114764698Y-109644352D01*
X114689337Y-109682751D01*
X114651658Y-109701950D01*
X114651657Y-109701951D01*
X114651652Y-109701954D01*
X114561954Y-109791652D01*
X114561951Y-109791657D01*
X114561950Y-109791658D01*
X114553599Y-109808048D01*
X114504352Y-109904698D01*
X114504352Y-109904699D01*
X114484508Y-110029996D01*
X114484508Y-110030003D01*
X114150500Y-110030003D01*
X114150500Y-107638015D01*
X114157020Y-107598336D01*
X114158045Y-107595301D01*
X114433411Y-106780003D01*
X115034508Y-106780003D01*
X115054352Y-106905300D01*
X115054352Y-106905301D01*
X115067499Y-106931103D01*
X115111950Y-107018342D01*
X115111952Y-107018344D01*
X115111954Y-107018347D01*
X115201652Y-107108045D01*
X115201654Y-107108046D01*
X115201658Y-107108050D01*
X115314696Y-107165646D01*
X115314697Y-107165646D01*
X115314699Y-107165647D01*
X115439997Y-107185492D01*
X115440000Y-107185492D01*
X115440002Y-107185492D01*
X115571102Y-107164728D01*
X115640396Y-107173683D01*
X115693848Y-107218679D01*
X115714487Y-107285431D01*
X115714500Y-107287201D01*
X115714500Y-109300655D01*
X115712117Y-109324847D01*
X115709103Y-109339999D01*
X115709103Y-109340002D01*
X115713310Y-109361152D01*
X115713311Y-109361159D01*
X115730483Y-109447490D01*
X115730484Y-109447493D01*
X115730484Y-109447494D01*
X115730485Y-109447495D01*
X115746826Y-109471951D01*
X115748402Y-109474309D01*
X115748402Y-109474310D01*
X115761809Y-109494376D01*
X115761810Y-109494376D01*
X115761811Y-109494378D01*
X115791376Y-109538624D01*
X115804221Y-109547206D01*
X115823011Y-109562627D01*
X116987369Y-110726985D01*
X117002790Y-110745775D01*
X117011373Y-110758621D01*
X117011374Y-110758621D01*
X117011376Y-110758624D01*
X117029313Y-110770609D01*
X117029337Y-110770627D01*
X117102504Y-110819515D01*
X117102506Y-110819516D01*
X117210000Y-110840897D01*
X117220546Y-110838799D01*
X117225160Y-110837882D01*
X117249348Y-110835500D01*
X119670656Y-110835500D01*
X119694846Y-110837882D01*
X119710000Y-110840897D01*
X119737132Y-110835500D01*
X119737133Y-110835500D01*
X119760734Y-110830805D01*
X119817493Y-110819516D01*
X119817493Y-110819515D01*
X119817495Y-110819515D01*
X119859465Y-110791471D01*
X119885622Y-110773994D01*
X119885622Y-110773993D01*
X119899051Y-110765021D01*
X119899053Y-110765018D01*
X119908624Y-110758624D01*
X119917208Y-110745775D01*
X119932624Y-110726990D01*
X120511914Y-110147701D01*
X120573237Y-110114216D01*
X120599595Y-110111382D01*
X120623865Y-110111382D01*
X120690904Y-110131067D01*
X120711546Y-110147701D01*
X120727772Y-110163927D01*
X120727774Y-110163928D01*
X120727778Y-110163932D01*
X120840816Y-110221528D01*
X120840817Y-110221528D01*
X120840819Y-110221529D01*
X120966117Y-110241374D01*
X120966120Y-110241374D01*
X120966123Y-110241374D01*
X121091420Y-110221529D01*
X121091421Y-110221529D01*
X121091422Y-110221528D01*
X121091424Y-110221528D01*
X121204462Y-110163932D01*
X121294170Y-110074224D01*
X121294174Y-110074215D01*
X121298736Y-110067937D01*
X121354063Y-110025267D01*
X121423676Y-110019283D01*
X121485474Y-110051884D01*
X121486741Y-110053134D01*
X121561652Y-110128045D01*
X121561654Y-110128046D01*
X121561658Y-110128050D01*
X121674696Y-110185646D01*
X121674697Y-110185646D01*
X121674699Y-110185647D01*
X121799997Y-110205492D01*
X121800000Y-110205492D01*
X121800003Y-110205492D01*
X121925300Y-110185647D01*
X121925301Y-110185647D01*
X121925302Y-110185646D01*
X121925304Y-110185646D01*
X122038342Y-110128050D01*
X122128050Y-110038342D01*
X122185646Y-109925304D01*
X122185646Y-109925302D01*
X122185647Y-109925301D01*
X122185647Y-109925300D01*
X122205492Y-109800003D01*
X122205492Y-109799996D01*
X122185647Y-109674699D01*
X122185647Y-109674698D01*
X122178291Y-109660261D01*
X122128050Y-109561658D01*
X122128046Y-109561654D01*
X122128045Y-109561652D01*
X122038347Y-109471954D01*
X122038344Y-109471952D01*
X122038342Y-109471950D01*
X121925304Y-109414354D01*
X121925303Y-109414353D01*
X121925300Y-109414352D01*
X121800003Y-109394508D01*
X121799997Y-109394508D01*
X121674699Y-109414352D01*
X121674698Y-109414352D01*
X121609663Y-109447490D01*
X121561658Y-109471950D01*
X121561657Y-109471951D01*
X121561652Y-109471954D01*
X121471952Y-109561654D01*
X121467377Y-109567952D01*
X121412047Y-109610617D01*
X121342433Y-109616596D01*
X121280638Y-109583990D01*
X121279378Y-109582747D01*
X121204467Y-109507836D01*
X121204464Y-109507834D01*
X121204462Y-109507832D01*
X121091424Y-109450236D01*
X121091423Y-109450235D01*
X121091420Y-109450234D01*
X120966123Y-109430390D01*
X120966117Y-109430390D01*
X120840819Y-109450234D01*
X120840818Y-109450234D01*
X120782401Y-109480000D01*
X120727778Y-109507832D01*
X120727777Y-109507833D01*
X120727772Y-109507836D01*
X120711546Y-109524063D01*
X120650223Y-109557548D01*
X120623865Y-109560382D01*
X120473461Y-109560382D01*
X120449273Y-109558000D01*
X120434119Y-109554986D01*
X120434117Y-109554986D01*
X120412964Y-109559193D01*
X120412937Y-109559197D01*
X120326627Y-109576365D01*
X120326623Y-109576366D01*
X120235494Y-109637257D01*
X120235489Y-109637262D01*
X120226907Y-109650107D01*
X120211488Y-109668895D01*
X119632203Y-110248181D01*
X119570880Y-110281666D01*
X119544522Y-110284500D01*
X117552650Y-110284500D01*
X117485611Y-110264815D01*
X117439856Y-110212011D01*
X117429912Y-110142853D01*
X117458937Y-110079297D01*
X117496355Y-110050015D01*
X117598342Y-109998050D01*
X117688050Y-109908342D01*
X117745646Y-109795304D01*
X117745646Y-109795302D01*
X117745647Y-109795301D01*
X117745647Y-109795300D01*
X117765492Y-109670003D01*
X117765492Y-109669996D01*
X117745647Y-109544699D01*
X117745646Y-109544696D01*
X117727125Y-109508347D01*
X117688050Y-109431658D01*
X117688048Y-109431656D01*
X117686127Y-109427885D01*
X117673230Y-109359215D01*
X117675320Y-109354064D01*
X117667256Y-109357072D01*
X117602115Y-109343873D01*
X117598343Y-109341951D01*
X117598342Y-109341950D01*
X117539123Y-109311776D01*
X117485301Y-109284352D01*
X117380929Y-109267822D01*
X117317794Y-109237893D01*
X117312646Y-109233030D01*
X117220057Y-109140441D01*
X117186572Y-109079118D01*
X117191556Y-109009426D01*
X117233428Y-108953493D01*
X117298892Y-108929076D01*
X117327136Y-108930287D01*
X117359998Y-108935492D01*
X117360000Y-108935492D01*
X117360003Y-108935492D01*
X117449427Y-108921329D01*
X117518720Y-108930284D01*
X117556505Y-108956121D01*
X117746091Y-109145707D01*
X117779576Y-109207030D01*
X117776261Y-109253374D01*
X117826418Y-109251225D01*
X117884292Y-109283908D01*
X118033030Y-109432646D01*
X118066515Y-109493969D01*
X118067822Y-109500929D01*
X118084352Y-109605301D01*
X118094139Y-109624508D01*
X118141950Y-109718342D01*
X118141952Y-109718344D01*
X118141954Y-109718347D01*
X118231652Y-109808045D01*
X118231654Y-109808046D01*
X118231658Y-109808050D01*
X118344696Y-109865646D01*
X118344697Y-109865646D01*
X118344699Y-109865647D01*
X118469997Y-109885492D01*
X118470000Y-109885492D01*
X118470003Y-109885492D01*
X118595300Y-109865647D01*
X118595301Y-109865647D01*
X118595302Y-109865646D01*
X118595304Y-109865646D01*
X118708342Y-109808050D01*
X118798050Y-109718342D01*
X118799515Y-109715466D01*
X118802217Y-109712604D01*
X118803783Y-109710450D01*
X118804061Y-109710652D01*
X118847481Y-109664671D01*
X118915301Y-109647869D01*
X118981438Y-109670401D01*
X118997682Y-109684075D01*
X119061652Y-109748045D01*
X119061654Y-109748046D01*
X119061658Y-109748050D01*
X119174696Y-109805646D01*
X119174697Y-109805646D01*
X119174699Y-109805647D01*
X119299997Y-109825492D01*
X119300000Y-109825492D01*
X119300003Y-109825492D01*
X119425300Y-109805647D01*
X119425301Y-109805647D01*
X119425302Y-109805646D01*
X119425304Y-109805646D01*
X119538342Y-109748050D01*
X119628050Y-109658342D01*
X119685646Y-109545304D01*
X119685646Y-109545302D01*
X119685647Y-109545301D01*
X119685647Y-109545300D01*
X119705492Y-109420003D01*
X119705492Y-109419996D01*
X119685647Y-109294699D01*
X119685647Y-109294698D01*
X119673064Y-109270003D01*
X123589508Y-109270003D01*
X123609352Y-109395300D01*
X123609352Y-109395301D01*
X123621243Y-109418638D01*
X123666950Y-109508342D01*
X123666952Y-109508344D01*
X123666954Y-109508347D01*
X123756652Y-109598045D01*
X123756654Y-109598046D01*
X123756658Y-109598050D01*
X123869696Y-109655646D01*
X123869697Y-109655646D01*
X123869699Y-109655647D01*
X123994997Y-109675492D01*
X123995000Y-109675492D01*
X123995003Y-109675492D01*
X124120299Y-109655647D01*
X124120299Y-109655646D01*
X124120304Y-109655646D01*
X124128707Y-109651364D01*
X124197372Y-109638465D01*
X124262114Y-109664738D01*
X124302374Y-109721843D01*
X124307478Y-109781240D01*
X124304508Y-109799996D01*
X124304508Y-109800003D01*
X124324352Y-109925300D01*
X124324352Y-109925301D01*
X124324354Y-109925304D01*
X124381950Y-110038342D01*
X124381952Y-110038344D01*
X124381954Y-110038347D01*
X124471652Y-110128045D01*
X124471654Y-110128046D01*
X124471658Y-110128050D01*
X124584696Y-110185646D01*
X124584697Y-110185646D01*
X124584699Y-110185647D01*
X124709997Y-110205492D01*
X124710000Y-110205492D01*
X124710003Y-110205492D01*
X124835300Y-110185647D01*
X124835301Y-110185647D01*
X124835302Y-110185646D01*
X124835304Y-110185646D01*
X124948342Y-110128050D01*
X125038050Y-110038342D01*
X125095646Y-109925304D01*
X125095646Y-109925302D01*
X125095647Y-109925301D01*
X125095647Y-109925300D01*
X125115492Y-109800003D01*
X125115492Y-109799996D01*
X125095647Y-109674699D01*
X125095647Y-109674698D01*
X125088291Y-109660261D01*
X125038050Y-109561658D01*
X125038046Y-109561654D01*
X125038045Y-109561652D01*
X124948347Y-109471954D01*
X124948344Y-109471952D01*
X124948342Y-109471950D01*
X124835304Y-109414354D01*
X124835303Y-109414353D01*
X124835300Y-109414352D01*
X124710003Y-109394508D01*
X124709997Y-109394508D01*
X124584699Y-109414352D01*
X124584697Y-109414353D01*
X124576288Y-109418638D01*
X124507618Y-109431533D01*
X124442878Y-109405255D01*
X124402622Y-109348148D01*
X124397522Y-109288754D01*
X124400492Y-109270002D01*
X124400492Y-109269996D01*
X124380647Y-109144699D01*
X124380647Y-109144698D01*
X124353772Y-109091954D01*
X124323050Y-109031658D01*
X124323046Y-109031654D01*
X124323045Y-109031652D01*
X124233347Y-108941954D01*
X124233344Y-108941952D01*
X124233342Y-108941950D01*
X124120304Y-108884354D01*
X124120303Y-108884353D01*
X124120300Y-108884352D01*
X123995003Y-108864508D01*
X123994997Y-108864508D01*
X123869699Y-108884352D01*
X123869698Y-108884352D01*
X123808282Y-108915646D01*
X123756658Y-108941950D01*
X123756657Y-108941951D01*
X123756652Y-108941954D01*
X123666954Y-109031652D01*
X123666951Y-109031657D01*
X123666950Y-109031658D01*
X123647751Y-109069337D01*
X123609352Y-109144698D01*
X123609352Y-109144699D01*
X123589508Y-109269996D01*
X123589508Y-109270003D01*
X119673064Y-109270003D01*
X119628050Y-109181658D01*
X119628046Y-109181654D01*
X119628045Y-109181652D01*
X119538347Y-109091954D01*
X119538343Y-109091951D01*
X119538342Y-109091950D01*
X119497846Y-109071316D01*
X119447052Y-109023344D01*
X119430257Y-108955523D01*
X119452794Y-108889388D01*
X119466455Y-108873159D01*
X120146957Y-108192659D01*
X120208280Y-108159174D01*
X120234638Y-108156340D01*
X121545882Y-108156340D01*
X121612921Y-108176025D01*
X121633563Y-108192659D01*
X121649789Y-108208885D01*
X121649791Y-108208886D01*
X121649795Y-108208890D01*
X121762833Y-108266486D01*
X121762834Y-108266486D01*
X121762836Y-108266487D01*
X121888134Y-108286332D01*
X121888137Y-108286332D01*
X121888140Y-108286332D01*
X122013437Y-108266487D01*
X122013438Y-108266487D01*
X122013439Y-108266486D01*
X122013441Y-108266486D01*
X122085043Y-108230003D01*
X129074508Y-108230003D01*
X129094352Y-108355300D01*
X129094352Y-108355301D01*
X129094354Y-108355304D01*
X129151950Y-108468342D01*
X129151952Y-108468344D01*
X129151954Y-108468347D01*
X129241652Y-108558045D01*
X129241654Y-108558046D01*
X129241658Y-108558050D01*
X129354696Y-108615646D01*
X129354697Y-108615646D01*
X129354699Y-108615647D01*
X129479997Y-108635492D01*
X129480000Y-108635492D01*
X129480003Y-108635492D01*
X129605300Y-108615647D01*
X129605301Y-108615647D01*
X129605302Y-108615646D01*
X129605304Y-108615646D01*
X129718342Y-108558050D01*
X129808050Y-108468342D01*
X129865646Y-108355304D01*
X129865646Y-108355302D01*
X129865647Y-108355301D01*
X129865647Y-108355300D01*
X129885492Y-108230003D01*
X129885492Y-108229996D01*
X129865647Y-108104699D01*
X129865647Y-108104698D01*
X129860002Y-108093620D01*
X129808050Y-107991658D01*
X129808046Y-107991654D01*
X129808045Y-107991652D01*
X129718347Y-107901954D01*
X129718344Y-107901952D01*
X129718342Y-107901950D01*
X129605304Y-107844354D01*
X129605303Y-107844353D01*
X129605300Y-107844352D01*
X129480003Y-107824508D01*
X129479997Y-107824508D01*
X129354699Y-107844352D01*
X129354698Y-107844352D01*
X129283083Y-107880843D01*
X129241658Y-107901950D01*
X129241657Y-107901951D01*
X129241652Y-107901954D01*
X129151954Y-107991652D01*
X129151951Y-107991657D01*
X129151950Y-107991658D01*
X129132751Y-108029337D01*
X129094352Y-108104698D01*
X129094352Y-108104699D01*
X129074508Y-108229996D01*
X129074508Y-108230003D01*
X122085043Y-108230003D01*
X122126479Y-108208890D01*
X122216187Y-108119182D01*
X122273783Y-108006144D01*
X122273783Y-108006142D01*
X122273784Y-108006141D01*
X122273784Y-108006140D01*
X122293629Y-107880843D01*
X122293629Y-107880836D01*
X122273784Y-107755539D01*
X122273784Y-107755538D01*
X122273783Y-107755536D01*
X122250583Y-107710003D01*
X123274508Y-107710003D01*
X123294352Y-107835300D01*
X123294352Y-107835301D01*
X123294354Y-107835304D01*
X123351950Y-107948342D01*
X123351952Y-107948344D01*
X123351954Y-107948347D01*
X123441652Y-108038045D01*
X123441654Y-108038046D01*
X123441658Y-108038050D01*
X123554696Y-108095646D01*
X123554697Y-108095646D01*
X123554699Y-108095647D01*
X123679997Y-108115492D01*
X123680000Y-108115492D01*
X123680003Y-108115492D01*
X123805300Y-108095647D01*
X123805301Y-108095647D01*
X123805302Y-108095646D01*
X123805304Y-108095646D01*
X123918342Y-108038050D01*
X124008050Y-107948342D01*
X124065646Y-107835304D01*
X124065646Y-107835302D01*
X124065647Y-107835301D01*
X124065647Y-107835300D01*
X124085492Y-107710003D01*
X124085492Y-107709996D01*
X124065647Y-107584699D01*
X124065647Y-107584698D01*
X124049391Y-107552794D01*
X124008050Y-107471658D01*
X124008046Y-107471654D01*
X124008045Y-107471652D01*
X124006396Y-107470003D01*
X127454508Y-107470003D01*
X127474352Y-107595300D01*
X127474352Y-107595301D01*
X127487611Y-107621323D01*
X127531950Y-107708342D01*
X127531952Y-107708344D01*
X127531954Y-107708347D01*
X127621652Y-107798045D01*
X127621654Y-107798046D01*
X127621658Y-107798050D01*
X127734696Y-107855646D01*
X127734697Y-107855646D01*
X127734699Y-107855647D01*
X127859997Y-107875492D01*
X127860000Y-107875492D01*
X127860003Y-107875492D01*
X127985300Y-107855647D01*
X127985301Y-107855647D01*
X127985302Y-107855646D01*
X127985304Y-107855646D01*
X128098342Y-107798050D01*
X128188050Y-107708342D01*
X128245646Y-107595304D01*
X128245646Y-107595302D01*
X128245647Y-107595301D01*
X128245647Y-107595300D01*
X128265492Y-107470003D01*
X128265492Y-107469996D01*
X128245647Y-107344699D01*
X128245646Y-107344696D01*
X128223451Y-107301136D01*
X128196314Y-107247878D01*
X128183418Y-107179211D01*
X128209694Y-107114470D01*
X128233924Y-107091258D01*
X128238333Y-107088054D01*
X128238342Y-107088050D01*
X128328050Y-106998342D01*
X128385646Y-106885304D01*
X128385646Y-106885302D01*
X128385647Y-106885301D01*
X128385647Y-106885300D01*
X128405492Y-106760003D01*
X128405492Y-106759996D01*
X128385647Y-106634699D01*
X128385647Y-106634698D01*
X128369527Y-106603061D01*
X128328050Y-106521658D01*
X128328046Y-106521654D01*
X128328045Y-106521652D01*
X128238347Y-106431954D01*
X128238344Y-106431952D01*
X128238342Y-106431950D01*
X128125304Y-106374354D01*
X128125303Y-106374353D01*
X128125300Y-106374352D01*
X128000003Y-106354508D01*
X127999997Y-106354508D01*
X127874699Y-106374352D01*
X127874698Y-106374352D01*
X127799337Y-106412751D01*
X127761658Y-106431950D01*
X127761657Y-106431951D01*
X127761652Y-106431954D01*
X127671954Y-106521652D01*
X127671951Y-106521657D01*
X127671950Y-106521658D01*
X127652751Y-106559337D01*
X127614352Y-106634698D01*
X127614352Y-106634699D01*
X127594508Y-106759996D01*
X127594508Y-106760003D01*
X127614352Y-106885300D01*
X127614352Y-106885301D01*
X127629234Y-106914508D01*
X127663685Y-106982121D01*
X127676581Y-107050789D01*
X127650305Y-107115529D01*
X127626084Y-107138734D01*
X127621655Y-107141951D01*
X127531954Y-107231652D01*
X127531951Y-107231657D01*
X127531950Y-107231658D01*
X127512751Y-107269337D01*
X127474352Y-107344698D01*
X127474352Y-107344699D01*
X127454508Y-107469996D01*
X127454508Y-107470003D01*
X124006396Y-107470003D01*
X123918347Y-107381954D01*
X123918344Y-107381952D01*
X123918342Y-107381950D01*
X123805304Y-107324354D01*
X123805303Y-107324353D01*
X123805300Y-107324352D01*
X123680003Y-107304508D01*
X123679997Y-107304508D01*
X123554699Y-107324352D01*
X123554698Y-107324352D01*
X123490489Y-107357069D01*
X123441658Y-107381950D01*
X123441657Y-107381951D01*
X123441652Y-107381954D01*
X123351954Y-107471652D01*
X123351951Y-107471657D01*
X123294352Y-107584698D01*
X123294352Y-107584699D01*
X123274508Y-107709996D01*
X123274508Y-107710003D01*
X122250583Y-107710003D01*
X122216187Y-107642498D01*
X122216183Y-107642494D01*
X122216182Y-107642492D01*
X122126484Y-107552794D01*
X122126481Y-107552792D01*
X122126479Y-107552790D01*
X122013441Y-107495194D01*
X122013440Y-107495193D01*
X122013437Y-107495192D01*
X121888140Y-107475348D01*
X121888134Y-107475348D01*
X121762836Y-107495192D01*
X121762835Y-107495192D01*
X121691280Y-107531652D01*
X121649795Y-107552790D01*
X121649794Y-107552791D01*
X121649789Y-107552794D01*
X121633563Y-107569021D01*
X121572240Y-107602506D01*
X121545882Y-107605340D01*
X120108504Y-107605340D01*
X120084314Y-107602957D01*
X120069160Y-107599943D01*
X120069159Y-107599943D01*
X120069158Y-107599943D01*
X120048007Y-107604150D01*
X120047994Y-107604152D01*
X119961666Y-107621323D01*
X119961665Y-107621324D01*
X119929977Y-107642498D01*
X119893540Y-107666843D01*
X119893538Y-107666846D01*
X119893536Y-107666847D01*
X119887709Y-107670740D01*
X119870533Y-107682217D01*
X119861951Y-107695062D01*
X119846532Y-107713850D01*
X119424682Y-108135700D01*
X119363359Y-108169185D01*
X119293667Y-108164201D01*
X119257032Y-108136776D01*
X119285390Y-108177002D01*
X119288383Y-108246807D01*
X119255700Y-108304682D01*
X118557680Y-109002702D01*
X118496357Y-109036187D01*
X118426665Y-109031203D01*
X118382318Y-109002702D01*
X117742627Y-108363011D01*
X117727207Y-108344222D01*
X117718624Y-108331376D01*
X117718623Y-108331375D01*
X117711436Y-108324188D01*
X117688633Y-108292804D01*
X117688050Y-108291658D01*
X117688048Y-108291656D01*
X117688045Y-108291652D01*
X117598347Y-108201954D01*
X117598344Y-108201952D01*
X117598342Y-108201950D01*
X117485304Y-108144354D01*
X117485303Y-108144353D01*
X117485300Y-108144352D01*
X117360003Y-108124508D01*
X117359997Y-108124508D01*
X117234699Y-108144352D01*
X117234698Y-108144352D01*
X117172538Y-108176025D01*
X117121658Y-108201950D01*
X117121657Y-108201951D01*
X117121652Y-108201954D01*
X117031954Y-108291652D01*
X117031952Y-108291656D01*
X117031950Y-108291658D01*
X117025314Y-108304682D01*
X116974352Y-108404698D01*
X116974352Y-108404699D01*
X116954508Y-108529996D01*
X116954508Y-108529998D01*
X116959713Y-108562865D01*
X116950757Y-108632158D01*
X116905760Y-108685610D01*
X116839008Y-108706248D01*
X116771694Y-108687522D01*
X116749558Y-108669942D01*
X116701819Y-108622203D01*
X116668334Y-108560880D01*
X116665500Y-108534522D01*
X116665500Y-107770003D01*
X118484508Y-107770003D01*
X118504352Y-107895300D01*
X118504352Y-107895301D01*
X118507742Y-107901954D01*
X118561950Y-108008342D01*
X118561952Y-108008344D01*
X118561954Y-108008347D01*
X118651652Y-108098045D01*
X118651654Y-108098046D01*
X118651658Y-108098050D01*
X118764696Y-108155646D01*
X118764697Y-108155646D01*
X118764699Y-108155647D01*
X118889997Y-108175492D01*
X118890000Y-108175492D01*
X118890003Y-108175492D01*
X119015300Y-108155647D01*
X119015302Y-108155646D01*
X119015304Y-108155646D01*
X119111725Y-108106516D01*
X119180392Y-108093620D01*
X119235344Y-108115923D01*
X119213317Y-108056865D01*
X119226516Y-107991725D01*
X119275646Y-107895304D01*
X119275646Y-107895302D01*
X119275647Y-107895300D01*
X119295492Y-107770003D01*
X119295492Y-107769996D01*
X119275647Y-107644699D01*
X119275647Y-107644698D01*
X119263737Y-107621324D01*
X119218050Y-107531658D01*
X119218046Y-107531654D01*
X119218045Y-107531652D01*
X119186271Y-107499878D01*
X119152786Y-107438555D01*
X119157770Y-107368863D01*
X119199642Y-107312930D01*
X119254555Y-107289724D01*
X119280304Y-107285646D01*
X119393342Y-107228050D01*
X119483050Y-107138342D01*
X119540646Y-107025304D01*
X119540646Y-107025302D01*
X119540647Y-107025301D01*
X119540647Y-107025300D01*
X119560492Y-106900003D01*
X119560492Y-106899996D01*
X119540647Y-106774699D01*
X119540647Y-106774698D01*
X119540646Y-106774696D01*
X119483050Y-106661658D01*
X119483046Y-106661654D01*
X119483045Y-106661652D01*
X119424454Y-106603061D01*
X121429508Y-106603061D01*
X121449352Y-106728358D01*
X121449352Y-106728359D01*
X121465472Y-106759996D01*
X121506950Y-106841400D01*
X121506952Y-106841402D01*
X121506954Y-106841405D01*
X121596652Y-106931103D01*
X121596654Y-106931104D01*
X121596658Y-106931108D01*
X121709696Y-106988704D01*
X121709697Y-106988704D01*
X121709699Y-106988705D01*
X121834997Y-107008550D01*
X121835000Y-107008550D01*
X121835003Y-107008550D01*
X121960300Y-106988705D01*
X121960301Y-106988705D01*
X121960302Y-106988704D01*
X121960304Y-106988704D01*
X122073342Y-106931108D01*
X122163050Y-106841400D01*
X122220646Y-106728362D01*
X122220646Y-106728360D01*
X122220647Y-106728359D01*
X122220647Y-106728358D01*
X122240492Y-106603061D01*
X122240492Y-106603054D01*
X122220647Y-106477757D01*
X122220647Y-106477756D01*
X122207500Y-106451954D01*
X122163050Y-106364716D01*
X122163046Y-106364712D01*
X122163045Y-106364710D01*
X122073347Y-106275012D01*
X122073344Y-106275010D01*
X122073342Y-106275008D01*
X121960304Y-106217412D01*
X121960303Y-106217411D01*
X121960300Y-106217410D01*
X121835003Y-106197566D01*
X121834997Y-106197566D01*
X121709699Y-106217410D01*
X121709698Y-106217410D01*
X121645735Y-106250002D01*
X121596658Y-106275008D01*
X121596657Y-106275009D01*
X121596652Y-106275012D01*
X121506954Y-106364710D01*
X121506951Y-106364715D01*
X121506950Y-106364716D01*
X121501961Y-106374508D01*
X121449352Y-106477756D01*
X121449352Y-106477757D01*
X121429508Y-106603054D01*
X121429508Y-106603061D01*
X119424454Y-106603061D01*
X119393347Y-106571954D01*
X119393344Y-106571952D01*
X119393342Y-106571950D01*
X119280304Y-106514354D01*
X119280303Y-106514353D01*
X119280300Y-106514352D01*
X119155003Y-106494508D01*
X119154997Y-106494508D01*
X119029699Y-106514352D01*
X119029698Y-106514352D01*
X118976111Y-106541657D01*
X118916658Y-106571950D01*
X118916657Y-106571951D01*
X118916652Y-106571954D01*
X118826954Y-106661652D01*
X118826951Y-106661657D01*
X118769352Y-106774698D01*
X118769352Y-106774699D01*
X118749508Y-106899996D01*
X118749508Y-106900003D01*
X118769352Y-107025300D01*
X118769352Y-107025301D01*
X118782339Y-107050789D01*
X118826950Y-107138342D01*
X118826952Y-107138344D01*
X118826954Y-107138347D01*
X118858728Y-107170121D01*
X118892213Y-107231444D01*
X118887229Y-107301136D01*
X118845357Y-107357069D01*
X118790445Y-107380275D01*
X118764699Y-107384352D01*
X118764698Y-107384352D01*
X118689337Y-107422751D01*
X118651658Y-107441950D01*
X118651657Y-107441951D01*
X118651652Y-107441954D01*
X118561954Y-107531652D01*
X118561951Y-107531657D01*
X118504352Y-107644698D01*
X118504352Y-107644699D01*
X118484508Y-107769996D01*
X118484508Y-107770003D01*
X116665500Y-107770003D01*
X116665500Y-106250005D01*
X117159508Y-106250005D01*
X117179352Y-106375302D01*
X117179352Y-106375303D01*
X117179354Y-106375306D01*
X117236950Y-106488344D01*
X117236952Y-106488346D01*
X117236954Y-106488349D01*
X117326652Y-106578047D01*
X117326654Y-106578048D01*
X117326658Y-106578052D01*
X117439696Y-106635648D01*
X117439697Y-106635648D01*
X117439699Y-106635649D01*
X117564997Y-106655494D01*
X117565000Y-106655494D01*
X117565003Y-106655494D01*
X117690300Y-106635649D01*
X117690301Y-106635649D01*
X117690302Y-106635648D01*
X117690304Y-106635648D01*
X117803342Y-106578052D01*
X117893050Y-106488344D01*
X117950646Y-106375306D01*
X117950646Y-106375304D01*
X117950647Y-106375303D01*
X117950647Y-106375302D01*
X117970492Y-106250005D01*
X117970492Y-106249998D01*
X117950647Y-106124701D01*
X117950647Y-106124700D01*
X117950646Y-106124698D01*
X117893050Y-106011660D01*
X117893046Y-106011656D01*
X117893045Y-106011654D01*
X117803347Y-105921956D01*
X117803344Y-105921954D01*
X117803342Y-105921952D01*
X117690304Y-105864356D01*
X117690303Y-105864355D01*
X117690300Y-105864354D01*
X117565003Y-105844510D01*
X117564997Y-105844510D01*
X117439699Y-105864354D01*
X117439698Y-105864354D01*
X117364337Y-105902753D01*
X117326658Y-105921952D01*
X117326657Y-105921953D01*
X117326652Y-105921956D01*
X117236954Y-106011654D01*
X117236951Y-106011659D01*
X117179352Y-106124700D01*
X117179352Y-106124701D01*
X117159508Y-106249998D01*
X117159508Y-106250005D01*
X116665500Y-106250005D01*
X116665500Y-105450003D01*
X124844508Y-105450003D01*
X124864352Y-105575300D01*
X124864352Y-105575301D01*
X124864354Y-105575304D01*
X124921950Y-105688342D01*
X124921952Y-105688344D01*
X124921954Y-105688347D01*
X125011652Y-105778045D01*
X125011654Y-105778046D01*
X125011658Y-105778050D01*
X125124696Y-105835646D01*
X125124697Y-105835646D01*
X125124699Y-105835647D01*
X125249997Y-105855492D01*
X125250000Y-105855492D01*
X125250003Y-105855492D01*
X125375300Y-105835647D01*
X125375301Y-105835647D01*
X125375302Y-105835646D01*
X125375304Y-105835646D01*
X125488342Y-105778050D01*
X125578050Y-105688342D01*
X125635646Y-105575304D01*
X125635646Y-105575302D01*
X125635647Y-105575301D01*
X125635647Y-105575300D01*
X125649979Y-105484810D01*
X125679908Y-105421675D01*
X125739219Y-105384743D01*
X125809081Y-105385741D01*
X125860133Y-105416526D01*
X125901652Y-105458045D01*
X125901654Y-105458046D01*
X125901658Y-105458050D01*
X126014696Y-105515646D01*
X126014697Y-105515646D01*
X126014699Y-105515647D01*
X126139997Y-105535492D01*
X126140000Y-105535492D01*
X126140003Y-105535492D01*
X126265300Y-105515647D01*
X126265301Y-105515647D01*
X126265302Y-105515646D01*
X126265304Y-105515646D01*
X126378342Y-105458050D01*
X126386396Y-105449996D01*
X126394574Y-105441819D01*
X126455897Y-105408334D01*
X126482255Y-105405500D01*
X127648657Y-105405500D01*
X127715696Y-105425185D01*
X127759142Y-105473205D01*
X127771951Y-105498344D01*
X127861652Y-105588045D01*
X127861654Y-105588046D01*
X127861658Y-105588050D01*
X127974696Y-105645646D01*
X127974697Y-105645646D01*
X127974699Y-105645647D01*
X128099997Y-105665492D01*
X128100000Y-105665492D01*
X128100003Y-105665492D01*
X128225300Y-105645647D01*
X128225301Y-105645647D01*
X128225302Y-105645646D01*
X128225304Y-105645646D01*
X128338342Y-105588050D01*
X128428050Y-105498342D01*
X128485646Y-105385304D01*
X128485646Y-105385302D01*
X128485647Y-105385301D01*
X128485647Y-105385300D01*
X128505492Y-105260003D01*
X128505492Y-105259996D01*
X128485647Y-105134699D01*
X128485647Y-105134698D01*
X128483253Y-105130000D01*
X128432302Y-105030003D01*
X130544508Y-105030003D01*
X130564352Y-105155300D01*
X130564352Y-105155301D01*
X130564354Y-105155304D01*
X130621950Y-105268342D01*
X130621952Y-105268344D01*
X130621954Y-105268347D01*
X130711652Y-105358045D01*
X130711654Y-105358046D01*
X130711658Y-105358050D01*
X130824696Y-105415646D01*
X130824697Y-105415646D01*
X130824699Y-105415647D01*
X130949997Y-105435492D01*
X130950000Y-105435492D01*
X130950003Y-105435492D01*
X131075300Y-105415647D01*
X131075301Y-105415647D01*
X131075302Y-105415646D01*
X131075304Y-105415646D01*
X131188342Y-105358050D01*
X131278050Y-105268342D01*
X131335646Y-105155304D01*
X131335646Y-105155302D01*
X131335647Y-105155301D01*
X131335647Y-105155300D01*
X131355492Y-105030003D01*
X131355492Y-105029996D01*
X131335647Y-104904699D01*
X131335647Y-104904698D01*
X131329000Y-104891652D01*
X131278050Y-104791658D01*
X131278046Y-104791654D01*
X131278045Y-104791652D01*
X131188347Y-104701954D01*
X131188344Y-104701952D01*
X131188342Y-104701950D01*
X131075304Y-104644354D01*
X131075303Y-104644353D01*
X131075300Y-104644352D01*
X130950003Y-104624508D01*
X130949997Y-104624508D01*
X130824699Y-104644352D01*
X130824698Y-104644352D01*
X130749337Y-104682751D01*
X130711658Y-104701950D01*
X130711657Y-104701951D01*
X130711652Y-104701954D01*
X130621954Y-104791652D01*
X130621951Y-104791657D01*
X130621950Y-104791658D01*
X130616704Y-104801954D01*
X130564352Y-104904698D01*
X130564352Y-104904699D01*
X130544508Y-105029996D01*
X130544508Y-105030003D01*
X128432302Y-105030003D01*
X128428050Y-105021658D01*
X128428046Y-105021654D01*
X128428045Y-105021652D01*
X128338347Y-104931954D01*
X128338344Y-104931952D01*
X128338342Y-104931950D01*
X128225304Y-104874354D01*
X128225303Y-104874353D01*
X128225300Y-104874352D01*
X128100003Y-104854508D01*
X128099998Y-104854508D01*
X128064620Y-104860110D01*
X128021041Y-104859254D01*
X127991162Y-104853312D01*
X127991155Y-104853310D01*
X127991155Y-104853311D01*
X127970000Y-104849103D01*
X127969999Y-104849103D01*
X127962761Y-104850542D01*
X127954846Y-104852117D01*
X127930656Y-104854500D01*
X126482255Y-104854500D01*
X126415216Y-104834815D01*
X126394574Y-104818181D01*
X126378347Y-104801954D01*
X126378344Y-104801952D01*
X126378342Y-104801950D01*
X126265304Y-104744354D01*
X126265303Y-104744353D01*
X126265300Y-104744352D01*
X126140003Y-104724508D01*
X126139997Y-104724508D01*
X126014699Y-104744352D01*
X126014698Y-104744352D01*
X125939337Y-104782751D01*
X125901658Y-104801950D01*
X125901657Y-104801951D01*
X125901652Y-104801954D01*
X125811954Y-104891652D01*
X125811951Y-104891657D01*
X125811950Y-104891658D01*
X125792751Y-104929337D01*
X125754352Y-105004698D01*
X125754352Y-105004699D01*
X125740020Y-105095190D01*
X125710090Y-105158325D01*
X125650779Y-105195256D01*
X125580916Y-105194258D01*
X125529866Y-105163473D01*
X125488347Y-105121954D01*
X125488344Y-105121952D01*
X125488342Y-105121950D01*
X125375304Y-105064354D01*
X125375303Y-105064353D01*
X125375300Y-105064352D01*
X125250003Y-105044508D01*
X125249997Y-105044508D01*
X125124699Y-105064352D01*
X125124698Y-105064352D01*
X125064177Y-105095190D01*
X125011658Y-105121950D01*
X125011657Y-105121951D01*
X125011652Y-105121954D01*
X124921954Y-105211652D01*
X124921951Y-105211657D01*
X124864352Y-105324698D01*
X124864352Y-105324699D01*
X124844508Y-105449996D01*
X124844508Y-105450003D01*
X116665500Y-105450003D01*
X116665500Y-102650003D01*
X119514508Y-102650003D01*
X119534352Y-102775300D01*
X119534352Y-102775301D01*
X119550732Y-102807447D01*
X119591950Y-102888342D01*
X119591952Y-102888344D01*
X119591954Y-102888347D01*
X119681652Y-102978045D01*
X119681654Y-102978046D01*
X119681658Y-102978050D01*
X119767438Y-103021757D01*
X119818233Y-103069731D01*
X119835028Y-103137552D01*
X119830244Y-103164068D01*
X119809508Y-103294996D01*
X119809508Y-103295003D01*
X119829352Y-103420300D01*
X119829352Y-103420301D01*
X119829354Y-103420304D01*
X119886950Y-103533342D01*
X119886952Y-103533344D01*
X119886954Y-103533347D01*
X119976652Y-103623045D01*
X119976654Y-103623046D01*
X119976658Y-103623050D01*
X120089696Y-103680646D01*
X120159907Y-103691766D01*
X120223040Y-103721694D01*
X120259972Y-103781005D01*
X120264508Y-103814239D01*
X120264508Y-103820003D01*
X120284352Y-103945300D01*
X120284352Y-103945301D01*
X120284354Y-103945304D01*
X120341950Y-104058342D01*
X120341952Y-104058344D01*
X120341954Y-104058347D01*
X120431652Y-104148045D01*
X120431654Y-104148046D01*
X120431658Y-104148050D01*
X120544696Y-104205646D01*
X120544697Y-104205646D01*
X120544699Y-104205647D01*
X120669997Y-104225492D01*
X120670000Y-104225492D01*
X120670003Y-104225492D01*
X120795300Y-104205647D01*
X120795301Y-104205647D01*
X120795302Y-104205646D01*
X120795304Y-104205646D01*
X120908342Y-104148050D01*
X120998050Y-104058342D01*
X121055646Y-103945304D01*
X121055646Y-103945302D01*
X121055647Y-103945301D01*
X121055647Y-103945300D01*
X121075492Y-103820003D01*
X121075492Y-103819996D01*
X121055647Y-103694699D01*
X121055647Y-103694698D01*
X121048487Y-103680646D01*
X120998050Y-103581658D01*
X120998046Y-103581654D01*
X120998045Y-103581652D01*
X120908347Y-103491954D01*
X120908344Y-103491952D01*
X120908342Y-103491950D01*
X120831517Y-103452805D01*
X120795301Y-103434352D01*
X120725094Y-103423233D01*
X120661959Y-103393304D01*
X120625028Y-103333992D01*
X120620492Y-103300760D01*
X120620492Y-103294996D01*
X120600647Y-103169699D01*
X120600647Y-103169698D01*
X120597778Y-103164068D01*
X120543050Y-103056658D01*
X120543046Y-103056654D01*
X120543045Y-103056652D01*
X120453347Y-102966954D01*
X120453344Y-102966952D01*
X120453342Y-102966950D01*
X120367561Y-102923242D01*
X120316766Y-102875268D01*
X120299971Y-102807447D01*
X120304738Y-102781030D01*
X120305644Y-102775307D01*
X120305646Y-102775304D01*
X120322177Y-102670925D01*
X120352105Y-102607794D01*
X120356933Y-102602681D01*
X120594048Y-102365566D01*
X120655370Y-102332084D01*
X120681728Y-102329250D01*
X125782975Y-102329250D01*
X125850014Y-102348935D01*
X125870656Y-102365569D01*
X125886882Y-102381795D01*
X125886884Y-102381796D01*
X125886888Y-102381800D01*
X125999926Y-102439396D01*
X125999927Y-102439396D01*
X125999929Y-102439397D01*
X126125227Y-102459242D01*
X126125230Y-102459242D01*
X126125233Y-102459242D01*
X126250530Y-102439397D01*
X126250531Y-102439397D01*
X126250532Y-102439396D01*
X126250534Y-102439396D01*
X126363572Y-102381800D01*
X126453280Y-102292092D01*
X126510876Y-102179054D01*
X126510876Y-102179052D01*
X126510877Y-102179051D01*
X126510877Y-102179050D01*
X126530722Y-102053753D01*
X126530722Y-102053746D01*
X126510877Y-101928449D01*
X126510877Y-101928448D01*
X126510876Y-101928446D01*
X126453280Y-101815408D01*
X126453276Y-101815404D01*
X126453275Y-101815402D01*
X126377873Y-101740000D01*
X129019534Y-101740000D01*
X129039312Y-101890234D01*
X129039313Y-101890236D01*
X129097302Y-102030233D01*
X129189549Y-102150451D01*
X129201599Y-102159697D01*
X129203896Y-102161460D01*
X129245098Y-102217888D01*
X129249253Y-102287634D01*
X129216091Y-102347515D01*
X129171954Y-102391652D01*
X129171951Y-102391657D01*
X129171950Y-102391658D01*
X129153187Y-102428482D01*
X129114352Y-102504698D01*
X129114352Y-102504699D01*
X129094508Y-102629996D01*
X129094508Y-102630003D01*
X129114352Y-102755300D01*
X129114352Y-102755301D01*
X129127462Y-102781030D01*
X129171950Y-102868342D01*
X129171952Y-102868344D01*
X129171954Y-102868347D01*
X129261652Y-102958045D01*
X129261654Y-102958046D01*
X129261658Y-102958050D01*
X129374696Y-103015646D01*
X129374697Y-103015646D01*
X129374699Y-103015647D01*
X129499997Y-103035492D01*
X129500000Y-103035492D01*
X129500003Y-103035492D01*
X129625300Y-103015647D01*
X129625301Y-103015647D01*
X129625302Y-103015646D01*
X129625304Y-103015646D01*
X129738342Y-102958050D01*
X129828050Y-102868342D01*
X129885646Y-102755304D01*
X129885646Y-102755302D01*
X129885647Y-102755301D01*
X129885647Y-102755300D01*
X129905492Y-102630003D01*
X129905492Y-102629996D01*
X129885647Y-102504699D01*
X129885646Y-102504696D01*
X129852374Y-102439397D01*
X129836959Y-102409144D01*
X129824063Y-102340477D01*
X129850339Y-102275736D01*
X129885443Y-102245463D01*
X129890225Y-102242700D01*
X129890233Y-102242698D01*
X130010451Y-102150451D01*
X130102698Y-102030233D01*
X130160687Y-101890236D01*
X130180466Y-101740000D01*
X130178583Y-101725701D01*
X130160687Y-101589765D01*
X130160687Y-101589764D01*
X130102698Y-101449767D01*
X130010451Y-101329549D01*
X129890233Y-101237302D01*
X129890229Y-101237300D01*
X129782994Y-101192882D01*
X129750236Y-101179313D01*
X129736171Y-101177461D01*
X129637727Y-101164500D01*
X129637720Y-101164500D01*
X129562280Y-101164500D01*
X129562272Y-101164500D01*
X129449764Y-101179313D01*
X129449763Y-101179313D01*
X129309770Y-101237300D01*
X129189549Y-101329549D01*
X129097300Y-101449770D01*
X129039313Y-101589763D01*
X129039312Y-101589765D01*
X129019534Y-101739999D01*
X129019534Y-101740000D01*
X126377873Y-101740000D01*
X126363577Y-101725704D01*
X126363574Y-101725702D01*
X126363572Y-101725700D01*
X126250534Y-101668104D01*
X126250533Y-101668103D01*
X126250530Y-101668102D01*
X126125233Y-101648258D01*
X126125227Y-101648258D01*
X125999929Y-101668102D01*
X125999928Y-101668102D01*
X125924567Y-101706501D01*
X125886888Y-101725700D01*
X125886887Y-101725701D01*
X125886882Y-101725704D01*
X125870656Y-101741931D01*
X125809333Y-101775416D01*
X125782975Y-101778250D01*
X120555594Y-101778250D01*
X120531403Y-101775867D01*
X120516250Y-101772853D01*
X120516249Y-101772853D01*
X120516248Y-101772853D01*
X120495097Y-101777060D01*
X120495084Y-101777062D01*
X120408756Y-101794233D01*
X120408755Y-101794234D01*
X120377067Y-101815408D01*
X120340630Y-101839753D01*
X120340628Y-101839756D01*
X120340626Y-101839757D01*
X120334799Y-101843650D01*
X120317623Y-101855127D01*
X120309041Y-101867972D01*
X120293622Y-101886760D01*
X119967352Y-102213030D01*
X119906029Y-102246515D01*
X119899069Y-102247822D01*
X119794699Y-102264352D01*
X119794698Y-102264352D01*
X119723389Y-102300687D01*
X119681658Y-102321950D01*
X119681657Y-102321951D01*
X119681652Y-102321954D01*
X119591954Y-102411652D01*
X119591951Y-102411657D01*
X119534352Y-102524698D01*
X119534352Y-102524699D01*
X119514508Y-102649996D01*
X119514508Y-102650003D01*
X116665500Y-102650003D01*
X116665500Y-100735478D01*
X116685185Y-100668439D01*
X116691983Y-100660003D01*
X118454508Y-100660003D01*
X118474352Y-100785300D01*
X118474352Y-100785301D01*
X118483753Y-100803750D01*
X118531950Y-100898342D01*
X118531952Y-100898344D01*
X118531954Y-100898347D01*
X118621652Y-100988045D01*
X118621654Y-100988046D01*
X118621658Y-100988050D01*
X118734696Y-101045646D01*
X118734697Y-101045646D01*
X118734699Y-101045647D01*
X118859997Y-101065492D01*
X118860000Y-101065492D01*
X118860003Y-101065492D01*
X118985300Y-101045647D01*
X118985301Y-101045647D01*
X118985302Y-101045646D01*
X118985304Y-101045646D01*
X119098342Y-100988050D01*
X119188050Y-100898342D01*
X119236246Y-100803753D01*
X125639508Y-100803753D01*
X125659352Y-100929050D01*
X125659352Y-100929051D01*
X125659354Y-100929054D01*
X125716950Y-101042092D01*
X125716952Y-101042094D01*
X125716954Y-101042097D01*
X125806652Y-101131795D01*
X125806654Y-101131796D01*
X125806658Y-101131800D01*
X125919696Y-101189396D01*
X125919697Y-101189396D01*
X125919699Y-101189397D01*
X126044997Y-101209242D01*
X126045000Y-101209242D01*
X126045003Y-101209242D01*
X126170300Y-101189397D01*
X126170301Y-101189397D01*
X126170302Y-101189396D01*
X126170304Y-101189396D01*
X126283342Y-101131800D01*
X126373050Y-101042092D01*
X126430646Y-100929054D01*
X126430646Y-100929052D01*
X126430647Y-100929051D01*
X126430647Y-100929050D01*
X126450492Y-100803753D01*
X126450492Y-100803746D01*
X126430647Y-100678449D01*
X126430647Y-100678448D01*
X126421245Y-100659996D01*
X126373050Y-100565408D01*
X126373046Y-100565404D01*
X126373045Y-100565402D01*
X126317698Y-100510055D01*
X132149500Y-100510055D01*
X132190210Y-100675226D01*
X132269263Y-100825849D01*
X132269266Y-100825852D01*
X132382071Y-100953183D01*
X132454033Y-101002855D01*
X132522068Y-101049817D01*
X132522069Y-101049817D01*
X132522070Y-101049818D01*
X132681128Y-101110140D01*
X132757028Y-101119356D01*
X132807626Y-101125500D01*
X132807628Y-101125500D01*
X132892374Y-101125500D01*
X132934538Y-101120380D01*
X133018872Y-101110140D01*
X133177930Y-101049818D01*
X133317929Y-100953183D01*
X133430734Y-100825852D01*
X133442337Y-100803746D01*
X133478166Y-100735478D01*
X133509790Y-100675225D01*
X133550500Y-100510056D01*
X133550500Y-100339944D01*
X133509790Y-100174775D01*
X133503602Y-100162984D01*
X133430736Y-100024150D01*
X133357880Y-99941913D01*
X133317929Y-99896817D01*
X133219496Y-99828873D01*
X133177931Y-99800182D01*
X133018874Y-99739860D01*
X133018868Y-99739859D01*
X132892374Y-99724500D01*
X132892372Y-99724500D01*
X132807628Y-99724500D01*
X132807626Y-99724500D01*
X132681131Y-99739859D01*
X132681125Y-99739860D01*
X132522068Y-99800182D01*
X132382072Y-99896816D01*
X132269263Y-100024150D01*
X132190210Y-100174773D01*
X132149500Y-100339944D01*
X132149500Y-100510055D01*
X126317698Y-100510055D01*
X126283347Y-100475704D01*
X126283344Y-100475702D01*
X126283342Y-100475700D01*
X126170304Y-100418104D01*
X126170303Y-100418103D01*
X126170300Y-100418102D01*
X126045003Y-100398258D01*
X126044997Y-100398258D01*
X125919699Y-100418102D01*
X125919698Y-100418102D01*
X125851482Y-100452861D01*
X125806658Y-100475700D01*
X125806657Y-100475701D01*
X125806652Y-100475704D01*
X125716954Y-100565402D01*
X125716951Y-100565407D01*
X125659352Y-100678448D01*
X125659352Y-100678449D01*
X125639508Y-100803746D01*
X125639508Y-100803753D01*
X119236246Y-100803753D01*
X119245646Y-100785304D01*
X119245646Y-100785302D01*
X119245647Y-100785301D01*
X119245647Y-100785300D01*
X119265492Y-100660003D01*
X119265492Y-100659996D01*
X119245647Y-100534699D01*
X119245647Y-100534698D01*
X119233091Y-100510056D01*
X119188050Y-100421658D01*
X119188046Y-100421654D01*
X119188045Y-100421652D01*
X119098347Y-100331954D01*
X119098344Y-100331952D01*
X119098342Y-100331950D01*
X118985304Y-100274354D01*
X118985303Y-100274353D01*
X118985300Y-100274352D01*
X118860003Y-100254508D01*
X118859997Y-100254508D01*
X118734699Y-100274352D01*
X118734698Y-100274352D01*
X118673457Y-100305557D01*
X118621658Y-100331950D01*
X118621657Y-100331951D01*
X118621652Y-100331954D01*
X118531954Y-100421652D01*
X118531951Y-100421657D01*
X118474352Y-100534698D01*
X118474352Y-100534699D01*
X118454508Y-100659996D01*
X118454508Y-100660003D01*
X116691983Y-100660003D01*
X116701819Y-100647797D01*
X118717797Y-98631819D01*
X118779120Y-98598334D01*
X118805478Y-98595500D01*
X123187745Y-98595500D01*
X123254784Y-98615185D01*
X123275426Y-98631819D01*
X123291652Y-98648045D01*
X123291654Y-98648046D01*
X123291658Y-98648050D01*
X123366973Y-98686425D01*
X123417768Y-98734399D01*
X123434563Y-98802220D01*
X123421162Y-98853204D01*
X123364352Y-98964698D01*
X123364352Y-98964699D01*
X123344508Y-99089996D01*
X123344508Y-99090003D01*
X123364352Y-99215300D01*
X123364352Y-99215301D01*
X123364354Y-99215304D01*
X123418982Y-99322517D01*
X123431878Y-99391185D01*
X123405602Y-99455926D01*
X123348496Y-99496183D01*
X123327900Y-99501284D01*
X123324406Y-99501837D01*
X123272971Y-99528045D01*
X123211367Y-99559434D01*
X123211366Y-99559435D01*
X123211361Y-99559438D01*
X123121663Y-99649136D01*
X123121660Y-99649141D01*
X123064061Y-99762182D01*
X123064061Y-99762183D01*
X123044217Y-99887480D01*
X123044217Y-99887487D01*
X123064061Y-100012784D01*
X123064061Y-100012785D01*
X123069851Y-100024148D01*
X123121659Y-100125826D01*
X123121661Y-100125828D01*
X123121663Y-100125831D01*
X123211361Y-100215529D01*
X123211363Y-100215530D01*
X123211367Y-100215534D01*
X123324405Y-100273130D01*
X123324406Y-100273130D01*
X123324408Y-100273131D01*
X123449706Y-100292976D01*
X123449709Y-100292976D01*
X123449712Y-100292976D01*
X123575009Y-100273131D01*
X123575010Y-100273131D01*
X123575011Y-100273130D01*
X123575013Y-100273130D01*
X123688051Y-100215534D01*
X123688056Y-100215529D01*
X123704283Y-100199303D01*
X123765606Y-100165818D01*
X123791964Y-100162984D01*
X123803172Y-100162984D01*
X123827362Y-100165366D01*
X123842516Y-100168381D01*
X123869648Y-100162984D01*
X123869649Y-100162984D01*
X123950011Y-100146999D01*
X124003963Y-100110949D01*
X124018138Y-100101478D01*
X124018138Y-100101477D01*
X124031566Y-100092506D01*
X124031569Y-100092502D01*
X124041140Y-100086108D01*
X124049724Y-100073259D01*
X124054682Y-100067218D01*
X129094510Y-100067218D01*
X129114354Y-100192515D01*
X129114354Y-100192516D01*
X129126080Y-100215529D01*
X129171952Y-100305557D01*
X129171954Y-100305559D01*
X129171956Y-100305562D01*
X129261654Y-100395260D01*
X129261656Y-100395261D01*
X129261660Y-100395265D01*
X129374698Y-100452861D01*
X129374699Y-100452861D01*
X129374701Y-100452862D01*
X129499999Y-100472707D01*
X129500002Y-100472707D01*
X129500005Y-100472707D01*
X129625302Y-100452862D01*
X129625303Y-100452862D01*
X129625304Y-100452861D01*
X129625306Y-100452861D01*
X129738344Y-100395265D01*
X129828052Y-100305557D01*
X129885648Y-100192519D01*
X129885648Y-100192517D01*
X129885649Y-100192516D01*
X129885649Y-100192515D01*
X129905494Y-100067218D01*
X129905494Y-100067211D01*
X129885649Y-99941914D01*
X129885649Y-99941913D01*
X129862671Y-99896817D01*
X129828052Y-99828873D01*
X129828048Y-99828869D01*
X129828047Y-99828867D01*
X129738349Y-99739169D01*
X129738346Y-99739167D01*
X129738344Y-99739165D01*
X129625306Y-99681569D01*
X129625305Y-99681568D01*
X129625302Y-99681567D01*
X129500005Y-99661723D01*
X129499999Y-99661723D01*
X129374701Y-99681567D01*
X129374700Y-99681567D01*
X129299339Y-99719966D01*
X129261660Y-99739165D01*
X129261659Y-99739166D01*
X129261654Y-99739169D01*
X129171956Y-99828867D01*
X129171953Y-99828872D01*
X129114354Y-99941913D01*
X129114354Y-99941914D01*
X129094510Y-100067211D01*
X129094510Y-100067218D01*
X124054682Y-100067218D01*
X124065140Y-100054474D01*
X124526989Y-99592625D01*
X124545774Y-99577209D01*
X124558624Y-99568624D01*
X124619515Y-99477495D01*
X124635500Y-99397133D01*
X124635500Y-99397132D01*
X124640897Y-99370000D01*
X124637883Y-99354847D01*
X124635500Y-99330655D01*
X124635500Y-99260003D01*
X126174508Y-99260003D01*
X126194352Y-99385300D01*
X126194352Y-99385301D01*
X126200381Y-99397133D01*
X126251950Y-99498342D01*
X126251952Y-99498344D01*
X126251954Y-99498347D01*
X126341652Y-99588045D01*
X126341654Y-99588046D01*
X126341658Y-99588050D01*
X126454696Y-99645646D01*
X126454697Y-99645646D01*
X126454699Y-99645647D01*
X126579997Y-99665492D01*
X126580000Y-99665492D01*
X126580003Y-99665492D01*
X126705300Y-99645647D01*
X126705301Y-99645647D01*
X126705302Y-99645646D01*
X126705304Y-99645646D01*
X126818342Y-99588050D01*
X126908050Y-99498342D01*
X126965646Y-99385304D01*
X126965646Y-99385302D01*
X126965647Y-99385301D01*
X126965647Y-99385300D01*
X126985492Y-99260003D01*
X126985492Y-99259996D01*
X126975990Y-99200003D01*
X133744508Y-99200003D01*
X133764352Y-99325300D01*
X133764352Y-99325301D01*
X133764354Y-99325304D01*
X133821950Y-99438342D01*
X133821952Y-99438344D01*
X133821954Y-99438347D01*
X133911652Y-99528045D01*
X133911654Y-99528046D01*
X133911658Y-99528050D01*
X134024696Y-99585646D01*
X134024697Y-99585646D01*
X134024699Y-99585647D01*
X134149997Y-99605492D01*
X134150000Y-99605492D01*
X134150003Y-99605492D01*
X134275300Y-99585647D01*
X134275301Y-99585647D01*
X134275302Y-99585646D01*
X134275304Y-99585646D01*
X134388342Y-99528050D01*
X134478050Y-99438342D01*
X134535646Y-99325304D01*
X134535646Y-99325302D01*
X134535647Y-99325301D01*
X134535647Y-99325300D01*
X134555492Y-99200003D01*
X134555492Y-99199996D01*
X134535647Y-99074699D01*
X134535647Y-99074698D01*
X134535646Y-99074696D01*
X134478050Y-98961658D01*
X134478046Y-98961654D01*
X134478045Y-98961652D01*
X134388347Y-98871954D01*
X134388344Y-98871952D01*
X134388342Y-98871950D01*
X134275304Y-98814354D01*
X134275303Y-98814353D01*
X134275300Y-98814352D01*
X134150003Y-98794508D01*
X134149997Y-98794508D01*
X134024699Y-98814352D01*
X134024698Y-98814352D01*
X133951483Y-98851658D01*
X133911658Y-98871950D01*
X133911657Y-98871951D01*
X133911652Y-98871954D01*
X133821954Y-98961652D01*
X133821951Y-98961657D01*
X133821950Y-98961658D01*
X133820401Y-98964698D01*
X133764352Y-99074698D01*
X133764352Y-99074699D01*
X133744508Y-99199996D01*
X133744508Y-99200003D01*
X126975990Y-99200003D01*
X126965647Y-99134699D01*
X126965647Y-99134698D01*
X126965646Y-99134696D01*
X126908050Y-99021658D01*
X126908046Y-99021654D01*
X126908045Y-99021652D01*
X126818347Y-98931954D01*
X126818344Y-98931952D01*
X126818342Y-98931950D01*
X126705304Y-98874354D01*
X126705303Y-98874353D01*
X126705300Y-98874352D01*
X126580003Y-98854508D01*
X126579997Y-98854508D01*
X126454699Y-98874352D01*
X126454698Y-98874352D01*
X126379337Y-98912751D01*
X126341658Y-98931950D01*
X126341657Y-98931951D01*
X126341652Y-98931954D01*
X126251954Y-99021652D01*
X126251951Y-99021657D01*
X126194352Y-99134698D01*
X126194352Y-99134699D01*
X126174508Y-99259996D01*
X126174508Y-99260003D01*
X124635500Y-99260003D01*
X124635500Y-98439345D01*
X124637883Y-98415152D01*
X124640897Y-98400001D01*
X124619516Y-98292507D01*
X124603373Y-98268347D01*
X124570627Y-98219338D01*
X124570609Y-98219314D01*
X124558624Y-98201377D01*
X124558621Y-98201375D01*
X124558621Y-98201374D01*
X124545775Y-98192791D01*
X124526985Y-98177370D01*
X124489618Y-98140003D01*
X125644510Y-98140003D01*
X125664354Y-98265300D01*
X125664354Y-98265301D01*
X125664356Y-98265304D01*
X125721952Y-98378342D01*
X125721954Y-98378344D01*
X125721956Y-98378347D01*
X125811654Y-98468045D01*
X125811656Y-98468046D01*
X125811660Y-98468050D01*
X125924698Y-98525646D01*
X125924699Y-98525646D01*
X125924701Y-98525647D01*
X126049999Y-98545492D01*
X126050002Y-98545492D01*
X126050005Y-98545492D01*
X126175302Y-98525647D01*
X126175303Y-98525647D01*
X126175304Y-98525646D01*
X126175306Y-98525646D01*
X126288344Y-98468050D01*
X126378052Y-98378342D01*
X126435648Y-98265304D01*
X126435648Y-98265302D01*
X126435649Y-98265301D01*
X126435649Y-98265300D01*
X126455494Y-98140003D01*
X126455494Y-98139996D01*
X126435649Y-98014699D01*
X126435649Y-98014698D01*
X126426944Y-97997614D01*
X126378052Y-97901658D01*
X126378048Y-97901654D01*
X126378047Y-97901652D01*
X126288349Y-97811954D01*
X126288346Y-97811952D01*
X126288344Y-97811950D01*
X126175306Y-97754354D01*
X126175305Y-97754353D01*
X126175302Y-97754352D01*
X126050005Y-97734508D01*
X126049999Y-97734508D01*
X125924701Y-97754352D01*
X125924700Y-97754352D01*
X125874555Y-97779903D01*
X125811660Y-97811950D01*
X125811659Y-97811951D01*
X125811654Y-97811954D01*
X125721956Y-97901652D01*
X125721953Y-97901657D01*
X125721952Y-97901658D01*
X125702753Y-97939337D01*
X125664354Y-98014698D01*
X125664354Y-98014699D01*
X125644510Y-98139996D01*
X125644510Y-98140003D01*
X124489618Y-98140003D01*
X123859671Y-97510056D01*
X132149500Y-97510056D01*
X132161311Y-97557976D01*
X132190210Y-97675226D01*
X132269263Y-97825849D01*
X132286952Y-97845816D01*
X132382071Y-97953183D01*
X132438240Y-97991954D01*
X132522068Y-98049817D01*
X132522069Y-98049817D01*
X132522070Y-98049818D01*
X132681128Y-98110140D01*
X132757028Y-98119356D01*
X132807626Y-98125500D01*
X132807628Y-98125500D01*
X132892374Y-98125500D01*
X132934538Y-98120380D01*
X133018872Y-98110140D01*
X133177930Y-98049818D01*
X133317929Y-97953183D01*
X133430734Y-97825852D01*
X133438029Y-97811954D01*
X133477091Y-97737527D01*
X133509790Y-97675225D01*
X133550500Y-97510056D01*
X133550500Y-97339944D01*
X133509790Y-97174775D01*
X133500497Y-97157068D01*
X133430736Y-97024150D01*
X133382763Y-96970000D01*
X133317929Y-96896817D01*
X133242422Y-96844698D01*
X133177931Y-96800182D01*
X133018874Y-96739860D01*
X133018868Y-96739859D01*
X132892374Y-96724500D01*
X132892372Y-96724500D01*
X132807628Y-96724500D01*
X132807626Y-96724500D01*
X132681131Y-96739859D01*
X132681125Y-96739860D01*
X132522068Y-96800182D01*
X132382072Y-96896816D01*
X132269263Y-97024150D01*
X132190210Y-97174773D01*
X132163767Y-97282061D01*
X132149500Y-97339944D01*
X132149500Y-97510056D01*
X123859671Y-97510056D01*
X123319618Y-96970003D01*
X126153492Y-96970003D01*
X126173336Y-97095300D01*
X126173336Y-97095301D01*
X126173338Y-97095304D01*
X126230934Y-97208342D01*
X126230936Y-97208344D01*
X126230938Y-97208347D01*
X126320636Y-97298045D01*
X126320638Y-97298046D01*
X126320642Y-97298050D01*
X126433680Y-97355646D01*
X126433681Y-97355646D01*
X126433683Y-97355647D01*
X126558981Y-97375492D01*
X126558984Y-97375492D01*
X126558987Y-97375492D01*
X126684284Y-97355647D01*
X126684285Y-97355647D01*
X126684286Y-97355646D01*
X126684288Y-97355646D01*
X126797326Y-97298050D01*
X126887034Y-97208342D01*
X126944630Y-97095304D01*
X126944630Y-97095302D01*
X126944631Y-97095301D01*
X126944631Y-97095300D01*
X126964476Y-96970003D01*
X126964476Y-96969996D01*
X126944631Y-96844699D01*
X126944631Y-96844698D01*
X126931285Y-96818506D01*
X126887034Y-96731658D01*
X126887030Y-96731654D01*
X126887029Y-96731652D01*
X126797331Y-96641954D01*
X126797328Y-96641952D01*
X126797326Y-96641950D01*
X126684288Y-96584354D01*
X126684287Y-96584353D01*
X126684284Y-96584352D01*
X126558987Y-96564508D01*
X126558981Y-96564508D01*
X126433683Y-96584352D01*
X126433682Y-96584352D01*
X126386591Y-96608347D01*
X126320642Y-96641950D01*
X126320641Y-96641951D01*
X126320636Y-96641954D01*
X126230938Y-96731652D01*
X126230935Y-96731657D01*
X126230934Y-96731658D01*
X126218711Y-96755647D01*
X126173336Y-96844698D01*
X126173336Y-96844699D01*
X126153492Y-96969996D01*
X126153492Y-96970003D01*
X123319618Y-96970003D01*
X123242626Y-96893011D01*
X123227204Y-96874219D01*
X123218623Y-96861376D01*
X123218620Y-96861373D01*
X123200687Y-96849391D01*
X123200686Y-96849391D01*
X123195622Y-96846007D01*
X123195621Y-96846006D01*
X123169464Y-96828528D01*
X123169461Y-96828526D01*
X123137677Y-96807289D01*
X123127494Y-96800485D01*
X123127493Y-96800484D01*
X123127492Y-96800484D01*
X123041164Y-96783312D01*
X123041151Y-96783310D01*
X123020001Y-96779103D01*
X123020000Y-96779103D01*
X123019999Y-96779103D01*
X123004845Y-96782117D01*
X122980655Y-96784500D01*
X122059344Y-96784500D01*
X122035153Y-96782117D01*
X122020000Y-96779103D01*
X122019999Y-96779103D01*
X122019998Y-96779103D01*
X121998847Y-96783310D01*
X121998834Y-96783312D01*
X121912510Y-96800483D01*
X121912504Y-96800485D01*
X121870536Y-96828525D01*
X121870536Y-96828527D01*
X121844378Y-96846006D01*
X121844376Y-96846007D01*
X121821374Y-96861376D01*
X121812791Y-96874222D01*
X121797372Y-96893010D01*
X121432203Y-97258181D01*
X121370880Y-97291666D01*
X121344522Y-97294500D01*
X117685478Y-97294500D01*
X117618439Y-97274815D01*
X117597797Y-97258181D01*
X117345070Y-97005454D01*
X117311585Y-96944131D01*
X117316569Y-96874439D01*
X117358441Y-96818506D01*
X117423905Y-96794089D01*
X117489046Y-96807288D01*
X117511061Y-96818506D01*
X117544696Y-96835644D01*
X117544699Y-96835645D01*
X117669997Y-96855490D01*
X117670000Y-96855490D01*
X117670003Y-96855490D01*
X117795300Y-96835645D01*
X117795301Y-96835645D01*
X117795302Y-96835644D01*
X117795304Y-96835644D01*
X117908342Y-96778048D01*
X117998050Y-96688340D01*
X118055646Y-96575302D01*
X118055646Y-96575300D01*
X118055647Y-96575299D01*
X118055647Y-96575298D01*
X118063086Y-96528331D01*
X118932266Y-96528331D01*
X118952110Y-96653628D01*
X118952110Y-96653629D01*
X118966188Y-96681257D01*
X119009708Y-96766670D01*
X119009710Y-96766672D01*
X119009712Y-96766675D01*
X119099410Y-96856373D01*
X119099412Y-96856374D01*
X119099416Y-96856378D01*
X119212454Y-96913974D01*
X119212455Y-96913974D01*
X119212457Y-96913975D01*
X119337755Y-96933820D01*
X119337758Y-96933820D01*
X119337761Y-96933820D01*
X119463058Y-96913975D01*
X119463059Y-96913975D01*
X119463060Y-96913974D01*
X119463062Y-96913974D01*
X119576100Y-96856378D01*
X119665808Y-96766670D01*
X119723404Y-96653632D01*
X119723404Y-96653630D01*
X119723405Y-96653629D01*
X119723405Y-96653628D01*
X119743250Y-96528331D01*
X119743250Y-96528324D01*
X119723405Y-96403027D01*
X119723405Y-96403026D01*
X119706807Y-96370451D01*
X119706579Y-96370003D01*
X120494508Y-96370003D01*
X120514352Y-96495300D01*
X120514352Y-96495301D01*
X120514354Y-96495304D01*
X120571950Y-96608342D01*
X120571952Y-96608344D01*
X120571954Y-96608347D01*
X120661652Y-96698045D01*
X120661654Y-96698046D01*
X120661658Y-96698050D01*
X120774696Y-96755646D01*
X120774697Y-96755646D01*
X120774699Y-96755647D01*
X120899997Y-96775492D01*
X120900000Y-96775492D01*
X120900003Y-96775492D01*
X121025300Y-96755647D01*
X121025301Y-96755647D01*
X121025302Y-96755646D01*
X121025304Y-96755646D01*
X121138342Y-96698050D01*
X121228050Y-96608342D01*
X121285646Y-96495304D01*
X121285646Y-96495302D01*
X121285647Y-96495301D01*
X121285647Y-96495300D01*
X121305492Y-96370003D01*
X121305492Y-96369996D01*
X121285647Y-96244699D01*
X121285647Y-96244698D01*
X121268811Y-96211656D01*
X121228050Y-96131658D01*
X121228046Y-96131654D01*
X121228045Y-96131652D01*
X121138347Y-96041954D01*
X121138344Y-96041952D01*
X121138342Y-96041950D01*
X121025304Y-95984354D01*
X121025303Y-95984353D01*
X121025300Y-95984352D01*
X120900003Y-95964508D01*
X120899997Y-95964508D01*
X120774699Y-95984352D01*
X120774698Y-95984352D01*
X120713282Y-96015646D01*
X120661658Y-96041950D01*
X120661657Y-96041951D01*
X120661652Y-96041954D01*
X120571954Y-96131652D01*
X120571951Y-96131657D01*
X120571950Y-96131658D01*
X120566334Y-96142680D01*
X120514352Y-96244698D01*
X120514352Y-96244699D01*
X120494508Y-96369996D01*
X120494508Y-96370003D01*
X119706579Y-96370003D01*
X119665808Y-96289986D01*
X119665804Y-96289982D01*
X119665803Y-96289980D01*
X119576105Y-96200282D01*
X119576102Y-96200280D01*
X119576100Y-96200278D01*
X119463062Y-96142682D01*
X119463061Y-96142681D01*
X119463058Y-96142680D01*
X119337761Y-96122836D01*
X119337755Y-96122836D01*
X119212457Y-96142680D01*
X119212456Y-96142680D01*
X119137095Y-96181079D01*
X119099416Y-96200278D01*
X119099415Y-96200279D01*
X119099410Y-96200282D01*
X119009712Y-96289980D01*
X119009709Y-96289985D01*
X119009708Y-96289986D01*
X118997410Y-96314122D01*
X118952110Y-96403026D01*
X118952110Y-96403027D01*
X118932266Y-96528324D01*
X118932266Y-96528331D01*
X118063086Y-96528331D01*
X118075492Y-96450001D01*
X118075492Y-96449994D01*
X118055647Y-96324697D01*
X118055647Y-96324696D01*
X118046634Y-96307007D01*
X117998050Y-96211656D01*
X117998046Y-96211652D01*
X117998045Y-96211650D01*
X117908343Y-96121948D01*
X117904461Y-96119970D01*
X117900595Y-96116319D01*
X117900448Y-96116212D01*
X117900461Y-96116192D01*
X117853665Y-96071995D01*
X117836757Y-96009486D01*
X117836757Y-95630003D01*
X124044506Y-95630003D01*
X124064350Y-95755300D01*
X124064350Y-95755301D01*
X124064352Y-95755304D01*
X124121948Y-95868342D01*
X124121950Y-95868344D01*
X124121952Y-95868347D01*
X124211650Y-95958045D01*
X124211652Y-95958046D01*
X124211656Y-95958050D01*
X124324694Y-96015646D01*
X124324695Y-96015646D01*
X124324697Y-96015647D01*
X124449995Y-96035492D01*
X124449998Y-96035492D01*
X124450001Y-96035492D01*
X124575298Y-96015647D01*
X124575299Y-96015647D01*
X124575300Y-96015646D01*
X124575302Y-96015646D01*
X124688340Y-95958050D01*
X124778048Y-95868342D01*
X124835644Y-95755304D01*
X124835644Y-95755302D01*
X124835645Y-95755301D01*
X124835645Y-95755300D01*
X124855490Y-95630003D01*
X124855490Y-95629996D01*
X124835645Y-95504699D01*
X124835645Y-95504698D01*
X124811494Y-95457300D01*
X124778048Y-95391658D01*
X124778044Y-95391654D01*
X124778043Y-95391652D01*
X124688345Y-95301954D01*
X124688342Y-95301952D01*
X124688340Y-95301950D01*
X124575302Y-95244354D01*
X124575301Y-95244353D01*
X124575298Y-95244352D01*
X124450001Y-95224508D01*
X124449995Y-95224508D01*
X124324697Y-95244352D01*
X124324696Y-95244352D01*
X124249335Y-95282751D01*
X124211656Y-95301950D01*
X124211655Y-95301951D01*
X124211650Y-95301954D01*
X124121952Y-95391652D01*
X124121949Y-95391657D01*
X124121948Y-95391658D01*
X124104909Y-95425098D01*
X124064350Y-95504698D01*
X124064350Y-95504699D01*
X124044506Y-95629996D01*
X124044506Y-95630003D01*
X117836757Y-95630003D01*
X117836757Y-95020003D01*
X128984508Y-95020003D01*
X129004352Y-95145300D01*
X129004352Y-95145301D01*
X129022805Y-95181517D01*
X129061950Y-95258342D01*
X129061952Y-95258344D01*
X129061954Y-95258347D01*
X129151652Y-95348045D01*
X129151654Y-95348046D01*
X129151658Y-95348050D01*
X129158176Y-95351371D01*
X129208971Y-95399345D01*
X129225766Y-95467166D01*
X129203228Y-95533301D01*
X129189569Y-95549529D01*
X129189553Y-95549544D01*
X129189549Y-95549548D01*
X129189549Y-95549549D01*
X129127817Y-95630000D01*
X129097300Y-95669770D01*
X129039313Y-95809763D01*
X129039312Y-95809765D01*
X129019534Y-95959999D01*
X129019534Y-95960000D01*
X129039312Y-96110234D01*
X129039313Y-96110236D01*
X129095009Y-96244699D01*
X129097302Y-96250233D01*
X129189549Y-96370451D01*
X129309767Y-96462698D01*
X129449764Y-96520687D01*
X129562280Y-96535500D01*
X129562287Y-96535500D01*
X129637713Y-96535500D01*
X129637720Y-96535500D01*
X129750236Y-96520687D01*
X129890233Y-96462698D01*
X130010451Y-96370451D01*
X130102698Y-96250233D01*
X130160687Y-96110236D01*
X130180466Y-95960000D01*
X130160687Y-95809764D01*
X130102698Y-95669767D01*
X130010451Y-95549549D01*
X129890233Y-95457302D01*
X129890229Y-95457300D01*
X129788279Y-95415071D01*
X129733876Y-95371230D01*
X129711811Y-95304936D01*
X129725247Y-95244216D01*
X129775646Y-95145304D01*
X129775646Y-95145302D01*
X129775647Y-95145300D01*
X129795492Y-95020003D01*
X129795492Y-95019996D01*
X129775647Y-94894699D01*
X129775647Y-94894698D01*
X129774342Y-94892137D01*
X129718050Y-94781658D01*
X129718046Y-94781654D01*
X129718045Y-94781652D01*
X129628347Y-94691954D01*
X129628344Y-94691952D01*
X129628342Y-94691950D01*
X129515304Y-94634354D01*
X129515303Y-94634353D01*
X129515300Y-94634352D01*
X129390003Y-94614508D01*
X129389997Y-94614508D01*
X129264699Y-94634352D01*
X129264698Y-94634352D01*
X129206858Y-94663824D01*
X129151658Y-94691950D01*
X129151657Y-94691951D01*
X129151652Y-94691954D01*
X129061954Y-94781652D01*
X129061951Y-94781657D01*
X129004352Y-94894698D01*
X129004352Y-94894699D01*
X128984508Y-95019996D01*
X128984508Y-95020003D01*
X117836757Y-95020003D01*
X117836757Y-94744926D01*
X117856442Y-94677887D01*
X117873078Y-94657243D01*
X117889303Y-94641018D01*
X117889307Y-94641014D01*
X117946903Y-94527976D01*
X117946903Y-94527974D01*
X117946904Y-94527973D01*
X117946904Y-94527972D01*
X117960837Y-94440003D01*
X123914508Y-94440003D01*
X123934352Y-94565300D01*
X123934352Y-94565301D01*
X123942769Y-94581819D01*
X123991950Y-94678342D01*
X123991952Y-94678344D01*
X123991954Y-94678347D01*
X124081652Y-94768045D01*
X124081654Y-94768046D01*
X124081658Y-94768050D01*
X124194696Y-94825646D01*
X124194697Y-94825646D01*
X124194699Y-94825647D01*
X124319997Y-94845492D01*
X124320000Y-94845492D01*
X124320003Y-94845492D01*
X124445300Y-94825647D01*
X124445301Y-94825647D01*
X124445302Y-94825646D01*
X124445304Y-94825646D01*
X124558342Y-94768050D01*
X124648050Y-94678342D01*
X124705646Y-94565304D01*
X124705646Y-94565302D01*
X124705647Y-94565301D01*
X124705647Y-94565300D01*
X124725492Y-94440003D01*
X124725492Y-94439996D01*
X124705647Y-94314699D01*
X124705647Y-94314698D01*
X124705646Y-94314696D01*
X124648050Y-94201658D01*
X124648046Y-94201654D01*
X124648045Y-94201652D01*
X124558347Y-94111954D01*
X124558344Y-94111952D01*
X124558342Y-94111950D01*
X124445304Y-94054354D01*
X124445303Y-94054353D01*
X124445300Y-94054352D01*
X124320003Y-94034508D01*
X124319997Y-94034508D01*
X124194699Y-94054352D01*
X124194698Y-94054352D01*
X124119337Y-94092751D01*
X124081658Y-94111950D01*
X124081657Y-94111951D01*
X124081652Y-94111954D01*
X123991954Y-94201652D01*
X123991951Y-94201657D01*
X123934352Y-94314698D01*
X123934352Y-94314699D01*
X123914508Y-94439996D01*
X123914508Y-94440003D01*
X117960837Y-94440003D01*
X117966749Y-94402675D01*
X117966749Y-94402668D01*
X117946904Y-94277371D01*
X117946904Y-94277370D01*
X117943147Y-94269996D01*
X117889307Y-94164330D01*
X117889303Y-94164326D01*
X117889302Y-94164324D01*
X117799604Y-94074626D01*
X117799601Y-94074624D01*
X117799599Y-94074622D01*
X117686561Y-94017026D01*
X117686560Y-94017025D01*
X117686557Y-94017024D01*
X117561260Y-93997180D01*
X117561254Y-93997180D01*
X117435956Y-94017024D01*
X117435955Y-94017024D01*
X117362697Y-94054352D01*
X117322915Y-94074622D01*
X117322914Y-94074623D01*
X117322909Y-94074626D01*
X117233211Y-94164324D01*
X117233208Y-94164329D01*
X117175609Y-94277370D01*
X117175609Y-94277371D01*
X117155765Y-94402668D01*
X117155765Y-94402675D01*
X117175609Y-94527972D01*
X117175609Y-94527973D01*
X117184540Y-94545500D01*
X117233207Y-94641014D01*
X117233209Y-94641016D01*
X117233210Y-94641018D01*
X117249436Y-94657243D01*
X117282923Y-94718565D01*
X117285757Y-94744926D01*
X117285757Y-96301910D01*
X117283374Y-96326103D01*
X117280216Y-96341975D01*
X117278833Y-96359551D01*
X117264508Y-96449995D01*
X117264508Y-96450001D01*
X117284352Y-96575298D01*
X117284352Y-96575299D01*
X117284354Y-96575302D01*
X117307317Y-96620370D01*
X117312709Y-96630951D01*
X117325605Y-96699620D01*
X117299329Y-96764361D01*
X117242222Y-96804618D01*
X117172417Y-96807610D01*
X117114543Y-96774927D01*
X117052512Y-96712896D01*
X117037090Y-96694104D01*
X117028509Y-96681261D01*
X117028504Y-96681257D01*
X117005509Y-96665892D01*
X117005508Y-96665892D01*
X117005507Y-96665891D01*
X116969067Y-96641543D01*
X116969066Y-96641542D01*
X116969065Y-96641541D01*
X116937379Y-96620369D01*
X116937378Y-96620368D01*
X116851050Y-96603197D01*
X116851037Y-96603195D01*
X116829887Y-96598988D01*
X116829885Y-96598988D01*
X116829347Y-96599095D01*
X116828152Y-96598988D01*
X116817672Y-96598988D01*
X116817672Y-96598049D01*
X116759756Y-96592866D01*
X116717475Y-96565156D01*
X116704158Y-96551838D01*
X116704156Y-96551837D01*
X116704154Y-96551835D01*
X116591116Y-96494239D01*
X116591115Y-96494238D01*
X116591112Y-96494237D01*
X116465815Y-96474393D01*
X116465809Y-96474393D01*
X116340511Y-96494237D01*
X116340510Y-96494237D01*
X116288601Y-96520687D01*
X116227470Y-96551835D01*
X116227469Y-96551836D01*
X116227464Y-96551839D01*
X116137766Y-96641537D01*
X116137764Y-96641541D01*
X116137762Y-96641543D01*
X116125356Y-96665891D01*
X116080164Y-96754583D01*
X116080164Y-96754584D01*
X116063634Y-96858954D01*
X116033705Y-96922089D01*
X116028842Y-96927237D01*
X115823010Y-97133069D01*
X115804222Y-97148488D01*
X115791380Y-97157068D01*
X115791375Y-97157073D01*
X115735593Y-97240557D01*
X115730485Y-97248202D01*
X115721276Y-97294500D01*
X115709103Y-97355696D01*
X115712117Y-97370848D01*
X115714500Y-97395041D01*
X115714500Y-106272798D01*
X115694815Y-106339837D01*
X115642011Y-106385592D01*
X115572853Y-106395536D01*
X115571103Y-106395272D01*
X115506474Y-106385036D01*
X115440000Y-106374508D01*
X115439998Y-106374508D01*
X115439997Y-106374508D01*
X115314699Y-106394352D01*
X115314698Y-106394352D01*
X115256277Y-106424120D01*
X115201658Y-106451950D01*
X115201657Y-106451951D01*
X115201652Y-106451954D01*
X115111954Y-106541652D01*
X115111951Y-106541657D01*
X115054352Y-106654698D01*
X115054352Y-106654699D01*
X115034508Y-106779996D01*
X115034508Y-106780003D01*
X114433411Y-106780003D01*
X114604104Y-106274618D01*
X114604104Y-94991877D01*
X115842312Y-94991877D01*
X115862156Y-95117174D01*
X115862156Y-95117175D01*
X115862158Y-95117178D01*
X115919754Y-95230216D01*
X115919756Y-95230218D01*
X115919758Y-95230221D01*
X115988891Y-95299354D01*
X116022376Y-95360677D01*
X116017392Y-95430369D01*
X115988891Y-95474716D01*
X115971954Y-95491652D01*
X115971951Y-95491657D01*
X115971950Y-95491658D01*
X115952751Y-95529337D01*
X115914352Y-95604698D01*
X115914352Y-95604699D01*
X115894508Y-95729996D01*
X115894508Y-95730003D01*
X115914352Y-95855300D01*
X115914352Y-95855301D01*
X115932805Y-95891517D01*
X115971950Y-95968342D01*
X115971952Y-95968344D01*
X115971954Y-95968347D01*
X116061652Y-96058045D01*
X116061654Y-96058046D01*
X116061658Y-96058050D01*
X116174696Y-96115646D01*
X116174697Y-96115646D01*
X116174699Y-96115647D01*
X116299997Y-96135492D01*
X116300000Y-96135492D01*
X116300003Y-96135492D01*
X116425300Y-96115647D01*
X116425301Y-96115647D01*
X116425302Y-96115646D01*
X116425304Y-96115646D01*
X116538342Y-96058050D01*
X116628050Y-95968342D01*
X116685646Y-95855304D01*
X116685646Y-95855302D01*
X116685647Y-95855301D01*
X116685647Y-95855300D01*
X116705492Y-95730003D01*
X116705492Y-95729996D01*
X116685647Y-95604699D01*
X116685647Y-95604698D01*
X116680959Y-95595498D01*
X116628050Y-95491658D01*
X116628046Y-95491654D01*
X116628045Y-95491652D01*
X116558912Y-95422519D01*
X116525427Y-95361196D01*
X116530411Y-95291504D01*
X116558911Y-95247158D01*
X116575854Y-95230216D01*
X116633450Y-95117178D01*
X116633450Y-95117176D01*
X116633451Y-95117175D01*
X116633451Y-95117174D01*
X116653296Y-94991877D01*
X116653296Y-94991870D01*
X116633451Y-94866573D01*
X116633451Y-94866572D01*
X116622710Y-94845492D01*
X116575854Y-94753532D01*
X116575850Y-94753528D01*
X116575849Y-94753526D01*
X116486151Y-94663828D01*
X116486148Y-94663826D01*
X116486146Y-94663824D01*
X116373108Y-94606228D01*
X116373107Y-94606227D01*
X116373104Y-94606226D01*
X116247807Y-94586382D01*
X116247801Y-94586382D01*
X116122503Y-94606226D01*
X116122502Y-94606226D01*
X116054229Y-94641014D01*
X116009462Y-94663824D01*
X116009461Y-94663825D01*
X116009456Y-94663828D01*
X115919758Y-94753526D01*
X115919755Y-94753531D01*
X115919754Y-94753532D01*
X115912358Y-94768048D01*
X115862156Y-94866572D01*
X115862156Y-94866573D01*
X115842312Y-94991870D01*
X115842312Y-94991877D01*
X114604104Y-94991877D01*
X114604104Y-93074618D01*
X114604104Y-93074617D01*
X114358184Y-92750003D01*
X115044508Y-92750003D01*
X115064352Y-92875300D01*
X115064352Y-92875301D01*
X115082805Y-92911517D01*
X115121950Y-92988342D01*
X115121952Y-92988344D01*
X115121954Y-92988347D01*
X115211652Y-93078045D01*
X115211654Y-93078046D01*
X115211658Y-93078050D01*
X115324696Y-93135646D01*
X115324697Y-93135646D01*
X115324699Y-93135647D01*
X115449997Y-93155492D01*
X115450000Y-93155492D01*
X115450003Y-93155492D01*
X115575300Y-93135647D01*
X115575301Y-93135647D01*
X115575302Y-93135646D01*
X115575304Y-93135646D01*
X115688342Y-93078050D01*
X115778050Y-92988342D01*
X115835646Y-92875304D01*
X115835646Y-92875302D01*
X115835647Y-92875301D01*
X115835647Y-92875300D01*
X115855492Y-92750003D01*
X115855492Y-92749996D01*
X115835647Y-92624699D01*
X115835647Y-92624698D01*
X115835646Y-92624696D01*
X115797588Y-92550003D01*
X119824508Y-92550003D01*
X119844352Y-92675300D01*
X119844352Y-92675301D01*
X119849449Y-92685304D01*
X119901950Y-92788342D01*
X119901952Y-92788344D01*
X119901954Y-92788347D01*
X119991652Y-92878045D01*
X119991654Y-92878046D01*
X119991658Y-92878050D01*
X120104696Y-92935646D01*
X120104697Y-92935646D01*
X120104699Y-92935647D01*
X120229997Y-92955492D01*
X120230000Y-92955492D01*
X120230003Y-92955492D01*
X120355300Y-92935647D01*
X120355301Y-92935647D01*
X120355302Y-92935646D01*
X120355304Y-92935646D01*
X120468342Y-92878050D01*
X120558050Y-92788342D01*
X120615646Y-92675304D01*
X120615646Y-92675302D01*
X120615647Y-92675301D01*
X120615647Y-92675300D01*
X120633908Y-92560003D01*
X124034508Y-92560003D01*
X124054352Y-92685300D01*
X124054352Y-92685301D01*
X124071934Y-92719807D01*
X124111950Y-92798342D01*
X124111952Y-92798344D01*
X124111954Y-92798347D01*
X124201652Y-92888045D01*
X124201654Y-92888046D01*
X124201658Y-92888050D01*
X124314696Y-92945646D01*
X124314697Y-92945646D01*
X124314699Y-92945647D01*
X124439997Y-92965492D01*
X124440000Y-92965492D01*
X124440003Y-92965492D01*
X124565300Y-92945647D01*
X124565301Y-92945647D01*
X124565302Y-92945646D01*
X124565304Y-92945646D01*
X124678342Y-92888050D01*
X124768050Y-92798342D01*
X124825646Y-92685304D01*
X124825646Y-92685302D01*
X124825647Y-92685301D01*
X124825647Y-92685300D01*
X124845492Y-92560003D01*
X124845492Y-92559996D01*
X124825647Y-92434699D01*
X124825647Y-92434698D01*
X124820551Y-92424696D01*
X124768050Y-92321658D01*
X124768046Y-92321654D01*
X124768045Y-92321652D01*
X124678347Y-92231954D01*
X124678344Y-92231952D01*
X124678342Y-92231950D01*
X124565304Y-92174354D01*
X124565303Y-92174353D01*
X124565300Y-92174352D01*
X124440003Y-92154508D01*
X124439997Y-92154508D01*
X124314699Y-92174352D01*
X124314698Y-92174352D01*
X124239337Y-92212751D01*
X124201658Y-92231950D01*
X124201657Y-92231951D01*
X124201652Y-92231954D01*
X124111954Y-92321652D01*
X124111951Y-92321657D01*
X124054352Y-92434698D01*
X124054352Y-92434699D01*
X124034508Y-92559996D01*
X124034508Y-92560003D01*
X120633908Y-92560003D01*
X120635492Y-92550003D01*
X120635492Y-92549996D01*
X120615647Y-92424699D01*
X120615647Y-92424698D01*
X120603396Y-92400655D01*
X120558050Y-92311658D01*
X120558046Y-92311654D01*
X120558045Y-92311652D01*
X120468347Y-92221954D01*
X120468344Y-92221952D01*
X120468342Y-92221950D01*
X120355304Y-92164354D01*
X120355303Y-92164353D01*
X120355300Y-92164352D01*
X120230003Y-92144508D01*
X120229997Y-92144508D01*
X120104699Y-92164352D01*
X120104698Y-92164352D01*
X120029337Y-92202751D01*
X119991658Y-92221950D01*
X119991657Y-92221951D01*
X119991652Y-92221954D01*
X119901954Y-92311652D01*
X119901951Y-92311657D01*
X119901950Y-92311658D01*
X119885212Y-92344508D01*
X119844352Y-92424698D01*
X119844352Y-92424699D01*
X119824508Y-92549996D01*
X119824508Y-92550003D01*
X115797588Y-92550003D01*
X115778050Y-92511658D01*
X115778046Y-92511654D01*
X115778045Y-92511652D01*
X115688347Y-92421954D01*
X115688344Y-92421952D01*
X115688342Y-92421950D01*
X115575304Y-92364354D01*
X115575303Y-92364353D01*
X115575300Y-92364352D01*
X115450003Y-92344508D01*
X115449997Y-92344508D01*
X115324699Y-92364352D01*
X115324698Y-92364352D01*
X115249337Y-92402751D01*
X115211658Y-92421950D01*
X115211657Y-92421951D01*
X115211652Y-92421954D01*
X115121954Y-92511652D01*
X115121951Y-92511657D01*
X115064352Y-92624698D01*
X115064352Y-92624699D01*
X115044508Y-92749996D01*
X115044508Y-92750003D01*
X114358184Y-92750003D01*
X114175661Y-92509073D01*
X114150869Y-92443750D01*
X114150500Y-92434195D01*
X114150500Y-89690003D01*
X114934508Y-89690003D01*
X114954352Y-89815300D01*
X114954352Y-89815301D01*
X114968806Y-89843668D01*
X115011950Y-89928342D01*
X115011952Y-89928344D01*
X115011954Y-89928347D01*
X115101652Y-90018045D01*
X115101654Y-90018046D01*
X115101658Y-90018050D01*
X115214696Y-90075646D01*
X115214697Y-90075646D01*
X115214699Y-90075647D01*
X115339997Y-90095492D01*
X115340000Y-90095492D01*
X115340003Y-90095492D01*
X115465300Y-90075647D01*
X115465301Y-90075647D01*
X115465302Y-90075646D01*
X115465304Y-90075646D01*
X115578342Y-90018050D01*
X115668050Y-89928342D01*
X115725646Y-89815304D01*
X115725646Y-89815302D01*
X115725647Y-89815301D01*
X115725647Y-89815300D01*
X115745492Y-89690003D01*
X115745492Y-89689996D01*
X115725647Y-89564699D01*
X115725646Y-89564696D01*
X115708812Y-89531658D01*
X115668050Y-89451658D01*
X115668048Y-89451656D01*
X115668047Y-89451654D01*
X115578347Y-89361954D01*
X115578344Y-89361952D01*
X115578342Y-89361950D01*
X115465304Y-89304354D01*
X115465303Y-89304353D01*
X115465300Y-89304352D01*
X115340003Y-89284508D01*
X115339997Y-89284508D01*
X115214699Y-89304352D01*
X115214698Y-89304352D01*
X115152542Y-89336023D01*
X115101658Y-89361950D01*
X115101657Y-89361951D01*
X115101652Y-89361954D01*
X115011954Y-89451652D01*
X115011951Y-89451657D01*
X115011950Y-89451658D01*
X114999802Y-89475500D01*
X114954352Y-89564698D01*
X114954352Y-89564699D01*
X114934508Y-89689996D01*
X114934508Y-89690003D01*
X114150500Y-89690003D01*
X114150500Y-89106517D01*
X115799500Y-89106517D01*
X115807547Y-89157322D01*
X115814354Y-89200304D01*
X115871950Y-89313342D01*
X115871952Y-89313345D01*
X115961652Y-89403045D01*
X115961654Y-89403046D01*
X115961658Y-89403050D01*
X116074696Y-89460646D01*
X116074698Y-89460647D01*
X116162116Y-89474491D01*
X116166940Y-89475256D01*
X116168475Y-89475499D01*
X116168481Y-89475500D01*
X116931518Y-89475499D01*
X116931520Y-89475499D01*
X116933749Y-89475146D01*
X116934605Y-89475256D01*
X116936380Y-89475117D01*
X116936409Y-89475489D01*
X117003042Y-89484097D01*
X117056497Y-89529090D01*
X117077140Y-89595841D01*
X117076092Y-89613803D01*
X117064750Y-89699957D01*
X117064750Y-89699960D01*
X117083670Y-89843668D01*
X117083671Y-89843672D01*
X117139137Y-89977582D01*
X117139138Y-89977584D01*
X117139139Y-89977585D01*
X117227379Y-90092581D01*
X117342375Y-90180821D01*
X117476291Y-90236290D01*
X117603280Y-90253008D01*
X117619999Y-90255210D01*
X117620000Y-90255210D01*
X117620001Y-90255210D01*
X117634977Y-90253238D01*
X117763709Y-90236290D01*
X117897625Y-90180821D01*
X118012621Y-90092581D01*
X118100861Y-89977585D01*
X118156330Y-89843669D01*
X118159446Y-89820003D01*
X119654508Y-89820003D01*
X119674352Y-89945300D01*
X119674352Y-89945301D01*
X119690802Y-89977585D01*
X119731950Y-90058342D01*
X119731952Y-90058344D01*
X119731954Y-90058347D01*
X119821652Y-90148045D01*
X119821654Y-90148046D01*
X119821658Y-90148050D01*
X119934696Y-90205646D01*
X119934697Y-90205646D01*
X119934699Y-90205647D01*
X120059997Y-90225492D01*
X120060000Y-90225492D01*
X120060003Y-90225492D01*
X120185300Y-90205647D01*
X120185301Y-90205647D01*
X120185302Y-90205646D01*
X120185304Y-90205646D01*
X120298342Y-90148050D01*
X120388050Y-90058342D01*
X120445646Y-89945304D01*
X120445646Y-89945302D01*
X120445647Y-89945301D01*
X120445647Y-89945300D01*
X120465492Y-89820003D01*
X120465492Y-89819996D01*
X120445647Y-89694699D01*
X120445647Y-89694698D01*
X120440551Y-89684696D01*
X120388050Y-89581658D01*
X120388046Y-89581654D01*
X120388045Y-89581652D01*
X120298347Y-89491954D01*
X120298344Y-89491952D01*
X120298342Y-89491950D01*
X120185304Y-89434354D01*
X120185303Y-89434353D01*
X120185300Y-89434352D01*
X120060003Y-89414508D01*
X120059997Y-89414508D01*
X119934699Y-89434352D01*
X119934698Y-89434352D01*
X119859337Y-89472751D01*
X119821658Y-89491950D01*
X119821657Y-89491951D01*
X119821652Y-89491954D01*
X119731954Y-89581652D01*
X119731951Y-89581657D01*
X119731950Y-89581658D01*
X119715571Y-89613803D01*
X119674352Y-89694698D01*
X119674352Y-89694699D01*
X119654508Y-89819996D01*
X119654508Y-89820003D01*
X118159446Y-89820003D01*
X118175250Y-89699960D01*
X118173240Y-89684696D01*
X118158623Y-89573669D01*
X118169388Y-89504633D01*
X118215768Y-89452377D01*
X118283037Y-89433492D01*
X118317123Y-89438692D01*
X118418790Y-89469130D01*
X118593935Y-89479331D01*
X118766711Y-89448865D01*
X118927804Y-89379377D01*
X119068530Y-89274610D01*
X119181302Y-89140214D01*
X119260040Y-88983433D01*
X119300500Y-88812721D01*
X119300500Y-88650000D01*
X122104750Y-88650000D01*
X122123670Y-88793708D01*
X122123671Y-88793712D01*
X122179137Y-88927622D01*
X122179138Y-88927624D01*
X122179139Y-88927625D01*
X122267379Y-89042621D01*
X122382375Y-89130861D01*
X122382376Y-89130861D01*
X122382377Y-89130862D01*
X122415810Y-89144710D01*
X122516291Y-89186330D01*
X122605435Y-89198065D01*
X122669330Y-89226331D01*
X122676930Y-89233323D01*
X126163413Y-92719807D01*
X126163433Y-92719825D01*
X126181656Y-92738049D01*
X126201394Y-92748106D01*
X126217982Y-92758271D01*
X126235910Y-92771296D01*
X126256979Y-92778141D01*
X126274958Y-92785588D01*
X126294696Y-92795646D01*
X126316578Y-92799111D01*
X126335491Y-92803652D01*
X126356567Y-92810500D01*
X126388481Y-92810500D01*
X127125554Y-92810500D01*
X127192593Y-92830185D01*
X127201040Y-92836124D01*
X127240692Y-92866550D01*
X127272375Y-92890861D01*
X127361574Y-92927808D01*
X127367605Y-92930306D01*
X127422009Y-92974146D01*
X127444074Y-93040440D01*
X127426795Y-93108140D01*
X127407834Y-93132548D01*
X126582203Y-93958181D01*
X126520880Y-93991666D01*
X126494522Y-93994500D01*
X126257255Y-93994500D01*
X126190216Y-93974815D01*
X126169574Y-93958181D01*
X126153347Y-93941954D01*
X126153344Y-93941952D01*
X126153342Y-93941950D01*
X126040304Y-93884354D01*
X126040303Y-93884353D01*
X126040300Y-93884352D01*
X125915003Y-93864508D01*
X125914997Y-93864508D01*
X125789699Y-93884352D01*
X125789698Y-93884352D01*
X125714337Y-93922751D01*
X125676658Y-93941950D01*
X125676657Y-93941951D01*
X125676652Y-93941954D01*
X125586954Y-94031652D01*
X125586951Y-94031657D01*
X125529352Y-94144698D01*
X125529352Y-94144699D01*
X125509508Y-94269996D01*
X125509508Y-94270003D01*
X125529352Y-94395300D01*
X125529352Y-94395301D01*
X125547805Y-94431517D01*
X125586950Y-94508342D01*
X125586952Y-94508344D01*
X125586954Y-94508347D01*
X125676652Y-94598045D01*
X125676654Y-94598046D01*
X125676658Y-94598050D01*
X125789696Y-94655646D01*
X125789697Y-94655646D01*
X125789699Y-94655647D01*
X125914997Y-94675492D01*
X125915000Y-94675492D01*
X125915003Y-94675492D01*
X126040300Y-94655647D01*
X126040301Y-94655647D01*
X126040302Y-94655646D01*
X126040304Y-94655646D01*
X126153342Y-94598050D01*
X126153347Y-94598045D01*
X126169574Y-94581819D01*
X126230897Y-94548334D01*
X126257255Y-94545500D01*
X126620656Y-94545500D01*
X126644846Y-94547882D01*
X126660000Y-94550897D01*
X126687132Y-94545500D01*
X126687133Y-94545500D01*
X126767495Y-94529515D01*
X126821447Y-94493465D01*
X126835622Y-94483994D01*
X126835622Y-94483993D01*
X126849050Y-94475022D01*
X126849053Y-94475018D01*
X126858624Y-94468624D01*
X126867208Y-94455775D01*
X126882624Y-94436990D01*
X128656989Y-92662625D01*
X128675774Y-92647209D01*
X128688624Y-92638624D01*
X128749515Y-92547495D01*
X128765500Y-92467133D01*
X128765500Y-92467132D01*
X128770897Y-92440000D01*
X128767883Y-92424847D01*
X128765500Y-92400655D01*
X128765500Y-90799344D01*
X128767883Y-90775151D01*
X128770028Y-90764371D01*
X128770897Y-90760000D01*
X128761442Y-90712469D01*
X128751898Y-90664486D01*
X128751296Y-90658375D01*
X128749515Y-90652506D01*
X128749515Y-90652505D01*
X128719069Y-90606940D01*
X128688624Y-90561375D01*
X128675775Y-90552790D01*
X128656985Y-90537369D01*
X127976969Y-89857353D01*
X127943484Y-89796030D01*
X127942181Y-89789099D01*
X127925646Y-89684696D01*
X127868050Y-89571658D01*
X127868046Y-89571654D01*
X127868045Y-89571652D01*
X127778347Y-89481954D01*
X127778344Y-89481952D01*
X127778342Y-89481950D01*
X127665304Y-89424354D01*
X127665303Y-89424353D01*
X127665300Y-89424352D01*
X127540003Y-89404508D01*
X127539997Y-89404508D01*
X127414699Y-89424352D01*
X127414698Y-89424352D01*
X127343469Y-89460646D01*
X127301658Y-89481950D01*
X127301657Y-89481951D01*
X127301652Y-89481954D01*
X127211954Y-89571652D01*
X127211951Y-89571657D01*
X127211950Y-89571658D01*
X127206855Y-89581658D01*
X127154352Y-89684698D01*
X127154352Y-89684699D01*
X127134508Y-89809996D01*
X127134508Y-89810003D01*
X127154352Y-89935300D01*
X127154352Y-89935301D01*
X127159449Y-89945304D01*
X127211950Y-90048342D01*
X127211952Y-90048344D01*
X127211954Y-90048347D01*
X127301652Y-90138045D01*
X127301654Y-90138046D01*
X127301658Y-90138050D01*
X127414696Y-90195646D01*
X127519071Y-90212177D01*
X127582204Y-90242106D01*
X127587353Y-90246969D01*
X128178181Y-90837797D01*
X128211666Y-90899120D01*
X128214500Y-90925478D01*
X128214500Y-92006406D01*
X128194815Y-92073445D01*
X128142011Y-92119200D01*
X128072853Y-92129144D01*
X128009297Y-92100119D01*
X127992125Y-92081893D01*
X127970775Y-92054070D01*
X127942621Y-92017379D01*
X127827625Y-91929139D01*
X127827624Y-91929138D01*
X127827622Y-91929137D01*
X127693712Y-91873671D01*
X127693710Y-91873670D01*
X127693709Y-91873670D01*
X127585540Y-91859429D01*
X127550001Y-91854750D01*
X127549999Y-91854750D01*
X127406291Y-91873670D01*
X127406287Y-91873671D01*
X127272376Y-91929138D01*
X127272374Y-91929139D01*
X127201040Y-91983876D01*
X127135871Y-92009070D01*
X127125554Y-92009500D01*
X126637255Y-92009500D01*
X126570216Y-91989815D01*
X126549574Y-91973181D01*
X124346396Y-89770003D01*
X125274508Y-89770003D01*
X125294352Y-89895300D01*
X125294352Y-89895301D01*
X125311188Y-89928342D01*
X125351950Y-90008342D01*
X125351952Y-90008344D01*
X125351954Y-90008347D01*
X125441652Y-90098045D01*
X125441654Y-90098046D01*
X125441658Y-90098050D01*
X125554696Y-90155646D01*
X125554697Y-90155646D01*
X125554699Y-90155647D01*
X125679997Y-90175492D01*
X125680000Y-90175492D01*
X125680003Y-90175492D01*
X125805300Y-90155647D01*
X125805301Y-90155647D01*
X125805302Y-90155646D01*
X125805304Y-90155646D01*
X125918342Y-90098050D01*
X126008050Y-90008342D01*
X126065646Y-89895304D01*
X126065646Y-89895302D01*
X126065647Y-89895301D01*
X126065647Y-89895300D01*
X126085492Y-89770003D01*
X126085492Y-89769996D01*
X126065647Y-89644699D01*
X126065647Y-89644698D01*
X126065646Y-89644696D01*
X126008050Y-89531658D01*
X126008046Y-89531654D01*
X126008045Y-89531652D01*
X125918347Y-89441954D01*
X125918344Y-89441952D01*
X125918342Y-89441950D01*
X125805304Y-89384354D01*
X125805303Y-89384353D01*
X125805300Y-89384352D01*
X125680003Y-89364508D01*
X125679997Y-89364508D01*
X125554699Y-89384352D01*
X125554698Y-89384352D01*
X125480154Y-89422335D01*
X125441658Y-89441950D01*
X125441657Y-89441951D01*
X125441652Y-89441954D01*
X125351954Y-89531652D01*
X125351951Y-89531657D01*
X125294352Y-89644698D01*
X125294352Y-89644699D01*
X125274508Y-89769996D01*
X125274508Y-89770003D01*
X124346396Y-89770003D01*
X123243323Y-88666930D01*
X123209838Y-88605607D01*
X123208067Y-88595448D01*
X123196330Y-88506291D01*
X123140861Y-88372375D01*
X123052621Y-88257379D01*
X122937625Y-88169139D01*
X122937624Y-88169138D01*
X122937622Y-88169137D01*
X122803712Y-88113671D01*
X122803710Y-88113670D01*
X122803709Y-88113670D01*
X122731854Y-88104210D01*
X122660001Y-88094750D01*
X122659999Y-88094750D01*
X122516291Y-88113670D01*
X122516287Y-88113671D01*
X122382377Y-88169137D01*
X122267379Y-88257379D01*
X122179137Y-88372377D01*
X122123671Y-88506287D01*
X122123670Y-88506291D01*
X122104750Y-88649999D01*
X122104750Y-88650000D01*
X119300500Y-88650000D01*
X119300500Y-88131291D01*
X119285241Y-88000745D01*
X119225237Y-87835883D01*
X119221595Y-87830346D01*
X119128832Y-87689306D01*
X119128831Y-87689305D01*
X119001221Y-87568910D01*
X118849281Y-87481188D01*
X118849282Y-87481188D01*
X118681210Y-87430870D01*
X118681205Y-87430869D01*
X118506066Y-87420669D01*
X118506065Y-87420669D01*
X118448220Y-87430869D01*
X118333293Y-87451134D01*
X118333291Y-87451134D01*
X118333289Y-87451135D01*
X118333287Y-87451136D01*
X118172198Y-87520622D01*
X118172190Y-87520626D01*
X118031469Y-87625390D01*
X117918698Y-87759785D01*
X117918697Y-87759787D01*
X117839961Y-87916562D01*
X117839960Y-87916567D01*
X117799500Y-88087279D01*
X117799500Y-88768709D01*
X117813063Y-88884749D01*
X117814759Y-88899256D01*
X117814760Y-88899259D01*
X117848505Y-88991973D01*
X117852936Y-89061702D01*
X117818965Y-89122757D01*
X117757378Y-89155755D01*
X117715797Y-89157322D01*
X117620001Y-89144710D01*
X117619999Y-89144710D01*
X117476291Y-89163630D01*
X117476287Y-89163631D01*
X117471947Y-89165429D01*
X117402477Y-89172895D01*
X117339999Y-89141617D01*
X117304349Y-89081527D01*
X117300499Y-89050873D01*
X117300499Y-87793482D01*
X117285646Y-87699696D01*
X117228050Y-87586658D01*
X117228046Y-87586654D01*
X117228045Y-87586652D01*
X117138347Y-87496954D01*
X117138344Y-87496952D01*
X117138342Y-87496950D01*
X117061517Y-87457805D01*
X117025301Y-87439352D01*
X116931524Y-87424500D01*
X116168482Y-87424500D01*
X116087519Y-87437323D01*
X116074696Y-87439354D01*
X115961658Y-87496950D01*
X115961657Y-87496951D01*
X115961652Y-87496954D01*
X115871954Y-87586652D01*
X115871951Y-87586657D01*
X115814352Y-87699698D01*
X115799500Y-87793475D01*
X115799500Y-89106517D01*
X114150500Y-89106517D01*
X114150500Y-86997635D01*
X114170185Y-86930596D01*
X114213477Y-86889690D01*
X114462887Y-86748694D01*
X114462886Y-86748694D01*
X114463675Y-86748248D01*
X114781063Y-86569405D01*
X114786408Y-86566567D01*
X115122766Y-86398557D01*
X115441396Y-86241100D01*
X115446548Y-86238703D01*
X115790733Y-86088306D01*
X115791450Y-86087996D01*
X115926785Y-86030003D01*
X118624508Y-86030003D01*
X118644352Y-86155300D01*
X118644352Y-86155301D01*
X118649449Y-86165304D01*
X118701950Y-86268342D01*
X118701952Y-86268344D01*
X118701954Y-86268347D01*
X118791652Y-86358045D01*
X118791654Y-86358046D01*
X118791658Y-86358050D01*
X118904696Y-86415646D01*
X118904697Y-86415646D01*
X118904699Y-86415647D01*
X119029997Y-86435492D01*
X119030000Y-86435492D01*
X119030003Y-86435492D01*
X119155300Y-86415647D01*
X119155301Y-86415647D01*
X119155302Y-86415646D01*
X119155304Y-86415646D01*
X119268342Y-86358050D01*
X119358050Y-86268342D01*
X119415646Y-86155304D01*
X119415646Y-86155302D01*
X119415647Y-86155301D01*
X119415647Y-86155300D01*
X119433908Y-86040003D01*
X120294508Y-86040003D01*
X120314352Y-86165300D01*
X120314352Y-86165301D01*
X120332805Y-86201517D01*
X120371950Y-86278342D01*
X120371952Y-86278344D01*
X120371954Y-86278347D01*
X120461652Y-86368045D01*
X120461654Y-86368046D01*
X120461658Y-86368050D01*
X120574696Y-86425646D01*
X120574697Y-86425646D01*
X120574699Y-86425647D01*
X120699997Y-86445492D01*
X120700000Y-86445492D01*
X120700003Y-86445492D01*
X120825300Y-86425647D01*
X120825301Y-86425647D01*
X120825302Y-86425646D01*
X120825304Y-86425646D01*
X120938342Y-86368050D01*
X120997362Y-86309030D01*
X123774272Y-86309030D01*
X123794116Y-86434327D01*
X123794116Y-86434328D01*
X123799805Y-86445492D01*
X123851714Y-86547369D01*
X123851716Y-86547371D01*
X123851718Y-86547374D01*
X123941416Y-86637072D01*
X123941418Y-86637073D01*
X123941422Y-86637077D01*
X124054460Y-86694673D01*
X124054461Y-86694673D01*
X124054463Y-86694674D01*
X124179761Y-86714519D01*
X124179764Y-86714519D01*
X124179767Y-86714519D01*
X124305064Y-86694674D01*
X124305065Y-86694674D01*
X124305066Y-86694673D01*
X124305068Y-86694673D01*
X124418106Y-86637077D01*
X124473065Y-86582117D01*
X124534384Y-86548634D01*
X124604076Y-86553618D01*
X124622907Y-86563726D01*
X124622963Y-86563619D01*
X124631656Y-86568048D01*
X124631658Y-86568050D01*
X124744696Y-86625646D01*
X124744697Y-86625646D01*
X124744699Y-86625647D01*
X124869997Y-86645492D01*
X124870000Y-86645492D01*
X124870003Y-86645492D01*
X124995300Y-86625647D01*
X124995301Y-86625647D01*
X124995302Y-86625646D01*
X124995304Y-86625646D01*
X125108342Y-86568050D01*
X125198050Y-86478342D01*
X125255646Y-86365304D01*
X125255646Y-86365302D01*
X125255647Y-86365301D01*
X125255647Y-86365300D01*
X125275492Y-86240003D01*
X125275492Y-86239996D01*
X125255647Y-86114699D01*
X125255647Y-86114698D01*
X125255646Y-86114696D01*
X125198050Y-86001658D01*
X125198046Y-86001654D01*
X125198045Y-86001652D01*
X125108347Y-85911954D01*
X125108344Y-85911952D01*
X125108342Y-85911950D01*
X124995304Y-85854354D01*
X124995303Y-85854353D01*
X124995300Y-85854352D01*
X124870003Y-85834508D01*
X124869997Y-85834508D01*
X124744699Y-85854352D01*
X124744698Y-85854352D01*
X124669337Y-85892751D01*
X124631658Y-85911950D01*
X124631657Y-85911951D01*
X124631655Y-85911951D01*
X124576700Y-85966907D01*
X124515376Y-86000391D01*
X124445685Y-85995406D01*
X124426855Y-85985300D01*
X124426801Y-85985408D01*
X124418107Y-85980978D01*
X124418106Y-85980977D01*
X124305068Y-85923381D01*
X124305067Y-85923380D01*
X124305064Y-85923379D01*
X124179767Y-85903535D01*
X124179761Y-85903535D01*
X124054463Y-85923379D01*
X124054462Y-85923379D01*
X124006062Y-85948041D01*
X123941422Y-85980977D01*
X123941421Y-85980978D01*
X123941416Y-85980981D01*
X123851718Y-86070679D01*
X123851715Y-86070684D01*
X123851714Y-86070685D01*
X123832515Y-86108364D01*
X123794116Y-86183725D01*
X123794116Y-86183726D01*
X123774272Y-86309023D01*
X123774272Y-86309030D01*
X120997362Y-86309030D01*
X121028050Y-86278342D01*
X121085646Y-86165304D01*
X121085646Y-86165302D01*
X121085647Y-86165301D01*
X121085647Y-86165300D01*
X121105492Y-86040003D01*
X121105492Y-86039996D01*
X121085647Y-85914699D01*
X121085647Y-85914698D01*
X121079959Y-85903535D01*
X121028050Y-85801658D01*
X121028046Y-85801654D01*
X121028045Y-85801652D01*
X120938347Y-85711954D01*
X120938344Y-85711952D01*
X120938342Y-85711950D01*
X120825304Y-85654354D01*
X120825303Y-85654353D01*
X120825300Y-85654352D01*
X120700003Y-85634508D01*
X120699997Y-85634508D01*
X120574699Y-85654352D01*
X120574698Y-85654352D01*
X120505985Y-85689364D01*
X120461658Y-85711950D01*
X120461657Y-85711951D01*
X120461652Y-85711954D01*
X120371954Y-85801652D01*
X120371951Y-85801657D01*
X120371950Y-85801658D01*
X120358295Y-85828457D01*
X120314352Y-85914698D01*
X120314352Y-85914699D01*
X120294508Y-86039996D01*
X120294508Y-86040003D01*
X119433908Y-86040003D01*
X119435492Y-86030003D01*
X119435492Y-86029996D01*
X119415647Y-85904699D01*
X119415647Y-85904698D01*
X119389994Y-85854352D01*
X119358050Y-85791658D01*
X119358046Y-85791654D01*
X119358045Y-85791652D01*
X119268347Y-85701954D01*
X119268344Y-85701952D01*
X119268342Y-85701950D01*
X119155304Y-85644354D01*
X119155303Y-85644353D01*
X119155300Y-85644352D01*
X119030003Y-85624508D01*
X119029997Y-85624508D01*
X118904699Y-85644352D01*
X118904698Y-85644352D01*
X118829337Y-85682751D01*
X118791658Y-85701950D01*
X118791657Y-85701951D01*
X118791652Y-85701954D01*
X118701954Y-85791652D01*
X118701951Y-85791657D01*
X118701950Y-85791658D01*
X118690796Y-85813549D01*
X118644352Y-85904698D01*
X118644352Y-85904699D01*
X118624508Y-86029996D01*
X118624508Y-86030003D01*
X115926785Y-86030003D01*
X116118055Y-85948041D01*
X116123065Y-85946024D01*
X116474526Y-85813459D01*
X116475259Y-85813187D01*
X116809214Y-85691015D01*
X116814009Y-85689372D01*
X117171869Y-85574976D01*
X117172825Y-85574678D01*
X117512989Y-85470727D01*
X117517453Y-85469456D01*
X117880522Y-85373603D01*
X117882105Y-85373199D01*
X118227320Y-85287823D01*
X118231511Y-85286865D01*
X118598930Y-85209767D01*
X118600943Y-85209364D01*
X118950312Y-85142783D01*
X118954142Y-85142119D01*
X119325092Y-85083947D01*
X119327516Y-85083594D01*
X119679848Y-85036031D01*
X119683338Y-85035612D01*
X120056826Y-84996526D01*
X120059577Y-84996272D01*
X120414093Y-84967832D01*
X120417174Y-84967626D01*
X120792103Y-84947742D01*
X120795377Y-84947613D01*
X121150703Y-84938401D01*
X121153577Y-84938360D01*
X121529007Y-84937720D01*
X121532590Y-84937768D01*
G37*
%TD.AperFunction*%
%TD*%
M02*
