%TF.GenerationSoftware,KiCad,Pcbnew,7.0.10*%
%TF.CreationDate,2025-12-12T10:11:07-05:00*%
%TF.ProjectId,MiniBot,4d696e69-426f-4742-9e6b-696361645f70,rev?*%
%TF.SameCoordinates,Original*%
%TF.FileFunction,Paste,Bot*%
%TF.FilePolarity,Positive*%
%FSLAX46Y46*%
G04 Gerber Fmt 4.6, Leading zero omitted, Abs format (unit mm)*
G04 Created by KiCad (PCBNEW 7.0.10) date 2025-12-12 10:11:07*
%MOMM*%
%LPD*%
G01*
G04 APERTURE LIST*
G04 Aperture macros list*
%AMRoundRect*
0 Rectangle with rounded corners*
0 $1 Rounding radius*
0 $2 $3 $4 $5 $6 $7 $8 $9 X,Y pos of 4 corners*
0 Add a 4 corners polygon primitive as box body*
4,1,4,$2,$3,$4,$5,$6,$7,$8,$9,$2,$3,0*
0 Add four circle primitives for the rounded corners*
1,1,$1+$1,$2,$3*
1,1,$1+$1,$4,$5*
1,1,$1+$1,$6,$7*
1,1,$1+$1,$8,$9*
0 Add four rect primitives between the rounded corners*
20,1,$1+$1,$2,$3,$4,$5,0*
20,1,$1+$1,$4,$5,$6,$7,0*
20,1,$1+$1,$6,$7,$8,$9,0*
20,1,$1+$1,$8,$9,$2,$3,0*%
G04 Aperture macros list end*
%ADD10RoundRect,0.140000X-0.170000X0.140000X-0.170000X-0.140000X0.170000X-0.140000X0.170000X0.140000X0*%
%ADD11RoundRect,0.135000X-0.135000X-0.185000X0.135000X-0.185000X0.135000X0.185000X-0.135000X0.185000X0*%
%ADD12R,0.400000X0.800000*%
%ADD13R,0.800000X0.400000*%
%ADD14R,1.450000X1.450000*%
%ADD15R,0.700000X0.700000*%
%ADD16RoundRect,0.135000X0.135000X0.185000X-0.135000X0.185000X-0.135000X-0.185000X0.135000X-0.185000X0*%
%ADD17RoundRect,0.140000X0.170000X-0.140000X0.170000X0.140000X-0.170000X0.140000X-0.170000X-0.140000X0*%
%ADD18RoundRect,0.135000X-0.185000X0.135000X-0.185000X-0.135000X0.185000X-0.135000X0.185000X0.135000X0*%
%ADD19R,1.150000X0.580000*%
%ADD20R,1.150000X0.280000*%
%ADD21R,1.500000X1.500000*%
G04 APERTURE END LIST*
D10*
%TO.C,C3*%
X123830000Y-90500000D03*
X123830000Y-91460000D03*
%TD*%
D11*
%TO.C,R1*%
X124950000Y-109400000D03*
X125970000Y-109400000D03*
%TD*%
D12*
%TO.C,U1*%
X116350000Y-93650000D03*
X117150000Y-93650000D03*
X117950000Y-93650000D03*
X118750000Y-93650000D03*
X119550000Y-93650000D03*
X120350000Y-93650000D03*
X121150000Y-93650000D03*
X121950000Y-93650000D03*
X122750000Y-93650000D03*
X123550000Y-93650000D03*
X124350000Y-93650000D03*
D13*
X125250000Y-94750000D03*
X125250000Y-95550000D03*
X125250000Y-96350000D03*
X125250000Y-97150000D03*
X125250000Y-97950000D03*
X125250000Y-98750000D03*
X125250000Y-99550000D03*
X125250000Y-100350000D03*
X125250000Y-101150000D03*
X125250000Y-101950000D03*
X125250000Y-102750000D03*
X125250000Y-103550000D03*
X125250000Y-104350000D03*
D12*
X124350000Y-105450000D03*
X123550000Y-105450000D03*
X122750000Y-105450000D03*
X121950000Y-105450000D03*
X121150000Y-105450000D03*
X120350000Y-105450000D03*
X119550000Y-105450000D03*
X118750000Y-105450000D03*
X117950000Y-105450000D03*
X117150000Y-105450000D03*
X116350000Y-105450000D03*
D13*
X115450000Y-104350000D03*
X115450000Y-103550000D03*
X115450000Y-102750000D03*
X115450000Y-101950000D03*
X115450000Y-101150000D03*
X115450000Y-100350000D03*
X115450000Y-99550000D03*
X115450000Y-98750000D03*
X115450000Y-97950000D03*
X115450000Y-97150000D03*
X115450000Y-96350000D03*
X115450000Y-95550000D03*
X115450000Y-94750000D03*
D14*
X120350000Y-99550000D03*
D15*
X115450000Y-105450000D03*
X125250000Y-105450000D03*
X125250000Y-93650000D03*
X115450000Y-93650000D03*
D14*
X120350000Y-97575000D03*
X122325000Y-97575000D03*
X122325000Y-99550000D03*
X122325000Y-101525000D03*
X120350000Y-101525000D03*
X118375000Y-101525000D03*
X118375000Y-99550000D03*
X118375000Y-97575000D03*
%TD*%
D16*
%TO.C,R13*%
X124540000Y-89570000D03*
X123520000Y-89570000D03*
%TD*%
D17*
%TO.C,C1*%
X120050000Y-91470000D03*
X120050000Y-90510000D03*
%TD*%
D18*
%TO.C,R3*%
X124770000Y-90480000D03*
X124770000Y-91500000D03*
%TD*%
D11*
%TO.C,R2*%
X124950000Y-107690000D03*
X125970000Y-107690000D03*
%TD*%
D19*
%TO.C,J3*%
X128525000Y-95650000D03*
X128525000Y-96450000D03*
D20*
X128525000Y-97600000D03*
X128525000Y-98600000D03*
X128525000Y-99100000D03*
X128525000Y-100100000D03*
D19*
X128525000Y-101250000D03*
X128525000Y-102050000D03*
D20*
X128525000Y-100600000D03*
X128525000Y-99600000D03*
X128525000Y-98100000D03*
X128525000Y-97100000D03*
D21*
X129100000Y-93730000D03*
X129100000Y-103970000D03*
X133030000Y-93730000D03*
X133030000Y-103970000D03*
%TD*%
D10*
%TO.C,C10*%
X122910000Y-90500000D03*
X122910000Y-91460000D03*
%TD*%
%TO.C,C8*%
X121920000Y-90500000D03*
X121920000Y-91460000D03*
%TD*%
%TO.C,C2*%
X121000000Y-90510000D03*
X121000000Y-91470000D03*
%TD*%
M02*
