%TF.GenerationSoftware,KiCad,Pcbnew,7.0.10*%
%TF.CreationDate,2025-12-12T10:11:07-05:00*%
%TF.ProjectId,MiniBot,4d696e69-426f-4742-9e6b-696361645f70,rev?*%
%TF.SameCoordinates,Original*%
%TF.FileFunction,Legend,Bot*%
%TF.FilePolarity,Positive*%
%FSLAX46Y46*%
G04 Gerber Fmt 4.6, Leading zero omitted, Abs format (unit mm)*
G04 Created by KiCad (PCBNEW 7.0.10) date 2025-12-12 10:11:07*
%MOMM*%
%LPD*%
G01*
G04 APERTURE LIST*
%ADD10C,0.150000*%
%ADD11C,0.187500*%
%ADD12C,0.300000*%
%ADD13C,0.120000*%
%ADD14C,0.100000*%
%ADD15C,0.200000*%
G04 APERTURE END LIST*
D10*
X116700000Y-108800000D02*
X119275000Y-108825000D01*
X122250000Y-108850000D02*
X116675000Y-108950000D01*
X116675000Y-108700000D02*
X122250000Y-108850000D01*
X116675000Y-108950000D02*
X116675000Y-108700000D01*
D11*
X122737640Y-109332130D02*
X122945974Y-108332130D01*
X122945974Y-108332130D02*
X123404307Y-109332130D01*
X123642402Y-109332130D02*
X124261450Y-109332130D01*
X124261450Y-109332130D02*
X123880498Y-108951178D01*
X123880498Y-108951178D02*
X124023355Y-108951178D01*
X124023355Y-108951178D02*
X124112640Y-108903559D01*
X124112640Y-108903559D02*
X124154307Y-108855940D01*
X124154307Y-108855940D02*
X124190021Y-108760702D01*
X124190021Y-108760702D02*
X124160259Y-108522607D01*
X124160259Y-108522607D02*
X124100736Y-108427369D01*
X124100736Y-108427369D02*
X124047164Y-108379750D01*
X124047164Y-108379750D02*
X123945974Y-108332130D01*
X123945974Y-108332130D02*
X123660259Y-108332130D01*
X123660259Y-108332130D02*
X123570974Y-108379750D01*
X123570974Y-108379750D02*
X123529307Y-108427369D01*
D12*
X116752129Y-109898646D02*
X116752129Y-111598646D01*
X116752129Y-111598646D02*
X117318796Y-110384360D01*
X117318796Y-110384360D02*
X117885463Y-111598646D01*
X117885463Y-111598646D02*
X117885463Y-109898646D01*
X118694986Y-109898646D02*
X118694986Y-111031979D01*
X118694986Y-111598646D02*
X118614034Y-111517694D01*
X118614034Y-111517694D02*
X118694986Y-111436741D01*
X118694986Y-111436741D02*
X118775939Y-111517694D01*
X118775939Y-111517694D02*
X118694986Y-111598646D01*
X118694986Y-111598646D02*
X118694986Y-111436741D01*
X119504510Y-111031979D02*
X119504510Y-109898646D01*
X119504510Y-110870075D02*
X119585463Y-110951027D01*
X119585463Y-110951027D02*
X119747368Y-111031979D01*
X119747368Y-111031979D02*
X119990225Y-111031979D01*
X119990225Y-111031979D02*
X120152129Y-110951027D01*
X120152129Y-110951027D02*
X120233082Y-110789122D01*
X120233082Y-110789122D02*
X120233082Y-109898646D01*
X121042605Y-109898646D02*
X121042605Y-111031979D01*
X121042605Y-111598646D02*
X120961653Y-111517694D01*
X120961653Y-111517694D02*
X121042605Y-111436741D01*
X121042605Y-111436741D02*
X121123558Y-111517694D01*
X121123558Y-111517694D02*
X121042605Y-111598646D01*
X121042605Y-111598646D02*
X121042605Y-111436741D01*
X122418796Y-110789122D02*
X122661653Y-110708170D01*
X122661653Y-110708170D02*
X122742606Y-110627218D01*
X122742606Y-110627218D02*
X122823558Y-110465313D01*
X122823558Y-110465313D02*
X122823558Y-110222456D01*
X122823558Y-110222456D02*
X122742606Y-110060551D01*
X122742606Y-110060551D02*
X122661653Y-109979599D01*
X122661653Y-109979599D02*
X122499748Y-109898646D01*
X122499748Y-109898646D02*
X121852129Y-109898646D01*
X121852129Y-109898646D02*
X121852129Y-111598646D01*
X121852129Y-111598646D02*
X122418796Y-111598646D01*
X122418796Y-111598646D02*
X122580701Y-111517694D01*
X122580701Y-111517694D02*
X122661653Y-111436741D01*
X122661653Y-111436741D02*
X122742606Y-111274837D01*
X122742606Y-111274837D02*
X122742606Y-111112932D01*
X122742606Y-111112932D02*
X122661653Y-110951027D01*
X122661653Y-110951027D02*
X122580701Y-110870075D01*
X122580701Y-110870075D02*
X122418796Y-110789122D01*
X122418796Y-110789122D02*
X121852129Y-110789122D01*
X123875939Y-111598646D02*
X124199748Y-111598646D01*
X124199748Y-111598646D02*
X124361653Y-111517694D01*
X124361653Y-111517694D02*
X124523558Y-111355789D01*
X124523558Y-111355789D02*
X124604510Y-111031979D01*
X124604510Y-111031979D02*
X124604510Y-110465313D01*
X124604510Y-110465313D02*
X124523558Y-110141503D01*
X124523558Y-110141503D02*
X124361653Y-109979599D01*
X124361653Y-109979599D02*
X124199748Y-109898646D01*
X124199748Y-109898646D02*
X123875939Y-109898646D01*
X123875939Y-109898646D02*
X123714034Y-109979599D01*
X123714034Y-109979599D02*
X123552129Y-110141503D01*
X123552129Y-110141503D02*
X123471177Y-110465313D01*
X123471177Y-110465313D02*
X123471177Y-111031979D01*
X123471177Y-111031979D02*
X123552129Y-111355789D01*
X123552129Y-111355789D02*
X123714034Y-111517694D01*
X123714034Y-111517694D02*
X123875939Y-111598646D01*
X125090224Y-111598646D02*
X126061653Y-111598646D01*
X125575939Y-109898646D02*
X125575939Y-111598646D01*
D13*
%TO.C,C3*%
X124190000Y-90872164D02*
X124190000Y-91087836D01*
X123470000Y-90872164D02*
X123470000Y-91087836D01*
%TO.C,R1*%
X125306359Y-109020000D02*
X125613641Y-109020000D01*
X125306359Y-109780000D02*
X125613641Y-109780000D01*
D14*
%TO.C,U1*%
X116350000Y-92350000D02*
X116350000Y-92350000D01*
X116350000Y-92450000D02*
X116350000Y-92450000D01*
D15*
X114750000Y-92950000D02*
X109350000Y-92950000D01*
X109350000Y-92950000D02*
X109350000Y-106150000D01*
X109350000Y-106150000D02*
X114750000Y-106150000D01*
D14*
X116350000Y-92450000D02*
G75*
G03*
X116350000Y-92350000I0J50000D01*
G01*
X116350000Y-92350000D02*
G75*
G03*
X116350000Y-92450000I0J-50000D01*
G01*
D13*
%TO.C,R13*%
X124183641Y-89950000D02*
X123876359Y-89950000D01*
X124183641Y-89190000D02*
X123876359Y-89190000D01*
%TO.C,C1*%
X119690000Y-91097836D02*
X119690000Y-90882164D01*
X120410000Y-91097836D02*
X120410000Y-90882164D01*
%TO.C,R3*%
X125150000Y-90836359D02*
X125150000Y-91143641D01*
X124390000Y-90836359D02*
X124390000Y-91143641D01*
%TO.C,R2*%
X125306359Y-107310000D02*
X125613641Y-107310000D01*
X125306359Y-108070000D02*
X125613641Y-108070000D01*
D15*
%TO.C,J3*%
X135880000Y-94380000D02*
X135880000Y-103320000D01*
X134003000Y-94380000D02*
X135880000Y-94380000D01*
X130203000Y-94380000D02*
X132003000Y-94380000D01*
X128530000Y-94850000D02*
X128525000Y-95050000D01*
X127515000Y-95650000D02*
X127515000Y-95650000D01*
X127415000Y-95650000D02*
X127415000Y-95650000D01*
X127415000Y-95650000D02*
X127415000Y-95650000D01*
X128525000Y-102650000D02*
X128525000Y-102850000D01*
X135880000Y-103320000D02*
X134003000Y-103320000D01*
X132003000Y-103320000D02*
X130203000Y-103320000D01*
X127415000Y-95650000D02*
G75*
G03*
X127515000Y-95650000I50000J0D01*
G01*
X127515000Y-95650000D02*
G75*
G03*
X127415000Y-95650000I-50000J0D01*
G01*
X127515000Y-95650000D02*
G75*
G03*
X127415000Y-95650000I-50000J0D01*
G01*
D13*
%TO.C,C10*%
X123270000Y-90872164D02*
X123270000Y-91087836D01*
X122550000Y-90872164D02*
X122550000Y-91087836D01*
%TO.C,C8*%
X122280000Y-90872164D02*
X122280000Y-91087836D01*
X121560000Y-90872164D02*
X121560000Y-91087836D01*
%TO.C,C2*%
X121360000Y-90882164D02*
X121360000Y-91097836D01*
X120640000Y-90882164D02*
X120640000Y-91097836D01*
%TD*%
M02*
