%TF.GenerationSoftware,KiCad,Pcbnew,7.0.10*%
%TF.CreationDate,2025-12-12T10:11:07-05:00*%
%TF.ProjectId,MiniBot,4d696e69-426f-4742-9e6b-696361645f70,rev?*%
%TF.SameCoordinates,Original*%
%TF.FileFunction,Legend,Top*%
%TF.FilePolarity,Positive*%
%FSLAX46Y46*%
G04 Gerber Fmt 4.6, Leading zero omitted, Abs format (unit mm)*
G04 Created by KiCad (PCBNEW 7.0.10) date 2025-12-12 10:11:07*
%MOMM*%
%LPD*%
G01*
G04 APERTURE LIST*
%ADD10C,0.150000*%
%ADD11C,0.120000*%
%ADD12C,0.250000*%
%ADD13C,0.100000*%
%ADD14C,0.200000*%
G04 APERTURE END LIST*
D10*
X116499160Y-86939533D02*
X117108684Y-86939533D01*
X118099160Y-86939533D02*
X118708684Y-86939533D01*
X118403922Y-87244295D02*
X118403922Y-86634771D01*
X132104295Y-93397030D02*
X132104295Y-92901792D01*
X132104295Y-92901792D02*
X132409057Y-93168458D01*
X132409057Y-93168458D02*
X132409057Y-93054173D01*
X132409057Y-93054173D02*
X132447152Y-92977982D01*
X132447152Y-92977982D02*
X132485247Y-92939887D01*
X132485247Y-92939887D02*
X132561438Y-92901792D01*
X132561438Y-92901792D02*
X132751914Y-92901792D01*
X132751914Y-92901792D02*
X132828104Y-92939887D01*
X132828104Y-92939887D02*
X132866200Y-92977982D01*
X132866200Y-92977982D02*
X132904295Y-93054173D01*
X132904295Y-93054173D02*
X132904295Y-93282744D01*
X132904295Y-93282744D02*
X132866200Y-93358935D01*
X132866200Y-93358935D02*
X132828104Y-93397030D01*
X132370961Y-92635125D02*
X132904295Y-92444649D01*
X132904295Y-92444649D02*
X132370961Y-92254172D01*
X132104295Y-92025601D02*
X132104295Y-91530363D01*
X132104295Y-91530363D02*
X132409057Y-91797029D01*
X132409057Y-91797029D02*
X132409057Y-91682744D01*
X132409057Y-91682744D02*
X132447152Y-91606553D01*
X132447152Y-91606553D02*
X132485247Y-91568458D01*
X132485247Y-91568458D02*
X132561438Y-91530363D01*
X132561438Y-91530363D02*
X132751914Y-91530363D01*
X132751914Y-91530363D02*
X132828104Y-91568458D01*
X132828104Y-91568458D02*
X132866200Y-91606553D01*
X132866200Y-91606553D02*
X132904295Y-91682744D01*
X132904295Y-91682744D02*
X132904295Y-91911315D01*
X132904295Y-91911315D02*
X132866200Y-91987506D01*
X132866200Y-91987506D02*
X132828104Y-92025601D01*
X119734173Y-96904752D02*
X119619887Y-96866657D01*
X119619887Y-96866657D02*
X119581792Y-96828561D01*
X119581792Y-96828561D02*
X119543696Y-96752371D01*
X119543696Y-96752371D02*
X119543696Y-96638085D01*
X119543696Y-96638085D02*
X119581792Y-96561895D01*
X119581792Y-96561895D02*
X119619887Y-96523800D01*
X119619887Y-96523800D02*
X119696077Y-96485704D01*
X119696077Y-96485704D02*
X120000839Y-96485704D01*
X120000839Y-96485704D02*
X120000839Y-97285704D01*
X120000839Y-97285704D02*
X119734173Y-97285704D01*
X119734173Y-97285704D02*
X119657982Y-97247609D01*
X119657982Y-97247609D02*
X119619887Y-97209514D01*
X119619887Y-97209514D02*
X119581792Y-97133323D01*
X119581792Y-97133323D02*
X119581792Y-97057133D01*
X119581792Y-97057133D02*
X119619887Y-96980942D01*
X119619887Y-96980942D02*
X119657982Y-96942847D01*
X119657982Y-96942847D02*
X119734173Y-96904752D01*
X119734173Y-96904752D02*
X120000839Y-96904752D01*
X119048458Y-97285704D02*
X118896077Y-97285704D01*
X118896077Y-97285704D02*
X118819887Y-97247609D01*
X118819887Y-97247609D02*
X118743696Y-97171419D01*
X118743696Y-97171419D02*
X118705601Y-97019038D01*
X118705601Y-97019038D02*
X118705601Y-96752371D01*
X118705601Y-96752371D02*
X118743696Y-96599990D01*
X118743696Y-96599990D02*
X118819887Y-96523800D01*
X118819887Y-96523800D02*
X118896077Y-96485704D01*
X118896077Y-96485704D02*
X119048458Y-96485704D01*
X119048458Y-96485704D02*
X119124649Y-96523800D01*
X119124649Y-96523800D02*
X119200839Y-96599990D01*
X119200839Y-96599990D02*
X119238935Y-96752371D01*
X119238935Y-96752371D02*
X119238935Y-97019038D01*
X119238935Y-97019038D02*
X119200839Y-97171419D01*
X119200839Y-97171419D02*
X119124649Y-97247609D01*
X119124649Y-97247609D02*
X119048458Y-97285704D01*
X118210363Y-97285704D02*
X118057982Y-97285704D01*
X118057982Y-97285704D02*
X117981792Y-97247609D01*
X117981792Y-97247609D02*
X117905601Y-97171419D01*
X117905601Y-97171419D02*
X117867506Y-97019038D01*
X117867506Y-97019038D02*
X117867506Y-96752371D01*
X117867506Y-96752371D02*
X117905601Y-96599990D01*
X117905601Y-96599990D02*
X117981792Y-96523800D01*
X117981792Y-96523800D02*
X118057982Y-96485704D01*
X118057982Y-96485704D02*
X118210363Y-96485704D01*
X118210363Y-96485704D02*
X118286554Y-96523800D01*
X118286554Y-96523800D02*
X118362744Y-96599990D01*
X118362744Y-96599990D02*
X118400840Y-96752371D01*
X118400840Y-96752371D02*
X118400840Y-97019038D01*
X118400840Y-97019038D02*
X118362744Y-97171419D01*
X118362744Y-97171419D02*
X118286554Y-97247609D01*
X118286554Y-97247609D02*
X118210363Y-97285704D01*
X117638935Y-97285704D02*
X117181792Y-97285704D01*
X117410364Y-96485704D02*
X117410364Y-97285704D01*
X126098104Y-87963696D02*
X126136200Y-88001792D01*
X126136200Y-88001792D02*
X126174295Y-88116077D01*
X126174295Y-88116077D02*
X126174295Y-88192268D01*
X126174295Y-88192268D02*
X126136200Y-88306554D01*
X126136200Y-88306554D02*
X126060009Y-88382744D01*
X126060009Y-88382744D02*
X125983819Y-88420839D01*
X125983819Y-88420839D02*
X125831438Y-88458935D01*
X125831438Y-88458935D02*
X125717152Y-88458935D01*
X125717152Y-88458935D02*
X125564771Y-88420839D01*
X125564771Y-88420839D02*
X125488580Y-88382744D01*
X125488580Y-88382744D02*
X125412390Y-88306554D01*
X125412390Y-88306554D02*
X125374295Y-88192268D01*
X125374295Y-88192268D02*
X125374295Y-88116077D01*
X125374295Y-88116077D02*
X125412390Y-88001792D01*
X125412390Y-88001792D02*
X125450485Y-87963696D01*
X126174295Y-87620839D02*
X125374295Y-87620839D01*
X125755247Y-87620839D02*
X125755247Y-87163696D01*
X126174295Y-87163696D02*
X125374295Y-87163696D01*
X125412390Y-86363697D02*
X125374295Y-86439887D01*
X125374295Y-86439887D02*
X125374295Y-86554173D01*
X125374295Y-86554173D02*
X125412390Y-86668459D01*
X125412390Y-86668459D02*
X125488580Y-86744649D01*
X125488580Y-86744649D02*
X125564771Y-86782744D01*
X125564771Y-86782744D02*
X125717152Y-86820840D01*
X125717152Y-86820840D02*
X125831438Y-86820840D01*
X125831438Y-86820840D02*
X125983819Y-86782744D01*
X125983819Y-86782744D02*
X126060009Y-86744649D01*
X126060009Y-86744649D02*
X126136200Y-86668459D01*
X126136200Y-86668459D02*
X126174295Y-86554173D01*
X126174295Y-86554173D02*
X126174295Y-86477982D01*
X126174295Y-86477982D02*
X126136200Y-86363697D01*
X126136200Y-86363697D02*
X126098104Y-86325601D01*
X126098104Y-86325601D02*
X125831438Y-86325601D01*
X125831438Y-86325601D02*
X125831438Y-86477982D01*
X126493696Y-93065704D02*
X126760363Y-93446657D01*
X126950839Y-93065704D02*
X126950839Y-93865704D01*
X126950839Y-93865704D02*
X126646077Y-93865704D01*
X126646077Y-93865704D02*
X126569887Y-93827609D01*
X126569887Y-93827609D02*
X126531792Y-93789514D01*
X126531792Y-93789514D02*
X126493696Y-93713323D01*
X126493696Y-93713323D02*
X126493696Y-93599038D01*
X126493696Y-93599038D02*
X126531792Y-93522847D01*
X126531792Y-93522847D02*
X126569887Y-93484752D01*
X126569887Y-93484752D02*
X126646077Y-93446657D01*
X126646077Y-93446657D02*
X126950839Y-93446657D01*
X126188935Y-93103800D02*
X126074649Y-93065704D01*
X126074649Y-93065704D02*
X125884173Y-93065704D01*
X125884173Y-93065704D02*
X125807982Y-93103800D01*
X125807982Y-93103800D02*
X125769887Y-93141895D01*
X125769887Y-93141895D02*
X125731792Y-93218085D01*
X125731792Y-93218085D02*
X125731792Y-93294276D01*
X125731792Y-93294276D02*
X125769887Y-93370466D01*
X125769887Y-93370466D02*
X125807982Y-93408561D01*
X125807982Y-93408561D02*
X125884173Y-93446657D01*
X125884173Y-93446657D02*
X126036554Y-93484752D01*
X126036554Y-93484752D02*
X126112744Y-93522847D01*
X126112744Y-93522847D02*
X126150839Y-93560942D01*
X126150839Y-93560942D02*
X126188935Y-93637133D01*
X126188935Y-93637133D02*
X126188935Y-93713323D01*
X126188935Y-93713323D02*
X126150839Y-93789514D01*
X126150839Y-93789514D02*
X126112744Y-93827609D01*
X126112744Y-93827609D02*
X126036554Y-93865704D01*
X126036554Y-93865704D02*
X125846077Y-93865704D01*
X125846077Y-93865704D02*
X125731792Y-93827609D01*
X125503220Y-93865704D02*
X125046077Y-93865704D01*
X125274649Y-93065704D02*
X125274649Y-93865704D01*
D11*
%TO.C,C21*%
X125642164Y-106240000D02*
X125857836Y-106240000D01*
X125642164Y-106960000D02*
X125857836Y-106960000D01*
%TO.C,R10*%
X126845000Y-96978641D02*
X126845000Y-96671359D01*
X127605000Y-96978641D02*
X127605000Y-96671359D01*
%TO.C,C16*%
X119267164Y-106240000D02*
X119482836Y-106240000D01*
X119267164Y-106960000D02*
X119482836Y-106960000D01*
D12*
%TO.C,IC2*%
X124225000Y-91700000D02*
G75*
G03*
X123975000Y-91700000I-125000J0D01*
G01*
X123975000Y-91700000D02*
G75*
G03*
X124225000Y-91700000I125000J0D01*
G01*
D11*
%TO.C,R8*%
X115854359Y-96865000D02*
X116161641Y-96865000D01*
X115854359Y-97625000D02*
X116161641Y-97625000D01*
%TO.C,R22*%
X128030000Y-105196358D02*
X128030000Y-105503640D01*
X127270000Y-105196358D02*
X127270000Y-105503640D01*
%TO.C,R19*%
X120653641Y-101505000D02*
X120346359Y-101505000D01*
X120653641Y-100745000D02*
X120346359Y-100745000D01*
%TO.C,U3*%
X124085000Y-87440000D02*
X124085000Y-85640000D01*
X124085000Y-87440000D02*
X124085000Y-88240000D01*
X120965000Y-87440000D02*
X120965000Y-86640000D01*
X120965000Y-87440000D02*
X120965000Y-88240000D01*
%TO.C,R9*%
X122995000Y-97718641D02*
X122995000Y-97411359D01*
X123755000Y-97718641D02*
X123755000Y-97411359D01*
%TO.C,C5*%
X123762164Y-95065000D02*
X123977836Y-95065000D01*
X123762164Y-95785000D02*
X123977836Y-95785000D01*
%TO.C,R15*%
X127795000Y-98878641D02*
X127795000Y-98571359D01*
X128555000Y-98878641D02*
X128555000Y-98571359D01*
%TO.C,C6*%
X125685000Y-96717164D02*
X125685000Y-96932836D01*
X124965000Y-96717164D02*
X124965000Y-96932836D01*
%TO.C,R14*%
X128555000Y-96681359D02*
X128555000Y-96988641D01*
X127795000Y-96681359D02*
X127795000Y-96988641D01*
%TO.C,C9*%
X128510000Y-94692164D02*
X128510000Y-94907836D01*
X127790000Y-94692164D02*
X127790000Y-94907836D01*
%TO.C,R23*%
X123021359Y-106145000D02*
X123328641Y-106145000D01*
X123021359Y-106905000D02*
X123328641Y-106905000D01*
%TO.C,J1*%
X115615000Y-109635000D02*
X115615000Y-110785000D01*
X115615000Y-110785000D02*
X116665000Y-110785000D01*
X116665000Y-110785000D02*
X116665000Y-111775000D01*
X116785000Y-107665000D02*
X124665000Y-107665000D01*
X125835000Y-109635000D02*
X125835000Y-110785000D01*
X125835000Y-110785000D02*
X124785000Y-110785000D01*
D13*
%TO.C,D1*%
X131600000Y-91685000D02*
G75*
G03*
X131500000Y-91685000I-50000J0D01*
G01*
X131500000Y-91685000D02*
G75*
G03*
X131600000Y-91685000I50000J0D01*
G01*
D11*
%TO.C,C19*%
X126267163Y-100740000D02*
X126482835Y-100740000D01*
X126267163Y-101460000D02*
X126482835Y-101460000D01*
%TO.C,C15*%
X117607836Y-106960000D02*
X117392164Y-106960000D01*
X117607836Y-106240000D02*
X117392164Y-106240000D01*
%TO.C,C7*%
X122065000Y-95807836D02*
X122065000Y-95592164D01*
X122785000Y-95807836D02*
X122785000Y-95592164D01*
%TO.C,J2*%
X114490000Y-86990000D02*
X114490000Y-94810000D01*
X114490000Y-88590000D02*
X115410000Y-88590000D01*
X114490000Y-94810000D02*
X120610000Y-94810000D01*
X115250000Y-90950000D02*
X115250000Y-92550000D01*
X115250000Y-92550000D02*
X116250000Y-92550000D01*
X115410000Y-86990000D02*
X114490000Y-86990000D01*
X115410000Y-88590000D02*
X115410000Y-86990000D01*
X115690000Y-88590000D02*
X115410000Y-88590000D01*
X115690000Y-88590000D02*
X115690000Y-87375000D01*
X115750000Y-92550000D02*
X115750000Y-94810000D01*
X116250000Y-90950000D02*
X115250000Y-90950000D01*
X116250000Y-92550000D02*
X116250000Y-90950000D01*
X116250000Y-92550000D02*
X116250000Y-94810000D01*
X117050000Y-90450000D02*
X118050000Y-90450000D01*
X117050000Y-94810000D02*
X117050000Y-90450000D01*
X118050000Y-90450000D02*
X118050000Y-94810000D01*
X118850000Y-90950000D02*
X119850000Y-90950000D01*
X118850000Y-92550000D02*
X118850000Y-90950000D01*
X119690000Y-86990000D02*
X119690000Y-88590000D01*
X119690000Y-88590000D02*
X119410000Y-88590000D01*
X119850000Y-90950000D02*
X119850000Y-92550000D01*
X119850000Y-92550000D02*
X118850000Y-92550000D01*
X120610000Y-86990000D02*
X119690000Y-86990000D01*
X120610000Y-88590000D02*
X119690000Y-88590000D01*
X120610000Y-94810000D02*
X120610000Y-86990000D01*
%TO.C,R24*%
X116580000Y-105011359D02*
X116580000Y-105318641D01*
X115820000Y-105011359D02*
X115820000Y-105318641D01*
%TO.C,R25*%
X127295000Y-102688641D02*
X127295000Y-102381359D01*
X128055000Y-102688641D02*
X128055000Y-102381359D01*
%TO.C,R20*%
X128245000Y-102688641D02*
X128245000Y-102381359D01*
X129005000Y-102688641D02*
X129005000Y-102381359D01*
%TO.C,U4*%
X120435000Y-102190000D02*
X120435000Y-102665000D01*
X119960000Y-105410000D02*
X120435000Y-105410000D01*
X119960000Y-102190000D02*
X120435000Y-102190000D01*
X117690000Y-105410000D02*
X117215000Y-105410000D01*
X117690000Y-102190000D02*
X117215000Y-102190000D01*
X117215000Y-105410000D02*
X117215000Y-104935000D01*
X117215000Y-102190000D02*
X117215000Y-102665000D01*
D13*
%TO.C,S1*%
X134150000Y-101825000D02*
X134150000Y-96025000D01*
D14*
X129650000Y-101225000D02*
X129650000Y-101225000D01*
X129650000Y-101225000D02*
X129650000Y-101225000D01*
X129750000Y-101225000D02*
X129750000Y-101225000D01*
X129750000Y-101225000D02*
G75*
G03*
X129650000Y-101225000I-50000J0D01*
G01*
X129650000Y-101225000D02*
G75*
G03*
X129750000Y-101225000I50000J0D01*
G01*
X129650000Y-101225000D02*
G75*
G03*
X129750000Y-101225000I50000J0D01*
G01*
D11*
%TO.C,C20*%
X124607836Y-101460000D02*
X124392164Y-101460000D01*
X124607836Y-100740000D02*
X124392164Y-100740000D01*
%TO.C,R4*%
X130975000Y-92626359D02*
X130975000Y-92933641D01*
X130215000Y-92626359D02*
X130215000Y-92933641D01*
%TO.C,C22*%
X128307835Y-101485000D02*
X128092163Y-101485000D01*
X128307835Y-100765000D02*
X128092163Y-100765000D01*
D13*
%TO.C,S2*%
X124650000Y-91775000D02*
X124650000Y-91775000D01*
X124750000Y-91775000D02*
X124750000Y-91775000D01*
D14*
X126150000Y-90775000D02*
X128150000Y-90775000D01*
X126150000Y-92775000D02*
X128150000Y-92775000D01*
D13*
X124750000Y-91775000D02*
G75*
G03*
X124650000Y-91775000I-50000J0D01*
G01*
X124650000Y-91775000D02*
G75*
G03*
X124750000Y-91775000I50000J0D01*
G01*
D11*
%TO.C,C18*%
X115567164Y-106215000D02*
X115782836Y-106215000D01*
X115567164Y-106935000D02*
X115782836Y-106935000D01*
%TO.C,R18*%
X115845000Y-102503641D02*
X115845000Y-102196359D01*
X116605000Y-102503641D02*
X116605000Y-102196359D01*
D13*
%TO.C,S3*%
X122450000Y-98625000D02*
X122450000Y-98625000D01*
X122350000Y-98625000D02*
X122350000Y-98625000D01*
D14*
X120950000Y-99625000D02*
X118950000Y-99625000D01*
X120950000Y-97625000D02*
X118950000Y-97625000D01*
D13*
X122350000Y-98625000D02*
G75*
G03*
X122450000Y-98625000I50000J0D01*
G01*
X122450000Y-98625000D02*
G75*
G03*
X122350000Y-98625000I-50000J0D01*
G01*
D11*
%TO.C,C17*%
X118232836Y-101460000D02*
X118017164Y-101460000D01*
X118232836Y-100740000D02*
X118017164Y-100740000D01*
%TO.C,L1*%
X122560378Y-90040000D02*
X123359622Y-90040000D01*
X122560378Y-91160000D02*
X123359622Y-91160000D01*
%TO.C,R7*%
X116161641Y-99500000D02*
X115854359Y-99500000D01*
X116161641Y-98740000D02*
X115854359Y-98740000D01*
%TO.C,U5*%
X123440000Y-105510000D02*
X123440000Y-105035000D01*
X123915000Y-102290000D02*
X123440000Y-102290000D01*
X123915000Y-105510000D02*
X123440000Y-105510000D01*
X126185000Y-102290000D02*
X126660000Y-102290000D01*
X126185000Y-105510000D02*
X126660000Y-105510000D01*
X126660000Y-102290000D02*
X126660000Y-102765000D01*
X126660000Y-105510000D02*
X126660000Y-105035000D01*
%TO.C,R5*%
X130828641Y-105980000D02*
X130521359Y-105980000D01*
X130828641Y-105220000D02*
X130521359Y-105220000D01*
%TO.C,C23*%
X124965000Y-95007836D02*
X124965000Y-94792164D01*
X125685000Y-95007836D02*
X125685000Y-94792164D01*
D14*
%TO.C,IC1*%
X128738000Y-107475000D02*
X128275000Y-107938000D01*
X128738000Y-106612000D02*
X128738000Y-107475000D01*
X128275000Y-107938000D02*
X127412000Y-107938000D01*
X127412000Y-107938000D02*
X127412000Y-106612000D01*
X127412000Y-106612000D02*
X128738000Y-106612000D01*
X128838000Y-107938000D02*
G75*
G03*
X128638000Y-107938000I-100000J0D01*
G01*
X128638000Y-107938000D02*
G75*
G03*
X128838000Y-107938000I100000J0D01*
G01*
D11*
%TO.C,R11*%
X126655000Y-96671359D02*
X126655000Y-96978641D01*
X125895000Y-96671359D02*
X125895000Y-96978641D01*
%TO.C,C4*%
X115887164Y-97815000D02*
X116102836Y-97815000D01*
X115887164Y-98535000D02*
X116102836Y-98535000D01*
%TO.C,R12*%
X126721359Y-88895000D02*
X127028641Y-88895000D01*
X126721359Y-89655000D02*
X127028641Y-89655000D01*
%TO.C,R16*%
X115630000Y-105011359D02*
X115630000Y-105318641D01*
X114870000Y-105011359D02*
X114870000Y-105318641D01*
%TO.C,R6*%
X121095000Y-95853641D02*
X121095000Y-95546359D01*
X121855000Y-95853641D02*
X121855000Y-95546359D01*
D13*
%TO.C,D2*%
X124850000Y-89442500D02*
G75*
G03*
X124750000Y-89442500I-50000J0D01*
G01*
X124750000Y-89442500D02*
G75*
G03*
X124850000Y-89442500I50000J0D01*
G01*
%TD*%
M02*
