%TF.GenerationSoftware,KiCad,Pcbnew,7.0.10*%
%TF.CreationDate,2025-12-12T10:11:07-05:00*%
%TF.ProjectId,MiniBot,4d696e69-426f-4742-9e6b-696361645f70,rev?*%
%TF.SameCoordinates,Original*%
%TF.FileFunction,Copper,L4,Bot*%
%TF.FilePolarity,Positive*%
%FSLAX46Y46*%
G04 Gerber Fmt 4.6, Leading zero omitted, Abs format (unit mm)*
G04 Created by KiCad (PCBNEW 7.0.10) date 2025-12-12 10:11:07*
%MOMM*%
%LPD*%
G01*
G04 APERTURE LIST*
G04 Aperture macros list*
%AMRoundRect*
0 Rectangle with rounded corners*
0 $1 Rounding radius*
0 $2 $3 $4 $5 $6 $7 $8 $9 X,Y pos of 4 corners*
0 Add a 4 corners polygon primitive as box body*
4,1,4,$2,$3,$4,$5,$6,$7,$8,$9,$2,$3,0*
0 Add four circle primitives for the rounded corners*
1,1,$1+$1,$2,$3*
1,1,$1+$1,$4,$5*
1,1,$1+$1,$6,$7*
1,1,$1+$1,$8,$9*
0 Add four rect primitives between the rounded corners*
20,1,$1+$1,$2,$3,$4,$5,0*
20,1,$1+$1,$4,$5,$6,$7,0*
20,1,$1+$1,$6,$7,$8,$9,0*
20,1,$1+$1,$8,$9,$2,$3,0*%
G04 Aperture macros list end*
%TA.AperFunction,ComponentPad*%
%ADD10RoundRect,0.250000X-0.350000X-0.625000X0.350000X-0.625000X0.350000X0.625000X-0.350000X0.625000X0*%
%TD*%
%TA.AperFunction,ComponentPad*%
%ADD11O,1.200000X1.750000*%
%TD*%
%TA.AperFunction,SMDPad,CuDef*%
%ADD12RoundRect,0.140000X-0.170000X0.140000X-0.170000X-0.140000X0.170000X-0.140000X0.170000X0.140000X0*%
%TD*%
%TA.AperFunction,SMDPad,CuDef*%
%ADD13RoundRect,0.135000X-0.135000X-0.185000X0.135000X-0.185000X0.135000X0.185000X-0.135000X0.185000X0*%
%TD*%
%TA.AperFunction,SMDPad,CuDef*%
%ADD14R,0.400000X0.800000*%
%TD*%
%TA.AperFunction,SMDPad,CuDef*%
%ADD15R,0.800000X0.400000*%
%TD*%
%TA.AperFunction,SMDPad,CuDef*%
%ADD16R,1.450000X1.450000*%
%TD*%
%TA.AperFunction,SMDPad,CuDef*%
%ADD17R,0.700000X0.700000*%
%TD*%
%TA.AperFunction,SMDPad,CuDef*%
%ADD18RoundRect,0.135000X0.135000X0.185000X-0.135000X0.185000X-0.135000X-0.185000X0.135000X-0.185000X0*%
%TD*%
%TA.AperFunction,SMDPad,CuDef*%
%ADD19RoundRect,0.140000X0.170000X-0.140000X0.170000X0.140000X-0.170000X0.140000X-0.170000X-0.140000X0*%
%TD*%
%TA.AperFunction,SMDPad,CuDef*%
%ADD20RoundRect,0.135000X-0.185000X0.135000X-0.185000X-0.135000X0.185000X-0.135000X0.185000X0.135000X0*%
%TD*%
%TA.AperFunction,SMDPad,CuDef*%
%ADD21R,1.150000X0.580000*%
%TD*%
%TA.AperFunction,SMDPad,CuDef*%
%ADD22R,1.150000X0.280000*%
%TD*%
%TA.AperFunction,SMDPad,CuDef*%
%ADD23R,1.500000X1.500000*%
%TD*%
%TA.AperFunction,ViaPad*%
%ADD24C,0.500000*%
%TD*%
%TA.AperFunction,ViaPad*%
%ADD25C,0.800000*%
%TD*%
%TA.AperFunction,ViaPad*%
%ADD26C,0.600000*%
%TD*%
%TA.AperFunction,Conductor*%
%ADD27C,0.250000*%
%TD*%
%TA.AperFunction,Conductor*%
%ADD28C,0.200000*%
%TD*%
%TA.AperFunction,Conductor*%
%ADD29C,0.500000*%
%TD*%
G04 APERTURE END LIST*
D10*
%TO.P,J2,1,Pin_1*%
%TO.N,GND*%
X116550000Y-88450000D03*
D11*
%TO.P,J2,2,Pin_2*%
%TO.N,+BATT*%
X118550000Y-88450000D03*
%TD*%
D12*
%TO.P,C3,1*%
%TO.N,/RST*%
X123830000Y-90500000D03*
%TO.P,C3,2*%
%TO.N,GND*%
X123830000Y-91460000D03*
%TD*%
D13*
%TO.P,R1,1*%
%TO.N,+3V3*%
X124950000Y-109400000D03*
%TO.P,R1,2*%
%TO.N,/SCL*%
X125970000Y-109400000D03*
%TD*%
D14*
%TO.P,U1,1,GND_1*%
%TO.N,GND*%
X116350000Y-93650000D03*
%TO.P,U1,2,GND_2*%
X117150000Y-93650000D03*
%TO.P,U1,3,3V3*%
%TO.N,+3V3*%
X117950000Y-93650000D03*
%TO.P,U1,4,NC_1*%
%TO.N,unconnected-(U1-NC_1-Pad4)*%
X118750000Y-93650000D03*
%TO.P,U1,5,IO2*%
%TO.N,/GPIO2*%
X119550000Y-93650000D03*
%TO.P,U1,6,IO3*%
%TO.N,/M_RST*%
X120350000Y-93650000D03*
%TO.P,U1,7,NC_2*%
%TO.N,unconnected-(U1-NC_2-Pad7)*%
X121150000Y-93650000D03*
%TO.P,U1,8,EN*%
%TO.N,/RST*%
X121950000Y-93650000D03*
%TO.P,U1,9,NC_3*%
%TO.N,unconnected-(U1-NC_3-Pad9)*%
X122750000Y-93650000D03*
%TO.P,U1,10,NC_4*%
%TO.N,unconnected-(U1-NC_4-Pad10)*%
X123550000Y-93650000D03*
%TO.P,U1,11,GND_3*%
%TO.N,GND*%
X124350000Y-93650000D03*
D15*
%TO.P,U1,12,IO0*%
%TO.N,unconnected-(U1-IO0-Pad12)*%
X125250000Y-94750000D03*
%TO.P,U1,13,IO1*%
%TO.N,/VSENSE*%
X125250000Y-95550000D03*
%TO.P,U1,14,GND_4*%
%TO.N,GND*%
X125250000Y-96350000D03*
%TO.P,U1,15,NC_5*%
%TO.N,unconnected-(U1-NC_5-Pad15)*%
X125250000Y-97150000D03*
%TO.P,U1,16,IO10*%
%TO.N,/M0_STEP*%
X125250000Y-97950000D03*
%TO.P,U1,17,NC_6*%
%TO.N,unconnected-(U1-NC_6-Pad17)*%
X125250000Y-98750000D03*
%TO.P,U1,18,IO4*%
%TO.N,/M0_DIR*%
X125250000Y-99550000D03*
%TO.P,U1,19,IO5*%
%TO.N,/M1_STEP*%
X125250000Y-100350000D03*
%TO.P,U1,20,IO6*%
%TO.N,/M1_DIR*%
X125250000Y-101150000D03*
%TO.P,U1,21,IO7*%
%TO.N,/M_EN*%
X125250000Y-101950000D03*
%TO.P,U1,22,IO8*%
%TO.N,/GPIO8*%
X125250000Y-102750000D03*
%TO.P,U1,23,IO9*%
%TO.N,/GPIO9*%
X125250000Y-103550000D03*
%TO.P,U1,24,NC_7*%
%TO.N,unconnected-(U1-NC_7-Pad24)*%
X125250000Y-104350000D03*
D14*
%TO.P,U1,25,NC_8*%
%TO.N,unconnected-(U1-NC_8-Pad25)*%
X124350000Y-105450000D03*
%TO.P,U1,26,IO18*%
%TO.N,/USB-*%
X123550000Y-105450000D03*
%TO.P,U1,27,IO19*%
%TO.N,/USB+*%
X122750000Y-105450000D03*
%TO.P,U1,28,NC_9*%
%TO.N,unconnected-(U1-NC_9-Pad28)*%
X121950000Y-105450000D03*
%TO.P,U1,29,NC_10*%
%TO.N,unconnected-(U1-NC_10-Pad29)*%
X121150000Y-105450000D03*
%TO.P,U1,30,RXD0*%
%TO.N,/SDA*%
X120350000Y-105450000D03*
%TO.P,U1,31,TXD0*%
%TO.N,/SCL*%
X119550000Y-105450000D03*
%TO.P,U1,32,NC_11*%
%TO.N,unconnected-(U1-NC_11-Pad32)*%
X118750000Y-105450000D03*
%TO.P,U1,33,NC_12*%
%TO.N,unconnected-(U1-NC_12-Pad33)*%
X117950000Y-105450000D03*
%TO.P,U1,34,NC_13*%
%TO.N,unconnected-(U1-NC_13-Pad34)*%
X117150000Y-105450000D03*
%TO.P,U1,35,NC_14*%
%TO.N,unconnected-(U1-NC_14-Pad35)*%
X116350000Y-105450000D03*
D15*
%TO.P,U1,36,GND_5*%
%TO.N,GND*%
X115450000Y-104350000D03*
%TO.P,U1,37,GND_6*%
X115450000Y-103550000D03*
%TO.P,U1,38,GND_7*%
X115450000Y-102750000D03*
%TO.P,U1,39,GND_8*%
X115450000Y-101950000D03*
%TO.P,U1,40,GND_9*%
X115450000Y-101150000D03*
%TO.P,U1,41,GND_10*%
X115450000Y-100350000D03*
%TO.P,U1,42,GND_11*%
X115450000Y-99550000D03*
%TO.P,U1,43,GND_12*%
X115450000Y-98750000D03*
%TO.P,U1,44,GND_13*%
X115450000Y-97950000D03*
%TO.P,U1,45,GND_14*%
X115450000Y-97150000D03*
%TO.P,U1,46,GND_15*%
X115450000Y-96350000D03*
%TO.P,U1,47,GND_16*%
X115450000Y-95550000D03*
%TO.P,U1,48,GND_17*%
X115450000Y-94750000D03*
D16*
%TO.P,U1,49,GND_18*%
X120350000Y-99550000D03*
D17*
%TO.P,U1,50,GND_19*%
X115450000Y-105450000D03*
%TO.P,U1,51,GND_20*%
X125250000Y-105450000D03*
%TO.P,U1,52,GND_21*%
X125250000Y-93650000D03*
%TO.P,U1,53,GND_22*%
X115450000Y-93650000D03*
D16*
%TO.P,U1,54,GND_23*%
X120350000Y-97575000D03*
%TO.P,U1,55,GND_24*%
X122325000Y-97575000D03*
%TO.P,U1,56,GND_25*%
X122325000Y-99550000D03*
%TO.P,U1,57,GND_26*%
X122325000Y-101525000D03*
%TO.P,U1,58,GND_27*%
X120350000Y-101525000D03*
%TO.P,U1,59,GND_28*%
X118375000Y-101525000D03*
%TO.P,U1,60,GND_29*%
X118375000Y-99550000D03*
%TO.P,U1,61,GND_30*%
X118375000Y-97575000D03*
%TD*%
D18*
%TO.P,R13,1*%
%TO.N,Net-(D2-K)*%
X124540000Y-89570000D03*
%TO.P,R13,2*%
%TO.N,Net-(U3-STAT)*%
X123520000Y-89570000D03*
%TD*%
D19*
%TO.P,C1,1*%
%TO.N,GND*%
X120050000Y-91470000D03*
%TO.P,C1,2*%
%TO.N,+3V3*%
X120050000Y-90510000D03*
%TD*%
D20*
%TO.P,R3,1*%
%TO.N,+3V3*%
X124770000Y-90480000D03*
%TO.P,R3,2*%
%TO.N,/RST*%
X124770000Y-91500000D03*
%TD*%
D13*
%TO.P,R2,1*%
%TO.N,+3V3*%
X124950000Y-107690000D03*
%TO.P,R2,2*%
%TO.N,/SDA*%
X125970000Y-107690000D03*
%TD*%
D21*
%TO.P,J3,A1,GND_1*%
%TO.N,GND*%
X128525000Y-95650000D03*
%TO.P,J3,A4,VBUS_1*%
%TO.N,+5V*%
X128525000Y-96450000D03*
D22*
%TO.P,J3,A5,CC1*%
%TO.N,/CC1*%
X128525000Y-97600000D03*
%TO.P,J3,A6,DP1*%
%TO.N,/USB+*%
X128525000Y-98600000D03*
%TO.P,J3,A7,DN1*%
%TO.N,/USB-*%
X128525000Y-99100000D03*
%TO.P,J3,A8,SBU1*%
%TO.N,unconnected-(J3-SBU1-PadA8)*%
X128525000Y-100100000D03*
D21*
%TO.P,J3,A9,VBUS_2*%
%TO.N,+5V*%
X128525000Y-101250000D03*
%TO.P,J3,A12,GND_2*%
%TO.N,GND*%
X128525000Y-102050000D03*
D22*
%TO.P,J3,B5,CC2*%
%TO.N,/CC2*%
X128525000Y-100600000D03*
%TO.P,J3,B6,DP2*%
%TO.N,/USB+*%
X128525000Y-99600000D03*
%TO.P,J3,B7,DN2*%
%TO.N,/USB-*%
X128525000Y-98100000D03*
%TO.P,J3,B8,SBU2*%
%TO.N,unconnected-(J3-SBU2-PadB8)*%
X128525000Y-97100000D03*
D23*
%TO.P,J3,MP1,MP1*%
%TO.N,unconnected-(J3-PadMP1)*%
X129100000Y-93730000D03*
%TO.P,J3,MP2,MP2*%
%TO.N,unconnected-(J3-PadMP2)*%
X129100000Y-103970000D03*
%TO.P,J3,MP3,MP3*%
%TO.N,unconnected-(J3-PadMP3)*%
X133030000Y-93730000D03*
%TO.P,J3,MP4,MP4*%
%TO.N,unconnected-(J3-PadMP4)*%
X133030000Y-103970000D03*
%TD*%
D12*
%TO.P,C10,1*%
%TO.N,+BATT*%
X122910000Y-90500000D03*
%TO.P,C10,2*%
%TO.N,GND*%
X122910000Y-91460000D03*
%TD*%
%TO.P,C8,1*%
%TO.N,VDC*%
X121920000Y-90500000D03*
%TO.P,C8,2*%
%TO.N,GND*%
X121920000Y-91460000D03*
%TD*%
%TO.P,C2,1*%
%TO.N,+3V3*%
X121000000Y-90510000D03*
%TO.P,C2,2*%
%TO.N,GND*%
X121000000Y-91470000D03*
%TD*%
D24*
%TO.N,GND*%
X123449994Y-102475000D03*
X129646246Y-91763181D03*
X128050000Y-106450000D03*
X134575000Y-98675000D03*
X126750000Y-101925000D03*
X126275000Y-98375000D03*
X124050000Y-96250000D03*
X132525000Y-92025000D03*
X119855000Y-107475000D03*
X120350000Y-101525000D03*
X117193000Y-98145000D03*
X117050000Y-95625000D03*
X115875000Y-90375000D03*
X119990000Y-92300000D03*
X126200000Y-94425000D03*
X129025000Y-107500000D03*
X129075000Y-95025000D03*
X130525000Y-103425000D03*
X116025000Y-101250000D03*
X122525000Y-87350000D03*
X116459403Y-107199048D03*
D25*
%TO.N,VDC*%
X131600000Y-98925000D03*
X126449981Y-95324981D03*
D24*
X116835653Y-101018523D03*
X126950000Y-98075000D03*
D26*
X122275000Y-89500002D03*
D24*
X129775000Y-107975000D03*
%TO.N,/USB+*%
X129525000Y-99100000D03*
X122750000Y-107450000D03*
%TO.N,/USB-*%
X123550000Y-107450000D03*
X127325000Y-98625000D03*
%TO.N,+3V3*%
X119675000Y-96075000D03*
X121149982Y-106449991D03*
X125530000Y-90480000D03*
X125300000Y-110275000D03*
X129025004Y-106449996D03*
X132900000Y-95375000D03*
X118800000Y-86250000D03*
X118475000Y-95850000D03*
X129925000Y-109050000D03*
X119416799Y-91051254D03*
X123750000Y-101800000D03*
X115750000Y-110050000D03*
%TO.N,/CC1*%
X129440000Y-97600000D03*
%TO.N,/CC2*%
X129525000Y-100125000D03*
D25*
%TO.N,+5V*%
X130700013Y-99950013D03*
D24*
X117950000Y-90125000D03*
D25*
X127375000Y-94400000D03*
D24*
%TO.N,/VSENSE*%
X124449998Y-97200000D03*
%TO.N,/RST*%
X126498311Y-91537650D03*
%TO.N,/GPIO9*%
X124065642Y-97757878D03*
%TO.N,/GPIO8*%
X129325000Y-105250000D03*
%TO.N,/GPIO2*%
X120725000Y-95225000D03*
%TO.N,Net-(D2-K)*%
X125590000Y-88910000D03*
%TO.N,+BATT*%
X122525000Y-88325000D03*
D25*
X130848442Y-94549299D03*
D24*
%TO.N,/M0_A1*%
X121100000Y-103425000D03*
X117225000Y-109800000D03*
%TO.N,/M0_A2*%
X118225000Y-109750000D03*
X117110510Y-99850000D03*
%TO.N,/M1_B1*%
X121225000Y-109800000D03*
X127625000Y-104150000D03*
%TO.N,/M1_B2*%
X126450000Y-105575000D03*
X122225000Y-109775000D03*
%TO.N,/M0_B1*%
X123225000Y-109800000D03*
X116250000Y-103550000D03*
%TO.N,/M0_B2*%
X117200000Y-102350000D03*
X124225000Y-109800000D03*
%TO.N,Net-(U3-STAT)*%
X124150000Y-86410000D03*
%TO.N,/VREF*%
X128600000Y-105150000D03*
X116250000Y-100625000D03*
%TO.N,/SDA*%
X127200000Y-107375000D03*
%TO.N,/SCL*%
X127643669Y-107875278D03*
%TO.N,/M_EN*%
X117975000Y-107350000D03*
X126425000Y-100175000D03*
%TO.N,/M_RST*%
X120325000Y-94450000D03*
X126350000Y-99425000D03*
X118625000Y-107350000D03*
%TO.N,/M0_STEP*%
X124392828Y-98324968D03*
%TO.N,/M0_DIR*%
X124450000Y-99000000D03*
%TO.N,/M1_STEP*%
X124425000Y-99775000D03*
%TO.N,/M1_DIR*%
X124032628Y-100357628D03*
%TD*%
D27*
%TO.N,VDC*%
X121920000Y-89855002D02*
X122275000Y-89500002D01*
X121920000Y-90500000D02*
X121920000Y-89855002D01*
%TO.N,+BATT*%
X122525000Y-88325000D02*
X122910000Y-88710000D01*
X122910000Y-88710000D02*
X122910000Y-90500000D01*
%TO.N,GND*%
X120050000Y-91470000D02*
X120050000Y-92240000D01*
X121000000Y-91470000D02*
X121910000Y-91470000D01*
X123830000Y-91460000D02*
X122910000Y-91460000D01*
X120050000Y-92240000D02*
X119990000Y-92300000D01*
X121910000Y-91470000D02*
X121920000Y-91460000D01*
X121920000Y-91460000D02*
X122910000Y-91460000D01*
X120050000Y-91470000D02*
X121000000Y-91470000D01*
D28*
%TO.N,/USB+*%
X129525000Y-99100000D02*
X129350000Y-99100000D01*
X129350000Y-99550000D02*
X129300000Y-99600000D01*
X129300000Y-99600000D02*
X128525000Y-99600000D01*
X129300000Y-98600000D02*
X129350000Y-98650000D01*
X128525000Y-98600000D02*
X129300000Y-98600000D01*
X129350000Y-99100000D02*
X129350000Y-99550000D01*
X129350000Y-98650000D02*
X129350000Y-99100000D01*
X122750000Y-105450000D02*
X122750000Y-107450000D01*
%TO.N,/USB-*%
X127700000Y-98600000D02*
X127350000Y-98600000D01*
X123550000Y-105450000D02*
X123550000Y-107450000D01*
X127350000Y-98600000D02*
X127325000Y-98625000D01*
X127750000Y-99100000D02*
X127700000Y-99050000D01*
X127750000Y-98100000D02*
X128525000Y-98100000D01*
X127700000Y-98600000D02*
X127700000Y-98150000D01*
X127700000Y-99050000D02*
X127700000Y-98600000D01*
X128525000Y-99100000D02*
X127750000Y-99100000D01*
X127700000Y-98150000D02*
X127750000Y-98100000D01*
D27*
%TO.N,+3V3*%
X125790000Y-106850000D02*
X127666116Y-106850000D01*
X124990000Y-109965000D02*
X125300000Y-110275000D01*
D29*
X119416799Y-91051254D02*
X117950000Y-92518053D01*
D27*
X128450000Y-107025000D02*
X129025004Y-106449996D01*
X119508746Y-91051254D02*
X120050000Y-90510000D01*
X124990000Y-109375000D02*
X124990000Y-109965000D01*
X127666116Y-106850000D02*
X127841116Y-107025000D01*
D29*
X117950000Y-92518053D02*
X117950000Y-93650000D01*
D27*
X120050000Y-90510000D02*
X121000000Y-90510000D01*
X127841116Y-107025000D02*
X128450000Y-107025000D01*
X124950000Y-107690000D02*
X125790000Y-106850000D01*
X124770000Y-90480000D02*
X125530000Y-90480000D01*
X119416799Y-91051254D02*
X119508746Y-91051254D01*
%TO.N,/CC1*%
X128525000Y-97600000D02*
X129440000Y-97600000D01*
%TO.N,/CC2*%
X128525000Y-100600000D02*
X129350000Y-100600000D01*
X129350000Y-100600000D02*
X129525000Y-100425000D01*
X129525000Y-100425000D02*
X129525000Y-100125000D01*
%TO.N,+5V*%
X129610026Y-101040000D02*
X130700013Y-99950013D01*
D29*
X127450000Y-96450000D02*
X127450000Y-94475000D01*
X128525000Y-96450000D02*
X127450000Y-96450000D01*
D27*
X128525000Y-101250000D02*
X128735000Y-101040000D01*
X128735000Y-101040000D02*
X129610026Y-101040000D01*
D29*
X127450000Y-94475000D02*
X127375000Y-94400000D01*
D27*
%TO.N,/VSENSE*%
X124449998Y-96625002D02*
X124575000Y-96500000D01*
X124575000Y-95875000D02*
X124900000Y-95550000D01*
X124449998Y-97200000D02*
X124449998Y-96625002D01*
X124900000Y-95550000D02*
X125250000Y-95550000D01*
X124575000Y-96500000D02*
X124575000Y-95875000D01*
%TO.N,/RST*%
X123830000Y-90500000D02*
X123830000Y-90560000D01*
X121950000Y-93450000D02*
X122525000Y-92875000D01*
X124770000Y-91500000D02*
X126460661Y-91500000D01*
X123830000Y-90560000D02*
X124770000Y-91500000D01*
X125160961Y-92875000D02*
X126498311Y-91537650D01*
X126460661Y-91500000D02*
X126498311Y-91537650D01*
X121950000Y-93650000D02*
X121950000Y-93450000D01*
X122525000Y-92875000D02*
X125160961Y-92875000D01*
%TO.N,/GPIO9*%
X124375000Y-101550000D02*
X124375000Y-102875000D01*
X123425000Y-100600000D02*
X124375000Y-101550000D01*
X125050000Y-103550000D02*
X125250000Y-103550000D01*
X124375000Y-102875000D02*
X125050000Y-103550000D01*
X123425000Y-98398520D02*
X123425000Y-100600000D01*
X124065642Y-97757878D02*
X123425000Y-98398520D01*
%TO.N,/GPIO8*%
X127000000Y-104325000D02*
X127000000Y-104300000D01*
X128875000Y-105700000D02*
X128375000Y-105700000D01*
X129325000Y-105250000D02*
X128875000Y-105700000D01*
X128375000Y-105700000D02*
X127000000Y-104325000D01*
X125450000Y-102750000D02*
X125250000Y-102750000D01*
X127000000Y-104300000D02*
X125450000Y-102750000D01*
%TO.N,/GPIO2*%
X119800000Y-95225000D02*
X120725000Y-95225000D01*
X119550000Y-94975000D02*
X119775000Y-95200000D01*
X119550000Y-93650000D02*
X119550000Y-94975000D01*
X119775000Y-95200000D02*
X119800000Y-95225000D01*
%TO.N,Net-(D2-K)*%
X124540000Y-89570000D02*
X124930000Y-89570000D01*
X124930000Y-89570000D02*
X125590000Y-88910000D01*
%TO.N,Net-(U3-STAT)*%
X123520000Y-87040000D02*
X124150000Y-86410000D01*
X123520000Y-89570000D02*
X123520000Y-87040000D01*
%TO.N,/SDA*%
X120350000Y-106533886D02*
X122141114Y-108325000D01*
X125850000Y-108325000D02*
X126405000Y-108325000D01*
X127200000Y-107530000D02*
X127200000Y-107375000D01*
X125970000Y-107690000D02*
X125970000Y-108205000D01*
X120350000Y-105450000D02*
X120350000Y-106533886D01*
X122141114Y-108325000D02*
X125850000Y-108325000D01*
X126405000Y-108325000D02*
X127200000Y-107530000D01*
X125970000Y-108205000D02*
X125850000Y-108325000D01*
%TO.N,/SCL*%
X125970000Y-109400000D02*
X126000000Y-109370000D01*
X126000000Y-109370000D02*
X126000000Y-108750000D01*
X119550000Y-105450000D02*
X119550000Y-106299571D01*
X119550000Y-106299571D02*
X122000429Y-108750000D01*
X122000429Y-108750000D02*
X126000000Y-108750000D01*
X126768947Y-108750000D02*
X127643669Y-107875278D01*
X126000000Y-108750000D02*
X126768947Y-108750000D01*
%TO.N,/M_EN*%
X125250000Y-101950000D02*
X125625000Y-101950000D01*
X125625000Y-101950000D02*
X126425000Y-101150000D01*
X126425000Y-101150000D02*
X126425000Y-100175000D01*
%TO.N,/M_RST*%
X120350000Y-93850000D02*
X120350000Y-94425000D01*
X120350000Y-94425000D02*
X120325000Y-94450000D01*
%TO.N,/M0_STEP*%
X125250000Y-97950000D02*
X124767796Y-97950000D01*
X124767796Y-97950000D02*
X124392828Y-98324968D01*
%TO.N,/M0_DIR*%
X125000000Y-99550000D02*
X124450000Y-99000000D01*
X125250000Y-99550000D02*
X125000000Y-99550000D01*
%TO.N,/M1_STEP*%
X125000000Y-100350000D02*
X124425000Y-99775000D01*
X125250000Y-100350000D02*
X125000000Y-100350000D01*
%TO.N,/M1_DIR*%
X125250000Y-101150000D02*
X124825000Y-101150000D01*
X125250000Y-101150000D02*
X125450000Y-101150000D01*
X124825000Y-101150000D02*
X124032628Y-100357628D01*
%TD*%
%TA.AperFunction,Conductor*%
%TO.N,GND*%
G36*
X122458334Y-90785009D02*
G01*
X122502681Y-90813510D01*
X122572984Y-90883813D01*
X122672338Y-90927682D01*
X122696627Y-90930500D01*
X123123372Y-90930499D01*
X123147662Y-90927682D01*
X123247016Y-90883813D01*
X123282319Y-90848510D01*
X123343642Y-90815025D01*
X123413334Y-90820009D01*
X123457681Y-90848510D01*
X123492984Y-90883813D01*
X123592338Y-90927682D01*
X123616627Y-90930500D01*
X123759520Y-90930499D01*
X123826560Y-90950183D01*
X123847202Y-90966818D01*
X124263181Y-91382797D01*
X124296666Y-91444120D01*
X124299500Y-91470477D01*
X124299500Y-91677615D01*
X124299502Y-91677638D01*
X124302269Y-91701495D01*
X124302269Y-91701498D01*
X124345380Y-91799135D01*
X124345383Y-91799139D01*
X124345384Y-91799141D01*
X124420859Y-91874616D01*
X124420862Y-91874617D01*
X124420863Y-91874618D01*
X124518499Y-91917729D01*
X124518500Y-91917729D01*
X124518502Y-91917730D01*
X124542377Y-91920500D01*
X124997622Y-91920499D01*
X125021498Y-91917730D01*
X125119135Y-91874619D01*
X125119135Y-91874618D01*
X125119141Y-91874616D01*
X125181939Y-91811818D01*
X125243263Y-91778334D01*
X125269620Y-91775500D01*
X125571483Y-91775500D01*
X125638522Y-91795185D01*
X125684277Y-91847989D01*
X125694221Y-91917147D01*
X125665196Y-91980703D01*
X125659164Y-91987181D01*
X125083164Y-92563181D01*
X125021841Y-92596666D01*
X124995483Y-92599500D01*
X122564344Y-92599500D01*
X122540154Y-92597117D01*
X122525000Y-92594103D01*
X122524999Y-92594103D01*
X122524998Y-92594103D01*
X122503847Y-92598310D01*
X122503834Y-92598312D01*
X122417510Y-92615483D01*
X122417504Y-92615485D01*
X122375536Y-92643525D01*
X122375537Y-92643526D01*
X122349378Y-92661006D01*
X122349376Y-92661007D01*
X122326374Y-92676376D01*
X122317791Y-92689222D01*
X122302372Y-92708010D01*
X121947203Y-93063181D01*
X121885880Y-93096666D01*
X121859522Y-93099500D01*
X121735178Y-93099500D01*
X121691282Y-93108231D01*
X121691275Y-93108234D01*
X121641496Y-93141495D01*
X121637681Y-93145311D01*
X121576358Y-93178796D01*
X121506666Y-93173812D01*
X121462319Y-93145311D01*
X121458503Y-93141495D01*
X121408724Y-93108234D01*
X121408717Y-93108231D01*
X121364822Y-93099500D01*
X121364820Y-93099500D01*
X120935180Y-93099500D01*
X120935178Y-93099500D01*
X120891282Y-93108231D01*
X120891275Y-93108234D01*
X120841496Y-93141495D01*
X120837681Y-93145311D01*
X120776358Y-93178796D01*
X120706666Y-93173812D01*
X120662319Y-93145311D01*
X120658503Y-93141495D01*
X120608724Y-93108234D01*
X120608717Y-93108231D01*
X120564822Y-93099500D01*
X120564820Y-93099500D01*
X120135180Y-93099500D01*
X120135178Y-93099500D01*
X120091282Y-93108231D01*
X120091275Y-93108234D01*
X120041496Y-93141495D01*
X120037681Y-93145311D01*
X119976358Y-93178796D01*
X119906666Y-93173812D01*
X119862319Y-93145311D01*
X119858503Y-93141495D01*
X119808724Y-93108234D01*
X119808717Y-93108231D01*
X119764822Y-93099500D01*
X119764820Y-93099500D01*
X119335180Y-93099500D01*
X119335178Y-93099500D01*
X119291282Y-93108231D01*
X119291275Y-93108234D01*
X119241496Y-93141495D01*
X119237681Y-93145311D01*
X119176358Y-93178796D01*
X119106666Y-93173812D01*
X119062319Y-93145311D01*
X119058503Y-93141495D01*
X119008724Y-93108234D01*
X119008717Y-93108231D01*
X118964822Y-93099500D01*
X118964820Y-93099500D01*
X118535180Y-93099500D01*
X118498690Y-93106758D01*
X118429099Y-93100529D01*
X118373922Y-93057666D01*
X118350678Y-92991776D01*
X118350500Y-92985140D01*
X118350500Y-92735308D01*
X118370185Y-92668269D01*
X118386819Y-92647627D01*
X119729351Y-91305095D01*
X119729356Y-91305088D01*
X119744849Y-91289596D01*
X119754913Y-91269842D01*
X119765062Y-91253280D01*
X119778095Y-91235344D01*
X119784943Y-91214265D01*
X119792385Y-91196298D01*
X119802445Y-91176558D01*
X119802446Y-91176554D01*
X119805463Y-91167272D01*
X119807998Y-91168095D01*
X119831590Y-91118311D01*
X119836431Y-91113183D01*
X119972799Y-90976815D01*
X120034120Y-90943333D01*
X120060478Y-90940499D01*
X120263366Y-90940499D01*
X120263372Y-90940499D01*
X120287662Y-90937682D01*
X120387016Y-90893813D01*
X120437319Y-90843510D01*
X120498642Y-90810025D01*
X120568334Y-90815009D01*
X120612681Y-90843510D01*
X120662984Y-90893813D01*
X120762338Y-90937682D01*
X120786627Y-90940500D01*
X121213372Y-90940499D01*
X121237662Y-90937682D01*
X121337016Y-90893813D01*
X121377319Y-90853510D01*
X121438642Y-90820025D01*
X121508334Y-90825009D01*
X121552681Y-90853510D01*
X121582984Y-90883813D01*
X121682338Y-90927682D01*
X121706627Y-90930500D01*
X122133372Y-90930499D01*
X122157662Y-90927682D01*
X122257016Y-90883813D01*
X122327319Y-90813510D01*
X122388642Y-90780025D01*
X122458334Y-90785009D01*
G37*
%TD.AperFunction*%
%TA.AperFunction,Conductor*%
G36*
X121532590Y-84937768D02*
G01*
X121887996Y-84947796D01*
X121890440Y-84947891D01*
X122265436Y-84966499D01*
X122269399Y-84966761D01*
X122623711Y-84996002D01*
X122625770Y-84996191D01*
X122999316Y-85033995D01*
X123003637Y-85034510D01*
X123355978Y-85082896D01*
X123357440Y-85083108D01*
X123728663Y-85140027D01*
X123733313Y-85140832D01*
X124082433Y-85208194D01*
X124083724Y-85208452D01*
X124451482Y-85284313D01*
X124456345Y-85285421D01*
X124801443Y-85371606D01*
X124802141Y-85371784D01*
X125165690Y-85466439D01*
X125170824Y-85467897D01*
X125510499Y-85572550D01*
X125511341Y-85572813D01*
X125741088Y-85645392D01*
X125869296Y-85685895D01*
X125874775Y-85687768D01*
X126208319Y-85810656D01*
X126560481Y-85942115D01*
X126566161Y-85944399D01*
X126751570Y-86024352D01*
X126892157Y-86084977D01*
X127102746Y-86176143D01*
X127156447Y-86220841D01*
X127177458Y-86287476D01*
X127160841Y-86351986D01*
X126346595Y-87760810D01*
X126346046Y-87761441D01*
X126334467Y-87781712D01*
X126334413Y-87782120D01*
X126334414Y-87782123D01*
X126334487Y-87782218D01*
X126334564Y-87782318D01*
X126334666Y-87782450D01*
X126355803Y-87794646D01*
X126355968Y-87794703D01*
X126938956Y-88131291D01*
X128444707Y-89000636D01*
X128492923Y-89051203D01*
X128506033Y-89095115D01*
X128515274Y-89183411D01*
X128515276Y-89183424D01*
X128569273Y-89418812D01*
X128583339Y-89480131D01*
X128669928Y-89719508D01*
X128686889Y-89766396D01*
X128824397Y-90037988D01*
X128993816Y-90290873D01*
X128993828Y-90290890D01*
X129048880Y-90354698D01*
X129192684Y-90521375D01*
X129418030Y-90726041D01*
X129630779Y-90876564D01*
X129666533Y-90901861D01*
X129666543Y-90901867D01*
X129934529Y-91046244D01*
X129934531Y-91046245D01*
X130218064Y-91157055D01*
X130512933Y-91232654D01*
X130512937Y-91232654D01*
X130512942Y-91232656D01*
X130814813Y-91271933D01*
X130967016Y-91273119D01*
X131119212Y-91274305D01*
X131119212Y-91274304D01*
X131119219Y-91274305D01*
X131421665Y-91239737D01*
X131717686Y-91168740D01*
X132002909Y-91062362D01*
X132273124Y-90922175D01*
X132524340Y-90750247D01*
X132533758Y-90741963D01*
X132597094Y-90712469D01*
X132666324Y-90721898D01*
X132717521Y-90764371D01*
X132796288Y-90877862D01*
X132968078Y-91125384D01*
X132970927Y-91129488D01*
X132970962Y-91129594D01*
X132970988Y-91129577D01*
X133046720Y-91238896D01*
X133050150Y-91244124D01*
X133284314Y-91621450D01*
X133284404Y-91621768D01*
X133284482Y-91621721D01*
X133431157Y-91859429D01*
X133434203Y-91864647D01*
X133634783Y-92228236D01*
X133635038Y-92228701D01*
X133782710Y-92499109D01*
X133785383Y-92504289D01*
X133839484Y-92615483D01*
X133856886Y-92651248D01*
X133868516Y-92720143D01*
X133841053Y-92784389D01*
X133783215Y-92823588D01*
X133745384Y-92829500D01*
X132265178Y-92829500D01*
X132221282Y-92838231D01*
X132221275Y-92838234D01*
X132171496Y-92871495D01*
X132171495Y-92871496D01*
X132138234Y-92921275D01*
X132138231Y-92921282D01*
X132129500Y-92965177D01*
X132129500Y-92965180D01*
X132129500Y-94494820D01*
X132129500Y-94494822D01*
X132129499Y-94494822D01*
X132138231Y-94538717D01*
X132138234Y-94538724D01*
X132162673Y-94575300D01*
X132171496Y-94588504D01*
X132221278Y-94621767D01*
X132221281Y-94621767D01*
X132221282Y-94621768D01*
X132265177Y-94630500D01*
X132265180Y-94630500D01*
X133794822Y-94630500D01*
X133838717Y-94621768D01*
X133838717Y-94621767D01*
X133838722Y-94621767D01*
X133888504Y-94588504D01*
X133921767Y-94538722D01*
X133930500Y-94494820D01*
X133930500Y-93364962D01*
X133950185Y-93297923D01*
X134002989Y-93252168D01*
X134072147Y-93242224D01*
X134135703Y-93271249D01*
X134168634Y-93316494D01*
X134257594Y-93526007D01*
X134257923Y-93526791D01*
X134383502Y-93828991D01*
X134385467Y-93834027D01*
X134519894Y-94202022D01*
X134520289Y-94203119D01*
X134631109Y-94515572D01*
X134632732Y-94520470D01*
X134692754Y-94715233D01*
X134747271Y-94892137D01*
X134747669Y-94893456D01*
X134842585Y-95214062D01*
X134843903Y-95218867D01*
X134938739Y-95593954D01*
X134939119Y-95595498D01*
X135017382Y-95922637D01*
X135018402Y-95927296D01*
X135093580Y-96305236D01*
X135093919Y-96307007D01*
X135155005Y-96639271D01*
X135155747Y-96643768D01*
X135211298Y-97024038D01*
X135211573Y-97026033D01*
X135255108Y-97362130D01*
X135255590Y-97366449D01*
X135291484Y-97748145D01*
X135291673Y-97750364D01*
X135317406Y-98089167D01*
X135317650Y-98093294D01*
X135333898Y-98475685D01*
X135333978Y-98478122D01*
X135341738Y-98818424D01*
X135341765Y-98822346D01*
X135338390Y-99204635D01*
X135338338Y-99207285D01*
X135328048Y-99547870D01*
X135327881Y-99551576D01*
X135304926Y-99932906D01*
X135304721Y-99935761D01*
X135276376Y-100275631D01*
X135276036Y-100279112D01*
X135233582Y-100658562D01*
X135233202Y-100661613D01*
X135186876Y-100999605D01*
X135186387Y-101002855D01*
X135124543Y-101379567D01*
X135123968Y-101382802D01*
X135059791Y-101717915D01*
X135059175Y-101720928D01*
X134978088Y-102094012D01*
X134977297Y-102097418D01*
X134895501Y-102428482D01*
X134894783Y-102431253D01*
X134794611Y-102799924D01*
X134793584Y-102803490D01*
X134694435Y-103129511D01*
X134693637Y-103132038D01*
X134574610Y-103495346D01*
X134573330Y-103499054D01*
X134457198Y-103818951D01*
X134456344Y-103821234D01*
X134318674Y-104178406D01*
X134317123Y-104182238D01*
X134184424Y-104495019D01*
X134183537Y-104497059D01*
X134167765Y-104532455D01*
X134122498Y-104585679D01*
X134055643Y-104605981D01*
X133988425Y-104586915D01*
X133942185Y-104534535D01*
X133930500Y-104481986D01*
X133930500Y-103205177D01*
X133921768Y-103161282D01*
X133921767Y-103161281D01*
X133921767Y-103161278D01*
X133888504Y-103111496D01*
X133888503Y-103111495D01*
X133838724Y-103078234D01*
X133838717Y-103078231D01*
X133794822Y-103069500D01*
X133794820Y-103069500D01*
X132265180Y-103069500D01*
X132265178Y-103069500D01*
X132221282Y-103078231D01*
X132221275Y-103078234D01*
X132171496Y-103111495D01*
X132171495Y-103111496D01*
X132138234Y-103161275D01*
X132138231Y-103161282D01*
X132129500Y-103205177D01*
X132129500Y-103205180D01*
X132129500Y-104734820D01*
X132129500Y-104734822D01*
X132129499Y-104734822D01*
X132138231Y-104778717D01*
X132138232Y-104778721D01*
X132138233Y-104778722D01*
X132171496Y-104828504D01*
X132221278Y-104861767D01*
X132221281Y-104861767D01*
X132221282Y-104861768D01*
X132265177Y-104870500D01*
X132265180Y-104870500D01*
X133794822Y-104870500D01*
X133800885Y-104869903D01*
X133801003Y-104871109D01*
X133864212Y-104876759D01*
X133919394Y-104919616D01*
X133942646Y-104985503D01*
X133930251Y-105046563D01*
X133876932Y-105155756D01*
X133876033Y-105157559D01*
X133701828Y-105500090D01*
X133699688Y-105504114D01*
X133535632Y-105799312D01*
X133534745Y-105800881D01*
X133342617Y-106135056D01*
X133340160Y-106139145D01*
X133161394Y-106424120D01*
X133160540Y-106425461D01*
X132950798Y-106750481D01*
X132948013Y-106754613D01*
X132755613Y-107027993D01*
X132754814Y-107029115D01*
X132527425Y-107344701D01*
X132524301Y-107348851D01*
X132319425Y-107609443D01*
X132318700Y-107610356D01*
X132073661Y-107916073D01*
X132070189Y-107920217D01*
X131854511Y-108166487D01*
X131853879Y-108167202D01*
X131590725Y-108463060D01*
X131586897Y-108467172D01*
X131363322Y-108696693D01*
X131362803Y-108697223D01*
X131079919Y-108984175D01*
X131075729Y-108988230D01*
X130849417Y-109197173D01*
X130849028Y-109197531D01*
X130542668Y-109477965D01*
X130538113Y-109481935D01*
X130323322Y-109660119D01*
X130323076Y-109660322D01*
X129980388Y-109943122D01*
X129975467Y-109946979D01*
X129868678Y-110026408D01*
X129868592Y-110026472D01*
X129511879Y-110291312D01*
X129446318Y-110315470D01*
X129378105Y-110300349D01*
X129330574Y-110253752D01*
X128635591Y-109050003D01*
X129519508Y-109050003D01*
X129539352Y-109175300D01*
X129539352Y-109175301D01*
X129539354Y-109175304D01*
X129596950Y-109288342D01*
X129596952Y-109288344D01*
X129596954Y-109288347D01*
X129686652Y-109378045D01*
X129686654Y-109378046D01*
X129686658Y-109378050D01*
X129799696Y-109435646D01*
X129799697Y-109435646D01*
X129799699Y-109435647D01*
X129924997Y-109455492D01*
X129925000Y-109455492D01*
X129925003Y-109455492D01*
X130050300Y-109435647D01*
X130050301Y-109435647D01*
X130050302Y-109435646D01*
X130050304Y-109435646D01*
X130163342Y-109378050D01*
X130253050Y-109288342D01*
X130310646Y-109175304D01*
X130310646Y-109175302D01*
X130310647Y-109175301D01*
X130310647Y-109175300D01*
X130330492Y-109050003D01*
X130330492Y-109049996D01*
X130310647Y-108924699D01*
X130310647Y-108924698D01*
X130306717Y-108916985D01*
X130253050Y-108811658D01*
X130253046Y-108811654D01*
X130253045Y-108811652D01*
X130163347Y-108721954D01*
X130163344Y-108721952D01*
X130163342Y-108721950D01*
X130050304Y-108664354D01*
X130050303Y-108664353D01*
X130050300Y-108664352D01*
X129925003Y-108644508D01*
X129924997Y-108644508D01*
X129799699Y-108664352D01*
X129799698Y-108664352D01*
X129736227Y-108696693D01*
X129686658Y-108721950D01*
X129686657Y-108721951D01*
X129686652Y-108721954D01*
X129596954Y-108811652D01*
X129596951Y-108811657D01*
X129596950Y-108811658D01*
X129594743Y-108815990D01*
X129539352Y-108924698D01*
X129539352Y-108924699D01*
X129519508Y-109049996D01*
X129519508Y-109050003D01*
X128635591Y-109050003D01*
X128512841Y-108837394D01*
X128512793Y-108837254D01*
X128512789Y-108837257D01*
X128500469Y-108815883D01*
X128500141Y-108815631D01*
X128500140Y-108815631D01*
X128500133Y-108815631D01*
X128499729Y-108815684D01*
X128479629Y-108827136D01*
X128478942Y-108827732D01*
X126424830Y-110013675D01*
X126368159Y-110027423D01*
X126350365Y-110054360D01*
X126335175Y-110065019D01*
X126334414Y-110066012D01*
X126334413Y-110066015D01*
X126334467Y-110066424D01*
X126346847Y-110087832D01*
X126346843Y-110087834D01*
X126346938Y-110087942D01*
X126936996Y-111109952D01*
X127160988Y-111497918D01*
X127177461Y-111565818D01*
X127154608Y-111631845D01*
X127102864Y-111673712D01*
X126916273Y-111754490D01*
X126916108Y-111754562D01*
X126565900Y-111905568D01*
X126560168Y-111907872D01*
X126219912Y-112034888D01*
X126219415Y-112035072D01*
X125874421Y-112162181D01*
X125868907Y-112164067D01*
X125518471Y-112274779D01*
X125517627Y-112275042D01*
X125170377Y-112382032D01*
X125165110Y-112383528D01*
X124807764Y-112476571D01*
X124806567Y-112476877D01*
X124455795Y-112564484D01*
X124450801Y-112565622D01*
X124088066Y-112640453D01*
X124086507Y-112640764D01*
X123732591Y-112709057D01*
X123727893Y-112709870D01*
X123361279Y-112766090D01*
X123359356Y-112766370D01*
X123002786Y-112815344D01*
X122998401Y-112815867D01*
X122628963Y-112853264D01*
X122626677Y-112853474D01*
X122268377Y-112883053D01*
X122264323Y-112883320D01*
X121893291Y-112901739D01*
X121890644Y-112901843D01*
X121531446Y-112911989D01*
X121527737Y-112912038D01*
X121156066Y-112911416D01*
X121153064Y-112911374D01*
X120793971Y-112902074D01*
X120790618Y-112901942D01*
X120419488Y-112882271D01*
X120416139Y-112882048D01*
X120058019Y-112853331D01*
X120055030Y-112853055D01*
X119685448Y-112814393D01*
X119681764Y-112813952D01*
X119325643Y-112765890D01*
X119323022Y-112765508D01*
X118955981Y-112707965D01*
X118951979Y-112707270D01*
X118598794Y-112639978D01*
X118596542Y-112639527D01*
X118233171Y-112563295D01*
X118228866Y-112562312D01*
X117879498Y-112475925D01*
X117877616Y-112475444D01*
X117518949Y-112380772D01*
X117514363Y-112379466D01*
X117169645Y-112274142D01*
X117168128Y-112273668D01*
X116815344Y-112160915D01*
X116810498Y-112159255D01*
X116471066Y-112035100D01*
X116469907Y-112034670D01*
X116133679Y-111907872D01*
X116124265Y-111904322D01*
X116119202Y-111902283D01*
X116028398Y-111863378D01*
X115785274Y-111759213D01*
X115784464Y-111758863D01*
X115447641Y-111611705D01*
X115442356Y-111609246D01*
X115112695Y-111446362D01*
X115112221Y-111446127D01*
X114787362Y-111283885D01*
X114781902Y-111280986D01*
X114441590Y-111089269D01*
X114441612Y-111089228D01*
X114441436Y-111089182D01*
X114213483Y-110960335D01*
X114164808Y-110910210D01*
X114150500Y-110852386D01*
X114150500Y-110050003D01*
X115344508Y-110050003D01*
X115364352Y-110175300D01*
X115364352Y-110175301D01*
X115369624Y-110185647D01*
X115421950Y-110288342D01*
X115421952Y-110288344D01*
X115421954Y-110288347D01*
X115511652Y-110378045D01*
X115511654Y-110378046D01*
X115511658Y-110378050D01*
X115624696Y-110435646D01*
X115624697Y-110435646D01*
X115624699Y-110435647D01*
X115749997Y-110455492D01*
X115750000Y-110455492D01*
X115750003Y-110455492D01*
X115875300Y-110435647D01*
X115875301Y-110435647D01*
X115875302Y-110435646D01*
X115875304Y-110435646D01*
X115988342Y-110378050D01*
X116078050Y-110288342D01*
X116135646Y-110175304D01*
X116135646Y-110175302D01*
X116135647Y-110175301D01*
X116135647Y-110175300D01*
X116155492Y-110050003D01*
X116155492Y-110049996D01*
X116135647Y-109924699D01*
X116135647Y-109924698D01*
X116129355Y-109912349D01*
X116078050Y-109811658D01*
X116078046Y-109811654D01*
X116078045Y-109811652D01*
X116066396Y-109800003D01*
X116819508Y-109800003D01*
X116839352Y-109925300D01*
X116839352Y-109925301D01*
X116839354Y-109925304D01*
X116896950Y-110038342D01*
X116896952Y-110038344D01*
X116896954Y-110038347D01*
X116986652Y-110128045D01*
X116986654Y-110128046D01*
X116986658Y-110128050D01*
X117099696Y-110185646D01*
X117099697Y-110185646D01*
X117099699Y-110185647D01*
X117224997Y-110205492D01*
X117225000Y-110205492D01*
X117225003Y-110205492D01*
X117350300Y-110185647D01*
X117350301Y-110185647D01*
X117350302Y-110185646D01*
X117350304Y-110185646D01*
X117463342Y-110128050D01*
X117553050Y-110038342D01*
X117610646Y-109925304D01*
X117611220Y-109921678D01*
X117613141Y-109917624D01*
X117613663Y-109916020D01*
X117613870Y-109916087D01*
X117641144Y-109858544D01*
X117700452Y-109821608D01*
X117770315Y-109822600D01*
X117828551Y-109861205D01*
X117844178Y-109884773D01*
X117896949Y-109988340D01*
X117896954Y-109988347D01*
X117986652Y-110078045D01*
X117986654Y-110078046D01*
X117986658Y-110078050D01*
X118099696Y-110135646D01*
X118099697Y-110135646D01*
X118099699Y-110135647D01*
X118224997Y-110155492D01*
X118225000Y-110155492D01*
X118225003Y-110155492D01*
X118350300Y-110135647D01*
X118350301Y-110135647D01*
X118350302Y-110135646D01*
X118350304Y-110135646D01*
X118463342Y-110078050D01*
X118553050Y-109988342D01*
X118610646Y-109875304D01*
X118610646Y-109875302D01*
X118610647Y-109875301D01*
X118610647Y-109875300D01*
X118630492Y-109750003D01*
X118630492Y-109749996D01*
X118610647Y-109624699D01*
X118610647Y-109624698D01*
X118610646Y-109624696D01*
X118553050Y-109511658D01*
X118553046Y-109511654D01*
X118553045Y-109511652D01*
X118463347Y-109421954D01*
X118463344Y-109421952D01*
X118463342Y-109421950D01*
X118350304Y-109364354D01*
X118350303Y-109364353D01*
X118350300Y-109364352D01*
X118225003Y-109344508D01*
X118224997Y-109344508D01*
X118099699Y-109364352D01*
X118099698Y-109364352D01*
X118024337Y-109402751D01*
X117986658Y-109421950D01*
X117986657Y-109421951D01*
X117986652Y-109421954D01*
X117896954Y-109511652D01*
X117896951Y-109511657D01*
X117896950Y-109511658D01*
X117884212Y-109536658D01*
X117839353Y-109624698D01*
X117838778Y-109628329D01*
X117836855Y-109632384D01*
X117836337Y-109633980D01*
X117836130Y-109633912D01*
X117808848Y-109691463D01*
X117749537Y-109728394D01*
X117679674Y-109727396D01*
X117621442Y-109688786D01*
X117605820Y-109665225D01*
X117605375Y-109664352D01*
X117553050Y-109561658D01*
X117553046Y-109561654D01*
X117553045Y-109561652D01*
X117463347Y-109471954D01*
X117463344Y-109471952D01*
X117463342Y-109471950D01*
X117350304Y-109414354D01*
X117350303Y-109414353D01*
X117350300Y-109414352D01*
X117225003Y-109394508D01*
X117224997Y-109394508D01*
X117099699Y-109414352D01*
X117099698Y-109414352D01*
X117035723Y-109446950D01*
X116986658Y-109471950D01*
X116986657Y-109471951D01*
X116986652Y-109471954D01*
X116896954Y-109561652D01*
X116896951Y-109561657D01*
X116896950Y-109561658D01*
X116877751Y-109599337D01*
X116839352Y-109674698D01*
X116839352Y-109674699D01*
X116819508Y-109799996D01*
X116819508Y-109800003D01*
X116066396Y-109800003D01*
X115988347Y-109721954D01*
X115988344Y-109721952D01*
X115988342Y-109721950D01*
X115875304Y-109664354D01*
X115875303Y-109664353D01*
X115875300Y-109664352D01*
X115750003Y-109644508D01*
X115749997Y-109644508D01*
X115624699Y-109664352D01*
X115624698Y-109664352D01*
X115549337Y-109702751D01*
X115511658Y-109721950D01*
X115511657Y-109721951D01*
X115511652Y-109721954D01*
X115421954Y-109811652D01*
X115421951Y-109811657D01*
X115421950Y-109811658D01*
X115416375Y-109822600D01*
X115364352Y-109924698D01*
X115364352Y-109924699D01*
X115344508Y-110049996D01*
X115344508Y-110050003D01*
X114150500Y-110050003D01*
X114150500Y-107638015D01*
X114157020Y-107598336D01*
X114240894Y-107350003D01*
X117569508Y-107350003D01*
X117589352Y-107475300D01*
X117589352Y-107475301D01*
X117602092Y-107500304D01*
X117646950Y-107588342D01*
X117646952Y-107588344D01*
X117646954Y-107588347D01*
X117736652Y-107678045D01*
X117736654Y-107678046D01*
X117736658Y-107678050D01*
X117849696Y-107735646D01*
X117849697Y-107735646D01*
X117849699Y-107735647D01*
X117974997Y-107755492D01*
X117975000Y-107755492D01*
X117975003Y-107755492D01*
X118100300Y-107735647D01*
X118100301Y-107735647D01*
X118100302Y-107735646D01*
X118100304Y-107735646D01*
X118213342Y-107678050D01*
X118213349Y-107678042D01*
X118221241Y-107672311D01*
X118222225Y-107673665D01*
X118273632Y-107645590D01*
X118343324Y-107650569D01*
X118378248Y-107673013D01*
X118378759Y-107672311D01*
X118386653Y-107678045D01*
X118386658Y-107678050D01*
X118499696Y-107735646D01*
X118499697Y-107735646D01*
X118499699Y-107735647D01*
X118624997Y-107755492D01*
X118625000Y-107755492D01*
X118625003Y-107755492D01*
X118750300Y-107735647D01*
X118750301Y-107735647D01*
X118750302Y-107735646D01*
X118750304Y-107735646D01*
X118863342Y-107678050D01*
X118953050Y-107588342D01*
X119010646Y-107475304D01*
X119010646Y-107475302D01*
X119010647Y-107475301D01*
X119010647Y-107475300D01*
X119030492Y-107350003D01*
X119030492Y-107349996D01*
X119010647Y-107224699D01*
X119010647Y-107224698D01*
X119009409Y-107222269D01*
X118953050Y-107111658D01*
X118953046Y-107111654D01*
X118953045Y-107111652D01*
X118863347Y-107021954D01*
X118863344Y-107021952D01*
X118863342Y-107021950D01*
X118750304Y-106964354D01*
X118750303Y-106964353D01*
X118750300Y-106964352D01*
X118625003Y-106944508D01*
X118624997Y-106944508D01*
X118499699Y-106964352D01*
X118499698Y-106964352D01*
X118424337Y-107002751D01*
X118386658Y-107021950D01*
X118386657Y-107021951D01*
X118378759Y-107027689D01*
X118377775Y-107026334D01*
X118326358Y-107054411D01*
X118256666Y-107049427D01*
X118221750Y-107026987D01*
X118221241Y-107027689D01*
X118213345Y-107021953D01*
X118213342Y-107021950D01*
X118100304Y-106964354D01*
X118100303Y-106964353D01*
X118100300Y-106964352D01*
X117975003Y-106944508D01*
X117974997Y-106944508D01*
X117849699Y-106964352D01*
X117849698Y-106964352D01*
X117774337Y-107002751D01*
X117736658Y-107021950D01*
X117736657Y-107021951D01*
X117736652Y-107021954D01*
X117646954Y-107111652D01*
X117646951Y-107111657D01*
X117589352Y-107224698D01*
X117589352Y-107224699D01*
X117569508Y-107349996D01*
X117569508Y-107350003D01*
X114240894Y-107350003D01*
X114604104Y-106274618D01*
X114604104Y-105864822D01*
X115999499Y-105864822D01*
X116008231Y-105908717D01*
X116008234Y-105908724D01*
X116019902Y-105926186D01*
X116041496Y-105958504D01*
X116091278Y-105991767D01*
X116091281Y-105991767D01*
X116091282Y-105991768D01*
X116135177Y-106000500D01*
X116135180Y-106000500D01*
X116564822Y-106000500D01*
X116608717Y-105991768D01*
X116608717Y-105991767D01*
X116608722Y-105991767D01*
X116658504Y-105958504D01*
X116658506Y-105958500D01*
X116662319Y-105954689D01*
X116723642Y-105921204D01*
X116793334Y-105926188D01*
X116837681Y-105954689D01*
X116841495Y-105958503D01*
X116841496Y-105958504D01*
X116891278Y-105991767D01*
X116891281Y-105991767D01*
X116891282Y-105991768D01*
X116935177Y-106000500D01*
X116935180Y-106000500D01*
X117364822Y-106000500D01*
X117408717Y-105991768D01*
X117408717Y-105991767D01*
X117408722Y-105991767D01*
X117458504Y-105958504D01*
X117458506Y-105958500D01*
X117462319Y-105954689D01*
X117523642Y-105921204D01*
X117593334Y-105926188D01*
X117637681Y-105954689D01*
X117641495Y-105958503D01*
X117641496Y-105958504D01*
X117691278Y-105991767D01*
X117691281Y-105991767D01*
X117691282Y-105991768D01*
X117735177Y-106000500D01*
X117735180Y-106000500D01*
X118164822Y-106000500D01*
X118208717Y-105991768D01*
X118208717Y-105991767D01*
X118208722Y-105991767D01*
X118258504Y-105958504D01*
X118258506Y-105958500D01*
X118262319Y-105954689D01*
X118323642Y-105921204D01*
X118393334Y-105926188D01*
X118437681Y-105954689D01*
X118441495Y-105958503D01*
X118441496Y-105958504D01*
X118491278Y-105991767D01*
X118491281Y-105991767D01*
X118491282Y-105991768D01*
X118535177Y-106000500D01*
X118535180Y-106000500D01*
X118964822Y-106000500D01*
X119008717Y-105991768D01*
X119008717Y-105991767D01*
X119008722Y-105991767D01*
X119058504Y-105958504D01*
X119058510Y-105958494D01*
X119062314Y-105954692D01*
X119123636Y-105921205D01*
X119193328Y-105926186D01*
X119237593Y-105954601D01*
X119238094Y-105955101D01*
X119271640Y-106016391D01*
X119274500Y-106042870D01*
X119274500Y-106260226D01*
X119272117Y-106284418D01*
X119269103Y-106299570D01*
X119269103Y-106299573D01*
X119273310Y-106320723D01*
X119273311Y-106320730D01*
X119290483Y-106407061D01*
X119290484Y-106407064D01*
X119290485Y-106407066D01*
X119308786Y-106434455D01*
X119351373Y-106498192D01*
X119351376Y-106498195D01*
X119364221Y-106506777D01*
X119383011Y-106522198D01*
X121777798Y-108916985D01*
X121793219Y-108935775D01*
X121801802Y-108948621D01*
X121801804Y-108948622D01*
X121801805Y-108948624D01*
X121824805Y-108963992D01*
X121824807Y-108963994D01*
X121841850Y-108975381D01*
X121841853Y-108975385D01*
X121841854Y-108975384D01*
X121892934Y-109009515D01*
X121892936Y-109009515D01*
X121892937Y-109009516D01*
X121892935Y-109009516D01*
X121979261Y-109026687D01*
X121979268Y-109026687D01*
X122000429Y-109030897D01*
X122015582Y-109027882D01*
X122039773Y-109025500D01*
X124407322Y-109025500D01*
X124474361Y-109045185D01*
X124520116Y-109097989D01*
X124530496Y-109163791D01*
X124529500Y-109172372D01*
X124529500Y-109303309D01*
X124509815Y-109370348D01*
X124457011Y-109416103D01*
X124387853Y-109426047D01*
X124359666Y-109417111D01*
X124359583Y-109417369D01*
X124350300Y-109414352D01*
X124225003Y-109394508D01*
X124224997Y-109394508D01*
X124099699Y-109414352D01*
X124099698Y-109414352D01*
X124035723Y-109446950D01*
X123986658Y-109471950D01*
X123986657Y-109471951D01*
X123986652Y-109471954D01*
X123896954Y-109561652D01*
X123896949Y-109561659D01*
X123835484Y-109682290D01*
X123787510Y-109733085D01*
X123719689Y-109749880D01*
X123653554Y-109727342D01*
X123614516Y-109682290D01*
X123580150Y-109614845D01*
X123553050Y-109561658D01*
X123553047Y-109561655D01*
X123553045Y-109561652D01*
X123463347Y-109471954D01*
X123463344Y-109471952D01*
X123463342Y-109471950D01*
X123350304Y-109414354D01*
X123350303Y-109414353D01*
X123350300Y-109414352D01*
X123225003Y-109394508D01*
X123224997Y-109394508D01*
X123099699Y-109414352D01*
X123099698Y-109414352D01*
X123035723Y-109446950D01*
X122986658Y-109471950D01*
X122986657Y-109471951D01*
X122986652Y-109471954D01*
X122896954Y-109561652D01*
X122896949Y-109561659D01*
X122840568Y-109672312D01*
X122792594Y-109723107D01*
X122724773Y-109739902D01*
X122658638Y-109717364D01*
X122615187Y-109662649D01*
X122612153Y-109654335D01*
X122610646Y-109649701D01*
X122610646Y-109649696D01*
X122553050Y-109536658D01*
X122553046Y-109536654D01*
X122553045Y-109536652D01*
X122463347Y-109446954D01*
X122463344Y-109446952D01*
X122463342Y-109446950D01*
X122350304Y-109389354D01*
X122350303Y-109389353D01*
X122350300Y-109389352D01*
X122225003Y-109369508D01*
X122224997Y-109369508D01*
X122099699Y-109389352D01*
X122099698Y-109389352D01*
X122035723Y-109421950D01*
X121986658Y-109446950D01*
X121986657Y-109446951D01*
X121986652Y-109446954D01*
X121896954Y-109536652D01*
X121896951Y-109536657D01*
X121896950Y-109536658D01*
X121866986Y-109595463D01*
X121839351Y-109649701D01*
X121837843Y-109654343D01*
X121798402Y-109712015D01*
X121734041Y-109739209D01*
X121665196Y-109727289D01*
X121613723Y-109680042D01*
X121609431Y-109672312D01*
X121553050Y-109561658D01*
X121553046Y-109561654D01*
X121553045Y-109561652D01*
X121463347Y-109471954D01*
X121463344Y-109471952D01*
X121463342Y-109471950D01*
X121350304Y-109414354D01*
X121350303Y-109414353D01*
X121350300Y-109414352D01*
X121225003Y-109394508D01*
X121224997Y-109394508D01*
X121099699Y-109414352D01*
X121099698Y-109414352D01*
X121035723Y-109446950D01*
X120986658Y-109471950D01*
X120986657Y-109471951D01*
X120986652Y-109471954D01*
X120896954Y-109561652D01*
X120896951Y-109561657D01*
X120896950Y-109561658D01*
X120877751Y-109599337D01*
X120839352Y-109674698D01*
X120839352Y-109674699D01*
X120819508Y-109799996D01*
X120819508Y-109800003D01*
X120839352Y-109925300D01*
X120839352Y-109925301D01*
X120839354Y-109925304D01*
X120896950Y-110038342D01*
X120896952Y-110038344D01*
X120896954Y-110038347D01*
X120986652Y-110128045D01*
X120986654Y-110128046D01*
X120986658Y-110128050D01*
X121099696Y-110185646D01*
X121099697Y-110185646D01*
X121099699Y-110185647D01*
X121224997Y-110205492D01*
X121225000Y-110205492D01*
X121225003Y-110205492D01*
X121350300Y-110185647D01*
X121350301Y-110185647D01*
X121350302Y-110185646D01*
X121350304Y-110185646D01*
X121463342Y-110128050D01*
X121553050Y-110038342D01*
X121610646Y-109925304D01*
X121610647Y-109925295D01*
X121612152Y-109920666D01*
X121651589Y-109862990D01*
X121715947Y-109835791D01*
X121784794Y-109847705D01*
X121836270Y-109894948D01*
X121840565Y-109902681D01*
X121896950Y-110013342D01*
X121896952Y-110013344D01*
X121896954Y-110013347D01*
X121986652Y-110103045D01*
X121986654Y-110103046D01*
X121986658Y-110103050D01*
X122099696Y-110160646D01*
X122099697Y-110160646D01*
X122099699Y-110160647D01*
X122224997Y-110180492D01*
X122225000Y-110180492D01*
X122225003Y-110180492D01*
X122350300Y-110160647D01*
X122350301Y-110160647D01*
X122350302Y-110160646D01*
X122350304Y-110160646D01*
X122463342Y-110103050D01*
X122553050Y-110013342D01*
X122609432Y-109902685D01*
X122657404Y-109851892D01*
X122725225Y-109835097D01*
X122791360Y-109857634D01*
X122834812Y-109912349D01*
X122837844Y-109920659D01*
X122839352Y-109925299D01*
X122839353Y-109925302D01*
X122839354Y-109925304D01*
X122896950Y-110038342D01*
X122896952Y-110038344D01*
X122896954Y-110038347D01*
X122986652Y-110128045D01*
X122986654Y-110128046D01*
X122986658Y-110128050D01*
X123099696Y-110185646D01*
X123099697Y-110185646D01*
X123099699Y-110185647D01*
X123224997Y-110205492D01*
X123225000Y-110205492D01*
X123225003Y-110205492D01*
X123350300Y-110185647D01*
X123350301Y-110185647D01*
X123350302Y-110185646D01*
X123350304Y-110185646D01*
X123463342Y-110128050D01*
X123553050Y-110038342D01*
X123610646Y-109925304D01*
X123610646Y-109925302D01*
X123614515Y-109917710D01*
X123662490Y-109866914D01*
X123730311Y-109850119D01*
X123796446Y-109872657D01*
X123835485Y-109917710D01*
X123839353Y-109925302D01*
X123839354Y-109925304D01*
X123896950Y-110038342D01*
X123896952Y-110038344D01*
X123896954Y-110038347D01*
X123986652Y-110128045D01*
X123986654Y-110128046D01*
X123986658Y-110128050D01*
X124099696Y-110185646D01*
X124099697Y-110185646D01*
X124099699Y-110185647D01*
X124224997Y-110205492D01*
X124225000Y-110205492D01*
X124225003Y-110205492D01*
X124350300Y-110185647D01*
X124350301Y-110185647D01*
X124350302Y-110185646D01*
X124350304Y-110185646D01*
X124463342Y-110128050D01*
X124538896Y-110052495D01*
X124600217Y-110019012D01*
X124669909Y-110023996D01*
X124725843Y-110065867D01*
X124729678Y-110071286D01*
X124730484Y-110072493D01*
X124730485Y-110072495D01*
X124753924Y-110107573D01*
X124773301Y-110136574D01*
X124773302Y-110136575D01*
X124773301Y-110136575D01*
X124791374Y-110163623D01*
X124795585Y-110166436D01*
X124804222Y-110172207D01*
X124823012Y-110187628D01*
X124863030Y-110227646D01*
X124896515Y-110288969D01*
X124897822Y-110295929D01*
X124914352Y-110400301D01*
X124914354Y-110400304D01*
X124971950Y-110513342D01*
X124971952Y-110513344D01*
X124971954Y-110513347D01*
X125061652Y-110603045D01*
X125061654Y-110603046D01*
X125061658Y-110603050D01*
X125174696Y-110660646D01*
X125174697Y-110660646D01*
X125174699Y-110660647D01*
X125299997Y-110680492D01*
X125300000Y-110680492D01*
X125300003Y-110680492D01*
X125425300Y-110660647D01*
X125425301Y-110660647D01*
X125425302Y-110660646D01*
X125425304Y-110660646D01*
X125538342Y-110603050D01*
X125628050Y-110513342D01*
X125685646Y-110400304D01*
X125685646Y-110400302D01*
X125685647Y-110400301D01*
X125685647Y-110400300D01*
X125705492Y-110275003D01*
X125705492Y-110274996D01*
X125685647Y-110149699D01*
X125685646Y-110149696D01*
X125664183Y-110107573D01*
X125632616Y-110045620D01*
X125619720Y-109976954D01*
X125645996Y-109912213D01*
X125703102Y-109871956D01*
X125758901Y-109869563D01*
X125759239Y-109866655D01*
X125768500Y-109867729D01*
X125768502Y-109867730D01*
X125792377Y-109870500D01*
X126147622Y-109870499D01*
X126171498Y-109867730D01*
X126220263Y-109846197D01*
X126262824Y-109840624D01*
X126273087Y-109820718D01*
X126275066Y-109818690D01*
X126344616Y-109749141D01*
X126387730Y-109651498D01*
X126390500Y-109627623D01*
X126390499Y-109172378D01*
X126390449Y-109171950D01*
X126389503Y-109163785D01*
X126401333Y-109094925D01*
X126448514Y-109043391D01*
X126512677Y-109025500D01*
X126729603Y-109025500D01*
X126753793Y-109027882D01*
X126768947Y-109030897D01*
X126796079Y-109025500D01*
X126796080Y-109025500D01*
X126827884Y-109019173D01*
X126876439Y-109009516D01*
X126876439Y-109009515D01*
X126876442Y-109009515D01*
X126927522Y-108975384D01*
X126944569Y-108963994D01*
X126944570Y-108963992D01*
X126949641Y-108960604D01*
X126957999Y-108955020D01*
X126958000Y-108955018D01*
X126967571Y-108948624D01*
X126976155Y-108935775D01*
X126991571Y-108916990D01*
X127596316Y-108312245D01*
X127657637Y-108278762D01*
X127664557Y-108277461D01*
X127768973Y-108260924D01*
X127882011Y-108203328D01*
X127971719Y-108113620D01*
X128029315Y-108000582D01*
X128029315Y-108000580D01*
X128029316Y-108000579D01*
X128029316Y-108000578D01*
X128033367Y-107975003D01*
X129369508Y-107975003D01*
X129389352Y-108100300D01*
X129389352Y-108100301D01*
X129389354Y-108100304D01*
X129446950Y-108213342D01*
X129446952Y-108213344D01*
X129446954Y-108213347D01*
X129536652Y-108303045D01*
X129536654Y-108303046D01*
X129536658Y-108303050D01*
X129649696Y-108360646D01*
X129649697Y-108360646D01*
X129649699Y-108360647D01*
X129774997Y-108380492D01*
X129775000Y-108380492D01*
X129775003Y-108380492D01*
X129900300Y-108360647D01*
X129900301Y-108360647D01*
X129900302Y-108360646D01*
X129900304Y-108360646D01*
X130013342Y-108303050D01*
X130103050Y-108213342D01*
X130160646Y-108100304D01*
X130160646Y-108100302D01*
X130160647Y-108100301D01*
X130160647Y-108100300D01*
X130180492Y-107975003D01*
X130180492Y-107974996D01*
X130160647Y-107849699D01*
X130160647Y-107849698D01*
X130153487Y-107835646D01*
X130103050Y-107736658D01*
X130103046Y-107736654D01*
X130103045Y-107736652D01*
X130013347Y-107646954D01*
X130013344Y-107646952D01*
X130013342Y-107646950D01*
X129900304Y-107589354D01*
X129900303Y-107589353D01*
X129900300Y-107589352D01*
X129775003Y-107569508D01*
X129774997Y-107569508D01*
X129649699Y-107589352D01*
X129649698Y-107589352D01*
X129574337Y-107627751D01*
X129536658Y-107646950D01*
X129536657Y-107646951D01*
X129536652Y-107646954D01*
X129446954Y-107736652D01*
X129446951Y-107736657D01*
X129446950Y-107736658D01*
X129440165Y-107749974D01*
X129389352Y-107849698D01*
X129389352Y-107849699D01*
X129369508Y-107974996D01*
X129369508Y-107975003D01*
X128033367Y-107975003D01*
X128049161Y-107875281D01*
X128049161Y-107875274D01*
X128029316Y-107749977D01*
X128029316Y-107749976D01*
X128022530Y-107736658D01*
X127971719Y-107636936D01*
X127971715Y-107636932D01*
X127971714Y-107636930D01*
X127882016Y-107547232D01*
X127882012Y-107547229D01*
X127882011Y-107547228D01*
X127857981Y-107534984D01*
X127807186Y-107487010D01*
X127790391Y-107419189D01*
X127812929Y-107353054D01*
X127867644Y-107309603D01*
X127914277Y-107300500D01*
X128410656Y-107300500D01*
X128434846Y-107302882D01*
X128450000Y-107305897D01*
X128477132Y-107300500D01*
X128477133Y-107300500D01*
X128557495Y-107284515D01*
X128609605Y-107249696D01*
X128625622Y-107238994D01*
X128625622Y-107238993D01*
X128639053Y-107230020D01*
X128639056Y-107230016D01*
X128648624Y-107223624D01*
X128657208Y-107210775D01*
X128672624Y-107191990D01*
X128977651Y-106886963D01*
X129038972Y-106853480D01*
X129045892Y-106852179D01*
X129150308Y-106835642D01*
X129263346Y-106778046D01*
X129353054Y-106688338D01*
X129410650Y-106575300D01*
X129410650Y-106575298D01*
X129410651Y-106575297D01*
X129410651Y-106575296D01*
X129430496Y-106449999D01*
X129430496Y-106449992D01*
X129410651Y-106324695D01*
X129410651Y-106324694D01*
X129397850Y-106299571D01*
X129353054Y-106211654D01*
X129353050Y-106211650D01*
X129353049Y-106211648D01*
X129263351Y-106121950D01*
X129263348Y-106121948D01*
X129263346Y-106121946D01*
X129150308Y-106064350D01*
X129150306Y-106064349D01*
X129141613Y-106059920D01*
X129142689Y-106057806D01*
X129096349Y-106026115D01*
X129069155Y-105961754D01*
X129081075Y-105892909D01*
X129104664Y-105859950D01*
X129277647Y-105686967D01*
X129338968Y-105653484D01*
X129345888Y-105652183D01*
X129450304Y-105635646D01*
X129563342Y-105578050D01*
X129653050Y-105488342D01*
X129710646Y-105375304D01*
X129710646Y-105375302D01*
X129710647Y-105375301D01*
X129710647Y-105375300D01*
X129730492Y-105250003D01*
X129730492Y-105249996D01*
X129710647Y-105124699D01*
X129710647Y-105124698D01*
X129672991Y-105050795D01*
X129660095Y-104982126D01*
X129686371Y-104917385D01*
X129743478Y-104877128D01*
X129783476Y-104870500D01*
X129864822Y-104870500D01*
X129908717Y-104861768D01*
X129908717Y-104861767D01*
X129908722Y-104861767D01*
X129958504Y-104828504D01*
X129991767Y-104778722D01*
X130000500Y-104734820D01*
X130000500Y-103205180D01*
X130000500Y-103205177D01*
X129991768Y-103161282D01*
X129991767Y-103161281D01*
X129991767Y-103161278D01*
X129958504Y-103111496D01*
X129958503Y-103111495D01*
X129908724Y-103078234D01*
X129908717Y-103078231D01*
X129864822Y-103069500D01*
X129864820Y-103069500D01*
X128335180Y-103069500D01*
X128335178Y-103069500D01*
X128291282Y-103078231D01*
X128291275Y-103078234D01*
X128241496Y-103111495D01*
X128241495Y-103111496D01*
X128208234Y-103161275D01*
X128208231Y-103161282D01*
X128199500Y-103205177D01*
X128199500Y-103878846D01*
X128179815Y-103945885D01*
X128127011Y-103991640D01*
X128057853Y-104001584D01*
X127994297Y-103972559D01*
X127965016Y-103935142D01*
X127959156Y-103923642D01*
X127953050Y-103911658D01*
X127953047Y-103911655D01*
X127953045Y-103911652D01*
X127863347Y-103821954D01*
X127863344Y-103821952D01*
X127863342Y-103821950D01*
X127750304Y-103764354D01*
X127750303Y-103764353D01*
X127750300Y-103764352D01*
X127625003Y-103744508D01*
X127624997Y-103744508D01*
X127499699Y-103764352D01*
X127499698Y-103764352D01*
X127452607Y-103788347D01*
X127386658Y-103821950D01*
X127386657Y-103821951D01*
X127386652Y-103821954D01*
X127296954Y-103911652D01*
X127296950Y-103911657D01*
X127274629Y-103955464D01*
X127226653Y-104006259D01*
X127158832Y-104023053D01*
X127092697Y-104000514D01*
X127076464Y-103986848D01*
X125836819Y-102747203D01*
X125803334Y-102685880D01*
X125800500Y-102659522D01*
X125800500Y-102535177D01*
X125791768Y-102491282D01*
X125791767Y-102491281D01*
X125791767Y-102491278D01*
X125758504Y-102441496D01*
X125754689Y-102437681D01*
X125721204Y-102376358D01*
X125726188Y-102306666D01*
X125754689Y-102262319D01*
X125758500Y-102258506D01*
X125758504Y-102258504D01*
X125791767Y-102208722D01*
X125791768Y-102208716D01*
X125796442Y-102197436D01*
X125797889Y-102198035D01*
X125818008Y-102159564D01*
X125816837Y-102158782D01*
X125823624Y-102148624D01*
X125832208Y-102135775D01*
X125847624Y-102116990D01*
X126591989Y-101372625D01*
X126610774Y-101357209D01*
X126623624Y-101348624D01*
X126684515Y-101257495D01*
X126700500Y-101177133D01*
X126700500Y-101177132D01*
X126705897Y-101150000D01*
X126702883Y-101134847D01*
X126700500Y-101110655D01*
X126700500Y-100517254D01*
X126720185Y-100450215D01*
X126736821Y-100429571D01*
X126753046Y-100413346D01*
X126753050Y-100413342D01*
X126810646Y-100300304D01*
X126810646Y-100300302D01*
X126810647Y-100300301D01*
X126810647Y-100300300D01*
X126830492Y-100175003D01*
X126830492Y-100174996D01*
X126810647Y-100049699D01*
X126810647Y-100049698D01*
X126800395Y-100029578D01*
X126753050Y-99936658D01*
X126753046Y-99936654D01*
X126753045Y-99936652D01*
X126666574Y-99850181D01*
X126633089Y-99788858D01*
X126638073Y-99719166D01*
X126666574Y-99674819D01*
X126678045Y-99663347D01*
X126678050Y-99663342D01*
X126735646Y-99550304D01*
X126735646Y-99550302D01*
X126735647Y-99550301D01*
X126735647Y-99550300D01*
X126755492Y-99425003D01*
X126755492Y-99424996D01*
X126735647Y-99299699D01*
X126735647Y-99299698D01*
X126731357Y-99291278D01*
X126678050Y-99186658D01*
X126678046Y-99186654D01*
X126678045Y-99186652D01*
X126588347Y-99096954D01*
X126588344Y-99096952D01*
X126588342Y-99096950D01*
X126475304Y-99039354D01*
X126475303Y-99039353D01*
X126475300Y-99039352D01*
X126350003Y-99019508D01*
X126349997Y-99019508D01*
X126224699Y-99039352D01*
X126224698Y-99039352D01*
X126149337Y-99077751D01*
X126111658Y-99096950D01*
X126111657Y-99096951D01*
X126111652Y-99096954D01*
X126021954Y-99186652D01*
X126021949Y-99186659D01*
X125988166Y-99252961D01*
X125940191Y-99303757D01*
X125872370Y-99320551D01*
X125806235Y-99298013D01*
X125774580Y-99265556D01*
X125770655Y-99259682D01*
X125758504Y-99241496D01*
X125758502Y-99241495D01*
X125758502Y-99241494D01*
X125754689Y-99237681D01*
X125721204Y-99176358D01*
X125726188Y-99106666D01*
X125754689Y-99062319D01*
X125758500Y-99058506D01*
X125758504Y-99058504D01*
X125791767Y-99008722D01*
X125798535Y-98974698D01*
X125800500Y-98964822D01*
X125800500Y-98535177D01*
X125791768Y-98491282D01*
X125791767Y-98491281D01*
X125791767Y-98491278D01*
X125758504Y-98441496D01*
X125754689Y-98437681D01*
X125721204Y-98376358D01*
X125726188Y-98306666D01*
X125754689Y-98262319D01*
X125758500Y-98258506D01*
X125758504Y-98258504D01*
X125791767Y-98208722D01*
X125793523Y-98199894D01*
X125800500Y-98164822D01*
X125800500Y-97735177D01*
X125791768Y-97691282D01*
X125791767Y-97691281D01*
X125791767Y-97691278D01*
X125758504Y-97641496D01*
X125754689Y-97637681D01*
X125721204Y-97576358D01*
X125726188Y-97506666D01*
X125754689Y-97462319D01*
X125758500Y-97458506D01*
X125758504Y-97458504D01*
X125791767Y-97408722D01*
X125799069Y-97372016D01*
X125800500Y-97364822D01*
X125800500Y-96935177D01*
X125791768Y-96891282D01*
X125791767Y-96891281D01*
X125791767Y-96891278D01*
X125758504Y-96841496D01*
X125758503Y-96841495D01*
X125708724Y-96808234D01*
X125708717Y-96808231D01*
X125664822Y-96799500D01*
X125664820Y-96799500D01*
X124938600Y-96799500D01*
X124871561Y-96779815D01*
X124825806Y-96727011D01*
X124815862Y-96657853D01*
X124840016Y-96600285D01*
X124844545Y-96594348D01*
X124841188Y-96578222D01*
X124843171Y-96563980D01*
X124855897Y-96500002D01*
X124855897Y-96499999D01*
X124852882Y-96484840D01*
X124850500Y-96460652D01*
X124850500Y-96040478D01*
X124870185Y-95973439D01*
X124886819Y-95952797D01*
X124902797Y-95936819D01*
X124964120Y-95903334D01*
X124990478Y-95900500D01*
X125664822Y-95900500D01*
X125708717Y-95891768D01*
X125708717Y-95891767D01*
X125708722Y-95891767D01*
X125758504Y-95858504D01*
X125791767Y-95808722D01*
X125800500Y-95764820D01*
X125800500Y-95748147D01*
X125820185Y-95681108D01*
X125872989Y-95635353D01*
X125942147Y-95625409D01*
X126005703Y-95654434D01*
X126022872Y-95672657D01*
X126042630Y-95698406D01*
X126054155Y-95713426D01*
X126057360Y-95717602D01*
X126172356Y-95805842D01*
X126172357Y-95805842D01*
X126172358Y-95805843D01*
X126216994Y-95824331D01*
X126306272Y-95861311D01*
X126433261Y-95878029D01*
X126449980Y-95880231D01*
X126449981Y-95880231D01*
X126449982Y-95880231D01*
X126464958Y-95878259D01*
X126593690Y-95861311D01*
X126727606Y-95805842D01*
X126842602Y-95717602D01*
X126842603Y-95717599D01*
X126849049Y-95712654D01*
X126850995Y-95715190D01*
X126899142Y-95688900D01*
X126968834Y-95693884D01*
X127024767Y-95735756D01*
X127049184Y-95801220D01*
X127049500Y-95810066D01*
X127049500Y-96408724D01*
X127047973Y-96428123D01*
X127044508Y-96449999D01*
X127044508Y-96450000D01*
X127048736Y-96476693D01*
X127048739Y-96476722D01*
X127064352Y-96575301D01*
X127080756Y-96607494D01*
X127121950Y-96688342D01*
X127121952Y-96688344D01*
X127121954Y-96688347D01*
X127211652Y-96778045D01*
X127211654Y-96778046D01*
X127211658Y-96778050D01*
X127324696Y-96835646D01*
X127324697Y-96835646D01*
X127324699Y-96835647D01*
X127449997Y-96855492D01*
X127450000Y-96855492D01*
X127471879Y-96852026D01*
X127491275Y-96850500D01*
X127675500Y-96850500D01*
X127742539Y-96870185D01*
X127788294Y-96922989D01*
X127799500Y-96974500D01*
X127799500Y-97254820D01*
X127799500Y-97254822D01*
X127799499Y-97254822D01*
X127808232Y-97298720D01*
X127809817Y-97302547D01*
X127817286Y-97372016D01*
X127809817Y-97397453D01*
X127808232Y-97401279D01*
X127799500Y-97445177D01*
X127799500Y-97732981D01*
X127779815Y-97800020D01*
X127727011Y-97845775D01*
X127699694Y-97854598D01*
X127678746Y-97858765D01*
X127652260Y-97864034D01*
X127652259Y-97864034D01*
X127623602Y-97883183D01*
X127623601Y-97883183D01*
X127569399Y-97919398D01*
X127563075Y-97928863D01*
X127528867Y-97963072D01*
X127509245Y-97976184D01*
X127507393Y-97973412D01*
X127463659Y-97997284D01*
X127393968Y-97992288D01*
X127338042Y-97950407D01*
X127326840Y-97932413D01*
X127278050Y-97836658D01*
X127278047Y-97836655D01*
X127278045Y-97836652D01*
X127188347Y-97746954D01*
X127188344Y-97746952D01*
X127188342Y-97746950D01*
X127075304Y-97689354D01*
X127075303Y-97689353D01*
X127075300Y-97689352D01*
X126950003Y-97669508D01*
X126949997Y-97669508D01*
X126824699Y-97689352D01*
X126824698Y-97689352D01*
X126767439Y-97718528D01*
X126711658Y-97746950D01*
X126711657Y-97746951D01*
X126711652Y-97746954D01*
X126621954Y-97836652D01*
X126621951Y-97836657D01*
X126621950Y-97836658D01*
X126617908Y-97844591D01*
X126564352Y-97949698D01*
X126564352Y-97949699D01*
X126544508Y-98074996D01*
X126544508Y-98075003D01*
X126564352Y-98200300D01*
X126564352Y-98200301D01*
X126568643Y-98208722D01*
X126621950Y-98313342D01*
X126621952Y-98313344D01*
X126621954Y-98313347D01*
X126711652Y-98403045D01*
X126711654Y-98403046D01*
X126711658Y-98403050D01*
X126824696Y-98460646D01*
X126824697Y-98460646D01*
X126824699Y-98460647D01*
X126833981Y-98463663D01*
X126833182Y-98466120D01*
X126883228Y-98489835D01*
X126920168Y-98549140D01*
X126923184Y-98601787D01*
X126919508Y-98624999D01*
X126919508Y-98625003D01*
X126939352Y-98750300D01*
X126939352Y-98750301D01*
X126945139Y-98761658D01*
X126996950Y-98863342D01*
X126996952Y-98863344D01*
X126996954Y-98863347D01*
X127086652Y-98953045D01*
X127086654Y-98953046D01*
X127086658Y-98953050D01*
X127199696Y-99010646D01*
X127199697Y-99010646D01*
X127199699Y-99010647D01*
X127324997Y-99030492D01*
X127334759Y-99030492D01*
X127334759Y-99033361D01*
X127388688Y-99040318D01*
X127442151Y-99085302D01*
X127460436Y-99129656D01*
X127464032Y-99147737D01*
X127464033Y-99147739D01*
X127464034Y-99147741D01*
X127479618Y-99171063D01*
X127504454Y-99208233D01*
X127519399Y-99230601D01*
X127528863Y-99236925D01*
X127563073Y-99271134D01*
X127569397Y-99280599D01*
X127569398Y-99280599D01*
X127569399Y-99280601D01*
X127590316Y-99294577D01*
X127590317Y-99294578D01*
X127652260Y-99335966D01*
X127699693Y-99345401D01*
X127761603Y-99377787D01*
X127796177Y-99438503D01*
X127799500Y-99467018D01*
X127799500Y-99754820D01*
X127799500Y-99754822D01*
X127799499Y-99754822D01*
X127808232Y-99798720D01*
X127809817Y-99802547D01*
X127817286Y-99872016D01*
X127809817Y-99897453D01*
X127808232Y-99901279D01*
X127799500Y-99945177D01*
X127799500Y-99945180D01*
X127799500Y-100254820D01*
X127799500Y-100254822D01*
X127799499Y-100254822D01*
X127808232Y-100298720D01*
X127809817Y-100302547D01*
X127817286Y-100372016D01*
X127809817Y-100397453D01*
X127808232Y-100401279D01*
X127799500Y-100445177D01*
X127799500Y-100445180D01*
X127799500Y-100754820D01*
X127799500Y-100754822D01*
X127799499Y-100754822D01*
X127808232Y-100798720D01*
X127809817Y-100802547D01*
X127817286Y-100872016D01*
X127809817Y-100897453D01*
X127808232Y-100901279D01*
X127799500Y-100945177D01*
X127799500Y-100945180D01*
X127799500Y-101554820D01*
X127799500Y-101554822D01*
X127799499Y-101554822D01*
X127808231Y-101598717D01*
X127808232Y-101598721D01*
X127808233Y-101598722D01*
X127841496Y-101648504D01*
X127891278Y-101681767D01*
X127891281Y-101681767D01*
X127891282Y-101681768D01*
X127935177Y-101690500D01*
X127935180Y-101690500D01*
X128904272Y-101690500D01*
X128971311Y-101710185D01*
X129017066Y-101762989D01*
X129027211Y-101798314D01*
X129039313Y-101890235D01*
X129039313Y-101890236D01*
X129093872Y-102021954D01*
X129097302Y-102030233D01*
X129189549Y-102150451D01*
X129309767Y-102242698D01*
X129449764Y-102300687D01*
X129562280Y-102315500D01*
X129562287Y-102315500D01*
X129637713Y-102315500D01*
X129637720Y-102315500D01*
X129750236Y-102300687D01*
X129890233Y-102242698D01*
X130010451Y-102150451D01*
X130102698Y-102030233D01*
X130160687Y-101890236D01*
X130180466Y-101740000D01*
X130179831Y-101735180D01*
X130161969Y-101599500D01*
X130160687Y-101589764D01*
X130102698Y-101449767D01*
X130010451Y-101329549D01*
X130010449Y-101329547D01*
X130010448Y-101329546D01*
X129952675Y-101285215D01*
X129911472Y-101228787D01*
X129907318Y-101159041D01*
X129940479Y-101099161D01*
X130510409Y-100529231D01*
X130545526Y-100510056D01*
X132149500Y-100510056D01*
X132163735Y-100567809D01*
X132190210Y-100675226D01*
X132269263Y-100825849D01*
X132298026Y-100858316D01*
X132382071Y-100953183D01*
X132454033Y-101002855D01*
X132522068Y-101049817D01*
X132522069Y-101049817D01*
X132522070Y-101049818D01*
X132590348Y-101075712D01*
X132639537Y-101094367D01*
X132681128Y-101110140D01*
X132757028Y-101119356D01*
X132807626Y-101125500D01*
X132807628Y-101125500D01*
X132892374Y-101125500D01*
X132934538Y-101120380D01*
X133018872Y-101110140D01*
X133177930Y-101049818D01*
X133317929Y-100953183D01*
X133430734Y-100825852D01*
X133439982Y-100808233D01*
X133492853Y-100707495D01*
X133509790Y-100675225D01*
X133550500Y-100510056D01*
X133550500Y-100339944D01*
X133509790Y-100174775D01*
X133483666Y-100125000D01*
X133430736Y-100024150D01*
X133387459Y-99975301D01*
X133317929Y-99896817D01*
X133250108Y-99850003D01*
X133177931Y-99800182D01*
X133018874Y-99739860D01*
X133018868Y-99739859D01*
X132892374Y-99724500D01*
X132892372Y-99724500D01*
X132807628Y-99724500D01*
X132807626Y-99724500D01*
X132681131Y-99739859D01*
X132681125Y-99739860D01*
X132522068Y-99800182D01*
X132382072Y-99896816D01*
X132269263Y-100024150D01*
X132190210Y-100174773D01*
X132164032Y-100280984D01*
X132149500Y-100339944D01*
X132149500Y-100510056D01*
X130545526Y-100510056D01*
X130571730Y-100495748D01*
X130614274Y-100493975D01*
X130700012Y-100505263D01*
X130700013Y-100505263D01*
X130700014Y-100505263D01*
X130714990Y-100503291D01*
X130843722Y-100486343D01*
X130977638Y-100430874D01*
X131092634Y-100342634D01*
X131180874Y-100227638D01*
X131236343Y-100093722D01*
X131255263Y-99950013D01*
X131236343Y-99806304D01*
X131180874Y-99672388D01*
X131092634Y-99557392D01*
X130977638Y-99469152D01*
X130977637Y-99469151D01*
X130977635Y-99469150D01*
X130843725Y-99413684D01*
X130843723Y-99413683D01*
X130843722Y-99413683D01*
X130771867Y-99404223D01*
X130700014Y-99394763D01*
X130700012Y-99394763D01*
X130556304Y-99413683D01*
X130556300Y-99413684D01*
X130422390Y-99469150D01*
X130307392Y-99557392D01*
X130219150Y-99672390D01*
X130163684Y-99806300D01*
X130163683Y-99806304D01*
X130143702Y-99958071D01*
X130140372Y-99957632D01*
X130125078Y-100009718D01*
X130072274Y-100055473D01*
X130003116Y-100065417D01*
X129939560Y-100036392D01*
X129910278Y-99998974D01*
X129903412Y-99985499D01*
X129853050Y-99886658D01*
X129853049Y-99886657D01*
X129853045Y-99886652D01*
X129763347Y-99796954D01*
X129763343Y-99796951D01*
X129763342Y-99796950D01*
X129720259Y-99774998D01*
X129658974Y-99743771D01*
X129608179Y-99695797D01*
X129591384Y-99627976D01*
X129593653Y-99609095D01*
X129602857Y-99562827D01*
X129635241Y-99500919D01*
X129668173Y-99476540D01*
X129763342Y-99428050D01*
X129853050Y-99338342D01*
X129910646Y-99225304D01*
X129910646Y-99225302D01*
X129910647Y-99225301D01*
X129910647Y-99225300D01*
X129930492Y-99100003D01*
X129930492Y-99099996D01*
X129910647Y-98974699D01*
X129910647Y-98974698D01*
X129905614Y-98964820D01*
X129885325Y-98925000D01*
X131044750Y-98925000D01*
X131062326Y-99058504D01*
X131063670Y-99068708D01*
X131063671Y-99068712D01*
X131119137Y-99202622D01*
X131119138Y-99202624D01*
X131119139Y-99202625D01*
X131207379Y-99317621D01*
X131322375Y-99405861D01*
X131322376Y-99405861D01*
X131322377Y-99405862D01*
X131352488Y-99418334D01*
X131456291Y-99461330D01*
X131583280Y-99478048D01*
X131599999Y-99480250D01*
X131600000Y-99480250D01*
X131600001Y-99480250D01*
X131614977Y-99478278D01*
X131743709Y-99461330D01*
X131877625Y-99405861D01*
X131992621Y-99317621D01*
X132080861Y-99202625D01*
X132136330Y-99068709D01*
X132155250Y-98925000D01*
X132136330Y-98781291D01*
X132088711Y-98666326D01*
X132080862Y-98647377D01*
X132080861Y-98647376D01*
X132080861Y-98647375D01*
X131992621Y-98532379D01*
X131877625Y-98444139D01*
X131877624Y-98444138D01*
X131877622Y-98444137D01*
X131743712Y-98388671D01*
X131743710Y-98388670D01*
X131743709Y-98388670D01*
X131650192Y-98376358D01*
X131600001Y-98369750D01*
X131599999Y-98369750D01*
X131456291Y-98388670D01*
X131456287Y-98388671D01*
X131322377Y-98444137D01*
X131207379Y-98532379D01*
X131119137Y-98647377D01*
X131063671Y-98781287D01*
X131063670Y-98781291D01*
X131051373Y-98874698D01*
X131044750Y-98925000D01*
X129885325Y-98925000D01*
X129853050Y-98861658D01*
X129853046Y-98861654D01*
X129853045Y-98861652D01*
X129763347Y-98771954D01*
X129763344Y-98771952D01*
X129763342Y-98771950D01*
X129668176Y-98723460D01*
X129617382Y-98675487D01*
X129602857Y-98637172D01*
X129585966Y-98552260D01*
X129544578Y-98490317D01*
X129544577Y-98490316D01*
X129530601Y-98469399D01*
X129527330Y-98467213D01*
X129521134Y-98463073D01*
X129486925Y-98428863D01*
X129480601Y-98419399D01*
X129406295Y-98369750D01*
X129406292Y-98369747D01*
X129397741Y-98364033D01*
X129350308Y-98354598D01*
X129288397Y-98322213D01*
X129253823Y-98261497D01*
X129250500Y-98232981D01*
X129250500Y-98120663D01*
X129270185Y-98053624D01*
X129322989Y-98007869D01*
X129392147Y-97997925D01*
X129393843Y-97998181D01*
X129426779Y-98003398D01*
X129439999Y-98005492D01*
X129440000Y-98005492D01*
X129440003Y-98005492D01*
X129565300Y-97985647D01*
X129565301Y-97985647D01*
X129565302Y-97985646D01*
X129565304Y-97985646D01*
X129678342Y-97928050D01*
X129768050Y-97838342D01*
X129825646Y-97725304D01*
X129825646Y-97725302D01*
X129825647Y-97725301D01*
X129825647Y-97725300D01*
X129845492Y-97600003D01*
X129845492Y-97599996D01*
X129831247Y-97510056D01*
X132149500Y-97510056D01*
X132151837Y-97519536D01*
X132190210Y-97675226D01*
X132269263Y-97825849D01*
X132285867Y-97844591D01*
X132382071Y-97953183D01*
X132457853Y-98005492D01*
X132522068Y-98049817D01*
X132522069Y-98049817D01*
X132522070Y-98049818D01*
X132681128Y-98110140D01*
X132757028Y-98119356D01*
X132807626Y-98125500D01*
X132807628Y-98125500D01*
X132892374Y-98125500D01*
X132934538Y-98120380D01*
X133018872Y-98110140D01*
X133177930Y-98049818D01*
X133317929Y-97953183D01*
X133430734Y-97825852D01*
X133441558Y-97805230D01*
X133483508Y-97725300D01*
X133509790Y-97675225D01*
X133550500Y-97510056D01*
X133550500Y-97339944D01*
X133509790Y-97174775D01*
X133495662Y-97147857D01*
X133430736Y-97024150D01*
X133386750Y-96974500D01*
X133317929Y-96896817D01*
X133250828Y-96850500D01*
X133177931Y-96800182D01*
X133018874Y-96739860D01*
X133018868Y-96739859D01*
X132892374Y-96724500D01*
X132892372Y-96724500D01*
X132807628Y-96724500D01*
X132807626Y-96724500D01*
X132681131Y-96739859D01*
X132681125Y-96739860D01*
X132522068Y-96800182D01*
X132382072Y-96896816D01*
X132269263Y-97024150D01*
X132190210Y-97174773D01*
X132166258Y-97271954D01*
X132149500Y-97339944D01*
X132149500Y-97510056D01*
X129831247Y-97510056D01*
X129825647Y-97474699D01*
X129825647Y-97474698D01*
X129820740Y-97465068D01*
X129768050Y-97361658D01*
X129768046Y-97361654D01*
X129768045Y-97361652D01*
X129678347Y-97271954D01*
X129678344Y-97271952D01*
X129678342Y-97271950D01*
X129565304Y-97214354D01*
X129565303Y-97214353D01*
X129565300Y-97214352D01*
X129440003Y-97194508D01*
X129440001Y-97194508D01*
X129440000Y-97194508D01*
X129393897Y-97201810D01*
X129324603Y-97192854D01*
X129271152Y-97147857D01*
X129250513Y-97081106D01*
X129250500Y-97079336D01*
X129250500Y-96945177D01*
X129241768Y-96901282D01*
X129241767Y-96901281D01*
X129241767Y-96901278D01*
X129241765Y-96901275D01*
X129240185Y-96897460D01*
X129232712Y-96827991D01*
X129240185Y-96802540D01*
X129241764Y-96798726D01*
X129241767Y-96798722D01*
X129245879Y-96778050D01*
X129250500Y-96754822D01*
X129250500Y-96623728D01*
X129270185Y-96556689D01*
X129322989Y-96510934D01*
X129392147Y-96500990D01*
X129421951Y-96509166D01*
X129449764Y-96520687D01*
X129562280Y-96535500D01*
X129562287Y-96535500D01*
X129637713Y-96535500D01*
X129637720Y-96535500D01*
X129750236Y-96520687D01*
X129890233Y-96462698D01*
X130010451Y-96370451D01*
X130102698Y-96250233D01*
X130160687Y-96110236D01*
X130180466Y-95960000D01*
X130179109Y-95949696D01*
X130169964Y-95880231D01*
X130160687Y-95809764D01*
X130102698Y-95669767D01*
X130010451Y-95549549D01*
X129890233Y-95457302D01*
X129890229Y-95457300D01*
X129826801Y-95431027D01*
X129750236Y-95399313D01*
X129736171Y-95397461D01*
X129637727Y-95384500D01*
X129637720Y-95384500D01*
X129562280Y-95384500D01*
X129562272Y-95384500D01*
X129449764Y-95399313D01*
X129449763Y-95399313D01*
X129309770Y-95457300D01*
X129309767Y-95457301D01*
X129309767Y-95457302D01*
X129189549Y-95549549D01*
X129098819Y-95667791D01*
X129097300Y-95669770D01*
X129039313Y-95809763D01*
X129039313Y-95809764D01*
X129027211Y-95901686D01*
X128998944Y-95965582D01*
X128940620Y-96004053D01*
X128904272Y-96009500D01*
X127974500Y-96009500D01*
X127907461Y-95989815D01*
X127861706Y-95937011D01*
X127850500Y-95885500D01*
X127850500Y-95375003D01*
X132494508Y-95375003D01*
X132514352Y-95500300D01*
X132514352Y-95500301D01*
X132518996Y-95509415D01*
X132571950Y-95613342D01*
X132571952Y-95613344D01*
X132571954Y-95613347D01*
X132661652Y-95703045D01*
X132661654Y-95703046D01*
X132661658Y-95703050D01*
X132774696Y-95760646D01*
X132774697Y-95760646D01*
X132774699Y-95760647D01*
X132899997Y-95780492D01*
X132900000Y-95780492D01*
X132900003Y-95780492D01*
X133025300Y-95760647D01*
X133025301Y-95760647D01*
X133025302Y-95760646D01*
X133025304Y-95760646D01*
X133138342Y-95703050D01*
X133228050Y-95613342D01*
X133285646Y-95500304D01*
X133285646Y-95500302D01*
X133285647Y-95500301D01*
X133285647Y-95500300D01*
X133305492Y-95375003D01*
X133305492Y-95374996D01*
X133285647Y-95249699D01*
X133285647Y-95249698D01*
X133273064Y-95225003D01*
X133228050Y-95136658D01*
X133228046Y-95136654D01*
X133228045Y-95136652D01*
X133138347Y-95046954D01*
X133138344Y-95046952D01*
X133138342Y-95046950D01*
X133025304Y-94989354D01*
X133025303Y-94989353D01*
X133025300Y-94989352D01*
X132900003Y-94969508D01*
X132899997Y-94969508D01*
X132774699Y-94989352D01*
X132774698Y-94989352D01*
X132699337Y-95027751D01*
X132661658Y-95046950D01*
X132661657Y-95046951D01*
X132661652Y-95046954D01*
X132571954Y-95136652D01*
X132571951Y-95136657D01*
X132514352Y-95249698D01*
X132514352Y-95249699D01*
X132494508Y-95374996D01*
X132494508Y-95375003D01*
X127850500Y-95375003D01*
X127850500Y-94715233D01*
X127859939Y-94667781D01*
X127881379Y-94616016D01*
X127911330Y-94543709D01*
X127917766Y-94494822D01*
X128199499Y-94494822D01*
X128208231Y-94538717D01*
X128208234Y-94538724D01*
X128232673Y-94575300D01*
X128241496Y-94588504D01*
X128291278Y-94621767D01*
X128291281Y-94621767D01*
X128291282Y-94621768D01*
X128335177Y-94630500D01*
X128335180Y-94630500D01*
X129864822Y-94630500D01*
X129908717Y-94621768D01*
X129908717Y-94621767D01*
X129908722Y-94621767D01*
X129958504Y-94588504D01*
X129984700Y-94549299D01*
X130293192Y-94549299D01*
X130311006Y-94684611D01*
X130312112Y-94693007D01*
X130312113Y-94693011D01*
X130367579Y-94826921D01*
X130367580Y-94826923D01*
X130367581Y-94826924D01*
X130455821Y-94941920D01*
X130570817Y-95030160D01*
X130704733Y-95085629D01*
X130831722Y-95102347D01*
X130848441Y-95104549D01*
X130848442Y-95104549D01*
X130848443Y-95104549D01*
X130863419Y-95102577D01*
X130992151Y-95085629D01*
X131126067Y-95030160D01*
X131241063Y-94941920D01*
X131329303Y-94826924D01*
X131384772Y-94693008D01*
X131403692Y-94549299D01*
X131402956Y-94543712D01*
X131396520Y-94494822D01*
X131384772Y-94405590D01*
X131329303Y-94271674D01*
X131241063Y-94156678D01*
X131126067Y-94068438D01*
X131126066Y-94068437D01*
X131126064Y-94068436D01*
X130992154Y-94012970D01*
X130992152Y-94012969D01*
X130992151Y-94012969D01*
X130920296Y-94003509D01*
X130848443Y-93994049D01*
X130848441Y-93994049D01*
X130704733Y-94012969D01*
X130704729Y-94012970D01*
X130570819Y-94068436D01*
X130455821Y-94156678D01*
X130367579Y-94271676D01*
X130312113Y-94405586D01*
X130312112Y-94405590D01*
X130293928Y-94543712D01*
X130293192Y-94549299D01*
X129984700Y-94549299D01*
X129991767Y-94538722D01*
X130000500Y-94494820D01*
X130000500Y-92965180D01*
X130000500Y-92965177D01*
X129991768Y-92921282D01*
X129991767Y-92921281D01*
X129991767Y-92921278D01*
X129958504Y-92871496D01*
X129958503Y-92871495D01*
X129908724Y-92838234D01*
X129908717Y-92838231D01*
X129864822Y-92829500D01*
X129864820Y-92829500D01*
X128335180Y-92829500D01*
X128335178Y-92829500D01*
X128291282Y-92838231D01*
X128291275Y-92838234D01*
X128241496Y-92871495D01*
X128241495Y-92871496D01*
X128208234Y-92921275D01*
X128208231Y-92921282D01*
X128199500Y-92965177D01*
X128199500Y-92965180D01*
X128199500Y-94494820D01*
X128199500Y-94494822D01*
X128199499Y-94494822D01*
X127917766Y-94494822D01*
X127930250Y-94400000D01*
X127911330Y-94256291D01*
X127870826Y-94158504D01*
X127855862Y-94122377D01*
X127855861Y-94122376D01*
X127855861Y-94122375D01*
X127767621Y-94007379D01*
X127652625Y-93919139D01*
X127652624Y-93919138D01*
X127652622Y-93919137D01*
X127518712Y-93863671D01*
X127518710Y-93863670D01*
X127518709Y-93863670D01*
X127446854Y-93854210D01*
X127375001Y-93844750D01*
X127374999Y-93844750D01*
X127231291Y-93863670D01*
X127231287Y-93863671D01*
X127097377Y-93919137D01*
X126982379Y-94007379D01*
X126894137Y-94122377D01*
X126838671Y-94256287D01*
X126838670Y-94256291D01*
X126819750Y-94400000D01*
X126838013Y-94538722D01*
X126838670Y-94543708D01*
X126838671Y-94543712D01*
X126897249Y-94685134D01*
X126894018Y-94686472D01*
X126906675Y-94738802D01*
X126883777Y-94804813D01*
X126828826Y-94847965D01*
X126759268Y-94854558D01*
X126735720Y-94845768D01*
X126735115Y-94847230D01*
X126593693Y-94788652D01*
X126593691Y-94788651D01*
X126593690Y-94788651D01*
X126513169Y-94778050D01*
X126449982Y-94769731D01*
X126449980Y-94769731D01*
X126306272Y-94788651D01*
X126306268Y-94788652D01*
X126172358Y-94844118D01*
X126114858Y-94888240D01*
X126057360Y-94932360D01*
X126057359Y-94932361D01*
X126057358Y-94932362D01*
X126022875Y-94977301D01*
X125966447Y-95018504D01*
X125896701Y-95022658D01*
X125835781Y-94988445D01*
X125803029Y-94926727D01*
X125800500Y-94901814D01*
X125800500Y-94535177D01*
X125791768Y-94491282D01*
X125791767Y-94491281D01*
X125791767Y-94491278D01*
X125758504Y-94441496D01*
X125758503Y-94441495D01*
X125708724Y-94408234D01*
X125708717Y-94408231D01*
X125664822Y-94399500D01*
X125664820Y-94399500D01*
X124835180Y-94399500D01*
X124835178Y-94399500D01*
X124791282Y-94408231D01*
X124791275Y-94408234D01*
X124741496Y-94441495D01*
X124741495Y-94441496D01*
X124708234Y-94491275D01*
X124708231Y-94491282D01*
X124699500Y-94535177D01*
X124699500Y-94535180D01*
X124699500Y-94964820D01*
X124699500Y-94964822D01*
X124699499Y-94964822D01*
X124708231Y-95008717D01*
X124708234Y-95008724D01*
X124741495Y-95058503D01*
X124745311Y-95062319D01*
X124778796Y-95123642D01*
X124773812Y-95193334D01*
X124745311Y-95237681D01*
X124741495Y-95241496D01*
X124708234Y-95291275D01*
X124708231Y-95291281D01*
X124700455Y-95330375D01*
X124668069Y-95392286D01*
X124666519Y-95393863D01*
X124408010Y-95652372D01*
X124389222Y-95667791D01*
X124376376Y-95676374D01*
X124361005Y-95699377D01*
X124361006Y-95699378D01*
X124351622Y-95713423D01*
X124351620Y-95713426D01*
X124315484Y-95767506D01*
X124315483Y-95767507D01*
X124307128Y-95809516D01*
X124294103Y-95874997D01*
X124294103Y-95874999D01*
X124297117Y-95890151D01*
X124299500Y-95914344D01*
X124299500Y-96327941D01*
X124279815Y-96394980D01*
X124258722Y-96416457D01*
X124260008Y-96417743D01*
X124251374Y-96426376D01*
X124236005Y-96449378D01*
X124236004Y-96449380D01*
X124218524Y-96475539D01*
X124190483Y-96517506D01*
X124190483Y-96517507D01*
X124174498Y-96597869D01*
X124169101Y-96625002D01*
X124171939Y-96639271D01*
X124172115Y-96640153D01*
X124174498Y-96664346D01*
X124174498Y-96857745D01*
X124154813Y-96924784D01*
X124138179Y-96945426D01*
X124121952Y-96961652D01*
X124121949Y-96961657D01*
X124064350Y-97074698D01*
X124064350Y-97074699D01*
X124044506Y-97199996D01*
X124044506Y-97199998D01*
X124049170Y-97229450D01*
X124040213Y-97298744D01*
X123995216Y-97352195D01*
X123946099Y-97371319D01*
X123940339Y-97372231D01*
X123890839Y-97397453D01*
X123827300Y-97429828D01*
X123827299Y-97429829D01*
X123827294Y-97429832D01*
X123737596Y-97519530D01*
X123737593Y-97519535D01*
X123679994Y-97632576D01*
X123679994Y-97632577D01*
X123663464Y-97736947D01*
X123633535Y-97800082D01*
X123628672Y-97805230D01*
X123258010Y-98175892D01*
X123239222Y-98191311D01*
X123226376Y-98199894D01*
X123211005Y-98222897D01*
X123211006Y-98222898D01*
X123200011Y-98239354D01*
X123165485Y-98291025D01*
X123157613Y-98330601D01*
X123157613Y-98330602D01*
X123148689Y-98375467D01*
X123144103Y-98398520D01*
X123146948Y-98412825D01*
X123147117Y-98413671D01*
X123149500Y-98437864D01*
X123149500Y-100560655D01*
X123147117Y-100584847D01*
X123144103Y-100599999D01*
X123144103Y-100600002D01*
X123148310Y-100621152D01*
X123148311Y-100621159D01*
X123165483Y-100707490D01*
X123165484Y-100707493D01*
X123165485Y-100707495D01*
X123189940Y-100744094D01*
X123226373Y-100798621D01*
X123226376Y-100798624D01*
X123239221Y-100807206D01*
X123258011Y-100822627D01*
X123653094Y-101217710D01*
X123686579Y-101279033D01*
X123681595Y-101348725D01*
X123639723Y-101404658D01*
X123621709Y-101415875D01*
X123511659Y-101471949D01*
X123511652Y-101471954D01*
X123421954Y-101561652D01*
X123421951Y-101561657D01*
X123364352Y-101674698D01*
X123364352Y-101674699D01*
X123344508Y-101799996D01*
X123344508Y-101800003D01*
X123364352Y-101925300D01*
X123364352Y-101925301D01*
X123364354Y-101925304D01*
X123421950Y-102038342D01*
X123421952Y-102038344D01*
X123421954Y-102038347D01*
X123511652Y-102128045D01*
X123511654Y-102128046D01*
X123511658Y-102128050D01*
X123624696Y-102185646D01*
X123624697Y-102185646D01*
X123624699Y-102185647D01*
X123749997Y-102205492D01*
X123750000Y-102205492D01*
X123750003Y-102205492D01*
X123875300Y-102185647D01*
X123875301Y-102185646D01*
X123875304Y-102185646D01*
X123919206Y-102163276D01*
X123987873Y-102150380D01*
X124052613Y-102176655D01*
X124092871Y-102233761D01*
X124099500Y-102273761D01*
X124099500Y-102835655D01*
X124097117Y-102859847D01*
X124094103Y-102874999D01*
X124094103Y-102875002D01*
X124098310Y-102896152D01*
X124098311Y-102896159D01*
X124115483Y-102982490D01*
X124115484Y-102982493D01*
X124115485Y-102982495D01*
X124139940Y-103019094D01*
X124176373Y-103073621D01*
X124176376Y-103073624D01*
X124189221Y-103082206D01*
X124208011Y-103097627D01*
X124663181Y-103552797D01*
X124696666Y-103614120D01*
X124699500Y-103640478D01*
X124699500Y-103764820D01*
X124699500Y-103764822D01*
X124699499Y-103764822D01*
X124708231Y-103808717D01*
X124708234Y-103808724D01*
X124741495Y-103858503D01*
X124745311Y-103862319D01*
X124778796Y-103923642D01*
X124773812Y-103993334D01*
X124745311Y-104037681D01*
X124741495Y-104041496D01*
X124708234Y-104091275D01*
X124708231Y-104091282D01*
X124699500Y-104135177D01*
X124699500Y-104135180D01*
X124699500Y-104564820D01*
X124699500Y-104564822D01*
X124699499Y-104564822D01*
X124708231Y-104608717D01*
X124708232Y-104608721D01*
X124708233Y-104608722D01*
X124741496Y-104658504D01*
X124791278Y-104691767D01*
X124791281Y-104691767D01*
X124791282Y-104691768D01*
X124835177Y-104700500D01*
X124835180Y-104700500D01*
X125664822Y-104700500D01*
X125708717Y-104691768D01*
X125708717Y-104691767D01*
X125708722Y-104691767D01*
X125758504Y-104658504D01*
X125791767Y-104608722D01*
X125796351Y-104585679D01*
X125800500Y-104564822D01*
X125800500Y-104135177D01*
X125791768Y-104091282D01*
X125791767Y-104091281D01*
X125791767Y-104091278D01*
X125758504Y-104041496D01*
X125754689Y-104037681D01*
X125721204Y-103976358D01*
X125726188Y-103906666D01*
X125754689Y-103862319D01*
X125758500Y-103858506D01*
X125758504Y-103858504D01*
X125791767Y-103808722D01*
X125800500Y-103764820D01*
X125800818Y-103763222D01*
X125833202Y-103701311D01*
X125893918Y-103666737D01*
X125963687Y-103670476D01*
X126010116Y-103699732D01*
X126727026Y-104416642D01*
X126742447Y-104435432D01*
X126801373Y-104523621D01*
X126801376Y-104523624D01*
X126814221Y-104532206D01*
X126833011Y-104547627D01*
X128152369Y-105866985D01*
X128167790Y-105885775D01*
X128176373Y-105898621D01*
X128176374Y-105898621D01*
X128176376Y-105898624D01*
X128194313Y-105910609D01*
X128194337Y-105910627D01*
X128267504Y-105959515D01*
X128267506Y-105959516D01*
X128375000Y-105980897D01*
X128385546Y-105978799D01*
X128390160Y-105977882D01*
X128414348Y-105975500D01*
X128633745Y-105975500D01*
X128700784Y-105995185D01*
X128746539Y-106047989D01*
X128756483Y-106117147D01*
X128727458Y-106180703D01*
X128721426Y-106187181D01*
X128696958Y-106211648D01*
X128696955Y-106211653D01*
X128639356Y-106324694D01*
X128639356Y-106324695D01*
X128622826Y-106429065D01*
X128592897Y-106492200D01*
X128588035Y-106497348D01*
X128372201Y-106713182D01*
X128310881Y-106746666D01*
X128284522Y-106749500D01*
X128006594Y-106749500D01*
X127939555Y-106729815D01*
X127918913Y-106713181D01*
X127888743Y-106683011D01*
X127873321Y-106664219D01*
X127864740Y-106651376D01*
X127864737Y-106651373D01*
X127846804Y-106639391D01*
X127846803Y-106639391D01*
X127841739Y-106636007D01*
X127841738Y-106636006D01*
X127815581Y-106618528D01*
X127773611Y-106590485D01*
X127773610Y-106590484D01*
X127773609Y-106590484D01*
X127687281Y-106573312D01*
X127687268Y-106573310D01*
X127666118Y-106569103D01*
X127666117Y-106569103D01*
X127666116Y-106569103D01*
X127650962Y-106572117D01*
X127626772Y-106574500D01*
X125829343Y-106574500D01*
X125805155Y-106572118D01*
X125790001Y-106569104D01*
X125789999Y-106569104D01*
X125768846Y-106573311D01*
X125768819Y-106573315D01*
X125682507Y-106590483D01*
X125682506Y-106590484D01*
X125682505Y-106590485D01*
X125614378Y-106636006D01*
X125614376Y-106636007D01*
X125609312Y-106639391D01*
X125591374Y-106651377D01*
X125582791Y-106664222D01*
X125567372Y-106683010D01*
X125067201Y-107183181D01*
X125005878Y-107216666D01*
X124979521Y-107219500D01*
X124772384Y-107219500D01*
X124772361Y-107219502D01*
X124748504Y-107222269D01*
X124748501Y-107222269D01*
X124650864Y-107265380D01*
X124650856Y-107265386D01*
X124575386Y-107340856D01*
X124575381Y-107340863D01*
X124532270Y-107438499D01*
X124529500Y-107462375D01*
X124529500Y-107917628D01*
X124529543Y-107918357D01*
X124529500Y-107918538D01*
X124529501Y-107921202D01*
X124528883Y-107921202D01*
X124513753Y-107986419D01*
X124463672Y-108035140D01*
X124405749Y-108049500D01*
X123772089Y-108049500D01*
X123705050Y-108029815D01*
X123659295Y-107977011D01*
X123649351Y-107907853D01*
X123678376Y-107844297D01*
X123715794Y-107815016D01*
X123788338Y-107778052D01*
X123788337Y-107778052D01*
X123788342Y-107778050D01*
X123878050Y-107688342D01*
X123935646Y-107575304D01*
X123935646Y-107575302D01*
X123935647Y-107575301D01*
X123935647Y-107575300D01*
X123955492Y-107450003D01*
X123955492Y-107449996D01*
X123935647Y-107324699D01*
X123935647Y-107324698D01*
X123935646Y-107324696D01*
X123878050Y-107211658D01*
X123878046Y-107211654D01*
X123878045Y-107211652D01*
X123836819Y-107170426D01*
X123803334Y-107109103D01*
X123800500Y-107082745D01*
X123800500Y-106063539D01*
X123820185Y-105996500D01*
X123855611Y-105960436D01*
X123858504Y-105958504D01*
X123858507Y-105958500D01*
X123862319Y-105954689D01*
X123923642Y-105921204D01*
X123993334Y-105926188D01*
X124037681Y-105954689D01*
X124041495Y-105958503D01*
X124041496Y-105958504D01*
X124091278Y-105991767D01*
X124091281Y-105991767D01*
X124091282Y-105991768D01*
X124135177Y-106000500D01*
X124135180Y-106000500D01*
X124564822Y-106000500D01*
X124608717Y-105991768D01*
X124608717Y-105991767D01*
X124608722Y-105991767D01*
X124658504Y-105958504D01*
X124691767Y-105908722D01*
X124698351Y-105875623D01*
X124700500Y-105864822D01*
X124700500Y-105575003D01*
X126044508Y-105575003D01*
X126064352Y-105700300D01*
X126064352Y-105700301D01*
X126064354Y-105700304D01*
X126121950Y-105813342D01*
X126121952Y-105813344D01*
X126121954Y-105813347D01*
X126211652Y-105903045D01*
X126211654Y-105903046D01*
X126211658Y-105903050D01*
X126324696Y-105960646D01*
X126324697Y-105960646D01*
X126324699Y-105960647D01*
X126449997Y-105980492D01*
X126450000Y-105980492D01*
X126450003Y-105980492D01*
X126575300Y-105960647D01*
X126575301Y-105960647D01*
X126575302Y-105960646D01*
X126575304Y-105960646D01*
X126688342Y-105903050D01*
X126778050Y-105813342D01*
X126835646Y-105700304D01*
X126835646Y-105700302D01*
X126835647Y-105700301D01*
X126835647Y-105700300D01*
X126855492Y-105575003D01*
X126855492Y-105574996D01*
X126835647Y-105449699D01*
X126835647Y-105449698D01*
X126835646Y-105449696D01*
X126778050Y-105336658D01*
X126778046Y-105336654D01*
X126778045Y-105336652D01*
X126688347Y-105246954D01*
X126688344Y-105246952D01*
X126688342Y-105246950D01*
X126575304Y-105189354D01*
X126575303Y-105189353D01*
X126575300Y-105189352D01*
X126450003Y-105169508D01*
X126449997Y-105169508D01*
X126324699Y-105189352D01*
X126324698Y-105189352D01*
X126249337Y-105227751D01*
X126211658Y-105246950D01*
X126211657Y-105246951D01*
X126211652Y-105246954D01*
X126121954Y-105336652D01*
X126121951Y-105336657D01*
X126064352Y-105449698D01*
X126064352Y-105449699D01*
X126044508Y-105574996D01*
X126044508Y-105575003D01*
X124700500Y-105575003D01*
X124700500Y-105035177D01*
X124691768Y-104991282D01*
X124691767Y-104991281D01*
X124691767Y-104991278D01*
X124658504Y-104941496D01*
X124658503Y-104941495D01*
X124608724Y-104908234D01*
X124608717Y-104908231D01*
X124564822Y-104899500D01*
X124564820Y-104899500D01*
X124135180Y-104899500D01*
X124135178Y-104899500D01*
X124091282Y-104908231D01*
X124091275Y-104908234D01*
X124041496Y-104941495D01*
X124037681Y-104945311D01*
X123976358Y-104978796D01*
X123906666Y-104973812D01*
X123862319Y-104945311D01*
X123858503Y-104941495D01*
X123808724Y-104908234D01*
X123808717Y-104908231D01*
X123764822Y-104899500D01*
X123764820Y-104899500D01*
X123335180Y-104899500D01*
X123335178Y-104899500D01*
X123291282Y-104908231D01*
X123291275Y-104908234D01*
X123241496Y-104941495D01*
X123237681Y-104945311D01*
X123176358Y-104978796D01*
X123106666Y-104973812D01*
X123062319Y-104945311D01*
X123058503Y-104941495D01*
X123008724Y-104908234D01*
X123008717Y-104908231D01*
X122964822Y-104899500D01*
X122964820Y-104899500D01*
X122535180Y-104899500D01*
X122535178Y-104899500D01*
X122491282Y-104908231D01*
X122491275Y-104908234D01*
X122441496Y-104941495D01*
X122437681Y-104945311D01*
X122376358Y-104978796D01*
X122306666Y-104973812D01*
X122262319Y-104945311D01*
X122258503Y-104941495D01*
X122208724Y-104908234D01*
X122208717Y-104908231D01*
X122164822Y-104899500D01*
X122164820Y-104899500D01*
X121735180Y-104899500D01*
X121735178Y-104899500D01*
X121691282Y-104908231D01*
X121691275Y-104908234D01*
X121641496Y-104941495D01*
X121637681Y-104945311D01*
X121576358Y-104978796D01*
X121506666Y-104973812D01*
X121462319Y-104945311D01*
X121458503Y-104941495D01*
X121408724Y-104908234D01*
X121408717Y-104908231D01*
X121364822Y-104899500D01*
X121364820Y-104899500D01*
X120935180Y-104899500D01*
X120935178Y-104899500D01*
X120891282Y-104908231D01*
X120891275Y-104908234D01*
X120841496Y-104941495D01*
X120837681Y-104945311D01*
X120776358Y-104978796D01*
X120706666Y-104973812D01*
X120662319Y-104945311D01*
X120658503Y-104941495D01*
X120608724Y-104908234D01*
X120608717Y-104908231D01*
X120564822Y-104899500D01*
X120564820Y-104899500D01*
X120135180Y-104899500D01*
X120135178Y-104899500D01*
X120091282Y-104908231D01*
X120091275Y-104908234D01*
X120041496Y-104941495D01*
X120037681Y-104945311D01*
X119976358Y-104978796D01*
X119906666Y-104973812D01*
X119862319Y-104945311D01*
X119858503Y-104941495D01*
X119808724Y-104908234D01*
X119808717Y-104908231D01*
X119764822Y-104899500D01*
X119764820Y-104899500D01*
X119335180Y-104899500D01*
X119335178Y-104899500D01*
X119291282Y-104908231D01*
X119291275Y-104908234D01*
X119241496Y-104941495D01*
X119237681Y-104945311D01*
X119176358Y-104978796D01*
X119106666Y-104973812D01*
X119062319Y-104945311D01*
X119058503Y-104941495D01*
X119008724Y-104908234D01*
X119008717Y-104908231D01*
X118964822Y-104899500D01*
X118964820Y-104899500D01*
X118535180Y-104899500D01*
X118535178Y-104899500D01*
X118491282Y-104908231D01*
X118491275Y-104908234D01*
X118441496Y-104941495D01*
X118437681Y-104945311D01*
X118376358Y-104978796D01*
X118306666Y-104973812D01*
X118262319Y-104945311D01*
X118258503Y-104941495D01*
X118208724Y-104908234D01*
X118208717Y-104908231D01*
X118164822Y-104899500D01*
X118164820Y-104899500D01*
X117735180Y-104899500D01*
X117735178Y-104899500D01*
X117691282Y-104908231D01*
X117691275Y-104908234D01*
X117641496Y-104941495D01*
X117637681Y-104945311D01*
X117576358Y-104978796D01*
X117506666Y-104973812D01*
X117462319Y-104945311D01*
X117458503Y-104941495D01*
X117408724Y-104908234D01*
X117408717Y-104908231D01*
X117364822Y-104899500D01*
X117364820Y-104899500D01*
X116935180Y-104899500D01*
X116935178Y-104899500D01*
X116891282Y-104908231D01*
X116891275Y-104908234D01*
X116841496Y-104941495D01*
X116837681Y-104945311D01*
X116776358Y-104978796D01*
X116706666Y-104973812D01*
X116662319Y-104945311D01*
X116658503Y-104941495D01*
X116608724Y-104908234D01*
X116608717Y-104908231D01*
X116564822Y-104899500D01*
X116564820Y-104899500D01*
X116135180Y-104899500D01*
X116135178Y-104899500D01*
X116091282Y-104908231D01*
X116091275Y-104908234D01*
X116041496Y-104941495D01*
X116041495Y-104941496D01*
X116008234Y-104991275D01*
X116008231Y-104991282D01*
X115999500Y-105035177D01*
X115999500Y-105035180D01*
X115999500Y-105864820D01*
X115999500Y-105864822D01*
X115999499Y-105864822D01*
X114604104Y-105864822D01*
X114604104Y-103550003D01*
X115844508Y-103550003D01*
X115864352Y-103675300D01*
X115864352Y-103675301D01*
X115864354Y-103675304D01*
X115921950Y-103788342D01*
X115921952Y-103788344D01*
X115921954Y-103788347D01*
X116011652Y-103878045D01*
X116011654Y-103878046D01*
X116011658Y-103878050D01*
X116124696Y-103935646D01*
X116124697Y-103935646D01*
X116124699Y-103935647D01*
X116249997Y-103955492D01*
X116250000Y-103955492D01*
X116250003Y-103955492D01*
X116375300Y-103935647D01*
X116375301Y-103935647D01*
X116375302Y-103935646D01*
X116375304Y-103935646D01*
X116488342Y-103878050D01*
X116578050Y-103788342D01*
X116635646Y-103675304D01*
X116635646Y-103675302D01*
X116635647Y-103675301D01*
X116635647Y-103675300D01*
X116655492Y-103550003D01*
X116655492Y-103549996D01*
X116635695Y-103425003D01*
X120694508Y-103425003D01*
X120714352Y-103550300D01*
X120714352Y-103550301D01*
X120714354Y-103550304D01*
X120771950Y-103663342D01*
X120771952Y-103663344D01*
X120771954Y-103663347D01*
X120861652Y-103753045D01*
X120861654Y-103753046D01*
X120861658Y-103753050D01*
X120974696Y-103810646D01*
X120974697Y-103810646D01*
X120974699Y-103810647D01*
X121099997Y-103830492D01*
X121100000Y-103830492D01*
X121100003Y-103830492D01*
X121225300Y-103810647D01*
X121225301Y-103810647D01*
X121225302Y-103810646D01*
X121225304Y-103810646D01*
X121338342Y-103753050D01*
X121428050Y-103663342D01*
X121485646Y-103550304D01*
X121485646Y-103550302D01*
X121485647Y-103550301D01*
X121485647Y-103550300D01*
X121505492Y-103425003D01*
X121505492Y-103424996D01*
X121485647Y-103299699D01*
X121485647Y-103299698D01*
X121477859Y-103284414D01*
X121428050Y-103186658D01*
X121428046Y-103186654D01*
X121428045Y-103186652D01*
X121338347Y-103096954D01*
X121338344Y-103096952D01*
X121338342Y-103096950D01*
X121225304Y-103039354D01*
X121225303Y-103039353D01*
X121225300Y-103039352D01*
X121100003Y-103019508D01*
X121099997Y-103019508D01*
X120974699Y-103039352D01*
X120974698Y-103039352D01*
X120899337Y-103077751D01*
X120861658Y-103096950D01*
X120861657Y-103096951D01*
X120861652Y-103096954D01*
X120771954Y-103186652D01*
X120771951Y-103186657D01*
X120714352Y-103299698D01*
X120714352Y-103299699D01*
X120694508Y-103424996D01*
X120694508Y-103425003D01*
X116635695Y-103425003D01*
X116635647Y-103424699D01*
X116635647Y-103424698D01*
X116635646Y-103424696D01*
X116578050Y-103311658D01*
X116578046Y-103311654D01*
X116578045Y-103311652D01*
X116488347Y-103221954D01*
X116488344Y-103221952D01*
X116488342Y-103221950D01*
X116375304Y-103164354D01*
X116375303Y-103164353D01*
X116375300Y-103164352D01*
X116250003Y-103144508D01*
X116249997Y-103144508D01*
X116124699Y-103164352D01*
X116124698Y-103164352D01*
X116055718Y-103199500D01*
X116011658Y-103221950D01*
X116011657Y-103221951D01*
X116011652Y-103221954D01*
X115921954Y-103311652D01*
X115921951Y-103311657D01*
X115864352Y-103424698D01*
X115864352Y-103424699D01*
X115844508Y-103549996D01*
X115844508Y-103550003D01*
X114604104Y-103550003D01*
X114604104Y-102350003D01*
X116794508Y-102350003D01*
X116814352Y-102475300D01*
X116814352Y-102475301D01*
X116822493Y-102491278D01*
X116871950Y-102588342D01*
X116871952Y-102588344D01*
X116871954Y-102588347D01*
X116961652Y-102678045D01*
X116961654Y-102678046D01*
X116961658Y-102678050D01*
X117074696Y-102735646D01*
X117074697Y-102735646D01*
X117074699Y-102735647D01*
X117199997Y-102755492D01*
X117200000Y-102755492D01*
X117200003Y-102755492D01*
X117325300Y-102735647D01*
X117325301Y-102735647D01*
X117325302Y-102735646D01*
X117325304Y-102735646D01*
X117438342Y-102678050D01*
X117528050Y-102588342D01*
X117585646Y-102475304D01*
X117585646Y-102475302D01*
X117585647Y-102475301D01*
X117585647Y-102475300D01*
X117605492Y-102350003D01*
X117605492Y-102349996D01*
X117585647Y-102224699D01*
X117585647Y-102224698D01*
X117565749Y-102185647D01*
X117528050Y-102111658D01*
X117528046Y-102111654D01*
X117528045Y-102111652D01*
X117438347Y-102021954D01*
X117438344Y-102021952D01*
X117438342Y-102021950D01*
X117325304Y-101964354D01*
X117325303Y-101964353D01*
X117325300Y-101964352D01*
X117200003Y-101944508D01*
X117199997Y-101944508D01*
X117074699Y-101964352D01*
X117074698Y-101964352D01*
X116999337Y-102002751D01*
X116961658Y-102021950D01*
X116961657Y-102021951D01*
X116961652Y-102021954D01*
X116871954Y-102111652D01*
X116871951Y-102111657D01*
X116871950Y-102111658D01*
X116863599Y-102128048D01*
X116814352Y-102224698D01*
X116814352Y-102224699D01*
X116794508Y-102349996D01*
X116794508Y-102350003D01*
X114604104Y-102350003D01*
X114604104Y-100625003D01*
X115844508Y-100625003D01*
X115864352Y-100750300D01*
X115864352Y-100750301D01*
X115864354Y-100750304D01*
X115921950Y-100863342D01*
X115921952Y-100863344D01*
X115921954Y-100863347D01*
X116011652Y-100953045D01*
X116011654Y-100953046D01*
X116011658Y-100953050D01*
X116124696Y-101010646D01*
X116124697Y-101010646D01*
X116124699Y-101010647D01*
X116249997Y-101030492D01*
X116250000Y-101030492D01*
X116250002Y-101030492D01*
X116305127Y-101021761D01*
X116374420Y-101030716D01*
X116427872Y-101075712D01*
X116446998Y-101124834D01*
X116450006Y-101143824D01*
X116450006Y-101143825D01*
X116450007Y-101143827D01*
X116507603Y-101256865D01*
X116507605Y-101256867D01*
X116507607Y-101256870D01*
X116597305Y-101346568D01*
X116597307Y-101346569D01*
X116597311Y-101346573D01*
X116710349Y-101404169D01*
X116710350Y-101404169D01*
X116710352Y-101404170D01*
X116835650Y-101424015D01*
X116835653Y-101424015D01*
X116835656Y-101424015D01*
X116960953Y-101404170D01*
X116960954Y-101404170D01*
X116960955Y-101404169D01*
X116960957Y-101404169D01*
X117073995Y-101346573D01*
X117163703Y-101256865D01*
X117221299Y-101143827D01*
X117221299Y-101143825D01*
X117221300Y-101143824D01*
X117221300Y-101143823D01*
X117241145Y-101018526D01*
X117241145Y-101018519D01*
X117221300Y-100893222D01*
X117221300Y-100893221D01*
X117206078Y-100863347D01*
X117163703Y-100780181D01*
X117163699Y-100780177D01*
X117163698Y-100780175D01*
X117074000Y-100690477D01*
X117073997Y-100690475D01*
X117073995Y-100690473D01*
X116960957Y-100632877D01*
X116960956Y-100632876D01*
X116960953Y-100632875D01*
X116835656Y-100613031D01*
X116835654Y-100613031D01*
X116835653Y-100613031D01*
X116824778Y-100614753D01*
X116780523Y-100621762D01*
X116711230Y-100612806D01*
X116657778Y-100567809D01*
X116638653Y-100518684D01*
X116635646Y-100499696D01*
X116578050Y-100386658D01*
X116578046Y-100386654D01*
X116578045Y-100386652D01*
X116488347Y-100296954D01*
X116488344Y-100296952D01*
X116488342Y-100296950D01*
X116375304Y-100239354D01*
X116375303Y-100239353D01*
X116375300Y-100239352D01*
X116250003Y-100219508D01*
X116249997Y-100219508D01*
X116124699Y-100239352D01*
X116124698Y-100239352D01*
X116053499Y-100275631D01*
X116011658Y-100296950D01*
X116011657Y-100296951D01*
X116011652Y-100296954D01*
X115921954Y-100386652D01*
X115921951Y-100386657D01*
X115864352Y-100499698D01*
X115864352Y-100499699D01*
X115844508Y-100624996D01*
X115844508Y-100625003D01*
X114604104Y-100625003D01*
X114604104Y-99850003D01*
X116705018Y-99850003D01*
X116724862Y-99975300D01*
X116724862Y-99975301D01*
X116737292Y-99999696D01*
X116782460Y-100088342D01*
X116782462Y-100088344D01*
X116782464Y-100088347D01*
X116872162Y-100178045D01*
X116872164Y-100178046D01*
X116872168Y-100178050D01*
X116985206Y-100235646D01*
X116985207Y-100235646D01*
X116985209Y-100235647D01*
X117110507Y-100255492D01*
X117110510Y-100255492D01*
X117110513Y-100255492D01*
X117235810Y-100235647D01*
X117235811Y-100235647D01*
X117235812Y-100235646D01*
X117235814Y-100235646D01*
X117348852Y-100178050D01*
X117438560Y-100088342D01*
X117496156Y-99975304D01*
X117496156Y-99975302D01*
X117496157Y-99975301D01*
X117496157Y-99975300D01*
X117516002Y-99850003D01*
X117516002Y-99849996D01*
X117496157Y-99724699D01*
X117496157Y-99724698D01*
X117470742Y-99674819D01*
X117438560Y-99611658D01*
X117438556Y-99611654D01*
X117438555Y-99611652D01*
X117348857Y-99521954D01*
X117348854Y-99521952D01*
X117348852Y-99521950D01*
X117235814Y-99464354D01*
X117235813Y-99464353D01*
X117235810Y-99464352D01*
X117110513Y-99444508D01*
X117110507Y-99444508D01*
X116985209Y-99464352D01*
X116985208Y-99464352D01*
X116927937Y-99493534D01*
X116872168Y-99521950D01*
X116872167Y-99521951D01*
X116872162Y-99521954D01*
X116782464Y-99611652D01*
X116782461Y-99611657D01*
X116782460Y-99611658D01*
X116774449Y-99627381D01*
X116724862Y-99724698D01*
X116724862Y-99724699D01*
X116705018Y-99849996D01*
X116705018Y-99850003D01*
X114604104Y-99850003D01*
X114604104Y-95850003D01*
X118069508Y-95850003D01*
X118089352Y-95975300D01*
X118089352Y-95975301D01*
X118104002Y-96004053D01*
X118146950Y-96088342D01*
X118146952Y-96088344D01*
X118146954Y-96088347D01*
X118236652Y-96178045D01*
X118236654Y-96178046D01*
X118236658Y-96178050D01*
X118349696Y-96235646D01*
X118349697Y-96235646D01*
X118349699Y-96235647D01*
X118474997Y-96255492D01*
X118475000Y-96255492D01*
X118475003Y-96255492D01*
X118600300Y-96235647D01*
X118600301Y-96235647D01*
X118600302Y-96235646D01*
X118600304Y-96235646D01*
X118713342Y-96178050D01*
X118803050Y-96088342D01*
X118860646Y-95975304D01*
X118860646Y-95975302D01*
X118860647Y-95975301D01*
X118860647Y-95975300D01*
X118880492Y-95850003D01*
X118880492Y-95849996D01*
X118860647Y-95724699D01*
X118860647Y-95724698D01*
X118855802Y-95715190D01*
X118803050Y-95611658D01*
X118803046Y-95611654D01*
X118803045Y-95611652D01*
X118713347Y-95521954D01*
X118713344Y-95521952D01*
X118713342Y-95521950D01*
X118600304Y-95464354D01*
X118600303Y-95464353D01*
X118600300Y-95464352D01*
X118475003Y-95444508D01*
X118474997Y-95444508D01*
X118349699Y-95464352D01*
X118349698Y-95464352D01*
X118279148Y-95500300D01*
X118236658Y-95521950D01*
X118236657Y-95521951D01*
X118236652Y-95521954D01*
X118146954Y-95611652D01*
X118146951Y-95611657D01*
X118146950Y-95611658D01*
X118137354Y-95630492D01*
X118089352Y-95724698D01*
X118089352Y-95724699D01*
X118069508Y-95849996D01*
X118069508Y-95850003D01*
X114604104Y-95850003D01*
X114604104Y-93681524D01*
X117549500Y-93681524D01*
X117564352Y-93775301D01*
X117585985Y-93817756D01*
X117599500Y-93874051D01*
X117599500Y-94064820D01*
X117599500Y-94064822D01*
X117599499Y-94064822D01*
X117608231Y-94108717D01*
X117608234Y-94108724D01*
X117617357Y-94122377D01*
X117641496Y-94158504D01*
X117691278Y-94191767D01*
X117691281Y-94191767D01*
X117691282Y-94191768D01*
X117735177Y-94200500D01*
X117735180Y-94200500D01*
X118164822Y-94200500D01*
X118208717Y-94191768D01*
X118208717Y-94191767D01*
X118208722Y-94191767D01*
X118258504Y-94158504D01*
X118258506Y-94158500D01*
X118262319Y-94154689D01*
X118323642Y-94121204D01*
X118393334Y-94126188D01*
X118437681Y-94154689D01*
X118441495Y-94158503D01*
X118441496Y-94158504D01*
X118491278Y-94191767D01*
X118491281Y-94191767D01*
X118491282Y-94191768D01*
X118535177Y-94200500D01*
X118535180Y-94200500D01*
X118964822Y-94200500D01*
X119008717Y-94191768D01*
X119008717Y-94191767D01*
X119008722Y-94191767D01*
X119058504Y-94158504D01*
X119058510Y-94158494D01*
X119062314Y-94154692D01*
X119123636Y-94121205D01*
X119193328Y-94126186D01*
X119237593Y-94154601D01*
X119238094Y-94155101D01*
X119271640Y-94216391D01*
X119274500Y-94242870D01*
X119274500Y-94935655D01*
X119272117Y-94959847D01*
X119269103Y-94974999D01*
X119269103Y-94975002D01*
X119273310Y-94996152D01*
X119273311Y-94996159D01*
X119290483Y-95082490D01*
X119290484Y-95082493D01*
X119290485Y-95082495D01*
X119302516Y-95100500D01*
X119351373Y-95173621D01*
X119351376Y-95173624D01*
X119364221Y-95182206D01*
X119383011Y-95197627D01*
X119577369Y-95391985D01*
X119592790Y-95410775D01*
X119601373Y-95423621D01*
X119601374Y-95423621D01*
X119601376Y-95423624D01*
X119624376Y-95438992D01*
X119624378Y-95438994D01*
X119649535Y-95455803D01*
X119694340Y-95509415D01*
X119703048Y-95578740D01*
X119672894Y-95641768D01*
X119613452Y-95678487D01*
X119600043Y-95681379D01*
X119549699Y-95689352D01*
X119549698Y-95689352D01*
X119502452Y-95713426D01*
X119436658Y-95746950D01*
X119436657Y-95746951D01*
X119436652Y-95746954D01*
X119346954Y-95836652D01*
X119346951Y-95836657D01*
X119346950Y-95836658D01*
X119335819Y-95858504D01*
X119289352Y-95949698D01*
X119289352Y-95949699D01*
X119269508Y-96074996D01*
X119269508Y-96075003D01*
X119289352Y-96200300D01*
X119289352Y-96200301D01*
X119289354Y-96200304D01*
X119346950Y-96313342D01*
X119346952Y-96313344D01*
X119346954Y-96313347D01*
X119436652Y-96403045D01*
X119436654Y-96403046D01*
X119436658Y-96403050D01*
X119549696Y-96460646D01*
X119549697Y-96460646D01*
X119549699Y-96460647D01*
X119674997Y-96480492D01*
X119675000Y-96480492D01*
X119675003Y-96480492D01*
X119800300Y-96460647D01*
X119800301Y-96460647D01*
X119800302Y-96460646D01*
X119800304Y-96460646D01*
X119913342Y-96403050D01*
X120003050Y-96313342D01*
X120060646Y-96200304D01*
X120060646Y-96200302D01*
X120060647Y-96200301D01*
X120060647Y-96200300D01*
X120080492Y-96075003D01*
X120080492Y-96074996D01*
X120060647Y-95949699D01*
X120060647Y-95949698D01*
X120060646Y-95949696D01*
X120003050Y-95836658D01*
X120003046Y-95836654D01*
X120003045Y-95836652D01*
X119913347Y-95746954D01*
X119913343Y-95746951D01*
X119913342Y-95746950D01*
X119889856Y-95734983D01*
X119839062Y-95687011D01*
X119822267Y-95619190D01*
X119844804Y-95553055D01*
X119899519Y-95509603D01*
X119946153Y-95500500D01*
X120382745Y-95500500D01*
X120449784Y-95520185D01*
X120470426Y-95536819D01*
X120486652Y-95553045D01*
X120486654Y-95553046D01*
X120486658Y-95553050D01*
X120599696Y-95610646D01*
X120599697Y-95610646D01*
X120599699Y-95610647D01*
X120724997Y-95630492D01*
X120725000Y-95630492D01*
X120725003Y-95630492D01*
X120850300Y-95610647D01*
X120850301Y-95610647D01*
X120850302Y-95610646D01*
X120850304Y-95610646D01*
X120963342Y-95553050D01*
X121053050Y-95463342D01*
X121110646Y-95350304D01*
X121110646Y-95350302D01*
X121110647Y-95350301D01*
X121110647Y-95350300D01*
X121130492Y-95225003D01*
X121130492Y-95224996D01*
X121110647Y-95099699D01*
X121110647Y-95099698D01*
X121103477Y-95085627D01*
X121053050Y-94986658D01*
X121053046Y-94986654D01*
X121053045Y-94986652D01*
X120963347Y-94896954D01*
X120963344Y-94896952D01*
X120963342Y-94896950D01*
X120850304Y-94839354D01*
X120850303Y-94839353D01*
X120850300Y-94839352D01*
X120765151Y-94825866D01*
X120702016Y-94795937D01*
X120665085Y-94736625D01*
X120666083Y-94666762D01*
X120674065Y-94647097D01*
X120686971Y-94621768D01*
X120710646Y-94575304D01*
X120715650Y-94543709D01*
X120730492Y-94450003D01*
X120730492Y-94449997D01*
X120710069Y-94321052D01*
X120719024Y-94251758D01*
X120764020Y-94198306D01*
X120830771Y-94177667D01*
X120879998Y-94187094D01*
X120891275Y-94191765D01*
X120891278Y-94191767D01*
X120891281Y-94191767D01*
X120891282Y-94191768D01*
X120935177Y-94200500D01*
X120935180Y-94200500D01*
X121364822Y-94200500D01*
X121408717Y-94191768D01*
X121408717Y-94191767D01*
X121408722Y-94191767D01*
X121458504Y-94158504D01*
X121458506Y-94158500D01*
X121462319Y-94154689D01*
X121523642Y-94121204D01*
X121593334Y-94126188D01*
X121637681Y-94154689D01*
X121641495Y-94158503D01*
X121641496Y-94158504D01*
X121691278Y-94191767D01*
X121691281Y-94191767D01*
X121691282Y-94191768D01*
X121735177Y-94200500D01*
X121735180Y-94200500D01*
X122164822Y-94200500D01*
X122208717Y-94191768D01*
X122208717Y-94191767D01*
X122208722Y-94191767D01*
X122258504Y-94158504D01*
X122258506Y-94158500D01*
X122262319Y-94154689D01*
X122323642Y-94121204D01*
X122393334Y-94126188D01*
X122437681Y-94154689D01*
X122441495Y-94158503D01*
X122441496Y-94158504D01*
X122491278Y-94191767D01*
X122491281Y-94191767D01*
X122491282Y-94191768D01*
X122535177Y-94200500D01*
X122535180Y-94200500D01*
X122964822Y-94200500D01*
X123008717Y-94191768D01*
X123008717Y-94191767D01*
X123008722Y-94191767D01*
X123058504Y-94158504D01*
X123058506Y-94158500D01*
X123062319Y-94154689D01*
X123123642Y-94121204D01*
X123193334Y-94126188D01*
X123237681Y-94154689D01*
X123241495Y-94158503D01*
X123241496Y-94158504D01*
X123291278Y-94191767D01*
X123291281Y-94191767D01*
X123291282Y-94191768D01*
X123335177Y-94200500D01*
X123335180Y-94200500D01*
X123764822Y-94200500D01*
X123808717Y-94191768D01*
X123808717Y-94191767D01*
X123808722Y-94191767D01*
X123858504Y-94158504D01*
X123891767Y-94108722D01*
X123891768Y-94108717D01*
X123900500Y-94064822D01*
X123900500Y-93274500D01*
X123920185Y-93207461D01*
X123972989Y-93161706D01*
X124024500Y-93150500D01*
X125121617Y-93150500D01*
X125145807Y-93152882D01*
X125160961Y-93155897D01*
X125188093Y-93150500D01*
X125188094Y-93150500D01*
X125219898Y-93144173D01*
X125268453Y-93134516D01*
X125268453Y-93134515D01*
X125268456Y-93134515D01*
X125320859Y-93099500D01*
X125336583Y-93088994D01*
X125336583Y-93088993D01*
X125350011Y-93080022D01*
X125350014Y-93080018D01*
X125359585Y-93073624D01*
X125368172Y-93060772D01*
X125383585Y-93041991D01*
X126450958Y-91974617D01*
X126512279Y-91941134D01*
X126519199Y-91939833D01*
X126623615Y-91923296D01*
X126736653Y-91865700D01*
X126826361Y-91775992D01*
X126883957Y-91662954D01*
X126883957Y-91662952D01*
X126883958Y-91662951D01*
X126883958Y-91662950D01*
X126903803Y-91537653D01*
X126903803Y-91537646D01*
X126883958Y-91412349D01*
X126883958Y-91412348D01*
X126868901Y-91382797D01*
X126826361Y-91299308D01*
X126826357Y-91299304D01*
X126826356Y-91299302D01*
X126736658Y-91209604D01*
X126736655Y-91209602D01*
X126736653Y-91209600D01*
X126623615Y-91152004D01*
X126623614Y-91152003D01*
X126623611Y-91152002D01*
X126498314Y-91132158D01*
X126498308Y-91132158D01*
X126373010Y-91152002D01*
X126373009Y-91152002D01*
X126324825Y-91176554D01*
X126259969Y-91209600D01*
X126259967Y-91209601D01*
X126257252Y-91210985D01*
X126200957Y-91224500D01*
X125269620Y-91224500D01*
X125202581Y-91204815D01*
X125181939Y-91188182D01*
X125150812Y-91157055D01*
X125119141Y-91125384D01*
X125091429Y-91113148D01*
X125069428Y-91103433D01*
X125016053Y-91058346D01*
X124995526Y-90991560D01*
X125014365Y-90924278D01*
X125066589Y-90877862D01*
X125069344Y-90876603D01*
X125119141Y-90854616D01*
X125144518Y-90829238D01*
X125205837Y-90795755D01*
X125275529Y-90800739D01*
X125288492Y-90806436D01*
X125291656Y-90808048D01*
X125291658Y-90808050D01*
X125404696Y-90865646D01*
X125404697Y-90865646D01*
X125404699Y-90865647D01*
X125529997Y-90885492D01*
X125530000Y-90885492D01*
X125530003Y-90885492D01*
X125655300Y-90865647D01*
X125655301Y-90865647D01*
X125655302Y-90865646D01*
X125655304Y-90865646D01*
X125768342Y-90808050D01*
X125858050Y-90718342D01*
X125915646Y-90605304D01*
X125915646Y-90605302D01*
X125915647Y-90605301D01*
X125915647Y-90605300D01*
X125935492Y-90480003D01*
X125935492Y-90479996D01*
X125915647Y-90354699D01*
X125915647Y-90354698D01*
X125901343Y-90326625D01*
X125858050Y-90241658D01*
X125858046Y-90241654D01*
X125858045Y-90241652D01*
X125768347Y-90151954D01*
X125768344Y-90151952D01*
X125768342Y-90151950D01*
X125655304Y-90094354D01*
X125655303Y-90094353D01*
X125655300Y-90094352D01*
X125530003Y-90074508D01*
X125529997Y-90074508D01*
X125404699Y-90094352D01*
X125404698Y-90094352D01*
X125288492Y-90153563D01*
X125219822Y-90166459D01*
X125155082Y-90140183D01*
X125144516Y-90130759D01*
X125119143Y-90105386D01*
X125119141Y-90105384D01*
X125119138Y-90105383D01*
X125119136Y-90105381D01*
X125022010Y-90062495D01*
X124968634Y-90017408D01*
X124948107Y-89950622D01*
X124966946Y-89883340D01*
X125019170Y-89836924D01*
X125026359Y-89834553D01*
X125026209Y-89834190D01*
X125037489Y-89829516D01*
X125037495Y-89829515D01*
X125086232Y-89796950D01*
X125105622Y-89783994D01*
X125105622Y-89783993D01*
X125119051Y-89775021D01*
X125119053Y-89775018D01*
X125128624Y-89768624D01*
X125137208Y-89755775D01*
X125152624Y-89736990D01*
X125542647Y-89346967D01*
X125603968Y-89313484D01*
X125610888Y-89312183D01*
X125715304Y-89295646D01*
X125828342Y-89238050D01*
X125918050Y-89148342D01*
X125975646Y-89035304D01*
X125975646Y-89035302D01*
X125975647Y-89035301D01*
X125975647Y-89035300D01*
X125995492Y-88910003D01*
X125995492Y-88909996D01*
X125975647Y-88784699D01*
X125975647Y-88784698D01*
X125961588Y-88757106D01*
X125918050Y-88671658D01*
X125918046Y-88671654D01*
X125918045Y-88671652D01*
X125828347Y-88581954D01*
X125828344Y-88581952D01*
X125828342Y-88581950D01*
X125715304Y-88524354D01*
X125715303Y-88524353D01*
X125715300Y-88524352D01*
X125590003Y-88504508D01*
X125589997Y-88504508D01*
X125464699Y-88524352D01*
X125464698Y-88524352D01*
X125389337Y-88562751D01*
X125351658Y-88581950D01*
X125351657Y-88581951D01*
X125351652Y-88581954D01*
X125261954Y-88671652D01*
X125261951Y-88671657D01*
X125204352Y-88784698D01*
X125204352Y-88784699D01*
X125187822Y-88889069D01*
X125157893Y-88952204D01*
X125153030Y-88957352D01*
X124986511Y-89123871D01*
X124925188Y-89157356D01*
X124855496Y-89152372D01*
X124848743Y-89149624D01*
X124839131Y-89145380D01*
X124790419Y-89123871D01*
X124741499Y-89102270D01*
X124741501Y-89102270D01*
X124717623Y-89099500D01*
X124362384Y-89099500D01*
X124362361Y-89099502D01*
X124338504Y-89102269D01*
X124338501Y-89102269D01*
X124240864Y-89145380D01*
X124240856Y-89145386D01*
X124165386Y-89220856D01*
X124165380Y-89220866D01*
X124143432Y-89270571D01*
X124098345Y-89323947D01*
X124031559Y-89344473D01*
X123964277Y-89325634D01*
X123917862Y-89273409D01*
X123916590Y-89270624D01*
X123894616Y-89220859D01*
X123831818Y-89158061D01*
X123798334Y-89096737D01*
X123795500Y-89070380D01*
X123795500Y-87205477D01*
X123815185Y-87138438D01*
X123831815Y-87117800D01*
X124102647Y-86846967D01*
X124163968Y-86813484D01*
X124170888Y-86812183D01*
X124275304Y-86795646D01*
X124388342Y-86738050D01*
X124478050Y-86648342D01*
X124535646Y-86535304D01*
X124535646Y-86535302D01*
X124535647Y-86535301D01*
X124535647Y-86535300D01*
X124555492Y-86410003D01*
X124555492Y-86409996D01*
X124535647Y-86284699D01*
X124535647Y-86284698D01*
X124518889Y-86251809D01*
X124478050Y-86171658D01*
X124478046Y-86171654D01*
X124478045Y-86171652D01*
X124388347Y-86081954D01*
X124388344Y-86081952D01*
X124388342Y-86081950D01*
X124275304Y-86024354D01*
X124275303Y-86024353D01*
X124275300Y-86024352D01*
X124150003Y-86004508D01*
X124149997Y-86004508D01*
X124024699Y-86024352D01*
X124024698Y-86024352D01*
X123949337Y-86062751D01*
X123911658Y-86081950D01*
X123911657Y-86081951D01*
X123911652Y-86081954D01*
X123821954Y-86171652D01*
X123821951Y-86171657D01*
X123764352Y-86284698D01*
X123764352Y-86284699D01*
X123747822Y-86389069D01*
X123717893Y-86452204D01*
X123713030Y-86457352D01*
X123353010Y-86817372D01*
X123334222Y-86832791D01*
X123321380Y-86841371D01*
X123321375Y-86841376D01*
X123260484Y-86932506D01*
X123258703Y-86938375D01*
X123258102Y-86944486D01*
X123239103Y-87039999D01*
X123242117Y-87055151D01*
X123244500Y-87079344D01*
X123244500Y-88355522D01*
X123224815Y-88422561D01*
X123172011Y-88468316D01*
X123102853Y-88478260D01*
X123039297Y-88449235D01*
X123032819Y-88443203D01*
X122961969Y-88372353D01*
X122928484Y-88311030D01*
X122927181Y-88304099D01*
X122910646Y-88199696D01*
X122853050Y-88086658D01*
X122853046Y-88086654D01*
X122853045Y-88086652D01*
X122763347Y-87996954D01*
X122763344Y-87996952D01*
X122763342Y-87996950D01*
X122650304Y-87939354D01*
X122650303Y-87939353D01*
X122650300Y-87939352D01*
X122525003Y-87919508D01*
X122524997Y-87919508D01*
X122399699Y-87939352D01*
X122399698Y-87939352D01*
X122324337Y-87977751D01*
X122286658Y-87996950D01*
X122286657Y-87996951D01*
X122286652Y-87996954D01*
X122196954Y-88086652D01*
X122196951Y-88086657D01*
X122139352Y-88199698D01*
X122139352Y-88199699D01*
X122119508Y-88324996D01*
X122119508Y-88325003D01*
X122139352Y-88450300D01*
X122139352Y-88450301D01*
X122153598Y-88478260D01*
X122196950Y-88563342D01*
X122196952Y-88563344D01*
X122196954Y-88563347D01*
X122286652Y-88653045D01*
X122286654Y-88653046D01*
X122286658Y-88653050D01*
X122399696Y-88710646D01*
X122504071Y-88727177D01*
X122567204Y-88757106D01*
X122572353Y-88761969D01*
X122598181Y-88787797D01*
X122631666Y-88849120D01*
X122634500Y-88875478D01*
X122634500Y-88970883D01*
X122614815Y-89037922D01*
X122562011Y-89083677D01*
X122492853Y-89093621D01*
X122472802Y-89087734D01*
X122472579Y-89088496D01*
X122339774Y-89049502D01*
X122339772Y-89049502D01*
X122210228Y-89049502D01*
X122210226Y-89049502D01*
X122085935Y-89085996D01*
X122085932Y-89085997D01*
X122085931Y-89085998D01*
X122034677Y-89118936D01*
X121976950Y-89156035D01*
X121892118Y-89253939D01*
X121892117Y-89253940D01*
X121838302Y-89371776D01*
X121819867Y-89500002D01*
X121819867Y-89508869D01*
X121817399Y-89508869D01*
X121809319Y-89565015D01*
X121784212Y-89601172D01*
X121753010Y-89632374D01*
X121734222Y-89647793D01*
X121721380Y-89656373D01*
X121721377Y-89656376D01*
X121660485Y-89747506D01*
X121660485Y-89747507D01*
X121656285Y-89768624D01*
X121639103Y-89855000D01*
X121639103Y-89855002D01*
X121642117Y-89870153D01*
X121644500Y-89894346D01*
X121644500Y-90008686D01*
X121624815Y-90075725D01*
X121590579Y-90110985D01*
X121582981Y-90116189D01*
X121542681Y-90156490D01*
X121481358Y-90189975D01*
X121411666Y-90184991D01*
X121367319Y-90156490D01*
X121337016Y-90126187D01*
X121237663Y-90082318D01*
X121213373Y-90079500D01*
X120786634Y-90079500D01*
X120786611Y-90079502D01*
X120762340Y-90082317D01*
X120762337Y-90082318D01*
X120662984Y-90126186D01*
X120612680Y-90176490D01*
X120551357Y-90209974D01*
X120481665Y-90204989D01*
X120437320Y-90176490D01*
X120387016Y-90126187D01*
X120287663Y-90082318D01*
X120263373Y-90079500D01*
X119836634Y-90079500D01*
X119836611Y-90079502D01*
X119812340Y-90082317D01*
X119812337Y-90082318D01*
X119712984Y-90126186D01*
X119636187Y-90202983D01*
X119592318Y-90302335D01*
X119592318Y-90302337D01*
X119589500Y-90326625D01*
X119589500Y-90526754D01*
X119569815Y-90593793D01*
X119517011Y-90639548D01*
X119465500Y-90650754D01*
X119458074Y-90650754D01*
X119438678Y-90649227D01*
X119416799Y-90645762D01*
X119394919Y-90649227D01*
X119375524Y-90650754D01*
X119353366Y-90650754D01*
X119332290Y-90657601D01*
X119313381Y-90662141D01*
X119291494Y-90665608D01*
X119271751Y-90675667D01*
X119253787Y-90683108D01*
X119232709Y-90689957D01*
X119232704Y-90689960D01*
X119214776Y-90702985D01*
X119198196Y-90713145D01*
X119178459Y-90723202D01*
X119178458Y-90723202D01*
X119167175Y-90734485D01*
X119155893Y-90745767D01*
X119155892Y-90745767D01*
X117644513Y-92257146D01*
X117644513Y-92257147D01*
X117633231Y-92268429D01*
X117621948Y-92279712D01*
X117621948Y-92279713D01*
X117611891Y-92299450D01*
X117601731Y-92316030D01*
X117588706Y-92333958D01*
X117588703Y-92333963D01*
X117581854Y-92355041D01*
X117574413Y-92373005D01*
X117564354Y-92392748D01*
X117560887Y-92414635D01*
X117556347Y-92433544D01*
X117549500Y-92454620D01*
X117549500Y-93681524D01*
X114604104Y-93681524D01*
X114604104Y-93074618D01*
X114604104Y-93074617D01*
X114175661Y-92509073D01*
X114150869Y-92443750D01*
X114150500Y-92434195D01*
X114150500Y-90125003D01*
X117544508Y-90125003D01*
X117564352Y-90250300D01*
X117564352Y-90250301D01*
X117564354Y-90250304D01*
X117621950Y-90363342D01*
X117621952Y-90363344D01*
X117621954Y-90363347D01*
X117711652Y-90453045D01*
X117711654Y-90453046D01*
X117711658Y-90453050D01*
X117824696Y-90510646D01*
X117824697Y-90510646D01*
X117824699Y-90510647D01*
X117949997Y-90530492D01*
X117950000Y-90530492D01*
X117950003Y-90530492D01*
X118075300Y-90510647D01*
X118075301Y-90510647D01*
X118075302Y-90510646D01*
X118075304Y-90510646D01*
X118188342Y-90453050D01*
X118278050Y-90363342D01*
X118335646Y-90250304D01*
X118335646Y-90250302D01*
X118335647Y-90250301D01*
X118335647Y-90250300D01*
X118355492Y-90125003D01*
X118355492Y-90124996D01*
X118335647Y-89999699D01*
X118335647Y-89999698D01*
X118333058Y-89994616D01*
X118278050Y-89886658D01*
X118278046Y-89886654D01*
X118278045Y-89886652D01*
X118188347Y-89796954D01*
X118188344Y-89796952D01*
X118188342Y-89796950D01*
X118075304Y-89739354D01*
X118075303Y-89739353D01*
X118075300Y-89739352D01*
X117950003Y-89719508D01*
X117949997Y-89719508D01*
X117824699Y-89739352D01*
X117824698Y-89739352D01*
X117758566Y-89773049D01*
X117711658Y-89796950D01*
X117711656Y-89796951D01*
X117711652Y-89796954D01*
X117621954Y-89886652D01*
X117621951Y-89886657D01*
X117621950Y-89886658D01*
X117605399Y-89919141D01*
X117564352Y-89999698D01*
X117564352Y-89999699D01*
X117544508Y-90124996D01*
X117544508Y-90125003D01*
X114150500Y-90125003D01*
X114150500Y-88768709D01*
X117799500Y-88768709D01*
X117808899Y-88849120D01*
X117814759Y-88899256D01*
X117814760Y-88899259D01*
X117874762Y-89064115D01*
X117874764Y-89064119D01*
X117971167Y-89210693D01*
X117971168Y-89210694D01*
X118098778Y-89331089D01*
X118098780Y-89331090D01*
X118098782Y-89331092D01*
X118250719Y-89418812D01*
X118418790Y-89469130D01*
X118593935Y-89479331D01*
X118766711Y-89448865D01*
X118927804Y-89379377D01*
X119068530Y-89274610D01*
X119181302Y-89140214D01*
X119260040Y-88983433D01*
X119300500Y-88812721D01*
X119300500Y-88131291D01*
X119285241Y-88000745D01*
X119225237Y-87835883D01*
X119221595Y-87830346D01*
X119128832Y-87689306D01*
X119128831Y-87689305D01*
X119001221Y-87568910D01*
X118849281Y-87481188D01*
X118849282Y-87481188D01*
X118681210Y-87430870D01*
X118681205Y-87430869D01*
X118506066Y-87420669D01*
X118506065Y-87420669D01*
X118448220Y-87430869D01*
X118333293Y-87451134D01*
X118333291Y-87451134D01*
X118333289Y-87451135D01*
X118333287Y-87451136D01*
X118172198Y-87520622D01*
X118172190Y-87520626D01*
X118031469Y-87625390D01*
X117918698Y-87759785D01*
X117918697Y-87759787D01*
X117839961Y-87916562D01*
X117839960Y-87916567D01*
X117799500Y-88087279D01*
X117799500Y-88768709D01*
X114150500Y-88768709D01*
X114150500Y-86997635D01*
X114170185Y-86930596D01*
X114213477Y-86889690D01*
X114462887Y-86748694D01*
X114462886Y-86748694D01*
X114463675Y-86748248D01*
X114781063Y-86569405D01*
X114786408Y-86566567D01*
X115122766Y-86398557D01*
X115423380Y-86250003D01*
X118394508Y-86250003D01*
X118414352Y-86375300D01*
X118414352Y-86375301D01*
X118426281Y-86398712D01*
X118471950Y-86488342D01*
X118471952Y-86488344D01*
X118471954Y-86488347D01*
X118561652Y-86578045D01*
X118561654Y-86578046D01*
X118561658Y-86578050D01*
X118674696Y-86635646D01*
X118674697Y-86635646D01*
X118674699Y-86635647D01*
X118799997Y-86655492D01*
X118800000Y-86655492D01*
X118800003Y-86655492D01*
X118925300Y-86635647D01*
X118925301Y-86635647D01*
X118925302Y-86635646D01*
X118925304Y-86635646D01*
X119038342Y-86578050D01*
X119128050Y-86488342D01*
X119185646Y-86375304D01*
X119185646Y-86375302D01*
X119185647Y-86375301D01*
X119185647Y-86375300D01*
X119205492Y-86250003D01*
X119205492Y-86249996D01*
X119185647Y-86124699D01*
X119185647Y-86124698D01*
X119166946Y-86087996D01*
X119128050Y-86011658D01*
X119128046Y-86011654D01*
X119128045Y-86011652D01*
X119038347Y-85921954D01*
X119038344Y-85921952D01*
X119038342Y-85921950D01*
X118925304Y-85864354D01*
X118925303Y-85864353D01*
X118925300Y-85864352D01*
X118800003Y-85844508D01*
X118799997Y-85844508D01*
X118674699Y-85864352D01*
X118674698Y-85864352D01*
X118599337Y-85902751D01*
X118561658Y-85921950D01*
X118561657Y-85921951D01*
X118561652Y-85921954D01*
X118471954Y-86011652D01*
X118471951Y-86011657D01*
X118414352Y-86124698D01*
X118414352Y-86124699D01*
X118394508Y-86249996D01*
X118394508Y-86250003D01*
X115423380Y-86250003D01*
X115441396Y-86241100D01*
X115446548Y-86238703D01*
X115790733Y-86088306D01*
X115791450Y-86087996D01*
X116118055Y-85948041D01*
X116123065Y-85946024D01*
X116474526Y-85813459D01*
X116475259Y-85813187D01*
X116809214Y-85691015D01*
X116814009Y-85689372D01*
X117171869Y-85574976D01*
X117172825Y-85574678D01*
X117512989Y-85470727D01*
X117517453Y-85469456D01*
X117880522Y-85373603D01*
X117882105Y-85373199D01*
X118227320Y-85287823D01*
X118231511Y-85286865D01*
X118598930Y-85209767D01*
X118600943Y-85209364D01*
X118950312Y-85142783D01*
X118954142Y-85142119D01*
X119325092Y-85083947D01*
X119327516Y-85083594D01*
X119679848Y-85036031D01*
X119683338Y-85035612D01*
X120056826Y-84996526D01*
X120059577Y-84996272D01*
X120414093Y-84967832D01*
X120417174Y-84967626D01*
X120792103Y-84947742D01*
X120795377Y-84947613D01*
X121150703Y-84938401D01*
X121153577Y-84938360D01*
X121529007Y-84937720D01*
X121532590Y-84937768D01*
G37*
%TD.AperFunction*%
%TD*%
M02*
